<svg width="274" height="196" viewBox="0 0 274 196" fill="none" xmlns="http://www.w3.org/2000/svg">
<g filter="url(#filter0_d_1002_2715)">
<path d="M69.0696 106.595L71.0486 107.51C71.6333 105.618 71.9256 103.649 71.9227 101.606V98.9353L64.9653 100.069V102.74C64.9741 105.181 64.2287 107.595 62.7349 109.977C61.2411 112.362 58.6628 114.856 55 117.465L58.8353 122.356C62.7408 119.528 65.7546 116.657 67.8769 113.732L65.1583 112.448L69.0667 106.598L69.0696 106.595Z" fill="white"/>
<path d="M81.622 112.392L72.2179 107.51C71.6858 109.233 70.9141 110.895 69.8968 112.489C69.6337 112.902 69.3502 113.316 69.0491 113.729L77.8451 118.436L81.622 112.392Z" fill="white"/>
<path d="M71.0486 107.51L69.0695 106.595L65.1611 112.445L67.8798 113.729C68.1808 113.315 68.4615 112.902 68.7275 112.489C69.7448 110.892 70.5165 109.23 71.0486 107.51Z" fill="white"/>
<path opacity="0.99" d="M90.2193 122.409C89.3365 121.232 88.1175 120.417 86.5624 119.968C85.0072 119.52 83.2445 119.455 81.28 119.774L71.5983 121.35C69.6338 121.668 67.8799 122.309 66.3423 123.262C64.8017 124.219 63.6002 125.426 62.7379 126.887C61.8726 128.351 61.4429 129.971 61.4458 131.751C61.4458 133.501 61.8843 134.968 62.7496 136.149C63.6149 137.33 64.8222 138.144 66.3627 138.599C67.9033 139.05 69.6572 139.118 71.6216 138.796L81.3034 137.22C83.2679 136.902 85.0276 136.261 86.5828 135.305C88.1351 134.348 89.3511 133.135 90.231 131.671C91.108 130.207 91.5465 128.599 91.5436 126.846C91.5436 125.066 91.0992 123.587 90.2164 122.409H90.2193ZM83.5865 130.125C82.8528 130.733 81.7975 131.149 80.4206 131.373L72.5015 132.663C71.151 132.884 70.1162 132.808 69.397 132.436C68.6779 132.064 68.3154 131.45 68.3154 130.588C68.3154 129.726 68.6721 128.994 69.3912 128.386C70.1074 127.781 71.1422 127.368 72.4928 127.15L80.4118 125.86C81.7887 125.635 82.8469 125.706 83.5806 126.075C84.3144 126.444 84.6827 127.058 84.6827 127.92C84.6827 128.782 84.3173 129.517 83.5865 130.125Z" fill="white"/>
<path d="M96.5071 116.99L96.4983 111.347L135.57 104.977L135.579 110.621L96.5071 116.99Z" fill="white"/>
<path d="M130.44 117.663C129.587 116.654 128.362 115.948 126.763 115.547C125.164 115.148 123.293 115.122 121.15 115.47L110.942 117.135C108.799 117.483 106.931 118.118 105.332 119.039C103.733 119.959 102.511 121.063 101.661 122.35C100.81 123.637 100.389 125.012 100.392 126.479C100.392 127.943 100.822 129.18 101.672 130.193C102.526 131.202 103.751 131.907 105.35 132.309C106.949 132.707 108.82 132.734 110.963 132.386L121.171 130.721C123.31 130.373 125.181 129.738 126.78 128.817C128.376 127.896 129.601 126.792 130.452 125.505C131.3 124.219 131.723 122.843 131.721 121.376C131.721 119.912 131.291 118.673 130.44 117.663ZM123.649 124.201C122.843 124.676 121.545 125.06 119.756 125.352L112.363 126.556C110.574 126.848 109.276 126.887 108.469 126.674C107.662 126.462 107.259 126.01 107.256 125.319C107.256 124.632 107.656 124.047 108.463 123.572C109.27 123.097 110.568 122.713 112.357 122.421L119.75 121.217C121.539 120.925 122.837 120.886 123.644 121.099C124.45 121.311 124.854 121.763 124.857 122.453C124.857 123.144 124.456 123.726 123.649 124.201Z" fill="white"/>
<path d="M112.608 111.952L112.597 105.447L119.46 104.328L119.472 110.833L112.608 111.952Z" fill="white"/>
<path d="M115.532 95.2312L118.791 95.7831C119.227 94.511 119.446 93.168 119.443 91.7513V90.3286L113.018 91.3764V92.7991C113.024 94.5523 111.974 96.2819 109.881 97.985C107.785 99.691 104.245 101.509 99.261 103.442L101.117 108.785C105.575 107.167 109.144 105.488 111.828 103.744C112.936 103.023 113.915 102.285 114.772 101.53L112.991 101.249L115.535 95.2341L115.532 95.2312Z" fill="white"/>
<path d="M133.96 98.1504L119.96 95.7832C119.674 96.6215 119.297 97.7253 118.817 98.5016C118.113 99.6439 117.502 100.512 116.289 101.586L131.636 104.003L133.96 98.1533V98.1504Z" fill="white"/>
<path d="M117.648 98.2034C118.125 97.4301 118.505 96.6214 118.791 95.7831L115.532 95.2312L112.989 101.247L114.769 101.527C115.982 100.455 116.944 99.3457 117.648 98.2034Z" fill="white"/>
<path d="M149.815 93.9087L151.292 94.8975C151.83 92.8521 152.099 90.7033 152.096 88.4542V85.8687L145.226 86.9873V89.5729C145.235 92.0729 144.671 94.5699 143.545 97.064C142.42 99.561 140.493 102.037 137.769 104.49L141.999 108.799C144.717 106.42 146.878 103.941 148.48 101.361L145.507 99.3514L149.813 93.9087H149.815Z" fill="white"/>
<path d="M159.287 100.252L152.169 95.1929C151.765 96.7247 151.21 98.2035 150.502 99.6232C150.16 100.308 149.777 100.987 149.362 101.657L155.115 105.845L159.287 100.252Z" fill="white"/>
<path d="M151.292 94.8977L149.815 93.9089L145.51 99.3516L148.482 101.362C148.9 100.689 149.281 100.013 149.623 99.328C150.33 97.9083 150.885 96.4325 151.289 94.8977H151.292Z" fill="white"/>
<path d="M174.485 108.676C173.602 107.498 172.392 106.683 170.851 106.229C169.311 105.777 167.542 105.712 165.548 106.037L155.56 107.666C153.563 107.991 151.798 108.631 150.26 109.585C148.719 110.541 147.512 111.748 146.635 113.212C145.758 114.676 145.32 116.299 145.323 118.079C145.323 119.83 145.767 121.297 146.65 122.474C147.533 123.652 148.751 124.467 150.307 124.915C151.862 125.364 153.622 125.432 155.589 125.11L165.578 123.481C167.542 123.162 169.302 122.521 170.857 121.565C172.409 120.609 173.625 119.396 174.505 117.932C175.382 116.468 175.821 114.859 175.818 113.106C175.818 111.326 175.374 109.847 174.491 108.67L174.485 108.676ZM167.849 116.394C167.115 117.002 166.06 117.418 164.683 117.642L156.454 118.982C155.074 119.207 154.019 119.136 153.285 118.767C152.552 118.398 152.183 117.784 152.183 116.922C152.183 116.06 152.549 115.325 153.28 114.717C154.01 114.109 155.069 113.693 156.445 113.469L164.674 112.129C166.051 111.905 167.109 111.975 167.843 112.344C168.577 112.713 168.945 113.327 168.945 114.189C168.945 115.051 168.58 115.786 167.849 116.394Z" fill="white"/>
<path d="M163.505 96.2021L163.499 90.3432L165.917 89.9507L165.908 82.9702L159.658 83.9885L159.69 105.098L165.937 104.08L165.926 95.8096L163.505 96.2021Z" fill="white"/>
<path d="M171.03 94.9773L171.021 89.1184L165.917 89.9508L165.926 95.8096L171.03 94.9773Z" fill="white"/>
<path d="M163.505 96.2021L165.926 95.8096L165.917 89.9507L163.499 90.3432L163.505 96.2021Z" fill="white"/>
<path d="M168.931 104.024L168.898 82.0524L175.324 81.0046L175.356 102.976L168.931 104.024Z" fill="white"/>
<path d="M179.928 103.392L179.922 97.7489L218.994 91.3823L219.003 97.0257L179.928 103.392Z" fill="white"/>
<path d="M213.864 104.068C213.01 103.059 211.785 102.353 210.186 101.952C208.584 101.553 206.716 101.527 204.574 101.875L194.366 103.54C192.223 103.888 190.355 104.523 188.756 105.444C187.157 106.364 185.935 107.468 185.087 108.755C184.237 110.042 183.816 111.418 183.819 112.884C183.819 114.348 184.248 115.585 185.099 116.598C185.953 117.607 187.177 118.312 188.776 118.714C190.375 119.112 192.246 119.139 194.389 118.791L204.597 117.126C206.737 116.778 208.608 116.143 210.207 115.222C211.803 114.301 213.028 113.197 213.875 111.91C214.723 110.624 215.147 109.248 215.147 107.781C215.147 106.317 214.717 105.08 213.867 104.068H213.864ZM207.073 110.603C206.266 111.078 204.968 111.462 203.179 111.754L195.786 112.958C193.997 113.25 192.699 113.289 191.893 113.076C191.086 112.864 190.682 112.412 190.679 111.722C190.679 111.034 191.08 110.449 191.887 109.974C192.694 109.499 193.992 109.115 195.781 108.823L203.173 107.619C204.962 107.327 206.26 107.288 207.067 107.501C207.874 107.713 208.277 108.165 208.28 108.856C208.28 109.546 207.88 110.128 207.073 110.603Z" fill="white"/>
<path d="M196.029 98.3568L196.02 91.8516L202.884 90.7329L202.896 97.2382L196.029 98.3568Z" fill="white"/>
<path d="M203.878 82.4805C203.592 83.3187 203.215 84.1274 202.735 84.9037C202.031 86.046 201.069 87.1558 199.856 88.2272L214.966 90.4054L217.29 84.5554L203.875 82.4834L203.878 82.4805Z" fill="white"/>
<path d="M202.215 82.1852C202.65 80.913 202.87 79.5701 202.867 78.1533V78.053H202.87L202.84 53L198.871 53.6139V53.5903L159.796 59.9569V60.0366L121.618 66.2585V66.3086L84.1917 72.4066L84.253 72.7933L84.1917 72.8051L84.1975 76.7247H84.1917L84.1975 76.7543L84.2092 85.7654H84.1946L84.2092 85.8628L84.2209 95.8509L84.1946 95.8568L84.2267 117.828L91.0905 116.71L91.0642 98.5044L91.0905 98.4985L91.0817 90.2813L160.702 78.8174L196.436 72.994L196.441 77.7814V79.2041C196.441 80.9573 195.398 82.684 193.302 84.39C191.206 86.096 187.666 87.9142 182.682 89.8474L184.538 95.1898C188.996 93.5723 192.565 91.8929 195.249 90.1485C196.357 89.4283 197.336 88.6904 198.192 87.9348C199.406 86.8634 200.367 85.7536 201.072 84.6114C201.548 83.838 201.928 83.0293 202.215 82.1881V82.1852ZM159.799 73.3186V73.3983L121.621 79.6202V79.6704L91.0759 84.6497V81.2436L160.702 69.7767L196.427 63.9533V67.3506L159.799 73.3216V73.3186Z" fill="white"/>
</g>
<defs>
<filter id="filter0_d_1002_2715" x="0" y="0" width="274.003" height="195.996" filterUnits="userSpaceOnUse" color-interpolation-filters="sRGB">
<feFlood flood-opacity="0" result="BackgroundImageFix"/>
<feColorMatrix in="SourceAlpha" type="matrix" values="0 0 0 0 0 0 0 0 0 0 0 0 0 0 0 0 0 0 127 0" result="hardAlpha"/>
<feOffset dy="2"/>
<feGaussianBlur stdDeviation="27.5"/>
<feComposite in2="hardAlpha" operator="out"/>
<feColorMatrix type="matrix" values="0 0 0 0 0.984314 0 0 0 0 0.427451 0 0 0 0 0.662745 0 0 0 1 0"/>
<feBlend mode="normal" in2="BackgroundImageFix" result="effect1_dropShadow_1002_2715"/>
<feBlend mode="normal" in="SourceGraphic" in2="effect1_dropShadow_1002_2715" result="shape"/>
</filter>
</defs>
</svg>
