<svg width="64" height="64" viewBox="0 0 64 64" fill="none" xmlns="http://www.w3.org/2000/svg">
<path d="M32 6C17.64 6 6 17.64 6 32C6 46.36 17.64 58 32 58C46.36 58 58 46.36 58 32C58 17.64 46.36 6 32 6ZM20 13L24 22L22 24L13 20C13 20 14 18 16 16C18 14 20 13 20 13ZM32 22C37.52 22 42 26.48 42 32C42 37.52 37.52 42 32 42C26.48 42 22 37.52 22 32C22 26.48 26.48 22 32 22ZM32 30C30.9 30 30 30.9 30 32C30 33.1 30.9 34 32 34C33.1 34 34 33.1 34 32C34 30.9 33.1 30 32 30ZM42 40L51 44C51 44 50 46 48 48C46 50 44 51 44 51L40 42L42 40Z" fill="url(#paint0_linear_2001_5286)"/>
<defs>
<linearGradient id="paint0_linear_2001_5286" x1="12.8889" y1="9.66871" x2="36.2798" y2="59.9464" gradientUnits="userSpaceOnUse">
<stop stop-color="white"/>
<stop offset="1" stop-color="#5867FE"/>
</linearGradient>
</defs>
</svg>
