<svg width="56" height="54" viewBox="0 0 56 54" fill="none" xmlns="http://www.w3.org/2000/svg">
<g clip-path="url(#clip0_2533_4962)">
<path fill-rule="evenodd" clip-rule="evenodd" d="M55.4491 7.41969C55.4491 7.83969 55.1091 8.18969 54.6791 8.18969H54.6691H50.2191V16H47.0091V8.18969H42.5591C42.1391 8.18969 41.7891 7.84969 41.7891 7.41969V6.30969C41.7891 5.88969 42.1291 5.53969 42.5591 5.53969H47.0091V3.83969H43.9091C43.5291 3.83969 43.2191 3.52969 43.2191 3.14969V1.86969C43.2191 1.48969 43.5291 1.17969 43.9091 1.17969H53.3391C53.7191 1.17969 54.0291 1.48969 54.0291 1.86969V3.14969C54.0291 3.52969 53.7191 3.83969 53.3391 3.83969H50.2291V5.53969H54.6791C55.0991 5.53969 55.4491 5.87969 55.4491 6.30969V7.41969ZM47.0091 20V43.1897H44.1591C43.8991 43.1897 43.6791 43.3397 43.5491 43.5497L43 44L41.9391 45.4897H43.5491C43.6791 45.6997 43.8991 45.8497 44.1591 45.8497H54.7091C55.1091 45.8497 55.4391 45.5197 55.4391 45.1197V43.9197C55.4391 43.6097 55.2391 43.3497 54.9691 43.2497L50.2191 37.6097V20H47.0091ZM50.2291 41.3997V43.1897L50.2191 43.1997H51.7391L50.2291 41.3997Z" fill="url(#paint0_linear_2533_4962)"/>
<path d="M34.0402 39.96C35.0702 39.96 35.9202 40.8 35.9202 41.84C35.9202 42.88 35.0802 43.72 34.0402 43.72C33.0002 43.72 32.1602 42.88 32.1602 41.84C32.1602 40.8 33.0002 39.96 34.0402 39.96ZM34.0402 36.46C31.0702 36.46 28.6602 38.87 28.6602 41.84C28.6602 44.81 31.0702 47.22 34.0402 47.22C37.0102 47.22 39.4202 44.81 39.4202 41.84C39.4202 38.87 37.0102 36.46 34.0402 36.46Z" fill="url(#paint1_linear_2533_4962)"/>
<path fill-rule="evenodd" clip-rule="evenodd" d="M23.7837 25.7895C23.4268 27.3666 22.7077 28.8592 21.6799 30.13C22.1321 30.4789 22.5576 30.8537 22.955 31.2516C23.1254 30.9513 23.4401 30.7399 23.8107 30.7399H24.0107V25.7899H23.8107C23.8017 25.7899 23.7927 25.7898 23.7837 25.7895ZM24.0368 23.1299C23.8731 18.0672 19.9449 13.7123 14.9999 12.93V9.3H16.1799C16.9399 9.3 17.5699 8.68 17.5699 7.91V1.39C17.5699 0.63 16.9499 0 16.1799 0H10.7499C9.98993 0 9.35993 0.62 9.35993 1.39V7.93C9.35993 8.69 9.97993 9.32 10.7499 9.32H11.7799V12.94C9.59993 13.27 7.57993 14.26 5.95993 15.83C3.87993 17.85 2.72993 20.56 2.72993 23.46C2.72993 25.9 3.57993 28.28 5.10993 30.09C1.75993 32.72 -0.100072 36.67 -7.18806e-05 40.94C0.169928 47.87 5.93993 53.72 12.8699 53.99H13.3999C16.8799 53.99 20.1599 52.67 22.6799 50.25C23.406 49.5513 24.0428 48.7865 24.5847 47.9688C26.5974 51.0669 30.0887 53.1199 34.0507 53.1199C40.2707 53.1199 45.3307 48.0599 45.3307 41.8399C45.3307 38.4799 43.8407 35.4599 41.5007 33.3899H44.7807C45.3307 33.3899 45.7807 32.9399 45.7807 32.3899V31.7399C45.7807 31.1899 45.3307 30.7399 44.7807 30.7399H43.8607V25.7899H44.7807L44.7707 25.7799C45.3207 25.7799 45.7707 25.3299 45.7707 24.7799V24.1299C45.7707 23.5799 45.3207 23.1299 44.7707 23.1299H24.0368ZM26.208 44.5295C26.5914 43.2737 26.7899 41.9532 26.7899 40.6C26.7899 39.799 26.7199 39.0097 26.5836 38.2393C27.9239 35.4709 30.7608 33.5599 34.0407 33.5599C38.6107 33.5599 42.3207 37.2699 42.3207 41.8399C42.3207 46.3999 38.6107 50.1199 34.0407 50.1199C30.412 50.1199 27.3256 47.7809 26.208 44.5295ZM25.3921 34.633C25.1784 34.2061 24.9415 33.7911 24.6821 33.3899H26.6007C26.1673 33.7733 25.7631 34.1889 25.3921 34.633ZM12.9799 50.99C15.8299 51.09 18.5499 50.07 20.5999 48.09H20.5799C22.6399 46.11 23.7699 43.45 23.7699 40.6C23.7699 37.38 22.2999 34.39 19.7399 32.4C19.1199 31.91 18.7099 31.19 18.6299 30.41C18.5499 29.65 18.7699 28.91 19.2599 28.33C20.3799 26.99 20.9899 25.35 21.0299 23.61C21.0999 19.97 18.4499 16.75 14.9899 15.98V41.58C14.9899 42.3 14.3999 42.89 13.6799 42.89H13.0899C12.3699 42.89 11.7799 42.3 11.7799 41.58V15.98C10.3899 16.27 9.10993 16.95 8.05993 17.97C6.55993 19.42 5.73993 21.37 5.73993 23.45C5.73993 25.24 6.33993 26.92 7.47993 28.3C7.98993 28.92 8.21993 29.68 8.12993 30.46C8.04993 31.23 7.65993 31.92 7.03993 32.4C4.38993 34.44 2.91993 37.53 2.99993 40.87C3.12993 46.24 7.60993 50.78 12.9799 50.99ZM27.0007 26.4199H40.8507V30.1699L27.0007 30.2999V26.4199Z" fill="url(#paint2_linear_2533_4962)"/>
<path d="M54.5003 15.65C55.0203 15.65 55.4503 15.22 55.4503 14.7V13.95C55.4503 13.43 55.0203 13 54.5003 13H35.7703C35.2503 13 34.8203 13.43 34.8203 13.95V14.7C34.8203 15.22 35.2503 15.65 35.7703 15.65H36.7303V19.34H35.7703C35.2503 19.34 34.8203 19.77 34.8203 20.29V21.04C34.8203 21.56 35.2503 21.99 35.7703 21.99H54.5003C55.0203 21.99 55.4503 21.56 55.4503 21.04V20.29C55.4503 19.77 55.0203 19.34 54.5003 19.34H53.6803V15.65H54.5003ZM50.6803 16.43V18.42H39.7303V16.43H50.6803Z" fill="url(#paint3_linear_2533_4962)"/>
</g>
<defs>
<linearGradient id="paint0_linear_2533_4962" x1="43.5987" y1="4.33125" x2="67.7137" y2="20.182" gradientUnits="userSpaceOnUse">
<stop stop-color="white"/>
<stop offset="1" stop-color="#5867FE"/>
</linearGradient>
<linearGradient id="paint1_linear_2533_4962" x1="30.0856" y1="37.2191" x2="34.9258" y2="47.6227" gradientUnits="userSpaceOnUse">
<stop stop-color="white"/>
<stop offset="1" stop-color="#5867FE"/>
</linearGradient>
<linearGradient id="paint2_linear_2533_4962" x1="6.06157" y1="3.80911" x2="32.8393" y2="52.619" gradientUnits="userSpaceOnUse">
<stop stop-color="white"/>
<stop offset="1" stop-color="#5867FE"/>
</linearGradient>
<linearGradient id="paint3_linear_2533_4962" x1="37.5533" y1="13.6343" x2="39.6124" y2="23.7904" gradientUnits="userSpaceOnUse">
<stop stop-color="white"/>
<stop offset="1" stop-color="#5867FE"/>
</linearGradient>
<clipPath id="clip0_2533_4962">
<rect width="55.45" height="54" fill="white"/>
</clipPath>
</defs>
</svg>
