<svg width="51" height="51" viewBox="0 0 51 51" fill="none" xmlns="http://www.w3.org/2000/svg">
<g clip-path="url(#clip0_2455_2669)">
<path d="M11.5407 32.4199C11.7007 32.5599 11.8507 32.6699 11.9707 32.7999C13.5707 34.4199 15.1607 36.0499 16.7607 37.6699C17.0507 37.9699 17.3407 38.2599 17.6407 38.5599C17.8807 38.7999 17.8607 38.9999 17.6007 39.2299C17.2107 39.5799 16.8607 39.9699 16.4907 40.3299C16.1007 40.7099 16.0007 40.7099 15.6107 40.3099C14.9207 39.6199 14.2207 38.9299 13.5307 38.2299C12.3607 37.0499 11.1807 35.8699 10.0107 34.6899C9.67072 34.3499 9.66072 34.1699 10.0107 33.8199C10.3807 33.4499 10.7407 33.0699 11.1207 32.7099C11.2307 32.5999 11.3807 32.5299 11.5407 32.4199Z" fill="url(#paint0_linear_2455_2669)" stroke="url(#paint1_linear_2455_2669)" stroke-width="0.5" stroke-miterlimit="10"/>
<path d="M49.9204 4.72993C48.5404 3.33993 47.1504 1.95993 45.7504 0.589928C45.1004 -0.050072 44.3104 -0.010072 43.6604 0.659928C43.3404 0.989928 43.0204 1.30993 42.6904 1.61993C42.5204 1.78993 42.3504 1.88993 42.1704 1.78993L42.1404 1.75993C42.1404 1.75993 42.0404 1.67993 41.9904 1.60993C41.9704 1.57993 41.9304 1.54993 41.9004 1.51993L41.5004 1.11993C41.3104 0.929928 41.0004 0.929928 40.8204 1.11993L40.6604 1.27993C40.4704 1.46993 40.4704 1.77993 40.6604 1.95993L41.3204 2.61993C41.6904 3.03993 41.6604 3.14993 41.2204 3.56993C40.8204 3.94993 40.5704 3.61993 40.2904 3.40993C40.2704 3.38993 40.2604 3.38993 40.2404 3.36993L39.7604 2.88993C39.5704 2.69993 39.2604 2.69993 39.0804 2.88993L38.9204 3.04993C38.7304 3.23993 38.7304 3.54993 38.9204 3.72993L39.3204 4.12993C39.3204 4.12993 39.3804 4.21993 39.4304 4.25993C39.8404 4.66993 39.8304 4.73993 39.4204 5.15993C39.0704 5.50993 38.7404 5.87993 38.3704 6.20993C37.9604 6.57993 37.8904 6.99993 37.9704 7.51993C38.0004 7.71993 37.9304 8.01993 37.7904 8.15993C35.7304 10.2499 33.6404 12.3299 31.5604 14.4099C31.1404 14.8299 31.0204 14.8299 30.5104 14.5399C30.0004 14.2499 29.4904 13.9299 28.9404 13.7299C28.1004 13.4199 27.2404 13.1699 26.3804 12.9299C25.2504 12.6199 24.0904 12.5899 22.9504 12.7499C21.5804 12.9399 20.3204 13.4299 19.1504 14.1799C18.2504 14.7599 17.5004 15.4799 17.0204 16.4199C16.6604 17.1199 16.4104 17.8699 16.1004 18.5899C15.1004 20.9399 13.3504 22.2899 10.7804 22.4299C9.1704 22.5199 7.6104 22.7399 6.1304 23.4199C4.7404 24.0599 3.4804 24.8899 2.5004 26.0899C0.860399 28.0599 0.0503987 30.3299 0.130399 32.9099C0.150399 33.6499 0.0803987 34.3999 0.200399 35.1199C0.430399 36.4799 0.800399 37.7999 1.3504 39.0799C2.1004 40.8099 3.0804 42.3899 4.3404 43.7699C6.1404 45.7399 8.1504 47.4599 10.5904 48.6099C12.2104 49.3799 13.8804 49.9499 15.6704 50.1599C17.5804 50.3899 19.4404 50.2299 21.2504 49.5699C23.0104 48.9299 24.5704 47.9999 25.7404 46.5099C27.1204 44.7499 27.8204 42.7299 27.9304 40.4899C27.9604 39.8799 28.0004 39.2599 28.1104 38.6499C28.4304 36.8499 29.3804 35.4799 31.0304 34.6699C31.8404 34.2699 32.7204 33.9999 33.5304 33.5899C34.6504 33.0199 35.6604 32.3099 36.3704 31.2199C37.0104 30.2399 37.4104 29.1899 37.6604 28.0399C37.9804 26.5399 37.8304 25.0699 37.5004 23.6099C37.1804 22.2199 36.6004 20.9199 35.8204 19.7199C35.6404 19.4399 35.6304 19.2399 35.8904 18.9799C38.0504 16.8399 40.1904 14.6999 42.3304 12.5499C42.5504 12.3299 42.7604 12.3699 42.9904 12.4499C43.4304 12.5999 43.7704 12.4699 44.0804 12.1499C44.4504 11.7799 44.8304 11.4199 45.2004 11.0499C45.6904 10.5699 45.7104 10.5699 46.2304 11.0099L46.2704 11.0499C46.3704 11.1499 46.5104 11.1899 46.6404 11.1899C46.7504 11.1899 46.8604 11.1399 46.9404 11.0599L47.1004 10.8999C47.2904 10.7099 47.2904 10.3999 47.1004 10.2199L46.8204 9.93993C46.8204 9.93993 46.7904 9.89993 46.7804 9.87993C46.7404 9.75993 46.7104 9.59993 46.7604 9.50993C47.0204 9.00993 47.4104 8.90993 47.8604 9.24993C47.9304 9.29993 48.0004 9.32993 48.0604 9.34993C48.2504 9.48993 48.5204 9.47993 48.6904 9.30993L48.8504 9.14993C49.0404 8.95993 49.0404 8.64993 48.8504 8.46993L48.6404 8.25993C48.6404 8.25993 48.6004 8.20993 48.5804 8.16993C48.3504 7.89993 48.3604 7.66993 48.6604 7.45993C49.0504 7.17993 49.4404 6.88993 49.8104 6.57993C50.5004 6.01993 50.5404 5.34993 49.9204 4.72993ZM32.9204 30.2199C32.2804 30.7199 31.5204 31.1299 30.7404 31.3899C29.2304 31.8999 28.0004 32.7699 26.9604 33.9399C25.9004 35.1299 25.2304 36.5199 24.8904 38.0599C24.7404 38.7399 24.6904 39.4399 24.6204 40.1299C24.4604 41.6099 24.1804 43.0499 23.2804 44.2899C21.9304 46.1399 20.1104 47.1099 17.8304 47.2799C16.4504 47.3799 15.0904 47.2799 13.7904 46.8399C12.7304 46.4799 11.7004 46.0099 10.7104 45.4699C9.2404 44.6699 7.9904 43.5699 6.8604 42.3399C5.5204 40.8699 4.4804 39.1899 3.7904 37.3299C3.3004 36.0099 2.9704 34.6299 3.0304 33.1999C3.1204 31.0999 3.7804 29.2199 5.3604 27.7599C6.7304 26.5099 8.3604 25.8899 10.2304 25.8599C11.8304 25.8299 13.3704 25.4899 14.7804 24.6899C16.7504 23.5599 18.1404 21.9199 18.9404 19.8099C19.3704 18.6699 19.8504 17.5799 20.8604 16.8199C21.9104 16.0299 23.0904 15.7899 24.3804 15.8299C25.7504 15.8599 26.9704 16.3099 28.1704 16.9099C28.6004 17.1199 28.6204 17.3199 28.3004 17.6399C26.5804 19.3599 24.8704 21.0799 23.1404 22.7899C22.9804 22.9499 22.7004 23.0799 22.4804 23.0799C20.1204 23.0999 18.0804 24.2599 17.2304 26.5399C16.4804 28.5699 17.0404 30.8499 18.6704 32.2499C20.5904 33.8999 23.0004 33.9799 25.0004 32.6599C26.3104 31.7899 27.1504 30.5499 27.2404 28.8999C27.2604 28.5699 27.2304 28.2299 27.2904 27.8999C27.3304 27.6799 27.4604 27.4499 27.6204 27.2899C29.3204 25.5799 31.0404 23.8699 32.7504 22.1699C32.8804 22.0399 33.0304 21.9299 33.2204 21.7699C33.7604 22.7299 34.2304 23.6499 34.3704 24.6899C34.4604 25.2999 34.5804 25.9099 34.5804 26.5199C34.5804 27.9899 34.0904 29.3199 32.9204 30.2399V30.2199ZM42.3004 7.08993C42.0804 7.30993 41.8704 7.51993 41.6504 7.73993C41.5404 7.84993 41.4204 7.91993 41.3004 7.90993C41.2704 7.90993 41.2504 7.89993 41.2204 7.88993C41.1904 7.88993 41.1604 7.86993 41.1404 7.85993C41.1104 7.83993 41.0704 7.84993 41.0404 7.81993L40.7004 7.47993C40.5604 7.33993 40.5604 7.11993 40.7004 6.97993L44.8004 2.87993C44.9404 2.73993 45.1604 2.73993 45.3004 2.87993L45.6404 3.21993C45.7404 3.31993 45.7404 3.45993 45.7004 3.57993C45.7004 3.57993 45.7004 3.57993 45.7004 3.58993C45.6804 3.62993 45.6804 3.67993 45.6504 3.70993L45.5604 3.79993C45.5604 3.79993 45.5104 3.87993 45.4804 3.89993C45.2904 4.08993 45.1004 4.27993 44.9104 4.46993H44.9004L44.0604 5.28993L44.0804 5.30993C43.7804 5.61993 43.4704 5.91993 43.1704 6.22993L43.1504 6.20993L42.3104 7.04993L42.3304 7.06993L42.3004 7.08993ZM47.5004 5.67993L43.4004 9.77993C43.2604 9.91993 43.0404 9.91993 42.9004 9.77993L42.5604 9.43993C42.4204 9.29993 42.4204 9.07993 42.5604 8.93993L46.6604 4.83993C46.8004 4.69993 47.0204 4.69993 47.1604 4.83993L47.5004 5.17993C47.6404 5.31993 47.6404 5.53993 47.5004 5.67993Z" fill="url(#paint2_linear_2455_2669)" stroke="url(#paint3_linear_2455_2669)" stroke-width="0.25" stroke-miterlimit="10"/>
</g>
<defs>
<linearGradient id="paint0_linear_2455_2669" x1="10.8193" y1="32.9979" x2="14.5441" y2="40.8716" gradientUnits="userSpaceOnUse">
<stop stop-color="white"/>
<stop offset="1" stop-color="#5867FE"/>
</linearGradient>
<linearGradient id="paint1_linear_2455_2669" x1="10.8193" y1="32.9979" x2="14.5441" y2="40.8716" gradientUnits="userSpaceOnUse">
<stop stop-color="white"/>
<stop offset="1" stop-color="#5867FE"/>
</linearGradient>
<linearGradient id="paint2_linear_2455_2669" x1="6.77983" y1="3.66932" x2="29.2969" y2="52.172" gradientUnits="userSpaceOnUse">
<stop stop-color="white"/>
<stop offset="1" stop-color="#5867FE"/>
</linearGradient>
<linearGradient id="paint3_linear_2455_2669" x1="6.77983" y1="3.66932" x2="29.2969" y2="52.172" gradientUnits="userSpaceOnUse">
<stop stop-color="white"/>
<stop offset="1" stop-color="#5867FE"/>
</linearGradient>
<clipPath id="clip0_2455_2669">
<rect width="50.48" height="50.38" fill="white"/>
</clipPath>
</defs>
</svg>