<svg width="56" height="56" viewBox="0 0 56 56" fill="none" xmlns="http://www.w3.org/2000/svg">
<path d="M0.3 28C0.3 12.7017 12.7017 0.3 28 0.3C43.2983 0.3 55.7 12.7017 55.7 28C55.7 43.2983 43.2983 55.7 28 55.7C12.7017 55.7 0.3 43.2983 0.3 28Z" stroke="#7F7F7F" stroke-width="0.6"/>
<g filter="url(#filter0_d_1189_1504)">
<path d="M28.2928 8.57616C28.2035 8.42146 28.0385 8.32617 27.8598 8.32617C27.6812 8.32618 27.5161 8.42148 27.4268 8.57618L16.1826 28.0523C16.0933 28.207 16.0933 28.3976 16.1826 28.5523C16.2719 28.707 16.437 28.8023 16.6156 28.8023H39.1051C39.2837 28.8023 39.4488 28.707 39.5381 28.5523C39.6274 28.3976 39.6274 28.207 39.5381 28.0523L28.2928 8.57616Z" fill="#B8292D" stroke="#352416" stroke-linejoin="round"/>
<path d="M21.7897 37.6858C21.4291 36.9152 20.8442 36.2713 20.1187 35.8377C20.2939 35.4736 20.3924 35.0652 20.3924 34.6339C20.3924 34.3085 20.3326 33.9854 20.2226 33.6831H35.4912C35.3833 33.9798 35.3244 34.3001 35.3244 34.6339C35.3244 35.0458 35.4141 35.4372 35.575 35.7891C34.8147 36.2198 34.201 36.8778 33.8254 37.6711C33.757 37.6679 33.688 37.6661 33.6183 37.6661C32.6414 37.6661 31.7349 37.9735 30.9922 38.4965C30.049 37.968 28.9625 37.6661 27.8044 37.6661C26.6474 37.6661 25.6426 37.9434 24.7374 38.4296C24.0145 37.9484 23.1458 37.6661 22.2112 37.6661C22.0692 37.6661 21.9285 37.6728 21.7897 37.6858ZM42.1746 29.4716C42.1746 28.4552 41.7505 27.6665 41.0539 27.1468C40.3752 26.6404 39.4765 26.416 38.5425 26.416H17.134C15.1344 26.416 13.5 28.0504 13.5 30.05C13.5 31.3655 14.2069 32.5211 15.2575 33.1589C14.9886 33.5859 14.8321 34.0918 14.8321 34.6348C14.8321 35.2077 15.0022 35.732 15.2927 36.1689C14.3215 36.9464 13.6981 38.1429 13.6981 39.4845C13.6981 41.8145 15.5754 43.7065 17.8998 43.7304C18.4765 45.3911 19.9845 46.6146 21.7999 46.7771C22.7994 49.104 25.1116 50.7344 27.8054 50.7344C30.4922 50.7344 32.8013 49.1116 33.8043 46.7932C35.7225 46.7164 37.3357 45.4557 37.9345 43.7222C40.1541 43.5835 41.9117 41.7391 41.9117 39.4845C41.9117 38.1749 41.3179 37.0043 40.387 36.2263C40.7023 35.7755 40.8876 35.2266 40.8876 34.6348C40.8876 34.0789 40.7269 33.5674 40.4506 33.1373C41.4825 32.4957 42.1746 31.3514 42.1746 30.05V29.4716Z" fill="white" stroke="#352416" stroke-linejoin="round"/>
<path d="M19.3723 33.186C19.698 33.5804 19.8932 34.0855 19.8932 34.6368C19.8932 35.1881 19.7127 35.6521 19.4106 36.0395C20.3709 36.4486 21.1242 37.247 21.4754 38.2368C21.7147 38.1926 21.96 38.1691 22.2121 38.1691C23.1528 38.1691 24.017 38.4889 24.7065 39.0254C25.6119 38.482 26.6723 38.1691 27.8053 38.1691C28.9382 38.1691 30.0947 38.5124 31.0276 39.1019C31.7309 38.5193 32.6343 38.1691 33.6191 38.1691C33.7977 38.1691 33.9733 38.1818 34.1459 38.2044C34.5118 37.2009 35.2936 36.3995 36.2833 36.0062C35.9969 35.6246 35.8272 35.1508 35.8272 34.6378C35.8272 34.0865 36.0224 33.5813 36.348 33.187H19.3723V33.186Z" fill="#F8D5BA"/>
<path d="M31.6702 35.2857C31.6663 34.6785 32.0616 34.2037 32.5775 34.1969C33.0915 34.19 33.5163 34.6638 33.5261 35.2562C33.5359 35.8301 33.1033 36.348 32.608 36.3558C32.1018 36.3637 31.6741 35.8762 31.6702 35.2857Z" fill="#352416"/>
<path d="M23.6677 35.2626C23.6726 35.859 23.2616 36.3504 22.7544 36.3543C22.2473 36.3583 21.8216 35.8698 21.8177 35.2793C21.8137 34.6868 22.2277 34.1993 22.7378 34.1953C23.2576 34.1914 23.6637 34.6573 23.6686 35.2626H23.6677Z" fill="#352416"/>
<path d="M27.6741 34.9902C26.9061 34.9873 26.292 35.6023 26.2979 36.3704C26.3038 37.1178 26.9139 37.727 27.6623 37.7309C28.4275 37.7348 29.0415 37.1159 29.0356 36.3469C29.0297 35.5906 28.4314 34.9942 27.6741 34.9912V34.9902Z" fill="#B8292D"/>
<path d="M27.6558 41.1865C26.874 41.1414 26.309 40.7627 25.896 40.1526C25.6312 39.7622 25.744 39.5503 26.2119 39.5493C26.6533 39.5483 27.0957 39.6062 27.5371 39.6052C28.0648 39.6043 28.5926 39.5533 29.1203 39.5523C29.5902 39.5523 29.7049 39.7641 29.442 40.1506C29.0104 40.7833 28.4248 41.1698 27.6558 41.1865Z" fill="#352416"/>
<path d="M27.8361 10.7636C29.5658 10.7636 30.9679 9.36144 30.9679 7.6318C30.9679 5.90215 29.5658 4.5 27.8361 4.5C26.1065 4.5 24.7043 5.90215 24.7043 7.6318C24.7043 9.36144 26.1065 10.7636 27.8361 10.7636Z" fill="white" stroke="#352416" stroke-linejoin="round"/>
</g>
<defs>
<filter id="filter0_d_1189_1504" x="13" y="4" width="29.6746" height="49.11" filterUnits="userSpaceOnUse" color-interpolation-filters="sRGB">
<feFlood flood-opacity="0" result="BackgroundImageFix"/>
<feColorMatrix in="SourceAlpha" type="matrix" values="0 0 0 0 0 0 0 0 0 0 0 0 0 0 0 0 0 0 127 0" result="hardAlpha"/>
<feOffset dy="1.87564"/>
<feComposite in2="hardAlpha" operator="out"/>
<feColorMatrix type="matrix" values="0 0 0 0 0 0 0 0 0 0 0 0 0 0 0 0 0 0 0.25 0"/>
<feBlend mode="normal" in2="BackgroundImageFix" result="effect1_dropShadow_1189_1504"/>
<feBlend mode="normal" in="SourceGraphic" in2="effect1_dropShadow_1189_1504" result="shape"/>
</filter>
</defs>
</svg>
