<svg width="56" height="56" viewBox="0 0 56 56" fill="none" xmlns="http://www.w3.org/2000/svg">
<g filter="url(#filter0_d_1363_6397)">
<path d="M28.293 8.5764C28.2037 8.42171 28.0386 8.32641 27.86 8.32642C27.6813 8.32642 27.5163 8.42172 27.4269 8.57642L16.1827 28.0525C16.0934 28.2072 16.0934 28.3978 16.1827 28.5525C16.272 28.7072 16.4371 28.8025 16.6157 28.8025H39.1052C39.2838 28.8025 39.4489 28.7072 39.5382 28.5525C39.6275 28.3978 39.6275 28.2072 39.5382 28.0525L28.293 8.5764Z" fill="#B8292D" stroke="#352416" stroke-linejoin="round"/>
<path d="M21.7897 37.6858C21.4291 36.9152 20.8442 36.2713 20.1187 35.8377C20.2939 35.4736 20.3924 35.0652 20.3924 34.6339C20.3924 34.3085 20.3326 33.9854 20.2226 33.6831H35.4912C35.3833 33.9798 35.3244 34.3001 35.3244 34.6339C35.3244 35.0458 35.4141 35.4372 35.575 35.7891C34.8147 36.2198 34.201 36.8778 33.8254 37.6711C33.757 37.6679 33.688 37.6661 33.6183 37.6661C32.6414 37.6661 31.7349 37.9735 30.9922 38.4965C30.049 37.968 28.9625 37.6661 27.8044 37.6661C26.6474 37.6661 25.6426 37.9434 24.7374 38.4296C24.0145 37.9484 23.1458 37.6661 22.2112 37.6661C22.0692 37.6661 21.9285 37.6728 21.7897 37.6858ZM42.1746 29.4716C42.1746 28.4552 41.7505 27.6665 41.0539 27.1468C40.3752 26.6404 39.4765 26.416 38.5425 26.416H17.134C15.1344 26.416 13.5 28.0504 13.5 30.05C13.5 31.3655 14.2069 32.5211 15.2575 33.1589C14.9886 33.5859 14.8321 34.0918 14.8321 34.6348C14.8321 35.2077 15.0022 35.732 15.2927 36.1689C14.3215 36.9464 13.6981 38.1429 13.6981 39.4845C13.6981 41.8145 15.5754 43.7065 17.8998 43.7304C18.4765 45.3911 19.9845 46.6146 21.7999 46.7771C22.7994 49.104 25.1116 50.7344 27.8054 50.7344C30.4922 50.7344 32.8013 49.1116 33.8043 46.7932C35.7225 46.7164 37.3357 45.4557 37.9345 43.7222C40.1541 43.5835 41.9117 41.7391 41.9117 39.4845C41.9117 38.1749 41.3179 37.0043 40.387 36.2263C40.7023 35.7755 40.8876 35.2266 40.8876 34.6348C40.8876 34.0789 40.7269 33.5674 40.4506 33.1373C41.4825 32.4957 42.1746 31.3514 42.1746 30.05V29.4716Z" fill="white" stroke="#352416" stroke-linejoin="round"/>
<path d="M19.3721 33.1859C19.6977 33.5802 19.8929 34.0854 19.8929 34.6367C19.8929 35.188 19.7124 35.6519 19.4103 36.0394C20.3706 36.4484 21.124 37.2469 21.4752 38.2366C21.7145 38.1925 21.9597 38.169 22.2118 38.169C23.1525 38.169 24.0167 38.4887 24.7063 39.0253C25.6117 38.4819 26.672 38.169 27.805 38.169C28.938 38.169 30.0945 38.5123 31.0273 39.1018C31.7306 38.5192 32.6341 38.169 33.6189 38.169C33.7974 38.169 33.973 38.1817 34.1456 38.2043C34.5115 37.2008 35.2933 36.3994 36.2831 36.006C35.9966 35.6245 35.8269 35.1507 35.8269 34.6377C35.8269 34.0864 36.0221 33.5812 36.3478 33.1869H19.3721V33.1859Z" fill="#F8D5BA"/>
<path d="M31.6704 35.2858C31.6665 34.6786 32.0618 34.2038 32.5778 34.197C33.0918 34.1901 33.5165 34.6639 33.5263 35.2564C33.5361 35.8302 33.1036 36.3481 32.6082 36.356C32.102 36.3638 31.6744 35.8763 31.6704 35.2858Z" fill="#352416"/>
<path d="M23.6674 35.2623C23.6723 35.8587 23.2613 36.3502 22.7542 36.3541C22.2471 36.358 21.8213 35.8695 21.8174 35.279C21.8135 34.6865 22.2274 34.199 22.7375 34.1951C23.2574 34.1912 23.6635 34.6571 23.6684 35.2623H23.6674Z" fill="#352416"/>
<path d="M27.6741 34.9901C26.9061 34.9872 26.292 35.6022 26.2979 36.3703C26.3038 37.1177 26.9139 37.7269 27.6623 37.7308C28.4275 37.7347 29.0415 37.1158 29.0356 36.3467C29.0297 35.5904 28.4314 34.994 27.6741 34.9911V34.9901Z" fill="#B8292D"/>
<path d="M27.6559 41.1862C26.8741 41.1411 26.3091 40.7625 25.8962 40.1523C25.6313 39.7619 25.7441 39.5501 26.212 39.5491C26.6534 39.5481 27.0958 39.606 27.5372 39.605C28.065 39.604 28.5927 39.553 29.1204 39.552C29.5903 39.552 29.705 39.7639 29.4422 40.1504C29.0106 40.7831 28.425 41.1696 27.6559 41.1862Z" fill="#352416"/>
<path d="M27.8364 10.7636C29.566 10.7636 30.9682 9.36144 30.9682 7.6318C30.9682 5.90215 29.566 4.5 27.8364 4.5C26.1067 4.5 24.7046 5.90215 24.7046 7.6318C24.7046 9.36144 26.1067 10.7636 27.8364 10.7636Z" fill="white" stroke="#352416" stroke-linejoin="round"/>
</g>
<defs>
<filter id="filter0_d_1363_6397" x="13" y="4" width="29.6748" height="49.11" filterUnits="userSpaceOnUse" color-interpolation-filters="sRGB">
<feFlood flood-opacity="0" result="BackgroundImageFix"/>
<feColorMatrix in="SourceAlpha" type="matrix" values="0 0 0 0 0 0 0 0 0 0 0 0 0 0 0 0 0 0 127 0" result="hardAlpha"/>
<feOffset dy="1.87564"/>
<feComposite in2="hardAlpha" operator="out"/>
<feColorMatrix type="matrix" values="0 0 0 0 0 0 0 0 0 0 0 0 0 0 0 0 0 0 0.25 0"/>
<feBlend mode="normal" in2="BackgroundImageFix" result="effect1_dropShadow_1363_6397"/>
<feBlend mode="normal" in="SourceGraphic" in2="effect1_dropShadow_1363_6397" result="shape"/>
</filter>
</defs>
</svg>
