<svg width="64" height="64" viewBox="0 0 64 64" fill="none" xmlns="http://www.w3.org/2000/svg">
<path d="M45.2005 33.7998C51.2805 32.5398 55.8505 27.1598 55.8505 20.7098C55.8505 13.3298 49.8605 7.33984 42.4805 7.33984C36.0305 7.33984 30.6505 11.9098 29.3905 17.9898L45.2005 33.7998ZM27.1905 22.6098L6.73054 47.7298C6.42054 48.1098 6.45054 48.6598 6.79054 49.0098L14.1705 56.3898C14.5205 56.7398 15.0705 56.7598 15.4505 56.4498L39.5605 36.8098L27.2005 22.6098H27.1905ZM26.6305 39.2498C26.2605 39.6198 23.9305 41.9498 23.7605 42.1198C23.0105 42.8698 21.8005 42.8698 21.0605 42.1198C20.3105 41.3698 20.3105 40.1598 21.0605 39.4198C21.2305 39.2498 23.5505 36.9298 23.9305 36.5498C24.6805 35.7998 25.8905 35.7998 26.6305 36.5498C27.3805 37.2998 27.3805 38.5098 26.6305 39.2498Z" fill="url(#paint0_linear_2001_5298)"/>
<defs>
<linearGradient id="paint0_linear_2001_5298" x1="13.0514" y1="10.8201" x2="35.2388" y2="58.5169" gradientUnits="userSpaceOnUse">
<stop stop-color="white"/>
<stop offset="1" stop-color="#5867FE"/>
</linearGradient>
</defs>
</svg>
