<svg width="64" height="64" viewBox="0 0 64 64" fill="none" xmlns="http://www.w3.org/2000/svg">
<g clip-path="url(#clip0_2001_5337)">
<path d="M54.6598 31.13C54.6598 29.11 53.7998 27.29 52.4298 26.01C52.4298 25.84 52.4098 25.66 52.3698 25.48C51.8498 23.59 46.9298 7 32.6998 7C30.1098 7 25.6398 9.16 21.5598 12.38C19.7198 13.83 15.8498 17.23 14.5298 20.98C14.4798 20.99 14.4198 21.01 14.3798 21.02H14.3498L14.2698 21.05C11.3998 21.99 9.80977 25.09 10.7198 27.97C11.0998 29.15 11.8498 30.11 12.8198 30.8C11.4698 33.32 10.0098 36.83 10.0098 40.29C10.0098 51.1 17.0898 53.7 23.3398 56C24.9398 56.59 26.5898 57.19 28.1898 57.93C28.5698 58.11 28.9698 58.2 29.3898 58.2C29.8098 58.2 30.2098 58.11 30.5798 57.94C32.1998 57.19 33.8598 56.58 35.4798 55.99C38.3498 54.94 41.3098 53.85 43.7298 51.95L44.0898 51.8L44.2398 51.52C47.2898 48.89 48.7698 45.21 48.7698 40.29C48.7698 39.55 48.6998 38.81 48.5798 38.07C51.9998 37.61 54.6598 34.68 54.6598 31.13ZM47.8498 35.12C47.3198 33.52 46.6298 32.05 45.9698 30.81C46.9298 30.14 47.6798 29.17 48.0598 27.99C48.1498 27.72 48.1998 27.45 48.2498 27.18C48.3598 27.2 48.4798 27.21 48.5798 27.24C49.2198 27.39 49.7998 27.71 50.2798 28.13C51.1198 28.87 51.6598 29.93 51.6598 31.13C51.6598 33.27 49.9598 35.02 47.8498 35.12ZM41.7698 49.03L41.7398 49.06C39.7298 50.69 36.9598 51.71 34.2598 52.7C32.6798 53.28 31.0498 53.88 29.3898 54.63C27.7398 53.89 26.1198 53.29 24.5398 52.71C18.3698 50.44 13.4998 48.65 13.4998 40.29C13.4998 37.26 15.0498 33.94 16.2598 31.79C16.7298 31.76 17.1898 31.69 17.6298 31.55C18.2498 31.36 23.4398 29.83 29.3898 29.83C34.5698 29.83 39.2198 31.01 40.6498 31.42C40.9398 31.5 41.1098 31.55 41.1198 31.56C41.4698 31.67 41.8198 31.73 42.1798 31.77C42.2898 31.78 42.4098 31.79 42.5198 31.8C43.0898 32.81 43.7398 34.09 44.2698 35.48C44.5298 36.17 44.7598 36.88 44.9298 37.6C45.1498 38.5 45.2798 39.41 45.2798 40.3C45.2798 45.56 43.2798 47.81 41.7698 49.04V49.03ZM14.0498 26.91C13.7098 25.85 14.2998 24.73 15.3498 24.38C15.6198 24.3 21.8698 22.31 29.3898 22.31C36.9098 22.31 43.1598 24.3 43.4298 24.38C43.7798 24.5 44.0798 24.71 44.3098 24.97C44.6598 25.36 44.8498 25.88 44.8198 26.41C44.8198 26.58 44.7898 26.74 44.7398 26.91C44.6798 27.1 44.5798 27.27 44.4798 27.42C44.4598 27.45 44.4398 27.48 44.4098 27.51C44.3298 27.61 44.2298 27.69 44.1398 27.78C44.0998 27.82 44.0698 27.86 44.0198 27.89C43.9898 27.91 43.9698 27.92 43.9398 27.94C43.7998 28.04 43.6498 28.11 43.4898 28.17C43.4698 28.17 43.4498 28.19 43.4198 28.2C43.2698 28.25 43.0998 28.27 42.9398 28.28C42.9198 28.28 42.8898 28.29 42.8698 28.29C42.8298 28.29 42.7898 28.29 42.7398 28.29C42.5698 28.29 42.3998 28.26 42.2398 28.21C42.2198 28.21 42.1998 28.21 42.1898 28.21C42.1698 28.21 42.1398 28.19 42.0798 28.18C41.9498 28.14 41.7198 28.07 41.3998 27.99C39.5598 27.49 34.7498 26.33 29.3998 26.33C22.5798 26.33 16.7298 28.18 16.5998 28.21C16.5698 28.22 16.5298 28.21 16.4998 28.23C16.3498 28.27 16.1998 28.3 16.0498 28.3C16.0098 28.3 15.9598 28.3 15.9198 28.3C15.8198 28.3 15.7198 28.28 15.6298 28.27C15.5798 28.27 15.5398 28.26 15.4898 28.25C15.3498 28.21 15.2098 28.17 15.0798 28.1C14.9198 28.02 14.7898 27.92 14.6598 27.8C14.3898 27.56 14.1798 27.26 14.0698 26.91H14.0498Z" fill="url(#paint0_linear_2001_5337)"/>
<path d="M35.5993 41.2802C34.2093 41.2802 32.9293 40.8902 31.7893 40.5402C30.9093 40.2702 30.0693 40.0102 29.3793 40.0102C28.6893 40.0102 27.8593 40.2602 26.9693 40.5402C24.7193 41.2302 21.9193 42.0902 18.7893 39.7502C18.2993 39.3902 18.1993 38.6902 18.5693 38.2102C18.9293 37.7202 19.6293 37.6202 20.1093 37.9902C22.3393 39.6602 24.2693 39.0702 26.3193 38.4402C27.3593 38.1202 28.3493 37.8202 29.3693 37.8202C30.3893 37.8202 31.3793 38.1202 32.4193 38.4402C34.4693 39.0702 36.3993 39.6602 38.6293 37.9902C39.1193 37.6202 39.8093 37.7202 40.1693 38.2102C40.5393 38.7002 40.4393 39.3902 39.9493 39.7502C38.4093 40.9102 36.9393 41.2802 35.5793 41.2802H35.5993Z" fill="url(#paint1_linear_2001_5337)"/>
<path d="M23.1706 41.5401C21.7706 41.5401 20.2606 41.1501 18.6606 39.9501C18.3706 39.7301 18.1806 39.4201 18.1306 39.0601C18.0806 38.7001 18.1706 38.3501 18.3906 38.0601C18.6106 37.7701 18.9206 37.5801 19.2806 37.5301C19.6406 37.4801 19.9906 37.5701 20.2806 37.7901C22.4006 39.3801 24.1906 38.8301 26.2606 38.2001C27.3206 37.8701 28.3206 37.5701 29.3906 37.5701C30.4606 37.5701 31.4606 37.8801 32.5206 38.2001C34.5906 38.8301 36.3806 39.3801 38.5106 37.7901C38.8006 37.5701 39.1506 37.4801 39.5106 37.5301C39.8706 37.5801 40.1806 37.7701 40.4006 38.0601C40.6206 38.3501 40.7106 38.7001 40.6606 39.0601C40.6106 39.4201 40.4206 39.7301 40.1306 39.9501C38.7106 41.0201 37.2306 41.53 35.6106 41.53C34.1806 41.53 32.8806 41.13 31.7306 40.7801C30.8706 40.5101 30.0506 40.26 29.4006 40.26C28.7506 40.26 27.8906 40.5201 27.0706 40.7801C25.9106 41.14 24.6006 41.5401 23.1806 41.5401H23.1706ZM29.3906 39.7701C30.1206 39.7701 30.9706 40.0301 31.8706 40.3101C32.9806 40.6501 34.2506 41.0401 35.6006 41.0401C37.1106 41.0401 38.4906 40.5501 39.8206 39.5601C40.0006 39.4201 40.1206 39.2201 40.1506 39.0001C40.1806 38.7701 40.1206 38.5501 39.9906 38.3701C39.8506 38.1901 39.6506 38.0701 39.4306 38.0401C39.2106 38.0101 38.9806 38.0701 38.8006 38.2001C36.4706 39.9401 34.3806 39.3101 32.3706 38.6901C31.3406 38.3801 30.3806 38.0801 29.3906 38.0801C28.4006 38.0801 27.4306 38.3801 26.4106 38.6901C24.3906 39.3101 22.3006 39.9401 19.9806 38.2001C19.8006 38.0601 19.5806 38.0001 19.3506 38.0401C19.1206 38.0701 18.9306 38.1901 18.7906 38.3701C18.6506 38.5501 18.6006 38.7801 18.6306 39.0001C18.6606 39.2301 18.7806 39.4201 18.9606 39.5601C21.9806 41.8301 24.7106 40.9901 26.9106 40.3101C27.7706 40.0501 28.6506 39.7701 29.3906 39.7701Z" fill="url(#paint2_linear_2001_5337)"/>
</g>
<defs>
<linearGradient id="paint0_linear_2001_5337" x1="15.9249" y1="10.6123" x2="40.9333" y2="57.4898" gradientUnits="userSpaceOnUse">
<stop stop-color="white"/>
<stop offset="1" stop-color="#5867FE"/>
</linearGradient>
<linearGradient id="paint1_linear_2001_5337" x1="21.2665" y1="38.0146" x2="21.5715" y2="42.1262" gradientUnits="userSpaceOnUse">
<stop stop-color="white"/>
<stop offset="1" stop-color="#5867FE"/>
</linearGradient>
<linearGradient id="paint2_linear_2001_5337" x1="21.1055" y1="37.8005" x2="21.4955" y2="42.5003" gradientUnits="userSpaceOnUse">
<stop stop-color="white"/>
<stop offset="1" stop-color="#5867FE"/>
</linearGradient>
<clipPath id="clip0_2001_5337">
<rect width="44.66" height="51.19" fill="white" transform="translate(10 7)"/>
</clipPath>
</defs>
</svg>
