<svg width="56" height="56" viewBox="0 0 56 56" fill="none" xmlns="http://www.w3.org/2000/svg">
<g clip-path="url(#clip0_1189_1758)">
<path fill-rule="evenodd" clip-rule="evenodd" d="M27.5 20L27.5 -4.37113e-08L28.5 0L28.5 20L27.5 20Z" fill="#F5B6B8"/>
<g filter="url(#filter0_d_1189_1758)">
<ellipse cx="28.0651" cy="30.4656" rx="14.235" ry="14.325" fill="#342315"/>
<path d="M28.0651 45.2906C36.206 45.2906 42.8001 38.6503 42.8001 30.4656C42.8001 22.281 36.206 15.6406 28.0651 15.6406C19.9242 15.6406 13.3301 22.281 13.3301 30.4656C13.3301 38.6503 19.9242 45.2906 28.0651 45.2906Z" stroke="#342315"/>
</g>
<path d="M41.7311 26.4544C41.3722 25.1896 40.8796 23.9771 40.0925 22.909C40.288 23.3497 40.4835 23.7904 40.6816 24.2361C40.6717 24.251 40.6593 24.2883 40.642 24.2908C40.0009 24.3954 40.0256 24.3829 39.6816 23.7854C39.1766 22.9065 38.6321 22.0501 38.0949 21.1662C38.392 21.0367 38.6568 21.0417 38.8994 21.3753C39.2558 21.8658 39.6494 22.3264 40.0281 22.802C39.9365 22.6302 39.8623 22.4409 39.7484 22.2841C36.9192 18.3404 33.0727 16.2988 28.2533 16.1444C26.4464 16.0871 24.6989 16.4631 23.0009 17.093C20.9563 17.8499 19.2212 19.0649 17.7137 20.6284C17.5504 20.7977 17.3969 20.982 17.5479 21.2633C17.5875 21.3355 17.5256 21.4948 17.4662 21.587C17.1692 22.0401 16.8647 22.4883 16.5429 22.9264C16.4712 23.0235 16.3276 23.0659 16.2162 23.1331C16.1197 23.1331 15.9712 23.0883 15.939 23.1331C15.8029 23.3173 15.7014 23.529 15.5875 23.7306C15.486 23.8825 15.3697 24.0294 15.2855 24.1937C14.2806 26.183 13.8499 28.3093 13.8301 30.5276C13.8301 30.6446 14.0182 30.7691 14.1246 30.8837C14.2137 30.9783 14.3969 31.0654 14.3969 31.155C14.4118 32.4522 14.6717 33.7095 14.9662 34.9618C14.9687 34.9768 14.939 34.9992 14.9142 35.034C14.8128 35.0116 14.7063 34.9867 14.5429 34.9494C14.6222 35.1884 14.6741 35.3776 14.7459 35.5594C15.9811 38.6716 17.9984 41.1215 20.8771 42.8244C21.637 43.2751 22.3746 43.8353 23.3449 43.7357C23.4142 43.7282 23.4959 43.778 23.5628 43.8154C25.0999 44.6494 26.7707 44.8262 28.4761 44.7814C29.793 44.7465 31.0727 44.5399 32.2459 43.8676C32.4563 43.7456 32.736 43.7481 32.986 43.6934C32.9514 43.7954 32.8944 43.8228 32.84 43.8552C32.7806 43.89 32.7212 43.9274 32.6618 43.9647C35.1642 43.178 37.2137 41.7265 38.9934 39.6674C38.7533 39.6948 38.6321 39.7073 38.4588 39.7272C38.5281 39.6152 38.5702 39.5504 38.6098 39.4857C39.1246 38.5769 39.6494 37.6757 40.1444 36.7569C40.2756 36.5154 40.3994 36.3461 40.6865 36.3163C41.0182 36.2814 41.1939 36.0772 41.3177 35.7511C42.4613 32.6987 42.6222 29.6014 41.736 26.4619L41.7311 26.4544ZM21.59 20.0408C22.1123 19.4906 22.6395 18.9429 23.1692 18.3976C23.4241 18.1362 23.7137 18.0092 24.0949 18.0939C24.335 18.1486 24.5925 18.1237 24.8573 18.1362C24.3771 18.9105 23.9192 19.65 23.4415 20.4193H21.3251C21.4464 20.2425 21.5058 20.128 21.59 20.0384V20.0408ZM18.8053 39.8368C18.293 39.782 17.7855 39.8019 17.5009 39.1421C17.1717 38.3778 16.6519 37.6981 16.2236 36.9736C16.1469 36.8441 16.1172 36.6823 16.0355 36.4482C16.6618 36.5179 17.1964 36.5677 17.7286 36.6424C17.8004 36.6524 17.8746 36.7769 17.9118 36.864C18.038 37.1553 18.1345 37.4591 18.2682 37.7454C18.5256 38.3056 18.8029 38.8558 19.0652 39.4135C19.1964 39.6948 19.1073 39.8691 18.8053 39.8368ZM20.2162 30.204C19.5702 30.1791 18.9266 30.1342 18.283 30.1044C18.0157 30.0919 17.9118 29.9724 17.9588 29.701C18.1444 28.5931 18.3227 27.4827 18.4984 26.3722C18.5454 26.076 18.6717 25.9639 18.9984 25.9913C19.7731 26.0585 20.5504 26.0735 21.3276 26.1133C21.4439 26.1183 21.5578 26.1357 21.7038 26.1507C21.7038 26.2652 21.7088 26.3175 21.7038 26.3673C21.5553 27.6395 21.4043 28.9143 21.2533 30.2064C20.9192 30.2064 20.5677 30.2189 20.2187 30.2064L20.2162 30.204ZM22.2707 42.573C21.8276 42.0402 21.3251 41.5597 20.8251 41.0318C21.6073 41.0318 22.2905 41.0244 22.9712 41.0393C23.0677 41.0393 23.1964 41.1314 23.2533 41.2186C23.6816 41.8958 24.0949 42.5804 24.5207 43.2801C23.7063 43.2751 22.8895 43.3149 22.2707 42.573ZM26.2781 35.7785C25.7509 35.761 25.2236 35.7735 24.6964 35.7735C24.6964 35.7486 24.6964 35.7212 24.6964 35.6963C24.1692 35.6963 23.6395 35.6913 23.1123 35.6963C22.8598 35.7013 22.736 35.6291 22.7187 35.3378C22.6568 34.2249 22.5677 33.1145 22.486 32.004C22.4712 31.7874 22.4662 31.6131 22.7806 31.6256C23.9365 31.6729 25.0925 31.7053 26.2484 31.7302C26.5083 31.7351 26.6296 31.8173 26.6321 32.0986C26.6395 33.1842 26.6593 34.2722 26.689 35.3577C26.6964 35.6664 26.59 35.7884 26.2781 35.776V35.7785ZM27.4043 18.4748C27.3202 19.1047 27.2558 19.7371 27.1568 20.3645C27.142 20.4666 26.9984 20.6259 26.9118 20.6284C26.0727 20.6483 25.2335 20.6409 24.3944 20.6409C24.3647 20.5786 24.335 20.5139 24.3053 20.4516C24.7014 19.7371 25.09 19.02 25.5009 18.3155C25.5578 18.2184 25.7311 18.1437 25.8548 18.1387C26.2756 18.1188 26.6989 18.1462 27.1197 18.1337C27.3821 18.1262 27.434 18.2482 27.4043 18.4773V18.4748ZM29.934 16.3909L32.5207 17.2374C32.5108 17.2797 32.5033 17.3196 32.4934 17.3619C31.4786 17.5337 30.8227 16.605 29.8895 16.5303C29.9043 16.483 29.9192 16.4382 29.934 16.3909ZM30.3053 43.1904C30.2657 43.2726 30.1123 43.3373 30.0083 43.3398C29.4415 43.3572 28.8746 43.3622 28.3078 43.3448C28.2261 43.3423 28.0875 43.1954 28.0826 43.1108C28.0603 42.5406 28.0578 41.9705 28.0727 41.4003C28.0727 41.3181 28.1989 41.1737 28.2682 41.1713C29.2137 41.1563 30.1618 41.1613 31.2509 41.1613C30.9167 41.8833 30.6222 42.5431 30.3053 43.1904ZM32.1766 20.5089C32.0702 20.5064 31.9241 20.4043 31.8722 20.3072C31.5083 19.6076 31.1642 18.8956 30.7855 18.1312C31.236 18.1312 31.6766 18.1262 32.1172 18.1362C32.2014 18.1362 32.3078 18.1835 32.3623 18.2457C32.9613 18.913 33.5529 19.5852 34.1444 20.2599C34.1741 20.2923 34.1717 20.3545 34.2162 20.5189C33.5058 20.5189 32.84 20.5288 32.1766 20.5089ZM34.0999 21.455C34.7731 21.3405 35.1098 21.5695 35.3326 22.182C35.6197 22.9638 35.9637 23.7232 36.2806 24.495C36.3202 24.5896 36.3301 24.6942 36.3672 24.8435C35.9217 24.8759 35.5083 24.9158 35.0925 24.9357C34.5528 24.9631 34.0133 24.9929 33.4712 24.988C33.3524 24.988 33.1543 24.8709 33.1296 24.7738C32.8524 23.7132 32.6048 22.6476 32.3227 21.4724C32.9266 21.4724 33.5281 21.5496 34.0999 21.4525V21.455ZM32.9613 40.1505C32.6618 40.1604 32.5504 40.0683 32.6543 39.7172C32.8944 38.9056 33.0727 38.0765 33.2905 37.2599C33.3227 37.1404 33.4266 36.9511 33.5083 36.9462C34.4885 36.8814 35.4712 36.8466 36.4538 36.8043C36.486 36.8516 36.5182 36.8989 36.5504 36.9437C36.1717 37.8649 35.8053 38.7936 35.4019 39.7048C35.3326 39.8641 35.1024 40.031 34.934 40.0484C34.2806 40.1156 33.6197 40.1281 32.9613 40.1505ZM36.5405 41.3181C35.8672 41.8659 35.1915 42.4136 34.5058 42.9464C34.2731 43.1282 34.0058 43.183 33.7583 42.9415C34.2806 42.3464 34.7731 41.7713 35.283 41.2086C35.3821 41.099 35.5331 40.9945 35.6741 40.9721C36.0751 40.9073 36.4811 40.8849 37.0157 40.8351C36.8053 41.0517 36.684 41.2011 36.5405 41.3181ZM39.6692 25.827C39.7608 25.8195 39.9316 25.9639 39.9538 26.061C40.2038 27.2212 40.4365 28.3864 40.6667 29.5492C40.7137 29.7857 40.5504 29.8479 40.3647 29.8678C39.8276 29.9251 39.2905 29.9749 38.7533 30.0347C38.4588 30.067 38.3301 29.95 38.293 29.6463C38.1766 28.7026 38.038 27.7615 37.8969 26.8204C37.8598 26.5764 37.7781 26.3399 37.7038 26.0486C38.3944 25.9664 39.0306 25.8793 39.6667 25.8295L39.6692 25.827ZM40.533 33.5726C40.4687 34.0431 40.3276 34.5037 40.2335 34.9693C40.189 35.1934 40.09 35.3129 39.8474 35.3328C39.2063 35.3826 38.5677 35.4523 37.8623 35.5195C37.9167 35.171 37.9712 34.8921 38.0033 34.6108C38.1098 33.6647 38.2236 32.7186 38.3029 31.77C38.3251 31.4887 38.3944 31.3766 38.689 31.3642C39.2014 31.3443 39.7113 31.2671 40.2236 31.2223C40.3771 31.2098 40.5331 31.2223 40.7831 31.2223C40.6989 32.0289 40.6395 32.8032 40.533 33.5701V33.5726Z" fill="#DA6AD4"/>
<path d="M19.3117 15.6193C18.782 12.7701 18.6761 12.3158 15.4727 11.8223C16.5098 11.5755 17.5664 11.6036 18.322 10.8548C19.0831 10.1004 19.0664 9.04321 19.2894 8C19.5487 9.02638 19.5125 10.0948 20.2736 10.8464C21.0208 11.5839 22.0523 11.5923 23.0002 11.8391C22.6071 11.912 22.2112 11.9765 21.8209 12.0579C20.3461 12.3635 19.7578 13.0113 19.4902 14.607C19.44 14.9098 19.3842 15.2127 19.3117 15.6193Z" fill="#FFB5FF"/>
<path d="M5 32.1565C6.9499 32.1661 7.97067 31.0916 8.06548 29C8.16977 31.0885 9.17159 32.1693 11.1562 32.1438C10.4199 32.4553 9.49077 32.6016 8.95669 33.142C8.4226 33.6824 8.27722 34.6169 8.06864 35.1255C7.86323 34.6265 7.71785 33.6887 7.1806 33.1483C6.64019 32.6047 5.71107 32.4585 5 32.1597V32.1565Z" fill="#710373"/>
<path d="M40.0932 22.9075C40.2888 23.3481 40.4843 23.7888 40.6823 24.2345C40.6724 24.2494 40.6601 24.2868 40.6427 24.2893C40.0041 24.3938 40.0264 24.3814 39.6823 23.7838C39.1774 22.905 38.6328 22.0485 38.0957 21.1646C38.3927 21.0352 38.6576 21.0401 38.9002 21.3738C39.2566 21.8642 39.6502 22.3249 40.0289 22.8004C40.0511 22.8352 40.0734 22.8701 40.0957 22.905L40.0932 22.9075Z" fill="white"/>
<path d="M13.1582 39.0913C11.8953 39.208 11.16 39.8414 11.0967 41.1649C10.7918 40.1222 10.0929 39.4251 9 39.0736C10.2629 38.9816 10.9665 38.3446 11.0615 37C11.1741 38.3057 11.8179 39.0205 13.1582 39.0913Z" fill="#FFB5FF"/>
<path d="M11 13.8117C12.0594 13.7192 12.6059 13.1611 12.6589 12.0898C12.7369 13.1387 13.2443 13.722 14.3149 13.8033C13.2778 13.8958 12.7313 14.4315 12.6672 15.4887C12.5641 14.4651 12.0734 13.8706 11 13.8117Z" fill="#FFB5FF"/>
<path d="M44.6977 16.7662C43.9897 17.0763 43.2047 17.2119 42.7375 17.6722C42.2703 18.1372 42.1114 18.9221 41.7935 19.6197C41.7405 17.8853 40.758 16.9988 39 16.868C40.7243 16.6936 41.7742 15.8942 41.8465 14C42.0295 15.7876 42.9205 16.742 44.6929 16.7614L44.6977 16.7662Z" fill="#710373"/>
<path d="M39 43.5678C40.5745 43.4414 41.3367 42.6117 41.3869 40.9395C42.0486 43.433 42.3585 43.1508 44 43.5931C42.4045 43.6647 41.5461 44.4734 41.4581 46.1246C41.3451 44.5535 40.5745 43.69 39 43.5678Z" fill="#9A0894"/>
<path d="M43 38.6284C44.5745 38.502 45.3367 37.6722 45.3869 36C46.0486 38.4936 46.3585 38.2114 48 38.6536C46.4045 38.7252 45.5461 39.534 45.4581 41.1851C45.3451 39.614 44.5745 38.7505 43 38.6284Z" fill="#FFB5FF"/>
<path d="M24.6922 35.6964C24.165 35.6964 23.6353 35.6914 23.1081 35.6964C22.8531 35.7013 22.7318 35.6291 22.7145 35.3378C22.6526 34.2249 22.5635 33.1145 22.4818 32.0041C22.467 31.7875 22.462 31.6132 22.7764 31.6256C23.9323 31.6729 25.0883 31.7053 26.2442 31.7302C26.5041 31.7352 26.6254 31.8173 26.6279 32.0987C26.6353 33.1842 26.6551 34.2722 26.6848 35.3577C26.6922 35.6665 26.5858 35.7885 26.2739 35.776C25.7467 35.7586 25.2195 35.771 24.6922 35.771C24.6922 35.7461 24.6922 35.7188 24.6922 35.6939V35.6964Z" fill="#FFB5FF"/>
<path d="M21.7027 26.1491C21.7027 26.2637 21.7077 26.3159 21.7027 26.3657C21.5542 27.638 21.4032 28.9127 21.2522 30.2049C20.9181 30.2049 20.5666 30.2174 20.2176 30.2049C19.5715 30.18 18.928 30.1352 18.2844 30.1053C18.0171 30.0929 17.9131 29.9734 17.9602 29.702C18.1458 28.5941 18.324 27.4836 18.4998 26.3732C18.5468 26.0769 18.673 25.9649 18.9998 25.9923C19.7745 26.0595 20.5517 26.0744 21.329 26.1143C21.4453 26.1193 21.5592 26.1367 21.7052 26.1516L21.7027 26.1491Z" fill="#710373"/>
<path d="M32.3223 21.4761C32.9262 21.4761 33.5277 21.5533 34.0995 21.4562C34.7728 21.3417 35.1094 21.5707 35.3322 22.1832C35.6193 22.965 35.9634 23.7243 36.2802 24.4962C36.3198 24.5908 36.3297 24.6953 36.3668 24.8447C35.9213 24.8771 35.5079 24.9169 35.0921 24.9368C34.5525 24.9642 34.0129 24.9941 33.4708 24.9891C33.352 24.9891 33.1539 24.8721 33.1292 24.775C32.852 23.7144 32.6044 22.6488 32.3223 21.4736V21.4761Z" fill="white"/>
<path d="M40.7821 31.2248C40.698 32.0315 40.6386 32.8058 40.5321 33.5726C40.4678 34.0432 40.3267 34.5038 40.2326 34.9694C40.1881 35.1935 40.0891 35.313 39.8465 35.3329C39.2054 35.3827 38.5668 35.4524 37.8613 35.5196C37.9158 35.1711 37.9702 34.8922 38.0024 34.6109C38.1089 33.6648 38.2227 32.7187 38.3019 31.7701C38.3242 31.4887 38.3935 31.3767 38.6881 31.3642C39.2004 31.3443 39.7103 31.2671 40.2227 31.2223C40.3762 31.2099 40.5321 31.2223 40.7821 31.2223V31.2248Z" fill="#9A0894"/>
<path d="M36.5493 36.9422C36.1706 37.8634 35.8043 38.792 35.4008 39.7033C35.3315 39.8626 35.1013 40.0294 34.933 40.0469C34.2795 40.1141 33.6186 40.1265 32.9602 40.1489C32.6607 40.1589 32.5493 40.0668 32.6533 39.7157C32.8934 38.9041 33.0716 38.075 33.2894 37.2584C33.3216 37.1388 33.4255 36.9496 33.5072 36.9446C34.4874 36.8799 35.4701 36.8451 36.4528 36.8027C36.485 36.85 36.5171 36.8973 36.5518 36.9422H36.5493Z" fill="#9A0894"/>
<path d="M37.7051 26.0475C38.3957 25.9653 39.0318 25.8782 39.6679 25.8284C39.7595 25.8209 39.9303 25.9653 39.9526 26.0624C40.2026 27.2227 40.4353 28.3879 40.6655 29.5506C40.7125 29.7871 40.5491 29.8493 40.3635 29.8692C39.8264 29.9265 39.2892 29.9763 38.7546 30.0361C38.46 30.0684 38.3313 29.9514 38.2942 29.6477C38.1778 28.7041 38.0392 27.7629 37.8981 26.8218C37.861 26.5778 37.7793 26.3413 37.7051 26.05V26.0475Z" fill="#FFB5FF"/>
<path d="M31.2481 41.161C30.914 41.883 30.6194 42.5428 30.3026 43.1901C30.263 43.2722 30.1095 43.337 30.0056 43.3395C29.4387 43.3569 28.8719 43.3619 28.3051 43.3445C28.2234 43.342 28.0848 43.1951 28.0798 43.1104C28.0575 42.5403 28.0551 41.9701 28.0699 41.4C28.0699 41.3178 28.1961 41.1734 28.2655 41.1709C29.211 41.156 30.159 41.161 31.2481 41.161Z" fill="#710373"/>
<path d="M24.3047 20.4494C24.7007 19.7348 25.0893 19.0178 25.5002 18.3132C25.5572 18.2161 25.7304 18.1414 25.8542 18.1364C26.275 18.1165 26.6983 18.1439 27.119 18.1314C27.3814 18.124 27.4334 18.246 27.4037 18.475C27.3195 19.1049 27.2552 19.7373 27.1562 20.3647C27.1413 20.4668 26.9978 20.6262 26.9111 20.6287C26.072 20.6486 25.2329 20.6411 24.3938 20.6411C24.3641 20.5789 24.3344 20.5141 24.3047 20.4519V20.4494Z" fill="#9A0894"/>
<path d="M16.0352 36.4453C16.6614 36.515 17.196 36.5648 17.7282 36.6395C17.8 36.6495 17.8743 36.774 17.9114 36.8611C18.0376 37.1524 18.1342 37.4561 18.2678 37.7425C18.5253 38.3027 18.8025 38.8529 19.0649 39.4106C19.196 39.6919 19.1069 39.8662 18.805 39.8338C18.2926 39.7791 17.7852 39.799 17.5005 39.1392C17.1713 38.3749 16.6515 37.6952 16.2233 36.9706C16.1465 36.8412 16.1168 36.6793 16.0352 36.4453Z" fill="#710373"/>
<path d="M34.2158 20.5178C33.5055 20.5178 32.8396 20.5278 32.1762 20.5079C32.0698 20.5054 31.9238 20.4033 31.8718 20.3062C31.5079 19.6066 31.1639 18.8945 30.7852 18.1302C31.2357 18.1302 31.6762 18.1252 32.1168 18.1351C32.201 18.1351 32.3074 18.1824 32.3619 18.2447C32.9609 18.9119 33.5525 19.5842 34.1441 20.2589C34.1738 20.2912 34.1713 20.3535 34.2158 20.5178Z" fill="#FFB5FF"/>
<path d="M20.8262 41.0312C21.6084 41.0312 22.2915 41.0237 22.9722 41.0386C23.0687 41.0386 23.1975 41.1308 23.2544 41.2179C23.6826 41.8951 24.096 42.5798 24.5217 43.2794C23.7074 43.2744 22.8905 43.3143 22.2717 42.5723C21.8286 42.0395 21.3262 41.559 20.8262 41.0312Z" fill="#710373"/>
<path d="M24.8564 18.1373C24.3762 18.9116 23.9183 19.651 23.4406 20.4204H21.3242C21.4455 20.2436 21.5049 20.1291 21.5891 20.0394C22.1113 19.4892 22.6386 18.9415 23.1683 18.3962C23.4232 18.1348 23.7128 18.0078 24.094 18.0925C24.3341 18.1472 24.5915 18.1223 24.8564 18.1348V18.1373Z" fill="#9A0894"/>
<path d="M33.7578 42.9403C34.2801 42.3453 34.7727 41.7701 35.2826 41.2074C35.3816 41.0979 35.5326 40.9933 35.6737 40.9709C36.0746 40.9062 36.4806 40.8838 37.0152 40.834C36.8048 41.0506 36.6836 41.2 36.54 41.317C35.8667 41.8647 35.191 42.4125 34.5053 42.9453C34.2727 43.127 34.0053 43.1818 33.7578 42.9403Z" fill="#710373"/>
<path d="M32.4926 17.3636C31.4778 17.5354 30.8218 16.6067 29.8887 16.532C29.9035 16.4847 29.9184 16.4399 29.9332 16.3926C30.7946 16.6739 31.6585 16.9577 32.5199 17.2391C32.51 17.2814 32.5025 17.3213 32.4926 17.3636Z" fill="white"/>
</g>
<path d="M0.3 28C0.3 12.7017 12.7017 0.3 28 0.3C43.2983 0.3 55.7 12.7017 55.7 28C55.7 43.2983 43.2983 55.7 28 55.7C12.7017 55.7 0.3 43.2983 0.3 28Z" stroke="#7F7F7F" stroke-width="0.6"/>
<defs>
<filter id="filter0_d_1189_1758" x="12.8301" y="15.1406" width="30.47" height="32.6499" filterUnits="userSpaceOnUse" color-interpolation-filters="sRGB">
<feFlood flood-opacity="0" result="BackgroundImageFix"/>
<feColorMatrix in="SourceAlpha" type="matrix" values="0 0 0 0 0 0 0 0 0 0 0 0 0 0 0 0 0 0 127 0" result="hardAlpha"/>
<feOffset dy="2"/>
<feComposite in2="hardAlpha" operator="out"/>
<feColorMatrix type="matrix" values="0 0 0 0 0 0 0 0 0 0 0 0 0 0 0 0 0 0 0.25 0"/>
<feBlend mode="normal" in2="BackgroundImageFix" result="effect1_dropShadow_1189_1758"/>
<feBlend mode="normal" in="SourceGraphic" in2="effect1_dropShadow_1189_1758" result="shape"/>
</filter>
<clipPath id="clip0_1189_1758">
<path d="M0 28C0 12.536 12.536 0 28 0C43.464 0 56 12.536 56 28C56 43.464 43.464 56 28 56C12.536 56 0 43.464 0 28Z" fill="white"/>
</clipPath>
</defs>
</svg>
