<svg width="64" height="64" viewBox="0 0 64 64" fill="none" xmlns="http://www.w3.org/2000/svg">
<path fill-rule="evenodd" clip-rule="evenodd" d="M23.9196 54.5596H29.4396C34.5839 54.5596 39.1467 52.126 41.8688 48.4319C42.4367 48.6442 43.0507 48.7603 43.6909 48.7603H45.0609C50.6109 48.7603 55.1509 44.2203 55.1509 38.6703C55.1509 33.1203 50.6109 28.5803 45.0609 28.5803V28.5703H43.6909C43.346 28.5703 43.0086 28.604 42.682 28.6683C41.5774 26.9821 39.5858 25.8496 37.3196 25.8496H16.0396C12.5896 25.8496 9.75961 28.4896 9.75961 31.7096L8.84961 40.5096C8.84961 48.2396 15.6296 54.5596 23.9196 54.5596ZM44.2788 42.9598C44.4304 42.1637 44.5096 41.3449 44.5096 40.5096L43.9018 34.6323C44.31 34.3003 44.829 34.1003 45.3909 34.1003H46.0109C48.5209 34.1003 50.5809 36.1603 50.5809 38.6703C50.5809 41.1803 48.5209 43.2403 46.0109 43.2403H45.3909C44.9901 43.2403 44.6112 43.1386 44.2788 42.9598Z" fill="url(#paint0_linear_2001_5318)"/>
<path d="M35.57 28.5697C40.29 28.5697 44.12 26.7397 44.12 22.0197C44.12 17.2997 40.29 13.4697 35.57 13.4697C35.15 13.4697 34.74 13.5097 34.33 13.5697C32.83 11.0897 30.12 9.42969 27.02 9.42969C23.92 9.42969 21.13 11.1397 19.64 13.6697C19.05 13.5397 18.43 13.4697 17.8 13.4697C13.08 13.4697 9.25 17.2997 9.25 22.0197C9.25 26.7397 13.08 28.5697 17.8 28.5697H35.56H35.57Z" fill="#0F0F0F"/>
<path d="M35.5698 30.3197H17.8098C11.3598 30.3197 7.50977 27.2197 7.50977 22.0197C7.50977 16.0097 12.7298 11.1497 18.8198 11.7697C20.7498 9.21969 23.7998 7.67969 27.0198 7.67969C30.2398 7.67969 33.2498 9.16969 35.1898 11.7197C35.3198 11.7197 35.4398 11.7197 35.5698 11.7197C41.2498 11.7197 45.8698 16.3397 45.8698 22.0197C45.8698 27.2197 42.0198 30.3197 35.5698 30.3197ZM17.8098 15.2297C14.0598 15.2297 11.0098 18.2797 11.0098 22.0297C11.0098 25.2097 13.2998 26.8297 17.8098 26.8297H35.5698C40.0798 26.8297 42.3698 25.2197 42.3698 22.0297C42.3698 18.2797 39.3198 15.2297 35.5698 15.2297C35.2798 15.2297 34.9698 15.2597 34.5798 15.3097L33.4298 15.4797L32.8298 14.4897C31.5798 12.4297 29.4098 11.1997 27.0198 11.1997C24.6298 11.1997 22.3698 12.4897 21.1498 14.5697L20.5098 15.6697L19.2698 15.3997C18.7798 15.2897 18.2898 15.2397 17.8098 15.2397V15.2297Z" fill="url(#paint1_linear_2001_5318)"/>
<path d="M22.0808 23.6302C22.0808 21.8961 20.675 20.4902 18.9408 20.4902C17.2066 20.4902 15.8008 21.8961 15.8008 23.6302V33.5202C15.8008 35.2544 17.2066 36.6602 18.9408 36.6602C20.675 36.6602 22.0808 35.2544 22.0808 33.5202V23.6302Z" fill="#0F0F0F"/>
<defs>
<linearGradient id="paint0_linear_2001_5318" x1="14.9835" y1="27.8752" x2="23.9763" y2="59.0483" gradientUnits="userSpaceOnUse">
<stop stop-color="white"/>
<stop offset="1" stop-color="#5867FE"/>
</linearGradient>
<linearGradient id="paint1_linear_2001_5318" x1="12.5916" y1="9.27699" x2="19.3906" y2="34.0382" gradientUnits="userSpaceOnUse">
<stop stop-color="white"/>
<stop offset="1" stop-color="#5867FE"/>
</linearGradient>
</defs>
</svg>