<svg width="64" height="64" viewBox="0 0 64 64" fill="none" xmlns="http://www.w3.org/2000/svg">
<path d="M57.4602 21.9604C55.7602 14.5904 48.0802 8.25036 40.4002 9.04036C39.4502 9.14036 38.5002 9.34036 37.5702 9.67036C35.6902 10.3304 33.9502 11.6304 32.7802 13.2404C32.4002 13.7604 31.6002 13.7604 31.2202 13.2404C25.6102 5.58036 13.7602 9.45036 9.11018 16.1004C7.88018 17.8604 7.01018 19.8604 6.53018 21.9604C5.24018 27.5704 6.83018 33.4004 10.2302 38.0504C11.7002 40.0604 13.3802 41.9604 15.1002 43.6904C17.4602 46.0804 20.0302 48.2204 22.8102 50.1104C24.7202 51.4004 26.7102 52.5804 28.7702 53.6204C28.9402 53.7104 30.5302 54.3404 31.4202 54.7604L32.0002 55.0404C32.0502 55.0204 32.1202 54.9804 32.1402 54.9704C32.2102 54.9404 32.2702 54.9004 32.3402 54.8704C32.9402 54.5804 33.5602 54.3304 34.1802 54.0704C34.5302 53.9204 34.9002 53.8004 35.2402 53.6204C37.3002 52.5804 39.2902 51.4004 41.2002 50.1104C43.9802 48.2304 46.5402 46.0804 48.9102 43.6904C50.6302 41.9604 52.3102 40.0604 53.7802 38.0504C57.1702 33.4004 58.7702 27.5704 57.4802 21.9604H57.4602Z" fill="url(#paint0_linear_2001_5266)"/>
<defs>
<linearGradient id="paint0_linear_2001_5266" x1="12.9518" y1="12.2237" x2="32.0817" y2="58.4967" gradientUnits="userSpaceOnUse">
<stop stop-color="white"/>
<stop offset="1" stop-color="#5867FE"/>
</linearGradient>
</defs>
</svg>
