<svg width="56" height="56" viewBox="0 0 56 56" fill="none" xmlns="http://www.w3.org/2000/svg">
<path d="M0.3 28C0.3 12.7017 12.7017 0.3 28 0.3C43.2983 0.3 55.7 12.7017 55.7 28C55.7 43.2983 43.2983 55.7 28 55.7C12.7017 55.7 0.3 43.2983 0.3 28Z" stroke="#7F7F7F" stroke-width="0.6"/>
<g filter="url(#filter0_d_1189_1848)">
<mask id="path-2-outside-1_1189_1848" maskUnits="userSpaceOnUse" x="8.78516" y="12" width="39" height="34" fill="black">
<rect fill="white" x="8.78516" y="12" width="39" height="34"/>
<path fill-rule="evenodd" clip-rule="evenodd" d="M37.6031 16.0109C37.2528 15.2827 36.8665 14.6237 36.4816 14.0424C34.5691 13.9054 32.6059 14.2906 30.8079 15.2307C29.8099 15.7522 28.9578 16.4667 28.1167 17.1965C27.9309 17.3579 27.8228 17.3264 27.6621 17.1766C27.3727 16.9072 27.0692 16.6512 26.7592 16.4043C24.0571 14.2501 20.9968 13.5067 17.6491 14.3234C14.0595 15.1992 11.5497 17.4055 10.3015 20.9128C9.49578 23.177 9.70992 25.4675 10.4153 27.7266C11.3021 30.5663 12.9471 32.9405 15.0363 35.0053C16.4054 36.3583 17.8388 37.6515 19.3088 38.8945C21.1524 40.4533 23.1041 41.8686 25.0924 43.2351C25.0925 43.2351 25.0925 43.235 25.0926 43.235C25.7688 43.6997 26.4496 44.1593 27.1316 44.6164C27.6949 44.9938 28.1457 45.1102 28.6537 44.6086C28.693 44.5702 28.7425 44.5423 28.7922 44.5143C28.8181 44.4998 28.844 44.4852 28.8685 44.4691C31.7905 42.556 34.6148 40.5104 37.2841 38.2546C39.0217 36.7865 40.673 35.231 42.1488 33.4979C43.8028 31.5553 44.9982 29.3747 45.6233 26.9073C45.865 26.3195 45.9988 25.6758 45.9988 25.0012C45.9988 24.7826 45.9834 24.5672 45.9564 24.3556C45.9834 24.3016 45.9956 24.2283 45.9975 24.1293C46.0425 21.4657 45.1294 19.1713 43.3018 17.2576C41.4492 15.3175 39.0094 14.2224 36.4809 14.041C36.8661 14.6227 37.2526 15.2822 37.6031 16.0109Z"/>
</mask>
<path fill-rule="evenodd" clip-rule="evenodd" d="M37.6031 16.0109C37.2528 15.2827 36.8665 14.6237 36.4816 14.0424C34.5691 13.9054 32.6059 14.2906 30.8079 15.2307C29.8099 15.7522 28.9578 16.4667 28.1167 17.1965C27.9309 17.3579 27.8228 17.3264 27.6621 17.1766C27.3727 16.9072 27.0692 16.6512 26.7592 16.4043C24.0571 14.2501 20.9968 13.5067 17.6491 14.3234C14.0595 15.1992 11.5497 17.4055 10.3015 20.9128C9.49578 23.177 9.70992 25.4675 10.4153 27.7266C11.3021 30.5663 12.9471 32.9405 15.0363 35.0053C16.4054 36.3583 17.8388 37.6515 19.3088 38.8945C21.1524 40.4533 23.1041 41.8686 25.0924 43.2351C25.0925 43.2351 25.0925 43.235 25.0926 43.235C25.7688 43.6997 26.4496 44.1593 27.1316 44.6164C27.6949 44.9938 28.1457 45.1102 28.6537 44.6086C28.693 44.5702 28.7425 44.5423 28.7922 44.5143C28.8181 44.4998 28.844 44.4852 28.8685 44.4691C31.7905 42.556 34.6148 40.5104 37.2841 38.2546C39.0217 36.7865 40.673 35.231 42.1488 33.4979C43.8028 31.5553 44.9982 29.3747 45.6233 26.9073C45.865 26.3195 45.9988 25.6758 45.9988 25.0012C45.9988 24.7826 45.9834 24.5672 45.9564 24.3556C45.9834 24.3016 45.9956 24.2283 45.9975 24.1293C46.0425 21.4657 45.1294 19.1713 43.3018 17.2576C41.4492 15.3175 39.0094 14.2224 36.4809 14.041C36.8661 14.6227 37.2526 15.2822 37.6031 16.0109Z" fill="#B8292D"/>
<path d="M37.6031 16.0109L36.7019 16.4444L38.5043 15.5775L37.6031 16.0109ZM36.4816 14.0424L37.3154 13.4903L37.0437 13.0801L36.553 13.0449L36.4816 14.0424ZM30.8079 15.2307L31.271 16.117L31.2713 16.1169L30.8079 15.2307ZM28.1167 17.1965L27.4613 16.4413L27.461 16.4415L28.1167 17.1965ZM27.6621 17.1766L28.3439 16.4451L28.3435 16.4447L27.6621 17.1766ZM26.7592 16.4043L26.1359 17.1862L26.1361 17.1864L26.7592 16.4043ZM17.6491 14.3234L17.4121 13.3519L17.412 13.3519L17.6491 14.3234ZM10.3015 20.9128L9.35941 20.5775L9.35941 20.5775L10.3015 20.9128ZM10.4153 27.7266L9.46081 28.0246L9.46081 28.0246L10.4153 27.7266ZM15.0363 35.0053L14.3334 35.7166L14.3334 35.7166L15.0363 35.0053ZM19.3088 38.8945L18.6631 39.6581L18.6632 39.6581L19.3088 38.8945ZM25.0924 43.2351L24.526 44.0593L25.2115 44.5303L25.7995 43.9422L25.0924 43.2351ZM25.0926 43.235L25.659 42.4108L24.9736 41.9398L24.3855 42.5279L25.0926 43.235ZM27.1316 44.6164L26.5749 45.4471L26.5749 45.4471L27.1316 44.6164ZM28.6537 44.6086L27.9543 43.8939L27.9511 43.897L28.6537 44.6086ZM28.7922 44.5143L29.2827 45.3858L29.2827 45.3858L28.7922 44.5143ZM28.8685 44.4691L28.3207 43.6325L28.319 43.6336L28.8685 44.4691ZM37.2841 38.2546L36.6387 37.4908L36.6386 37.4908L37.2841 38.2546ZM42.1488 33.4979L42.9102 34.1463L42.9103 34.1462L42.1488 33.4979ZM45.6233 26.9073L44.6985 26.5268L44.6714 26.5927L44.6539 26.6617L45.6233 26.9073ZM45.9564 24.3556L45.0619 23.9084L44.9259 24.1805L44.9644 24.4822L45.9564 24.3556ZM45.9975 24.1293L46.9973 24.1487L46.9974 24.1462L45.9975 24.1293ZM43.3018 17.2576L42.5786 17.9482L42.5786 17.9482L43.3018 17.2576ZM36.4809 14.041L36.5525 13.0436L34.5248 12.8982L35.6472 14.5931L36.4809 14.041ZM38.5042 15.5774C38.1318 14.8032 37.7221 14.1046 37.3154 13.4903L35.6478 14.5945C36.0109 15.1428 36.3738 15.7623 36.7019 16.4444L38.5042 15.5774ZM36.553 13.0449C34.4581 12.8949 32.3094 13.3172 30.3445 14.3446L31.2713 16.1169C32.9024 15.264 34.6801 14.9159 36.4101 15.0398L36.553 13.0449ZM30.3448 14.3444C29.2314 14.9262 28.3005 15.7131 27.4613 16.4413L28.7721 17.9518C29.6152 17.2202 30.3884 16.5782 31.271 16.117L30.3448 14.3444ZM27.461 16.4415C27.4613 16.4413 27.4708 16.433 27.4888 16.4208C27.5068 16.4086 27.5375 16.3895 27.5804 16.3703C27.6736 16.3284 27.8097 16.2927 27.971 16.3074C28.1256 16.3216 28.236 16.376 28.2914 16.4094C28.3409 16.4392 28.3618 16.4618 28.3439 16.4451L26.9803 17.9081C27.0748 17.9962 27.3574 18.2597 27.789 18.2991C28.2685 18.343 28.6093 18.0932 28.7725 17.9515L27.461 16.4415ZM28.3435 16.4447C28.0305 16.1533 27.7064 15.8803 27.3823 15.6222L26.1361 17.1864C26.432 17.4221 26.7149 17.6611 26.9806 17.9085L28.3435 16.4447ZM27.3826 15.6224C24.4516 13.2856 21.0764 12.458 17.4121 13.3519L17.8861 15.2949C20.9173 14.5554 23.6627 15.2145 26.1359 17.1862L27.3826 15.6224ZM17.412 13.3519C13.5036 14.3055 10.7233 16.7451 9.35941 20.5775L11.2436 21.248C12.3761 18.066 14.6155 16.0929 17.8861 15.2949L17.412 13.3519ZM9.35941 20.5775C8.45698 23.1134 8.716 25.6395 9.46081 28.0246L11.3699 27.4285C10.7038 25.2955 10.5346 23.2406 11.2437 21.248L9.35941 20.5775ZM9.46081 28.0246C10.4075 31.0562 12.1575 33.5661 14.3334 35.7166L15.7393 34.2941C13.7367 32.3149 12.1968 30.0764 11.3699 27.4285L9.46081 28.0246ZM14.3334 35.7166C15.7239 37.0907 17.1769 38.4014 18.6631 39.6581L19.9545 38.1309C18.5007 36.9016 17.0869 35.6258 15.7393 34.294L14.3334 35.7166ZM18.6632 39.6581C20.5432 41.2477 22.5255 42.6844 24.526 44.0593L25.6588 42.411C23.6828 41.0529 21.7617 39.6589 19.9544 38.1309L18.6632 39.6581ZM25.7995 43.9422C25.7963 43.9454 25.7937 43.948 25.7922 43.9495C25.7907 43.951 25.7895 43.9522 25.7897 43.952C25.7897 43.952 25.7897 43.952 25.7897 43.952C25.7897 43.9519 25.7897 43.9519 25.7897 43.9519C25.7897 43.9519 25.7897 43.9519 25.7897 43.9519C25.7898 43.9519 25.7898 43.9518 25.7899 43.9518C25.79 43.9517 25.7901 43.9515 25.7903 43.9513C25.7907 43.9509 25.7914 43.9503 25.7922 43.9495C25.7938 43.9479 25.7965 43.9453 25.7997 43.9421L24.3855 42.5279C24.3887 42.5247 24.3913 42.5221 24.3929 42.5206C24.3943 42.5191 24.3956 42.5179 24.3953 42.5181C24.3953 42.5181 24.3953 42.5181 24.3953 42.5182C24.3953 42.5182 24.3953 42.5182 24.3953 42.5182C24.3953 42.5182 24.3953 42.5182 24.3953 42.5182C24.3953 42.5182 24.3952 42.5183 24.3952 42.5183C24.3951 42.5184 24.3949 42.5186 24.3947 42.5188C24.3943 42.5192 24.3936 42.5198 24.3928 42.5206C24.3912 42.5222 24.3886 42.5248 24.3853 42.528L25.7995 43.9422ZM24.5262 44.0591C25.2068 44.5269 25.8911 44.9888 26.5749 45.4471L27.6883 43.7856C27.008 43.3298 26.3308 42.8726 25.659 42.4108L24.5262 44.0591ZM26.5749 45.4471C26.8905 45.6586 27.3319 45.9116 27.8584 45.9406C28.457 45.9736 28.9578 45.7136 29.3563 45.3202L27.9511 43.897C27.889 43.9583 27.8644 43.9652 27.8791 43.9587C27.9009 43.9492 27.9358 43.9419 27.9684 43.9437C27.9931 43.945 27.9856 43.9501 27.9337 43.9276C27.8798 43.9042 27.8013 43.8614 27.6882 43.7856L26.5749 45.4471ZM29.3531 45.3234C29.3101 45.3654 29.2744 45.3892 29.2639 45.3961C29.2581 45.3999 29.2556 45.4012 29.2592 45.3991C29.2636 45.3966 29.2691 45.3934 29.2827 45.3858L28.3017 43.6429C28.275 43.6579 28.1042 43.7472 27.9543 43.8939L29.3531 45.3234ZM29.2827 45.3858C29.3032 45.3742 29.3597 45.3429 29.4179 45.3046L28.319 43.6336C28.3258 43.6291 28.329 43.6273 28.3256 43.6293C28.324 43.6303 28.3215 43.6317 28.3174 43.634C28.3131 43.6365 28.3085 43.6391 28.3017 43.6429L29.2827 45.3858ZM29.4162 45.3057C32.3641 43.3757 35.2226 41.3061 37.9296 39.0184L36.6386 37.4908C34.007 39.7148 31.2169 41.7363 28.3207 43.6325L29.4162 45.3057ZM37.9295 39.0185C39.6933 37.5282 41.3879 35.9339 42.9102 34.1463L41.3875 32.8496C39.9582 34.528 38.35 36.0449 36.6387 37.4908L37.9295 39.0185ZM42.9103 34.1462C44.652 32.1004 45.9259 29.7848 46.5926 27.1528L44.6539 26.6617C44.0705 28.9645 42.9535 31.0101 41.3874 32.8497L42.9103 34.1462ZM46.5481 27.2877C46.8385 26.5818 46.9988 25.809 46.9988 25.0012H44.9988C44.9988 25.5426 44.8916 26.0572 44.6985 26.5268L46.5481 27.2877ZM46.9988 25.0012C46.9988 24.7356 46.98 24.4776 46.9483 24.229L44.9644 24.4822C44.9867 24.6568 44.9988 24.8297 44.9988 25.0012H46.9988ZM46.8508 24.8028C46.9784 24.5476 46.9945 24.2943 46.9973 24.1487L44.9977 24.1098C44.9974 24.126 44.9965 24.1138 45.0018 24.084C45.0072 24.0536 45.0219 23.9885 45.0619 23.9084L46.8508 24.8028ZM46.9974 24.1462C47.0469 21.2162 46.032 18.6685 44.025 16.5669L42.5786 17.9482C44.2268 19.6741 45.0382 21.7152 44.9977 24.1124L46.9974 24.1462ZM44.025 16.567C41.9966 14.4428 39.3226 13.2423 36.5525 13.0436L36.4094 15.0385C38.6962 15.2025 40.9017 16.1922 42.5786 17.9482L44.025 16.567ZM35.6472 14.5931C36.0105 15.1418 36.3736 15.7617 36.7019 16.4443L38.5043 15.5775C38.1316 14.8027 37.7217 14.1036 37.3147 13.4889L35.6472 14.5931Z" fill="#352416" mask="url(#path-2-outside-1_1189_1848)"/>
</g>
<path d="M38.5843 25.0592C39.7914 20.4182 38.1246 16.5226 36.4822 14.0424C34.5697 13.9054 32.6065 14.2906 30.8085 15.2307C29.8105 15.7522 28.9585 16.4667 28.1173 17.1965C27.9315 17.3579 27.8235 17.3264 27.6627 17.1766C27.3733 16.9072 27.0698 16.6512 26.7598 16.4043C24.0577 14.2501 20.9974 13.5067 17.6497 14.3234C14.0602 15.1992 11.5503 17.4055 10.3021 20.9128C9.49639 23.177 9.71053 25.4675 10.416 27.7266C11.3027 30.5663 12.9477 32.9405 15.037 35.0053C16.406 36.3583 17.8394 37.6515 19.3094 38.8945C21.153 40.4533 23.1047 41.8686 25.093 43.2351C29.4395 38.953 37.0944 30.7901 38.5843 25.0592Z" fill="#D6292E"/>
<path d="M28.6545 44.6091C28.7143 44.5506 28.7979 44.5165 28.8693 44.4696C31.7914 42.5565 34.6157 40.5109 37.285 38.2551C39.0225 36.787 40.6739 35.2315 42.1497 33.4984C43.8036 31.5557 44.9991 29.3752 45.6241 26.9077C45.8659 26.32 45.9997 25.6763 45.9997 25.0017C45.9997 24.7831 45.9842 24.5677 45.9572 24.3561C45.9842 24.3021 45.9964 24.2288 45.9984 24.1298C46.0434 21.4662 45.1302 19.1718 43.3027 17.2581C41.45 15.318 39.0103 14.2228 36.4818 14.0415C38.1242 16.5218 39.791 20.4174 38.5839 25.0583C37.094 30.7892 29.4391 38.9528 25.0927 43.2349C25.7691 43.6998 26.4501 44.1596 27.1324 44.6168C27.6957 44.9943 28.1465 45.1107 28.6545 44.6091Z" fill="#B8292D"/>
<path d="M7 28.8264H19.9414L21.4186 36.2859L23.6351 28.8264L25.2969 36.2859L27.3282 28.8264L28.252 33.5317L31.7355 21.4287L34.5921 32.7998L36.0931 26.4498L37.7416 32.8525L39.406 29.1924H48.5" stroke="white" stroke-linecap="round" stroke-linejoin="round"/>
<defs>
<filter id="filter0_d_1189_1848" x="8.78516" y="12.8979" width="38.214" height="35.0454" filterUnits="userSpaceOnUse" color-interpolation-filters="sRGB">
<feFlood flood-opacity="0" result="BackgroundImageFix"/>
<feColorMatrix in="SourceAlpha" type="matrix" values="0 0 0 0 0 0 0 0 0 0 0 0 0 0 0 0 0 0 127 0" result="hardAlpha"/>
<feOffset dy="2"/>
<feComposite in2="hardAlpha" operator="out"/>
<feColorMatrix type="matrix" values="0 0 0 0 0 0 0 0 0 0 0 0 0 0 0 0 0 0 0.25 0"/>
<feBlend mode="normal" in2="BackgroundImageFix" result="effect1_dropShadow_1189_1848"/>
<feBlend mode="normal" in="SourceGraphic" in2="effect1_dropShadow_1189_1848" result="shape"/>
</filter>
</defs>
</svg>
