<svg width="54" height="33" viewBox="0 0 54 33" fill="none" xmlns="http://www.w3.org/2000/svg">
<g clip-path="url(#clip0_2531_4925)">
<path d="M28.4379 15.3984C28.713 15.7912 28.9749 16.1525 29.2202 16.5233C29.25 16.5672 29.2268 16.6741 29.1871 16.7212C28.8755 17.0857 28.4843 17.3465 28.0036 17.4658C27.8843 17.4941 27.7484 17.4973 27.6257 17.4753C27.3241 17.4219 27.1981 17.2271 27.3009 16.9569C27.523 16.3662 27.881 15.8603 28.4379 15.3984Z" fill="url(#paint0_linear_2531_4925)"/>
<path d="M28.6544 13.5391C28.2864 13.0961 28.2632 12.4708 28.608 12.009C28.7406 11.833 28.9096 11.6728 29.0886 11.5345C29.1715 11.4686 29.3903 11.4214 29.4201 11.456C29.5295 11.5911 29.6853 11.7922 29.6455 11.9241C29.4632 12.5274 29.1483 13.0741 28.6577 13.5391H28.6544Z" fill="url(#paint1_linear_2531_4925)"/>
<path fill-rule="evenodd" clip-rule="evenodd" d="M39.3569 29.4813C39.347 28.9942 39.1779 28.5544 38.8862 28.1239C38.9153 28.1167 38.9391 28.1104 38.9595 28.1051C38.9924 28.0964 39.0161 28.0901 39.0387 28.0862C39.4247 28.0205 39.8117 27.9573 40.1989 27.8941C41.0882 27.749 41.9785 27.6037 42.8608 27.4264C44.0475 27.1876 45.221 26.8766 46.3414 26.421C48.3238 25.6166 50.0906 24.4981 51.6851 23.1345C52.6398 22.3176 53.4221 21.375 53.7503 20.1779C54.4398 17.6643 53.6707 15.5624 51.6619 13.8406C51.434 13.6439 51.1832 13.4704 50.9302 13.2955C50.8114 13.2134 50.6921 13.131 50.5746 13.0457C50.5978 12.9954 50.621 12.9483 50.6442 12.9011C51.4497 11.371 51.5823 9.79059 51.0155 8.16934C50.3856 6.369 49.1989 4.97711 47.5381 3.93712C47.4221 3.86486 47.3127 3.76431 47.2332 3.65435C46.2221 2.29388 44.9028 1.27902 43.2652 0.700903C41.2696 -0.00603739 39.1945 -0.172561 37.0862 0.18248C35.4453 0.458973 33.821 0.817156 32.3061 1.50839C30.9138 2.14306 29.568 2.84372 28.663 4.1005C28.6591 4.10605 28.6506 4.10834 28.6327 4.11312C28.6203 4.11647 28.6033 4.12103 28.5801 4.12878C28.5778 4.1244 28.5753 4.11901 28.5725 4.11295L28.5725 4.11287L28.5725 4.11282C28.5632 4.09281 28.5507 4.06561 28.5304 4.04395C27.1713 2.62064 25.4641 1.84458 23.4619 1.65606C21.2873 1.45183 19.1127 1.5021 16.9414 1.78488C14.9459 2.04566 12.9669 2.37243 11.0144 2.85315C9.20442 3.2993 7.41437 3.79259 5.70055 4.50896C4.32155 5.08079 3.01216 5.75003 1.90829 6.74603C0.728177 7.80801 -0.0309387 9.01453 -0.00110448 10.6358C0.0486193 13.2593 1.17569 15.2733 3.52928 16.6621C3.63204 16.7249 3.73149 16.8097 3.80111 16.9071C5.13702 18.7954 7.00663 19.8606 9.37017 20.1653C9.58844 20.1937 9.80991 20.2023 10.0379 20.2113H10.0379C10.1388 20.2152 10.241 20.2193 10.3448 20.225C10.3512 20.3506 10.3565 20.4753 10.3619 20.5991L10.3619 20.5994V20.5994C10.3731 20.8597 10.3842 21.1165 10.4044 21.3719C10.4972 22.5752 10.6133 23.7786 10.9746 24.9411C11.4751 26.5561 12.4298 27.8349 14.0773 28.5795C14.1403 28.6078 14.2033 28.6706 14.2398 28.7335C14.8862 29.8457 15.8144 30.6595 17.0442 31.1842C18.0718 31.6241 19.3812 31.3853 20.0641 30.5307C21.0751 29.2645 21.3503 27.8474 20.7138 26.3676C20.4519 25.7612 20.3657 25.1831 20.4254 24.5578C20.4358 24.4637 20.4396 24.3684 20.4435 24.2734L20.4435 24.2733C20.4459 24.216 20.4482 24.1589 20.4519 24.1022C20.4542 24.063 20.4629 24.0238 20.4757 23.9658L20.4757 23.9658C20.4814 23.9401 20.4879 23.9107 20.495 23.876C20.573 23.9532 20.6454 24.0266 20.7149 24.097L20.7155 24.0977L20.7157 24.0978L20.7157 24.0978C20.8468 24.2307 20.9674 24.3529 21.095 24.4698C21.4026 24.7531 21.713 25.0337 22.0233 25.3143L22.0233 25.3143L22.0234 25.3144C22.663 25.8926 23.3023 26.4706 23.916 27.0714C25.4608 28.5827 27.095 29.984 28.9215 31.1905C30.579 32.2839 32.3724 32.9531 34.4044 32.994C35.5448 33.016 36.6553 32.8589 37.5901 32.1959C37.9752 31.9228 38.3015 31.5658 38.6237 31.2133L38.6237 31.2133C38.6759 31.1562 38.7279 31.0993 38.7801 31.0428C39.1878 30.6029 39.3669 30.0688 39.3569 29.4813ZM15.4311 17.6292C15.4329 17.6033 15.4358 17.5789 15.44 17.5559C15.4673 17.4155 15.5443 17.3286 15.7215 17.2779C15.9383 17.2184 16.1518 17.1465 16.3652 17.0747C16.5238 17.0213 16.6823 16.9679 16.842 16.9197C17.2099 16.8097 17.2796 16.8411 17.5149 17.1334C17.6368 17.2821 17.7572 17.4323 17.8777 17.5824C18.1667 17.9427 18.4558 18.3031 18.7646 18.6446C19.9613 19.9643 21.2243 21.221 22.5403 22.437C22.8387 22.7131 23.133 22.9929 23.4271 23.2726L23.4272 23.2726L23.4274 23.2729C24.3715 24.1707 25.314 25.0669 26.3856 25.8334C26.4707 25.8941 26.5556 25.955 26.6405 26.0159C27.5583 26.674 28.4762 27.3322 29.5746 27.706C30.6818 28.0831 31.8221 28.259 32.9823 27.9323C33.2011 27.8694 33.4166 27.7312 33.5823 27.5772C33.7043 27.466 33.7974 27.3276 33.8962 27.1808C33.9398 27.1161 33.9845 27.0497 34.0331 26.9834L34.0307 26.9816L34.0344 26.9765C33.946 26.9115 33.8522 26.8454 33.7557 26.7774L33.7557 26.7774C33.5303 26.6185 33.2903 26.4493 33.0698 26.2601L33.0725 26.2705L33.0685 26.267C31.6 25.0102 30.1315 23.7535 28.6862 22.4715C28.2215 22.0602 27.7746 21.6321 27.3276 21.204C26.9552 20.8472 26.5827 20.4904 26.2 20.1433L26.0191 19.9799L26.0191 19.9799C25.6342 19.6325 25.2483 19.2842 24.8873 18.9148C24.6991 18.7229 24.4954 18.5455 24.2911 18.3676L24.2908 18.3673L24.2907 18.3673C24.2109 18.2978 24.131 18.2282 24.0519 18.1576C23.0309 17.2496 22.0099 16.3416 20.9923 15.4304C20.9066 15.3534 20.8326 15.2625 20.7547 15.167L20.7547 15.167L20.7547 15.1669C20.7166 15.1202 20.6775 15.0723 20.6358 15.0243C20.8451 14.8954 21.051 14.769 21.2546 14.644L21.2555 14.6435C21.6963 14.3729 22.1255 14.1095 22.5516 13.8431C22.6997 13.7509 22.8482 13.6592 22.9967 13.5675L22.9974 13.5671C23.9617 12.9715 24.9253 12.3764 25.7869 11.6469C26.3836 11.141 26.9704 10.6163 27.3151 9.92194C28.0444 8.4515 27.7593 7.06904 26.7648 5.8154L26.734 5.77702C25.9034 4.7527 24.7339 4.2463 23.3956 4.06908C22.2984 3.92227 21.1952 3.94315 20.0922 3.96402L20.0922 3.96402C19.7789 3.96995 19.4656 3.97588 19.1525 3.97797C19.0705 3.97797 18.9885 3.99975 18.9059 4.02344L18.8024 4.03077C18.6608 4.04156 18.5186 4.04869 18.3764 4.05582L18.3763 4.05582C18.2475 4.06228 18.1186 4.06875 17.9899 4.07794C17.9285 4.07914 17.8673 4.0821 17.8066 4.08794C17.5912 4.11006 17.3757 4.14417 17.1602 4.17828C16.9779 4.20714 16.7956 4.236 16.6133 4.2576C13.8055 4.58437 11.074 5.23161 8.3989 6.08308C7.1558 6.47897 5.94586 6.96283 4.82541 7.62578C4.07956 8.06566 3.44641 8.62178 2.90939 9.28159C2.62762 9.63035 2.57459 10.0262 2.56133 10.4441C2.53149 11.283 2.64088 12.0905 3.06851 12.8383C3.51315 13.6119 4.17394 14.2357 4.95351 14.663C5.87199 15.1677 6.95583 15.3995 8.04549 15.2821C8.54936 15.2287 9.02008 15.0873 9.46759 14.8705C9.66649 14.7731 9.85544 14.4935 9.8256 14.3364C9.8052 14.2397 9.75277 14.1837 9.68577 14.1476C9.6222 14.112 9.54486 14.0952 9.46915 14.0787C9.44236 14.0729 9.41576 14.0671 9.39006 14.0605C9.04591 13.9705 8.70176 13.887 8.37465 13.8076L8.37446 13.8075L8.37411 13.8075C8.24554 13.7762 8.11961 13.7457 7.99734 13.7156C7.97481 13.6919 7.95572 13.6675 7.93809 13.645C7.90891 13.6077 7.88371 13.5755 7.85342 13.5598C7.8476 13.5564 7.8416 13.5536 7.83536 13.5515C7.72992 13.5159 7.62196 13.4863 7.51396 13.4567L7.51393 13.4566C7.37406 13.4183 7.23412 13.3798 7.09945 13.3284C6.59347 13.138 6.08926 12.9391 5.58552 12.7405C5.39951 12.6671 5.21357 12.5938 5.02762 12.521C5.01171 12.5146 4.99704 12.5078 4.98365 12.5006C4.87556 12.4401 4.85512 12.351 4.94273 12.2376C4.97352 12.1981 5.00332 12.1572 5.03321 12.1162C5.11274 12.0071 5.19292 11.897 5.29411 11.8103C6.04991 11.1473 6.90185 10.6132 7.82008 10.1796C9.57367 9.35011 11.3869 8.67458 13.2996 8.22528L13.7549 8.11782L13.7549 8.11782C15.9625 7.59619 18.1662 7.07548 20.4367 6.8491C21.809 6.71086 23.1781 6.60403 24.5538 6.78941C24.5886 6.79412 24.6234 6.79868 24.6584 6.80326L24.6584 6.80326C24.996 6.84744 25.3396 6.89243 25.6792 7.0782C25.7015 7.09044 25.7237 7.10329 25.7459 7.11678C25.6799 7.20659 25.6185 7.29912 25.5576 7.39089L25.5576 7.39094C25.4224 7.59456 25.2897 7.79445 25.116 7.95255C25.028 8.03167 24.9401 8.11099 24.8522 8.19035L24.8519 8.19059C24.1647 8.81073 23.4753 9.43285 22.726 9.97597C20.7871 11.3742 18.6992 12.5621 16.6142 13.7483L16.474 13.828C16.3121 13.9205 16.1472 14.0102 15.9754 14.1037L15.9754 14.1037L15.9754 14.1037C15.8919 14.1491 15.8068 14.1954 15.7195 14.2434C15.7195 14.1663 15.7187 14.0943 15.7179 14.0257V14.0256C15.7165 13.8949 15.7152 13.7763 15.7195 13.6577C15.7302 13.3838 15.7435 13.1099 15.7568 12.8361L15.7569 12.8359C15.7851 12.2555 15.8134 11.6755 15.8157 11.097C15.8157 10.7703 15.7295 10.4341 15.6134 10.123C15.5405 9.92823 15.3615 9.75856 15.1958 9.61089C15.085 9.51464 14.9517 9.44123 14.806 9.36098L14.806 9.36097C14.7424 9.32596 14.6765 9.28964 14.609 9.24956L14.609 9.24973L14.6044 9.24703C14.5626 9.36591 14.5152 9.48635 14.4672 9.60836C14.3629 9.8733 14.2557 10.1456 14.1967 10.4253C14.1011 10.8782 13.9997 11.3299 13.8983 11.7817C13.5812 13.1947 13.2641 14.6074 13.126 16.0525C12.9039 18.3901 12.768 20.7246 13.1525 23.0591C13.2785 23.832 13.4243 24.5955 13.8685 25.2742C14.1461 25.6984 14.4897 26.0422 14.9264 26.2813C15.0686 26.3596 15.2208 26.4267 15.3838 26.4818L15.3867 26.4901C15.58 26.2385 15.692 25.9745 15.7402 25.7147C15.8453 25.1611 15.6603 24.6252 15.3549 24.265C15.156 24.0293 15.0831 23.7748 15.0963 23.4795C15.1202 23.007 15.1419 22.5344 15.1637 22.0619C15.1963 21.353 15.2289 20.6442 15.2687 19.9354C15.296 19.4469 15.3327 18.9597 15.3694 18.4721L15.3695 18.472C15.3906 18.1913 15.4117 17.9104 15.4311 17.6292ZM34.7795 23.2374C34.9946 23.2864 35.2256 23.301 35.4658 23.2751C36.9078 23.1212 38.3366 22.9075 39.7454 22.5713C41.0913 22.2477 42.4239 21.8958 43.6537 21.2674C45.1222 20.5196 46.4813 19.6304 47.6581 18.4993C49.2625 16.9566 49.0106 14.7039 47.489 13.3497L47.4824 13.3434C46.7001 12.6459 45.7553 12.2374 44.7576 11.9201C44.3334 11.7843 43.9092 11.6462 43.4487 11.4964C43.3658 11.4694 43.2817 11.442 43.1962 11.4142C43.3345 11.3236 43.4689 11.2365 43.6002 11.1515C43.9286 10.9389 44.2371 10.7392 44.5355 10.5282C45.8316 9.6076 46.3321 8.36652 46.004 6.88352C45.6625 5.3471 44.6747 4.21599 43.2824 3.3928C41.7145 2.46278 39.9509 2.32139 38.1973 2.47221C37.6619 2.51737 37.1287 2.5905 36.6007 2.69184C35.5845 2.88662 34.5872 3.18591 33.6287 3.59151C32.7967 3.94341 31.9713 4.32358 31.2884 4.90485C30.2575 5.78459 30.1149 6.92827 30.3403 8.14421C30.4862 8.93284 30.9901 9.54238 31.5536 10.1111C31.8388 10.3977 32.1186 10.5081 32.4456 10.4446C32.5606 10.4228 32.6815 10.3794 32.8106 10.3145C33.1089 10.1637 33.2382 9.91551 33.2415 9.59817C33.2415 9.29654 33.0559 9.16458 32.7874 9.04833C32.6143 8.97325 32.4646 8.84155 32.3198 8.71424C32.301 8.69771 32.2823 8.68126 32.2636 8.66501C32.1675 8.58332 32.1741 8.47963 32.2835 8.38852C32.3525 8.33322 32.4193 8.27591 32.4861 8.2186C32.5864 8.13263 32.6866 8.04667 32.794 7.96749C33.5995 7.36424 34.531 6.98406 35.4725 6.62274C36.5321 6.21664 37.6049 5.87049 38.7125 5.65753C39.3604 5.53316 40.0201 5.45437 40.6961 5.43584C42.0055 5.39813 43.1956 5.70604 44.2762 6.40984C44.5083 6.56066 44.5348 6.66434 44.3392 6.84972C44.2583 6.92715 44.1783 7.0068 44.0982 7.08663L44.0981 7.08666C43.8206 7.36315 43.5406 7.64196 43.2088 7.83944C42.2126 8.43327 41.1973 8.9991 40.183 9.56436L40.183 9.56438L40.1829 9.5644C39.7966 9.77971 39.4104 9.99495 39.0254 10.2116C38.5575 10.4745 38.0914 10.739 37.6245 11.004L37.0994 11.3019C36.9669 11.3773 36.8873 11.4778 36.9238 11.6412C36.9536 11.7889 36.9768 11.9428 36.9569 12.0874C36.9171 12.3984 36.9635 12.6906 37.1425 12.9451C37.376 13.277 37.6277 13.5974 37.8786 13.9167C37.9484 14.0055 38.0181 14.0942 38.0873 14.1831C38.2431 14.3841 38.4619 14.4156 38.7138 14.381L38.9472 14.3469C39.7749 14.226 40.6051 14.1047 41.4354 14.0071C43.1028 13.8092 44.7271 14.0134 46.3116 14.5255C46.7392 14.6638 47.1304 14.8649 47.4917 15.1413C47.4662 15.1827 47.4424 15.2223 47.4193 15.2608L47.4193 15.2609L47.4192 15.2611C47.3703 15.3425 47.3247 15.4186 47.2729 15.4932C47.2398 15.5435 47.1901 15.5875 47.1436 15.6284C46.0232 16.6432 44.7337 17.4067 43.3116 17.9785C41.2597 18.8017 39.1381 19.4144 36.9702 19.892C36.9673 19.8926 36.9645 19.8932 36.9617 19.8937C36.8725 19.9104 36.7783 19.9044 36.6946 19.8991C36.657 19.8966 36.6215 19.8944 36.5896 19.8944C36.582 19.7487 36.5808 19.6039 36.5796 19.4608C36.5771 19.1656 36.5747 18.8771 36.5167 18.5999C36.3145 17.6384 36.2979 16.6676 36.3973 15.703C36.5816 13.8948 36.7883 12.0904 36.995 10.2853C37.0523 9.78512 37.1096 9.28483 37.1664 8.7844C37.2128 8.36967 37.2294 7.96435 37.0471 7.57161C36.9196 7.29902 36.776 7.05086 36.394 7.1252C36.3884 7.12626 36.3828 7.12738 36.3771 7.12858C36.372 7.12815 36.3617 7.11776 36.3513 7.10738C36.3478 7.10385 36.3443 7.10031 36.341 7.09717C36.343 7.09139 36.3457 7.08532 36.3484 7.07913C36.3545 7.06513 36.3609 7.05055 36.3609 7.03747C36.3609 6.94303 36.3546 6.85154 36.3482 6.75727L36.3476 6.74841C36.3463 6.74872 36.345 6.74903 36.3437 6.74933L36.3436 6.74917C36.3386 6.75036 36.3335 6.75146 36.3283 6.75248C36.3036 6.75712 36.2773 6.76014 36.2509 6.76316C36.2228 6.76638 36.1947 6.76959 36.1686 6.77476C36.1281 6.78245 36.0922 6.79456 36.0685 6.8183C36.013 6.87315 35.9541 6.9271 35.895 6.98127C35.7068 7.15362 35.5162 7.32819 35.4254 7.54095C35.1138 8.26674 34.8122 9.00824 34.6332 9.7686C34.0597 12.2005 34.2055 14.6543 34.5304 17.1019C34.6729 18.1733 35.0111 19.1945 35.9028 19.958C35.9218 19.974 35.9341 19.9977 35.949 20.0266C35.9576 20.043 35.967 20.0611 35.979 20.0805C35.9172 20.0952 35.8611 20.1091 35.8078 20.1224C35.7468 20.1376 35.6893 20.1519 35.6309 20.1653L35.6282 20.1659L35.6277 20.166L35.6272 20.1661C35.0086 20.2978 34.3899 20.4295 33.7713 20.5644C33.6055 20.5989 33.4398 20.6398 33.4232 20.9131C33.4234 20.9131 33.4236 20.9131 33.4238 20.9131C33.4087 20.9976 33.3867 21.137 33.3737 21.2961C33.3647 21.3203 33.359 21.3494 33.3569 21.3844C33.3064 22.3022 33.9176 23.046 34.7795 23.2374ZM27.3536 12.8446C27.2276 12.2225 27.3271 11.6161 27.5923 11.0882L27.5823 11.0851C27.6329 11.0785 27.6787 11.075 27.7209 11.0718L27.7209 11.0718C27.8005 11.0657 27.8676 11.0605 27.9304 11.0379C28.0499 10.9963 28.1666 10.9487 28.283 10.9012L28.2831 10.9012C28.4475 10.834 28.6115 10.7671 28.7823 10.7175C29.0344 10.6433 29.2465 10.6316 29.428 10.6843C29.6667 10.7502 29.8535 10.9261 30.0068 11.2167C30.2521 11.6817 30.3184 12.1718 30.1096 12.6557C29.9173 13.105 29.6919 13.548 29.4433 13.9722C29.2676 14.2738 29.2643 14.5095 29.5096 14.7797C29.5714 14.847 29.629 14.918 29.6867 14.9893C29.8561 15.1983 30.0266 15.4088 30.3081 15.5294C30.4039 15.3681 30.4998 15.2076 30.5956 15.0471C30.6917 14.8861 30.7878 14.725 30.884 14.5632L30.9436 14.5695V14.5711L30.9549 14.5723C30.9549 14.6249 30.9569 14.6778 30.9588 14.7307C30.9631 14.8453 30.9674 14.9601 30.9516 15.0719C30.9118 15.3358 30.8687 15.6029 30.7726 15.8511C30.6764 16.0993 30.6996 16.3129 30.8455 16.5235C30.9185 16.6289 30.9934 16.7335 31.0684 16.8383L31.0686 16.8385L31.0686 16.8386L31.0686 16.8386C31.2149 17.043 31.3616 17.248 31.4952 17.4598C31.8068 17.9468 31.8367 18.462 31.6046 19.0119L31.5942 19.007L31.5934 19.0091C31.2221 18.8332 30.9669 18.5661 30.7215 18.2833C30.6441 18.1936 30.5661 18.1047 30.4882 18.0158L30.4879 18.0154L30.4876 18.015C30.3557 17.8647 30.2241 17.7145 30.095 17.5607C30.0467 17.5041 30.0038 17.4712 29.9607 17.4627C29.9061 17.4572 29.8507 17.4908 29.7847 17.5634C29.5726 17.7928 29.3505 18.0127 29.1118 18.217C28.9626 18.3427 28.7869 18.4463 28.6079 18.5217C28.2473 18.6762 27.9228 18.7168 27.6364 18.6441C27.3178 18.5667 27.0459 18.35 26.8232 17.9942C26.3028 17.1648 26.3227 16.3416 26.8961 15.5435C27.0718 15.2984 27.284 15.0722 27.5127 14.8711C27.7547 14.6575 27.7978 14.4313 27.7116 14.1485C27.6894 14.0741 27.6669 13.9997 27.6444 13.9254C27.536 13.5668 27.4277 13.2089 27.3536 12.8446Z" fill="url(#paint2_linear_2531_4925)"/>
</g>
<defs>
<linearGradient id="paint0_linear_2531_4925" x1="27.5264" y1="15.546" x2="28.5035" y2="17.5226" gradientUnits="userSpaceOnUse">
<stop stop-color="white"/>
<stop offset="1" stop-color="#5867FE"/>
</linearGradient>
<linearGradient id="paint1_linear_2531_4925" x1="28.534" y1="11.5921" x2="29.7193" y2="13.1594" gradientUnits="userSpaceOnUse">
<stop stop-color="white"/>
<stop offset="1" stop-color="#5867FE"/>
</linearGradient>
<linearGradient id="paint2_linear_2531_4925" x1="7.15185" y1="2.32975" x2="17.3581" y2="38.2345" gradientUnits="userSpaceOnUse">
<stop stop-color="white"/>
<stop offset="1" stop-color="#5867FE"/>
</linearGradient>
<clipPath id="clip0_2531_4925">
<rect width="54" height="33" fill="white"/>
</clipPath>
</defs>
</svg>
