<svg width="56" height="56" viewBox="0 0 56 56" fill="none" xmlns="http://www.w3.org/2000/svg">
<path d="M0.3 28C0.3 12.7017 12.7017 0.3 28 0.3C43.2983 0.3 55.7 12.7017 55.7 28C55.7 43.2983 43.2983 55.7 28 55.7C12.7017 55.7 0.3 43.2983 0.3 28Z" stroke="#7F7F7F" stroke-width="0.6"/>
<path fill-rule="evenodd" clip-rule="evenodd" d="M21.1894 13.9038H30.6658H30.6678H33.2121L34.7156 19.7367H34.716L34.7123 19.7218L37.4306 17.0546L40.7291 19.5174L42.2318 24.596L42.2355 24.5984L36.8867 30.2773C37.4107 30.5152 37.9996 30.7107 38.6606 30.8431L35.7638 33.4104C37.0838 35.2317 37.8619 37.4712 37.8619 39.8926C37.8619 46.0004 32.91 50.9523 26.8022 50.9523C21.4543 50.9523 16.9931 47.1563 15.9658 42.1119L18.8517 39.2801C18.8359 39.4815 18.8284 39.686 18.8284 39.8919C18.8284 44.2959 22.3982 47.8658 26.8022 47.8658C31.2063 47.8658 34.7761 44.2959 34.7761 39.8919C34.7761 35.4878 31.2063 31.918 26.8022 31.918C26.6474 31.918 26.4934 31.9225 26.3408 31.9315L27.5766 30.7193L27.575 30.7187L26.3397 31.9306C22.3535 32.1583 19.1512 35.3133 18.8498 39.2792L15.9639 42.111C15.8173 41.394 15.7407 40.6522 15.7407 39.8917C15.7407 37.28 16.6461 34.8796 18.1601 32.9874L15.7405 30.843C16.3521 30.7206 16.902 30.5441 17.3958 30.33L14.7885 27.5618L14.7903 27.56L12.0004 24.5981L12.0001 24.5983L12.0002 24.5979L12 24.5977L12.0003 24.5975L13.5039 19.5156L21.1892 13.9044L21.1894 13.9038ZM21.6167 25.9787C21.616 25.9783 21.6154 25.9778 21.6147 25.9774L20.4011 22.0556L20.4025 22.0542L21.6167 25.9787ZM34.1079 28.0788C34.1087 28.0798 34.1095 28.0808 34.1102 28.0818L39.4759 22.8172L39.4726 22.8151L34.1079 28.0788ZM38.6606 30.8431L38.6613 30.8425V30.8432L38.6606 30.8431ZM34.7163 19.7377L34.7162 19.7373L34.7161 19.7376L34.7163 19.7377ZM33.2133 13.9038L34.7126 19.72L37.431 17.0528L33.2133 13.9038Z" fill="#BFBFBF"/>
<mask id="path-3-outside-1_1189_1598" maskUnits="userSpaceOnUse" x="11.9512" y="10.0015" width="33" height="40" fill="black">
<rect fill="white" x="11.9512" y="10.0015" width="33" height="40"/>
<path fill-rule="evenodd" clip-rule="evenodd" d="M22.1406 11.0015H31.617H31.619H34.1632L35.6667 16.8344H35.6672L35.6635 16.8195L38.3818 14.1522L41.6803 16.615L43.1829 21.6937L43.1867 21.6961L37.8379 27.3749C38.3619 27.6129 38.9508 27.8084 39.6118 27.9408L36.715 30.508C38.0349 32.3293 38.8131 34.5688 38.8131 36.9903C38.8131 43.0981 33.8612 48.05 27.7534 48.05C22.4054 48.05 17.9443 44.254 16.9169 39.2096L19.8028 36.3778C19.7871 36.5792 19.7795 36.7836 19.7795 36.9895C19.7795 41.3936 23.3494 44.9634 27.7534 44.9634C32.1575 44.9634 35.7273 41.3936 35.7273 36.9895C35.7273 32.5855 32.1575 29.0157 27.7534 29.0157C27.5986 29.0157 27.4445 29.0202 27.292 29.0292L28.5277 27.8169L28.5262 27.8164L27.2908 29.0283C23.3047 29.256 20.1023 32.411 19.801 36.3768L16.915 39.2087C16.7685 38.4917 16.6918 37.7499 16.6918 36.9893C16.6918 34.3776 17.5973 31.9773 19.1113 30.0851L16.6917 27.9407C17.3033 27.8182 17.8531 27.6418 18.347 27.4276L15.7397 24.6594L15.7414 24.6577L12.9516 21.6958L12.9512 21.696L12.9514 21.6955L12.9512 21.6953L12.9515 21.6952L14.4551 16.6133L22.1404 11.002L22.1406 11.0015ZM22.5679 23.0764C22.5672 23.0759 22.5666 23.0755 22.5659 23.075L21.3523 19.1532L21.3537 19.1518L22.5679 23.0764ZM35.0591 25.1764C35.0599 25.1774 35.0606 25.1784 35.0614 25.1794L40.427 19.9149L40.4238 19.9128L35.0591 25.1764ZM39.6118 27.9408L39.6125 27.9401V27.9409L39.6118 27.9408ZM35.6674 16.8354L35.6673 16.8349L35.6672 16.8352L35.6674 16.8354ZM34.1645 11.0015L35.6638 16.8177L38.3821 14.1504L34.1645 11.0015Z"/>
</mask>
<path fill-rule="evenodd" clip-rule="evenodd" d="M22.1406 11.0015H31.617H31.619H34.1632L35.6667 16.8344H35.6672L35.6635 16.8195L38.3818 14.1522L41.6803 16.615L43.1829 21.6937L43.1867 21.6961L37.8379 27.3749C38.3619 27.6129 38.9508 27.8084 39.6118 27.9408L36.715 30.508C38.0349 32.3293 38.8131 34.5688 38.8131 36.9903C38.8131 43.0981 33.8612 48.05 27.7534 48.05C22.4054 48.05 17.9443 44.254 16.9169 39.2096L19.8028 36.3778C19.7871 36.5792 19.7795 36.7836 19.7795 36.9895C19.7795 41.3936 23.3494 44.9634 27.7534 44.9634C32.1575 44.9634 35.7273 41.3936 35.7273 36.9895C35.7273 32.5855 32.1575 29.0157 27.7534 29.0157C27.5986 29.0157 27.4445 29.0202 27.292 29.0292L28.5277 27.8169L28.5262 27.8164L27.2908 29.0283C23.3047 29.256 20.1023 32.411 19.801 36.3768L16.915 39.2087C16.7685 38.4917 16.6918 37.7499 16.6918 36.9893C16.6918 34.3776 17.5973 31.9773 19.1113 30.0851L16.6917 27.9407C17.3033 27.8182 17.8531 27.6418 18.347 27.4276L15.7397 24.6594L15.7414 24.6577L12.9516 21.6958L12.9512 21.696L12.9514 21.6955L12.9512 21.6953L12.9515 21.6952L14.4551 16.6133L22.1404 11.002L22.1406 11.0015ZM22.5679 23.0764C22.5672 23.0759 22.5666 23.0755 22.5659 23.075L21.3523 19.1532L21.3537 19.1518L22.5679 23.0764ZM35.0591 25.1764C35.0599 25.1774 35.0606 25.1784 35.0614 25.1794L40.427 19.9149L40.4238 19.9128L35.0591 25.1764ZM39.6118 27.9408L39.6125 27.9401V27.9409L39.6118 27.9408ZM35.6674 16.8354L35.6673 16.8349L35.6672 16.8352L35.6674 16.8354ZM34.1645 11.0015L35.6638 16.8177L38.3821 14.1504L34.1645 11.0015Z" fill="#342315"/>
<path d="M22.1406 11.0015V10.0015C21.6842 10.0015 21.2857 10.3105 21.1721 10.7525L22.1406 11.0015ZM34.1632 11.0015L35.1316 10.7519C35.0177 10.3101 34.6194 10.0015 34.1632 10.0015V11.0015ZM35.6667 16.8344L34.6984 17.084C34.8122 17.5257 35.2106 17.8344 35.6667 17.8344V16.8344ZM35.6672 16.8344V17.8344C35.9751 17.8344 36.2659 17.6925 36.4554 17.4498C36.6449 17.2071 36.712 16.8906 36.6373 16.5919L35.6672 16.8344ZM35.6635 16.8195L34.9631 16.1057C34.71 16.354 34.6073 16.7179 34.6933 17.062L35.6635 16.8195ZM38.3818 14.1522L38.9801 13.3509C38.5848 13.0558 38.0335 13.093 37.6814 13.4384L38.3818 14.1522ZM41.6803 16.615L42.6392 16.3313C42.578 16.1244 42.4515 15.9428 42.2786 15.8137L41.6803 16.615ZM43.1829 21.6937L42.224 21.9774C42.2918 22.2064 42.4393 22.4036 42.6398 22.5333L43.1829 21.6937ZM43.1867 21.6961L43.9146 22.3817C44.1181 22.1657 44.2151 21.8704 44.1794 21.5758C44.1437 21.2812 43.979 21.0176 43.7298 20.8564L43.1867 21.6961ZM37.8379 27.3749L37.1099 26.6893C36.8886 26.9242 36.7943 27.2515 36.8567 27.5682C36.9191 27.8849 37.1305 28.152 37.4244 28.2854L37.8379 27.3749ZM36.715 30.508L36.0517 29.7597C35.6668 30.1008 35.6035 30.6784 35.9053 31.0949L36.715 30.508ZM16.9169 39.2096L16.2165 38.4958C15.9746 38.7332 15.8694 39.077 15.937 39.4092L16.9169 39.2096ZM19.8028 36.3778L20.7998 36.4559C20.8324 36.0402 20.6035 35.6479 20.2256 35.4716C19.8477 35.2953 19.4001 35.372 19.1025 35.664L19.8028 36.3778ZM27.292 29.0292L26.5917 28.3154C26.294 28.6074 26.2088 29.0534 26.3778 29.4346C26.5469 29.8158 26.9347 30.0521 27.351 30.0275L27.292 29.0292ZM28.5277 27.8169L29.228 28.5308C29.474 28.2895 29.5784 27.9387 29.5044 27.6022C29.4304 27.2657 29.1885 26.991 28.864 26.8752L28.5277 27.8169ZM28.5262 27.8164L28.8625 26.8746C28.5018 26.7458 28.0993 26.8343 27.8259 27.1025L28.5262 27.8164ZM27.2908 29.0283L27.3479 30.0266C27.5897 30.0128 27.8182 29.9117 27.9911 29.7421L27.2908 29.0283ZM19.801 36.3768L20.5013 37.0906C20.6743 36.9209 20.7797 36.6942 20.7981 36.4526L19.801 36.3768ZM16.915 39.2087L15.9353 39.4089C16.0087 39.7678 16.2724 40.0579 16.6227 40.165C16.9731 40.2721 17.3539 40.179 17.6154 39.9224L16.915 39.2087ZM19.1113 30.0851L19.8921 30.7098C20.2249 30.2939 20.1733 29.69 19.7746 29.3367L19.1113 30.0851ZM16.6917 27.9407L16.4954 26.9601C16.1232 27.0347 15.8253 27.3135 15.7263 27.6799C15.6273 28.0464 15.7444 28.4373 16.0285 28.6891L16.6917 27.9407ZM18.347 27.4276L18.7448 28.3451C19.0437 28.2155 19.2607 27.9485 19.3264 27.6294C19.3922 27.3103 19.2983 26.9792 19.0749 26.742L18.347 27.4276ZM15.7397 24.6594L15.0394 23.9455C14.6508 24.3267 14.6385 24.9488 15.0117 25.345L15.7397 24.6594ZM15.7414 24.6577L16.4417 25.3716C16.8303 24.9903 16.8426 24.3683 16.4694 23.972L15.7414 24.6577ZM12.9516 21.6958L13.6795 21.0101C13.3449 20.6549 12.8027 20.593 12.3967 20.8638L12.9516 21.6958ZM12.9512 21.696L11.9924 21.4121C11.8728 21.8158 12.019 22.2511 12.3578 22.5009C12.6967 22.7507 13.1558 22.7615 13.5061 22.5279L12.9512 21.696ZM12.9514 21.6955L13.9102 21.9794C14.0112 21.6385 13.9235 21.2696 13.6799 21.0105L12.9514 21.6955ZM12.9512 21.6953L12.4169 20.85C12.1646 21.0095 11.9967 21.2733 11.9591 21.5694C11.9215 21.8655 12.0182 22.1629 12.2227 22.3804L12.9512 21.6953ZM12.9515 21.6952L13.4857 22.5405C13.6907 22.4109 13.8416 22.2114 13.9104 21.9789L12.9515 21.6952ZM14.4551 16.6133L13.8654 15.8057C13.6882 15.9351 13.5584 16.1192 13.4962 16.3296L14.4551 16.6133ZM22.1404 11.002L22.7301 11.8097C22.9173 11.673 23.0512 11.4755 23.1089 11.251L22.1404 11.002ZM22.5679 23.0764L22.0092 23.9058C22.361 24.1427 22.8239 24.1319 23.1643 23.879C23.5047 23.6261 23.6485 23.1859 23.5232 22.7808L22.5679 23.0764ZM22.5659 23.075L21.6106 23.3707C21.6781 23.5886 21.818 23.777 22.0073 23.9045L22.5659 23.075ZM21.3523 19.1532L20.652 18.4393C20.3847 18.7015 20.2863 19.0911 20.397 19.4488L21.3523 19.1532ZM21.3537 19.1518L22.309 18.8563C22.206 18.5231 21.9368 18.2677 21.5987 18.1823C21.2606 18.0969 20.9024 18.1938 20.6534 18.438L21.3537 19.1518ZM35.0614 25.1794L34.2712 25.7922C34.4461 26.0178 34.709 26.1578 34.9938 26.1771C35.2786 26.1964 35.558 26.0931 35.7618 25.8932L35.0614 25.1794ZM35.0591 25.1764L34.3587 24.4626C33.9966 24.818 33.9579 25.3883 34.2688 25.7892L35.0591 25.1764ZM40.427 19.9149L41.1274 20.6287C41.3442 20.416 41.4525 20.1163 41.422 19.8142C41.3914 19.5121 41.2252 19.2402 40.9702 19.0753L40.427 19.9149ZM40.4238 19.9128L40.967 19.0732C40.5741 18.819 40.0575 18.8713 39.7235 19.199L40.4238 19.9128ZM39.6125 27.9401H40.6125C40.6125 27.5466 40.3816 27.1896 40.0227 27.0282C39.6637 26.8667 39.2435 26.9308 38.949 27.1919L39.6125 27.9401ZM39.6125 27.9409L39.4148 28.9212C39.7087 28.9804 40.0138 28.9047 40.2458 28.7147C40.4779 28.5248 40.6125 28.2408 40.6125 27.9409H39.6125ZM35.6673 16.8349L36.6371 16.5908C36.5279 16.1571 36.144 15.8486 35.697 15.8354C35.2499 15.8221 34.8484 16.1073 34.7137 16.5338L35.6673 16.8349ZM35.6674 16.8354L35.125 17.6755C35.4701 17.8983 35.9163 17.8874 36.2501 17.648C36.5839 17.4087 36.7374 16.9896 36.6372 16.5912L35.6674 16.8354ZM35.6672 16.8352L34.7137 16.5341C34.578 16.9637 34.7463 17.431 35.1248 17.6753L35.6672 16.8352ZM35.6638 16.8177L34.6955 17.0673C34.7846 17.4132 35.0516 17.6853 35.3958 17.7811C35.74 17.8768 36.1092 17.7817 36.3642 17.5314L35.6638 16.8177ZM34.1645 11.0015L34.7627 10.2002C34.4228 9.94636 33.9597 9.93467 33.6074 10.171C33.2551 10.4074 33.0902 10.8403 33.1961 11.2511L34.1645 11.0015ZM38.3821 14.1504L39.0825 14.8642C39.2909 14.6598 39.3995 14.3745 39.3799 14.0832C39.3602 13.7919 39.2143 13.5238 38.9804 13.3491L38.3821 14.1504ZM31.617 10.0015H22.1406V12.0015H31.617V10.0015ZM31.619 10.0015H31.617V12.0015H31.619V10.0015ZM34.1632 10.0015H31.619V12.0015H34.1632V10.0015ZM36.6351 16.5848L35.1316 10.7519L33.1949 11.2511L34.6984 17.084L36.6351 16.5848ZM35.6672 15.8344H35.6667V17.8344H35.6672V15.8344ZM34.6933 17.062L34.697 17.0769L36.6373 16.5919L36.6336 16.577L34.6933 17.062ZM37.6814 13.4384L34.9631 16.1057L36.3638 17.5332L39.0822 14.866L37.6814 13.4384ZM42.2786 15.8137L38.9801 13.3509L37.7835 14.9535L41.082 17.4163L42.2786 15.8137ZM44.1419 21.41L42.6392 16.3313L40.7214 16.8987L42.224 21.9774L44.1419 21.41ZM43.7298 20.8564L43.7261 20.854L42.6398 22.5333L42.6436 22.5357L43.7298 20.8564ZM38.5658 28.0606L43.9146 22.3817L42.4587 21.0104L37.1099 26.6893L38.5658 28.0606ZM39.8082 26.9602C39.2217 26.8428 38.7056 26.6707 38.2513 26.4644L37.4244 28.2854C38.0182 28.5551 38.6799 28.774 39.4154 28.9213L39.8082 26.9602ZM37.3783 31.2564L40.275 28.6891L38.9485 27.1924L36.0517 29.7597L37.3783 31.2564ZM39.8131 36.9903C39.8131 34.3511 38.9642 31.9075 37.5247 29.9212L35.9053 31.0949C37.1057 32.7512 37.8131 34.7866 37.8131 36.9903H39.8131ZM27.7534 49.05C34.4135 49.05 39.8131 43.6504 39.8131 36.9903H37.8131C37.8131 42.5458 33.3089 47.05 27.7534 47.05V49.05ZM15.937 39.4092C17.0574 44.91 21.9207 49.05 27.7534 49.05V47.05C22.8902 47.05 18.8312 43.5979 17.8968 39.01L15.937 39.4092ZM19.1025 35.664L16.2165 38.4958L17.6173 39.9234L20.5032 37.0916L19.1025 35.664ZM20.7795 36.9895C20.7795 36.8078 20.7862 36.6296 20.7998 36.4559L18.8059 36.2997C18.7879 36.5289 18.7795 36.7594 18.7795 36.9895H20.7795ZM27.7534 43.9634C23.9017 43.9634 20.7795 40.8413 20.7795 36.9895H18.7795C18.7795 41.9459 22.7971 45.9634 27.7534 45.9634V43.9634ZM34.7273 36.9895C34.7273 40.8413 31.6052 43.9634 27.7534 43.9634V45.9634C32.7097 45.9634 36.7273 41.9459 36.7273 36.9895H34.7273ZM27.7534 30.0157C31.6052 30.0157 34.7273 33.1378 34.7273 36.9895H36.7273C36.7273 32.0332 32.7097 28.0157 27.7534 28.0157V30.0157ZM27.351 30.0275C27.4836 30.0196 27.618 30.0157 27.7534 30.0157V28.0157C27.5792 28.0157 27.4055 28.0208 27.233 28.031L27.351 30.0275ZM27.8274 27.1031L26.5917 28.3154L27.9923 29.7431L29.228 28.5308L27.8274 27.1031ZM28.1899 28.7581L28.1914 28.7587L28.864 26.8752L28.8625 26.8746L28.1899 28.7581ZM27.9911 29.7421L29.2265 28.5302L27.8259 27.1025L26.5905 28.3144L27.9911 29.7421ZM20.7981 36.4526C21.0616 32.9855 23.8628 30.2257 27.3479 30.0266L27.2338 28.0299C22.7465 28.2862 19.1431 31.8364 18.8038 36.3011L20.7981 36.4526ZM17.6154 39.9224L20.5013 37.0906L19.1006 35.6631L16.2147 38.4949L17.6154 39.9224ZM15.6918 36.9893C15.6918 37.8173 15.7753 38.6262 15.9353 39.4089L17.8948 39.0084C17.7617 38.3572 17.6918 37.6825 17.6918 36.9893H15.6918ZM18.3305 29.4603C16.6797 31.5234 15.6918 34.1424 15.6918 36.9893H17.6918C17.6918 34.6129 18.5148 32.4312 19.8921 30.7098L18.3305 29.4603ZM16.0285 28.6891L18.448 30.8335L19.7746 29.3367L17.355 27.1923L16.0285 28.6891ZM17.9492 26.5102C17.5205 26.6961 17.0381 26.8515 16.4954 26.9601L16.8881 28.9212C17.5684 28.785 18.1858 28.5875 18.7448 28.3451L17.9492 26.5102ZM15.0117 25.345L17.6191 28.1133L19.0749 26.742L16.4676 23.9738L15.0117 25.345ZM15.0411 23.9438L15.0394 23.9455L16.4399 25.3733L16.4417 25.3716L15.0411 23.9438ZM12.2236 22.3814L15.0135 25.3433L16.4694 23.972L13.6795 21.0101L12.2236 22.3814ZM13.5061 22.5279L13.5064 22.5277L12.3967 20.8638L12.3964 20.864L13.5061 22.5279ZM11.9925 21.4116L11.9924 21.4121L13.9101 21.9799L13.9102 21.9794L11.9925 21.4116ZM12.2227 22.3804L12.2229 22.3806L13.6799 21.0105L13.6797 21.0103L12.2227 22.3804ZM12.4172 20.8498L12.4169 20.85L13.4854 22.5407L13.4857 22.5405L12.4172 20.8498ZM13.4962 16.3296L11.9926 21.4114L13.9104 21.9789L15.414 16.897L13.4962 16.3296ZM21.5507 10.1944L13.8654 15.8057L15.0447 17.4209L22.7301 11.8097L21.5507 10.1944ZM21.1721 10.7525L21.1719 10.753L23.1089 11.251L23.1091 11.2505L21.1721 10.7525ZM23.1265 22.2469C23.1265 22.2469 23.1265 22.2469 23.1265 22.2469C23.1265 22.2469 23.1265 22.2469 23.1265 22.2469C23.1265 22.2469 23.1265 22.2469 23.1265 22.2469C23.1265 22.2469 23.1265 22.2469 23.1265 22.2469C23.1265 22.2469 23.1265 22.2469 23.1265 22.2469C23.1265 22.2469 23.1265 22.2469 23.1265 22.2469C23.1265 22.2469 23.1264 22.2469 23.1264 22.2469C23.1264 22.2469 23.1264 22.2469 23.1264 22.2469C23.1264 22.2469 23.1264 22.2469 23.1264 22.2469C23.1264 22.2469 23.1264 22.2469 23.1264 22.2469C23.1264 22.2469 23.1264 22.2469 23.1264 22.2469C23.1264 22.2469 23.1264 22.2469 23.1264 22.2469C23.1264 22.2469 23.1264 22.2469 23.1264 22.2469C23.1264 22.2469 23.1264 22.2469 23.1264 22.2469C23.1264 22.2469 23.1264 22.2469 23.1264 22.2469C23.1264 22.2469 23.1264 22.2469 23.1264 22.2469C23.1264 22.2469 23.1264 22.2469 23.1264 22.2469C23.1264 22.2469 23.1264 22.2469 23.1264 22.2469C23.1264 22.2469 23.1264 22.2469 23.1264 22.2469C23.1264 22.2469 23.1264 22.2469 23.1264 22.2469C23.1264 22.2469 23.1264 22.2469 23.1264 22.2469C23.1264 22.2469 23.1264 22.2469 23.1264 22.2469C23.1264 22.2469 23.1264 22.2469 23.1264 22.2469C23.1264 22.2469 23.1264 22.2469 23.1264 22.2469C23.1264 22.2469 23.1264 22.2469 23.1264 22.2469C23.1264 22.2469 23.1264 22.2469 23.1264 22.2469C23.1264 22.2469 23.1264 22.2469 23.1264 22.2469C23.1264 22.2469 23.1264 22.2469 23.1264 22.2469C23.1264 22.2469 23.1264 22.2469 23.1264 22.2469C23.1264 22.2468 23.1264 22.2468 23.1264 22.2468C23.1264 22.2468 23.1264 22.2468 23.1264 22.2468C23.1264 22.2468 23.1264 22.2468 23.1264 22.2468C23.1264 22.2468 23.1264 22.2468 23.1263 22.2468C23.1263 22.2468 23.1263 22.2468 23.1263 22.2468C23.1263 22.2468 23.1263 22.2468 23.1263 22.2468C23.1263 22.2468 23.1263 22.2468 23.1263 22.2468C23.1263 22.2468 23.1263 22.2468 23.1263 22.2468C23.1263 22.2468 23.1263 22.2468 23.1263 22.2468C23.1263 22.2468 23.1263 22.2468 23.1263 22.2468C23.1263 22.2468 23.1263 22.2468 23.1263 22.2468C23.1263 22.2468 23.1263 22.2468 23.1263 22.2468C23.1263 22.2468 23.1263 22.2468 23.1263 22.2468C23.1263 22.2468 23.1263 22.2468 23.1263 22.2468C23.1263 22.2468 23.1263 22.2468 23.1263 22.2468C23.1263 22.2468 23.1263 22.2468 23.1263 22.2468C23.1263 22.2468 23.1263 22.2468 23.1263 22.2468C23.1263 22.2468 23.1263 22.2468 23.1263 22.2468C23.1263 22.2468 23.1263 22.2468 23.1263 22.2468C23.1263 22.2468 23.1263 22.2468 23.1263 22.2468C23.1263 22.2468 23.1263 22.2468 23.1263 22.2468C23.1263 22.2468 23.1263 22.2468 23.1263 22.2468C23.1263 22.2468 23.1263 22.2468 23.1263 22.2468C23.1263 22.2468 23.1263 22.2468 23.1263 22.2468C23.1263 22.2468 23.1263 22.2468 23.1263 22.2468C23.1263 22.2468 23.1263 22.2468 23.1263 22.2468C23.1263 22.2468 23.1263 22.2468 23.1263 22.2468C23.1263 22.2468 23.1263 22.2468 23.1263 22.2468C23.1263 22.2468 23.1263 22.2468 23.1263 22.2468C23.1263 22.2468 23.1263 22.2468 23.1263 22.2468C23.1262 22.2468 23.1262 22.2468 23.1262 22.2468C23.1262 22.2468 23.1262 22.2468 23.1262 22.2468C23.1262 22.2468 23.1262 22.2468 23.1262 22.2468C23.1262 22.2468 23.1262 22.2468 23.1262 22.2468C23.1262 22.2468 23.1262 22.2468 23.1262 22.2468C23.1262 22.2468 23.1262 22.2468 23.1262 22.2468C23.1262 22.2468 23.1262 22.2468 23.1262 22.2468C23.1262 22.2468 23.1262 22.2468 23.1262 22.2468C23.1262 22.2468 23.1262 22.2468 23.1262 22.2467C23.1262 22.2467 23.1262 22.2467 23.1262 22.2467C23.1262 22.2467 23.1262 22.2467 23.1262 22.2467C23.1262 22.2467 23.1262 22.2467 23.1262 22.2467C23.1262 22.2467 23.1262 22.2467 23.1262 22.2467C23.1262 22.2467 23.1262 22.2467 23.1262 22.2467C23.1262 22.2467 23.1262 22.2467 23.1262 22.2467C23.1262 22.2467 23.1262 22.2467 23.1262 22.2467C23.1262 22.2467 23.1262 22.2467 23.1262 22.2467C23.1262 22.2467 23.1262 22.2467 23.1262 22.2467C23.1262 22.2467 23.1262 22.2467 23.1262 22.2467C23.1262 22.2467 23.1262 22.2467 23.1262 22.2467C23.1262 22.2467 23.1262 22.2467 23.1262 22.2467C23.1262 22.2467 23.1262 22.2467 23.1262 22.2467C23.1262 22.2467 23.1262 22.2467 23.1262 22.2467C23.1262 22.2467 23.1262 22.2467 23.1262 22.2467C23.1262 22.2467 23.1262 22.2467 23.1262 22.2467C23.1262 22.2467 23.1262 22.2467 23.1262 22.2467C23.1261 22.2467 23.1261 22.2467 23.1261 22.2467C23.1261 22.2467 23.1261 22.2467 23.1261 22.2467C23.1261 22.2467 23.1261 22.2467 23.1261 22.2467C23.1261 22.2467 23.1261 22.2467 23.1261 22.2467C23.1261 22.2467 23.1261 22.2467 23.1261 22.2467C23.1261 22.2467 23.1261 22.2467 23.1261 22.2467C23.1261 22.2467 23.1261 22.2467 23.1261 22.2467C23.1261 22.2467 23.1261 22.2467 23.1261 22.2467C23.1261 22.2467 23.1261 22.2467 23.1261 22.2467C23.1261 22.2467 23.1261 22.2467 23.1261 22.2467C23.1261 22.2467 23.1261 22.2467 23.1261 22.2467C23.1261 22.2467 23.1261 22.2467 23.1261 22.2467C23.1261 22.2467 23.1261 22.2467 23.1261 22.2467C23.1261 22.2467 23.1261 22.2467 23.1261 22.2467C23.1261 22.2467 23.1261 22.2467 23.1261 22.2467C23.1261 22.2467 23.1261 22.2467 23.1261 22.2467C23.1261 22.2467 23.1261 22.2467 23.1261 22.2467C23.1261 22.2467 23.1261 22.2467 23.1261 22.2467C23.1261 22.2467 23.1261 22.2467 23.1261 22.2467C23.1261 22.2467 23.1261 22.2467 23.1261 22.2467C23.1261 22.2467 23.1261 22.2467 23.1261 22.2467C23.1261 22.2467 23.1261 22.2467 23.1261 22.2466C23.1261 22.2466 23.1261 22.2466 23.1261 22.2466C23.1261 22.2466 23.1261 22.2466 23.1261 22.2466C23.1261 22.2466 23.1261 22.2466 23.1261 22.2466C23.1261 22.2466 23.1261 22.2466 23.1261 22.2466C23.126 22.2466 23.126 22.2466 23.126 22.2466C23.126 22.2466 23.126 22.2466 23.126 22.2466C23.126 22.2466 23.126 22.2466 23.126 22.2466C23.126 22.2466 23.126 22.2466 23.126 22.2466C23.126 22.2466 23.126 22.2466 23.126 22.2466C23.126 22.2466 23.126 22.2466 23.126 22.2466C23.126 22.2466 23.126 22.2466 23.126 22.2466C23.126 22.2466 23.126 22.2466 23.126 22.2466C23.126 22.2466 23.126 22.2466 23.126 22.2466C23.126 22.2466 23.126 22.2466 23.126 22.2466C23.126 22.2466 23.126 22.2466 23.126 22.2466C23.126 22.2466 23.126 22.2466 23.126 22.2466C23.126 22.2466 23.126 22.2466 23.126 22.2466C23.126 22.2466 23.126 22.2466 23.126 22.2466C23.126 22.2466 23.126 22.2466 23.126 22.2466C23.126 22.2466 23.126 22.2466 23.126 22.2466C23.126 22.2466 23.126 22.2466 23.126 22.2466C23.126 22.2466 23.126 22.2466 23.126 22.2466C23.126 22.2466 23.126 22.2466 23.126 22.2466C23.126 22.2466 23.126 22.2466 23.126 22.2466C23.126 22.2466 23.126 22.2466 23.126 22.2466C23.126 22.2466 23.126 22.2466 23.126 22.2466C23.126 22.2466 23.126 22.2466 23.126 22.2466C23.126 22.2466 23.126 22.2466 23.126 22.2466C23.126 22.2466 23.126 22.2466 23.126 22.2466C23.126 22.2466 23.126 22.2466 23.126 22.2466C23.126 22.2466 23.1259 22.2466 23.1259 22.2466C23.1259 22.2466 23.1259 22.2466 23.1259 22.2466C23.1259 22.2466 23.1259 22.2466 23.1259 22.2466C23.1259 22.2466 23.1259 22.2466 23.1259 22.2466C23.1259 22.2466 23.1259 22.2466 23.1259 22.2466C23.1259 22.2466 23.1259 22.2466 23.1259 22.2466C23.1259 22.2466 23.1259 22.2466 23.1259 22.2466C23.1259 22.2466 23.1259 22.2466 23.1259 22.2466C23.1259 22.2466 23.1259 22.2466 23.1259 22.2465C23.1259 22.2465 23.1259 22.2465 23.1259 22.2465C23.1259 22.2465 23.1259 22.2465 23.1259 22.2465C23.1259 22.2465 23.1259 22.2465 23.1259 22.2465C23.1259 22.2465 23.1259 22.2465 23.1259 22.2465C23.1259 22.2465 23.1259 22.2465 23.1259 22.2465C23.1259 22.2465 23.1259 22.2465 23.1259 22.2465C23.1259 22.2465 23.1259 22.2465 23.1259 22.2465C23.1259 22.2465 23.1259 22.2465 23.1259 22.2465C23.1259 22.2465 23.1259 22.2465 23.1259 22.2465C23.1259 22.2465 23.1259 22.2465 23.1259 22.2465C23.1259 22.2465 23.1259 22.2465 23.1259 22.2465C23.1259 22.2465 23.1259 22.2465 23.1259 22.2465C23.1259 22.2465 23.1259 22.2465 23.1259 22.2465C23.1259 22.2465 23.1259 22.2465 23.1259 22.2465C23.1259 22.2465 23.1259 22.2465 23.1259 22.2465C23.1259 22.2465 23.1259 22.2465 23.1259 22.2465C23.1259 22.2465 23.1259 22.2465 23.1259 22.2465C23.1259 22.2465 23.1259 22.2465 23.1258 22.2465C23.1258 22.2465 23.1258 22.2465 23.1258 22.2465C23.1258 22.2465 23.1258 22.2465 23.1258 22.2465C23.1258 22.2465 23.1258 22.2465 23.1258 22.2465C23.1258 22.2465 23.1258 22.2465 23.1258 22.2465C23.1258 22.2465 23.1258 22.2465 23.1258 22.2465C23.1258 22.2465 23.1258 22.2465 23.1258 22.2465C23.1258 22.2465 23.1258 22.2465 23.1258 22.2465C23.1258 22.2465 23.1258 22.2465 23.1258 22.2465C23.1258 22.2465 23.1258 22.2465 23.1258 22.2465C23.1258 22.2465 23.1258 22.2465 23.1258 22.2465C23.1258 22.2465 23.1258 22.2465 23.1258 22.2465C23.1258 22.2465 23.1258 22.2465 23.1258 22.2465C23.1258 22.2465 23.1258 22.2465 23.1258 22.2465C23.1258 22.2465 23.1258 22.2465 23.1258 22.2465C23.1258 22.2465 23.1258 22.2465 23.1258 22.2465C23.1258 22.2465 23.1258 22.2465 23.1258 22.2465C23.1258 22.2465 23.1258 22.2465 23.1258 22.2465C23.1258 22.2465 23.1258 22.2465 23.1258 22.2465C23.1258 22.2465 23.1258 22.2465 23.1258 22.2465C23.1258 22.2465 23.1258 22.2465 23.1258 22.2465C23.1258 22.2465 23.1258 22.2465 23.1258 22.2464C23.1258 22.2464 23.1258 22.2464 23.1258 22.2464C23.1258 22.2464 23.1258 22.2464 23.1258 22.2464C23.1258 22.2464 23.1258 22.2464 23.1258 22.2464C23.1258 22.2464 23.1258 22.2464 23.1258 22.2464C23.1258 22.2464 23.1258 22.2464 23.1257 22.2464C23.1257 22.2464 23.1257 22.2464 23.1257 22.2464C23.1257 22.2464 23.1257 22.2464 23.1257 22.2464C23.1257 22.2464 23.1257 22.2464 23.1257 22.2464C23.1257 22.2464 23.1257 22.2464 23.1257 22.2464C23.1257 22.2464 23.1257 22.2464 23.1257 22.2464C23.1257 22.2464 23.1257 22.2464 23.1257 22.2464C23.1257 22.2464 23.1257 22.2464 23.1257 22.2464C23.1257 22.2464 23.1257 22.2464 23.1257 22.2464C23.1257 22.2464 23.1257 22.2464 23.1257 22.2464C23.1257 22.2464 23.1257 22.2464 23.1257 22.2464C23.1257 22.2464 23.1257 22.2464 23.1257 22.2464C23.1257 22.2464 23.1257 22.2464 23.1257 22.2464C23.1257 22.2464 23.1257 22.2464 23.1257 22.2464C23.1257 22.2464 23.1257 22.2464 23.1257 22.2464C23.1257 22.2464 23.1257 22.2464 23.1257 22.2464C23.1257 22.2464 23.1257 22.2464 23.1257 22.2464C23.1257 22.2464 23.1257 22.2464 23.1257 22.2464C23.1257 22.2464 23.1257 22.2464 23.1257 22.2464C23.1257 22.2464 23.1257 22.2464 23.1257 22.2464C23.1257 22.2464 23.1257 22.2464 23.1257 22.2464C23.1257 22.2464 23.1257 22.2464 23.1257 22.2464C23.1257 22.2464 23.1257 22.2464 23.1257 22.2464C23.1257 22.2464 23.1257 22.2464 23.1257 22.2464C23.1257 22.2464 23.1257 22.2464 23.1257 22.2464C23.1257 22.2464 23.1257 22.2464 23.1257 22.2464C23.1257 22.2464 23.1257 22.2464 23.1257 22.2464C23.1256 22.2464 23.1256 22.2464 23.1256 22.2464C23.1256 22.2464 23.1256 22.2464 23.1256 22.2464C23.1256 22.2464 23.1256 22.2464 23.1256 22.2464C23.1256 22.2464 23.1256 22.2464 23.1256 22.2464C23.1256 22.2464 23.1256 22.2464 23.1256 22.2464C23.1256 22.2464 23.1256 22.2464 23.1256 22.2464C23.1256 22.2464 23.1256 22.2464 23.1256 22.2464C23.1256 22.2464 23.1256 22.2464 23.1256 22.2463C23.1256 22.2463 23.1256 22.2463 23.1256 22.2463C23.1256 22.2463 23.1256 22.2463 23.1256 22.2463C23.1256 22.2463 23.1256 22.2463 23.1256 22.2463C23.1256 22.2463 23.1256 22.2463 23.1256 22.2463C23.1256 22.2463 23.1256 22.2463 23.1256 22.2463C23.1256 22.2463 23.1256 22.2463 23.1256 22.2463C23.1256 22.2463 23.1256 22.2463 23.1256 22.2463C23.1256 22.2463 23.1256 22.2463 23.1256 22.2463C23.1256 22.2463 23.1256 22.2463 23.1256 22.2463C23.1256 22.2463 23.1256 22.2463 23.1256 22.2463C23.1256 22.2463 23.1256 22.2463 23.1256 22.2463C23.1256 22.2463 23.1256 22.2463 23.1256 22.2463C23.1256 22.2463 23.1256 22.2463 23.1256 22.2463C23.1256 22.2463 23.1256 22.2463 23.1256 22.2463C23.1256 22.2463 23.1256 22.2463 23.1256 22.2463C23.1256 22.2463 23.1256 22.2463 23.1256 22.2463C23.1256 22.2463 23.1256 22.2463 23.1256 22.2463C23.1256 22.2463 23.1256 22.2463 23.1256 22.2463C23.1256 22.2463 23.1255 22.2463 23.1255 22.2463C23.1255 22.2463 23.1255 22.2463 23.1255 22.2463C23.1255 22.2463 23.1255 22.2463 23.1255 22.2463C23.1255 22.2463 23.1255 22.2463 23.1255 22.2463C23.1255 22.2463 23.1255 22.2463 23.1255 22.2463C23.1255 22.2463 23.1255 22.2463 23.1255 22.2463C23.1255 22.2463 23.1255 22.2463 23.1255 22.2463C23.1255 22.2463 23.1255 22.2463 23.1255 22.2463C23.1255 22.2463 23.1255 22.2463 23.1255 22.2463C23.1255 22.2463 23.1255 22.2463 23.1255 22.2463C23.1255 22.2463 23.1255 22.2463 23.1255 22.2463C23.1255 22.2463 23.1255 22.2463 23.1255 22.2463C23.1255 22.2463 23.1255 22.2463 23.1255 22.2463C23.1255 22.2463 23.1255 22.2463 23.1255 22.2463C23.1255 22.2463 23.1255 22.2463 23.1255 22.2463C23.1255 22.2463 23.1255 22.2463 23.1255 22.2463C23.1255 22.2463 23.1255 22.2463 23.1255 22.2463C23.1255 22.2463 23.1255 22.2463 23.1255 22.2463C23.1255 22.2463 23.1255 22.2463 23.1255 22.2463C23.1255 22.2463 23.1255 22.2463 23.1255 22.2463C23.1255 22.2463 23.1255 22.2462 23.1255 22.2462C23.1255 22.2462 23.1255 22.2462 23.1255 22.2462C23.1255 22.2462 23.1255 22.2462 23.1255 22.2462C23.1255 22.2462 23.1255 22.2462 23.1255 22.2462C23.1255 22.2462 23.1255 22.2462 23.1255 22.2462C23.1255 22.2462 23.1255 22.2462 23.1255 22.2462C23.1255 22.2462 23.1255 22.2462 23.1254 22.2462C23.1254 22.2462 23.1254 22.2462 23.1254 22.2462C23.1254 22.2462 23.1254 22.2462 23.1254 22.2462C23.1254 22.2462 23.1254 22.2462 23.1254 22.2462C23.1254 22.2462 23.1254 22.2462 23.1254 22.2462C23.1254 22.2462 23.1254 22.2462 23.1254 22.2462C23.1254 22.2462 23.1254 22.2462 23.1254 22.2462C23.1254 22.2462 23.1254 22.2462 23.1254 22.2462C23.1254 22.2462 23.1254 22.2462 23.1254 22.2462C23.1254 22.2462 23.1254 22.2462 23.1254 22.2462C23.1254 22.2462 23.1254 22.2462 23.1254 22.2462C23.1254 22.2462 23.1254 22.2462 23.1254 22.2462C23.1254 22.2462 23.1254 22.2462 23.1254 22.2462C23.1254 22.2462 23.1254 22.2462 23.1254 22.2462C23.1254 22.2462 23.1254 22.2462 23.1254 22.2462C23.1254 22.2462 23.1254 22.2462 23.1254 22.2462C23.1254 22.2462 23.1254 22.2462 23.1254 22.2462C23.1254 22.2462 23.1254 22.2462 23.1254 22.2462C23.1254 22.2462 23.1254 22.2462 23.1254 22.2462C23.1254 22.2462 23.1254 22.2462 23.1254 22.2462C23.1254 22.2462 23.1254 22.2462 23.1254 22.2462C23.1254 22.2462 23.1254 22.2462 23.1254 22.2462C23.1254 22.2462 23.1254 22.2462 23.1254 22.2462C23.1254 22.2462 23.1254 22.2462 23.1254 22.2462C23.1254 22.2462 23.1254 22.2462 23.1254 22.2462C23.1254 22.2462 23.1254 22.2462 23.1254 22.2462C23.1254 22.2462 23.1254 22.2462 23.1253 22.2462C23.1253 22.2462 23.1253 22.2462 23.1253 22.2462C23.1253 22.2462 23.1253 22.2462 23.1253 22.2462C23.1253 22.2462 23.1253 22.2462 23.1253 22.2462C23.1253 22.2462 23.1253 22.2462 23.1253 22.2462C23.1253 22.2462 23.1253 22.2462 23.1253 22.2462C23.1253 22.2462 23.1253 22.2462 23.1253 22.2462C23.1253 22.2462 23.1253 22.2461 23.1253 22.2461C23.1253 22.2461 23.1253 22.2461 23.1253 22.2461C23.1253 22.2461 23.1253 22.2461 23.1253 22.2461C23.1253 22.2461 23.1253 22.2461 23.1253 22.2461C23.1253 22.2461 23.1253 22.2461 23.1253 22.2461C23.1253 22.2461 23.1253 22.2461 23.1253 22.2461C23.1253 22.2461 23.1253 22.2461 23.1253 22.2461C23.1253 22.2461 23.1253 22.2461 23.1253 22.2461C23.1253 22.2461 23.1253 22.2461 23.1253 22.2461C23.1253 22.2461 23.1253 22.2461 23.1253 22.2461C23.1253 22.2461 23.1253 22.2461 23.1253 22.2461C23.1253 22.2461 23.1253 22.2461 23.1253 22.2461C23.1253 22.2461 23.1253 22.2461 23.1253 22.2461C23.1253 22.2461 23.1253 22.2461 23.1253 22.2461C23.1253 22.2461 23.1253 22.2461 23.1253 22.2461C23.1253 22.2461 23.1253 22.2461 23.1253 22.2461C23.1253 22.2461 23.1253 22.2461 23.1253 22.2461C23.1253 22.2461 23.1253 22.2461 23.1253 22.2461C23.1253 22.2461 23.1253 22.2461 23.1253 22.2461C23.1253 22.2461 23.1253 22.2461 23.1252 22.2461C23.1252 22.2461 23.1252 22.2461 23.1252 22.2461C23.1252 22.2461 23.1252 22.2461 23.1252 22.2461C23.1252 22.2461 23.1252 22.2461 23.1252 22.2461C23.1252 22.2461 23.1252 22.2461 23.1252 22.2461C23.1252 22.2461 23.1252 22.2461 23.1252 22.2461C23.1252 22.2461 23.1252 22.2461 23.1252 22.2461C23.1252 22.2461 23.1252 22.2461 23.1252 22.2461C23.1252 22.2461 23.1252 22.2461 23.1252 22.2461C23.1252 22.2461 23.1252 22.2461 23.1252 22.2461C23.1252 22.2461 23.1252 22.2461 23.1252 22.2461C23.1252 22.2461 23.1252 22.2461 23.1252 22.2461C23.1252 22.2461 23.1252 22.2461 23.1252 22.2461C23.1252 22.2461 23.1252 22.2461 23.1252 22.2461C23.1252 22.2461 23.1252 22.2461 23.1252 22.2461C23.1252 22.2461 23.1252 22.2461 23.1252 22.2461C23.1252 22.2461 23.1252 22.2461 23.1252 22.2461C23.1252 22.2461 23.1252 22.2461 23.1252 22.2461C23.1252 22.2461 23.1252 22.2461 23.1252 22.2461C23.1252 22.2461 23.1252 22.2461 23.1252 22.2461C23.1252 22.246 23.1252 22.246 23.1252 22.246C23.1252 22.246 23.1252 22.246 23.1252 22.246C23.1252 22.246 23.1252 22.246 23.1252 22.246C23.1252 22.246 23.1252 22.246 23.1252 22.246C23.1252 22.246 23.1252 22.246 23.1252 22.246C23.1252 22.246 23.1252 22.246 23.1252 22.246C23.1252 22.246 23.1252 22.246 23.1252 22.246C23.1251 22.246 23.1251 22.246 23.1251 22.246C23.1251 22.246 23.1251 22.246 23.1251 22.246C23.1251 22.246 23.1251 22.246 23.1251 22.246C23.1251 22.246 23.1251 22.246 23.1251 22.246C23.1251 22.246 23.1251 22.246 23.1251 22.246C23.1251 22.246 23.1251 22.246 23.1251 22.246C23.1251 22.246 23.1251 22.246 23.1251 22.246C23.1251 22.246 23.1251 22.246 23.1251 22.246C23.1251 22.246 23.1251 22.246 23.1251 22.246C23.1251 22.246 23.1251 22.246 23.1251 22.246C23.1251 22.246 23.1251 22.246 23.1251 22.246C23.1251 22.246 23.1251 22.246 23.1251 22.246C23.1251 22.246 23.1251 22.246 23.1251 22.246C23.1251 22.246 23.1251 22.246 23.1251 22.246C23.1251 22.246 23.1251 22.246 23.1251 22.246C23.1251 22.246 23.1251 22.246 23.1251 22.246C23.1251 22.246 23.1251 22.246 23.1251 22.246C23.1251 22.246 23.1251 22.246 23.1251 22.246C23.1251 22.246 23.1251 22.246 23.1251 22.246C23.1251 22.246 23.1251 22.246 23.1251 22.246C23.1251 22.246 23.1251 22.246 23.1251 22.246C23.1251 22.246 23.1251 22.246 23.1251 22.246C23.1251 22.246 23.1251 22.246 23.1251 22.246C23.1251 22.246 23.1251 22.246 23.1251 22.246C23.1251 22.246 23.1251 22.246 23.1251 22.246C23.1251 22.246 23.1251 22.246 23.1251 22.246C23.1251 22.246 23.125 22.246 23.125 22.246C23.125 22.246 23.125 22.246 23.125 22.246C23.125 22.246 23.125 22.246 23.125 22.246C23.125 22.246 23.125 22.246 23.125 22.246C23.125 22.246 23.125 22.246 23.125 22.246C23.125 22.246 23.125 22.246 23.125 22.246C23.125 22.2459 23.125 22.2459 23.125 22.2459C23.125 22.2459 23.125 22.2459 23.125 22.2459C23.125 22.2459 23.125 22.2459 23.125 22.2459C23.125 22.2459 23.125 22.2459 23.125 22.2459C23.125 22.2459 23.125 22.2459 23.125 22.2459C23.125 22.2459 23.125 22.2459 23.125 22.2459C23.125 22.2459 23.125 22.2459 23.125 22.2459C23.125 22.2459 23.125 22.2459 23.125 22.2459C23.125 22.2459 23.125 22.2459 23.125 22.2459C23.125 22.2459 23.125 22.2459 23.125 22.2459C23.125 22.2459 23.125 22.2459 23.125 22.2459C23.125 22.2459 23.125 22.2459 23.125 22.2459C23.125 22.2459 23.125 22.2459 23.125 22.2459C23.125 22.2459 23.125 22.2459 23.125 22.2459C23.125 22.2459 23.125 22.2459 23.125 22.2459C23.125 22.2459 23.125 22.2459 23.125 22.2459C23.125 22.2459 23.125 22.2459 23.125 22.2459C23.125 22.2459 23.125 22.2459 23.125 22.2459C23.125 22.2459 23.125 22.2459 23.125 22.2459C23.125 22.2459 23.125 22.2459 23.125 22.2459C23.125 22.2459 23.1249 22.2459 23.1249 22.2459C23.1249 22.2459 23.1249 22.2459 23.1249 22.2459C23.1249 22.2459 23.1249 22.2459 23.1249 22.2459C23.1249 22.2459 23.1249 22.2459 23.1249 22.2459C23.1249 22.2459 23.1249 22.2459 23.1249 22.2459C23.1249 22.2459 23.1249 22.2459 23.1249 22.2459C23.1249 22.2459 23.1249 22.2459 23.1249 22.2459C23.1249 22.2459 23.1249 22.2459 23.1249 22.2459C23.1249 22.2459 23.1249 22.2459 23.1249 22.2459C23.1249 22.2459 23.1249 22.2459 23.1249 22.2459C23.1249 22.2459 23.1249 22.2459 23.1249 22.2459C23.1249 22.2459 23.1249 22.2459 23.1249 22.2459C23.1249 22.2459 23.1249 22.2459 23.1249 22.2459C23.1249 22.2459 23.1249 22.2459 23.1249 22.2459C23.1249 22.2459 23.1249 22.2459 23.1249 22.2459C23.1249 22.2459 23.1249 22.2459 23.1249 22.2459C23.1249 22.2459 23.1249 22.2459 23.1249 22.2459C23.1249 22.2459 23.1249 22.2459 23.1249 22.2459C23.1249 22.2459 23.1249 22.2459 23.1249 22.2459C23.1249 22.2458 23.1249 22.2458 23.1249 22.2458C23.1249 22.2458 23.1249 22.2458 23.1249 22.2458C23.1249 22.2458 23.1249 22.2458 23.1249 22.2458C23.1249 22.2458 23.1249 22.2458 23.1249 22.2458C23.1249 22.2458 23.1249 22.2458 23.1249 22.2458C23.1249 22.2458 23.1249 22.2458 23.1249 22.2458C23.1249 22.2458 23.1249 22.2458 23.1249 22.2458C23.1249 22.2458 23.1249 22.2458 23.1248 22.2458C23.1248 22.2458 23.1248 22.2458 23.1248 22.2458C23.1248 22.2458 23.1248 22.2458 23.1248 22.2458C23.1248 22.2458 23.1248 22.2458 23.1248 22.2458C23.1248 22.2458 23.1248 22.2458 23.1248 22.2458C23.1248 22.2458 23.1248 22.2458 23.1248 22.2458C23.1248 22.2458 23.1248 22.2458 23.1248 22.2458C23.1248 22.2458 23.1248 22.2458 23.1248 22.2458C23.1248 22.2458 23.1248 22.2458 23.1248 22.2458C23.1248 22.2458 23.1248 22.2458 23.1248 22.2458C23.1248 22.2458 23.1248 22.2458 23.1248 22.2458C23.1248 22.2458 23.1248 22.2458 23.1248 22.2458C23.1248 22.2458 23.1248 22.2458 23.1248 22.2458C23.1248 22.2458 23.1248 22.2458 23.1248 22.2458C23.1248 22.2458 23.1248 22.2458 23.1248 22.2458C23.1248 22.2458 23.1248 22.2458 23.1248 22.2458C23.1248 22.2458 23.1248 22.2458 23.1248 22.2458C23.1248 22.2458 23.1248 22.2458 23.1248 22.2458C23.1248 22.2458 23.1248 22.2458 23.1248 22.2458C23.1248 22.2458 23.1248 22.2458 23.1248 22.2458C23.1248 22.2458 23.1248 22.2458 23.1248 22.2458C23.1248 22.2458 23.1248 22.2458 23.1248 22.2458C23.1248 22.2458 23.1248 22.2458 23.1248 22.2458C23.1248 22.2458 23.1248 22.2458 23.1248 22.2458C23.1248 22.2458 23.1248 22.2458 23.1248 22.2458C23.1248 22.2458 23.1248 22.2458 23.1248 22.2458C23.1248 22.2458 23.1248 22.2458 23.1248 22.2458C23.1247 22.2458 23.1247 22.2458 23.1247 22.2458C23.1247 22.2458 23.1247 22.2458 23.1247 22.2458C23.1247 22.2458 23.1247 22.2458 23.1247 22.2458C23.1247 22.2458 23.1247 22.2458 23.1247 22.2458C23.1247 22.2458 23.1247 22.2458 23.1247 22.2458C23.1247 22.2457 23.1247 22.2457 23.1247 22.2457C23.1247 22.2457 23.1247 22.2457 23.1247 22.2457C23.1247 22.2457 23.1247 22.2457 23.1247 22.2457C23.1247 22.2457 23.1247 22.2457 23.1247 22.2457C23.1247 22.2457 23.1247 22.2457 23.1247 22.2457C23.1247 22.2457 23.1247 22.2457 23.1247 22.2457C23.1247 22.2457 23.1247 22.2457 23.1247 22.2457C23.1247 22.2457 23.1247 22.2457 23.1247 22.2457C23.1247 22.2457 23.1247 22.2457 23.1247 22.2457C23.1247 22.2457 23.1247 22.2457 23.1247 22.2457C23.1247 22.2457 23.1247 22.2457 23.1247 22.2457C23.1247 22.2457 23.1247 22.2457 23.1247 22.2457C23.1247 22.2457 23.1247 22.2457 23.1247 22.2457C23.1247 22.2457 23.1247 22.2457 23.1247 22.2457C23.1247 22.2457 23.1247 22.2457 23.1247 22.2457C23.1247 22.2457 23.1247 22.2457 23.1247 22.2457C23.1247 22.2457 23.1247 22.2457 23.1247 22.2457C23.1247 22.2457 23.1247 22.2457 23.1247 22.2457C23.1247 22.2457 23.1247 22.2457 23.1247 22.2457C23.1247 22.2457 23.1247 22.2457 23.1247 22.2457C23.1247 22.2457 23.1247 22.2457 23.1247 22.2457C23.1247 22.2457 23.1246 22.2457 23.1246 22.2457C23.1246 22.2457 23.1246 22.2457 23.1246 22.2457C23.1246 22.2457 23.1246 22.2457 23.1246 22.2457C23.1246 22.2457 23.1246 22.2457 23.1246 22.2457C23.1246 22.2457 23.1246 22.2457 23.1246 22.2457C23.1246 22.2457 23.1246 22.2457 23.1246 22.2457C23.1246 22.2457 23.1246 22.2457 23.1246 22.2457C23.1246 22.2457 23.1246 22.2457 23.1246 22.2457C23.1246 22.2457 23.1246 22.2457 23.1246 22.2457C23.1246 22.2457 23.1246 22.2457 23.1246 22.2457C23.1246 22.2457 23.1246 22.2457 23.1246 22.2457C23.1246 22.2457 23.1246 22.2457 23.1246 22.2457C23.1246 22.2457 23.1246 22.2457 23.1246 22.2457C23.1246 22.2457 23.1246 22.2457 23.1246 22.2457C23.1246 22.2457 23.1246 22.2457 23.1246 22.2457C23.1246 22.2457 23.1246 22.2457 23.1246 22.2457C23.1246 22.2457 23.1246 22.2457 23.1246 22.2457C23.1246 22.2457 23.1246 22.2457 23.1246 22.2457C23.1246 22.2456 23.1246 22.2456 23.1246 22.2456C23.1246 22.2456 23.1246 22.2456 23.1246 22.2456C23.1246 22.2456 23.1246 22.2456 23.1246 22.2456C23.1246 22.2456 23.1246 22.2456 23.1246 22.2456C23.1246 22.2456 23.1246 22.2456 23.1246 22.2456C23.1246 22.2456 23.1246 22.2456 23.1246 22.2456C23.1246 22.2456 23.1246 22.2456 23.1246 22.2456C23.1246 22.2456 23.1246 22.2456 23.1246 22.2456C23.1246 22.2456 23.1245 22.2456 23.1245 22.2456C23.1245 22.2456 23.1245 22.2456 23.1245 22.2456C23.1245 22.2456 23.1245 22.2456 23.1245 22.2456C23.1245 22.2456 23.1245 22.2456 23.1245 22.2456C23.1245 22.2456 23.1245 22.2456 23.1245 22.2456C23.1245 22.2456 23.1245 22.2456 23.1245 22.2456C23.1245 22.2456 23.1245 22.2456 23.1245 22.2456C23.1245 22.2456 23.1245 22.2456 23.1245 22.2456L22.0073 23.9045C22.0073 23.9045 22.0073 23.9045 22.0073 23.9045C22.0073 23.9045 22.0073 23.9045 22.0073 23.9045C22.0073 23.9045 22.0073 23.9045 22.0073 23.9045C22.0073 23.9045 22.0073 23.9045 22.0073 23.9045C22.0073 23.9045 22.0073 23.9045 22.0073 23.9045C22.0073 23.9045 22.0073 23.9045 22.0073 23.9045C22.0073 23.9045 22.0073 23.9045 22.0073 23.9045C22.0073 23.9045 22.0073 23.9045 22.0073 23.9045C22.0073 23.9045 22.0073 23.9045 22.0073 23.9045C22.0073 23.9045 22.0073 23.9045 22.0073 23.9045C22.0073 23.9045 22.0073 23.9045 22.0073 23.9045C22.0073 23.9045 22.0073 23.9045 22.0073 23.9045C22.0073 23.9045 22.0073 23.9045 22.0073 23.9045C22.0073 23.9045 22.0073 23.9045 22.0073 23.9045C22.0073 23.9045 22.0073 23.9045 22.0073 23.9045C22.0073 23.9045 22.0073 23.9045 22.0073 23.9045C22.0073 23.9045 22.0073 23.9045 22.0074 23.9045C22.0074 23.9045 22.0074 23.9045 22.0074 23.9045C22.0074 23.9045 22.0074 23.9045 22.0074 23.9045C22.0074 23.9045 22.0074 23.9045 22.0074 23.9045C22.0074 23.9045 22.0074 23.9045 22.0074 23.9045C22.0074 23.9045 22.0074 23.9045 22.0074 23.9045C22.0074 23.9045 22.0074 23.9045 22.0074 23.9045C22.0074 23.9045 22.0074 23.9045 22.0074 23.9045C22.0074 23.9045 22.0074 23.9045 22.0074 23.9045C22.0074 23.9045 22.0074 23.9045 22.0074 23.9045C22.0074 23.9045 22.0074 23.9045 22.0074 23.9045C22.0074 23.9045 22.0074 23.9045 22.0074 23.9045C22.0074 23.9045 22.0074 23.9045 22.0074 23.9045C22.0074 23.9045 22.0074 23.9045 22.0074 23.9045C22.0074 23.9045 22.0074 23.9045 22.0074 23.9045C22.0074 23.9045 22.0074 23.9045 22.0074 23.9045C22.0074 23.9045 22.0074 23.9045 22.0074 23.9045C22.0074 23.9045 22.0074 23.9045 22.0074 23.9045C22.0074 23.9045 22.0074 23.9045 22.0074 23.9045C22.0074 23.9046 22.0074 23.9046 22.0074 23.9046C22.0074 23.9046 22.0074 23.9046 22.0074 23.9046C22.0074 23.9046 22.0074 23.9046 22.0074 23.9046C22.0074 23.9046 22.0074 23.9046 22.0074 23.9046C22.0074 23.9046 22.0074 23.9046 22.0074 23.9046C22.0074 23.9046 22.0074 23.9046 22.0074 23.9046C22.0074 23.9046 22.0074 23.9046 22.0074 23.9046C22.0074 23.9046 22.0074 23.9046 22.0075 23.9046C22.0075 23.9046 22.0075 23.9046 22.0075 23.9046C22.0075 23.9046 22.0075 23.9046 22.0075 23.9046C22.0075 23.9046 22.0075 23.9046 22.0075 23.9046C22.0075 23.9046 22.0075 23.9046 22.0075 23.9046C22.0075 23.9046 22.0075 23.9046 22.0075 23.9046C22.0075 23.9046 22.0075 23.9046 22.0075 23.9046C22.0075 23.9046 22.0075 23.9046 22.0075 23.9046C22.0075 23.9046 22.0075 23.9046 22.0075 23.9046C22.0075 23.9046 22.0075 23.9046 22.0075 23.9046C22.0075 23.9046 22.0075 23.9046 22.0075 23.9046C22.0075 23.9046 22.0075 23.9046 22.0075 23.9046C22.0075 23.9046 22.0075 23.9046 22.0075 23.9046C22.0075 23.9046 22.0075 23.9046 22.0075 23.9046C22.0075 23.9046 22.0075 23.9046 22.0075 23.9046C22.0075 23.9046 22.0075 23.9046 22.0075 23.9046C22.0075 23.9046 22.0075 23.9046 22.0075 23.9046C22.0075 23.9046 22.0075 23.9046 22.0075 23.9046C22.0075 23.9046 22.0075 23.9046 22.0075 23.9046C22.0075 23.9046 22.0075 23.9046 22.0075 23.9046C22.0075 23.9046 22.0075 23.9046 22.0075 23.9046C22.0075 23.9046 22.0075 23.9046 22.0075 23.9046C22.0075 23.9046 22.0075 23.9046 22.0075 23.9046C22.0075 23.9046 22.0075 23.9046 22.0075 23.9046C22.0075 23.9046 22.0075 23.9046 22.0075 23.9046C22.0075 23.9046 22.0075 23.9046 22.0075 23.9046C22.0075 23.9046 22.0075 23.9046 22.0075 23.9046C22.0076 23.9046 22.0076 23.9046 22.0076 23.9046C22.0076 23.9046 22.0076 23.9046 22.0076 23.9046C22.0076 23.9046 22.0076 23.9046 22.0076 23.9046C22.0076 23.9046 22.0076 23.9046 22.0076 23.9046C22.0076 23.9046 22.0076 23.9046 22.0076 23.9046C22.0076 23.9047 22.0076 23.9047 22.0076 23.9047C22.0076 23.9047 22.0076 23.9047 22.0076 23.9047C22.0076 23.9047 22.0076 23.9047 22.0076 23.9047C22.0076 23.9047 22.0076 23.9047 22.0076 23.9047C22.0076 23.9047 22.0076 23.9047 22.0076 23.9047C22.0076 23.9047 22.0076 23.9047 22.0076 23.9047C22.0076 23.9047 22.0076 23.9047 22.0076 23.9047C22.0076 23.9047 22.0076 23.9047 22.0076 23.9047C22.0076 23.9047 22.0076 23.9047 22.0076 23.9047C22.0076 23.9047 22.0076 23.9047 22.0076 23.9047C22.0076 23.9047 22.0076 23.9047 22.0076 23.9047C22.0076 23.9047 22.0076 23.9047 22.0076 23.9047C22.0076 23.9047 22.0076 23.9047 22.0076 23.9047C22.0076 23.9047 22.0076 23.9047 22.0076 23.9047C22.0076 23.9047 22.0076 23.9047 22.0076 23.9047C22.0076 23.9047 22.0076 23.9047 22.0076 23.9047C22.0076 23.9047 22.0076 23.9047 22.0076 23.9047C22.0076 23.9047 22.0076 23.9047 22.0076 23.9047C22.0076 23.9047 22.0076 23.9047 22.0076 23.9047C22.0076 23.9047 22.0076 23.9047 22.0076 23.9047C22.0076 23.9047 22.0076 23.9047 22.0076 23.9047C22.0077 23.9047 22.0077 23.9047 22.0077 23.9047C22.0077 23.9047 22.0077 23.9047 22.0077 23.9047C22.0077 23.9047 22.0077 23.9047 22.0077 23.9047C22.0077 23.9047 22.0077 23.9047 22.0077 23.9047C22.0077 23.9047 22.0077 23.9047 22.0077 23.9047C22.0077 23.9047 22.0077 23.9047 22.0077 23.9047C22.0077 23.9047 22.0077 23.9047 22.0077 23.9047C22.0077 23.9047 22.0077 23.9047 22.0077 23.9047C22.0077 23.9047 22.0077 23.9047 22.0077 23.9047C22.0077 23.9047 22.0077 23.9047 22.0077 23.9047C22.0077 23.9047 22.0077 23.9047 22.0077 23.9047C22.0077 23.9047 22.0077 23.9047 22.0077 23.9047C22.0077 23.9047 22.0077 23.9047 22.0077 23.9047C22.0077 23.9047 22.0077 23.9047 22.0077 23.9047C22.0077 23.9047 22.0077 23.9047 22.0077 23.9047C22.0077 23.9047 22.0077 23.9047 22.0077 23.9047C22.0077 23.9047 22.0077 23.9047 22.0077 23.9047C22.0077 23.9047 22.0077 23.9047 22.0077 23.9047C22.0077 23.9048 22.0077 23.9048 22.0077 23.9048C22.0077 23.9048 22.0077 23.9048 22.0077 23.9048C22.0077 23.9048 22.0077 23.9048 22.0077 23.9048C22.0077 23.9048 22.0077 23.9048 22.0077 23.9048C22.0077 23.9048 22.0077 23.9048 22.0077 23.9048C22.0077 23.9048 22.0077 23.9048 22.0077 23.9048C22.0077 23.9048 22.0077 23.9048 22.0077 23.9048C22.0077 23.9048 22.0077 23.9048 22.0077 23.9048C22.0077 23.9048 22.0078 23.9048 22.0078 23.9048C22.0078 23.9048 22.0078 23.9048 22.0078 23.9048C22.0078 23.9048 22.0078 23.9048 22.0078 23.9048C22.0078 23.9048 22.0078 23.9048 22.0078 23.9048C22.0078 23.9048 22.0078 23.9048 22.0078 23.9048C22.0078 23.9048 22.0078 23.9048 22.0078 23.9048C22.0078 23.9048 22.0078 23.9048 22.0078 23.9048C22.0078 23.9048 22.0078 23.9048 22.0078 23.9048C22.0078 23.9048 22.0078 23.9048 22.0078 23.9048C22.0078 23.9048 22.0078 23.9048 22.0078 23.9048C22.0078 23.9048 22.0078 23.9048 22.0078 23.9048C22.0078 23.9048 22.0078 23.9048 22.0078 23.9048C22.0078 23.9048 22.0078 23.9048 22.0078 23.9048C22.0078 23.9048 22.0078 23.9048 22.0078 23.9048C22.0078 23.9048 22.0078 23.9048 22.0078 23.9048C22.0078 23.9048 22.0078 23.9048 22.0078 23.9048C22.0078 23.9048 22.0078 23.9048 22.0078 23.9048C22.0078 23.9048 22.0078 23.9048 22.0078 23.9048C22.0078 23.9048 22.0078 23.9048 22.0078 23.9048C22.0078 23.9048 22.0078 23.9048 22.0078 23.9048C22.0078 23.9048 22.0078 23.9048 22.0078 23.9048C22.0078 23.9048 22.0078 23.9048 22.0078 23.9048C22.0078 23.9048 22.0078 23.9048 22.0078 23.9048C22.0078 23.9048 22.0078 23.9048 22.0078 23.9048C22.0078 23.9048 22.0078 23.9048 22.0078 23.9048C22.0078 23.9048 22.0078 23.9048 22.0078 23.9048C22.0078 23.9048 22.0078 23.9048 22.0079 23.9048C22.0079 23.9048 22.0079 23.9048 22.0079 23.9048C22.0079 23.9048 22.0079 23.9048 22.0079 23.9048C22.0079 23.9048 22.0079 23.9048 22.0079 23.9048C22.0079 23.9048 22.0079 23.9048 22.0079 23.9049C22.0079 23.9049 22.0079 23.9049 22.0079 23.9049C22.0079 23.9049 22.0079 23.9049 22.0079 23.9049C22.0079 23.9049 22.0079 23.9049 22.0079 23.9049C22.0079 23.9049 22.0079 23.9049 22.0079 23.9049C22.0079 23.9049 22.0079 23.9049 22.0079 23.9049C22.0079 23.9049 22.0079 23.9049 22.0079 23.9049C22.0079 23.9049 22.0079 23.9049 22.0079 23.9049C22.0079 23.9049 22.0079 23.9049 22.0079 23.9049C22.0079 23.9049 22.0079 23.9049 22.0079 23.9049C22.0079 23.9049 22.0079 23.9049 22.0079 23.9049C22.0079 23.9049 22.0079 23.9049 22.0079 23.9049C22.0079 23.9049 22.0079 23.9049 22.0079 23.9049C22.0079 23.9049 22.0079 23.9049 22.0079 23.9049C22.0079 23.9049 22.0079 23.9049 22.0079 23.9049C22.0079 23.9049 22.0079 23.9049 22.0079 23.9049C22.0079 23.9049 22.0079 23.9049 22.0079 23.9049C22.0079 23.9049 22.0079 23.9049 22.0079 23.9049C22.0079 23.9049 22.0079 23.9049 22.0079 23.9049C22.0079 23.9049 22.0079 23.9049 22.0079 23.9049C22.0079 23.9049 22.0079 23.9049 22.0079 23.9049C22.0079 23.9049 22.0079 23.9049 22.0079 23.9049C22.0079 23.9049 22.0079 23.9049 22.008 23.9049C22.008 23.9049 22.008 23.9049 22.008 23.9049C22.008 23.9049 22.008 23.9049 22.008 23.9049C22.008 23.9049 22.008 23.9049 22.008 23.9049C22.008 23.9049 22.008 23.9049 22.008 23.9049C22.008 23.9049 22.008 23.9049 22.008 23.9049C22.008 23.9049 22.008 23.9049 22.008 23.9049C22.008 23.9049 22.008 23.9049 22.008 23.9049C22.008 23.9049 22.008 23.9049 22.008 23.9049C22.008 23.9049 22.008 23.9049 22.008 23.9049C22.008 23.9049 22.008 23.9049 22.008 23.9049C22.008 23.9049 22.008 23.9049 22.008 23.9049C22.008 23.9049 22.008 23.9049 22.008 23.9049C22.008 23.9049 22.008 23.9049 22.008 23.9049C22.008 23.9049 22.008 23.9049 22.008 23.9049C22.008 23.9049 22.008 23.9049 22.008 23.9049C22.008 23.9049 22.008 23.9049 22.008 23.9049C22.008 23.9049 22.008 23.905 22.008 23.905C22.008 23.905 22.008 23.905 22.008 23.905C22.008 23.905 22.008 23.905 22.008 23.905C22.008 23.905 22.008 23.905 22.008 23.905C22.008 23.905 22.008 23.905 22.008 23.905C22.008 23.905 22.008 23.905 22.008 23.905C22.008 23.905 22.008 23.905 22.008 23.905C22.008 23.905 22.008 23.905 22.008 23.905C22.008 23.905 22.008 23.905 22.008 23.905C22.008 23.905 22.008 23.905 22.008 23.905C22.0081 23.905 22.0081 23.905 22.0081 23.905C22.0081 23.905 22.0081 23.905 22.0081 23.905C22.0081 23.905 22.0081 23.905 22.0081 23.905C22.0081 23.905 22.0081 23.905 22.0081 23.905C22.0081 23.905 22.0081 23.905 22.0081 23.905C22.0081 23.905 22.0081 23.905 22.0081 23.905C22.0081 23.905 22.0081 23.905 22.0081 23.905C22.0081 23.905 22.0081 23.905 22.0081 23.905C22.0081 23.905 22.0081 23.905 22.0081 23.905C22.0081 23.905 22.0081 23.905 22.0081 23.905C22.0081 23.905 22.0081 23.905 22.0081 23.905C22.0081 23.905 22.0081 23.905 22.0081 23.905C22.0081 23.905 22.0081 23.905 22.0081 23.905C22.0081 23.905 22.0081 23.905 22.0081 23.905C22.0081 23.905 22.0081 23.905 22.0081 23.905C22.0081 23.905 22.0081 23.905 22.0081 23.905C22.0081 23.905 22.0081 23.905 22.0081 23.905C22.0081 23.905 22.0081 23.905 22.0081 23.905C22.0081 23.905 22.0081 23.905 22.0081 23.905C22.0081 23.905 22.0081 23.905 22.0081 23.905C22.0081 23.905 22.0081 23.905 22.0081 23.905C22.0081 23.905 22.0081 23.905 22.0081 23.905C22.0081 23.905 22.0081 23.905 22.0081 23.905C22.0081 23.905 22.0081 23.905 22.0081 23.905C22.0081 23.905 22.0081 23.905 22.0081 23.905C22.0081 23.905 22.0081 23.905 22.0081 23.905C22.0082 23.905 22.0082 23.905 22.0082 23.905C22.0082 23.905 22.0082 23.905 22.0082 23.905C22.0082 23.905 22.0082 23.905 22.0082 23.905C22.0082 23.905 22.0082 23.9051 22.0082 23.9051C22.0082 23.9051 22.0082 23.9051 22.0082 23.9051C22.0082 23.9051 22.0082 23.9051 22.0082 23.9051C22.0082 23.9051 22.0082 23.9051 22.0082 23.9051C22.0082 23.9051 22.0082 23.9051 22.0082 23.9051C22.0082 23.9051 22.0082 23.9051 22.0082 23.9051C22.0082 23.9051 22.0082 23.9051 22.0082 23.9051C22.0082 23.9051 22.0082 23.9051 22.0082 23.9051C22.0082 23.9051 22.0082 23.9051 22.0082 23.9051C22.0082 23.9051 22.0082 23.9051 22.0082 23.9051C22.0082 23.9051 22.0082 23.9051 22.0082 23.9051C22.0082 23.9051 22.0082 23.9051 22.0082 23.9051C22.0082 23.9051 22.0082 23.9051 22.0082 23.9051C22.0082 23.9051 22.0082 23.9051 22.0082 23.9051C22.0082 23.9051 22.0082 23.9051 22.0082 23.9051C22.0082 23.9051 22.0082 23.9051 22.0082 23.9051C22.0082 23.9051 22.0082 23.9051 22.0082 23.9051C22.0082 23.9051 22.0082 23.9051 22.0082 23.9051C22.0082 23.9051 22.0082 23.9051 22.0082 23.9051C22.0082 23.9051 22.0082 23.9051 22.0082 23.9051C22.0082 23.9051 22.0082 23.9051 22.0082 23.9051C22.0082 23.9051 22.0082 23.9051 22.0082 23.9051C22.0082 23.9051 22.0082 23.9051 22.0082 23.9051C22.0082 23.9051 22.0083 23.9051 22.0083 23.9051C22.0083 23.9051 22.0083 23.9051 22.0083 23.9051C22.0083 23.9051 22.0083 23.9051 22.0083 23.9051C22.0083 23.9051 22.0083 23.9051 22.0083 23.9051C22.0083 23.9051 22.0083 23.9051 22.0083 23.9051C22.0083 23.9051 22.0083 23.9051 22.0083 23.9051C22.0083 23.9051 22.0083 23.9051 22.0083 23.9051C22.0083 23.9051 22.0083 23.9051 22.0083 23.9051C22.0083 23.9051 22.0083 23.9051 22.0083 23.9051C22.0083 23.9051 22.0083 23.9051 22.0083 23.9051C22.0083 23.9051 22.0083 23.9051 22.0083 23.9051C22.0083 23.9051 22.0083 23.9051 22.0083 23.9051C22.0083 23.9051 22.0083 23.9051 22.0083 23.9051C22.0083 23.9051 22.0083 23.9051 22.0083 23.9051C22.0083 23.9051 22.0083 23.9051 22.0083 23.9051C22.0083 23.9051 22.0083 23.9051 22.0083 23.9051C22.0083 23.9051 22.0083 23.9052 22.0083 23.9052C22.0083 23.9052 22.0083 23.9052 22.0083 23.9052C22.0083 23.9052 22.0083 23.9052 22.0083 23.9052C22.0083 23.9052 22.0083 23.9052 22.0083 23.9052C22.0083 23.9052 22.0083 23.9052 22.0083 23.9052C22.0083 23.9052 22.0083 23.9052 22.0083 23.9052C22.0083 23.9052 22.0083 23.9052 22.0083 23.9052C22.0083 23.9052 22.0083 23.9052 22.0083 23.9052C22.0083 23.9052 22.0083 23.9052 22.0083 23.9052C22.0083 23.9052 22.0083 23.9052 22.0083 23.9052C22.0083 23.9052 22.0083 23.9052 22.0084 23.9052C22.0084 23.9052 22.0084 23.9052 22.0084 23.9052C22.0084 23.9052 22.0084 23.9052 22.0084 23.9052C22.0084 23.9052 22.0084 23.9052 22.0084 23.9052C22.0084 23.9052 22.0084 23.9052 22.0084 23.9052C22.0084 23.9052 22.0084 23.9052 22.0084 23.9052C22.0084 23.9052 22.0084 23.9052 22.0084 23.9052C22.0084 23.9052 22.0084 23.9052 22.0084 23.9052C22.0084 23.9052 22.0084 23.9052 22.0084 23.9052C22.0084 23.9052 22.0084 23.9052 22.0084 23.9052C22.0084 23.9052 22.0084 23.9052 22.0084 23.9052C22.0084 23.9052 22.0084 23.9052 22.0084 23.9052C22.0084 23.9052 22.0084 23.9052 22.0084 23.9052C22.0084 23.9052 22.0084 23.9052 22.0084 23.9052C22.0084 23.9052 22.0084 23.9052 22.0084 23.9052C22.0084 23.9052 22.0084 23.9052 22.0084 23.9052C22.0084 23.9052 22.0084 23.9052 22.0084 23.9052C22.0084 23.9052 22.0084 23.9052 22.0084 23.9052C22.0084 23.9052 22.0084 23.9052 22.0084 23.9052C22.0084 23.9052 22.0084 23.9052 22.0084 23.9052C22.0084 23.9052 22.0084 23.9052 22.0084 23.9052C22.0084 23.9052 22.0084 23.9052 22.0084 23.9052C22.0084 23.9052 22.0084 23.9052 22.0084 23.9052C22.0084 23.9052 22.0084 23.9052 22.0084 23.9052C22.0084 23.9052 22.0084 23.9052 22.0084 23.9052C22.0084 23.9052 22.0084 23.9052 22.0084 23.9052C22.0084 23.9052 22.0084 23.9052 22.0085 23.9052C22.0085 23.9052 22.0085 23.9052 22.0085 23.9052C22.0085 23.9052 22.0085 23.9052 22.0085 23.9052C22.0085 23.9052 22.0085 23.9053 22.0085 23.9053C22.0085 23.9053 22.0085 23.9053 22.0085 23.9053C22.0085 23.9053 22.0085 23.9053 22.0085 23.9053C22.0085 23.9053 22.0085 23.9053 22.0085 23.9053C22.0085 23.9053 22.0085 23.9053 22.0085 23.9053C22.0085 23.9053 22.0085 23.9053 22.0085 23.9053C22.0085 23.9053 22.0085 23.9053 22.0085 23.9053C22.0085 23.9053 22.0085 23.9053 22.0085 23.9053C22.0085 23.9053 22.0085 23.9053 22.0085 23.9053C22.0085 23.9053 22.0085 23.9053 22.0085 23.9053C22.0085 23.9053 22.0085 23.9053 22.0085 23.9053C22.0085 23.9053 22.0085 23.9053 22.0085 23.9053C22.0085 23.9053 22.0085 23.9053 22.0085 23.9053C22.0085 23.9053 22.0085 23.9053 22.0085 23.9053C22.0085 23.9053 22.0085 23.9053 22.0085 23.9053C22.0085 23.9053 22.0085 23.9053 22.0085 23.9053C22.0085 23.9053 22.0085 23.9053 22.0085 23.9053C22.0085 23.9053 22.0085 23.9053 22.0085 23.9053C22.0085 23.9053 22.0085 23.9053 22.0085 23.9053C22.0085 23.9053 22.0085 23.9053 22.0085 23.9053C22.0085 23.9053 22.0085 23.9053 22.0085 23.9053C22.0085 23.9053 22.0085 23.9053 22.0085 23.9053C22.0085 23.9053 22.0085 23.9053 22.0085 23.9053C22.0085 23.9053 22.0085 23.9053 22.0085 23.9053C22.0086 23.9053 22.0086 23.9053 22.0086 23.9053C22.0086 23.9053 22.0086 23.9053 22.0086 23.9053C22.0086 23.9053 22.0086 23.9053 22.0086 23.9053C22.0086 23.9053 22.0086 23.9053 22.0086 23.9053C22.0086 23.9053 22.0086 23.9053 22.0086 23.9053C22.0086 23.9053 22.0086 23.9053 22.0086 23.9053C22.0086 23.9053 22.0086 23.9053 22.0086 23.9053C22.0086 23.9053 22.0086 23.9053 22.0086 23.9053C22.0086 23.9053 22.0086 23.9053 22.0086 23.9053C22.0086 23.9053 22.0086 23.9053 22.0086 23.9053C22.0086 23.9053 22.0086 23.9053 22.0086 23.9053C22.0086 23.9053 22.0086 23.9053 22.0086 23.9053C22.0086 23.9053 22.0086 23.9053 22.0086 23.9053C22.0086 23.9053 22.0086 23.9053 22.0086 23.9053C22.0086 23.9053 22.0086 23.9053 22.0086 23.9053C22.0086 23.9053 22.0086 23.9054 22.0086 23.9054C22.0086 23.9054 22.0086 23.9054 22.0086 23.9054C22.0086 23.9054 22.0086 23.9054 22.0086 23.9054C22.0086 23.9054 22.0086 23.9054 22.0086 23.9054C22.0086 23.9054 22.0086 23.9054 22.0086 23.9054C22.0086 23.9054 22.0086 23.9054 22.0086 23.9054C22.0086 23.9054 22.0086 23.9054 22.0086 23.9054C22.0086 23.9054 22.0086 23.9054 22.0086 23.9054C22.0086 23.9054 22.0086 23.9054 22.0086 23.9054C22.0086 23.9054 22.0086 23.9054 22.0086 23.9054C22.0086 23.9054 22.0086 23.9054 22.0086 23.9054C22.0086 23.9054 22.0087 23.9054 22.0087 23.9054C22.0087 23.9054 22.0087 23.9054 22.0087 23.9054C22.0087 23.9054 22.0087 23.9054 22.0087 23.9054C22.0087 23.9054 22.0087 23.9054 22.0087 23.9054C22.0087 23.9054 22.0087 23.9054 22.0087 23.9054C22.0087 23.9054 22.0087 23.9054 22.0087 23.9054C22.0087 23.9054 22.0087 23.9054 22.0087 23.9054C22.0087 23.9054 22.0087 23.9054 22.0087 23.9054C22.0087 23.9054 22.0087 23.9054 22.0087 23.9054C22.0087 23.9054 22.0087 23.9054 22.0087 23.9054C22.0087 23.9054 22.0087 23.9054 22.0087 23.9054C22.0087 23.9054 22.0087 23.9054 22.0087 23.9054C22.0087 23.9054 22.0087 23.9054 22.0087 23.9054C22.0087 23.9054 22.0087 23.9054 22.0087 23.9054C22.0087 23.9054 22.0087 23.9054 22.0087 23.9054C22.0087 23.9054 22.0087 23.9054 22.0087 23.9054C22.0087 23.9054 22.0087 23.9054 22.0087 23.9054C22.0087 23.9054 22.0087 23.9054 22.0087 23.9054C22.0087 23.9054 22.0087 23.9054 22.0087 23.9054C22.0087 23.9054 22.0087 23.9054 22.0087 23.9054C22.0087 23.9054 22.0087 23.9054 22.0087 23.9054C22.0087 23.9054 22.0087 23.9054 22.0087 23.9054C22.0087 23.9054 22.0087 23.9054 22.0087 23.9054C22.0087 23.9054 22.0087 23.9054 22.0087 23.9054C22.0087 23.9054 22.0087 23.9054 22.0087 23.9054C22.0087 23.9054 22.0087 23.9054 22.0087 23.9054C22.0087 23.9054 22.0088 23.9054 22.0088 23.9054C22.0088 23.9054 22.0088 23.9054 22.0088 23.9054C22.0088 23.9054 22.0088 23.9055 22.0088 23.9055C22.0088 23.9055 22.0088 23.9055 22.0088 23.9055C22.0088 23.9055 22.0088 23.9055 22.0088 23.9055C22.0088 23.9055 22.0088 23.9055 22.0088 23.9055C22.0088 23.9055 22.0088 23.9055 22.0088 23.9055C22.0088 23.9055 22.0088 23.9055 22.0088 23.9055C22.0088 23.9055 22.0088 23.9055 22.0088 23.9055C22.0088 23.9055 22.0088 23.9055 22.0088 23.9055C22.0088 23.9055 22.0088 23.9055 22.0088 23.9055C22.0088 23.9055 22.0088 23.9055 22.0088 23.9055C22.0088 23.9055 22.0088 23.9055 22.0088 23.9055C22.0088 23.9055 22.0088 23.9055 22.0088 23.9055C22.0088 23.9055 22.0088 23.9055 22.0088 23.9055C22.0088 23.9055 22.0088 23.9055 22.0088 23.9055C22.0088 23.9055 22.0088 23.9055 22.0088 23.9055C22.0088 23.9055 22.0088 23.9055 22.0088 23.9055C22.0088 23.9055 22.0088 23.9055 22.0088 23.9055C22.0088 23.9055 22.0088 23.9055 22.0088 23.9055C22.0088 23.9055 22.0088 23.9055 22.0088 23.9055C22.0088 23.9055 22.0088 23.9055 22.0088 23.9055C22.0088 23.9055 22.0088 23.9055 22.0088 23.9055C22.0088 23.9055 22.0088 23.9055 22.0088 23.9055C22.0088 23.9055 22.0088 23.9055 22.0088 23.9055C22.0088 23.9055 22.0088 23.9055 22.0088 23.9055C22.0088 23.9055 22.0089 23.9055 22.0089 23.9055C22.0089 23.9055 22.0089 23.9055 22.0089 23.9055C22.0089 23.9055 22.0089 23.9055 22.0089 23.9055C22.0089 23.9055 22.0089 23.9055 22.0089 23.9055C22.0089 23.9055 22.0089 23.9055 22.0089 23.9055C22.0089 23.9055 22.0089 23.9055 22.0089 23.9055C22.0089 23.9055 22.0089 23.9055 22.0089 23.9055C22.0089 23.9055 22.0089 23.9055 22.0089 23.9055C22.0089 23.9055 22.0089 23.9055 22.0089 23.9055C22.0089 23.9055 22.0089 23.9055 22.0089 23.9055C22.0089 23.9055 22.0089 23.9055 22.0089 23.9055C22.0089 23.9055 22.0089 23.9055 22.0089 23.9055C22.0089 23.9055 22.0089 23.9055 22.0089 23.9055C22.0089 23.9055 22.0089 23.9055 22.0089 23.9055C22.0089 23.9055 22.0089 23.9055 22.0089 23.9055C22.0089 23.9056 22.0089 23.9056 22.0089 23.9056C22.0089 23.9056 22.0089 23.9056 22.0089 23.9056C22.0089 23.9056 22.0089 23.9056 22.0089 23.9056C22.0089 23.9056 22.0089 23.9056 22.0089 23.9056C22.0089 23.9056 22.0089 23.9056 22.0089 23.9056C22.0089 23.9056 22.0089 23.9056 22.0089 23.9056C22.0089 23.9056 22.0089 23.9056 22.0089 23.9056C22.0089 23.9056 22.0089 23.9056 22.0089 23.9056C22.0089 23.9056 22.0089 23.9056 22.0089 23.9056C22.0089 23.9056 22.0089 23.9056 22.0089 23.9056C22.0089 23.9056 22.0089 23.9056 22.0089 23.9056C22.0089 23.9056 22.0089 23.9056 22.009 23.9056C22.009 23.9056 22.009 23.9056 22.009 23.9056C22.009 23.9056 22.009 23.9056 22.009 23.9056C22.009 23.9056 22.009 23.9056 22.009 23.9056C22.009 23.9056 22.009 23.9056 22.009 23.9056C22.009 23.9056 22.009 23.9056 22.009 23.9056C22.009 23.9056 22.009 23.9056 22.009 23.9056C22.009 23.9056 22.009 23.9056 22.009 23.9056C22.009 23.9056 22.009 23.9056 22.009 23.9056C22.009 23.9056 22.009 23.9056 22.009 23.9056C22.009 23.9056 22.009 23.9056 22.009 23.9056C22.009 23.9056 22.009 23.9056 22.009 23.9056C22.009 23.9056 22.009 23.9056 22.009 23.9056C22.009 23.9056 22.009 23.9056 22.009 23.9056C22.009 23.9056 22.009 23.9056 22.009 23.9056C22.009 23.9056 22.009 23.9056 22.009 23.9056C22.009 23.9056 22.009 23.9056 22.009 23.9056C22.009 23.9056 22.009 23.9056 22.009 23.9056C22.009 23.9056 22.009 23.9056 22.009 23.9056C22.009 23.9056 22.009 23.9056 22.009 23.9056C22.009 23.9056 22.009 23.9056 22.009 23.9056C22.009 23.9056 22.009 23.9056 22.009 23.9056C22.009 23.9056 22.009 23.9056 22.009 23.9056C22.009 23.9056 22.009 23.9056 22.009 23.9056C22.009 23.9056 22.009 23.9056 22.009 23.9056C22.009 23.9056 22.009 23.9056 22.009 23.9056C22.009 23.9056 22.009 23.9056 22.009 23.9056C22.0091 23.9056 22.0091 23.9056 22.0091 23.9057C22.0091 23.9057 22.0091 23.9057 22.0091 23.9057C22.0091 23.9057 22.0091 23.9057 22.0091 23.9057C22.0091 23.9057 22.0091 23.9057 22.0091 23.9057C22.0091 23.9057 22.0091 23.9057 22.0091 23.9057C22.0091 23.9057 22.0091 23.9057 22.0091 23.9057C22.0091 23.9057 22.0091 23.9057 22.0091 23.9057C22.0091 23.9057 22.0091 23.9057 22.0091 23.9057C22.0091 23.9057 22.0091 23.9057 22.0091 23.9057C22.0091 23.9057 22.0091 23.9057 22.0091 23.9057C22.0091 23.9057 22.0091 23.9057 22.0091 23.9057C22.0091 23.9057 22.0091 23.9057 22.0091 23.9057C22.0091 23.9057 22.0091 23.9057 22.0091 23.9057C22.0091 23.9057 22.0091 23.9057 22.0091 23.9057C22.0091 23.9057 22.0091 23.9057 22.0091 23.9057C22.0091 23.9057 22.0091 23.9057 22.0091 23.9057C22.0091 23.9057 22.0091 23.9057 22.0091 23.9057C22.0091 23.9057 22.0091 23.9057 22.0091 23.9057C22.0091 23.9057 22.0091 23.9057 22.0091 23.9057C22.0091 23.9057 22.0091 23.9057 22.0091 23.9057C22.0091 23.9057 22.0091 23.9057 22.0091 23.9057C22.0091 23.9057 22.0091 23.9057 22.0091 23.9057C22.0091 23.9057 22.0091 23.9057 22.0091 23.9057C22.0091 23.9057 22.0091 23.9057 22.0091 23.9057C22.0091 23.9057 22.0091 23.9057 22.0091 23.9057C22.0091 23.9057 22.0091 23.9057 22.0091 23.9057C22.0091 23.9057 22.0092 23.9057 22.0092 23.9057C22.0092 23.9057 22.0092 23.9057 22.0092 23.9057C22.0092 23.9057 22.0092 23.9057 22.0092 23.9057C22.0092 23.9057 22.0092 23.9057 22.0092 23.9057C22.0092 23.9057 22.0092 23.9057 22.0092 23.9057C22.0092 23.9057 22.0092 23.9057 22.0092 23.9057C22.0092 23.9057 22.0092 23.9057 22.0092 23.9057C22.0092 23.9057 22.0092 23.9057 22.0092 23.9057C22.0092 23.9057 22.0092 23.9057 22.0092 23.9057C22.0092 23.9057 22.0092 23.9057 22.0092 23.9057C22.0092 23.9057 22.0092 23.9057 22.0092 23.9057C22.0092 23.9057 22.0092 23.9057 22.0092 23.9057C22.0092 23.9057 22.0092 23.9057 22.0092 23.9057C22.0092 23.9057 22.0092 23.9057 22.0092 23.9058C22.0092 23.9058 22.0092 23.9058 22.0092 23.9058C22.0092 23.9058 22.0092 23.9058 22.0092 23.9058C22.0092 23.9058 22.0092 23.9058 22.0092 23.9058C22.0092 23.9058 22.0092 23.9058 22.0092 23.9058C22.0092 23.9058 22.0092 23.9058 22.0092 23.9058C22.0092 23.9058 22.0092 23.9058 22.0092 23.9058C22.0092 23.9058 22.0092 23.9058 22.0092 23.9058C22.0092 23.9058 22.0092 23.9058 22.0092 23.9058C22.0092 23.9058 22.0092 23.9058 22.0092 23.9058C22.0092 23.9058 22.0092 23.9058 22.0092 23.9058L23.1265 22.2469ZM20.397 19.4488L21.6106 23.3707L23.5212 22.7794L22.3076 18.8576L20.397 19.4488ZM20.6534 18.438L20.652 18.4393L22.0526 19.8671L22.054 19.8657L20.6534 18.438ZM23.5232 22.7808L22.309 18.8563L20.3984 19.4474L21.6125 23.3719L23.5232 22.7808ZM35.8517 24.5666C35.8511 24.5659 35.8505 24.5651 35.8501 24.5647C35.8497 24.5641 35.8495 24.5639 35.8493 24.5637L34.2688 25.7892C34.2694 25.79 34.27 25.7907 34.2704 25.7912C34.2708 25.7917 34.271 25.792 34.2712 25.7922L35.8517 24.5666ZM39.7267 19.2011L34.3611 24.4656L35.7618 25.8932L41.1274 20.6287L39.7267 19.2011ZM39.8806 20.7524L39.8839 20.7545L40.9702 19.0753L40.967 19.0732L39.8806 20.7524ZM35.7594 25.8902L41.1242 20.6266L39.7235 19.199L34.3587 24.4626L35.7594 25.8902ZM38.949 27.1919L38.9483 27.1926L40.2752 28.689L40.2759 28.6884L38.949 27.1919ZM40.6125 27.9409V27.9401H38.6125V27.9409H40.6125ZM39.4141 28.921L39.4148 28.9212L39.8101 26.9606L39.8094 26.9605L39.4141 28.921ZM34.6976 17.079L34.6977 17.0795L36.6372 16.5912L36.6371 16.5908L34.6976 17.079ZM36.6208 17.1364L36.6209 17.1361L34.7137 16.5338L34.7137 16.5341L36.6208 17.1364ZM36.2098 15.9952L36.2096 15.9951L35.1248 17.6753L35.125 17.6755L36.2098 15.9952ZM36.6321 16.568L35.1328 10.7518L33.1961 11.2511L34.6955 17.0673L36.6321 16.568ZM37.6818 13.4366L34.9634 16.1039L36.3642 17.5314L39.0825 14.8642L37.6818 13.4366ZM33.5662 11.8028L37.7839 14.9517L38.9804 13.3491L34.7627 10.2002L33.5662 11.8028Z" fill="#342315" mask="url(#path-3-outside-1_1189_1598)"/>
<path d="M21.6993 13.2295L13.0332 21.7325L20.7807 17.0739L21.6993 13.2295Z" fill="white"/>
<path d="M22.2241 11.0391L14.536 16.6523L13.031 21.7364L13.034 21.7349L21.7001 13.2319L22.2241 11.0391Z" fill="white"/>
<path d="M15.8235 24.699L18.9297 27.9961L23.7288 26.5979L21.4368 19.1909L15.8235 24.699Z" fill="#A1DBF6"/>
<path d="M20.7198 16.8735L13.031 21.7358L15.823 24.6992L21.4363 19.1912L20.7198 16.8735Z" fill="white"/>
<path d="M29.336 16.8735L22.7267 23.3588L23.7288 26.5981H32.6723L35.7567 16.8735H29.336Z" fill="#A1DBF6"/>
<path d="M20.7203 16.8735L22.7267 23.3588L29.3361 16.8735H20.7203Z" fill="#A1DBF6"/>
<path d="M32.6727 26.5974L32.8907 26.6621L32.8449 26.0547L32.6727 26.5974Z" fill="#55271A"/>
<path d="M33.494 26.8419L37.3768 27.9966L43.275 21.736L40.5161 19.9521L33.494 26.8419Z" fill="white"/>
<path d="M35.7577 16.8735L32.8455 26.0553L32.8913 26.6628L33.495 26.8417L40.517 19.9519L35.7577 16.8735Z" fill="#70BDE6"/>
<path d="M35.7562 16.8749L34.2512 11.0391H31.705L25.7565 16.8749H35.7562Z" fill="#A1DBF6"/>
<path d="M20.7203 16.8749H25.757L31.7056 11.0391H22.2246L20.7203 16.8749Z" fill="white"/>
<path d="M38.47 14.188L35.751 16.8552L35.7562 16.874L43.2744 21.7355L41.7694 16.6515L38.47 14.188Z" fill="#70BDE6"/>
<path d="M34.2521 11.0391L35.7518 16.8561L38.4709 14.1889L34.2521 11.0391Z" fill="#70BDE6"/>
<path d="M39.7001 27.9844C35.0596 27.0552 33.9681 23.0161 33.9681 23.0161C33.6697 23.2364 33.3336 23.4198 32.9773 23.5724L28.6082 27.8589L36.6135 30.7192L39.7001 27.9836V27.9844Z" fill="#EEC161"/>
<path d="M28.2367 24.3196C28.2367 24.3196 24.5156 24.5001 22.5046 23.0161C22.5046 23.0161 21.4131 27.0552 16.7726 27.9844L19.8592 30.72L28.2367 27.7265L28.6088 27.8596L32.9779 23.5732C30.9355 24.4504 28.2367 24.3196 28.2367 24.3196Z" fill="#EEC161"/>
<path d="M30.2646 26.2368L27.3771 29.0694C27.5297 29.0604 27.6838 29.0559 27.8387 29.0559C32.2439 29.0559 35.8147 32.6266 35.8147 37.0319C35.8147 41.4371 32.2439 45.0079 27.8387 45.0079C23.4334 45.0079 19.8627 41.4371 19.8627 37.0319C19.8627 36.8259 19.8702 36.6214 19.886 36.4199L16.9993 39.2525C18.0269 44.2982 22.4893 48.0953 27.8387 48.0953C33.9481 48.0953 38.9013 43.142 38.9013 37.0326C38.9013 31.7561 35.2073 27.3434 30.2646 26.2376V26.2368Z" fill="#EEC161"/>
<path d="M27.3737 29.0694L30.2611 26.2369C29.4801 26.0625 28.6689 25.9692 27.8353 25.9692C21.7258 25.9692 16.7726 30.9225 16.7726 37.0319C16.7726 37.7927 16.8493 38.5346 16.9959 39.2518L19.8826 36.4192C20.184 32.4523 23.3872 29.2965 27.3744 29.0687L27.3737 29.0694Z" fill="#EEC161"/>
<path d="M16.7726 27.9844C16.7726 27.9844 21.5266 26.6711 22.5046 23.0161C22.5046 23.0161 26.4896 26.0577 33.9687 23.0161C33.9687 23.0161 34.8295 26.9342 39.7008 27.9844" stroke="#342315" stroke-width="0.316141" stroke-miterlimit="10"/>
<path d="M20.7203 16.8735L22.5065 23.0153" stroke="#342315" stroke-width="0.316141" stroke-miterlimit="10"/>
<path d="M34.3973 11C34.4034 11.0248 35.8264 16.835 35.8317 16.8568C35.8302 16.8801 33.9726 22.9918 33.9696 23.0151C33.9801 23.0054 35.6934 16.708 35.6761 16.8741L34.1057 11.0752L34.3966 11L34.3973 11Z" fill="#342315"/>
<path d="M12.9532 21.6071C12.9585 21.6191 20.7924 16.7253 20.6609 16.8598L22.223 11.0391C22.2177 11.0616 20.7759 16.8914 20.7714 16.9124L20.7511 16.926L13.1141 21.8619L12.9532 21.6071Z" fill="#342315"/>
<path d="M43.2667 21.7459C41.4685 20.5882 37.3444 18.021 35.7522 16.9513C32.1085 16.9768 28.1017 17.0595 24.4783 16.9881C23.2259 16.964 21.9727 16.9377 20.7203 16.8874V16.8573C21.9727 16.8039 23.2259 16.7739 24.4783 16.7475C28.1055 16.6664 32.1333 16.7415 35.7815 16.7566C37.6571 17.9947 41.4114 20.4769 43.2832 21.7211L43.2667 21.7466V21.7459Z" fill="#342315"/>
<path d="M18.8831 30.0467C20.4633 28.0042 23.0959 26.9901 25.6075 26.7699C26.7539 26.6669 27.9191 26.7135 29.0572 26.8676C27.6876 26.7195 26.2953 26.73 24.9369 26.9593C23.589 27.1939 22.2697 27.6539 21.1158 28.3951C20.449 28.8221 19.8341 29.3356 19.3312 29.9475C19.262 30.0332 19.1913 30.1257 19.1357 30.2106L18.8831 30.0467Z" fill="#342315"/>
</svg>
