<svg width="56" height="56" viewBox="0 0 56 56" fill="none" xmlns="http://www.w3.org/2000/svg">
<path fill-rule="evenodd" clip-rule="evenodd" d="M21.1894 13.9038H30.6658H30.6678H33.2121L34.7156 19.7367H34.716L34.7123 19.7218L37.4306 17.0546L40.7291 19.5174L42.2318 24.596L42.2355 24.5984L36.8867 30.2772C37.4107 30.5152 37.9997 30.7107 38.6606 30.8431L35.7639 33.4103C37.0838 35.2316 37.862 37.4711 37.862 39.8926C37.862 46.0004 32.91 50.9523 26.8023 50.9523C21.4543 50.9523 16.9931 47.1563 15.9658 42.1119L18.8517 39.2801C18.8359 39.4815 18.8284 39.6859 18.8284 39.8918C18.8284 44.2959 22.3982 47.8657 26.8023 47.8657C31.2063 47.8657 34.7761 44.2959 34.7761 39.8918C34.7761 35.4878 31.2063 31.918 26.8023 31.918C26.6474 31.918 26.4934 31.9225 26.3408 31.9315L27.5766 30.7192L27.575 30.7187L26.3397 31.9306C22.3535 32.1583 19.1512 35.3133 18.8498 39.2791L15.9639 42.111C15.8173 41.394 15.7407 40.6522 15.7407 39.8916C15.7407 37.28 16.6461 34.8796 18.1601 32.9874L15.7406 30.843C16.3521 30.7205 16.902 30.5441 17.3958 30.33L14.7885 27.5618L14.7903 27.56L12.0004 24.5981L12.0001 24.5983L12.0002 24.5979L12 24.5977L12.0003 24.5975L13.5039 19.5156L21.1892 13.9044L21.1894 13.9038ZM21.6167 25.9786C21.616 25.9782 21.6154 25.9778 21.6147 25.9773L20.4011 22.0556L20.4025 22.0542L21.6167 25.9786ZM34.1079 28.0788C34.1087 28.0798 34.1095 28.0807 34.1103 28.0817L39.4759 22.8172L39.4726 22.8151L34.1079 28.0788ZM38.6606 30.8431L38.6613 30.8424V30.8432L38.6606 30.8431ZM34.7163 19.7377L34.7162 19.7373L34.7161 19.7376L34.7163 19.7377ZM33.2133 13.9038L34.7126 19.72L37.431 17.0528L33.2133 13.9038Z" fill="#BFBFBF"/>
<mask id="path-3-outside-1_1363_5617" maskUnits="userSpaceOnUse" x="11.9512" y="10.0013" width="33" height="40" fill="black">
<rect fill="white" x="11.9512" y="10.0013" width="33" height="40"/>
<path fill-rule="evenodd" clip-rule="evenodd" d="M22.1406 11.0013H31.617H31.619H34.1632L35.6667 16.8342H35.6672L35.6635 16.8193L38.3818 14.1521L41.6803 16.6149L43.1829 21.6935L43.1867 21.696L37.8379 27.3748C38.3619 27.6127 38.9508 27.8082 39.6118 27.9406L36.715 30.5079C38.0349 32.3292 38.8131 34.5687 38.8131 36.9901C38.8131 43.0979 33.8612 48.0498 27.7534 48.0498C22.4055 48.0498 17.9443 44.2538 16.9169 39.2094L19.8029 36.3776C19.7871 36.579 19.7796 36.7835 19.7796 36.9894C19.7796 41.3934 23.3494 44.9632 27.7534 44.9632C32.1575 44.9632 35.7273 41.3934 35.7273 36.9894C35.7273 32.5853 32.1575 29.0155 27.7534 29.0155C27.5986 29.0155 27.4445 29.02 27.292 29.029L28.5278 27.8168L28.5262 27.8162L27.2908 29.0281C23.3047 29.2558 20.1023 32.4108 19.801 36.3767L16.9151 39.2085C16.7685 38.4915 16.6918 37.7497 16.6918 36.9892C16.6918 34.3775 17.5973 31.9771 19.1113 30.0849L16.6917 27.9405C17.3033 27.8181 17.8531 27.6416 18.347 27.4275L15.7397 24.6593L15.7414 24.6576L12.9516 21.6956L12.9512 21.6959L12.9514 21.6954L12.9512 21.6952L12.9515 21.695L14.4551 16.6132L22.1404 11.0019L22.1406 11.0013ZM22.5678 23.0762C22.5672 23.0757 22.5665 23.0753 22.5659 23.0748L21.3523 19.1531L21.3537 19.1517L22.5678 23.0762ZM35.0591 25.1763C35.0599 25.1773 35.0607 25.1783 35.0614 25.1793L40.427 19.9148L40.4238 19.9127L35.0591 25.1763ZM39.6118 27.9406L39.6125 27.94V27.9407L39.6118 27.9406ZM35.6674 16.8352L35.6673 16.8348L35.6672 16.8351L35.6674 16.8352ZM34.1645 11.0013L35.6638 16.8175L38.3821 14.1503L34.1645 11.0013Z"/>
</mask>
<path fill-rule="evenodd" clip-rule="evenodd" d="M22.1406 11.0013H31.617H31.619H34.1632L35.6667 16.8342H35.6672L35.6635 16.8193L38.3818 14.1521L41.6803 16.6149L43.1829 21.6935L43.1867 21.696L37.8379 27.3748C38.3619 27.6127 38.9508 27.8082 39.6118 27.9406L36.715 30.5079C38.0349 32.3292 38.8131 34.5687 38.8131 36.9901C38.8131 43.0979 33.8612 48.0498 27.7534 48.0498C22.4055 48.0498 17.9443 44.2538 16.9169 39.2094L19.8029 36.3776C19.7871 36.579 19.7796 36.7835 19.7796 36.9894C19.7796 41.3934 23.3494 44.9632 27.7534 44.9632C32.1575 44.9632 35.7273 41.3934 35.7273 36.9894C35.7273 32.5853 32.1575 29.0155 27.7534 29.0155C27.5986 29.0155 27.4445 29.02 27.292 29.029L28.5278 27.8168L28.5262 27.8162L27.2908 29.0281C23.3047 29.2558 20.1023 32.4108 19.801 36.3767L16.9151 39.2085C16.7685 38.4915 16.6918 37.7497 16.6918 36.9892C16.6918 34.3775 17.5973 31.9771 19.1113 30.0849L16.6917 27.9405C17.3033 27.8181 17.8531 27.6416 18.347 27.4275L15.7397 24.6593L15.7414 24.6576L12.9516 21.6956L12.9512 21.6959L12.9514 21.6954L12.9512 21.6952L12.9515 21.695L14.4551 16.6132L22.1404 11.0019L22.1406 11.0013ZM22.5678 23.0762C22.5672 23.0757 22.5665 23.0753 22.5659 23.0748L21.3523 19.1531L21.3537 19.1517L22.5678 23.0762ZM35.0591 25.1763C35.0599 25.1773 35.0607 25.1783 35.0614 25.1793L40.427 19.9148L40.4238 19.9127L35.0591 25.1763ZM39.6118 27.9406L39.6125 27.94V27.9407L39.6118 27.9406ZM35.6674 16.8352L35.6673 16.8348L35.6672 16.8351L35.6674 16.8352ZM34.1645 11.0013L35.6638 16.8175L38.3821 14.1503L34.1645 11.0013Z" fill="#342315"/>
<path d="M22.1406 11.0013V10.0013C21.6842 10.0013 21.2857 10.3103 21.1721 10.7523L22.1406 11.0013ZM34.1632 11.0013L35.1316 10.7517C35.0177 10.31 34.6194 10.0013 34.1632 10.0013V11.0013ZM35.6667 16.8342L34.6984 17.0838C34.8122 17.5256 35.2106 17.8342 35.6667 17.8342V16.8342ZM35.6672 16.8342V17.8342C35.9751 17.8342 36.2659 17.6924 36.4554 17.4497C36.6449 17.207 36.712 16.8905 36.6373 16.5917L35.6672 16.8342ZM35.6635 16.8193L34.9631 16.1055C34.71 16.3539 34.6073 16.7178 34.6933 17.0618L35.6635 16.8193ZM38.3818 14.1521L38.9801 13.3508C38.5848 13.0557 38.0335 13.0929 37.6814 13.4383L38.3818 14.1521ZM41.6803 16.6149L42.6392 16.3312C42.578 16.1243 42.4515 15.9427 42.2786 15.8136L41.6803 16.6149ZM43.1829 21.6935L42.224 21.9773C42.2918 22.2063 42.4393 22.4035 42.6398 22.5332L43.1829 21.6935ZM43.1867 21.696L43.9146 22.3816C44.1181 22.1656 44.2151 21.8703 44.1794 21.5757C44.1437 21.2811 43.979 21.0175 43.7298 20.8563L43.1867 21.696ZM37.8379 27.3748L37.11 26.6891C36.8887 26.9241 36.7944 27.2514 36.8568 27.5681C36.9192 27.8847 37.1306 28.1518 37.4244 28.2853L37.8379 27.3748ZM36.715 30.5079L36.0518 29.7595C35.6668 30.1007 35.6035 30.6782 35.9053 31.0947L36.715 30.5079ZM16.9169 39.2094L16.2166 38.4957C15.9746 38.7331 15.8694 39.0769 15.9371 39.409L16.9169 39.2094ZM19.8029 36.3776L20.7998 36.4557C20.8324 36.04 20.6036 35.6477 20.2257 35.4714C19.8478 35.2951 19.4001 35.3718 19.1025 35.6639L19.8029 36.3776ZM27.292 29.029L26.5917 28.3152C26.294 28.6072 26.2088 29.0533 26.3779 29.4345C26.5469 29.8156 26.9347 30.0519 27.351 30.0273L27.292 29.029ZM28.5278 27.8168L29.228 28.5306C29.474 28.2894 29.5784 27.9385 29.5044 27.602C29.4305 27.2656 29.1885 26.9909 28.8641 26.875L28.5278 27.8168ZM28.5262 27.8162L28.8625 26.8744C28.5019 26.7457 28.0993 26.8342 27.8259 27.1023L28.5262 27.8162ZM27.2908 29.0281L27.3479 30.0265C27.5897 30.0126 27.8182 29.9116 27.9911 29.7419L27.2908 29.0281ZM19.801 36.3767L20.5014 37.0904C20.6743 36.9207 20.7797 36.694 20.7981 36.4524L19.801 36.3767ZM16.9151 39.2085L15.9353 39.4087C16.0087 39.7677 16.2724 40.0577 16.6228 40.1648C16.9731 40.2719 17.354 40.1788 17.6154 39.9223L16.9151 39.2085ZM19.1113 30.0849L19.8921 30.7097C20.225 30.2937 20.1733 29.6899 19.7746 29.3365L19.1113 30.0849ZM16.6917 27.9405L16.4954 26.96C16.1232 27.0345 15.8253 27.3133 15.7263 27.6798C15.6274 28.0462 15.7444 28.4371 16.0285 28.6889L16.6917 27.9405ZM18.347 27.4275L18.7448 28.345C19.0437 28.2154 19.2607 27.9483 19.3264 27.6292C19.3921 27.3101 19.2983 26.979 19.0749 26.7419L18.347 27.4275ZM15.7397 24.6593L15.0394 23.9454C14.6508 24.3266 14.6385 24.9486 15.0117 25.3449L15.7397 24.6593ZM15.7414 24.6576L16.4417 25.3714C16.8303 24.9902 16.8426 24.3682 16.4694 23.9719L15.7414 24.6576ZM12.9516 21.6956L13.6795 21.01C13.3449 20.6547 12.8027 20.5929 12.3967 20.8637L12.9516 21.6956ZM12.9512 21.6959L11.9924 21.412C11.8728 21.8157 12.019 22.251 12.3578 22.5008C12.6967 22.7506 13.1558 22.7614 13.5061 22.5278L12.9512 21.6959ZM12.9514 21.6954L13.9102 21.9793C14.0112 21.6384 13.9235 21.2694 13.6799 21.0104L12.9514 21.6954ZM12.9512 21.6952L12.4169 20.8499C12.1646 21.0094 11.9967 21.2732 11.9591 21.5693C11.9215 21.8654 12.0182 22.1628 12.2227 22.3803L12.9512 21.6952ZM12.9515 21.695L13.4857 22.5404C13.6907 22.4108 13.8416 22.2112 13.9104 21.9788L12.9515 21.695ZM14.4551 16.6132L13.8654 15.8055C13.6882 15.9349 13.5584 16.119 13.4962 16.3295L14.4551 16.6132ZM22.1404 11.0019L22.7301 11.8095C22.9173 11.6729 23.0512 11.4754 23.1089 11.2509L22.1404 11.0019ZM22.5678 23.0762L22.0092 23.9056C22.361 24.1425 22.8239 24.1317 23.1643 23.8788C23.5047 23.6259 23.6485 23.1857 23.5232 22.7806L22.5678 23.0762ZM22.5659 23.0748L21.6106 23.3705C21.678 23.5884 21.818 23.7768 22.0073 23.9043L22.5659 23.0748ZM21.3523 19.1531L20.652 18.4392C20.3847 18.7014 20.2863 19.091 20.397 19.4487L21.3523 19.1531ZM21.3537 19.1517L22.309 18.8562C22.206 18.523 21.9368 18.2676 21.5987 18.1822C21.2606 18.0968 20.9024 18.1936 20.6534 18.4378L21.3537 19.1517ZM35.0614 25.1793L34.2712 25.7921C34.4461 26.0176 34.709 26.1577 34.9938 26.177C35.2786 26.1963 35.558 26.093 35.7618 25.8931L35.0614 25.1793ZM35.0591 25.1763L34.3588 24.4625C33.9966 24.8178 33.958 25.3881 34.2689 25.7891L35.0591 25.1763ZM40.427 19.9148L41.1274 20.6286C41.3442 20.4159 41.4525 20.1162 41.422 19.8141C41.3914 19.512 41.2252 19.2401 40.9702 19.0751L40.427 19.9148ZM40.4238 19.9127L40.967 19.0731C40.5741 18.8189 40.0575 18.8711 39.7235 19.1989L40.4238 19.9127ZM39.6125 27.94H40.6125C40.6125 27.5461 40.3813 27.1889 40.022 27.0277C39.6627 26.8664 39.2421 26.931 38.9478 27.1928L39.6125 27.94ZM39.6125 27.9407L39.4174 28.9215C39.7111 28.9799 40.0154 28.9037 40.2469 28.7137C40.4783 28.5238 40.6125 28.2401 40.6125 27.9407H39.6125ZM35.6673 16.8348L36.6371 16.5907C36.5279 16.157 36.144 15.8485 35.697 15.8353C35.2499 15.822 34.8484 16.1072 34.7137 16.5337L35.6673 16.8348ZM35.6674 16.8352L35.125 17.6753C35.4701 17.8981 35.9163 17.8873 36.2501 17.6479C36.5839 17.4086 36.7374 16.9894 36.6372 16.5911L35.6674 16.8352ZM35.6672 16.8351L34.7137 16.534C34.578 16.9636 34.7463 17.4309 35.1248 17.6752L35.6672 16.8351ZM35.6638 16.8175L34.6955 17.0672C34.7846 17.4131 35.0516 17.6852 35.3958 17.781C35.74 17.8767 36.1092 17.7815 36.3642 17.5313L35.6638 16.8175ZM34.1645 11.0013L34.7627 10.2C34.4228 9.94623 33.9597 9.93455 33.6074 10.1709C33.2551 10.4072 33.0902 10.8402 33.1961 11.251L34.1645 11.0013ZM38.3821 14.1503L39.0825 14.8641C39.2909 14.6596 39.3995 14.3743 39.3799 14.0831C39.3602 13.7918 39.2143 13.5237 38.9804 13.349L38.3821 14.1503ZM31.617 10.0013H22.1406V12.0013H31.617V10.0013ZM31.619 10.0013H31.617V12.0013H31.619V10.0013ZM34.1632 10.0013H31.619V12.0013H34.1632V10.0013ZM36.6351 16.5846L35.1316 10.7517L33.1949 11.2509L34.6984 17.0838L36.6351 16.5846ZM35.6672 15.8342H35.6667V17.8342H35.6672V15.8342ZM34.6933 17.0618L34.697 17.0767L36.6373 16.5917L36.6336 16.5768L34.6933 17.0618ZM37.6814 13.4383L34.9631 16.1055L36.3638 17.5331L39.0822 14.8659L37.6814 13.4383ZM42.2786 15.8136L38.9801 13.3508L37.7835 14.9534L41.082 17.4162L42.2786 15.8136ZM44.1419 21.4098L42.6392 16.3312L40.7214 16.8986L42.224 21.9773L44.1419 21.4098ZM43.7298 20.8563L43.7261 20.8539L42.6398 22.5332L42.6436 22.5356L43.7298 20.8563ZM38.5658 28.0604L43.9146 22.3816L42.4587 21.0103L37.11 26.6891L38.5658 28.0604ZM39.8082 26.9601C39.2217 26.8426 38.7056 26.6705 38.2513 26.4642L37.4244 28.2853C38.0182 28.5549 38.68 28.7738 39.4154 28.9211L39.8082 26.9601ZM37.3783 31.2563L40.275 28.689L38.9485 27.1922L36.0518 29.7595L37.3783 31.2563ZM39.8131 36.9901C39.8131 34.351 38.9642 31.9073 37.5248 29.9211L35.9053 31.0947C37.1057 32.751 37.8131 34.7864 37.8131 36.9901H39.8131ZM27.7534 49.0498C34.4135 49.0498 39.8131 43.6502 39.8131 36.9901H37.8131C37.8131 42.5456 33.3089 47.0498 27.7534 47.0498V49.0498ZM15.9371 39.409C17.0574 44.9099 21.9207 49.0498 27.7534 49.0498V47.0498C22.8902 47.0498 18.8312 43.5977 17.8968 39.0099L15.9371 39.409ZM19.1025 35.6639L16.2166 38.4957L17.6173 39.9232L20.5032 37.0914L19.1025 35.6639ZM20.7796 36.9894C20.7796 36.8077 20.7862 36.6294 20.7998 36.4557L18.8059 36.2995C18.788 36.5287 18.7796 36.7592 18.7796 36.9894H20.7796ZM27.7534 43.9632C23.9017 43.9632 20.7796 40.8411 20.7796 36.9894H18.7796C18.7796 41.9457 22.7971 45.9632 27.7534 45.9632V43.9632ZM34.7273 36.9894C34.7273 40.8411 31.6052 43.9632 27.7534 43.9632V45.9632C32.7098 45.9632 36.7273 41.9457 36.7273 36.9894H34.7273ZM27.7534 30.0155C31.6052 30.0155 34.7273 33.1376 34.7273 36.9894H36.7273C36.7273 32.0331 32.7098 28.0155 27.7534 28.0155V30.0155ZM27.351 30.0273C27.4836 30.0195 27.618 30.0155 27.7534 30.0155V28.0155C27.5792 28.0155 27.4055 28.0206 27.233 28.0308L27.351 30.0273ZM27.8275 27.1029L26.5917 28.3152L27.9923 29.7429L29.228 28.5306L27.8275 27.1029ZM28.1899 28.758L28.1915 28.7585L28.8641 26.875L28.8625 26.8744L28.1899 28.758ZM27.9911 29.7419L29.2265 28.5301L27.8259 27.1023L26.5906 28.3142L27.9911 29.7419ZM20.7981 36.4524C21.0616 32.9853 23.8628 30.2256 27.3479 30.0265L27.2338 28.0297C22.7465 28.2861 19.1431 31.8363 18.8039 36.3009L20.7981 36.4524ZM17.6154 39.9223L20.5014 37.0904L19.1006 35.6629L16.2147 38.4947L17.6154 39.9223ZM15.6918 36.9892C15.6918 37.8172 15.7753 38.626 15.9353 39.4087L17.8948 39.0082C17.7617 38.357 17.6918 37.6823 17.6918 36.9892H15.6918ZM18.3305 29.4601C16.6797 31.5232 15.6918 34.1423 15.6918 36.9892H17.6918C17.6918 34.6127 18.5148 32.431 19.8921 30.7097L18.3305 29.4601ZM16.0285 28.6889L18.4481 30.8333L19.7746 29.3365L17.355 27.1921L16.0285 28.6889ZM17.9492 26.51C17.5205 26.6959 17.0382 26.8513 16.4954 26.96L16.8881 28.921C17.5684 28.7848 18.1858 28.5873 18.7448 28.345L17.9492 26.51ZM15.0117 25.3449L17.619 28.1131L19.0749 26.7419L16.4676 23.9737L15.0117 25.3449ZM15.0411 23.9437L15.0394 23.9454L16.4399 25.3732L16.4417 25.3714L15.0411 23.9437ZM12.2236 22.3813L15.0135 25.3432L16.4694 23.9719L13.6795 21.01L12.2236 22.3813ZM13.5061 22.5278L13.5064 22.5276L12.3967 20.8637L12.3964 20.8639L13.5061 22.5278ZM11.9925 21.4115L11.9924 21.412L13.9101 21.9798L13.9102 21.9793L11.9925 21.4115ZM12.2227 22.3803L12.2229 22.3805L13.6799 21.0104L13.6797 21.0102L12.2227 22.3803ZM12.4172 20.8497L12.4169 20.8499L13.4854 22.5405L13.4857 22.5404L12.4172 20.8497ZM13.4962 16.3295L11.9926 21.4113L13.9104 21.9788L15.414 16.8969L13.4962 16.3295ZM21.5507 10.1943L13.8654 15.8055L15.0447 17.4208L22.7301 11.8095L21.5507 10.1943ZM21.1721 10.7523L21.1719 10.7529L23.1089 11.2509L23.1091 11.2503L21.1721 10.7523ZM23.1265 22.2467C23.126 22.2465 23.1257 22.2462 23.1253 22.246C23.125 22.2458 23.1247 22.2456 23.1245 22.2454L22.0073 23.9043C22.0077 23.9045 22.0081 23.9048 22.0084 23.905C22.0087 23.9052 22.009 23.9054 22.0092 23.9056L23.1265 22.2467ZM20.397 19.4487L21.6106 23.3705L23.5212 22.7792L22.3076 18.8575L20.397 19.4487ZM20.6534 18.4378L20.652 18.4392L22.0526 19.867L22.054 19.8656L20.6534 18.4378ZM23.5232 22.7806L22.309 18.8562L20.3984 19.4473L21.6125 23.3717L23.5232 22.7806ZM35.8517 24.5665C35.8512 24.5658 35.8507 24.5652 35.8503 24.5647C35.8499 24.5642 35.8496 24.5638 35.8494 24.5635L34.2689 25.7891C34.2694 25.7897 34.2699 25.7904 34.2703 25.7909C34.2707 25.7914 34.2709 25.7917 34.2712 25.7921L35.8517 24.5665ZM39.7267 19.201L34.3611 24.4655L35.7618 25.8931L41.1274 20.6286L39.7267 19.201ZM39.8806 20.7523L39.8839 20.7544L40.9702 19.0751L40.967 19.0731L39.8806 20.7523ZM35.7595 25.8901L41.1242 20.6265L39.7235 19.1989L34.3588 24.4625L35.7595 25.8901ZM38.9478 27.1928L38.9472 27.1934L40.2764 28.6878L40.2771 28.6872L38.9478 27.1928ZM40.6125 27.9407V27.94H38.6125V27.9407H40.6125ZM39.4167 28.9214L39.4174 28.9215L39.8075 26.9599L39.8069 26.9598L39.4167 28.9214ZM34.6976 17.0789L34.6977 17.0793L36.6372 16.5911L36.6371 16.5907L34.6976 17.0789ZM36.6208 17.1362L36.6209 17.1359L34.7137 16.5337L34.7137 16.534L36.6208 17.1362ZM36.2098 15.9951L36.2096 15.995L35.1248 17.6752L35.125 17.6753L36.2098 15.9951ZM36.6321 16.5679L35.1328 10.7517L33.1961 11.251L34.6955 17.0672L36.6321 16.5679ZM37.6818 13.4365L34.9634 16.1037L36.3642 17.5313L39.0825 14.8641L37.6818 13.4365ZM33.5662 11.8026L37.7839 14.9516L38.9804 13.349L34.7627 10.2L33.5662 11.8026Z" fill="#342315" mask="url(#path-3-outside-1_1363_5617)"/>
<path d="M21.6993 13.2294L13.0332 21.7324L20.7807 17.0738L21.6993 13.2294Z" fill="white"/>
<path d="M22.2243 11.0391L14.5362 16.6523L13.0312 21.7364L13.0343 21.7349L21.7004 13.2319L22.2243 11.0391Z" fill="white"/>
<path d="M15.8237 24.699L18.9299 27.9961L23.7291 26.5979L21.437 19.1909L15.8237 24.699Z" fill="#A1DBF6"/>
<path d="M20.7201 16.8738L13.0312 21.7361L15.8232 24.6994L21.4365 19.1914L20.7201 16.8738Z" fill="white"/>
<path d="M29.3359 16.8738L22.7266 23.3591L23.7286 26.5983H32.6721L35.7566 16.8738H29.3359Z" fill="#A1DBF6"/>
<path d="M20.7202 16.8738L22.7266 23.3591L29.336 16.8738H20.7202Z" fill="#A1DBF6"/>
<path d="M32.6729 26.5976L32.8909 26.6622L32.845 26.0548L32.6729 26.5976Z" fill="#55271A"/>
<path d="M33.4941 26.8418L37.3769 27.9964L43.2751 21.7359L40.5162 19.952L33.4941 26.8418Z" fill="white"/>
<path d="M35.758 16.8738L32.8457 26.0556L32.8916 26.663L33.4952 26.8419L40.5173 19.9522L35.758 16.8738Z" fill="#70BDE6"/>
<path d="M35.7561 16.8749L34.2511 11.0391H31.7049L25.7563 16.8749H35.7561Z" fill="#A1DBF6"/>
<path d="M20.7202 16.8749H25.7569L31.7055 11.0391H22.2245L20.7202 16.8749Z" fill="white"/>
<path d="M38.47 14.1879L35.751 16.8551L35.7562 16.8738L43.2744 21.7354L41.7694 16.6513L38.47 14.1879Z" fill="#70BDE6"/>
<path d="M34.252 11.0391L35.7517 16.8561L38.4707 14.1889L34.252 11.0391Z" fill="#70BDE6"/>
<path d="M39.6999 27.9843C35.0594 27.0551 33.9678 23.016 33.9678 23.016C33.6694 23.2363 33.3334 23.4197 32.9771 23.5723L28.6079 27.8587L36.6132 30.7191L39.6999 27.9835V27.9843Z" fill="#EEC161"/>
<path d="M28.2366 24.3195C28.2366 24.3195 24.5154 24.4999 22.5045 23.016C22.5045 23.016 21.413 27.0551 16.7725 27.9843L19.8591 30.7199L28.2366 27.7264L28.6087 27.8595L32.9778 23.573C30.9353 24.4503 28.2366 24.3195 28.2366 24.3195Z" fill="#EEC161"/>
<path d="M30.2643 26.2369L27.3769 29.0695C27.5295 29.0605 27.6836 29.056 27.8384 29.056C32.2437 29.056 35.8144 32.6268 35.8144 37.032C35.8144 41.4372 32.2437 45.008 27.8384 45.008C23.4332 45.008 19.8624 41.4372 19.8624 37.032C19.8624 36.826 19.8699 36.6215 19.8857 36.4201L16.999 39.2526C18.0267 44.2984 22.489 48.0954 27.8384 48.0954C33.9479 48.0954 38.9011 43.1422 38.9011 37.0327C38.9011 31.7562 35.207 27.3435 30.2643 26.2377V26.2369Z" fill="#EEC161"/>
<path d="M27.3736 29.0696L30.261 26.237C29.48 26.0626 28.6688 25.9694 27.8351 25.9694C21.7257 25.9694 16.7725 30.9226 16.7725 37.032C16.7725 37.7928 16.8491 38.5348 16.9957 39.2519L19.8824 36.4194C20.1839 32.4524 23.3871 29.2966 27.3743 29.0688L27.3736 29.0696Z" fill="#EEC161"/>
<path d="M16.7725 27.9843C16.7725 27.9843 21.5265 26.671 22.5045 23.016C22.5045 23.016 26.4895 26.0575 33.9686 23.016C33.9686 23.016 34.8294 26.9341 39.7007 27.9843" stroke="#342315" stroke-width="0.316141" stroke-miterlimit="10"/>
<path d="M20.7202 16.8738L22.5064 23.0155" stroke="#342315" stroke-width="0.316141" stroke-miterlimit="10"/>
<path d="M34.3975 11C34.4035 11.0248 35.8265 16.835 35.8318 16.8568C35.8303 16.8801 33.9727 22.9918 33.9697 23.0151C33.9803 23.0054 35.6935 16.708 35.6762 16.8741L34.1058 11.0752L34.3967 11L34.3975 11Z" fill="#342315"/>
<path d="M12.9531 21.6071C12.9584 21.6191 20.7923 16.7253 20.6608 16.8598L22.2229 11.0391C22.2176 11.0616 20.7758 16.8914 20.7713 16.9124L20.751 16.926L13.114 21.8619L12.9531 21.6071Z" fill="#342315"/>
<path d="M43.2665 21.7458C41.4684 20.5881 37.3443 18.0209 35.7521 16.9511C32.1084 16.9767 28.1016 17.0594 24.4782 16.988C23.2258 16.9639 21.9726 16.9376 20.7202 16.8872V16.8572C21.9726 16.8038 23.2258 16.7737 24.4782 16.7474C28.1054 16.6662 32.1332 16.7414 35.7814 16.7564C37.657 17.9946 41.4112 20.4768 43.2831 21.721L43.2665 21.7465V21.7458Z" fill="#342315"/>
<path d="M18.8829 30.0467C20.463 28.0042 23.0957 26.9901 25.6072 26.7699C26.7536 26.6669 27.9188 26.7135 29.057 26.8676C27.6873 26.7195 26.2951 26.73 24.9367 26.9593C23.5888 27.1939 22.2695 27.6539 21.1156 28.3951C20.4488 28.8221 19.8338 29.3356 19.3309 29.9475C19.2618 30.0332 19.1911 30.1257 19.1355 30.2106L18.8829 30.0467Z" fill="#342315"/>
</svg>
