<svg width="52" height="32" viewBox="0 0 52 32" fill="none" xmlns="http://www.w3.org/2000/svg">
<g clip-path="url(#clip0_2077_3835)">
<path d="M45.69 17.86C47.57 15.97 48.74 13.36 48.74 10.47C48.74 4.69 44.05 0 38.27 0C32.49 0 27.8 4.69 27.8 10.47C27.8 13.35 28.97 15.96 30.85 17.86C28.69 19.28 26.96 21.31 25.9 23.7C24.84 21.31 23.11 19.29 20.95 17.86C22.83 15.97 24 13.36 24 10.47C24 4.69 19.31 0 13.53 0C7.75 0 3.06 4.69 3.06 10.47C3.06 13.35 4.23 15.96 6.11 17.86C2.43 20.28 0 24.44 0 29.17V29.68C0 30.9 0.99 31.89 2.21 31.89H24.85C25.23 31.89 25.59 31.78 25.9 31.61C26.21 31.78 26.57 31.89 26.95 31.89H49.59C50.81 31.89 51.8 30.9 51.8 29.68V29.17C51.8 24.44 49.37 20.28 45.69 17.86ZM18.12 15.04C16.9 16.27 15.27 16.95 13.53 16.95C11.79 16.95 10.17 16.27 8.94 15.04C7.72 13.82 7.05 12.2 7.05 10.48C7.05 6.91 9.95 4.01 13.52 4.01C17.09 4.01 19.99 6.91 19.99 10.48C19.99 12.2 19.32 13.82 18.11 15.04H18.12ZM42.86 15.04C41.64 16.27 40.01 16.95 38.27 16.95C36.53 16.95 34.91 16.27 33.68 15.04C32.46 13.82 31.79 12.2 31.79 10.48C31.79 6.91 34.69 4.01 38.26 4.01C41.83 4.01 44.73 6.91 44.73 10.48C44.73 12.2 44.06 13.82 42.85 15.04H42.86Z" fill="url(#paint0_linear_2077_3835)"/>
</g>
<defs>
<linearGradient id="paint0_linear_2077_3835" x1="6.86239" y1="2.24991" x2="16.7907" y2="36.9138" gradientUnits="userSpaceOnUse">
<stop stop-color="white"/>
<stop offset="1" stop-color="#5867FE"/>
</linearGradient>
<clipPath id="clip0_2077_3835">
<rect width="51.8" height="31.88" fill="white"/>
</clipPath>
</defs>
</svg>