<svg width="56" height="56" viewBox="0 0 56 56" fill="none" xmlns="http://www.w3.org/2000/svg">
<path d="M0.3 28C0.3 12.7017 12.7017 0.3 28 0.3C43.2983 0.3 55.7 12.7017 55.7 28C55.7 43.2983 43.2983 55.7 28 55.7C12.7017 55.7 0.3 43.2983 0.3 28Z" stroke="#7F7F7F" stroke-width="0.6"/>
<g filter="url(#filter0_d_1189_1865)">
<path d="M46.1621 26.8321C45.4915 19.6552 41.0437 16.3319 38.1379 14.9938C37.6047 14.748 37.1229 14.5694 36.7264 14.4459C36.1261 14.2592 35.1943 14.1302 34.0663 14.0609C30.3905 13.8348 24.6251 14.2368 21.4007 15.2864C17.1869 16.6578 15.6799 19.3633 15.7503 22.8143C15.7902 24.7899 15.5087 26.881 15.2604 28.3081C15.1731 28.8078 15.0905 29.226 15.0269 29.5295C14.9552 29.8724 14.9085 30.0679 14.9085 30.0679C14.9444 30.0482 14.9802 30.0285 15.0161 30.0095C14.541 30.3035 14.1492 30.5302 13.9347 30.6226C13.593 30.7692 12.9806 31.0177 12.2795 31.3348C11.1021 31.8677 9.67361 32.5955 8.85413 33.3674C8.35 33.8427 7.86413 34.2996 7.51632 34.7701C7.20165 35.1958 7 35.6323 7 36.1021C7.00068 36.7342 7.75586 37.2482 8.38654 37.2319L9.65601 37.2882C10.531 37.3269 11.4086 37.2258 12.2464 36.9698C13.0537 36.7234 13.838 36.3635 14.4971 35.9487L17.2525 34.2147L17.2559 34.2127C17.666 34.3444 18.0538 34.4951 18.4232 34.6608C22.5456 36.5081 24.3842 40.1981 29.3761 39.9917C29.6225 39.9815 29.8613 39.9605 30.0948 39.9299C30.8067 39.8376 31.457 39.6563 32.0498 39.4119C34.6009 38.3623 36.0767 36.1578 36.7318 34.931C37.1919 35.0905 37.6663 35.2318 38.1454 35.356C41.7603 36.297 45.633 36.2997 45.633 36.2997C45.633 36.2997 46.9559 35.3255 46.1621 26.8321Z" fill="#342315"/>
<path d="M36.8749 13.9684L36.8751 13.9685C37.2919 14.0984 37.7939 14.2846 38.3471 14.5396C41.3613 15.9277 45.9679 19.3793 46.66 26.7856C47.0588 31.0534 46.9302 33.4704 46.6875 34.8382C46.566 35.5237 46.4134 35.9596 46.2748 36.2377C46.2052 36.3776 46.138 36.4795 46.0785 36.5538C46.0487 36.591 46.0209 36.6212 45.9957 36.6456C45.9832 36.6578 45.9713 36.6686 45.9602 36.678C45.9546 36.6827 45.9493 36.687 45.9442 36.6911L45.9366 36.6969L45.933 36.6997L45.9312 36.701C45.9303 36.7017 45.9295 36.7023 45.633 36.2997M36.8749 13.9684L38.1454 35.356M36.8749 13.9684C36.2153 13.7633 35.2344 13.6317 34.0969 13.5619C30.3872 13.3337 24.5525 13.7346 21.2459 14.8109C19.0629 15.5214 17.5307 16.5949 16.5592 17.9839C15.5883 19.3721 15.2137 21.0236 15.2504 22.8244L36.8749 13.9684ZM45.633 36.2997C45.6326 36.7997 45.6326 36.7997 45.6325 36.7997H45.6322L45.6314 36.7997L45.6288 36.7997L45.6195 36.7997L45.5843 36.7994C45.5634 36.7993 45.5357 36.799 45.5017 36.7985C45.4862 36.7983 45.4693 36.798 45.451 36.7977C45.3352 36.7957 45.1667 36.7919 44.9536 36.7843C44.5275 36.7691 43.9224 36.7389 43.2033 36.679C41.7679 36.5594 39.8649 36.3203 38.0194 35.8399M45.633 36.2997L45.9295 36.7023L45.7971 36.7998L45.6326 36.7997L45.633 36.2997ZM38.0194 35.8399L38.1454 35.356M38.0194 35.8399C38.0196 35.8399 38.0197 35.84 38.0199 35.84L38.1454 35.356M38.0194 35.8399C37.6657 35.7481 37.3135 35.6471 36.9668 35.5362M38.1454 35.356C37.6663 35.2318 37.1919 35.0905 36.7318 34.931M36.9668 35.5362C37.0428 35.4053 37.1114 35.2815 37.1728 35.1665L36.7318 34.931M36.9668 35.5362C36.2065 36.8448 34.7043 38.8603 32.2403 39.8741M36.9668 35.5362C36.833 35.4934 36.7 35.4492 36.568 35.4034L36.7318 34.931M36.7318 34.931L32.2403 39.8741M32.2403 39.8741L32.0498 39.4119L32.24 39.8743C32.2401 39.8742 32.2402 39.8742 32.2403 39.8741ZM32.2403 39.8741C31.6087 40.1346 30.9162 40.3275 30.1597 40.4257M32.2403 39.8741L30.1597 40.4257M7 36.1021C7 35.6323 7.20165 35.1958 7.51632 34.7701C7.86148 34.3032 8.34259 33.8497 8.8426 33.3783L8.85413 33.3674C9.67361 32.5955 11.1021 31.8677 12.2795 31.3348C12.7892 31.1042 13.2521 30.91 13.5981 30.7647C13.728 30.7102 13.8415 30.6626 13.9347 30.6226M7 36.1021L36.7264 14.4459C36.1261 14.2592 35.1943 14.1302 34.0663 14.0609C30.3905 13.8348 24.6251 14.2368 21.4007 15.2864C17.1869 16.6578 15.6799 19.3633 15.7503 22.8143C15.7902 24.7899 15.5087 26.881 15.2604 28.3081C15.1731 28.8078 15.0905 29.226 15.0269 29.5295C14.9981 29.667 14.9734 29.7809 14.9541 29.8679L14.7819 29.5677C14.7428 29.5885 14.7042 29.6097 14.6692 29.6289L14.6679 29.6296L14.6708 29.635C14.5995 29.6788 14.5312 29.7204 14.4659 29.7597M7 36.1021C7.00068 36.7342 7.75586 37.2482 8.38654 37.2319L7 36.1021ZM13.9347 30.6226C14.0281 30.5824 14.155 30.5168 14.3077 30.4312L14.4222 29.9518L14.4222 29.9518L14.4222 29.9518L14.4222 29.9517L14.4222 29.9516L14.4225 29.9502L14.424 29.9442L14.4299 29.9189C14.4351 29.8963 14.4429 29.8622 14.453 29.8175C14.457 29.7999 14.4613 29.7806 14.4659 29.7597M13.9347 30.6226L13.7376 30.1631M13.9347 30.6226L13.737 30.1633M14.4659 29.7597C14.4848 29.6746 14.5091 29.5627 14.5375 29.4271L14.5375 29.4269C14.6001 29.1286 14.6815 28.716 14.7678 28.2224C15.0139 26.8081 15.2894 24.7533 15.2504 22.8245L13.7376 30.1631M14.4659 29.7597C14.1289 29.9627 13.8755 30.1036 13.7376 30.1631M13.7376 30.1631L13.737 30.1633M13.737 30.1633C13.6487 30.2012 13.5388 30.2473 13.4117 30.3007C13.065 30.4462 12.5901 30.6455 12.0735 30.8792L12.0734 30.8792M13.737 30.1633L12.0734 30.8792M12.0734 30.8792C10.9005 31.4101 9.39903 32.1673 8.51129 33.0035L8.51116 33.0036M12.0734 30.8792L8.51116 33.0036M8.51116 33.0036L8.48077 33.0323C7.99516 33.49 7.48629 33.9696 7.11425 34.4729L7.11424 34.4729M8.51116 33.0036L7.11424 34.4729M7.11424 34.4729C6.76693 34.9427 6.5 35.4829 6.5 36.1021L6.5 36.1027M7.11424 34.4729L6.5 36.1027M6.5 36.1027C6.50056 36.6251 6.80897 37.0431 7.15261 37.3068C7.49349 37.5684 7.94154 37.7383 8.38032 37.7321L9.63384 37.7877L9.63392 37.7877M6.5 36.1027L9.63392 37.7877M9.63392 37.7877C10.5618 37.8288 11.4966 37.7217 12.3925 37.448C13.2408 37.189 14.0657 36.811 14.7634 36.3719C14.7634 36.3719 14.7634 36.3719 14.7634 36.3719L17.3221 34.7617C17.6336 34.8693 17.9317 34.9884 18.2187 35.117L18.2188 35.1171M9.63392 37.7877L18.2188 35.1171M18.2188 35.1171C19.657 35.7616 20.7827 36.6212 21.9204 37.49M18.2188 35.1171L21.9204 37.49M21.9204 37.49C22.367 37.8311 22.8155 38.1736 23.2854 38.505M21.9204 37.49L23.2854 38.505M23.2854 38.505C24.9325 39.6666 26.7485 40.6008 29.3968 40.4913M23.2854 38.505L29.3968 40.4913M29.3968 40.4913C29.6583 40.4805 29.9119 40.4581 30.1597 40.4257M29.3968 40.4913L30.1597 40.4257" stroke="#342315" stroke-miterlimit="10"/>
</g>
<path d="M36.7291 14.4455C36.1289 14.2588 35.1971 14.1298 34.0691 14.0605C29.6327 14.4747 24.0371 15.7626 21.2789 16.709C17.5517 17.9874 16.7234 20.7045 16.5637 23.1011C16.4541 24.7475 15.7152 27.0368 15.2631 28.3077C15.1758 28.8074 15.0933 29.2256 15.0297 29.5291C14.9579 29.872 14.9113 30.0675 14.9113 30.0675C14.9471 30.0478 14.983 30.0281 15.0188 30.0091C15.184 29.9195 15.3491 29.8346 15.5149 29.7538C17.3345 28.8672 19.1636 28.527 20.944 28.5508C21.1334 27.9588 21.3913 27.4672 21.7898 27.0198C22.7859 25.9003 24.6617 25.0496 28.5506 23.5634C32.4118 22.0874 35.9191 18.0485 38.1414 14.9941C37.6082 14.7483 37.1264 14.5697 36.7298 14.4462L36.7291 14.4455Z" fill="#9CB25E"/>
<path d="M46.1634 26.8335C45.4928 19.6566 41.0449 16.3333 38.1392 14.9951C35.9169 18.0503 32.4097 22.0892 28.5485 23.5645C24.6602 25.0506 22.7844 25.9006 21.7876 27.0209C21.3891 27.469 21.1312 27.9598 20.9418 28.5518C21.0588 28.5532 21.1759 28.5573 21.293 28.562C21.3261 28.5634 21.3593 28.5647 21.3924 28.5668C21.4838 28.5708 21.5745 28.5763 21.6658 28.5824C21.6943 28.5844 21.7227 28.5858 21.7511 28.5878C21.8661 28.5966 21.9812 28.6062 22.0955 28.6177C22.1192 28.6197 22.1429 28.6231 22.1666 28.6252C22.26 28.6347 22.3534 28.6455 22.4467 28.6571C22.4806 28.6611 22.5144 28.6652 22.5482 28.67C22.6477 28.6829 22.7472 28.6971 22.8467 28.7121C22.8622 28.7141 22.8785 28.7168 22.894 28.7189C23.0077 28.7365 23.1207 28.7555 23.2337 28.7752C23.2649 28.7806 23.296 28.7867 23.3271 28.7922C23.4144 28.8085 23.501 28.8248 23.5876 28.8424C23.6188 28.8485 23.6499 28.8546 23.6803 28.8614C23.792 28.8845 23.9036 28.9083 24.0146 28.9341C24.0302 28.9375 24.0458 28.9415 24.062 28.9449C24.1588 28.9673 24.2555 28.9904 24.3523 29.0149C24.3855 29.023 24.4186 29.0318 24.4518 29.04C24.5404 29.0624 24.6297 29.0862 24.7177 29.1099C24.7414 29.116 24.7644 29.1221 24.7881 29.1289C24.897 29.1588 25.006 29.19 25.1143 29.2219C25.1413 29.2301 25.1691 29.2382 25.1961 29.2464C25.2807 29.2722 25.3653 29.298 25.4499 29.3245C25.4817 29.3346 25.5128 29.3441 25.5446 29.3543C25.6509 29.3883 25.7571 29.4229 25.8627 29.4589C25.8647 29.4589 25.8661 29.4602 25.8681 29.4609C25.9757 29.4976 26.0819 29.5349 26.1888 29.5729C26.2193 29.5838 26.2504 29.5947 26.2809 29.6062C26.3634 29.6361 26.446 29.6666 26.5285 29.6972C26.5542 29.7067 26.5806 29.7169 26.6064 29.7264C26.7106 29.7658 26.8148 29.8065 26.9183 29.8472C26.9393 29.8554 26.9603 29.8642 26.9812 29.8723C27.0665 29.9063 27.1511 29.9409 27.2357 29.9755C27.2655 29.9878 27.2952 30 27.3243 30.0122C27.415 30.0495 27.505 30.0876 27.5943 30.1263C27.6072 30.1317 27.6207 30.1371 27.6336 30.1432C27.7358 30.1874 27.8373 30.2322 27.9381 30.277C27.9645 30.2885 27.9902 30.3007 28.0159 30.3123C28.0951 30.3483 28.1742 30.3843 28.2534 30.4202C28.2791 30.4318 28.3042 30.4433 28.3292 30.4555C28.4294 30.5017 28.5288 30.5485 28.6276 30.5961C28.6364 30.6001 28.6459 30.6049 28.6547 30.609C28.7454 30.6524 28.8347 30.6959 28.9247 30.74C28.9504 30.7522 28.9754 30.7651 29.0012 30.778C29.0837 30.8188 29.1663 30.8602 29.2482 30.9016C29.2637 30.9091 29.2793 30.9172 29.2942 30.9247C29.3916 30.9742 29.4884 31.0238 29.5838 31.0734C29.6014 31.0829 29.619 31.0917 29.6373 31.1012C29.7171 31.1426 29.797 31.1847 29.8761 31.2268C29.8971 31.2383 29.9188 31.2492 29.9397 31.2607C30.1299 31.3619 30.3173 31.4637 30.5014 31.5656C30.519 31.5751 30.5366 31.5853 30.5542 31.5948C30.6354 31.6396 30.7159 31.6851 30.7957 31.7299C30.8073 31.7367 30.8194 31.7428 30.8309 31.7496C30.925 31.8025 31.0177 31.8548 31.1097 31.9078C31.1124 31.9091 31.1145 31.9105 31.1165 31.9118C31.2051 31.9627 31.2924 32.013 31.3797 32.0632C31.3912 32.07 31.4027 32.0768 31.4142 32.0836C31.597 32.1895 31.7763 32.2947 31.9522 32.3986C32.2621 31.9071 32.5085 31.5778 32.5085 31.5778L37.6066 33.4007L38.148 35.356C41.7629 36.297 45.6356 36.2997 45.6356 36.2997C45.6356 36.2997 46.9585 35.3261 46.1648 26.8328L46.1634 26.8335Z" fill="#748250"/>
<path d="M28.3151 34.9504C28.3151 34.9504 20.0757 33.1566 20.6197 29.9589C20.7104 29.4273 20.8092 28.965 20.9418 28.5515C19.1615 28.5271 17.3324 28.8679 15.5128 29.7546C16.0588 30.0438 16.3864 30.3425 16.3864 30.3425C16.3864 30.3425 17.0637 31.9421 16.9446 32.902C16.8249 33.862 15.5493 33.1417 15.5493 33.1417C15.5493 33.1417 15.1108 32.4621 14.114 32.2218C13.5064 32.0758 12.7661 31.6467 12.2802 31.3344C11.1028 31.8674 9.67426 32.5952 8.85479 33.3671C8.35065 33.8424 7.86479 34.2993 7.51697 34.7698C9.86035 34.0678 13.3081 33.3447 16.3228 33.936C16.6591 34.0019 16.9683 34.0963 17.2532 34.2144L17.2566 34.2124C17.6667 34.3441 18.0544 34.4948 18.4239 34.6605C22.5463 36.5078 24.3849 40.1977 29.3768 39.9914C29.6231 39.9812 29.862 39.9601 30.0954 39.9296C24.0316 39.2792 28.3151 34.9504 28.3151 34.9504Z" fill="#CBDD9B"/>
<path d="M31.9518 32.399C31.7766 32.2951 31.5973 32.1899 31.4139 32.084C31.4024 32.0772 31.3909 32.0704 31.3794 32.0636C31.2921 32.0134 31.2048 31.9625 31.1161 31.9122C31.1141 31.9109 31.1114 31.9095 31.1094 31.9082C31.0173 31.8552 30.9246 31.8029 30.8306 31.75C30.8191 31.7432 30.8076 31.7371 30.7954 31.7303C30.7155 31.6855 30.635 31.64 30.5538 31.5952C30.5362 31.5857 30.5186 31.5755 30.501 31.566C30.317 31.4641 30.1295 31.3623 29.9394 31.2611C29.9184 31.2496 29.8967 31.2387 29.8758 31.2272C29.7966 31.1851 29.7167 31.1437 29.6369 31.1016C29.6193 31.0921 29.6017 31.0833 29.5834 31.0738C29.4873 31.0242 29.3906 30.9746 29.2938 30.9251C29.2782 30.9176 29.2633 30.9095 29.2478 30.902C29.1659 30.8606 29.0833 30.8192 29.0008 30.7784C28.9751 30.7655 28.95 30.7533 28.9243 30.7404C28.835 30.6963 28.745 30.6528 28.6543 30.6094C28.6455 30.6053 28.6361 30.6006 28.6273 30.5965C28.5285 30.549 28.429 30.5021 28.3288 30.4559C28.3038 30.4444 28.2781 30.4329 28.253 30.4206C28.1746 30.384 28.0954 30.348 28.0155 30.3127C27.9898 30.3011 27.9634 30.2889 27.9377 30.2774C27.8369 30.2326 27.7354 30.1878 27.6332 30.1436C27.6203 30.1382 27.6068 30.1328 27.594 30.1267C27.5046 30.088 27.4146 30.0499 27.324 30.0126C27.2942 30.0004 27.2644 29.9882 27.2353 29.9759C27.1507 29.9413 27.0661 29.9067 26.9809 29.8728C26.9599 29.8646 26.9389 29.8558 26.9179 29.8476C26.8144 29.8069 26.7102 29.7662 26.606 29.7268C26.5803 29.7166 26.5539 29.7071 26.5282 29.6976C26.4456 29.667 26.363 29.6365 26.2805 29.6066C26.25 29.5957 26.2196 29.5842 26.1885 29.5733C26.0822 29.5353 25.9753 29.498 25.8677 29.4613C25.8657 29.4613 25.8643 29.46 25.8623 29.4593C25.7567 29.4233 25.6512 29.3887 25.5443 29.3547C25.5131 29.3445 25.4813 29.335 25.4495 29.3249C25.3649 29.2984 25.2803 29.2726 25.1958 29.2468C25.1687 29.2386 25.1409 29.2305 25.1139 29.2223C25.0056 29.1904 24.8967 29.1592 24.7877 29.1293C24.764 29.1232 24.741 29.1164 24.7173 29.1103C24.6287 29.0866 24.54 29.0628 24.4514 29.0404C24.4182 29.0322 24.3851 29.0234 24.3519 29.0153C24.2558 28.9915 24.1591 28.9677 24.0616 28.9453C24.0461 28.9419 24.0305 28.9379 24.0143 28.9345C23.9033 28.9094 23.7916 28.8849 23.68 28.8618C23.6488 28.8557 23.6177 28.8496 23.5873 28.8428C23.5006 28.8252 23.4134 28.8089 23.3261 28.7926C23.2949 28.7872 23.2645 28.781 23.2334 28.7756C23.1203 28.7552 23.0073 28.7362 22.8937 28.7193C22.8781 28.7165 22.8625 28.7145 22.8463 28.7125C22.7468 28.6975 22.6473 28.6833 22.5479 28.6704C22.514 28.6663 22.4802 28.6616 22.4464 28.6575C22.353 28.6459 22.2596 28.6351 22.1662 28.6256C22.1425 28.6229 22.1188 28.6201 22.0952 28.6181C21.9808 28.6066 21.8658 28.5971 21.7507 28.5882C21.7291 28.5869 21.7074 28.5855 21.6858 28.5842C21.5876 28.578 21.4902 28.5719 21.3921 28.5672C21.3589 28.5658 21.3258 28.5638 21.2926 28.5624C21.1755 28.5577 21.0585 28.5543 20.9414 28.5522C20.8088 28.9657 20.71 29.4281 20.6193 29.9597C20.214 32.3427 24.6869 33.9456 26.9924 34.6082C27.5797 34.7766 27.8349 35.4671 27.5026 35.981C26.6459 37.3042 25.9334 39.4843 30.0957 39.9303C30.8076 39.838 31.4579 39.6567 32.0506 39.4123C31.8043 38.1373 31.4524 36.8473 30.9801 36.3008C30.2358 35.4386 31.2542 33.5063 31.9512 32.399H31.9518Z" fill="#9CB25E"/>
<path d="M27.5936 30.1265C27.6065 30.1319 27.62 30.1373 27.6329 30.1434C27.62 30.138 27.6065 30.1326 27.5936 30.1265Z" fill="#CBDD9B"/>
<path d="M24.7177 29.1113C24.7413 29.1174 24.7643 29.1235 24.788 29.1303C24.7643 29.1242 24.7413 29.1174 24.7177 29.1113Z" fill="#CBDD9B"/>
<path d="M27.2344 29.9761C27.2641 29.9883 27.2939 30.0005 27.323 30.0127C27.2932 30.0005 27.2635 29.9883 27.2344 29.9761Z" fill="#CBDD9B"/>
<path d="M25.8615 29.4595C25.8615 29.4595 25.8654 29.461 25.8677 29.4618C25.8654 29.4618 25.8638 29.4603 25.8615 29.4595Z" fill="#CBDD9B"/>
<path d="M21.2937 28.563C21.3269 28.5643 21.36 28.5657 21.3932 28.5677C21.36 28.5664 21.3269 28.5643 21.2937 28.563Z" fill="#CBDD9B"/>
<path d="M21.6658 28.5815C21.6942 28.5836 21.7226 28.5849 21.751 28.587C21.7226 28.5849 21.6942 28.5829 21.6658 28.5815Z" fill="#CBDD9B"/>
<path d="M25.4509 29.3257C25.4827 29.3359 25.5139 29.3454 25.5457 29.3556C25.5145 29.3454 25.4827 29.3359 25.4509 29.3257Z" fill="#CBDD9B"/>
<path d="M26.1877 29.5732C26.2182 29.5841 26.2493 29.595 26.2798 29.6065C26.2493 29.5956 26.2189 29.5841 26.1877 29.5732Z" fill="#CBDD9B"/>
<path d="M26.5287 29.6978C26.5544 29.7073 26.5808 29.7174 26.6065 29.7269C26.5808 29.7168 26.5544 29.7073 26.5287 29.6978Z" fill="#CBDD9B"/>
<path d="M23.5886 28.8433C23.6198 28.8494 23.6509 28.8555 23.6813 28.8623C23.6502 28.8562 23.6191 28.8501 23.5886 28.8433Z" fill="#CBDD9B"/>
<path d="M30.7959 31.7305C30.8074 31.7373 30.8196 31.7434 30.8311 31.7502C30.8196 31.7434 30.8081 31.7373 30.7959 31.7305Z" fill="#CBDD9B"/>
<path d="M31.1093 31.9082C31.1093 31.9082 31.1141 31.911 31.1161 31.9123C31.1141 31.911 31.1113 31.9096 31.1093 31.9082Z" fill="#CBDD9B"/>
<path d="M24.0156 28.9331C24.0312 28.9365 24.0468 28.9406 24.063 28.944C24.0474 28.9406 24.0319 28.9365 24.0156 28.9331Z" fill="#CBDD9B"/>
<path d="M29.5842 31.0742C29.6018 31.0837 29.6194 31.0925 29.6377 31.1021C29.6201 31.0925 29.6025 31.0837 29.5842 31.0742Z" fill="#CBDD9B"/>
<path d="M22.0966 28.6182C22.1202 28.6202 22.1439 28.6236 22.1676 28.6256C22.1439 28.6229 22.1202 28.6202 22.0966 28.6182Z" fill="#CBDD9B"/>
<path d="M22.8462 28.7114C22.8618 28.7135 22.878 28.7162 22.8936 28.7182C22.878 28.7155 22.8624 28.7135 22.8462 28.7114Z" fill="#CBDD9B"/>
<path d="M28.2535 30.4219C28.2786 30.4334 28.3043 30.445 28.3293 30.4572C28.3043 30.4456 28.2786 30.4341 28.2535 30.4219Z" fill="#CBDD9B"/>
<path d="M28.9244 30.7407C28.9502 30.7529 28.9752 30.7658 29.0009 30.7787C28.9752 30.7658 28.9502 30.7536 28.9244 30.7407Z" fill="#CBDD9B"/>
<path d="M27.9382 30.2769C27.9646 30.2884 27.9903 30.3006 28.0161 30.3122C27.9903 30.3006 27.9639 30.2884 27.9382 30.2769Z" fill="#CBDD9B"/>
<path d="M29.2488 30.9019C29.2643 30.9093 29.2799 30.9175 29.2948 30.9249C29.2792 30.9175 29.2643 30.9093 29.2488 30.9019Z" fill="#CBDD9B"/>
<path d="M34.4746 33.9043C34.4861 33.9104 34.4969 33.9172 34.5084 33.9233C34.4969 33.9172 34.4861 33.9111 34.4746 33.9043Z" fill="#748250"/>
<path d="M34.7917 34.0801C34.81 34.0903 34.8283 34.0998 34.8466 34.11C34.8283 34.1004 34.81 34.0903 34.7917 34.0801Z" fill="#748250"/>
<path d="M34.9495 34.1665C34.965 34.1747 34.9813 34.1835 34.9962 34.1916C34.9806 34.1835 34.965 34.1753 34.9495 34.1665Z" fill="#748250"/>
<path d="M34.0659 33.666C34.091 33.681 34.1167 33.6959 34.1417 33.7108C34.1167 33.6959 34.0916 33.681 34.0659 33.666Z" fill="#748250"/>
<path d="M33.8826 33.5596C33.911 33.5765 33.9394 33.5935 33.9672 33.6098C33.9387 33.5928 33.911 33.5765 33.8826 33.5596Z" fill="#748250"/>
<path d="M32.5088 31.5781C32.5088 31.5781 32.2624 31.9074 31.9525 32.3989C32.6251 32.7975 33.2423 33.1763 33.7945 33.5063C33.8242 33.5239 33.854 33.5416 33.8831 33.5592C33.9115 33.5762 33.94 33.5932 33.9677 33.6095C34.0002 33.6291 34.0327 33.6482 34.0651 33.6672C34.0909 33.6821 34.1159 33.697 34.1409 33.712C34.1782 33.7337 34.2147 33.7554 34.2512 33.7765C34.2709 33.788 34.2912 33.7996 34.3108 33.8111C34.3656 33.843 34.4204 33.8742 34.4739 33.9048C34.4854 33.9109 34.4962 33.9177 34.5077 33.9238C34.5503 33.9482 34.593 33.972 34.6349 33.9951C34.6532 34.0053 34.6708 34.0148 34.6891 34.025C34.7242 34.0446 34.7588 34.0637 34.7926 34.082C34.8109 34.0922 34.8291 34.1017 34.8474 34.1119C34.8826 34.1309 34.9164 34.1492 34.9503 34.1669C34.9658 34.175 34.9821 34.1838 34.9969 34.192C35.0457 34.2178 35.0937 34.2422 35.1404 34.266C35.6391 34.5179 36.1757 34.7385 36.7333 34.932C37.1935 35.0915 37.6678 35.2328 38.1469 35.357L37.6056 33.4017L32.5074 31.5788L32.5088 31.5781Z" fill="#748250"/>
<path d="M36.7332 34.9325C36.1763 34.739 35.6397 34.5183 35.1403 34.2665C35.0936 34.2427 35.0455 34.2176 34.9968 34.1924C34.9813 34.1843 34.9657 34.1762 34.9501 34.1673C34.9163 34.149 34.8818 34.1313 34.8473 34.1123C34.829 34.1028 34.8107 34.0926 34.7925 34.0825C34.7579 34.0641 34.7234 34.0444 34.6889 34.0254C34.6707 34.0152 34.6531 34.0057 34.6348 33.9956C34.5928 33.9725 34.5509 33.948 34.5076 33.9243C34.4961 33.9182 34.4852 33.9121 34.4737 33.9053C34.4203 33.8747 34.3661 33.8435 34.3107 33.8116C34.291 33.8 34.2707 33.7885 34.2511 33.7769C34.2146 33.7559 34.178 33.7342 34.1408 33.7124C34.1158 33.6975 34.0907 33.6826 34.065 33.6676C34.0325 33.6486 34 33.6296 33.9676 33.6099C33.9391 33.593 33.9114 33.5767 33.883 33.5597C33.8539 33.542 33.8241 33.5244 33.7943 33.5067C33.2415 33.1768 32.625 32.7979 31.9524 32.3994C31.2554 33.5067 30.2363 35.4389 30.9813 36.3012C31.4537 36.8477 31.8055 38.1377 32.0519 39.4127C34.603 38.3631 36.0788 36.1586 36.7339 34.9318L36.7332 34.9325Z" fill="#748250"/>
<path d="M34.9971 34.1919C35.0458 34.2177 35.0938 34.2421 35.1405 34.2659C35.0938 34.2421 35.0458 34.217 34.9971 34.1919Z" fill="#748250"/>
<path d="M34.3097 33.811C34.3645 33.8429 34.4193 33.8742 34.4728 33.9047C34.4193 33.8742 34.3652 33.8429 34.3097 33.811Z" fill="#748250"/>
<path d="M34.8468 34.1113C34.8813 34.1303 34.9158 34.1487 34.9497 34.1663C34.9158 34.148 34.8813 34.1303 34.8468 34.1113Z" fill="#748250"/>
<path d="M34.5077 33.9243C34.5503 33.9488 34.593 33.9725 34.6349 33.9956C34.593 33.9725 34.551 33.9481 34.5077 33.9243Z" fill="#748250"/>
<path d="M34.6891 34.0254C34.7243 34.0451 34.7588 34.0641 34.7926 34.0824C34.7581 34.0641 34.7236 34.0444 34.6891 34.0254Z" fill="#748250"/>
<path d="M7.51827 34.7711C7.20293 35.1968 7.00195 35.6333 7.00195 36.1032C7.00263 36.7352 7.75782 37.2492 8.38849 37.2329L9.65797 37.2892C10.5329 37.3279 11.4106 37.2268 12.2483 36.9708C13.0556 36.7244 13.8399 36.3645 14.499 35.9497L17.2545 34.2158C16.9696 34.0983 16.6604 34.0033 16.3241 33.9374C13.3094 33.3461 9.86165 34.0691 7.51827 34.7711Z" fill="#4C5335"/>
<path d="M23.7253 24.7865L22.7096 24.2623L21.704 24.8041L21.8874 23.6737L21.2791 22.8475L22.2663 22.7708L22.6872 21.4014L23.0987 22.8495L24.1015 22.821L23.5223 23.6588L23.7253 24.7865Z" fill="#E61C15"/>
<path d="M25.3774 25.1277C26.5265 24.1229 25.6542 23.1134 25.6542 23.1134C26.3065 22.0746 25.4038 22.463 25.4038 22.463C25.8065 20.3332 23.2445 19.2252 23.051 19.1451V19.1396C23.051 19.1396 23.0483 19.1403 23.0435 19.1417C23.0408 19.1403 23.0388 19.1396 23.0388 19.1396V19.143C22.8412 19.2028 20.2603 20.0284 20.4274 22.188C20.4274 22.188 19.5978 21.7039 20.1189 22.8072C20.1189 22.8072 19.1735 23.7169 20.1771 24.8392C20.1771 24.8392 19.4056 24.8779 20.3124 25.5942C20.3124 25.5942 19.1932 26.1746 22.0874 27.0267C22.0874 27.0267 22.0705 27.322 22.5929 27.3716V27.375C23.1708 27.3987 23.1843 27.0885 23.1843 27.0885C26.2436 26.5637 25.1582 25.8617 25.1582 25.8617C26.1651 25.2506 25.3774 25.1264 25.3774 25.1264V25.1277ZM24.38 24.3368C24.2487 24.9831 23.7243 25.6824 22.762 25.6824C21.7998 25.6824 21.0202 24.9003 21.0202 23.9349C21.0202 23.8738 21.0236 23.814 21.0297 23.7543C21.1752 21.7515 22.8432 20.0311 22.8432 20.0311C24.0092 21.4032 24.2352 22.5356 24.338 23.2132C24.3881 23.6911 24.4057 24.2071 24.3793 24.3361L24.38 24.3368Z" fill="#EEC161"/>
<path d="M21.279 16.7094C24.0378 15.763 29.6334 14.4757 34.0691 14.0609C30.3933 13.8348 24.6279 14.2368 21.4035 15.2864C17.1897 16.6578 15.6827 19.3633 15.7531 22.8143C15.793 24.7899 15.5115 26.881 15.2632 28.3081C15.7152 27.0372 16.4548 24.7478 16.5638 23.1015C16.7228 20.7049 17.5518 17.9885 21.279 16.7094Z" fill="#D3E4A5"/>
<path d="M15.55 33.1415C15.55 33.1415 16.8255 33.8612 16.9453 32.9019C17.0651 31.9419 16.387 30.3423 16.387 30.3423C16.387 30.3423 16.0595 30.0436 15.5134 29.7544C15.3483 29.8352 15.1825 29.9194 15.0174 30.0097C14.5424 30.3036 14.1506 30.5304 13.9361 30.6227C13.5943 30.7694 12.9819 31.0179 12.2809 31.3349C12.7667 31.6472 13.507 32.0756 14.1147 32.2223C15.1115 32.4619 15.55 33.1422 15.55 33.1422V33.1415Z" fill="#9CB25E"/>
<defs>
<filter id="filter0_d_1189_1865" x="6" y="13" width="41.4158" height="30" filterUnits="userSpaceOnUse" color-interpolation-filters="sRGB">
<feFlood flood-opacity="0" result="BackgroundImageFix"/>
<feColorMatrix in="SourceAlpha" type="matrix" values="0 0 0 0 0 0 0 0 0 0 0 0 0 0 0 0 0 0 127 0" result="hardAlpha"/>
<feOffset dy="2"/>
<feComposite in2="hardAlpha" operator="out"/>
<feColorMatrix type="matrix" values="0 0 0 0 0 0 0 0 0 0 0 0 0 0 0 0 0 0 0.25 0"/>
<feBlend mode="normal" in2="BackgroundImageFix" result="effect1_dropShadow_1189_1865"/>
<feBlend mode="normal" in="SourceGraphic" in2="effect1_dropShadow_1189_1865" result="shape"/>
</filter>
</defs>
</svg>
