<svg width="64" height="64" viewBox="0 0 64 64" fill="none" xmlns="http://www.w3.org/2000/svg">
<path fill-rule="evenodd" clip-rule="evenodd" d="M25.2437 7H38.7587C43.4664 7 47.3208 10.8544 47.3208 15.5621V18.8341C53.0341 20.661 57.2063 26.1089 57.2063 32.4998V43.6708C57.2063 51.5463 50.8705 57.9899 43.1225 57.9899H20.8787C13.1307 57.9899 6.79492 51.5463 6.79492 43.6708V32.4998C6.79492 26.1085 10.9677 20.6602 16.6816 18.8337V15.5621C16.6816 10.8544 20.5361 7 25.2437 7ZM21.203 18.1807H42.8092V16.3859C42.8092 13.6594 40.5829 11.4331 37.8564 11.4331H26.1755C23.4391 11.4331 21.203 13.6692 21.203 16.4055V18.1807ZM10.718 35.8208V43.6708C10.718 49.3984 15.2687 54.0669 20.8787 54.0669H43.1225C48.7227 54.0669 53.2832 49.4082 53.2832 43.6708V35.8206C50.7204 37.6621 47.6006 38.7473 44.2404 38.7473H34.6429C34.7101 38.9745 34.7462 39.215 34.7462 39.4639V39.7287C34.7462 41.1208 33.6177 42.2493 32.2256 42.2493H31.7745C30.3824 42.2493 29.2539 41.1208 29.2539 39.7287V39.4639C29.2539 39.215 29.29 38.9745 29.3572 38.7473H19.7605C16.4005 38.7473 13.2807 37.6622 10.718 35.8208Z" fill="url(#paint0_linear_2001_5272)"/>
<defs>
<linearGradient id="paint0_linear_2001_5272" x1="13.4733" y1="10.5975" x2="36.5783" y2="59.6968" gradientUnits="userSpaceOnUse">
<stop stop-color="white"/>
<stop offset="1" stop-color="#5867FE"/>
</linearGradient>
</defs>
</svg>

