<svg width="56" height="56" viewBox="0 0 56 56" fill="none" xmlns="http://www.w3.org/2000/svg">
<g filter="url(#filter0_d_1363_5751)">
<path d="M46.1621 26.8321C45.4915 19.6552 41.0437 16.3319 38.1379 14.9938C37.6047 14.748 37.1229 14.5694 36.7264 14.4459C36.1261 14.2592 35.1943 14.1302 34.0663 14.0609C30.3905 13.8348 24.6251 14.2368 21.4007 15.2864C17.1869 16.6578 15.6799 19.3633 15.7503 22.8143C15.7902 24.7899 15.5087 26.881 15.2604 28.3081C15.1731 28.8078 15.0905 29.226 15.0269 29.5295C14.9552 29.8724 14.9085 30.0679 14.9085 30.0679C14.9444 30.0482 14.9802 30.0285 15.0161 30.0095C14.541 30.3035 14.1492 30.5302 13.9347 30.6226C13.593 30.7692 12.9806 31.0177 12.2795 31.3348C11.1021 31.8677 9.67361 32.5955 8.85413 33.3674C8.35 33.8427 7.86413 34.2996 7.51632 34.7701C7.20165 35.1958 7 35.6323 7 36.1021C7.00068 36.7342 7.75586 37.2482 8.38654 37.2319L9.65601 37.2882C10.531 37.3269 11.4086 37.2258 12.2464 36.9698C13.0537 36.7234 13.838 36.3635 14.4971 35.9487L17.2525 34.2147L17.2559 34.2127C17.666 34.3444 18.0538 34.4951 18.4232 34.6608C22.5456 36.5081 24.3842 40.1981 29.3761 39.9917C29.6225 39.9815 29.8613 39.9605 30.0948 39.9299C30.8067 39.8376 31.457 39.6563 32.0498 39.4119C34.6009 38.3623 36.0767 36.1578 36.7318 34.931C37.1919 35.0905 37.6663 35.2318 38.1454 35.356C41.7603 36.297 45.633 36.2997 45.633 36.2997C45.633 36.2997 46.9559 35.3255 46.1621 26.8321Z" fill="#342315"/>
<path d="M36.8749 13.9684L36.8751 13.9685C37.2919 14.0984 37.7939 14.2846 38.3471 14.5396C41.3613 15.9277 45.9679 19.3793 46.66 26.7856C47.0588 31.0534 46.9302 33.4704 46.6875 34.8382C46.566 35.5237 46.4134 35.9596 46.2748 36.2377C46.2052 36.3776 46.138 36.4795 46.0785 36.5538C46.0487 36.591 46.0209 36.6212 45.9957 36.6456C45.9832 36.6578 45.9713 36.6686 45.9602 36.678C45.9546 36.6827 45.9493 36.687 45.9442 36.6911L45.9366 36.6969L45.933 36.6997L45.9312 36.701C45.9303 36.7017 45.9295 36.7023 45.633 36.2997M36.8749 13.9684L38.1454 35.356M36.8749 13.9684C36.2153 13.7633 35.2344 13.6317 34.0969 13.5619C30.3872 13.3337 24.5525 13.7346 21.2459 14.8109C19.0629 15.5214 17.5307 16.5949 16.5592 17.9839C15.5883 19.3721 15.2137 21.0236 15.2504 22.8244L36.8749 13.9684ZM45.633 36.2997C45.6326 36.7997 45.6326 36.7997 45.6325 36.7997H45.6322L45.6314 36.7997L45.6288 36.7997L45.6195 36.7997L45.5843 36.7994C45.5634 36.7993 45.5357 36.799 45.5017 36.7985C45.4862 36.7983 45.4693 36.798 45.451 36.7977C45.3352 36.7957 45.1667 36.7919 44.9536 36.7843C44.5275 36.7691 43.9224 36.7389 43.2033 36.679C41.7679 36.5594 39.8649 36.3203 38.0194 35.8399M45.633 36.2997L45.9295 36.7023L45.7971 36.7998L45.6326 36.7997L45.633 36.2997ZM38.0194 35.8399L38.1454 35.356M38.0194 35.8399C38.0196 35.8399 38.0197 35.84 38.0199 35.84L38.1454 35.356M38.0194 35.8399C37.6657 35.7481 37.3135 35.6471 36.9668 35.5362M38.1454 35.356C37.6663 35.2318 37.1919 35.0905 36.7318 34.931M36.9668 35.5362C37.0428 35.4053 37.1114 35.2815 37.1728 35.1665L36.7318 34.931M36.9668 35.5362C36.2065 36.8448 34.7043 38.8603 32.2403 39.8741M36.9668 35.5362C36.833 35.4934 36.7 35.4492 36.568 35.4034L36.7318 34.931M36.7318 34.931L32.2403 39.8741M32.2403 39.8741L32.0498 39.4119L32.24 39.8743C32.2401 39.8742 32.2402 39.8742 32.2403 39.8741ZM32.2403 39.8741C31.6087 40.1346 30.9162 40.3275 30.1597 40.4257M32.2403 39.8741L30.1597 40.4257M7 36.1021C7 35.6323 7.20165 35.1958 7.51632 34.7701C7.86148 34.3032 8.34259 33.8497 8.8426 33.3783L8.85413 33.3674C9.67361 32.5955 11.1021 31.8677 12.2795 31.3348C12.7892 31.1042 13.2521 30.91 13.5981 30.7647C13.728 30.7102 13.8415 30.6626 13.9347 30.6226M7 36.1021L36.7264 14.4459C36.1261 14.2592 35.1943 14.1302 34.0663 14.0609C30.3905 13.8348 24.6251 14.2368 21.4007 15.2864C17.1869 16.6578 15.6799 19.3633 15.7503 22.8143C15.7902 24.7899 15.5087 26.881 15.2604 28.3081C15.1731 28.8078 15.0905 29.226 15.0269 29.5295C14.9981 29.667 14.9734 29.7809 14.9541 29.8679L14.7819 29.5677C14.7428 29.5885 14.7042 29.6097 14.6692 29.6289L14.6679 29.6296L14.6708 29.635C14.5995 29.6788 14.5312 29.7204 14.4659 29.7597M7 36.1021C7.00068 36.7342 7.75586 37.2482 8.38654 37.2319L7 36.1021ZM13.9347 30.6226C14.0281 30.5824 14.155 30.5168 14.3077 30.4312L14.4222 29.9518L14.4222 29.9518L14.4222 29.9518L14.4222 29.9517L14.4222 29.9516L14.4225 29.9502L14.424 29.9442L14.4299 29.9189C14.4351 29.8963 14.4429 29.8622 14.453 29.8175C14.457 29.7999 14.4613 29.7806 14.4659 29.7597M13.9347 30.6226L13.7376 30.1631M13.9347 30.6226L13.737 30.1633M14.4659 29.7597C14.4848 29.6746 14.5091 29.5627 14.5375 29.4271L14.5375 29.4269C14.6001 29.1286 14.6815 28.716 14.7678 28.2224C15.0139 26.8081 15.2894 24.7533 15.2504 22.8245L13.7376 30.1631M14.4659 29.7597C14.1289 29.9627 13.8755 30.1036 13.7376 30.1631M13.7376 30.1631L13.737 30.1633M13.737 30.1633C13.6487 30.2012 13.5388 30.2473 13.4117 30.3007C13.065 30.4462 12.5901 30.6455 12.0735 30.8792L12.0734 30.8792M13.737 30.1633L12.0734 30.8792M12.0734 30.8792C10.9005 31.4101 9.39903 32.1673 8.51129 33.0035L8.51116 33.0036M12.0734 30.8792L8.51116 33.0036M8.51116 33.0036L8.48077 33.0323C7.99516 33.49 7.48629 33.9696 7.11425 34.4729L7.11424 34.4729M8.51116 33.0036L7.11424 34.4729M7.11424 34.4729C6.76693 34.9427 6.5 35.4829 6.5 36.1021L6.5 36.1027M7.11424 34.4729L6.5 36.1027M6.5 36.1027C6.50056 36.6251 6.80897 37.0431 7.15261 37.3068C7.49349 37.5684 7.94154 37.7383 8.38032 37.7321L9.63384 37.7877L9.63392 37.7877M6.5 36.1027L9.63392 37.7877M9.63392 37.7877C10.5618 37.8288 11.4966 37.7217 12.3925 37.448C13.2408 37.189 14.0657 36.811 14.7634 36.3719C14.7634 36.3719 14.7634 36.3719 14.7634 36.3719L17.3221 34.7617C17.6336 34.8693 17.9317 34.9884 18.2187 35.117L18.2188 35.1171M9.63392 37.7877L18.2188 35.1171M18.2188 35.1171C19.657 35.7616 20.7827 36.6212 21.9204 37.49M18.2188 35.1171L21.9204 37.49M21.9204 37.49C22.367 37.8311 22.8155 38.1736 23.2854 38.505M21.9204 37.49L23.2854 38.505M23.2854 38.505C24.9325 39.6666 26.7485 40.6008 29.3968 40.4913M23.2854 38.505L29.3968 40.4913M29.3968 40.4913C29.6583 40.4805 29.9119 40.4581 30.1597 40.4257M29.3968 40.4913L30.1597 40.4257" stroke="#342315" stroke-miterlimit="10"/>
</g>
<path d="M36.729 14.4455C36.1288 14.2588 35.197 14.1298 34.0689 14.0605C29.6326 14.4747 24.037 15.7626 21.2788 16.709C17.5516 17.9874 16.7233 20.7045 16.5636 23.1011C16.454 24.7475 15.715 27.0368 15.263 28.3077C15.1757 28.8074 15.0932 29.2256 15.0296 29.5291C14.9578 29.872 14.9111 30.0675 14.9111 30.0675C14.947 30.0478 14.9829 30.0281 15.0187 30.0091C15.1838 29.9195 15.349 29.8346 15.5147 29.7538C17.3344 28.8672 19.1635 28.527 20.9438 28.5508C21.1333 27.9588 21.3911 27.4672 21.7897 27.0198C22.7858 25.9003 24.6616 25.0496 28.5505 23.5634C32.4117 22.0874 35.919 18.0485 38.1413 14.9941C37.608 14.7483 37.1262 14.5697 36.7297 14.4462L36.729 14.4455Z" fill="#9CB25E"/>
<path d="M46.1635 26.8337C45.4929 19.6568 41.045 16.3335 38.1393 14.9954C35.9171 18.0505 32.4098 22.0894 28.5486 23.5647C24.6603 25.0509 22.7845 25.9009 21.7878 27.0211C21.3892 27.4692 21.1314 27.9601 20.9419 28.5521C21.059 28.5534 21.176 28.5575 21.2931 28.5623C21.3263 28.5636 21.3594 28.565 21.3926 28.567C21.4839 28.5711 21.5746 28.5765 21.666 28.5826C21.6944 28.5847 21.7228 28.586 21.7512 28.5881C21.8663 28.5969 21.9813 28.6064 22.0957 28.6179C22.1193 28.62 22.143 28.6234 22.1667 28.6254C22.2601 28.6349 22.3535 28.6458 22.4469 28.6573C22.4807 28.6614 22.5145 28.6655 22.5484 28.6702C22.6478 28.6831 22.7473 28.6974 22.8468 28.7123C22.8623 28.7143 22.8786 28.7171 22.8941 28.7191C23.0078 28.7368 23.1208 28.7558 23.2338 28.7754C23.265 28.7809 23.2961 28.787 23.3272 28.7924C23.4145 28.8087 23.5011 28.825 23.5878 28.8427C23.6189 28.8488 23.65 28.8549 23.6805 28.8617C23.7921 28.8848 23.9038 28.9085 24.0147 28.9343C24.0303 28.9377 24.0459 28.9418 24.0621 28.9452C24.1589 28.9676 24.2557 28.9907 24.3524 29.0151C24.3856 29.0233 24.4187 29.0321 24.4519 29.0402C24.5405 29.0626 24.6299 29.0864 24.7178 29.1102C24.7415 29.1163 24.7645 29.1224 24.7882 29.1292C24.8972 29.159 25.0061 29.1903 25.1144 29.2222C25.1414 29.2303 25.1692 29.2385 25.1963 29.2466C25.2808 29.2724 25.3654 29.2982 25.45 29.3247C25.4818 29.3349 25.5129 29.3444 25.5447 29.3546C25.651 29.3885 25.7572 29.4231 25.8628 29.4591C25.8648 29.4591 25.8662 29.4605 25.8682 29.4612C25.9758 29.4978 26.082 29.5352 26.189 29.5732C26.2194 29.584 26.2505 29.5949 26.281 29.6065C26.3635 29.6363 26.4461 29.6669 26.5287 29.6974C26.5544 29.7069 26.5808 29.7171 26.6065 29.7266C26.7107 29.766 26.8149 29.8067 26.9184 29.8475C26.9394 29.8556 26.9604 29.8644 26.9814 29.8726C27.0666 29.9065 27.1512 29.9412 27.2358 29.9758C27.2656 29.988 27.2953 30.0002 27.3244 30.0124C27.4151 30.0498 27.5051 30.0878 27.5944 30.1265C27.6073 30.1319 27.6208 30.1374 27.6337 30.1435C27.7359 30.1876 27.8374 30.2324 27.9382 30.2772C27.9646 30.2888 27.9903 30.301 28.016 30.3125C28.0952 30.3485 28.1744 30.3845 28.2535 30.4205C28.2793 30.432 28.3043 30.4436 28.3293 30.4558C28.4295 30.5019 28.529 30.5488 28.6278 30.5963C28.6365 30.6004 28.646 30.6051 28.6548 30.6092C28.7455 30.6527 28.8348 30.6961 28.9248 30.7403C28.9505 30.7525 28.9756 30.7654 29.0013 30.7783C29.0838 30.819 29.1664 30.8604 29.2483 30.9018C29.2638 30.9093 29.2794 30.9174 29.2943 30.9249C29.3917 30.9745 29.4885 31.024 29.5839 31.0736C29.6015 31.0831 29.6191 31.0919 29.6374 31.1014C29.7172 31.1429 29.7971 31.1849 29.8762 31.227C29.8972 31.2386 29.9189 31.2494 29.9399 31.261C30.13 31.3621 30.3175 31.464 30.5015 31.5658C30.5191 31.5753 30.5367 31.5855 30.5543 31.595C30.6355 31.6398 30.716 31.6853 30.7959 31.7301C30.8074 31.7369 30.8196 31.743 30.8311 31.7498C30.9251 31.8028 31.0178 31.855 31.1099 31.908C31.1126 31.9094 31.1146 31.9107 31.1166 31.9121C31.2053 31.963 31.2926 32.0132 31.3799 32.0635C31.3914 32.0703 31.4029 32.077 31.4144 32.0838C31.5971 32.1897 31.7764 32.295 31.9523 32.3989C32.2623 31.9073 32.5086 31.578 32.5086 31.578L37.6068 33.4009L38.1481 35.3562C41.763 36.2972 45.6357 36.2999 45.6357 36.2999C45.6357 36.2999 46.9586 35.3264 46.1649 26.8331L46.1635 26.8337Z" fill="#748250"/>
<path d="M28.3152 34.9502C28.3152 34.9502 20.0758 33.1565 20.6199 29.9588C20.7105 29.4272 20.8093 28.9649 20.942 28.5514C19.1616 28.5269 17.3325 28.8678 15.5129 29.7544C16.059 30.0437 16.3865 30.3424 16.3865 30.3424C16.3865 30.3424 17.0639 31.9419 16.9448 32.9019C16.825 33.8619 15.5494 33.1416 15.5494 33.1416C15.5494 33.1416 15.1109 32.462 14.1142 32.2216C13.5065 32.0757 12.7662 31.6466 12.2803 31.3343C11.1029 31.8672 9.67438 32.5951 8.85491 33.367C8.35077 33.8422 7.86491 34.2991 7.51709 34.7696C9.86047 34.0676 13.3082 33.3446 16.3229 33.9359C16.6592 34.0018 16.9684 34.0961 17.2533 34.2143L17.2567 34.2122C17.6668 34.344 18.0545 34.4947 18.424 34.6603C22.5464 36.5077 24.385 40.1976 29.3769 39.9912C29.6232 39.981 29.8621 39.96 30.0956 39.9295C24.0317 39.279 28.3152 34.9502 28.3152 34.9502Z" fill="#CBDD9B"/>
<path d="M31.9516 32.3988C31.7763 32.2949 31.597 32.1897 31.4136 32.0838C31.4021 32.077 31.3906 32.0702 31.3791 32.0634C31.2918 32.0131 31.2045 31.9622 31.1159 31.912C31.1139 31.9106 31.1111 31.9093 31.1091 31.9079C31.0171 31.855 30.9244 31.8027 30.8303 31.7497C30.8188 31.7429 30.8073 31.7368 30.7951 31.73C30.7153 31.6852 30.6348 31.6397 30.5536 31.5949C30.536 31.5854 30.5184 31.5752 30.5008 31.5657C30.3167 31.4639 30.1293 31.3621 29.9391 31.2609C29.9181 31.2494 29.8965 31.2385 29.8755 31.227C29.7963 31.1849 29.7165 31.1434 29.6366 31.1014C29.619 31.0919 29.6014 31.083 29.5832 31.0735C29.4871 31.024 29.3903 30.9744 29.2936 30.9248C29.278 30.9174 29.2631 30.9092 29.2475 30.9018C29.1657 30.8603 29.0831 30.8189 29.0005 30.7782C28.9748 30.7653 28.9498 30.7531 28.9241 30.7402C28.8348 30.696 28.7448 30.6526 28.6541 30.6091C28.6453 30.6051 28.6358 30.6003 28.627 30.5962C28.5282 30.5487 28.4287 30.5019 28.3286 30.4557C28.3036 30.4442 28.2778 30.4326 28.2528 30.4204C28.1743 30.3837 28.0951 30.3478 28.0153 30.3124C27.9896 30.3009 27.9632 30.2887 27.9375 30.2771C27.8366 30.2323 27.7351 30.1875 27.633 30.1434C27.6201 30.138 27.6066 30.1325 27.5937 30.1264C27.5044 30.0877 27.4144 30.0497 27.3237 30.0124C27.2939 30.0001 27.2642 29.9879 27.2351 29.9757C27.1505 29.9411 27.0659 29.9065 26.9806 29.8725C26.9596 29.8644 26.9387 29.8555 26.9177 29.8474C26.8142 29.8067 26.7099 29.7659 26.6057 29.7265C26.58 29.7164 26.5536 29.7068 26.5279 29.6973C26.4454 29.6668 26.3628 29.6362 26.2802 29.6064C26.2498 29.5955 26.2193 29.584 26.1882 29.5731C26.082 29.5351 25.9751 29.4977 25.8675 29.4611C25.8654 29.4611 25.8641 29.4597 25.8621 29.459C25.7565 29.4231 25.6509 29.3884 25.544 29.3545C25.5129 29.3443 25.4811 29.3348 25.4493 29.3246C25.3647 29.2981 25.2801 29.2723 25.1955 29.2465C25.1684 29.2384 25.1407 29.2302 25.1136 29.2221C25.0054 29.1902 24.8964 29.159 24.7875 29.1291C24.7638 29.123 24.7408 29.1162 24.7171 29.1101C24.6284 29.0863 24.5398 29.0626 24.4512 29.0401C24.418 29.032 24.3848 29.0232 24.3517 29.015C24.2556 28.9913 24.1588 28.9675 24.0614 28.9451C24.0458 28.9417 24.0303 28.9376 24.014 28.9342C23.903 28.9091 23.7914 28.8847 23.6797 28.8616C23.6486 28.8555 23.6175 28.8494 23.587 28.8426C23.5004 28.8249 23.4131 28.8086 23.3258 28.7923C23.2947 28.7869 23.2642 28.7808 23.2331 28.7754C23.1201 28.755 23.0071 28.736 22.8934 28.719C22.8778 28.7163 22.8623 28.7143 22.846 28.7122C22.7466 28.6973 22.6471 28.683 22.5476 28.6701C22.5138 28.6661 22.48 28.6613 22.4461 28.6572C22.3527 28.6457 22.2594 28.6348 22.166 28.6253C22.1423 28.6226 22.1186 28.6199 22.0949 28.6179C21.9806 28.6063 21.8655 28.5968 21.7505 28.588C21.7288 28.5866 21.7072 28.5853 21.6855 28.5839C21.5874 28.5778 21.49 28.5717 21.3918 28.5669C21.3587 28.5656 21.3255 28.5635 21.2924 28.5622C21.1753 28.5574 21.0582 28.554 20.9412 28.552C20.8085 28.9655 20.7097 29.4278 20.6191 29.9594C20.2137 32.3424 24.6866 33.9454 26.9921 34.608C27.5795 34.7764 27.8346 35.4668 27.5024 35.9808C26.6457 37.304 25.9331 39.484 30.0954 39.9301C30.8073 39.8377 31.4576 39.6565 32.0504 39.412C31.8041 38.137 31.4522 36.8471 30.9799 36.3005C30.2355 35.4383 31.2539 33.5061 31.9509 32.3988H31.9516Z" fill="#9CB25E"/>
<path d="M27.5938 30.1266C27.6066 30.132 27.6201 30.1374 27.633 30.1436C27.6201 30.1381 27.6066 30.1327 27.5938 30.1266Z" fill="#CBDD9B"/>
<path d="M24.7178 29.1111C24.7415 29.1172 24.7645 29.1233 24.7881 29.1301C24.7645 29.124 24.7415 29.1172 24.7178 29.1111Z" fill="#CBDD9B"/>
<path d="M27.2344 29.9763C27.2641 29.9885 27.2939 30.0008 27.323 30.013C27.2932 30.0008 27.2635 29.9885 27.2344 29.9763Z" fill="#CBDD9B"/>
<path d="M25.8613 29.4594C25.8613 29.4594 25.8653 29.4609 25.8676 29.4617C25.8653 29.4617 25.8637 29.4601 25.8613 29.4594Z" fill="#CBDD9B"/>
<path d="M21.2939 28.563C21.3271 28.5643 21.3603 28.5657 21.3934 28.5677C21.3603 28.5664 21.3271 28.5643 21.2939 28.563Z" fill="#CBDD9B"/>
<path d="M21.666 28.5813C21.6944 28.5833 21.7229 28.5847 21.7513 28.5867C21.7229 28.5847 21.6944 28.5827 21.666 28.5813Z" fill="#CBDD9B"/>
<path d="M25.4507 29.3256C25.4825 29.3357 25.5136 29.3452 25.5454 29.3554C25.5143 29.3452 25.4825 29.3357 25.4507 29.3256Z" fill="#CBDD9B"/>
<path d="M26.188 29.573C26.2184 29.5839 26.2496 29.5947 26.28 29.6063C26.2496 29.5954 26.2191 29.5839 26.188 29.573Z" fill="#CBDD9B"/>
<path d="M26.5288 29.6976C26.5545 29.7071 26.5809 29.7173 26.6066 29.7268C26.5809 29.7166 26.5545 29.7071 26.5288 29.6976Z" fill="#CBDD9B"/>
<path d="M23.5884 28.8435C23.6195 28.8496 23.6506 28.8557 23.6811 28.8625C23.65 28.8564 23.6188 28.8503 23.5884 28.8435Z" fill="#CBDD9B"/>
<path d="M30.7959 31.7305C30.8074 31.7373 30.8196 31.7434 30.8311 31.7502C30.8196 31.7434 30.8081 31.7373 30.7959 31.7305Z" fill="#CBDD9B"/>
<path d="M31.1094 31.9082C31.1094 31.9082 31.1142 31.911 31.1162 31.9123C31.1142 31.911 31.1114 31.9096 31.1094 31.9082Z" fill="#CBDD9B"/>
<path d="M24.0156 28.9333C24.0312 28.9367 24.0468 28.9408 24.063 28.9442C24.0474 28.9408 24.0319 28.9367 24.0156 28.9333Z" fill="#CBDD9B"/>
<path d="M29.5845 31.0742C29.6021 31.0837 29.6197 31.0925 29.6379 31.1021C29.6203 31.0925 29.6027 31.0837 29.5845 31.0742Z" fill="#CBDD9B"/>
<path d="M22.0967 28.618C22.1204 28.6201 22.144 28.6235 22.1677 28.6255C22.144 28.6228 22.1204 28.6201 22.0967 28.618Z" fill="#CBDD9B"/>
<path d="M22.8462 28.7115C22.8618 28.7136 22.878 28.7163 22.8936 28.7183C22.878 28.7156 22.8624 28.7136 22.8462 28.7115Z" fill="#CBDD9B"/>
<path d="M28.2534 30.4216C28.2785 30.4332 28.3042 30.4447 28.3292 30.4569C28.3042 30.4454 28.2785 30.4339 28.2534 30.4216Z" fill="#CBDD9B"/>
<path d="M28.9243 30.7406C28.95 30.7528 28.9751 30.7657 29.0008 30.7786C28.9751 30.7657 28.95 30.7535 28.9243 30.7406Z" fill="#CBDD9B"/>
<path d="M27.9385 30.2769C27.9649 30.2884 27.9906 30.3006 28.0163 30.3122C27.9906 30.3006 27.9642 30.2884 27.9385 30.2769Z" fill="#CBDD9B"/>
<path d="M29.249 30.9019C29.2646 30.9093 29.2802 30.9175 29.295 30.9249C29.2795 30.9175 29.2646 30.9093 29.249 30.9019Z" fill="#CBDD9B"/>
<path d="M34.4746 33.9043C34.4861 33.9104 34.4969 33.9172 34.5084 33.9233C34.4969 33.9172 34.4861 33.9111 34.4746 33.9043Z" fill="#748250"/>
<path d="M34.792 34.0803C34.8103 34.0905 34.8285 34.1 34.8468 34.1102C34.8285 34.1007 34.8103 34.0905 34.792 34.0803Z" fill="#748250"/>
<path d="M34.9492 34.1665C34.9648 34.1747 34.981 34.1835 34.9959 34.1916C34.9803 34.1835 34.9648 34.1753 34.9492 34.1665Z" fill="#748250"/>
<path d="M34.0659 33.666C34.091 33.681 34.1167 33.6959 34.1417 33.7108C34.1167 33.6959 34.0916 33.681 34.0659 33.666Z" fill="#748250"/>
<path d="M33.8828 33.5597C33.9112 33.5767 33.9397 33.5936 33.9674 33.6099C33.939 33.593 33.9112 33.5767 33.8828 33.5597Z" fill="#748250"/>
<path d="M32.5089 31.5782C32.5089 31.5782 32.2626 31.9075 31.9526 32.3991C32.6253 32.7976 33.2424 33.1764 33.7946 33.5064C33.8244 33.524 33.8541 33.5417 33.8832 33.5593C33.9117 33.5763 33.9401 33.5933 33.9678 33.6096C34.0003 33.6293 34.0328 33.6483 34.0653 33.6673C34.091 33.6822 34.116 33.6972 34.1411 33.7121C34.1783 33.7338 34.2148 33.7555 34.2514 33.7766C34.271 33.7881 34.2913 33.7997 34.3109 33.8112C34.3657 33.8431 34.4205 33.8744 34.474 33.9049C34.4855 33.911 34.4963 33.9178 34.5078 33.9239C34.5505 33.9484 34.5931 33.9721 34.635 33.9952C34.6533 34.0054 34.6709 34.0149 34.6892 34.0251C34.7244 34.0448 34.7589 34.0638 34.7927 34.0821C34.811 34.0923 34.8293 34.1018 34.8475 34.112C34.8827 34.131 34.9165 34.1493 34.9504 34.167C34.9659 34.1751 34.9822 34.184 34.9971 34.1921C35.0458 34.2179 35.0938 34.2423 35.1405 34.2661C35.6393 34.518 36.1759 34.7386 36.7335 34.9321C37.1936 35.0917 37.668 35.2329 38.1471 35.3571L37.6057 33.4018L32.5075 31.5789L32.5089 31.5782Z" fill="#748250"/>
<path d="M36.7332 34.9325C36.1763 34.739 35.6397 34.5183 35.1403 34.2665C35.0936 34.2427 35.0455 34.2176 34.9968 34.1924C34.9813 34.1843 34.9657 34.1762 34.9501 34.1673C34.9163 34.149 34.8818 34.1313 34.8473 34.1123C34.829 34.1028 34.8107 34.0926 34.7925 34.0825C34.7579 34.0641 34.7234 34.0444 34.6889 34.0254C34.6707 34.0152 34.6531 34.0057 34.6348 33.9956C34.5928 33.9725 34.5509 33.948 34.5076 33.9243C34.4961 33.9182 34.4852 33.9121 34.4737 33.9053C34.4203 33.8747 34.3661 33.8435 34.3107 33.8116C34.291 33.8 34.2707 33.7885 34.2511 33.7769C34.2146 33.7559 34.178 33.7342 34.1408 33.7124C34.1158 33.6975 34.0907 33.6826 34.065 33.6676C34.0325 33.6486 34 33.6296 33.9676 33.6099C33.9391 33.593 33.9114 33.5767 33.883 33.5597C33.8539 33.542 33.8241 33.5244 33.7943 33.5067C33.2415 33.1768 32.625 32.7979 31.9524 32.3994C31.2554 33.5067 30.2363 35.4389 30.9813 36.3012C31.4537 36.8477 31.8055 38.1377 32.0519 39.4127C34.603 38.3631 36.0788 36.1586 36.7339 34.9318L36.7332 34.9325Z" fill="#748250"/>
<path d="M34.9971 34.1921C35.0458 34.2179 35.0938 34.2424 35.1405 34.2661C35.0938 34.2424 35.0458 34.2173 34.9971 34.1921Z" fill="#748250"/>
<path d="M34.3096 33.8109C34.3644 33.8428 34.4192 33.8741 34.4727 33.9046C34.4192 33.8741 34.3651 33.8428 34.3096 33.8109Z" fill="#748250"/>
<path d="M34.8467 34.1115C34.8812 34.1305 34.9157 34.1488 34.9495 34.1664C34.9157 34.1481 34.8812 34.1305 34.8467 34.1115Z" fill="#748250"/>
<path d="M34.5078 33.9244C34.5504 33.9489 34.5931 33.9726 34.635 33.9957C34.5931 33.9726 34.5511 33.9482 34.5078 33.9244Z" fill="#748250"/>
<path d="M34.689 34.0253C34.7242 34.045 34.7587 34.064 34.7925 34.0823C34.758 34.064 34.7235 34.0443 34.689 34.0253Z" fill="#748250"/>
<path d="M7.51827 34.7711C7.20293 35.1968 7.00195 35.6333 7.00195 36.1032C7.00263 36.7352 7.75782 37.2492 8.38849 37.2329L9.65797 37.2892C10.5329 37.3279 11.4106 37.2268 12.2483 36.9708C13.0556 36.7244 13.8399 36.3645 14.499 35.9497L17.2545 34.2158C16.9696 34.0983 16.6604 34.0033 16.3241 33.9374C13.3094 33.3461 9.86165 34.0691 7.51827 34.7711Z" fill="#4C5335"/>
<path d="M23.725 24.7867L22.7093 24.2626L21.7038 24.8044L21.8872 23.674L21.2788 22.8477L22.2661 22.771L22.687 21.4016L23.0984 22.8498L24.1013 22.8212L23.522 23.659L23.725 24.7867Z" fill="#E61C15"/>
<path d="M25.3773 25.1277C26.5263 24.1229 25.6541 23.1134 25.6541 23.1134C26.3064 22.0746 25.4037 22.463 25.4037 22.463C25.8063 20.3332 23.2444 19.2252 23.0509 19.1451V19.1396C23.0509 19.1396 23.0482 19.1403 23.0434 19.1417C23.0407 19.1403 23.0387 19.1396 23.0387 19.1396V19.143C22.8411 19.2028 20.2602 20.0284 20.4273 22.188C20.4273 22.188 19.5977 21.7039 20.1188 22.8072C20.1188 22.8072 19.1734 23.7169 20.177 24.8392C20.177 24.8392 19.4055 24.8779 20.3123 25.5942C20.3123 25.5942 19.193 26.1746 22.0873 27.0267C22.0873 27.0267 22.0703 27.322 22.5927 27.3716V27.375C23.1706 27.3987 23.1842 27.0885 23.1842 27.0885C26.2435 26.5637 25.1581 25.8617 25.1581 25.8617C26.165 25.2506 25.3773 25.1264 25.3773 25.1264V25.1277ZM24.3799 24.3368C24.2486 24.9831 23.7242 25.6824 22.7619 25.6824C21.7997 25.6824 21.0201 24.9003 21.0201 23.9349C21.0201 23.8738 21.0235 23.814 21.0296 23.7543C21.1751 21.7515 22.8431 20.0311 22.8431 20.0311C24.0091 21.4032 24.2351 22.5356 24.3379 23.2132C24.388 23.6911 24.4056 24.2071 24.3792 24.3361L24.3799 24.3368Z" fill="#EEC161"/>
<path d="M21.279 16.7094C24.0378 15.763 29.6334 14.4757 34.0691 14.0609C30.3933 13.8348 24.6279 14.2368 21.4035 15.2864C17.1897 16.6578 15.6827 19.3633 15.7531 22.8143C15.793 24.7899 15.5115 26.881 15.2632 28.3081C15.7152 27.0372 16.4548 24.7478 16.5638 23.1015C16.7228 20.7049 17.5518 17.9885 21.279 16.7094Z" fill="#D3E4A5"/>
<path d="M15.5499 33.1417C15.5499 33.1417 16.8254 33.8613 16.9452 32.902C17.065 31.942 16.3869 30.3425 16.3869 30.3425C16.3869 30.3425 16.0594 30.0437 15.5133 29.7545C15.3482 29.8353 15.1824 29.9195 15.0173 30.0098C14.5423 30.3038 14.1505 30.5305 13.9359 30.6229C13.5942 30.7695 12.9818 31.018 12.2808 31.335C12.7666 31.6474 13.5069 32.0758 14.1146 32.2224C15.1114 32.4621 15.5499 33.1423 15.5499 33.1423V33.1417Z" fill="#9CB25E"/>
<defs>
<filter id="filter0_d_1363_5751" x="6" y="13.0001" width="41.416" height="29.9999" filterUnits="userSpaceOnUse" color-interpolation-filters="sRGB">
<feFlood flood-opacity="0" result="BackgroundImageFix"/>
<feColorMatrix in="SourceAlpha" type="matrix" values="0 0 0 0 0 0 0 0 0 0 0 0 0 0 0 0 0 0 127 0" result="hardAlpha"/>
<feOffset dy="2"/>
<feComposite in2="hardAlpha" operator="out"/>
<feColorMatrix type="matrix" values="0 0 0 0 0 0 0 0 0 0 0 0 0 0 0 0 0 0 0.25 0"/>
<feBlend mode="normal" in2="BackgroundImageFix" result="effect1_dropShadow_1363_5751"/>
<feBlend mode="normal" in="SourceGraphic" in2="effect1_dropShadow_1363_5751" result="shape"/>
</filter>
</defs>
</svg>
