<svg width="56" height="56" viewBox="0 0 56 56" fill="none" xmlns="http://www.w3.org/2000/svg">
<g filter="url(#filter0_d_1363_6417)">
<path d="M44.0217 19.7486C43.9631 19.599 43.8851 19.4494 43.7876 19.3194C43.4494 18.8642 42.9162 18.5585 42.3049 18.5585H33.8316V15.2941C33.8316 14.5788 33.2464 14 32.5376 14H22.6142C21.8988 14 21.3201 14.5853 21.3201 15.2941V18.565H12.8403C12.229 18.565 11.6893 18.8707 11.3577 19.3259C11.1366 19.6315 11 20.0022 11 20.4053V39.1597C11 40.1741 11.8259 41 12.8403 41H42.3049C43.3194 41 44.1452 40.1741 44.1452 39.1597V20.4053C44.1452 20.1712 44.0932 19.9566 44.0152 19.7486H44.0217ZM24.3244 15.6842H30.8273C31.5686 15.6842 32.1734 16.289 32.1734 17.0303V18.565H22.9783V17.0303C22.9783 16.289 23.5831 15.6842 24.3244 15.6842Z" fill="#F2C57F"/>
<path d="M44.3245 19.6301C44.2576 19.4592 44.1665 19.2828 44.0481 19.1249C43.6547 18.5956 43.0286 18.2334 42.3049 18.2334H34.1568V15.2941C34.1568 14.3981 33.4249 13.6749 32.5376 13.6749H22.6142C21.7182 13.6749 20.9949 14.4068 20.9949 15.2941V18.2399H12.8403C12.1181 18.2399 11.4834 18.6011 11.0949 19.1344L11.0942 19.1353C10.8372 19.4906 10.6749 19.9269 10.6749 20.4053V39.1597C10.6749 40.3537 11.6463 41.3251 12.8403 41.3251H42.3049C43.4989 41.3251 44.4704 40.3537 44.4704 39.1597V20.4053C44.4704 20.1475 44.418 19.9141 44.343 19.6991C44.3394 19.6757 44.3333 19.6526 44.3245 19.6301ZM24.3244 16.0094H30.8273C31.3891 16.0094 31.8483 16.4686 31.8483 17.0303V18.2399H23.3035V17.0303C23.3035 16.4686 23.7627 16.0094 24.3244 16.0094Z" stroke="#352416" stroke-width="0.650289" stroke-linejoin="round"/>
</g>
<path d="M22.608 14C21.8927 14 21.314 14.5853 21.314 15.2941V18.9812C21.314 19.586 21.7302 20.0932 22.2959 20.2363C22.2049 20.0737 22.1463 19.8916 22.1463 19.69V16.4971C22.1463 15.8793 22.6536 15.3721 23.2713 15.3721H31.8812C32.4989 15.3721 33.0062 15.8793 33.0062 16.4971V19.6965C33.0062 19.8916 32.9476 20.0802 32.8566 20.2428C33.4158 20.0997 33.8385 19.5925 33.8385 18.9877V15.2941C33.8385 14.5788 33.2533 14 32.5445 14" fill="#F0AE34"/>
<path d="M33.0005 16.4964C33.0005 15.4624 32.4932 14.7211 31.8755 14.7211H23.2656C22.3552 14.7211 22.1406 15.8786 22.1406 16.4964V19.6958C22.1406 19.8909 22.1992 20.0795 22.2902 20.242C22.3942 20.268 22.4983 20.2875 22.6088 20.2875H22.973V17.0361C22.973 16.2948 23.5778 15.69 24.3191 15.69H30.822C31.5633 15.69 32.1681 16.2948 32.1681 17.0361V20.2875H32.5322C32.6428 20.2875 32.7468 20.268 32.8509 20.242C32.9419 20.0795 33.0005 19.8974 33.0005 19.6958V16.4964Z" fill="#BA8929"/>
<path d="M13.5235 19.7546C12.6326 19.7741 11.9498 20.3073 11.4751 20.8731L11.9303 26.9143C11.9303 29.0082 12.7171 30.725 14.8111 30.725H40.2309C42.3898 30.725 43.2287 28.9562 43.2287 26.7972L43.7619 19.7546C37.7533 19.7481 15.2338 19.7156 13.5235 19.7546Z" fill="#984F30"/>
<path d="M44.0217 19.7489C43.9631 19.5993 43.8851 19.4498 43.7876 19.3197L43.7551 19.7489L43.2218 26.7915C43.2218 28.9505 42.3829 30.7193 40.224 30.7193H14.8107C12.7168 30.7193 11.9299 29.0025 11.9299 26.9086L11.4747 20.8674L11.3577 19.3197C11.1366 19.6253 11 19.996 11 20.3992V39.1535C11 40.168 11.8259 40.9938 12.8403 40.9938H42.3049C43.3194 40.9938 44.1452 40.168 44.1452 39.1535V20.4057C44.1452 20.1716 44.0932 19.957 44.0152 19.7489H44.0217Z" fill="#783214"/>
<path d="M42.3126 18.5653H12.8415C12.2303 18.5653 11.6905 18.8709 11.3589 19.3261L11.4759 20.8738C11.9506 20.3016 12.6335 19.7748 13.5243 19.7553C15.2346 19.7098 37.7476 19.7423 43.7628 19.7553L43.7953 19.3261C43.4572 18.8709 42.9239 18.5653 42.3126 18.5653Z" fill="#C96A42"/>
<path d="M25.8013 32.5851C25.8013 32.9428 26.0939 33.2354 26.4516 33.2354H28.9747C29.3323 33.2354 29.625 32.9428 29.625 32.5851V30.3806H25.8013V32.5851Z" fill="#F0AE34"/>
<path d="M28.9674 29.4116H26.4442C26.0866 29.4116 25.7939 29.7043 25.7939 30.0619V30.374H29.6176V30.0619C29.6176 29.7043 29.325 29.4116 28.9674 29.4116Z" fill="#F2C57F"/>
<defs>
<filter id="filter0_d_1363_6417" x="10.3496" y="13.3497" width="34.4458" height="30.3005" filterUnits="userSpaceOnUse" color-interpolation-filters="sRGB">
<feFlood flood-opacity="0" result="BackgroundImageFix"/>
<feColorMatrix in="SourceAlpha" type="matrix" values="0 0 0 0 0 0 0 0 0 0 0 0 0 0 0 0 0 0 127 0" result="hardAlpha"/>
<feOffset dy="2"/>
<feComposite in2="hardAlpha" operator="out"/>
<feColorMatrix type="matrix" values="0 0 0 0 0 0 0 0 0 0 0 0 0 0 0 0 0 0 0.25 0"/>
<feBlend mode="normal" in2="BackgroundImageFix" result="effect1_dropShadow_1363_6417"/>
<feBlend mode="normal" in="SourceGraphic" in2="effect1_dropShadow_1363_6417" result="shape"/>
</filter>
</defs>
</svg>
