<svg width="64" height="64" viewBox="0 0 64 64" fill="none" xmlns="http://www.w3.org/2000/svg">
<path d="M32.0992 22.0303C41.5592 22.0303 49.2492 29.2003 49.2492 38.0103C49.2492 46.8203 41.5492 53.9903 32.0992 53.9903C22.6492 53.9903 14.9492 46.8203 14.9492 38.0103C14.9492 29.2003 22.6492 22.0303 32.0992 22.0303ZM32.0992 18.0303C20.4192 18.0303 10.9492 26.9803 10.9492 38.0103C10.9492 49.0403 20.4192 57.9903 32.0992 57.9903C43.7792 57.9903 53.2492 49.0403 53.2492 38.0103C53.2492 26.9803 43.7792 18.0303 32.0992 18.0303Z" fill="url(#paint0_linear_2001_5292)"/>
<path d="M32.1003 29C37.4903 29 41.8803 33.04 41.8803 38.02C41.8803 43 37.4903 47.04 32.1003 47.04C26.7103 47.04 22.3203 43 22.3203 38.02C22.3203 33.04 26.7103 29 32.1003 29ZM32.1003 25C24.4903 25 18.3203 30.83 18.3203 38.02C18.3203 45.21 24.4903 51.04 32.1003 51.04C39.7103 51.04 45.8803 45.21 45.8803 38.02C45.8803 30.83 39.7103 25 32.1003 25Z" fill="url(#paint1_linear_2001_5292)"/>
<path d="M42.2202 20.4703C42.5602 19.7203 42.7502 18.9003 42.7502 18.0203V13.3303C42.7502 10.0303 40.0502 7.32031 36.7402 7.32031H27.2502C23.9502 7.32031 21.2402 10.0203 21.2402 13.3303V18.0203C21.2402 18.9203 21.4502 19.7803 21.8102 20.5503C24.8502 18.9503 28.3502 18.0303 32.0902 18.0303C35.8302 18.0303 39.2102 18.9103 42.2202 20.4703Z" fill="url(#paint2_linear_2001_5292)"/>
<defs>
<linearGradient id="paint0_linear_2001_5292" x1="16.5531" y1="20.8495" x2="33.8651" y2="60.24" gradientUnits="userSpaceOnUse">
<stop stop-color="white"/>
<stop offset="1" stop-color="#5867FE"/>
</linearGradient>
<linearGradient id="paint1_linear_2001_5292" x1="21.9714" y1="26.8372" x2="33.2542" y2="52.5046" gradientUnits="userSpaceOnUse">
<stop stop-color="white"/>
<stop offset="1" stop-color="#5867FE"/>
</linearGradient>
<linearGradient id="paint2_linear_2001_5292" x1="24.0898" y1="8.25372" x2="28.2055" y2="22.6365" gradientUnits="userSpaceOnUse">
<stop stop-color="white"/>
<stop offset="1" stop-color="#5867FE"/>
</linearGradient>
</defs>
</svg>
