<svg width="56" height="56" viewBox="0 0 56 56" fill="none" xmlns="http://www.w3.org/2000/svg">
<path d="M0.3 28C0.3 12.7017 12.7017 0.3 28 0.3C43.2983 0.3 55.7 12.7017 55.7 28C55.7 43.2983 43.2983 55.7 28 55.7C12.7017 55.7 0.3 43.2983 0.3 28Z" stroke="#7F7F7F" stroke-width="0.6"/>
<g filter="url(#filter0_d_1189_1721)">
<path d="M44.0217 19.7486C43.9631 19.599 43.8851 19.4494 43.7876 19.3194C43.4494 18.8642 42.9162 18.5585 42.3049 18.5585H33.8316V15.2941C33.8316 14.5788 33.2464 14 32.5376 14H22.6142C21.8988 14 21.3201 14.5853 21.3201 15.2941V18.565H12.8403C12.229 18.565 11.6893 18.8707 11.3577 19.3259C11.1366 19.6315 11 20.0022 11 20.4053V39.1597C11 40.1741 11.8259 41 12.8403 41H42.3049C43.3194 41 44.1452 40.1741 44.1452 39.1597V20.4053C44.1452 20.1712 44.0932 19.9566 44.0152 19.7486H44.0217ZM24.3244 15.6842H30.8273C31.5686 15.6842 32.1734 16.289 32.1734 17.0303V18.565H22.9783V17.0303C22.9783 16.289 23.5831 15.6842 24.3244 15.6842Z" fill="#F2C57F"/>
<path d="M44.3245 19.6301C44.2576 19.4592 44.1665 19.2828 44.0481 19.1249C43.6547 18.5956 43.0286 18.2334 42.3049 18.2334H34.1568V15.2941C34.1568 14.3981 33.4249 13.6749 32.5376 13.6749H22.6142C21.7182 13.6749 20.9949 14.4068 20.9949 15.2941V18.2399H12.8403C12.1181 18.2399 11.4834 18.6011 11.0949 19.1344L11.0942 19.1353C10.8372 19.4906 10.6749 19.9269 10.6749 20.4053V39.1597C10.6749 40.3537 11.6463 41.3251 12.8403 41.3251H42.3049C43.4989 41.3251 44.4704 40.3537 44.4704 39.1597V20.4053C44.4704 20.1475 44.418 19.9141 44.343 19.6991C44.3394 19.6757 44.3333 19.6526 44.3245 19.6301ZM24.3244 16.0094H30.8273C31.3891 16.0094 31.8483 16.4686 31.8483 17.0303V18.2399H23.3035V17.0303C23.3035 16.4686 23.7627 16.0094 24.3244 16.0094Z" stroke="#352416" stroke-width="0.650289" stroke-linejoin="round"/>
</g>
<path d="M22.6079 14C21.8926 14 21.3138 14.5853 21.3138 15.2941V18.9812C21.3138 19.586 21.73 20.0932 22.2958 20.2363C22.2047 20.0737 22.1462 19.8916 22.1462 19.69V16.4971C22.1462 15.8793 22.6534 15.3721 23.2712 15.3721H31.881C32.4988 15.3721 33.006 15.8793 33.006 16.4971V19.6965C33.006 19.8916 32.9475 20.0802 32.8565 20.2428C33.4157 20.0997 33.8384 19.5925 33.8384 18.9877V15.2941C33.8384 14.5788 33.2531 14 32.5443 14" fill="#F0AE34"/>
<path d="M33.0002 16.4965C33.0002 15.4625 32.493 14.7212 31.8752 14.7212H23.2654C22.355 14.7212 22.1404 15.8787 22.1404 16.4965V19.6959C22.1404 19.891 22.1989 20.0796 22.2899 20.2421C22.394 20.2682 22.498 20.2877 22.6086 20.2877H22.9728V17.0362C22.9728 16.2949 23.5775 15.6901 24.3188 15.6901H30.8217C31.5631 15.6901 32.1678 16.2949 32.1678 17.0362V20.2877H32.532C32.6425 20.2877 32.7466 20.2682 32.8506 20.2421C32.9417 20.0796 33.0002 19.8975 33.0002 19.6959V16.4965Z" fill="#BA8929"/>
<path d="M13.5236 19.7547C12.6327 19.7742 11.9499 20.3075 11.4752 20.8732L11.9304 26.9144C11.9304 29.0083 12.7173 30.7251 14.8112 30.7251H40.231C42.39 30.7251 43.2288 28.9563 43.2288 26.7973L43.7621 19.7547C37.7534 19.7482 15.2339 19.7157 13.5236 19.7547Z" fill="#984F30"/>
<path d="M44.0217 19.749C43.9631 19.5994 43.8851 19.4499 43.7876 19.3198L43.7551 19.749L43.2218 26.7916C43.2218 28.9506 42.3829 30.7194 40.224 30.7194H14.8107C12.7168 30.7194 11.9299 29.0026 11.9299 26.9087L11.4747 20.8675L11.3577 19.3198C11.1366 19.6255 11 19.9961 11 20.3993V39.1536C11 40.1681 11.8259 40.994 12.8403 40.994H42.3049C43.3194 40.994 44.1452 40.1681 44.1452 39.1536V20.4058C44.1452 20.1717 44.0932 19.9571 44.0152 19.749H44.0217Z" fill="#783214"/>
<path d="M42.3125 18.5654H12.8414C12.2302 18.5654 11.6904 18.8711 11.3588 19.3263L11.4758 20.874C11.9505 20.3017 12.6333 19.775 13.5242 19.7555C15.2345 19.7099 37.7475 19.7425 43.7627 19.7555L43.7952 19.3263C43.457 18.8711 42.9238 18.5654 42.3125 18.5654Z" fill="#C96A42"/>
<path d="M25.8015 32.5849C25.8015 32.9425 26.0941 33.2351 26.4518 33.2351H28.9749C29.3326 33.2351 29.6252 32.9425 29.6252 32.5849V30.3804H25.8015V32.5849Z" fill="#F0AE34"/>
<path d="M28.9675 29.4116H26.4444C26.0867 29.4116 25.7941 29.7043 25.7941 30.0619V30.374H29.6178V30.0619C29.6178 29.7043 29.3251 29.4116 28.9675 29.4116Z" fill="#F2C57F"/>
<defs>
<filter id="filter0_d_1189_1721" x="10.3497" y="13.3496" width="34.4458" height="30.3008" filterUnits="userSpaceOnUse" color-interpolation-filters="sRGB">
<feFlood flood-opacity="0" result="BackgroundImageFix"/>
<feColorMatrix in="SourceAlpha" type="matrix" values="0 0 0 0 0 0 0 0 0 0 0 0 0 0 0 0 0 0 127 0" result="hardAlpha"/>
<feOffset dy="2"/>
<feComposite in2="hardAlpha" operator="out"/>
<feColorMatrix type="matrix" values="0 0 0 0 0 0 0 0 0 0 0 0 0 0 0 0 0 0 0.25 0"/>
<feBlend mode="normal" in2="BackgroundImageFix" result="effect1_dropShadow_1189_1721"/>
<feBlend mode="normal" in="SourceGraphic" in2="effect1_dropShadow_1189_1721" result="shape"/>
</filter>
</defs>
</svg>
