<svg width="64" height="64" viewBox="0 0 64 64" fill="none" xmlns="http://www.w3.org/2000/svg">
<path d="M33.8205 30.5996V51.4796C33.8205 54.7796 31.2005 57.3996 27.9005 57.3996C24.6005 57.3996 21.9805 54.7796 21.9805 51.4796V48.9396C21.9805 48.4296 22.1505 48.0096 22.4905 47.6696C22.8305 47.3296 23.2505 47.1596 23.7605 47.1596C24.7705 47.1596 25.5405 48.0096 25.5405 48.9396V51.4796C25.5405 52.7496 26.5505 53.7596 27.8205 53.7596C29.0905 53.7596 30.1005 52.7496 30.1005 51.4796V30.5996H33.8205Z" fill="url(#paint0_linear_2001_5307)"/>
<path d="M23.3292 35.8298C22.8492 35.8298 22.4192 35.4798 22.3392 34.9898C19.9392 20.3098 25.5092 12.7098 28.0192 10.1198C28.3992 9.71983 29.0392 9.70983 29.4292 10.0998C29.8192 10.4898 29.8392 11.1198 29.4492 11.5098C27.1492 13.8798 22.0492 20.8798 24.3092 34.6598C24.3992 35.1998 24.0292 35.7198 23.4792 35.8098C23.4292 35.8098 23.3692 35.8198 23.3192 35.8198L23.3292 35.8298Z" fill="url(#paint1_linear_2001_5307)"/>
<path d="M40.7508 35.8303C40.7008 35.8303 40.6408 35.8303 40.5908 35.8203C40.0408 35.7303 39.6708 35.2203 39.7608 34.6703C41.9108 21.5603 37.4508 14.5303 34.6108 11.5003C34.2308 11.1003 34.2508 10.4603 34.6508 10.0903C35.0508 9.71032 35.6808 9.73032 36.0608 10.1303C39.1608 13.4203 44.0108 21.0303 41.7308 34.9903C41.6508 35.4803 41.2308 35.8303 40.7408 35.8303H40.7508Z" fill="url(#paint2_linear_2001_5307)"/>
<path d="M56.9895 35.5096C53.6495 28.9196 44.5395 28.6696 40.7595 34.7496C40.6095 34.9896 40.4595 35.2396 40.3295 35.5096C38.5995 32.0796 35.2995 30.3696 31.9995 30.3696C28.6995 30.3696 25.3995 32.0796 23.6695 35.5096C21.9395 32.0796 18.6395 30.3696 15.3395 30.3696C12.0395 30.3696 8.74953 32.0796 7.01953 35.5096C7.05953 28.6196 9.86953 22.3796 14.3895 17.8596C18.5695 13.6996 24.1895 11.0096 30.4395 10.6196C30.9695 10.5796 31.4995 10.5596 32.0395 10.5596C32.5795 10.5596 33.1195 10.5796 33.6495 10.6196C46.6895 11.4396 56.9895 22.2596 56.9895 35.5096Z" fill="url(#paint3_linear_2001_5307)"/>
<path d="M33.6495 8.19984V10.6198C33.1195 10.5798 32.5795 10.5598 32.0395 10.5598C31.4995 10.5598 30.9695 10.5798 30.4395 10.6198V8.19984C30.4395 7.26984 31.1995 6.58984 32.0395 6.58984C32.9695 6.58984 33.6495 7.34984 33.6495 8.19984Z" fill="white"/>
<path d="M32.0395 6.58984C31.1995 6.58984 30.4395 7.26984 30.4395 8.19984V10.6198C30.9695 10.5798 31.4995 10.5598 32.0395 10.5598C32.5795 10.5598 33.1195 10.5798 33.6495 10.6198V8.19984C33.6495 7.34984 32.9695 6.58984 32.0395 6.58984Z" fill="url(#paint4_linear_2001_5307)"/>
<path fill-rule="evenodd" clip-rule="evenodd" d="M7.01953 36.5096C6.93952 36.5096 6.85953 36.5096 6.78953 36.4796C6.33953 36.3696 6.01953 35.9696 6.01953 35.4996C6.05953 28.5696 8.77953 22.0496 13.6795 17.1496C18.1695 12.6796 24.0895 10.0096 30.3695 9.61957C31.4495 9.53957 32.6095 9.53957 33.7195 9.61957C47.3195 10.4696 57.9795 21.8496 57.9795 35.5096C57.9795 35.9696 57.6595 36.3796 57.2095 36.4796C56.7595 36.5896 56.2895 36.3696 56.0895 35.9596C54.6995 33.2196 52.0595 31.5096 49.0195 31.3796C45.9795 31.2396 43.1995 32.6996 41.5995 35.2796C41.4695 35.4896 41.3395 35.7096 41.2195 35.9496C41.0495 36.2896 40.7095 36.5096 40.3295 36.5196C39.9495 36.5196 39.6095 36.3096 39.4395 35.9696C37.9895 33.0996 35.2095 31.3796 31.9995 31.3796C28.7895 31.3796 26.0095 33.0996 24.5595 35.9696C24.2195 36.6396 23.1095 36.6496 22.7695 35.9696C21.3195 33.0996 18.5395 31.3796 15.3295 31.3796C12.1195 31.3796 9.34953 33.0996 7.89953 35.9696C7.72953 36.3096 7.37953 36.5196 7.00953 36.5196L7.01953 36.5096ZM15.3395 29.3696C18.6795 29.3696 21.7395 30.9496 23.6695 33.5996C25.5995 30.9596 28.6595 29.3696 31.9995 29.3696C35.3395 29.3696 38.3995 30.9496 40.3295 33.5996C42.3595 30.7996 45.5695 29.2196 49.1195 29.3796C51.6695 29.4896 53.9895 30.4996 55.7595 32.1896C54.2179 21.1696 45.1287 12.4346 33.7752 11.632C33.7343 11.6373 33.6926 11.6401 33.6504 11.6401C33.5573 11.6401 33.4671 11.6278 33.3814 11.6046C32.4716 11.5438 31.5766 11.5446 30.6898 11.6068C30.6097 11.6285 30.5258 11.6401 30.4395 11.6401C30.3981 11.6401 30.3574 11.6377 30.3173 11.633C24.5827 12.0371 19.1915 14.4974 15.0995 18.5696C11.3695 22.2996 9.00953 27.0396 8.26953 32.1796C10.1495 30.3996 12.6595 29.3696 15.3395 29.3696Z" fill="url(#paint5_linear_2001_5307)"/>
<defs>
<linearGradient id="paint0_linear_2001_5307" x1="23.549" y1="32.4904" x2="39.2884" y2="47.4367" gradientUnits="userSpaceOnUse">
<stop stop-color="white"/>
<stop offset="1" stop-color="#5867FE"/>
</linearGradient>
<linearGradient id="paint1_linear_2001_5307" x1="22.8091" y1="11.649" x2="36.8708" y2="20.9198" gradientUnits="userSpaceOnUse">
<stop stop-color="white"/>
<stop offset="1" stop-color="#5867FE"/>
</linearGradient>
<linearGradient id="paint2_linear_2001_5307" x1="35.3955" y1="11.6527" x2="49.4581" y2="20.9287" gradientUnits="userSpaceOnUse">
<stop stop-color="white"/>
<stop offset="1" stop-color="#5867FE"/>
</linearGradient>
<linearGradient id="paint3_linear_2001_5307" x1="13.6395" y1="12.3198" x2="20.1071" y2="40.1625" gradientUnits="userSpaceOnUse">
<stop stop-color="white"/>
<stop offset="1" stop-color="#5867FE"/>
</linearGradient>
<linearGradient id="paint4_linear_2001_5307" x1="30.8647" y1="6.87417" x2="32.929" y2="10.4084" gradientUnits="userSpaceOnUse">
<stop stop-color="white"/>
<stop offset="1" stop-color="#5867FE"/>
</linearGradient>
<linearGradient id="paint5_linear_2001_5307" x1="12.9031" y1="11.4617" x2="20.136" y2="41.4248" gradientUnits="userSpaceOnUse">
<stop stop-color="white"/>
<stop offset="1" stop-color="#5867FE"/>
</linearGradient>
</defs>
</svg>
