<svg width="64" height="64" viewBox="0 0 64 64" fill="none" xmlns="http://www.w3.org/2000/svg">
<path d="M39.1603 7.78027C39.1603 7.78027 37.4303 10.4703 35.5803 10.4703C35.5803 10.4703 35.5803 9.48027 34.6803 8.68027C34.6803 8.68027 32.7203 9.59027 30.5903 9.88027C25.4903 10.5803 19.4603 12.2403 19.4603 22.1103V24.8003C17.4803 24.8003 15.8803 26.4003 15.8803 28.3803V31.0703C15.8803 33.0503 17.4803 34.6503 19.4603 34.6503H20.2503C20.4003 34.7903 20.5503 34.9303 20.6303 35.0003C21.3903 36.9603 22.5903 38.6303 23.9003 40.1103L23.5003 45.9403L9.73031 50.1803C8.64031 50.5203 7.97031 51.6103 8.15031 52.7303L8.22031 53.1403C8.51031 54.8703 10.0003 56.1303 11.7503 56.1303H52.2503C54.0003 56.1303 55.5003 54.8603 55.7803 53.1403L55.8503 52.7303C56.0403 51.6003 55.3603 50.5103 54.2703 50.1803L40.5003 45.9403L40.1003 40.1103C41.4203 38.6303 42.6203 36.9603 43.3703 35.0003C43.4503 34.9403 43.6003 34.8003 43.7503 34.6503H44.5403C46.5203 34.6503 48.1203 33.0503 48.1203 31.0703V28.3803C48.1203 26.4003 46.5203 24.8003 44.5403 24.8003V22.1103C44.5403 18.9803 43.6403 14.0503 40.9603 14.0503C40.9603 14.0503 40.8503 9.91027 39.1703 7.78027H39.1603ZM51.7003 10.4703L51.4903 11.9503C51.3503 12.9303 50.5803 13.7003 49.6003 13.8403L48.1203 14.0503V14.9503L49.6103 15.1603C50.5903 15.3003 51.3603 16.0703 51.4903 17.0503L51.6203 17.9603C51.6703 18.2903 51.9503 18.5403 52.2903 18.5403H52.6003L52.8103 17.0603C52.9503 16.0803 53.7203 15.3103 54.7003 15.1703L56.1803 14.9603V14.0603L54.7003 13.8503C53.7203 13.7103 52.9503 12.9403 52.8103 11.9603L52.6003 10.4803H51.7003V10.4703ZM11.4003 13.1603L11.1903 14.6403C11.0503 15.6203 10.2803 16.3903 9.30031 16.5303L7.82031 16.7403V17.6403L9.31031 17.8503C10.2903 17.9903 11.0603 18.7603 11.1903 19.7403L11.3203 20.6503C11.3703 20.9803 11.6503 21.2303 11.9903 21.2303H12.3003L12.5103 19.7503C12.6503 18.7703 13.4203 18.0003 14.4003 17.8603L15.8803 17.6503V16.7503L14.4003 16.5403C13.4203 16.4003 12.6503 15.6303 12.5103 14.6503L12.3003 13.1703H11.4003V13.1603ZM23.9403 18.5303C23.9403 18.5303 27.9703 19.4303 32.0003 19.4303C36.0303 19.4303 39.1603 18.5303 39.1603 18.5303C41.2303 20.3003 41.7303 23.9803 41.8303 26.3103C40.6503 26.4203 38.0203 26.5903 31.9903 26.5903C25.9603 26.5903 23.3203 26.4203 22.1403 26.3103V25.3803C22.2403 22.9903 22.6203 19.8403 23.9303 18.5303H23.9403ZM22.1503 29.3303C23.4003 30.6903 22.9703 33.1903 25.1103 33.6703C26.6103 34.0103 26.9003 34.0403 28.3603 34.1103C31.0603 34.2403 30.3403 30.1803 32.0003 30.1803C33.6603 30.1803 32.9503 34.2403 35.6403 34.1103C37.1003 34.0403 37.3903 34.0103 38.8903 33.6703C41.0203 33.1903 40.6003 30.7003 41.8503 29.3303V32.7503C41.6503 32.9703 41.4903 33.1303 41.4903 33.1303L41.1703 33.3703L41.0403 33.7503C40.2103 36.1303 38.2503 38.4803 36.4103 40.1703C35.4903 41.0203 34.6103 41.7003 33.9403 42.1603C33.6103 42.3903 33.3303 42.5603 33.1503 42.6603C33.1203 42.6803 33.1203 42.6803 33.1003 42.6903H30.9203C30.9203 42.6903 30.8903 42.6803 30.8703 42.6603C30.6903 42.5603 30.4103 42.3903 30.0803 42.1603C29.4203 41.7003 28.5303 41.0103 27.6103 40.1703C25.7703 38.4803 23.8103 36.1303 22.9803 33.7503L22.8503 33.3703L22.5303 33.1303C22.5303 33.1303 22.3603 32.9703 22.1703 32.7503V29.3203L22.1503 29.3303ZM50.9103 37.3403L50.7503 38.4903C50.6403 39.2503 50.0403 39.8503 49.2803 39.9603L48.1303 40.1203V40.8203L49.2803 40.9803C50.0403 41.0903 50.6403 41.6903 50.7503 42.4503L50.8503 43.1503C50.8903 43.4103 51.1103 43.6003 51.3703 43.6003H51.6103L51.7703 42.4503C51.8803 41.6903 52.4803 41.0903 53.2403 40.9803L54.3903 40.8203V40.1203L53.2403 39.9603C52.4803 39.8503 51.8803 39.2503 51.7703 38.4903L51.6103 37.3403H50.9103ZM26.4203 42.6703C27.1803 43.3203 27.9503 43.9703 28.5403 44.3803C28.9203 44.6503 29.2603 44.8603 29.5403 45.0203C29.6803 45.1003 29.8103 45.1703 29.9603 45.2303C30.1003 45.2903 30.1703 45.3903 30.6603 45.3903H33.3503C33.8503 45.3903 33.9103 45.2903 34.0503 45.2303C34.1903 45.1703 34.3203 45.1003 34.4703 45.0203C34.7603 44.8603 35.0903 44.6503 35.4703 44.3803C36.0603 43.9703 36.8303 43.3203 37.5903 42.6703L38.1103 50.2503C37.1803 50.7803 35.1603 51.6603 32.0003 51.6603C28.8403 51.6603 26.8203 50.7803 25.8903 50.2503L26.4103 42.6703H26.4203Z" fill="url(#paint0_linear_2001_5300)"/>
<defs>
<linearGradient id="paint0_linear_2001_5300" x1="14.227" y1="11.1915" x2="35.9732" y2="57.9435" gradientUnits="userSpaceOnUse">
<stop stop-color="white"/>
<stop offset="1" stop-color="#5867FE"/>
</linearGradient>
</defs>
</svg>
