<svg width="56" height="56" viewBox="0 0 56 56" fill="none" xmlns="http://www.w3.org/2000/svg">
<g filter="url(#filter0_d_1363_6436)">
<mask id="path-2-outside-1_1363_6436" maskUnits="userSpaceOnUse" x="8.15137" y="9.99768" width="40" height="38" fill="black">
<rect fill="white" x="8.15137" y="9.99768" width="40" height="38"/>
<path fill-rule="evenodd" clip-rule="evenodd" d="M33.7231 17.0922L33.723 17.0922L33.7247 17.0931H33.7216L33.7438 17.1244L33.7683 17.1589L33.7675 17.1605C33.7839 17.1857 33.8002 17.2101 33.8166 17.2353L33.8168 17.239L33.8183 17.2412C33.8182 17.241 33.8181 17.2409 33.8179 17.2407L33.882 17.3386L33.8852 17.3394C34.4744 18.2245 35.0301 19.1308 35.5719 20.0451C35.6937 20.25 35.8318 20.3727 36.0761 20.419C36.3359 20.4682 36.5916 20.5394 36.8475 20.6107L36.8475 20.6108L36.8476 20.6108C36.9556 20.6409 37.0636 20.671 37.172 20.6994L37.1727 20.702C37.2499 20.695 37.3127 20.7157 37.3503 20.7882L37.3518 20.788L37.3673 20.7897L37.3674 20.7898C37.6368 20.7767 37.8876 20.8545 38.1375 20.9319L38.1375 20.9319L38.1375 20.9319L38.1375 20.9319L38.1376 20.9319L38.1376 20.9319L38.1376 20.932L38.1377 20.932L38.1377 20.932L38.1377 20.932L38.1377 20.932L38.1378 20.932C38.2232 20.9585 38.3085 20.9849 38.3944 21.0077L38.669 21.0809C39.6163 21.3333 40.5639 21.5858 41.5006 21.8741C41.7531 21.9519 42.0066 22.0274 42.2601 22.1028C43.508 22.4743 44.7568 22.846 45.8972 23.5013C46.1611 23.6533 46.4349 23.8126 46.564 24.1174V24.1186L46.565 24.1188L46.5487 24.127L46.6059 24.1855L46.6051 24.1814C46.9246 24.5512 46.9344 25.1771 46.6124 25.668C46.3271 26.104 45.9848 26.4966 45.6429 26.8887L45.6429 26.8888C45.5794 26.9616 45.5159 27.0344 45.4528 27.1075C44.3202 28.4193 43.1396 29.6878 41.959 30.9562L41.959 30.9563L41.9587 30.9566C41.3685 31.5908 40.7783 32.2249 40.1941 32.8645C39.5185 33.6052 39.5189 33.613 39.5666 34.6009L39.5689 34.6494C39.6784 36.9276 39.7814 39.2067 39.8353 41.4874C39.8541 42.2839 39.8386 43.0804 39.7495 43.8721C39.6956 44.3516 39.6032 44.832 39.4071 45.2741C39.2003 45.7399 38.8073 45.9642 38.2941 45.9951C37.7866 46.026 37.3101 45.9089 36.85 45.7196C35.7983 45.2867 34.7833 44.7762 33.7686 44.2658L33.7685 44.2658L33.768 44.2655C33.4299 44.0954 33.0919 43.9254 32.7526 43.7583C31.0838 42.9357 29.4216 42.0986 27.7594 41.2614C27.5812 41.172 27.4325 41.1679 27.2478 41.2476C25.9572 41.8041 24.6846 42.3996 23.4121 42.9951C22.7759 43.2929 22.1397 43.5906 21.5012 43.8835C21.151 44.0442 20.8024 44.2086 20.4539 44.3731L20.4535 44.3733C19.5523 44.7986 18.651 45.224 17.72 45.5838C17.5296 45.657 17.3277 45.7155 17.1259 45.7439C16.4991 45.8325 16.0455 45.5229 15.8494 44.8864C15.7023 44.411 15.6663 43.9192 15.6606 43.4267C15.641 41.6613 15.7391 39.9 15.8625 38.1403C15.8885 37.7666 15.9133 37.3927 15.938 37.0188C16.0141 35.8697 16.0902 34.7206 16.2049 33.5757C16.2474 33.1489 16.115 32.8742 15.8714 32.5686C14.0058 30.2294 12.1491 27.8829 10.3806 25.4681C10.0603 25.0308 9.75463 24.5813 9.47678 24.1156C9.25287 23.7401 9.12129 23.341 9.15725 22.898C9.17114 22.7249 9.19566 22.5559 9.31661 22.4177L9.31899 22.4182C9.4956 22.1219 9.78269 21.9621 10.082 21.8267C10.8263 21.4898 11.6215 21.327 12.4158 21.1644L12.5393 21.1391C14.1915 20.7999 15.8606 20.5675 17.5298 20.3351H17.5298L17.5298 20.3351L17.803 20.297L17.9038 20.283L17.9038 20.283C18.7242 20.1689 19.5449 20.0548 20.3723 19.9947C20.5202 19.9841 20.6216 19.9166 20.7139 19.7939C22.502 17.4165 24.3595 15.0943 26.2897 12.8299C26.7376 12.3049 27.1919 11.783 27.7411 11.3563C28.3556 10.8784 28.9309 10.8776 29.5398 11.3571C30.0797 11.783 30.4796 12.3306 30.8783 12.8762C30.9346 12.9533 30.9909 13.0304 31.0475 13.1071C31.98 14.3685 32.8364 15.682 33.6822 17.002C33.6933 17.0193 33.7013 17.0388 33.7094 17.0582L33.7094 17.0582C33.7138 17.0688 33.7182 17.0794 33.7231 17.0897V17.0922ZM33.8201 17.2439L33.8183 17.2412C33.819 17.2421 33.8196 17.243 33.8201 17.2439ZM33.3359 29.4678L33.336 29.4678V29.4671L33.3359 29.4671V29.4678ZM34.4535 29.2157C35.2915 28.8059 35.8806 27.9383 35.8882 26.9343C35.8939 26.2199 35.6226 25.6046 35.1167 25.1007C34.4818 24.4692 33.7136 24.2538 32.8253 24.37C32.7192 24.3839 32.6072 24.4098 32.4924 24.447C32.6071 24.4098 32.7191 24.384 32.8251 24.3701C33.7134 24.2538 34.4816 24.4692 35.1166 25.1008C35.6224 25.6047 35.8937 26.22 35.888 26.9344C35.8805 27.9383 35.2914 28.8059 34.4535 29.2157ZM32.9698 26.528C32.6935 26.4095 32.494 26.1324 32.4947 25.8237C32.4947 25.4214 32.8845 25.0841 33.3315 25.0995C33.3981 25.1019 33.4628 25.1126 33.5243 25.1305C33.4624 25.1123 33.3973 25.1015 33.3302 25.0991C32.884 25.0837 32.4942 25.4202 32.4933 25.8233C32.4933 26.1323 32.6934 26.4097 32.9698 26.528ZM19.3894 26.8183C19.3755 25.8186 19.798 25.0472 20.607 24.5433C21.43 24.0313 22.4678 24.128 23.2352 24.966C23.3144 25.0524 23.3864 25.1438 23.4512 25.2392C23.3862 25.1434 23.314 25.0517 23.2345 24.965C22.4671 24.127 21.4293 24.0303 20.6064 24.5423C19.7973 25.0462 19.3748 25.8176 19.3887 26.8173L19.3887 26.8176L19.3894 26.8183ZM21.7283 24.9603C21.7996 24.9613 21.8693 24.9755 21.9349 25.0005C21.8695 24.9757 21.8001 24.9616 21.729 24.9606C21.3293 24.9557 21.0033 25.2573 20.9984 25.6368C20.9952 25.8598 21.1284 26.0715 21.3198 26.1953C21.1283 26.0715 20.995 25.8597 20.9977 25.6365C21.0026 25.2569 21.3286 24.9546 21.7283 24.9603ZM15.6819 21.9658C15.5266 21.9186 15.386 21.9186 15.2545 21.9471C15.386 21.9178 15.5266 21.9186 15.6819 21.9658ZM28.2783 15.0806C28.289 15.1473 28.3208 15.2139 28.3862 15.283C28.3208 15.2147 28.289 15.1473 28.2783 15.0806ZM43.3305 24.0343C43.118 23.814 42.8386 23.7108 42.5558 23.6255C42.8386 23.7108 43.118 23.8149 43.3305 24.0343Z"/>
</mask>
<path fill-rule="evenodd" clip-rule="evenodd" d="M33.7231 17.0922L33.723 17.0922L33.7247 17.0931H33.7216L33.7438 17.1244L33.7683 17.1589L33.7675 17.1605C33.7839 17.1857 33.8002 17.2101 33.8166 17.2353L33.8168 17.239L33.8183 17.2412C33.8182 17.241 33.8181 17.2409 33.8179 17.2407L33.882 17.3386L33.8852 17.3394C34.4744 18.2245 35.0301 19.1308 35.5719 20.0451C35.6937 20.25 35.8318 20.3727 36.0761 20.419C36.3359 20.4682 36.5916 20.5394 36.8475 20.6107L36.8475 20.6108L36.8476 20.6108C36.9556 20.6409 37.0636 20.671 37.172 20.6994L37.1727 20.702C37.2499 20.695 37.3127 20.7157 37.3503 20.7882L37.3518 20.788L37.3673 20.7897L37.3674 20.7898C37.6368 20.7767 37.8876 20.8545 38.1375 20.9319L38.1375 20.9319L38.1375 20.9319L38.1375 20.9319L38.1376 20.9319L38.1376 20.9319L38.1376 20.932L38.1377 20.932L38.1377 20.932L38.1377 20.932L38.1377 20.932L38.1378 20.932C38.2232 20.9585 38.3085 20.9849 38.3944 21.0077L38.669 21.0809C39.6163 21.3333 40.5639 21.5858 41.5006 21.8741C41.7531 21.9519 42.0066 22.0274 42.2601 22.1028C43.508 22.4743 44.7568 22.846 45.8972 23.5013C46.1611 23.6533 46.4349 23.8126 46.564 24.1174V24.1186L46.565 24.1188L46.5487 24.127L46.6059 24.1855L46.6051 24.1814C46.9246 24.5512 46.9344 25.1771 46.6124 25.668C46.3271 26.104 45.9848 26.4966 45.6429 26.8887L45.6429 26.8888C45.5794 26.9616 45.5159 27.0344 45.4528 27.1075C44.3202 28.4193 43.1396 29.6878 41.959 30.9562L41.959 30.9563L41.9587 30.9566C41.3685 31.5908 40.7783 32.2249 40.1941 32.8645C39.5185 33.6052 39.5189 33.613 39.5666 34.6009L39.5689 34.6494C39.6784 36.9276 39.7814 39.2067 39.8353 41.4874C39.8541 42.2839 39.8386 43.0804 39.7495 43.8721C39.6956 44.3516 39.6032 44.832 39.4071 45.2741C39.2003 45.7399 38.8073 45.9642 38.2941 45.9951C37.7866 46.026 37.3101 45.9089 36.85 45.7196C35.7983 45.2867 34.7833 44.7762 33.7686 44.2658L33.7685 44.2658L33.768 44.2655C33.4299 44.0954 33.0919 43.9254 32.7526 43.7583C31.0838 42.9357 29.4216 42.0986 27.7594 41.2614C27.5812 41.172 27.4325 41.1679 27.2478 41.2476C25.9572 41.8041 24.6846 42.3996 23.4121 42.9951C22.7759 43.2929 22.1397 43.5906 21.5012 43.8835C21.151 44.0442 20.8024 44.2086 20.4539 44.3731L20.4535 44.3733C19.5523 44.7986 18.651 45.224 17.72 45.5838C17.5296 45.657 17.3277 45.7155 17.1259 45.7439C16.4991 45.8325 16.0455 45.5229 15.8494 44.8864C15.7023 44.411 15.6663 43.9192 15.6606 43.4267C15.641 41.6613 15.7391 39.9 15.8625 38.1403C15.8885 37.7666 15.9133 37.3927 15.938 37.0188C16.0141 35.8697 16.0902 34.7206 16.2049 33.5757C16.2474 33.1489 16.115 32.8742 15.8714 32.5686C14.0058 30.2294 12.1491 27.8829 10.3806 25.4681C10.0603 25.0308 9.75463 24.5813 9.47678 24.1156C9.25287 23.7401 9.12129 23.341 9.15725 22.898C9.17114 22.7249 9.19566 22.5559 9.31661 22.4177L9.31899 22.4182C9.4956 22.1219 9.78269 21.9621 10.082 21.8267C10.8263 21.4898 11.6215 21.327 12.4158 21.1644L12.5393 21.1391C14.1915 20.7999 15.8606 20.5675 17.5298 20.3351H17.5298L17.5298 20.3351L17.803 20.297L17.9038 20.283L17.9038 20.283C18.7242 20.1689 19.5449 20.0548 20.3723 19.9947C20.5202 19.9841 20.6216 19.9166 20.7139 19.7939C22.502 17.4165 24.3595 15.0943 26.2897 12.8299C26.7376 12.3049 27.1919 11.783 27.7411 11.3563C28.3556 10.8784 28.9309 10.8776 29.5398 11.3571C30.0797 11.783 30.4796 12.3306 30.8783 12.8762C30.9346 12.9533 30.9909 13.0304 31.0475 13.1071C31.98 14.3685 32.8364 15.682 33.6822 17.002C33.6933 17.0193 33.7013 17.0388 33.7094 17.0582L33.7094 17.0582C33.7138 17.0688 33.7182 17.0794 33.7231 17.0897V17.0922ZM33.8201 17.2439L33.8183 17.2412C33.819 17.2421 33.8196 17.243 33.8201 17.2439ZM33.3359 29.4678L33.336 29.4678V29.4671L33.3359 29.4671V29.4678ZM34.4535 29.2157C35.2915 28.8059 35.8806 27.9383 35.8882 26.9343C35.8939 26.2199 35.6226 25.6046 35.1167 25.1007C34.4818 24.4692 33.7136 24.2538 32.8253 24.37C32.7192 24.3839 32.6072 24.4098 32.4924 24.447C32.6071 24.4098 32.7191 24.384 32.8251 24.3701C33.7134 24.2538 34.4816 24.4692 35.1166 25.1008C35.6224 25.6047 35.8937 26.22 35.888 26.9344C35.8805 27.9383 35.2914 28.8059 34.4535 29.2157ZM32.9698 26.528C32.6935 26.4095 32.494 26.1324 32.4947 25.8237C32.4947 25.4214 32.8845 25.0841 33.3315 25.0995C33.3981 25.1019 33.4628 25.1126 33.5243 25.1305C33.4624 25.1123 33.3973 25.1015 33.3302 25.0991C32.884 25.0837 32.4942 25.4202 32.4933 25.8233C32.4933 26.1323 32.6934 26.4097 32.9698 26.528ZM19.3894 26.8183C19.3755 25.8186 19.798 25.0472 20.607 24.5433C21.43 24.0313 22.4678 24.128 23.2352 24.966C23.3144 25.0524 23.3864 25.1438 23.4512 25.2392C23.3862 25.1434 23.314 25.0517 23.2345 24.965C22.4671 24.127 21.4293 24.0303 20.6064 24.5423C19.7973 25.0462 19.3748 25.8176 19.3887 26.8173L19.3887 26.8176L19.3894 26.8183ZM21.7283 24.9603C21.7996 24.9613 21.8693 24.9755 21.9349 25.0005C21.8695 24.9757 21.8001 24.9616 21.729 24.9606C21.3293 24.9557 21.0033 25.2573 20.9984 25.6368C20.9952 25.8598 21.1284 26.0715 21.3198 26.1953C21.1283 26.0715 20.995 25.8597 20.9977 25.6365C21.0026 25.2569 21.3286 24.9546 21.7283 24.9603ZM15.6819 21.9658C15.5266 21.9186 15.386 21.9186 15.2545 21.9471C15.386 21.9178 15.5266 21.9186 15.6819 21.9658ZM28.2783 15.0806C28.289 15.1473 28.3208 15.2139 28.3862 15.283C28.3208 15.2147 28.289 15.1473 28.2783 15.0806ZM43.3305 24.0343C43.118 23.814 42.8386 23.7108 42.5558 23.6255C42.8386 23.7108 43.118 23.8149 43.3305 24.0343Z" fill="#B8292D"/>
<path d="M34.2403 16.9724L34.2374 16.9679L33.3962 17.5086L33.3991 17.5131L34.2403 16.9724ZM33.723 17.0922L33.5989 16.0999C33.1652 16.1541 32.8169 16.4838 32.739 16.914C32.6611 17.3442 32.8716 17.7751 33.2589 17.978L33.723 17.0922ZM33.7231 17.0922L33.8471 18.0845C34.3475 18.0219 34.7231 17.5965 34.7231 17.0922H33.7231ZM33.7247 17.0931V18.0931C34.1849 18.0931 34.5857 17.779 34.6957 17.3321C34.8057 16.8852 34.5964 16.4209 34.1888 16.2073L33.7247 17.0931ZM33.7216 17.0931V16.0931C33.3477 16.0931 33.005 16.3017 32.8333 16.6339C32.6616 16.9661 32.6896 17.3664 32.9058 17.6714L33.7216 17.0931ZM33.7438 17.1244L32.928 17.7027L32.9283 17.7032L33.7438 17.1244ZM33.7683 17.1589L34.6619 17.6078C34.828 17.2772 34.798 16.8819 34.5838 16.5801L33.7683 17.1589ZM33.7675 17.1605L32.8739 16.7117C32.7146 17.0289 32.7354 17.4069 32.9286 17.7048L33.7675 17.1605ZM33.8166 17.2353L34.8139 17.163C34.8018 16.9949 34.7473 16.8326 34.6555 16.6911L33.8166 17.2353ZM33.8168 17.239L32.8194 17.3113C32.8321 17.4856 32.8901 17.6535 32.9879 17.7983L33.8168 17.239ZM33.8179 17.2407L34.6208 16.6445C34.2983 16.2104 33.6892 16.1112 33.2457 16.4207C32.8022 16.7301 32.6851 17.3361 32.9813 17.7885L33.8179 17.2407ZM33.882 17.3386L33.0454 17.8863C33.1847 18.0992 33.4 18.251 33.6474 18.3107L33.882 17.3386ZM33.8852 17.3394L34.7176 16.7852C34.5781 16.5756 34.3646 16.4264 34.1198 16.3673L33.8852 17.3394ZM35.5719 20.0451L34.7116 20.5549L34.7123 20.5561L35.5719 20.0451ZM36.0761 20.419L35.8899 21.4015L35.8902 21.4016L36.0761 20.419ZM36.8475 20.6107L36.579 21.574L36.5798 21.5743L36.8475 20.6107ZM36.8476 20.6108L37.116 19.6475L37.1152 19.6473L36.8476 20.6108ZM37.172 20.6994L38.1381 20.4411C38.0453 20.094 37.7734 19.8234 37.426 19.7322L37.172 20.6994ZM37.1727 20.702L36.2066 20.9603C36.3323 21.4304 36.7782 21.7417 37.2628 21.6979L37.1727 20.702ZM37.3503 20.7882L36.4624 21.2483C36.6575 21.6248 37.0689 21.8373 37.4888 21.7786L37.3503 20.7882ZM37.3518 20.788L37.4559 19.7935C37.3752 19.785 37.2937 19.7864 37.2133 19.7977L37.3518 20.788ZM37.3673 20.7897L38.3507 20.6081C38.2702 20.1722 37.9123 19.8412 37.4714 19.7951L37.3673 20.7897ZM37.3674 20.7898L36.384 20.9713C36.4749 21.4636 36.9158 21.8129 37.4158 21.7886L37.3674 20.7898ZM38.1375 20.9319L37.8414 21.8871L37.8501 21.8897L38.1375 20.9319ZM38.1378 20.932L38.4339 19.9768L38.4251 19.9742L38.1378 20.932ZM38.3944 21.0077L38.652 20.0414L38.6504 20.041L38.3944 21.0077ZM38.669 21.0809L38.4114 22.0471L38.4115 22.0471L38.669 21.0809ZM41.5006 21.8741L41.7951 20.9184L41.7948 20.9183L41.5006 21.8741ZM42.2601 22.1028L41.9748 23.0613L42.2601 22.1028ZM45.8972 23.5013L46.3962 22.6347L46.3954 22.6342L45.8972 23.5013ZM46.564 24.1174H47.564C47.564 23.9834 47.5371 23.8507 47.4848 23.7273L46.564 24.1174ZM46.564 24.1186H45.564C45.564 24.5758 45.8741 24.9748 46.3172 25.0876L46.564 24.1186ZM46.565 24.1188L47.0103 25.0142C47.3847 24.8281 47.6037 24.4287 47.5594 24.013C47.5152 23.5973 47.217 23.253 46.8119 23.1498L46.565 24.1188ZM46.5487 24.127L46.1034 23.2316C45.817 23.374 45.6161 23.6448 45.5627 23.9601C45.5093 24.2755 45.61 24.5973 45.8336 24.826L46.5487 24.127ZM46.6059 24.1855L45.8908 24.8845C46.2004 25.2013 46.6815 25.2766 47.0731 25.0696C47.4647 24.8627 47.6735 24.4228 47.5863 23.9885L46.6059 24.1855ZM46.6051 24.1814L47.3618 23.5276C47.0647 23.1839 46.5733 23.0835 46.1652 23.2834C45.7572 23.4832 45.5352 23.933 45.6247 24.3784L46.6051 24.1814ZM46.6124 25.668L45.7762 25.1196L45.7757 25.1204L46.6124 25.668ZM45.6429 26.8887L46.3955 27.5472L46.3967 27.5459L45.6429 26.8887ZM45.6429 26.8888L44.8903 26.2303L44.8891 26.2316L45.6429 26.8888ZM45.4528 27.1075L44.696 26.4539L44.6959 26.454L45.4528 27.1075ZM41.959 30.9562L41.227 30.2749L41.2242 30.278L41.959 30.9562ZM41.959 30.9563L42.685 31.6441L42.6938 31.6346L41.959 30.9563ZM41.9587 30.9566L41.2327 30.2689L41.2266 30.2753L41.9587 30.9566ZM40.1941 32.8645L39.4557 32.19L39.4552 32.1906L40.1941 32.8645ZM39.5666 34.6009L40.5654 34.5527L40.5654 34.5526L39.5666 34.6009ZM39.5689 34.6494L40.5677 34.6013L40.5677 34.6012L39.5689 34.6494ZM39.8353 41.4874L40.835 41.4638L40.835 41.4637L39.8353 41.4874ZM39.7495 43.8721L38.7558 43.7603L38.7558 43.7603L39.7495 43.8721ZM39.4071 45.2741L40.3211 45.6799L40.3212 45.6796L39.4071 45.2741ZM38.2941 45.9951L38.234 44.9969L38.2333 44.9969L38.2941 45.9951ZM36.85 45.7196L37.2307 44.7948L37.2306 44.7948L36.85 45.7196ZM33.7686 44.2658L33.2724 45.134C33.2878 45.1428 33.3034 45.1512 33.3192 45.1591L33.7686 44.2658ZM33.7685 44.2658L34.2647 43.3975C34.2498 43.389 34.2347 43.3809 34.2193 43.3731L33.7685 44.2658ZM33.768 44.2655L34.2188 43.3729L34.2173 43.3721L33.768 44.2655ZM32.7526 43.7583L32.3104 44.6552L32.3107 44.6554L32.7526 43.7583ZM27.7594 41.2614L28.2092 40.3683L28.2079 40.3676L27.7594 41.2614ZM27.2478 41.2476L27.6438 42.1659L27.6438 42.1658L27.2478 41.2476ZM23.4121 42.9951L23.836 43.9008L23.4121 42.9951ZM21.5012 43.8835L21.0843 42.9745L21.0842 42.9746L21.5012 43.8835ZM20.4539 44.3731L20.0271 43.4688L20.0245 43.47L20.4539 44.3731ZM20.4535 44.3733L20.8803 45.2777L20.8829 45.2764L20.4535 44.3733ZM17.72 45.5838L18.0786 46.5173L18.0805 46.5166L17.72 45.5838ZM17.1259 45.7439L16.9863 44.7537L16.9859 44.7538L17.1259 45.7439ZM15.8494 44.8864L16.805 44.5919L16.8047 44.5909L15.8494 44.8864ZM15.6606 43.4267L14.6607 43.4378L14.6607 43.4383L15.6606 43.4267ZM15.8625 38.1403L16.86 38.2102L16.86 38.2099L15.8625 38.1403ZM15.938 37.0188L14.9402 36.9528V36.9528L15.938 37.0188ZM16.2049 33.5757L17.1999 33.6753L17.1999 33.6748L16.2049 33.5757ZM15.8714 32.5686L16.6535 31.9454L16.6532 31.9451L15.8714 32.5686ZM10.3806 25.4681L11.1874 24.8772L11.1873 24.8771L10.3806 25.4681ZM9.47678 24.1156L8.61789 24.6278L8.618 24.6279L9.47678 24.1156ZM9.15725 22.898L10.154 22.9789L10.154 22.978L9.15725 22.898ZM9.31661 22.4177L9.5296 21.4406C9.17381 21.3631 8.80399 21.485 8.56415 21.759L9.31661 22.4177ZM9.31899 22.4182L9.106 23.3952C9.52616 23.4868 9.95782 23.2996 10.178 22.9302L9.31899 22.4182ZM10.082 21.8267L10.4943 22.7377L10.4944 22.7377L10.082 21.8267ZM12.4158 21.1644L12.6163 22.1441L12.6165 22.144L12.4158 21.1644ZM12.5393 21.1391L12.7401 22.1187L12.7404 22.1186L12.5393 21.1391ZM17.5298 20.3351V19.3351C17.4836 19.3351 17.4376 19.3383 17.3919 19.3446L17.5298 20.3351ZM17.5298 20.3351V21.3351C17.574 21.3351 17.6181 21.3321 17.662 21.3263L17.5298 20.3351ZM17.5298 20.3351L17.662 21.3263L17.6678 21.3255L17.5298 20.3351ZM17.803 20.297L17.6653 19.3065L17.665 19.3066L17.803 20.297ZM17.9038 20.283L17.7758 19.2912L17.766 19.2925L17.9038 20.283ZM17.9038 20.283L18.0318 21.2748L18.0416 21.2735L17.9038 20.283ZM20.3723 19.9947L20.301 18.9972L20.2998 18.9973L20.3723 19.9947ZM20.7139 19.7939L21.513 20.3951L21.5131 20.395L20.7139 19.7939ZM26.2897 12.8299L25.5289 12.181L25.5287 12.1812L26.2897 12.8299ZM27.7411 11.3563L28.3547 12.146L28.355 12.1457L27.7411 11.3563ZM29.5398 11.3571L30.1591 10.572L30.1585 10.5716L29.5398 11.3571ZM30.8783 12.8762L31.6858 12.2864L31.6858 12.2864L30.8783 12.8762ZM31.0475 13.1071L30.2432 13.7013L30.2434 13.7015L31.0475 13.1071ZM33.6822 17.002L34.5245 16.463L34.5242 16.4624L33.6822 17.002ZM33.7094 17.0582L34.6581 16.742C34.6507 16.7197 34.6425 16.6978 34.6335 16.6761L33.7094 17.0582ZM33.7094 17.0582L32.7607 17.3745C32.7681 17.3967 32.7763 17.4187 32.7853 17.4404L33.7094 17.0582ZM33.7231 17.0897H34.7231C34.7231 16.9414 34.6901 16.7949 34.6264 16.6609L33.7231 17.0897ZM33.8201 17.2439L32.9895 17.8008C33.2836 18.2394 33.8681 18.3737 34.3242 18.1075C34.7803 17.8413 34.9507 17.2664 34.7135 16.7946L33.8201 17.2439ZM33.336 29.4678L33.3244 30.4677C33.5916 30.4709 33.849 30.3669 34.039 30.179C34.2291 29.9912 34.336 29.735 34.336 29.4678H33.336ZM33.3359 29.4678H32.3359C32.3359 30.0156 32.7765 30.4614 33.3243 30.4677L33.3359 29.4678ZM33.336 29.4671H34.336C34.336 28.9193 33.8954 28.4735 33.3477 28.4672L33.336 29.4671ZM33.3359 29.4671L33.3475 28.4671C33.0803 28.464 32.823 28.568 32.6329 28.7559C32.4428 28.9437 32.3359 29.1999 32.3359 29.4671H33.3359ZM35.8882 26.9343L34.8882 26.9263L34.8882 26.9268L35.8882 26.9343ZM34.4535 29.2157L34.0141 28.3174C33.518 28.5601 33.3125 29.1589 33.5552 29.655C33.7978 30.1512 34.3967 30.3567 34.8928 30.1141L34.4535 29.2157ZM35.1167 25.1007L35.8225 24.3922L35.8219 24.3917L35.1167 25.1007ZM32.8253 24.37L32.6955 23.3784L32.6954 23.3785L32.8253 24.37ZM32.4924 24.447L32.1838 23.4958C31.6585 23.6662 31.3708 24.2302 31.5411 24.7555C31.7115 25.2808 32.2755 25.5686 32.8008 25.3982L32.4924 24.447ZM32.8251 24.3701L32.6954 23.3785L32.6953 23.3785L32.8251 24.3701ZM35.1166 25.1008L35.8223 24.3923L35.8218 24.3918L35.1166 25.1008ZM35.888 26.9344L34.8881 26.9264L34.8881 26.9269L35.888 26.9344ZM32.4947 25.8237L33.4947 25.8258V25.8237H32.4947ZM32.9698 26.528L32.5763 27.4473C33.0839 27.6646 33.6715 27.4294 33.8889 26.9219C34.1064 26.4144 33.8715 25.8267 33.3641 25.609L32.9698 26.528ZM33.3315 25.0995L33.3669 24.1002L33.366 24.1001L33.3315 25.0995ZM33.5243 25.1305L33.2451 26.0907C33.7751 26.2448 34.3298 25.9403 34.4843 25.4104C34.6388 24.8806 34.3348 24.3257 33.8051 24.1707L33.5243 25.1305ZM33.3302 25.0991L33.3656 24.0998L33.3647 24.0997L33.3302 25.0991ZM32.4933 25.8233L31.4933 25.8213V25.8233H32.4933ZM20.607 24.5433L20.0787 23.6943L20.0783 23.6945L20.607 24.5433ZM19.3894 26.8183L18.6838 27.5269C18.9719 27.8138 19.405 27.8977 19.7794 27.7391C20.1539 27.5805 20.395 27.211 20.3893 26.8044L19.3894 26.8183ZM23.2352 24.966L22.4977 25.6413L22.4978 25.6414L23.2352 24.966ZM23.4512 25.2392L22.624 25.8012C22.9343 26.2579 23.5561 26.3767 24.0129 26.0665C24.4698 25.7563 24.5887 25.1346 24.2787 24.6777L23.4512 25.2392ZM23.2345 24.965L22.497 25.6403L22.4971 25.6404L23.2345 24.965ZM20.6064 24.5423L20.0781 23.6933L20.0777 23.6935L20.6064 24.5423ZM19.3887 26.8173L20.3881 26.8534C20.3887 26.8368 20.3889 26.8201 20.3886 26.8034L19.3887 26.8173ZM19.3887 26.8176L18.3894 26.7815C18.3793 27.0598 18.4857 27.3297 18.6831 27.5262L19.3887 26.8176ZM21.9349 25.0005L21.5804 25.9355C22.0965 26.1313 22.6736 25.8717 22.8697 25.3557C23.0658 24.8397 22.8067 24.2624 22.2908 24.066L21.9349 25.0005ZM21.7283 24.9603L21.714 25.9602L21.7142 25.9602L21.7283 24.9603ZM21.729 24.9606L21.743 23.9607L21.7412 23.9607L21.729 24.9606ZM20.9984 25.6368L21.9983 25.651L21.9983 25.6498L20.9984 25.6368ZM21.3198 26.1953L20.777 27.0351C21.2407 27.3349 21.8597 27.202 22.1595 26.7383C22.4594 26.2746 22.3267 25.6557 21.863 25.3557L21.3198 26.1953ZM20.9977 25.6365L19.9978 25.6236L19.9977 25.6247L20.9977 25.6365ZM15.3913 22.9226C15.9198 23.0831 16.4783 22.7847 16.6387 22.2563C16.7992 21.7278 16.5008 21.1693 15.9724 21.0089L15.3913 22.9226ZM15.2545 21.9471L15.0374 20.9709C14.4994 21.0906 14.1596 21.6229 14.2777 22.1613C14.3957 22.6996 14.9271 23.041 15.4658 22.9245L15.2545 21.9471ZM29.2659 14.9232C29.1789 14.3778 28.6663 14.0061 28.1209 14.0931C27.5755 14.18 27.2039 14.6926 27.2908 15.238L29.2659 14.9232ZM28.3862 15.283L27.6639 15.9746C28.0451 16.3727 28.6765 16.3873 29.0757 16.0073C29.4749 15.6273 29.4914 14.996 29.1125 14.5957L28.3862 15.283ZM43.3305 24.0343L42.6121 24.7299C42.996 25.1264 43.6286 25.1369 44.0254 24.7534C44.4223 24.3698 44.4334 23.7373 44.0502 23.3401L43.3305 24.0343ZM42.8447 22.6681C42.316 22.5086 41.758 22.8078 41.5985 23.3365C41.4389 23.8653 41.7381 24.4232 42.2669 24.5828L42.8447 22.6681ZM33.847 18.0845L33.8471 18.0845L33.599 16.0999L33.5989 16.0999L33.847 18.0845ZM34.1888 16.2073L34.1871 16.2064L33.2589 17.978L33.2605 17.9788L34.1888 16.2073ZM33.7216 18.0931H33.7247V16.0931H33.7216V18.0931ZM34.5596 16.546L34.5374 16.5147L32.9058 17.6714L32.928 17.7027L34.5596 16.546ZM34.5838 16.5801L34.5593 16.5456L32.9283 17.7032L32.9529 17.7377L34.5838 16.5801ZM34.6611 17.6094L34.6619 17.6078L32.8748 16.71L32.8739 16.7117L34.6611 17.6094ZM34.6555 16.6911C34.645 16.6749 34.6348 16.6594 34.6269 16.6475C34.6184 16.6346 34.6123 16.6253 34.6065 16.6163L32.9286 17.7048C32.9391 17.721 32.9493 17.7365 32.9572 17.7484C32.9656 17.7612 32.9718 17.7706 32.9776 17.7795L34.6555 16.6911ZM34.8142 17.1667L34.8139 17.163L32.8192 17.3076L32.8194 17.3113L34.8142 17.1667ZM34.6472 16.6819L34.6458 16.6797L32.9879 17.7983L32.9893 17.8005L34.6472 16.6819ZM33.0151 17.837C33.0168 17.8392 33.0182 17.8411 33.019 17.8422C33.0195 17.8428 33.0198 17.8433 33.0201 17.8436C33.0203 17.8438 33.0205 17.8441 33.0205 17.8441L34.6161 16.6383C34.6155 16.6376 34.618 16.6407 34.6208 16.6445L33.0151 17.837ZM34.7186 16.7908L34.6546 16.693L32.9813 17.7885L33.0454 17.8863L34.7186 16.7908ZM34.1198 16.3673L34.1166 16.3665L33.6474 18.3107L33.6506 18.3115L34.1198 16.3673ZM36.4322 19.5354C35.8857 18.613 35.3202 17.6904 34.7176 16.7852L33.0528 17.8935C33.6287 18.7586 34.1746 19.6485 34.7116 20.5549L36.4322 19.5354ZM36.2624 19.4365C36.2641 19.4369 36.2811 19.4403 36.3074 19.4516C36.3346 19.4634 36.3632 19.4799 36.3897 19.5004C36.4424 19.5411 36.4539 19.5718 36.4315 19.5341L34.7123 20.5561C34.8117 20.7233 34.9532 20.9178 35.1664 21.0826C35.3878 21.2538 35.6345 21.3531 35.8899 21.4015L36.2624 19.4365ZM37.1159 19.6474C36.867 19.5781 36.5705 19.4948 36.2621 19.4365L35.8902 21.4016C36.1013 21.4415 36.3161 21.5008 36.579 21.574L37.1159 19.6474ZM37.1152 19.6472L37.1151 19.6472L36.5798 21.5743L36.5799 21.5743L37.1152 19.6472ZM37.1152 19.6473L37.1152 19.6472L36.5799 21.5743L36.5799 21.5743L37.1152 19.6473ZM37.426 19.7322C37.326 19.706 37.2252 19.6779 37.116 19.6475L36.5791 21.5741C36.6859 21.6038 36.8012 21.636 36.9181 21.6667L37.426 19.7322ZM38.1388 20.4436L38.1381 20.4411L36.206 20.9578L36.2066 20.9603L38.1388 20.4436ZM38.2382 20.3281C38.1252 20.1102 37.9396 19.9159 37.683 19.8017C37.4464 19.6964 37.2257 19.6931 37.0826 19.706L37.2628 21.6979C37.1968 21.7039 37.0461 21.7074 36.8697 21.6289C36.6732 21.5414 36.5378 21.3937 36.4624 21.2483L38.2382 20.3281ZM37.2133 19.7977L37.2118 19.7979L37.4888 21.7786L37.4903 21.7784L37.2133 19.7977ZM37.4714 19.7951L37.4559 19.7935L37.2477 21.7826L37.2633 21.7842L37.4714 19.7951ZM38.3507 20.6082L38.3507 20.6081L36.384 20.9712L36.384 20.9713L38.3507 20.6082ZM38.4335 19.9767C38.2106 19.9076 37.7927 19.768 37.3189 19.791L37.4158 21.7886C37.4809 21.7854 37.5646 21.8013 37.8414 21.8871L38.4335 19.9767ZM38.4248 19.9741L38.4248 19.9741L37.8501 21.8897L37.8501 21.8897L38.4248 19.9741ZM38.4249 19.9741L38.4248 19.9741L37.8501 21.8897L37.8502 21.8897L38.4249 19.9741ZM38.4249 19.9741L38.4249 19.9741L37.8502 21.8897L37.8502 21.8898L38.4249 19.9741ZM38.4249 19.9741L38.4249 19.9741L37.8502 21.8898L37.8502 21.8898L38.4249 19.9741ZM38.4249 19.9741L38.4249 19.9741L37.8502 21.8898L37.8503 21.8898L38.4249 19.9741ZM38.425 19.9741L38.4249 19.9741L37.8503 21.8898L37.8503 21.8898L38.425 19.9741ZM38.425 19.9741L38.425 19.9741L37.8503 21.8898L37.8503 21.8898L38.425 19.9741ZM38.425 19.9741L38.425 19.9741L37.8503 21.8898L37.8503 21.8898L38.425 19.9741ZM38.4251 19.9742L38.425 19.9741L37.8503 21.8898L37.8504 21.8898L38.4251 19.9742ZM38.4251 19.9742L38.4251 19.9742L37.8504 21.8898L37.8504 21.8898L38.4251 19.9742ZM38.4251 19.9742L38.4251 19.9742L37.8504 21.8898L37.8504 21.8898L38.4251 19.9742ZM38.6504 20.041C38.588 20.0245 38.5227 20.0044 38.4338 19.9768L37.8417 21.8872C37.9237 21.9126 38.0289 21.9453 38.1383 21.9743L38.6504 20.041ZM38.9266 20.1146L38.652 20.0414L38.1368 21.9739L38.4114 22.0471L38.9266 20.1146ZM41.7948 20.9183C40.8368 20.6235 39.8707 20.3662 38.9264 20.1146L38.4115 22.0471C39.3619 22.3004 40.291 22.5481 41.2064 22.8298L41.7948 20.9183ZM42.5454 21.1444C42.2911 21.0687 42.0423 20.9946 41.7951 20.9184L41.2061 22.8297C41.464 22.9092 41.7221 22.986 41.9748 23.0613L42.5454 21.1444ZM46.3954 22.6342C45.1372 21.9113 43.7747 21.5103 42.5454 21.1444L41.9748 23.0613C43.2412 23.4382 44.3763 23.7808 45.399 24.3684L46.3954 22.6342ZM47.4848 23.7273C47.2051 23.0671 46.6139 22.7601 46.3962 22.6347L45.3982 24.3679C45.4662 24.4071 45.515 24.4354 45.5592 24.4635C45.6019 24.4905 45.6283 24.5098 45.6451 24.5237C45.6743 24.5477 45.6574 24.5409 45.6432 24.5075L47.4848 23.7273ZM47.564 24.1186V24.1174H45.564V24.1186H47.564ZM46.8119 23.1498L46.8109 23.1495L46.3172 25.0876L46.3182 25.0879L46.8119 23.1498ZM46.994 25.0224L47.0103 25.0142L46.1197 23.2235L46.1034 23.2316L46.994 25.0224ZM47.321 23.4865L47.2638 23.4279L45.8336 24.826L45.8908 24.8845L47.321 23.4865ZM45.6247 24.3784L45.6255 24.3825L47.5863 23.9885L47.5855 23.9845L45.6247 24.3784ZM47.4486 26.2165C47.9605 25.436 48.0341 24.3058 47.3618 23.5276L45.8484 24.8352C45.8279 24.8114 45.8488 24.8191 45.8494 24.8874C45.8499 24.953 45.8293 25.0387 45.7762 25.1196L47.4486 26.2165ZM46.3967 27.5459C46.731 27.1625 47.1198 26.7188 47.4492 26.2156L45.7757 25.1204C45.5344 25.4891 45.2387 25.8307 44.8892 26.2315L46.3967 27.5459ZM46.3954 27.5473L46.3955 27.5472L44.8904 26.2302L44.8903 26.2303L46.3954 27.5473ZM46.2097 27.7611C46.2709 27.6901 46.3329 27.6191 46.3966 27.546L44.8891 26.2316C44.8259 26.3041 44.7609 26.3787 44.696 26.4539L46.2097 27.7611ZM42.6911 31.6375C43.8695 30.3713 45.0629 29.0893 46.2097 27.761L44.6959 26.454C43.5775 27.7493 42.4097 29.0042 41.227 30.2749L42.6911 31.6375ZM42.6938 31.6346L42.6938 31.6345L41.2242 30.278L41.2242 30.278L42.6938 31.6346ZM42.6846 31.6444L42.6849 31.6441L41.233 30.2686L41.2327 30.2689L42.6846 31.6444ZM40.9324 33.5389C41.5129 32.9034 42.1 32.2726 42.6907 31.6379L41.2266 30.2753C40.637 30.9089 40.0436 31.5465 39.4557 32.19L40.9324 33.5389ZM40.5654 34.5526C40.5528 34.2914 40.5465 34.1482 40.5492 34.0422C40.5515 33.9502 40.5603 33.9501 40.5501 33.9783C40.5401 34.0063 40.5338 33.9997 40.5916 33.9259C40.6576 33.8416 40.7554 33.733 40.9329 33.5383L39.4552 32.1906C39.1742 32.4987 38.8299 32.8514 38.6681 33.3016C38.5061 33.752 38.5481 34.2424 38.5677 34.6491L40.5654 34.5526ZM40.5677 34.6012L40.5654 34.5527L38.5677 34.649L38.5701 34.6975L40.5677 34.6012ZM40.835 41.4637C40.7808 39.1699 40.6773 36.8803 40.5677 34.6013L38.5701 34.6974C38.6795 36.9749 38.782 39.2435 38.8356 41.511L40.835 41.4637ZM40.7432 43.9839C40.8391 43.1323 40.8545 42.2875 40.835 41.4638L38.8356 41.5109C38.8537 42.2803 38.8381 43.0285 38.7558 43.7603L40.7432 43.9839ZM40.3212 45.6796C40.5768 45.1033 40.6843 44.5079 40.7432 43.9838L38.7558 43.7603C38.7068 44.1953 38.6296 44.5606 38.493 44.8687L40.3212 45.6796ZM38.3541 46.9933C39.1658 46.9444 39.9347 46.5503 40.3211 45.6799L38.4931 44.8684C38.4773 44.9039 38.4636 44.9225 38.4561 44.9313C38.449 44.9398 38.4423 44.9454 38.4339 44.9507C38.4177 44.9609 38.3626 44.9892 38.234 44.9969L38.3541 46.9933ZM36.4694 46.6443C37.0189 46.8705 37.6503 47.0361 38.3548 46.9932L38.2333 44.9969C37.9228 45.0158 37.6013 44.9474 37.2307 44.7948L36.4694 46.6443ZM33.3192 45.1591C34.3283 45.6667 35.3769 46.1947 36.4695 46.6443L37.2306 44.7948C36.2197 44.3788 35.2383 43.8857 34.2179 43.3724L33.3192 45.1591ZM33.2724 45.134L33.2724 45.134L34.2647 43.3975L34.2647 43.3975L33.2724 45.134ZM33.3171 45.1581L33.3177 45.1584L34.2193 43.3731L34.2188 43.3729L33.3171 45.1581ZM32.3107 44.6554C32.6457 44.8204 32.9799 44.9885 33.3186 45.1588L34.2173 43.3721C33.8799 43.2024 33.5381 43.0305 33.1944 42.8612L32.3107 44.6554ZM27.3096 42.1545C28.9711 42.9914 30.6372 43.8305 32.3104 44.6552L33.1947 42.8613C31.5304 42.041 29.8721 41.2058 28.2092 40.3683L27.3096 42.1545ZM27.6438 42.1658C27.6389 42.168 27.5765 42.1934 27.479 42.1907C27.3809 42.1881 27.3185 42.159 27.3109 42.1552L28.2079 40.3676C28.0221 40.2744 27.7963 40.1986 27.5331 40.1915C27.2705 40.1844 27.0415 40.2476 26.8518 40.3293L27.6438 42.1658ZM23.836 43.9008C25.1108 43.3042 26.3695 42.7153 27.6438 42.1659L26.8519 40.3293C25.5448 40.8929 24.2585 41.495 22.9883 42.0894L23.836 43.9008ZM21.9181 44.7924C22.5607 44.4977 23.2004 44.1983 23.836 43.9008L22.9883 42.0894C22.3515 42.3874 21.7187 42.6835 21.0843 42.9745L21.9181 44.7924ZM20.8807 45.2775C21.23 45.1126 21.5737 44.9504 21.9182 44.7924L21.0842 42.9746C20.7282 43.1379 20.3748 43.3047 20.0271 43.4688L20.8807 45.2775ZM20.8829 45.2764L20.8834 45.2762L20.0245 43.47L20.0241 43.4702L20.8829 45.2764ZM18.0805 46.5166C19.0508 46.1416 19.9845 45.7004 20.8803 45.2777L20.0267 43.469C19.12 43.8968 18.2512 44.3064 17.3595 44.6511L18.0805 46.5166ZM17.2654 46.7342C17.5604 46.6926 17.8371 46.6101 18.0786 46.5173L17.3614 44.6503C17.222 44.7039 17.095 44.7384 16.9863 44.7537L17.2654 46.7342ZM14.8937 45.181C15.0417 45.6609 15.3176 46.113 15.7668 46.416C16.2232 46.7239 16.7527 46.8066 17.2658 46.7341L16.9859 44.7538C16.9256 44.7623 16.8938 44.7579 16.8841 44.7559C16.8762 44.7544 16.8794 44.754 16.8854 44.7581C16.9022 44.7694 16.8532 44.7484 16.805 44.5919L14.8937 45.181ZM14.6607 43.4383C14.6668 43.9638 14.7044 44.569 14.8941 45.182L16.8047 44.5909C16.7001 44.2529 16.6659 43.8746 16.6605 43.4151L14.6607 43.4383ZM14.8649 38.0703C14.741 39.8368 14.6406 41.6307 14.6607 43.4378L16.6605 43.4156C16.6414 41.6919 16.7371 39.9632 16.86 38.2102L14.8649 38.0703ZM14.9402 36.9528C14.9155 37.3269 14.8908 37.699 14.8649 38.0707L16.86 38.2099C16.8863 37.8341 16.9111 37.4585 16.9359 37.0849L14.9402 36.9528ZM15.2098 33.476C15.0932 34.6405 15.0161 35.8065 14.9402 36.9528L16.9359 37.0849C17.0121 35.933 17.0872 34.8007 17.1999 33.6753L15.2098 33.476ZM15.0894 33.1918C15.1784 33.3035 15.1995 33.3516 15.2056 33.3683C15.2081 33.3753 15.21 33.3823 15.2113 33.3937C15.2127 33.4061 15.2142 33.4319 15.2098 33.4766L17.1999 33.6748C17.2344 33.329 17.2002 33.0013 17.0853 32.6852C16.9749 32.3814 16.8081 32.1394 16.6535 31.9454L15.0894 33.1918ZM9.57383 26.0589C11.3556 28.4919 13.2238 30.8527 15.0897 33.1921L16.6532 31.9451C14.7878 29.6061 12.9425 27.2738 11.1874 24.8772L9.57383 26.0589ZM8.618 24.6279C8.91584 25.1272 9.24006 25.6033 9.57392 26.059L11.1873 24.8771C10.8805 24.4583 10.5934 24.0355 10.3356 23.6032L8.618 24.6279ZM8.16053 22.8171C8.10314 23.5242 8.32101 24.1299 8.61789 24.6278L10.3357 23.6034C10.1847 23.3503 10.1395 23.1578 10.154 22.9789L8.16053 22.8171ZM8.56415 21.759C8.209 22.1648 8.17509 22.6357 8.16046 22.818L10.154 22.978C10.1568 22.9436 10.1589 22.9247 10.1607 22.9129C10.1623 22.9018 10.1624 22.905 10.159 22.9172C10.1553 22.9301 10.1474 22.954 10.132 22.9838C10.1163 23.0144 10.0953 23.0463 10.0691 23.0763L8.56415 21.759ZM9.53198 21.4411L9.5296 21.4406L9.10362 23.3947L9.106 23.3952L9.53198 21.4411ZM9.66968 20.9156C9.34534 21.0624 8.80515 21.3271 8.46 21.9062L10.178 22.9302C10.1815 22.9244 10.1922 22.907 10.2363 22.8754C10.2875 22.8388 10.3637 22.7968 10.4943 22.7377L9.66968 20.9156ZM12.2152 20.1847C11.4393 20.3435 10.5328 20.5249 9.66962 20.9157L10.4944 22.7377C11.1197 22.4546 11.8037 22.3104 12.6163 22.1441L12.2152 20.1847ZM12.3386 20.1594L12.215 20.1847L12.6165 22.144L12.7401 22.1187L12.3386 20.1594ZM17.3919 19.3446C15.7279 19.5763 14.0271 19.8128 12.3383 20.1595L12.7404 22.1186C14.3559 21.787 15.9932 21.5587 17.6677 21.3255L17.3919 19.3446ZM17.5298 19.3351H17.5298V21.3351H17.5298V19.3351ZM17.3977 19.3438L17.3976 19.3438L17.662 21.3263L17.662 21.3263L17.3977 19.3438ZM17.665 19.3066L17.3919 19.3446L17.6678 21.3255L17.941 21.2874L17.665 19.3066ZM17.766 19.2925L17.6653 19.3065L17.9407 21.2875L18.0415 21.2735L17.766 19.2925ZM17.7759 19.2912L17.7758 19.2912L18.0317 21.2748L18.0318 21.2748L17.7759 19.2912ZM20.2998 18.9973C19.4342 19.0602 18.5811 19.1792 17.7661 19.2925L18.0416 21.2735C18.8674 21.1586 19.6555 21.0494 20.4448 20.992L20.2998 18.9973ZM19.9148 19.1927C19.9201 19.1856 19.9614 19.1321 20.0459 19.081C20.1382 19.0251 20.2317 19.0022 20.301 18.9972L20.4436 20.9921C20.9437 20.9564 21.2893 20.6925 21.513 20.3951L19.9148 19.1927ZM25.5287 12.1812C23.5849 14.4615 21.7147 16.7995 19.9147 19.1928L21.5131 20.395C23.2892 18.0335 25.134 15.7272 27.0508 13.4786L25.5287 12.1812ZM27.1275 10.5667C26.487 11.0644 25.9722 11.6612 25.5289 12.181L27.0506 13.4788C27.5029 12.9485 27.8969 12.5017 28.3547 12.146L27.1275 10.5667ZM30.1585 10.5716C29.735 10.2379 29.2271 9.99768 28.6426 9.99768C28.0592 9.99768 27.5514 10.237 27.1272 10.5669L28.355 12.1457C28.5453 11.9977 28.6324 11.9977 28.6426 11.9977C28.6515 11.9977 28.7357 11.9968 28.921 12.1427L30.1585 10.5716ZM31.6858 12.2864C31.3004 11.7588 30.824 11.0965 30.1591 10.572L28.9204 12.1423C29.3353 12.4695 29.6589 12.9023 30.0708 13.4661L31.6858 12.2864ZM31.8518 12.5128C31.797 12.4387 31.7423 12.3638 31.6858 12.2864L30.0707 13.4661C30.1268 13.5428 30.1847 13.6221 30.2432 13.7013L31.8518 12.5128ZM34.5242 16.4624C33.6772 15.1407 32.8055 13.803 31.8517 12.5127L30.2434 13.7015C31.1544 14.934 31.9955 16.2233 32.8402 17.5415L34.5242 16.4624ZM34.6335 16.6761C34.6317 16.6718 34.5917 16.568 34.5245 16.463L32.8399 17.5409C32.8139 17.5003 32.7977 17.4671 32.7904 17.4513C32.784 17.4377 32.7798 17.4271 32.7853 17.4404L34.6335 16.6761ZM34.6581 16.742L34.6581 16.742L32.7607 17.3745L32.7607 17.3745L34.6581 16.742ZM34.6264 16.6609C34.6312 16.6709 34.6343 16.678 34.6352 16.6802C34.6357 16.6814 34.6359 16.6819 34.6356 16.6811C34.6352 16.6802 34.6347 16.679 34.6335 16.6761L32.7853 17.4404C32.788 17.447 32.802 17.4813 32.8197 17.5186L34.6264 16.6609ZM34.7231 17.0922V17.0897H32.7231V17.0922H34.7231ZM34.6507 16.687L34.6488 16.6843L32.9877 17.7981L32.9895 17.8008L34.6507 16.687ZM33.0199 17.8434C33.0226 17.847 33.0102 17.8308 32.9968 17.8113C32.9828 17.7911 32.955 17.7495 32.9267 17.6932L34.7135 16.7946C34.6847 16.7373 34.6564 16.6949 34.6418 16.6738C34.6338 16.6622 34.6271 16.6531 34.6231 16.6477C34.6211 16.6449 34.6194 16.6427 34.6184 16.6413C34.6178 16.6406 34.6174 16.64 34.6171 16.6396C34.6168 16.6393 34.6166 16.639 34.6166 16.639L33.0199 17.8434ZM33.3477 28.4679L33.3475 28.4679L33.3243 30.4677L33.3244 30.4677L33.3477 28.4679ZM32.336 29.4671V29.4678H34.336V29.4671H32.336ZM33.3243 30.467L33.3244 30.467L33.3477 28.4672L33.3475 28.4671L33.3243 30.467ZM34.3359 29.4678V29.4671H32.3359V29.4678H34.3359ZM34.8882 26.9268C34.8836 27.5368 34.525 28.0676 34.0142 28.3174L34.8928 30.1141C36.0581 29.5442 36.8776 28.3398 36.8882 26.9419L34.8882 26.9268ZM34.411 25.8091C34.7399 26.1368 34.8916 26.4989 34.8882 26.9263L36.8882 26.9424C36.8962 25.9409 36.5053 25.0724 35.8225 24.3922L34.411 25.8091ZM32.955 25.3615C33.5762 25.2803 34.0232 25.4235 34.4116 25.8097L35.8219 24.3917C34.9403 23.5149 33.851 23.2273 32.6955 23.3784L32.955 25.3615ZM32.8009 25.3982C32.8645 25.3776 32.9165 25.3666 32.9552 25.3615L32.6954 23.3785C32.5218 23.4012 32.3499 23.4419 32.1838 23.4958L32.8009 25.3982ZM32.6953 23.3785C32.5219 23.4013 32.3501 23.4419 32.1839 23.4958L32.8008 25.3982C32.8642 25.3777 32.9163 25.3667 32.955 25.3616L32.6953 23.3785ZM35.8218 24.3918C34.9402 23.5149 33.8508 23.2273 32.6954 23.3785L32.9549 25.3616C33.576 25.2803 34.023 25.4235 34.4114 25.8098L35.8218 24.3918ZM36.888 26.9424C36.896 25.941 36.5051 25.0725 35.8223 24.3923L34.4108 25.8092C34.7398 26.1369 34.8915 26.499 34.8881 26.9264L36.888 26.9424ZM34.8929 30.114C36.058 29.5442 36.8775 28.3398 36.888 26.942L34.8881 26.9269C34.8835 27.5369 34.5248 28.0676 34.0141 28.3174L34.8929 30.114ZM31.4947 25.8217C31.4932 26.5632 31.9616 27.1836 32.5755 27.447L33.3641 25.609C33.4032 25.6258 33.4319 25.6508 33.4525 25.6807C33.474 25.712 33.4948 25.7616 33.4947 25.8258L31.4947 25.8217ZM33.366 24.1001C32.4613 24.0689 31.4947 24.7533 31.4947 25.8237H33.4947C33.4947 25.9565 33.4307 26.0344 33.3998 26.0611C33.3686 26.0881 33.3337 26.1002 33.297 26.0989L33.366 24.1001ZM33.8034 24.1702C33.664 24.1297 33.5175 24.1055 33.3669 24.1002L33.2961 26.0989C33.2788 26.0983 33.2616 26.0955 33.2451 26.0907L33.8034 24.1702ZM33.2947 26.0985C33.2774 26.0979 33.2601 26.0951 33.2435 26.0902L33.8051 24.1707C33.6647 24.1296 33.5172 24.1052 33.3656 24.0998L33.2947 26.0985ZM33.4933 25.8254C33.4931 25.9565 33.4298 26.0339 33.3988 26.0607C33.3676 26.0877 33.3325 26.0998 33.2956 26.0986L33.3647 24.0997C32.4602 24.0684 31.4955 24.7522 31.4933 25.8213L33.4933 25.8254ZM33.3633 25.6087C33.4027 25.6255 33.4312 25.6505 33.4514 25.6799C33.4726 25.7107 33.4933 25.7597 33.4933 25.8233H31.4933C31.4933 26.5641 31.9618 27.1843 32.5763 27.4473L33.3633 25.6087ZM20.0783 23.6945C18.9642 24.3885 18.3709 25.4915 18.3895 26.8322L20.3893 26.8044C20.3802 26.1457 20.6318 25.706 21.1357 25.3921L20.0783 23.6945ZM23.9727 24.2906C22.8853 23.1032 21.3168 22.9239 20.0787 23.6943L21.1354 25.3924C21.5431 25.1386 22.0503 25.1528 22.4977 25.6413L23.9727 24.2906ZM24.2784 24.6773C24.1869 24.5426 24.085 24.4132 23.9726 24.2905L22.4978 25.6414C22.5438 25.6917 22.5859 25.745 22.624 25.8012L24.2784 24.6773ZM22.4971 25.6404C22.5433 25.6908 22.5855 25.7444 22.6237 25.8007L24.2787 24.6777C24.1869 24.5425 24.0847 24.4126 23.9719 24.2895L22.4971 25.6404ZM21.1347 25.3914C21.5425 25.1376 22.0497 25.1518 22.497 25.6403L23.972 24.2896C22.8846 23.1022 21.3161 22.9229 20.0781 23.6933L21.1347 25.3914ZM20.3886 26.8034C20.3795 26.1447 20.6311 25.705 21.1351 25.3911L20.0777 23.6935C18.9635 24.3875 18.3702 25.4905 18.3888 26.8312L20.3886 26.8034ZM20.3881 26.8537L20.3881 26.8534L18.3894 26.7812L18.3894 26.7815L20.3881 26.8537ZM20.0951 26.1098L20.0944 26.1091L18.6831 27.5262L18.6838 27.5269L20.0951 26.1098ZM22.2908 24.066C22.1232 24.0022 21.9381 23.9631 21.7423 23.9604L21.7142 25.9602C21.6611 25.9594 21.6153 25.9489 21.579 25.935L22.2908 24.066ZM21.7149 25.9605C21.6623 25.9598 21.6167 25.9493 21.5804 25.9355L22.2895 24.0655C22.1223 24.0021 21.9379 23.9634 21.743 23.9607L21.7149 25.9605ZM21.9983 25.6498C21.9954 25.8708 21.8191 25.9618 21.7168 25.9605L21.7412 23.9607C20.8396 23.9497 20.0111 24.6437 19.9985 25.6239L21.9983 25.6498ZM21.863 25.3557C21.8938 25.3756 21.923 25.4038 21.9473 25.4449C21.9721 25.487 21.9996 25.5572 21.9983 25.651L19.9985 25.6227C19.9896 26.2516 20.352 26.7602 20.7766 27.0349L21.863 25.3557ZM19.9977 25.6247C19.9904 26.2519 20.3515 26.7601 20.777 27.0351L21.8627 25.3555C21.8937 25.3755 21.9228 25.4037 21.9468 25.4444C21.9715 25.4861 21.9987 25.5555 21.9976 25.6483L19.9977 25.6247ZM21.7425 23.9604C20.8374 23.9475 20.0104 24.6451 19.9978 25.6236L21.9976 25.6494C21.9948 25.8687 21.8199 25.9617 21.714 25.9602L21.7425 23.9604ZM15.9724 21.0089C15.6439 20.9092 15.33 20.9076 15.0431 20.9697L15.4658 22.9245C15.4586 22.926 15.4445 22.9281 15.4264 22.9275C15.408 22.9269 15.3954 22.9239 15.3913 22.9226L15.9724 21.0089ZM15.4715 22.9232C15.4605 22.9257 15.444 22.9278 15.4249 22.9272C15.4058 22.9265 15.3937 22.9234 15.3913 22.9226L15.9724 21.0089C15.6476 20.9103 15.3321 20.9054 15.0374 20.9709L15.4715 22.9232ZM27.2908 15.238C27.3376 15.5317 27.477 15.7771 27.6599 15.9703L29.1125 14.5957C29.1346 14.619 29.168 14.6599 29.1992 14.7199C29.2313 14.7818 29.2543 14.8509 29.2659 14.9232L27.2908 15.238ZM29.1085 14.5914C29.1338 14.6179 29.1683 14.6606 29.1997 14.7213C29.2318 14.7834 29.2545 14.852 29.2659 14.9232L27.2908 15.238C27.3371 15.5283 27.4747 15.777 27.6639 15.9746L29.1085 14.5914ZM44.0502 23.3401C43.6442 22.9191 43.1413 22.7576 42.8447 22.6681L42.2669 24.5828C42.3942 24.6213 42.4737 24.6502 42.5326 24.6788C42.586 24.7048 42.6047 24.7223 42.6108 24.7286L44.0502 23.3401ZM42.2669 24.5828C42.3931 24.6209 42.473 24.6501 42.532 24.6788C42.586 24.7051 42.6054 24.7231 42.6121 24.7299L44.049 23.3387C43.644 22.9204 43.1434 22.7583 42.8447 22.6681L42.2669 24.5828Z" fill="#352416" mask="url(#path-2-outside-1_1363_6436)"/>
</g>
<path d="M33.723 17.0922C33.5988 17.1084 33.5931 16.9987 33.54 16.9313C32.6255 15.7779 31.729 14.6107 30.8661 13.4184C30.4575 12.8543 30.0064 12.3276 29.4842 11.8594C28.9538 11.384 28.3965 11.4278 27.9388 11.8733C27.0088 12.7795 26.1835 13.7744 25.3589 14.7741C24.7754 15.4812 24.1903 16.1875 23.5766 16.8703C23.0625 17.4433 22.5812 18.0456 22.0974 18.6438C21.7297 19.099 21.3194 19.5119 20.8961 19.9126C20.7466 20.0548 20.5365 20.1068 20.3339 20.1418C19.6474 20.2604 18.9569 20.3572 18.2737 20.4929C17.405 20.6652 16.5306 20.7953 15.657 20.9351C15.058 21.0302 14.4655 21.1773 13.864 21.2415C13.3034 21.3016 12.7967 21.5422 12.2492 21.6332C11.5276 21.7527 10.8559 22.0388 10.1571 22.2306C9.88747 22.3046 9.62514 22.4883 9.31787 22.42C9.49439 22.1225 9.78205 21.9624 10.082 21.8267C10.8648 21.4723 11.7041 21.3106 12.5393 21.1391C14.2816 20.7814 16.0427 20.5425 17.803 20.297C18.6569 20.1783 19.5109 20.0572 20.3723 19.9947C20.5202 19.9841 20.6215 19.9166 20.7139 19.7939C22.5019 17.4165 24.3594 15.0943 26.2897 12.8299C26.7375 12.3049 27.1919 11.783 27.7411 11.3563C28.3556 10.8784 28.9309 10.8776 29.5397 11.3571C30.1559 11.8432 30.5898 12.4877 31.0475 13.1071C31.9799 14.3685 32.8364 15.682 33.6822 17.002C33.6993 17.0288 33.7091 17.0605 33.723 17.0897V17.0922Z" fill="white"/>
<path d="M46.5639 24.119C46.3858 24.0735 46.1888 24.0605 46.0319 23.9752C45.5849 23.7329 45.1183 23.5379 44.6516 23.3371C44.2079 23.1469 43.7364 23.0453 43.291 22.8633C42.7238 22.6316 42.1191 22.5064 41.5364 22.3171C40.814 22.083 40.0883 21.853 39.3618 21.6278C38.9099 21.4872 38.4703 21.306 38.0232 21.1475C37.8925 21.1011 37.7536 21.0759 37.622 21.0304C37.5043 20.989 37.3924 20.9321 37.3662 20.7898C37.7282 20.7719 38.0568 20.9182 38.3943 21.0077C39.4329 21.2848 40.4732 21.5579 41.5005 21.8741C42.996 22.3349 44.525 22.7129 45.8971 23.5013C46.161 23.6533 46.4348 23.8126 46.5639 24.1174V24.119Z" fill="white"/>
<path d="M37.3517 20.7906C37.2716 20.802 37.1972 20.8012 37.1719 20.702C37.2503 20.6947 37.3141 20.7159 37.3517 20.7906Z" fill="white"/>
<path d="M33.3356 29.4679C31.8581 29.4484 30.6781 28.239 30.705 26.7483C30.7296 25.3731 31.9684 24.4822 32.8249 24.3701C33.7132 24.2538 34.4814 24.4692 35.1163 25.1008C35.6222 25.6047 35.8935 26.22 35.8878 26.9344C35.8772 28.3446 34.7192 29.4858 33.3356 29.4671V29.4679ZM34.0703 25.8347C34.0777 25.447 33.7426 25.1138 33.3299 25.0992C32.8837 25.0837 32.4939 25.4202 32.4931 25.8233C32.4931 26.2257 32.8322 26.5744 33.2376 26.5882C33.6911 26.6036 34.0613 26.2688 34.0695 25.8347H34.0703Z" fill="#371E22"/>
<path d="M19.3893 26.8183C19.3754 25.8186 19.7979 25.0472 20.607 24.5433C21.4299 24.0312 22.4678 24.1279 23.2351 24.9659C24.1479 25.9624 24.1038 27.6124 23.1477 28.569C21.9938 29.7232 20.3667 29.3095 19.6598 27.9529C19.4727 27.5937 19.3746 27.2035 19.3885 26.8175L19.3893 26.8183ZM21.68 26.307C22.0649 26.3111 22.3681 26.0161 22.3762 25.63C22.3836 25.2837 22.0755 24.9651 21.7282 24.9602C21.3286 24.9546 21.0025 25.2569 20.9976 25.6365C20.9935 25.9835 21.3179 26.303 21.6791 26.307H21.68Z" fill="#371E22"/>
<path d="M34.071 25.8351C34.0629 26.2691 33.6927 26.604 33.2391 26.5885C32.833 26.5747 32.4938 26.226 32.4946 25.8237C32.4946 25.4214 32.8844 25.0841 33.3315 25.0995C33.7441 25.1141 34.0792 25.4474 34.0718 25.8351H34.071Z" fill="white"/>
<path d="M21.6801 26.3074C21.3189 26.3034 20.9937 25.9839 20.9986 25.6369C21.0035 25.2573 21.3296 24.9558 21.7292 24.9606C22.0765 24.9655 22.3838 25.2833 22.3772 25.6304C22.3691 26.0164 22.0659 26.3115 21.681 26.3074H21.6801Z" fill="white"/>
<path d="M46.6059 24.1855L46.5487 24.127L46.565 24.1188C46.3869 24.0733 46.1899 24.0603 46.033 23.975C45.586 23.7327 45.1194 23.5377 44.6528 23.3369C44.209 23.1467 43.7375 23.0451 43.2921 22.8631C42.725 22.6314 42.1202 22.5063 41.5376 22.3169C40.8151 22.0828 40.0895 21.8528 39.363 21.6276C38.911 21.487 38.4714 21.3058 38.0244 21.1473C37.8936 21.1009 37.7547 21.0757 37.6231 21.0302C37.5054 20.9888 37.3935 20.9319 37.3673 20.7896L37.3518 20.788C37.2717 20.7994 37.1974 20.7986 37.172 20.6994C36.8067 20.6035 36.4455 20.4889 36.0761 20.419C35.8318 20.3727 35.6937 20.2499 35.5719 20.0451C35.0301 19.1307 34.4744 18.2245 33.8852 17.3393C33.828 17.3263 33.8198 17.2824 33.8166 17.2353C33.8002 17.2101 33.7839 17.1857 33.7675 17.1605L33.7683 17.1589C33.752 17.1361 33.7357 17.1126 33.7193 17.0898C33.5975 17.1044 33.5918 16.9955 33.5387 16.9289C32.6243 15.7755 31.7278 14.6084 30.8648 13.416C30.4562 12.8519 30.0051 12.3244 29.4829 11.8571C28.9525 11.3816 28.3952 11.4255 27.9376 11.8709C27.0076 12.7772 26.1822 13.772 25.3576 14.7717C24.7741 15.4789 24.189 16.1852 23.5753 16.8679C23.0613 17.4409 22.5799 18.0432 22.0961 18.6414C21.7284 19.0966 21.3182 19.5095 20.8948 19.9102C20.7453 20.0524 20.5353 20.1045 20.3326 20.1394C19.6461 20.2581 18.9556 20.3548 18.2724 20.4905C17.4037 20.6628 16.5293 20.7929 15.6557 20.9327C15.0567 21.0278 14.4642 21.1749 13.8627 21.2391C13.3021 21.2993 12.7955 21.5398 12.2479 21.6309C11.5263 21.7504 10.8546 22.0365 10.1559 22.2283C9.8862 22.3022 9.62388 22.4859 9.31661 22.4177C9.19566 22.5558 9.17114 22.7249 9.15725 22.898C9.12129 23.341 9.25287 23.7401 9.47678 24.1156C9.75463 24.5813 10.0603 25.0308 10.3806 25.4681C12.1491 27.8829 14.0058 30.2294 15.8714 32.5686C16.115 32.8742 16.2474 33.1489 16.2049 33.5756C16.0529 35.0931 15.9687 36.6179 15.8625 38.1403C15.7391 39.9 15.641 41.6613 15.6606 43.4267C15.6663 43.9192 15.7023 44.4109 15.8494 44.8864C16.0455 45.5228 16.4991 45.8325 17.1259 45.7439C17.3277 45.7155 17.5296 45.657 17.72 45.5838C19.0112 45.0847 20.2452 44.4597 21.5012 43.8834C23.4167 43.0048 25.3119 42.0823 27.2478 41.2476C27.4325 41.1679 27.5812 41.172 27.7594 41.2614C29.4216 42.0986 31.0838 42.9357 32.7526 43.7583C34.1108 44.4272 35.4477 45.1425 36.85 45.7195C37.3101 45.9089 37.7866 46.026 38.2941 45.9951C38.8073 45.9642 39.2003 45.7399 39.4071 45.2741C39.6032 44.832 39.6956 44.3516 39.7495 43.8721C39.8386 43.0804 39.8541 42.2839 39.8353 41.4873C39.7814 39.2066 39.6784 36.9276 39.5689 34.6493C39.5191 33.613 39.5076 33.6171 40.1941 32.8644C41.947 30.9454 43.7538 29.0752 45.4528 27.1075C45.8557 26.6409 46.2741 26.1849 46.6124 25.668C46.9344 25.1771 46.9246 24.5512 46.6051 24.1814L46.6059 24.1855ZM15.6819 21.9657C15.5266 21.9186 15.386 21.9186 15.2545 21.9471C15.386 21.9178 15.5266 21.9186 15.6819 21.9657ZM15.1114 21.9901C15.0788 22.0023 15.0469 22.017 15.0158 22.0324C15.0477 22.017 15.0796 22.0023 15.1114 21.9901ZM14.6505 22.2592C14.6424 22.2649 14.6334 22.2705 14.6252 22.277C14.6228 22.2787 14.6203 22.2803 14.6187 22.2819C14.6211 22.2803 14.6236 22.2787 14.6252 22.277C14.6334 22.2714 14.6424 22.2657 14.6505 22.2592ZM14.8875 22.1023C14.8679 22.1145 14.8483 22.1259 14.8287 22.1389C14.8483 22.1267 14.8679 22.1145 14.8875 22.1023ZM14.4078 22.5851C14.4078 22.5851 14.4078 22.5875 14.4078 22.5883C14.4078 22.5875 14.4078 22.5859 14.4078 22.5851ZM23.1479 28.5689C21.994 29.723 20.3669 29.3093 19.66 27.9528C19.4729 27.5935 19.3748 27.2034 19.3887 26.8173C19.3748 25.8176 19.7973 25.0462 20.6064 24.5423C21.4293 24.0302 22.4671 24.127 23.2345 24.9649C24.1473 25.9614 24.1032 27.6114 23.1471 28.568L23.1479 28.5689ZM28.8234 14.5767C29.1912 14.5986 29.487 14.7148 29.7068 14.9132C29.487 14.7148 29.192 14.5986 28.8234 14.5767C28.803 14.5767 28.7825 14.5767 28.7613 14.5767C28.7817 14.5767 28.8022 14.5767 28.8234 14.5767ZM28.2783 15.0806C28.289 15.1472 28.3208 15.2139 28.3862 15.283C28.3208 15.2147 28.289 15.1472 28.2783 15.0806ZM29.7877 15.9625C29.876 15.9251 29.9569 15.8568 30.0116 15.7788C29.9561 15.8568 29.876 15.9251 29.7877 15.9625ZM33.336 29.4678C31.8585 29.4483 30.6785 28.2389 30.7054 26.7482C30.73 25.373 31.9689 24.4821 32.8253 24.37C33.7136 24.2537 34.4818 24.4691 35.1167 25.1007C35.6226 25.6046 35.8939 26.2199 35.8882 26.9343C35.8776 28.3445 34.7196 29.4857 33.336 29.467V29.4678ZM42.0761 24.4082C41.9952 24.3196 41.9176 24.2147 41.9012 24.0961C41.9176 24.2155 41.9952 24.3204 42.0761 24.4082ZM43.5046 24.5033C43.57 24.3261 43.4588 24.1668 43.3305 24.0343C43.118 23.8148 42.8386 23.7108 42.5558 23.6255C42.8386 23.7108 43.118 23.814 43.3305 24.0343C43.4588 24.1668 43.57 24.3253 43.5046 24.5033Z" fill="#F6E680"/>
<path d="M39.5712 23.2868C39.4208 23.2624 39.2712 23.2323 39.1209 23.2087C37.9899 23.0332 36.9283 22.8584 35.7817 22.8714C34.5543 22.8852 33.3367 23.008 32.128 23.2185C31.6663 23.2989 31.2037 23.377 30.7494 23.4891C30.0449 23.6639 29.3487 23.8744 28.6459 24.0557C28.3639 24.128 28.0681 24.1459 27.7862 24.2174C27.313 24.3369 26.8578 24.2109 26.4067 24.1207C25.9229 24.0248 25.453 23.863 24.9758 23.7346C24.0719 23.4916 23.1559 23.3006 22.2308 23.1567C21.3466 23.0193 20.4542 22.9429 19.561 22.9064C18.8124 22.8763 18.0597 22.8308 17.3128 22.9096C16.5659 22.9885 15.8663 23.1567 15.1529 23.2868C15.0638 23.303 14.965 23.3258 14.9715 23.4428C14.9919 23.7907 15.0058 24.1402 15.05 24.4864C15.0794 24.7181 15.2232 24.8749 15.4733 24.9099C15.6408 24.9335 15.8067 24.966 15.9742 24.9855C16.0519 24.9944 16.0837 25.0196 16.0845 25.1017C16.0862 25.2578 16.1025 25.413 16.1099 25.5691C16.1581 26.6054 16.2374 27.6392 16.3967 28.6658C16.4678 29.1242 16.5561 29.5786 16.7277 30.0134C17.1469 31.0717 19.1131 30.9075 20.0194 30.931C20.5105 30.944 21.0033 30.931 21.4953 30.9091C22.2447 30.8742 22.9891 30.8026 23.7238 30.636C24.2166 30.5247 24.5574 30.2621 24.7797 29.8126C25.0812 29.2014 25.3133 28.565 25.5086 27.9148C25.7529 27.1004 25.9744 26.2794 26.2098 25.4447C26.3201 25.452 26.4508 25.4545 26.5791 25.4699C26.7459 25.4894 26.9118 25.5366 27.0785 25.5406C27.295 25.5455 27.5132 25.5227 27.7306 25.5073C27.8785 25.4967 28.0256 25.4797 28.1727 25.4634C28.2389 25.4561 28.3059 25.448 28.3713 25.4366C28.4922 25.4155 28.5584 25.4707 28.5895 25.6089C28.891 26.937 29.2571 28.2464 29.7973 29.5013C29.897 29.7322 30.0335 29.9484 30.1667 30.1621C30.3138 30.3987 30.5541 30.5181 30.8139 30.575C31.2593 30.6734 31.708 30.7693 32.1607 30.8254C33.058 30.9367 33.9626 30.9603 34.8657 30.9286C35.2203 30.9164 35.5758 30.9034 35.9305 30.8815C36.2427 30.862 36.5818 30.8717 36.8842 30.7864C37.1334 30.7165 37.5151 30.5799 37.7128 30.4092C37.8942 30.2532 38.0086 30.0378 38.0757 29.8118C38.2947 29.0714 38.4009 28.313 38.4704 27.5507C38.5447 26.7403 38.5848 25.9267 38.6346 25.1147C38.6412 25.0147 38.6788 24.9887 38.7727 24.983C38.9207 24.9733 39.0669 24.9481 39.214 24.9294C39.4616 24.8969 39.6055 24.7538 39.6725 24.5189C39.7673 24.1849 39.7444 23.8427 39.7518 23.5013C39.755 23.3688 39.697 23.3071 39.5728 23.2868H39.5712Z" fill="black"/>
<defs>
<filter id="filter0_d_1363_6436" x="8.15137" y="9.99768" width="39.6978" height="39.0023" filterUnits="userSpaceOnUse" color-interpolation-filters="sRGB">
<feFlood flood-opacity="0" result="BackgroundImageFix"/>
<feColorMatrix in="SourceAlpha" type="matrix" values="0 0 0 0 0 0 0 0 0 0 0 0 0 0 0 0 0 0 127 0" result="hardAlpha"/>
<feOffset dy="2"/>
<feComposite in2="hardAlpha" operator="out"/>
<feColorMatrix type="matrix" values="0 0 0 0 0 0 0 0 0 0 0 0 0 0 0 0 0 0 0.25 0"/>
<feBlend mode="normal" in2="BackgroundImageFix" result="effect1_dropShadow_1363_6436"/>
<feBlend mode="normal" in="SourceGraphic" in2="effect1_dropShadow_1363_6436" result="shape"/>
</filter>
</defs>
</svg>
