<svg width="56" height="56" viewBox="0 0 56 56" fill="none" xmlns="http://www.w3.org/2000/svg">
<path d="M0.3 28C0.3 12.7017 12.7017 0.3 28 0.3C43.2983 0.3 55.7 12.7017 55.7 28C55.7 43.2983 43.2983 55.7 28 55.7C12.7017 55.7 0.3 43.2983 0.3 28Z" stroke="#7F7F7F" stroke-width="0.6"/>
<g filter="url(#filter0_d_1189_1687)">
<mask id="path-2-outside-1_1189_1687" maskUnits="userSpaceOnUse" x="8.15149" y="9.99756" width="40" height="38" fill="black">
<rect fill="white" x="8.15149" y="9.99756" width="40" height="38"/>
<path fill-rule="evenodd" clip-rule="evenodd" d="M33.7232 17.0921L33.7231 17.0921L33.7248 17.0929H33.7218L33.744 17.1243L33.7685 17.1588L33.7677 17.1604C33.784 17.1856 33.8003 17.21 33.8167 17.2352L33.817 17.2389L33.8184 17.2411C33.8183 17.2409 33.8182 17.2408 33.8181 17.2406L33.8821 17.3385L33.8853 17.3392C34.4745 18.2244 35.0302 19.1306 35.5721 20.045C35.6938 20.2498 35.8319 20.3726 36.0763 20.4189C36.336 20.4681 36.5917 20.5393 36.8476 20.6106L36.8476 20.6106L36.8477 20.6106C36.9557 20.6407 37.0637 20.6709 37.1721 20.6993L37.1728 20.7018C37.25 20.6949 37.3128 20.7156 37.3504 20.7881L37.3519 20.7879L37.3675 20.7895L37.3675 20.7897C37.6369 20.7766 37.8877 20.8543 38.1376 20.9318L38.1376 20.9318L38.1376 20.9318L38.1377 20.9318L38.1377 20.9318L38.1377 20.9318L38.1378 20.9318L38.1378 20.9318L38.1378 20.9318L38.1378 20.9319L38.1379 20.9319L38.1379 20.9319C38.2233 20.9583 38.3086 20.9848 38.3945 21.0075L38.6691 21.0807C39.6164 21.3332 40.564 21.5857 41.5007 21.874C41.7532 21.9518 42.0067 22.0272 42.2602 22.1027C43.5081 22.4742 44.7569 22.8459 45.8973 23.5012C46.1613 23.6532 46.435 23.8125 46.5641 24.1173V24.1185L46.5652 24.1187L46.5488 24.1269L46.606 24.1854L46.6052 24.1813C46.9247 24.5511 46.9345 25.177 46.6126 25.6679C46.3272 26.1039 45.985 26.4964 45.6431 26.8886L45.643 26.8887C45.5795 26.9615 45.516 27.0343 45.4529 27.1074C44.3203 28.4192 43.1397 29.6876 41.9592 30.9561L41.9591 30.9562L41.9588 30.9565C41.3686 31.5906 40.7784 32.2248 40.1942 32.8643C39.5186 33.6051 39.519 33.6129 39.5667 34.6007L39.569 34.6492C39.6785 36.9275 39.7815 39.2065 39.8354 41.4872C39.8542 42.2838 39.8387 43.0803 39.7496 43.872C39.6957 44.3515 39.6033 44.8319 39.4072 45.274C39.2005 45.7398 38.8074 45.9641 38.2942 45.995C37.7867 46.0259 37.3103 45.9088 36.8502 45.7194C35.7984 45.2866 34.7834 44.7761 33.7687 44.2657L33.7687 44.2656L33.7681 44.2654C33.43 44.0953 33.092 43.9253 32.7527 43.7582C31.0839 42.9356 29.4217 42.0985 27.7595 41.2613C27.5814 41.1719 27.4326 41.1678 27.2479 41.2475C25.9573 41.804 24.6848 42.3995 23.4123 42.995C22.776 43.2927 22.1398 43.5905 21.5013 43.8833C21.1511 44.044 20.8026 44.2085 20.454 44.373L20.4536 44.3732C19.5524 44.7985 18.6511 45.2239 17.7201 45.5837C17.5297 45.6568 17.3278 45.7154 17.126 45.7438C16.4992 45.8324 16.0456 45.5227 15.8495 44.8863C15.7024 44.4108 15.6665 43.9191 15.6607 43.4266C15.6411 41.6612 15.7392 39.8999 15.8626 38.1402C15.8887 37.7664 15.9134 37.3926 15.9382 37.0187C16.0142 35.8696 16.0903 34.7205 16.205 33.5755C16.2475 33.1488 16.1151 32.8741 15.8716 32.5685C14.0059 30.2293 12.1492 27.8828 10.3807 25.468C10.0604 25.0307 9.75475 24.5812 9.4769 24.1155C9.25299 23.74 9.12142 23.3409 9.15737 22.8979C9.17127 22.7248 9.19578 22.5557 9.31673 22.4176L9.31911 22.4181C9.49572 22.1218 9.78282 21.962 10.0821 21.8266C10.8264 21.4897 11.6216 21.3269 12.4159 21.1643L12.5395 21.1389C14.1916 20.7998 15.8607 20.5674 17.5299 20.335H17.5299L17.53 20.3349L17.8031 20.2969L17.9039 20.2829L17.904 20.2829C18.7243 20.1688 19.545 20.0547 20.3724 19.9945C20.5203 19.984 20.6217 19.9165 20.714 19.7938C22.5021 17.4164 24.3596 15.0942 26.2898 12.8298C26.7377 12.3047 27.192 11.7829 27.7412 11.3562C28.3557 10.8783 28.9311 10.8775 29.5399 11.357C30.0798 11.7829 30.4798 12.3304 30.8784 12.8761C30.9347 12.9532 30.991 13.0303 31.0476 13.107C31.9801 14.3684 32.8365 15.6819 33.6823 17.0018C33.6934 17.0192 33.7015 17.0386 33.7095 17.0581L33.7095 17.0581C33.7139 17.0687 33.7183 17.0793 33.7232 17.0896V17.0921ZM33.8202 17.2438L33.8184 17.2411C33.8191 17.242 33.8198 17.2429 33.8202 17.2438ZM33.336 29.4677L33.3362 29.4677V29.467L33.336 29.467V29.4677ZM34.4536 29.2156C35.2916 28.8058 35.8807 27.9382 35.8883 26.9342C35.894 26.2198 35.6227 25.6045 35.1169 25.1006C34.4819 24.469 33.7137 24.2536 32.8254 24.3699C32.7193 24.3838 32.6073 24.4096 32.4925 24.4469C32.6073 24.4097 32.7192 24.3838 32.8252 24.37C33.7136 24.2537 34.4817 24.4691 35.1167 25.1007C35.6226 25.6046 35.8939 26.2199 35.8881 26.9343C35.8806 27.9382 35.2915 28.8058 34.4536 29.2156ZM32.9699 26.5279C32.6936 26.4093 32.4942 26.1323 32.4948 25.8236C32.4948 25.4213 32.8846 25.084 33.3316 25.0994C33.3983 25.1018 33.4629 25.1125 33.5244 25.1303C33.4625 25.1122 33.3974 25.1014 33.3303 25.099C32.8841 25.0836 32.4943 25.4201 32.4935 25.8232C32.4935 26.1322 32.6935 26.4096 32.9699 26.5279ZM19.3895 26.8182C19.3756 25.8185 19.7981 25.0471 20.6072 24.5432C21.4301 24.0311 22.468 24.1279 23.2353 24.9658C23.3145 25.0523 23.3865 25.1437 23.4513 25.2391C23.3863 25.1433 23.3141 25.0516 23.2346 24.9648C22.4673 24.1269 21.4294 24.0301 20.6065 24.5422C19.7974 25.0461 19.3749 25.8175 19.3888 26.8172L19.3888 26.8175L19.3895 26.8182ZM21.7284 24.9602C21.7997 24.9612 21.8694 24.9754 21.935 25.0004C21.8696 24.9756 21.8002 24.9615 21.7291 24.9605C21.3295 24.9556 21.0034 25.2571 20.9985 25.6367C20.9953 25.8597 21.1285 26.0713 21.32 26.1952C21.1284 26.0714 20.9952 25.8596 20.9978 25.6364C21.0027 25.2568 21.3288 24.9545 21.7284 24.9602ZM15.682 21.9656C15.5267 21.9185 15.3861 21.9185 15.2546 21.9469C15.3861 21.9177 15.5267 21.9185 15.682 21.9656ZM28.2785 15.0805C28.2891 15.1471 28.3209 15.2138 28.3863 15.2829C28.3209 15.2146 28.2891 15.1471 28.2785 15.0805ZM43.3306 24.0342C43.1182 23.8139 42.8387 23.7107 42.5559 23.6254C42.8387 23.7107 43.1182 23.8147 43.3306 24.0342Z"/>
</mask>
<path fill-rule="evenodd" clip-rule="evenodd" d="M33.7232 17.0921L33.7231 17.0921L33.7248 17.0929H33.7218L33.744 17.1243L33.7685 17.1588L33.7677 17.1604C33.784 17.1856 33.8003 17.21 33.8167 17.2352L33.817 17.2389L33.8184 17.2411C33.8183 17.2409 33.8182 17.2408 33.8181 17.2406L33.8821 17.3385L33.8853 17.3392C34.4745 18.2244 35.0302 19.1306 35.5721 20.045C35.6938 20.2498 35.8319 20.3726 36.0763 20.4189C36.336 20.4681 36.5917 20.5393 36.8476 20.6106L36.8476 20.6106L36.8477 20.6106C36.9557 20.6407 37.0637 20.6709 37.1721 20.6993L37.1728 20.7018C37.25 20.6949 37.3128 20.7156 37.3504 20.7881L37.3519 20.7879L37.3675 20.7895L37.3675 20.7897C37.6369 20.7766 37.8877 20.8543 38.1376 20.9318L38.1376 20.9318L38.1376 20.9318L38.1377 20.9318L38.1377 20.9318L38.1377 20.9318L38.1378 20.9318L38.1378 20.9318L38.1378 20.9318L38.1378 20.9319L38.1379 20.9319L38.1379 20.9319C38.2233 20.9583 38.3086 20.9848 38.3945 21.0075L38.6691 21.0807C39.6164 21.3332 40.564 21.5857 41.5007 21.874C41.7532 21.9518 42.0067 22.0272 42.2602 22.1027C43.5081 22.4742 44.7569 22.8459 45.8973 23.5012C46.1613 23.6532 46.435 23.8125 46.5641 24.1173V24.1185L46.5652 24.1187L46.5488 24.1269L46.606 24.1854L46.6052 24.1813C46.9247 24.5511 46.9345 25.177 46.6126 25.6679C46.3272 26.1039 45.985 26.4964 45.6431 26.8886L45.643 26.8887C45.5795 26.9615 45.516 27.0343 45.4529 27.1074C44.3203 28.4192 43.1397 29.6876 41.9592 30.9561L41.9591 30.9562L41.9588 30.9565C41.3686 31.5906 40.7784 32.2248 40.1942 32.8643C39.5186 33.6051 39.519 33.6129 39.5667 34.6007L39.569 34.6492C39.6785 36.9275 39.7815 39.2065 39.8354 41.4872C39.8542 42.2838 39.8387 43.0803 39.7496 43.872C39.6957 44.3515 39.6033 44.8319 39.4072 45.274C39.2005 45.7398 38.8074 45.9641 38.2942 45.995C37.7867 46.0259 37.3103 45.9088 36.8502 45.7194C35.7984 45.2866 34.7834 44.7761 33.7687 44.2657L33.7687 44.2656L33.7681 44.2654C33.43 44.0953 33.092 43.9253 32.7527 43.7582C31.0839 42.9356 29.4217 42.0985 27.7595 41.2613C27.5814 41.1719 27.4326 41.1678 27.2479 41.2475C25.9573 41.804 24.6848 42.3995 23.4123 42.995C22.776 43.2927 22.1398 43.5905 21.5013 43.8833C21.1511 44.044 20.8026 44.2085 20.454 44.373L20.4536 44.3732C19.5524 44.7985 18.6511 45.2239 17.7201 45.5837C17.5297 45.6568 17.3278 45.7154 17.126 45.7438C16.4992 45.8324 16.0456 45.5227 15.8495 44.8863C15.7024 44.4108 15.6665 43.9191 15.6607 43.4266C15.6411 41.6612 15.7392 39.8999 15.8626 38.1402C15.8887 37.7664 15.9134 37.3926 15.9382 37.0187C16.0142 35.8696 16.0903 34.7205 16.205 33.5755C16.2475 33.1488 16.1151 32.8741 15.8716 32.5685C14.0059 30.2293 12.1492 27.8828 10.3807 25.468C10.0604 25.0307 9.75475 24.5812 9.4769 24.1155C9.25299 23.74 9.12142 23.3409 9.15737 22.8979C9.17127 22.7248 9.19578 22.5557 9.31673 22.4176L9.31911 22.4181C9.49572 22.1218 9.78282 21.962 10.0821 21.8266C10.8264 21.4897 11.6216 21.3269 12.4159 21.1643L12.5395 21.1389C14.1916 20.7998 15.8607 20.5674 17.5299 20.335H17.5299L17.53 20.3349L17.8031 20.2969L17.9039 20.2829L17.904 20.2829C18.7243 20.1688 19.545 20.0547 20.3724 19.9945C20.5203 19.984 20.6217 19.9165 20.714 19.7938C22.5021 17.4164 24.3596 15.0942 26.2898 12.8298C26.7377 12.3047 27.192 11.7829 27.7412 11.3562C28.3557 10.8783 28.9311 10.8775 29.5399 11.357C30.0798 11.7829 30.4798 12.3304 30.8784 12.8761C30.9347 12.9532 30.991 13.0303 31.0476 13.107C31.9801 14.3684 32.8365 15.6819 33.6823 17.0018C33.6934 17.0192 33.7015 17.0386 33.7095 17.0581L33.7095 17.0581C33.7139 17.0687 33.7183 17.0793 33.7232 17.0896V17.0921ZM33.8202 17.2438L33.8184 17.2411C33.8191 17.242 33.8198 17.2429 33.8202 17.2438ZM33.336 29.4677L33.3362 29.4677V29.467L33.336 29.467V29.4677ZM34.4536 29.2156C35.2916 28.8058 35.8807 27.9382 35.8883 26.9342C35.894 26.2198 35.6227 25.6045 35.1169 25.1006C34.4819 24.469 33.7137 24.2536 32.8254 24.3699C32.7193 24.3838 32.6073 24.4096 32.4925 24.4469C32.6073 24.4097 32.7192 24.3838 32.8252 24.37C33.7136 24.2537 34.4817 24.4691 35.1167 25.1007C35.6226 25.6046 35.8939 26.2199 35.8881 26.9343C35.8806 27.9382 35.2915 28.8058 34.4536 29.2156ZM32.9699 26.5279C32.6936 26.4093 32.4942 26.1323 32.4948 25.8236C32.4948 25.4213 32.8846 25.084 33.3316 25.0994C33.3983 25.1018 33.4629 25.1125 33.5244 25.1303C33.4625 25.1122 33.3974 25.1014 33.3303 25.099C32.8841 25.0836 32.4943 25.4201 32.4935 25.8232C32.4935 26.1322 32.6935 26.4096 32.9699 26.5279ZM19.3895 26.8182C19.3756 25.8185 19.7981 25.0471 20.6072 24.5432C21.4301 24.0311 22.468 24.1279 23.2353 24.9658C23.3145 25.0523 23.3865 25.1437 23.4513 25.2391C23.3863 25.1433 23.3141 25.0516 23.2346 24.9648C22.4673 24.1269 21.4294 24.0301 20.6065 24.5422C19.7974 25.0461 19.3749 25.8175 19.3888 26.8172L19.3888 26.8175L19.3895 26.8182ZM21.7284 24.9602C21.7997 24.9612 21.8694 24.9754 21.935 25.0004C21.8696 24.9756 21.8002 24.9615 21.7291 24.9605C21.3295 24.9556 21.0034 25.2571 20.9985 25.6367C20.9953 25.8597 21.1285 26.0713 21.32 26.1952C21.1284 26.0714 20.9952 25.8596 20.9978 25.6364C21.0027 25.2568 21.3288 24.9545 21.7284 24.9602ZM15.682 21.9656C15.5267 21.9185 15.3861 21.9185 15.2546 21.9469C15.3861 21.9177 15.5267 21.9185 15.682 21.9656ZM28.2785 15.0805C28.2891 15.1471 28.3209 15.2138 28.3863 15.2829C28.3209 15.2146 28.2891 15.1471 28.2785 15.0805ZM43.3306 24.0342C43.1182 23.8139 42.8387 23.7107 42.5559 23.6254C42.8387 23.7107 43.1182 23.8147 43.3306 24.0342Z" fill="#B8292D"/>
<path d="M34.2404 16.9722L34.2375 16.9677L33.3963 17.5085L33.3992 17.513L34.2404 16.9722ZM33.7231 17.0921L33.5991 16.0998C33.1653 16.154 32.817 16.4837 32.7391 16.9139C32.6612 17.344 32.8718 17.775 33.259 17.9778L33.7231 17.0921ZM33.7232 17.0921L33.8472 18.0843C34.3476 18.0218 34.7232 17.5964 34.7232 17.0921H33.7232ZM33.7248 17.0929V18.0929C34.185 18.0929 34.5858 17.7788 34.6958 17.3319C34.8058 16.885 34.5966 16.4208 34.1889 16.2072L33.7248 17.0929ZM33.7218 17.0929V16.0929C33.3478 16.0929 33.0051 16.3016 32.8334 16.6338C32.6617 16.966 32.6897 17.3662 32.906 17.6713L33.7218 17.0929ZM33.744 17.1243L32.9282 17.7026L32.9285 17.703L33.744 17.1243ZM33.7685 17.1588L34.6621 17.6077C34.8281 17.2771 34.7981 16.8818 34.584 16.58L33.7685 17.1588ZM33.7677 17.1604L32.8741 16.7115C32.7147 17.0288 32.7355 17.4068 32.9287 17.7047L33.7677 17.1604ZM33.8167 17.2352L34.8141 17.1629C34.8019 16.9948 34.7474 16.8324 34.6556 16.691L33.8167 17.2352ZM33.817 17.2389L32.8196 17.3112C32.8322 17.4855 32.8903 17.6534 32.988 17.7982L33.817 17.2389ZM33.8181 17.2406L34.6209 16.6444C34.2985 16.2102 33.6893 16.1111 33.2458 16.4205C32.8023 16.73 32.6852 17.3359 32.9814 17.7884L33.8181 17.2406ZM33.8821 17.3385L33.0455 17.8862C33.1849 18.0991 33.4002 18.2509 33.6475 18.3106L33.8821 17.3385ZM33.8853 17.3392L34.7178 16.7851C34.5782 16.5755 34.3647 16.4262 34.1199 16.3672L33.8853 17.3392ZM35.5721 20.045L34.7117 20.5548L34.7125 20.556L35.5721 20.045ZM36.0763 20.4189L35.89 21.4014L35.8903 21.4015L36.0763 20.4189ZM36.8476 20.6106L36.5792 21.5739L36.58 21.5741L36.8476 20.6106ZM36.8477 20.6106L37.1161 19.6474L37.1153 19.6471L36.8477 20.6106ZM37.1721 20.6993L38.1382 20.441C38.0454 20.0939 37.7736 19.8233 37.4261 19.7321L37.1721 20.6993ZM37.1728 20.7018L36.2068 20.9602C36.3325 21.4302 36.7783 21.7416 37.2629 21.6978L37.1728 20.7018ZM37.3504 20.7881L36.4626 21.2482C36.6577 21.6247 37.069 21.8372 37.489 21.7785L37.3504 20.7881ZM37.3519 20.7879L37.456 19.7933C37.3753 19.7849 37.2938 19.7863 37.2134 19.7976L37.3519 20.7879ZM37.3675 20.7895L38.3508 20.608C38.2704 20.172 37.9125 19.8411 37.4715 19.795L37.3675 20.7895ZM37.3675 20.7897L36.3841 20.9712C36.475 21.4635 36.9159 21.8128 37.416 21.7885L37.3675 20.7897ZM38.1376 20.9318L37.8415 21.887L37.8502 21.8896L38.1376 20.9318ZM38.1379 20.9319L38.434 19.9767L38.4252 19.974L38.1379 20.9319ZM38.3945 21.0075L38.6521 20.0413L38.6505 20.0409L38.3945 21.0075ZM38.6691 21.0807L38.4115 22.047L38.4116 22.047L38.6691 21.0807ZM41.5007 21.874L41.7952 20.9183L41.7949 20.9182L41.5007 21.874ZM42.2602 22.1027L41.9749 23.0611L42.2602 22.1027ZM45.8973 23.5012L46.3963 22.6346L46.3955 22.6341L45.8973 23.5012ZM46.5641 24.1173H47.5641C47.5641 23.9833 47.5372 23.8506 47.4849 23.7272L46.5641 24.1173ZM46.5641 24.1185H45.5641C45.5641 24.5757 45.8742 24.9747 46.3173 25.0875L46.5641 24.1185ZM46.5652 24.1187L47.0104 25.0141C47.3848 24.828 47.6038 24.4286 47.5595 24.0129C47.5153 23.5972 47.2171 23.2529 46.812 23.1497L46.5652 24.1187ZM46.5488 24.1269L46.1035 23.2315C45.8172 23.3739 45.6162 23.6447 45.5628 23.96C45.5095 24.2753 45.6102 24.5972 45.8337 24.8259L46.5488 24.1269ZM46.606 24.1854L45.8909 24.8844C46.2005 25.2011 46.6816 25.2765 47.0732 25.0695C47.4648 24.8626 47.6737 24.4227 47.5864 23.9884L46.606 24.1854ZM46.6052 24.1813L47.3619 23.5275C47.0648 23.1837 46.5734 23.0834 46.1654 23.2832C45.7573 23.4831 45.5353 23.9328 45.6248 24.3783L46.6052 24.1813ZM46.6126 25.6679L45.7764 25.1195L45.7758 25.1203L46.6126 25.6679ZM45.6431 26.8886L46.3956 27.5471L46.3968 27.5457L45.6431 26.8886ZM45.643 26.8887L44.8904 26.2302L44.8892 26.2315L45.643 26.8887ZM45.4529 27.1074L44.6961 26.4538L44.696 26.4538L45.4529 27.1074ZM41.9592 30.9561L41.2271 30.2748L41.2244 30.2778L41.9592 30.9561ZM41.9591 30.9562L42.6851 31.644L42.6939 31.6345L41.9591 30.9562ZM41.9588 30.9565L41.2328 30.2687L41.2268 30.2752L41.9588 30.9565ZM40.1942 32.8643L39.4559 32.1899L39.4553 32.1905L40.1942 32.8643ZM39.5667 34.6007L40.5655 34.5526L40.5655 34.5525L39.5667 34.6007ZM39.569 34.6492L40.5679 34.6012L40.5679 34.6011L39.569 34.6492ZM39.8354 41.4872L40.8352 41.4636L40.8352 41.4636L39.8354 41.4872ZM39.7496 43.872L38.7559 43.7601L38.7559 43.7602L39.7496 43.872ZM39.4072 45.274L40.3212 45.6798L40.3213 45.6795L39.4072 45.274ZM38.2942 45.995L38.2341 44.9968L38.2334 44.9968L38.2942 45.995ZM36.8502 45.7194L37.2308 44.7947L37.2307 44.7947L36.8502 45.7194ZM33.7687 44.2657L33.2726 45.1339C33.2879 45.1427 33.3035 45.1511 33.3193 45.159L33.7687 44.2657ZM33.7687 44.2656L34.2648 43.3974C34.2499 43.3889 34.2348 43.3808 34.2195 43.373L33.7687 44.2656ZM33.7681 44.2654L34.2189 43.3727L34.2174 43.372L33.7681 44.2654ZM32.7527 43.7582L32.3106 44.6551L32.3108 44.6553L32.7527 43.7582ZM27.7595 41.2613L28.2093 40.3682L28.2081 40.3675L27.7595 41.2613ZM27.2479 41.2475L27.6439 42.1657L27.644 42.1657L27.2479 41.2475ZM23.4123 42.995L23.8361 43.9007L23.4123 42.995ZM21.5013 43.8833L21.0844 42.9744L21.0843 42.9744L21.5013 43.8833ZM20.454 44.373L20.0272 43.4686L20.0246 43.4699L20.454 44.373ZM20.4536 44.3732L20.8804 45.2775L20.8831 45.2763L20.4536 44.3732ZM17.7201 45.5837L18.0787 46.5172L18.0806 46.5165L17.7201 45.5837ZM17.126 45.7438L16.9864 44.7536L16.986 44.7537L17.126 45.7438ZM15.8495 44.8863L16.8052 44.5918L16.8048 44.5908L15.8495 44.8863ZM15.6607 43.4266L14.6608 43.4377L14.6608 43.4382L15.6607 43.4266ZM15.8626 38.1402L16.8601 38.2101L16.8602 38.2098L15.8626 38.1402ZM15.9382 37.0187L14.9403 36.9527V36.9527L15.9382 37.0187ZM16.205 33.5755L17.2 33.6752L17.2001 33.6746L16.205 33.5755ZM15.8716 32.5685L16.6536 31.9453L16.6534 31.945L15.8716 32.5685ZM10.3807 25.468L11.1875 24.8771L11.1874 24.877L10.3807 25.468ZM9.4769 24.1155L8.61801 24.6276L8.61812 24.6278L9.4769 24.1155ZM9.15737 22.8979L10.1541 22.9788L10.1542 22.9779L9.15737 22.8979ZM9.31673 22.4176L9.52972 21.4405C9.17393 21.3629 8.80411 21.4849 8.56427 21.7589L9.31673 22.4176ZM9.31911 22.4181L9.10613 23.3951C9.52628 23.4867 9.95794 23.2994 10.1781 22.9301L9.31911 22.4181ZM10.0821 21.8266L10.4944 22.7376L10.4945 22.7376L10.0821 21.8266ZM12.4159 21.1643L12.6165 22.1439L12.6167 22.1439L12.4159 21.1643ZM12.5395 21.1389L12.7402 22.1186L12.7405 22.1185L12.5395 21.1389ZM17.5299 20.335V19.335C17.4838 19.335 17.4377 19.3381 17.392 19.3445L17.5299 20.335ZM17.5299 20.335V21.335C17.5741 21.335 17.6183 21.332 17.6621 21.3262L17.5299 20.335ZM17.53 20.3349L17.6621 21.3262L17.6679 21.3254L17.53 20.3349ZM17.8031 20.2969L17.6654 19.3064L17.6651 19.3065L17.8031 20.2969ZM17.9039 20.2829L17.7759 19.2911L17.7662 19.2924L17.9039 20.2829ZM17.904 20.2829L18.0319 21.2747L18.0417 21.2733L17.904 20.2829ZM20.3724 19.9945L20.3012 18.9971L20.3 18.9972L20.3724 19.9945ZM20.714 19.7938L21.5131 20.395L21.5132 20.3948L20.714 19.7938ZM26.2898 12.8298L25.529 12.1809L25.5288 12.1811L26.2898 12.8298ZM27.7412 11.3562L28.3548 12.1458L28.3551 12.1456L27.7412 11.3562ZM29.5399 11.357L30.1592 10.5719L30.1587 10.5714L29.5399 11.357ZM30.8784 12.8761L31.6859 12.2863L31.6859 12.2863L30.8784 12.8761ZM31.0476 13.107L30.2434 13.7012L30.2435 13.7014L31.0476 13.107ZM33.6823 17.0018L34.5247 16.4629L34.5243 16.4623L33.6823 17.0018ZM33.7095 17.0581L34.6582 16.7419C34.6508 16.7196 34.6426 16.6976 34.6336 16.676L33.7095 17.0581ZM33.7095 17.0581L32.7608 17.3743C32.7683 17.3966 32.7765 17.4186 32.7854 17.4402L33.7095 17.0581ZM33.7232 17.0896H34.7232C34.7232 16.9413 34.6902 16.7948 34.6266 16.6608L33.7232 17.0896ZM33.8202 17.2438L32.9897 17.8007C33.2838 18.2393 33.8682 18.3736 34.3243 18.1074C34.7804 17.8412 34.9509 17.2663 34.7136 16.7945L33.8202 17.2438ZM33.3362 29.4677L33.3245 30.4676C33.5918 30.4707 33.8491 30.3668 34.0391 30.1789C34.2292 29.991 34.3362 29.7349 34.3362 29.4677H33.3362ZM33.336 29.4677H32.336C32.336 30.0154 32.7767 30.4613 33.3244 30.4676L33.336 29.4677ZM33.3362 29.467H34.3362C34.3362 28.9192 33.8955 28.4734 33.3478 28.467L33.3362 29.467ZM33.336 29.467L33.3476 28.467C33.0804 28.4639 32.8231 28.5679 32.633 28.7558C32.443 28.9436 32.336 29.1997 32.336 29.467H33.336ZM35.8883 26.9342L34.8883 26.9262L34.8883 26.9267L35.8883 26.9342ZM34.4536 29.2156L34.0143 28.3173C33.5181 28.5599 33.3127 29.1588 33.5553 29.6549C33.7979 30.151 34.3968 30.3565 34.8929 30.1139L34.4536 29.2156ZM35.1169 25.1006L35.8226 24.3921L35.8221 24.3916L35.1169 25.1006ZM32.8254 24.3699L32.6957 23.3783L32.6955 23.3783L32.8254 24.3699ZM32.4925 24.4469L32.1839 23.4957C31.6586 23.6661 31.3709 24.2301 31.5413 24.7554C31.7116 25.2807 32.2756 25.5685 32.8009 25.3981L32.4925 24.4469ZM32.8252 24.37L32.6955 23.3784L32.6954 23.3784L32.8252 24.37ZM35.1167 25.1007L35.8225 24.3922L35.8219 24.3916L35.1167 25.1007ZM35.8881 26.9343L34.8882 26.9263L34.8882 26.9268L35.8881 26.9343ZM32.4948 25.8236L33.4948 25.8256V25.8236H32.4948ZM32.9699 26.5279L32.5764 27.4472C33.084 27.6645 33.6716 27.4293 33.8891 26.9218C34.1065 26.4143 33.8716 25.8266 33.3642 25.6089L32.9699 26.5279ZM33.3316 25.0994L33.367 24.1L33.3661 24.1L33.3316 25.0994ZM33.5244 25.1303L33.2453 26.0906C33.7753 26.2446 34.3299 25.9402 34.4844 25.4103C34.6389 24.8804 34.335 24.3256 33.8052 24.1706L33.5244 25.1303ZM33.3303 25.099L33.3657 24.0997L33.3649 24.0996L33.3303 25.099ZM32.4935 25.8232L31.4935 25.8212V25.8232H32.4935ZM20.6072 24.5432L20.0789 23.6941L20.0785 23.6944L20.6072 24.5432ZM19.3895 26.8182L18.6839 27.5268C18.972 27.8137 19.4052 27.8976 19.7796 27.739C20.154 27.5804 20.3951 27.2109 20.3894 26.8043L19.3895 26.8182ZM23.2353 24.9658L22.4978 25.6412L22.4979 25.6413L23.2353 24.9658ZM23.4513 25.2391L22.6242 25.801C22.9345 26.2578 23.5562 26.3766 24.0131 26.0664C24.4699 25.7562 24.5889 25.1345 24.2788 24.6776L23.4513 25.2391ZM23.2346 24.9648L22.4971 25.6402L22.4972 25.6403L23.2346 24.9648ZM20.6065 24.5422L20.0782 23.6931L20.0778 23.6934L20.6065 24.5422ZM19.3888 26.8172L20.3882 26.8533C20.3888 26.8366 20.389 26.82 20.3887 26.8033L19.3888 26.8172ZM19.3888 26.8175L18.3895 26.7814C18.3794 27.0597 18.4859 27.3296 18.6832 27.5261L19.3888 26.8175ZM21.935 25.0004L21.5805 25.9354C22.0966 26.1311 22.6737 25.8716 22.8698 25.3556C23.0659 24.8396 22.8068 24.2623 22.2909 24.0659L21.935 25.0004ZM21.7284 24.9602L21.7141 25.9601L21.7143 25.9601L21.7284 24.9602ZM21.7291 24.9605L21.7431 23.9606L21.7413 23.9605L21.7291 24.9605ZM20.9985 25.6367L21.9984 25.6508L21.9984 25.6496L20.9985 25.6367ZM21.32 26.1952L20.7771 27.035C21.2408 27.3348 21.8598 27.2019 22.1597 26.7382C22.4595 26.2745 22.3268 25.6555 21.8631 25.3556L21.32 26.1952ZM20.9978 25.6364L19.9979 25.6235L19.9979 25.6246L20.9978 25.6364ZM15.3915 22.9225C15.9199 23.083 16.4784 22.7846 16.6388 22.2562C16.7993 21.7277 16.501 21.1692 15.9725 21.0088L15.3915 22.9225ZM15.2546 21.9469L15.0375 20.9708C14.4995 21.0904 14.1597 21.6228 14.2778 22.1612C14.3959 22.6995 14.9272 23.0408 15.4659 22.9244L15.2546 21.9469ZM29.266 14.9231C29.179 14.3777 28.6664 14.006 28.121 14.093C27.5756 14.1799 27.204 14.6925 27.2909 15.2379L29.266 14.9231ZM28.3863 15.2829L27.6641 15.9745C28.0452 16.3726 28.6766 16.3872 29.0758 16.0072C29.475 15.6272 29.4915 14.9959 29.1127 14.5956L28.3863 15.2829ZM43.3306 24.0342L42.6122 24.7298C42.9961 25.1263 43.6287 25.1368 44.0256 24.7533C44.4224 24.3697 44.4335 23.7372 44.0504 23.3399L43.3306 24.0342ZM42.8449 22.668C42.3161 22.5084 41.7582 22.8077 41.5986 23.3364C41.439 23.8651 41.7382 24.4231 42.267 24.5827L42.8449 22.668ZM33.8471 18.0844L33.8472 18.0843L33.5991 16.0998L33.5991 16.0998L33.8471 18.0844ZM34.1889 16.2072L34.1872 16.2063L33.259 17.9778L33.2607 17.9787L34.1889 16.2072ZM33.7218 18.0929H33.7248V16.0929H33.7218V18.0929ZM34.5597 16.5459L34.5375 16.5146L32.906 17.6713L32.9282 17.7026L34.5597 16.5459ZM34.584 16.58L34.5594 16.5455L32.9285 17.703L32.953 17.7376L34.584 16.58ZM34.6612 17.6093L34.6621 17.6077L32.8749 16.7099L32.8741 16.7115L34.6612 17.6093ZM34.6556 16.691C34.6451 16.6748 34.6349 16.6593 34.6271 16.6474C34.6186 16.6345 34.6124 16.6252 34.6066 16.6162L32.9287 17.7047C32.9392 17.7209 32.9494 17.7363 32.9573 17.7482C32.9658 17.7611 32.9719 17.7704 32.9777 17.7794L34.6556 16.691ZM34.8143 17.1666L34.8141 17.1629L32.8193 17.3075L32.8196 17.3112L34.8143 17.1666ZM34.6474 16.6818L34.6459 16.6796L32.988 17.7982L32.9894 17.8003L34.6474 16.6818ZM33.0153 17.8368C33.0169 17.8391 33.0183 17.841 33.0192 17.8421C33.0196 17.8427 33.02 17.8431 33.0202 17.8434C33.0204 17.8437 33.0206 17.844 33.0206 17.844L34.6162 16.6382C34.6157 16.6374 34.6181 16.6406 34.6209 16.6444L33.0153 17.8368ZM34.7188 16.7907L34.6547 16.6929L32.9814 17.7884L33.0455 17.8862L34.7188 16.7907ZM34.1199 16.3672L34.1167 16.3664L33.6475 18.3106L33.6507 18.3113L34.1199 16.3672ZM36.4324 19.5353C35.8858 18.6128 35.3203 17.6903 34.7178 16.7851L33.0529 17.8934C33.6288 18.7585 34.1747 19.6484 34.7117 20.5548L36.4324 19.5353ZM36.2626 19.4364C36.2643 19.4367 36.2813 19.4402 36.3075 19.4515C36.3348 19.4632 36.3633 19.4798 36.3898 19.5003C36.4425 19.541 36.454 19.5717 36.4316 19.534L34.7125 20.556C34.8118 20.7231 34.9533 20.9177 35.1665 21.0825C35.388 21.2537 35.6347 21.353 35.89 21.4014L36.2626 19.4364ZM37.116 19.6473C36.8671 19.578 36.5706 19.4947 36.2622 19.4363L35.8903 21.4015C36.1014 21.4414 36.3163 21.5007 36.5792 21.5739L37.116 19.6473ZM37.1153 19.6471L37.1152 19.6471L36.58 21.5741L36.58 21.5742L37.1153 19.6471ZM37.1153 19.6471L37.1153 19.6471L36.58 21.5742L36.5801 21.5742L37.1153 19.6471ZM37.4261 19.7321C37.3262 19.7059 37.2254 19.6778 37.1161 19.6474L36.5793 21.5739C36.686 21.6037 36.8013 21.6358 36.9182 21.6665L37.4261 19.7321ZM38.1389 20.4435L38.1382 20.441L36.2061 20.9577L36.2068 20.9602L38.1389 20.4435ZM38.2383 20.328C38.1254 20.1101 37.9398 19.9158 37.6831 19.8016C37.4466 19.6963 37.2258 19.693 37.0828 19.7059L37.2629 21.6978C37.197 21.7037 37.0462 21.7073 36.8698 21.6288C36.6733 21.5413 36.5379 21.3936 36.4626 21.2482L38.2383 20.328ZM37.2134 19.7976L37.2119 19.7978L37.489 21.7785L37.4905 21.7783L37.2134 19.7976ZM37.4715 19.795L37.456 19.7933L37.2478 21.7825L37.2634 21.7841L37.4715 19.795ZM38.3509 20.6081L38.3508 20.608L36.3841 20.9711L36.3841 20.9712L38.3509 20.6081ZM38.4336 19.9766C38.2107 19.9075 37.7928 19.7678 37.319 19.7908L37.416 21.7885C37.481 21.7853 37.5647 21.8012 37.8415 21.8869L38.4336 19.9766ZM38.425 19.974L38.4249 19.974L37.8502 21.8896L37.8503 21.8896L38.425 19.974ZM38.425 19.974L38.425 19.974L37.8503 21.8896L37.8503 21.8896L38.425 19.974ZM38.425 19.974L38.425 19.974L37.8503 21.8896L37.8503 21.8896L38.425 19.974ZM38.425 19.974L38.425 19.974L37.8503 21.8896L37.8503 21.8896L38.425 19.974ZM38.4251 19.974L38.425 19.974L37.8503 21.8896L37.8504 21.8896L38.4251 19.974ZM38.4251 19.974L38.4251 19.974L37.8504 21.8896L37.8504 21.8897L38.4251 19.974ZM38.4251 19.974L38.4251 19.974L37.8504 21.8897L37.8504 21.8897L38.4251 19.974ZM38.4252 19.974L38.4251 19.974L37.8504 21.8897L37.8505 21.8897L38.4252 19.974ZM38.4252 19.974L38.4252 19.974L37.8505 21.8897L37.8505 21.8897L38.4252 19.974ZM38.4252 19.974L38.4252 19.974L37.8505 21.8897L37.8505 21.8897L38.4252 19.974ZM38.4252 19.974L38.4252 19.974L37.8505 21.8897L37.8505 21.8897L38.4252 19.974ZM38.6505 20.0409C38.5882 20.0244 38.5228 20.0042 38.434 19.9767L37.8418 21.887C37.9238 21.9125 38.0291 21.9452 38.1385 21.9742L38.6505 20.0409ZM38.9267 20.1145L38.6521 20.0413L38.1369 21.9738L38.4115 22.047L38.9267 20.1145ZM41.7949 20.9182C40.8369 20.6234 39.8708 20.3661 38.9266 20.1145L38.4116 22.047C39.362 22.3003 40.2911 22.548 41.2065 22.8297L41.7949 20.9182ZM42.5455 21.1443C42.2912 21.0686 42.0424 20.9945 41.7952 20.9183L41.2062 22.8296C41.4641 22.9091 41.7222 22.9859 41.9749 23.0611L42.5455 21.1443ZM46.3955 22.6341C45.1373 21.9112 43.7749 21.5102 42.5455 21.1443L41.9749 23.0611C43.2413 23.4381 44.3765 23.7806 45.3991 24.3682L46.3955 22.6341ZM47.4849 23.7272C47.2052 23.0669 46.614 22.7599 46.3963 22.6346L45.3983 24.3678C45.4663 24.407 45.5151 24.4353 45.5594 24.4633C45.602 24.4904 45.6284 24.5097 45.6452 24.5235C45.6744 24.5476 45.6575 24.5407 45.6434 24.5073L47.4849 23.7272ZM47.5641 24.1185V24.1173H45.5641V24.1185H47.5641ZM46.812 23.1497L46.811 23.1494L46.3173 25.0875L46.3183 25.0878L46.812 23.1497ZM46.9941 25.0222L47.0104 25.0141L46.1199 23.2233L46.1035 23.2315L46.9941 25.0222ZM47.3211 23.4863L47.2639 23.4278L45.8337 24.8259L45.8909 24.8844L47.3211 23.4863ZM45.6248 24.3783L45.6256 24.3823L47.5864 23.9884L47.5856 23.9844L45.6248 24.3783ZM47.4488 26.2163C47.9606 25.4359 48.0342 24.3057 47.3619 23.5275L45.8485 24.8351C45.828 24.8113 45.8489 24.8189 45.8495 24.8873C45.85 24.9529 45.8294 25.0386 45.7764 25.1195L47.4488 26.2163ZM46.3968 27.5457C46.7311 27.1623 47.12 26.7187 47.4493 26.2155L45.7758 25.1203C45.5345 25.489 45.2388 25.8305 44.8893 26.2314L46.3968 27.5457ZM46.3956 27.5472L46.3956 27.5471L44.8905 26.2301L44.8904 26.2302L46.3956 27.5472ZM46.2098 27.7609C46.2711 27.69 46.333 27.619 46.3967 27.5458L44.8892 26.2315C44.826 26.304 44.761 26.3786 44.6961 26.4538L46.2098 27.7609ZM42.6912 31.6374C43.8696 30.3712 45.063 29.0892 46.2098 27.7609L44.696 26.4538C43.5776 27.7492 42.4098 29.0041 41.2271 30.2748L42.6912 31.6374ZM42.6939 31.6345L42.694 31.6344L41.2244 30.2778L41.2243 30.2779L42.6939 31.6345ZM42.6847 31.6443L42.685 31.6439L41.2331 30.2684L41.2328 30.2688L42.6847 31.6443ZM40.9325 33.5388C41.5131 32.9032 42.1001 32.2725 42.6908 31.6378L41.2268 30.2752C40.6371 30.9088 40.0437 31.5463 39.4559 32.1899L40.9325 33.5388ZM40.5655 34.5525C40.5529 34.2912 40.5466 34.1481 40.5493 34.042C40.5516 33.9501 40.5604 33.9499 40.5502 33.9782C40.5402 34.0062 40.5339 33.9996 40.5918 33.9257C40.6578 33.8415 40.7555 33.7329 40.933 33.5382L39.4553 32.1905C39.1743 32.4986 38.8301 32.8513 38.6682 33.3015C38.5062 33.7519 38.5482 34.2423 38.5678 34.649L40.5655 34.5525ZM40.5679 34.6011L40.5655 34.5526L38.5678 34.6489L38.5702 34.6974L40.5679 34.6011ZM40.8352 41.4636C40.7809 39.1698 40.6774 36.8802 40.5679 34.6012L38.5702 34.6972C38.6796 36.9748 38.7821 39.2433 38.8357 41.5109L40.8352 41.4636ZM40.7434 43.9838C40.8392 43.1322 40.8546 42.2873 40.8352 41.4636L38.8357 41.5108C38.8539 42.2802 38.8382 43.0284 38.7559 43.7601L40.7434 43.9838ZM40.3213 45.6795C40.5769 45.1032 40.6844 44.5078 40.7434 43.9837L38.7559 43.7602C38.707 44.1952 38.6297 44.5605 38.4931 44.8685L40.3213 45.6795ZM38.3543 46.9932C39.166 46.9443 39.9348 46.5502 40.3212 45.6798L38.4932 44.8683C38.4775 44.9038 38.4638 44.9224 38.4563 44.9312C38.4491 44.9396 38.4424 44.9453 38.434 44.9506C38.4178 44.9607 38.3627 44.989 38.2341 44.9968L38.3543 46.9932ZM36.4695 46.6442C37.019 46.8703 37.6504 47.036 38.3549 46.9931L38.2334 44.9968C37.9229 45.0157 37.6015 44.9473 37.2308 44.7947L36.4695 46.6442ZM33.3193 45.159C34.3285 45.6666 35.377 46.1946 36.4696 46.6442L37.2307 44.7947C36.2198 44.3787 35.2384 43.8856 34.2181 43.3723L33.3193 45.159ZM33.2725 45.1339L33.2726 45.1339L34.2648 43.3974L34.2648 43.3974L33.2725 45.1339ZM33.3173 45.158L33.3178 45.1583L34.2195 43.373L34.2189 43.3727L33.3173 45.158ZM32.3108 44.6553C32.6458 44.8202 32.9801 44.9884 33.3187 45.1587L34.2174 43.372C33.88 43.2023 33.5383 43.0304 33.1945 42.8611L32.3108 44.6553ZM27.3097 42.1544C28.9713 42.9912 30.6373 43.8304 32.3106 44.6551L33.1948 42.8612C31.5306 42.0409 29.8722 41.2057 28.2093 40.3682L27.3097 42.1544ZM27.644 42.1657C27.639 42.1678 27.5766 42.1932 27.4791 42.1906C27.3811 42.188 27.3186 42.1589 27.311 42.155L28.2081 40.3675C28.0222 40.2743 27.7964 40.1985 27.5333 40.1913C27.2707 40.1842 27.0416 40.2474 26.8519 40.3292L27.644 42.1657ZM23.8361 43.9007C25.1109 43.3041 26.3696 42.7152 27.6439 42.1657L26.852 40.3292C25.5449 40.8928 24.2586 41.4948 22.9884 42.0893L23.8361 43.9007ZM21.9182 44.7923C22.5608 44.4976 23.2005 44.1982 23.8361 43.9007L22.9884 42.0893C22.3516 42.3873 21.7188 42.6834 21.0844 42.9744L21.9182 44.7923ZM20.8808 45.2773C21.2302 45.1125 21.5738 44.9503 21.9183 44.7922L21.0843 42.9744C20.7284 43.1377 20.375 43.3045 20.0272 43.4686L20.8808 45.2773ZM20.8831 45.2763L20.8835 45.2761L20.0246 43.4699L20.0242 43.4701L20.8831 45.2763ZM18.0806 46.5165C19.0509 46.1414 19.9846 45.7003 20.8804 45.2775L20.0268 43.4688C19.1202 43.8967 18.2513 44.3063 17.3596 44.6509L18.0806 46.5165ZM17.2655 46.734C17.5606 46.6925 17.8372 46.61 18.0787 46.5172L17.3615 44.6502C17.2221 44.7037 17.0951 44.7383 16.9864 44.7536L17.2655 46.734ZM14.8939 45.1808C15.0418 45.6608 15.3177 46.1128 15.767 46.4159C16.2233 46.7238 16.7528 46.8065 17.2659 46.734L16.986 44.7537C16.9257 44.7622 16.8939 44.7577 16.8842 44.7558C16.8763 44.7542 16.8795 44.7539 16.8855 44.758C16.9023 44.7693 16.8534 44.7483 16.8052 44.5918L14.8939 45.1808ZM14.6608 43.4382C14.6669 43.9637 14.7046 44.5689 14.8942 45.1819L16.8048 44.5908C16.7003 44.2528 16.666 43.8745 16.6607 43.4149L14.6608 43.4382ZM14.865 38.0702C14.7412 39.8367 14.6407 41.6306 14.6608 43.4377L16.6607 43.4154C16.6415 41.6917 16.7372 39.963 16.8601 38.2101L14.865 38.0702ZM14.9403 36.9527C14.9156 37.3268 14.8909 37.6989 14.865 38.0705L16.8602 38.2098C16.8864 37.834 16.9112 37.4583 16.936 37.0848L14.9403 36.9527ZM15.21 33.4759C15.0933 34.6404 15.0162 35.8064 14.9403 36.9527L16.936 37.0848C17.0122 35.9329 17.0873 34.8006 17.2 33.6752L15.21 33.4759ZM15.0895 33.1917C15.1785 33.3033 15.1996 33.3514 15.2057 33.3682C15.2082 33.3751 15.2101 33.3822 15.2114 33.3935C15.2128 33.4059 15.2144 33.4317 15.2099 33.4764L17.2001 33.6746C17.2345 33.3289 17.2003 33.0012 17.0854 32.685C16.975 32.3813 16.8082 32.1392 16.6536 31.9453L15.0895 33.1917ZM9.57395 26.0588C11.3557 28.4918 13.2239 30.8526 15.0898 33.192L16.6534 31.945C14.7879 29.606 12.9426 27.2737 11.1875 24.8771L9.57395 26.0588ZM8.61812 24.6278C8.91596 25.127 9.24018 25.6032 9.57404 26.0589L11.1874 24.877C10.8806 24.4581 10.5935 24.0354 10.3357 23.6031L8.61812 24.6278ZM8.16065 22.817C8.10326 23.524 8.32114 24.1298 8.61801 24.6276L10.3358 23.6033C10.1848 23.3502 10.1396 23.1577 10.1541 22.9788L8.16065 22.817ZM8.56427 21.7589C8.20912 22.1647 8.17521 22.6356 8.16058 22.8179L10.1542 22.9779C10.1569 22.9435 10.1591 22.9246 10.1608 22.9128C10.1624 22.9016 10.1625 22.9049 10.1591 22.9171C10.1554 22.93 10.1475 22.9539 10.1322 22.9837C10.1164 23.0143 10.0955 23.0462 10.0692 23.0762L8.56427 21.7589ZM9.5321 21.441L9.52972 21.4405L9.10374 23.3946L9.10613 23.3951L9.5321 21.441ZM9.6698 20.9155C9.34546 21.0623 8.80527 21.327 8.46012 21.9061L10.1781 22.9301C10.1816 22.9242 10.1923 22.9069 10.2364 22.8753C10.2877 22.8387 10.3639 22.7967 10.4944 22.7376L9.6698 20.9155ZM12.2153 20.1846C11.4395 20.3434 10.533 20.5248 9.66974 20.9156L10.4945 22.7376C11.1198 22.4545 11.8038 22.3103 12.6165 22.1439L12.2153 20.1846ZM12.3387 20.1593L12.2151 20.1846L12.6167 22.1439L12.7402 22.1186L12.3387 20.1593ZM17.392 19.3445C15.728 19.5762 14.0272 19.8127 12.3384 20.1594L12.7405 22.1185C14.3561 21.7869 15.9933 21.5586 17.6678 21.3254L17.392 19.3445ZM17.5299 19.335H17.5299V21.335H17.5299V19.335ZM17.3978 19.3437L17.3977 19.3437L17.6621 21.3262L17.6621 21.3262L17.3978 19.3437ZM17.6651 19.3065L17.392 19.3445L17.6679 21.3254L17.9411 21.2873L17.6651 19.3065ZM17.7662 19.2924L17.6654 19.3064L17.9408 21.2874L18.0416 21.2734L17.7662 19.2924ZM17.776 19.2911L17.7759 19.2911L18.0318 21.2747L18.0319 21.2746L17.776 19.2911ZM20.3 18.9972C19.4343 19.0601 18.5812 19.1791 17.7662 19.2924L18.0417 21.2733C18.8675 21.1585 19.6557 21.0493 20.4449 20.9919L20.3 18.9972ZM19.9149 19.1925C19.9203 19.1855 19.9616 19.132 20.0461 19.0808C20.1383 19.025 20.2318 19.002 20.3012 18.9971L20.4437 20.992C20.9438 20.9563 21.2894 20.6923 21.5131 20.395L19.9149 19.1925ZM25.5288 12.1811C23.5851 14.4613 21.7148 16.7994 19.9148 19.1927L21.5132 20.3948C23.2893 18.0333 25.1341 15.7271 27.0509 13.4785L25.5288 12.1811ZM27.1276 10.5666C26.4871 11.0643 25.9723 11.6611 25.529 12.1809L27.0507 13.4787C27.5031 12.9483 27.897 12.5016 28.3548 12.1458L27.1276 10.5666ZM30.1587 10.5714C29.7351 10.2378 29.2272 9.99756 28.6427 9.99756C28.0593 9.99756 27.5516 10.2369 27.1273 10.5668L28.3551 12.1456C28.5454 11.9976 28.6325 11.9976 28.6427 11.9976C28.6516 11.9976 28.7359 11.9967 28.9211 12.1426L30.1587 10.5714ZM31.6859 12.2863C31.3005 11.7587 30.8241 11.0964 30.1592 10.5719L28.9206 12.1421C29.3354 12.4694 29.659 12.9022 30.0709 13.466L31.6859 12.2863ZM31.8519 12.5127C31.7971 12.4386 31.7425 12.3637 31.6859 12.2863L30.0709 13.466C30.1269 13.5427 30.1848 13.622 30.2434 13.7012L31.8519 12.5127ZM34.5243 16.4623C33.6774 15.1406 32.8056 13.8029 31.8518 12.5125L30.2435 13.7014C31.1546 14.9339 31.9957 16.2231 32.8403 17.5414L34.5243 16.4623ZM34.6336 16.676C34.6318 16.6716 34.5918 16.5679 34.5247 16.4629L32.84 17.5408C32.814 17.5001 32.7978 17.467 32.7905 17.4512C32.7841 17.4376 32.7799 17.427 32.7854 17.4402L34.6336 16.676ZM34.6582 16.7419L34.6582 16.7419L32.7608 17.3743L32.7608 17.3743L34.6582 16.7419ZM34.6266 16.6608C34.6313 16.6707 34.6344 16.6779 34.6353 16.6801C34.6358 16.6813 34.636 16.6818 34.6357 16.681C34.6353 16.6801 34.6348 16.6789 34.6336 16.676L32.7854 17.4402C32.7881 17.4468 32.8021 17.4812 32.8198 17.5185L34.6266 16.6608ZM34.7232 17.0921V17.0896H32.7232V17.0921H34.7232ZM34.6508 16.6868L34.649 16.6841L32.9878 17.798L32.9897 17.8007L34.6508 16.6868ZM33.0201 17.8433C33.0228 17.8469 33.0104 17.8307 32.9969 17.8112C32.9829 17.7909 32.9552 17.7494 32.9268 17.6931L34.7136 16.7945C34.6848 16.7372 34.6565 16.6948 34.6419 16.6737C34.6339 16.6621 34.6272 16.653 34.6233 16.6476C34.6212 16.6448 34.6195 16.6426 34.6185 16.6412C34.618 16.6405 34.6175 16.6399 34.6172 16.6395C34.617 16.6392 34.6167 16.6388 34.6167 16.6388L33.0201 17.8433ZM33.3478 28.4678L33.3476 28.4678L33.3244 30.4676L33.3245 30.4676L33.3478 28.4678ZM32.3362 29.467V29.4677H34.3362V29.467H32.3362ZM33.3244 30.4669L33.3245 30.4669L33.3478 28.467L33.3476 28.467L33.3244 30.4669ZM34.336 29.4677V29.467H32.336V29.4677H34.336ZM34.8883 26.9267C34.8837 27.5367 34.5251 28.0675 34.0143 28.3173L34.8929 30.1139C36.0582 29.5441 36.8778 28.3397 36.8883 26.9418L34.8883 26.9267ZM34.4111 25.809C34.74 26.1367 34.8918 26.4988 34.8883 26.9262L36.8883 26.9422C36.8963 25.9408 36.5054 25.0723 35.8226 24.3921L34.4111 25.809ZM32.9551 25.3614C33.5763 25.2801 34.0233 25.4233 34.4117 25.8096L35.8221 24.3916C34.9405 23.5147 33.8511 23.2271 32.6957 23.3783L32.9551 25.3614ZM32.801 25.3981C32.8646 25.3775 32.9166 25.3665 32.9553 25.3614L32.6955 23.3783C32.522 23.4011 32.35 23.4418 32.1839 23.4957L32.801 25.3981ZM32.6954 23.3784C32.522 23.4011 32.3502 23.4418 32.1841 23.4956L32.8009 25.3981C32.8643 25.3776 32.9164 25.3666 32.9551 25.3615L32.6954 23.3784ZM35.8219 24.3916C34.9403 23.5148 33.8509 23.2272 32.6955 23.3784L32.955 25.3615C33.5762 25.2802 34.0231 25.4234 34.4115 25.8097L35.8219 24.3916ZM36.8881 26.9423C36.8961 25.9409 36.5052 25.0724 35.8225 24.3922L34.4109 25.8091C34.7399 26.1368 34.8916 26.4989 34.8882 26.9263L36.8881 26.9423ZM34.893 30.1139C36.0581 29.544 36.8776 28.3397 36.8881 26.9418L34.8882 26.9268C34.8836 27.5368 34.525 28.0675 34.0143 28.3173L34.893 30.1139ZM31.4948 25.8216C31.4933 26.5631 31.9617 27.1835 32.5756 27.4469L33.3642 25.6089C33.4033 25.6257 33.4321 25.6507 33.4526 25.6806C33.4741 25.7119 33.4949 25.7615 33.4948 25.8256L31.4948 25.8216ZM33.3661 24.1C32.4614 24.0688 31.4948 24.7532 31.4948 25.8236H33.4948C33.4948 25.9564 33.4308 26.0343 33.3999 26.061C33.3688 26.088 33.3338 26.1001 33.2971 26.0988L33.3661 24.1ZM33.8035 24.1701C33.6641 24.1295 33.5176 24.1054 33.367 24.1L33.2962 26.0988C33.2789 26.0982 33.2617 26.0954 33.2453 26.0906L33.8035 24.1701ZM33.2948 26.0984C33.2775 26.0978 33.2602 26.0949 33.2436 26.0901L33.8052 24.1706C33.6648 24.1295 33.5174 24.105 33.3657 24.0997L33.2948 26.0984ZM33.4935 25.8253C33.4932 25.9564 33.4299 26.0338 33.3989 26.0606C33.3678 26.0875 33.3327 26.0997 33.2957 26.0984L33.3649 24.0996C32.4603 24.0683 31.4956 24.752 31.4935 25.8212L33.4935 25.8253ZM33.3634 25.6086C33.4028 25.6254 33.4313 25.6504 33.4515 25.6797C33.4728 25.7106 33.4935 25.7596 33.4935 25.8232H31.4935C31.4935 26.5639 31.962 27.1842 32.5764 27.4472L33.3634 25.6086ZM20.0785 23.6944C18.9643 24.3884 18.371 25.4914 18.3896 26.8321L20.3894 26.8043C20.3803 26.1455 20.6319 25.7059 21.1359 25.392L20.0785 23.6944ZM23.9728 24.2905C22.8855 23.1031 21.3169 22.9238 20.0789 23.6941L21.1355 25.3922C21.5433 25.1385 22.0505 25.1527 22.4978 25.6412L23.9728 24.2905ZM24.2785 24.6771C24.187 24.5425 24.0851 24.4131 23.9727 24.2904L22.4979 25.6413C22.5439 25.6915 22.586 25.7449 22.6242 25.801L24.2785 24.6771ZM22.4972 25.6403C22.5434 25.6907 22.5856 25.7443 22.6239 25.8006L24.2788 24.6776C24.187 24.5424 24.0848 24.4125 23.972 24.2894L22.4972 25.6403ZM21.1348 25.3912C21.5426 25.1375 22.0498 25.1517 22.4971 25.6402L23.9721 24.2895C22.8848 23.102 21.3162 22.9228 20.0782 23.6931L21.1348 25.3912ZM20.3887 26.8033C20.3796 26.1445 20.6313 25.7049 21.1352 25.391L20.0778 23.6934C18.9636 24.3874 18.3703 25.4904 18.3889 26.8311L20.3887 26.8033ZM20.3882 26.8536L20.3882 26.8533L18.3895 26.7811L18.3895 26.7814L20.3882 26.8536ZM20.0952 26.1096L20.0945 26.1089L18.6832 27.5261L18.6839 27.5268L20.0952 26.1096ZM22.2909 24.0659C22.1233 24.002 21.9382 23.963 21.7424 23.9603L21.7143 25.9601C21.6612 25.9593 21.6155 25.9488 21.5792 25.9349L22.2909 24.0659ZM21.715 25.9604C21.6624 25.9596 21.6168 25.9492 21.5805 25.9354L22.2896 24.0654C22.1224 24.002 21.938 23.9633 21.7431 23.9606L21.715 25.9604ZM21.9984 25.6496C21.9956 25.8707 21.8192 25.9616 21.7169 25.9604L21.7413 23.9605C20.8397 23.9495 20.0112 24.6436 19.9986 25.6238L21.9984 25.6496ZM21.8631 25.3556C21.894 25.3755 21.9231 25.4037 21.9474 25.4448C21.9722 25.4868 21.9997 25.5571 21.9984 25.6508L19.9986 25.6226C19.9897 26.2515 20.3522 26.7601 20.7768 27.0348L21.8631 25.3556ZM19.9979 25.6246C19.9905 26.2517 20.3517 26.76 20.7771 27.035L21.8628 25.3554C21.8938 25.3754 21.9229 25.4036 21.947 25.4443C21.9716 25.4859 21.9988 25.5554 21.9977 25.6482L19.9979 25.6246ZM21.7426 23.9603C20.8375 23.9474 20.0105 24.645 19.9979 25.6235L21.9977 25.6493C21.9949 25.8686 21.82 25.9616 21.7141 25.9601L21.7426 23.9603ZM15.9725 21.0088C15.644 20.909 15.3302 20.9075 15.0432 20.9695L15.4659 22.9244C15.4587 22.9259 15.4446 22.928 15.4265 22.9274C15.4081 22.9268 15.3955 22.9237 15.3915 22.9225L15.9725 21.0088ZM15.4717 22.9231C15.4607 22.9255 15.4442 22.9277 15.4251 22.9271C15.4059 22.9264 15.3938 22.9232 15.3915 22.9225L15.9725 21.0088C15.6477 20.9102 15.3322 20.9053 15.0375 20.9708L15.4717 22.9231ZM27.2909 15.2379C27.3377 15.5316 27.4771 15.777 27.66 15.9702L29.1127 14.5956C29.1348 14.6189 29.1681 14.6598 29.1993 14.7198C29.2314 14.7816 29.2545 14.8508 29.266 14.9231L27.2909 15.2379ZM29.1086 14.5913C29.1339 14.6177 29.1684 14.6605 29.1998 14.7212C29.232 14.7832 29.2546 14.8519 29.266 14.9231L27.2909 15.2379C27.3372 15.5282 27.4748 15.7768 27.6641 15.9745L29.1086 14.5913ZM44.0504 23.3399C43.6443 22.919 43.1414 22.7575 42.8449 22.668L42.267 24.5827C42.3943 24.6211 42.4739 24.6501 42.5327 24.6787C42.5862 24.7046 42.6048 24.7221 42.6109 24.7285L44.0504 23.3399ZM42.267 24.5827C42.3933 24.6208 42.4731 24.65 42.5322 24.6787C42.5861 24.705 42.6056 24.7229 42.6122 24.7298L44.0491 23.3386C43.6441 22.9203 43.1436 22.7582 42.8449 22.668L42.267 24.5827Z" fill="#352416" mask="url(#path-2-outside-1_1189_1687)"/>
</g>
<path d="M33.7231 17.0921C33.5989 17.1083 33.5932 16.9986 33.5401 16.9311C32.6256 15.7778 31.7292 14.6106 30.8662 13.4183C30.4576 12.8542 30.0065 12.3275 29.4843 11.8593C28.9539 11.3838 28.3966 11.4277 27.9389 11.8731C27.009 12.7794 26.1836 13.7743 25.359 14.774C24.7755 15.4811 24.1904 16.1874 23.5767 16.8702C23.0626 17.4432 22.5813 18.0455 22.0975 18.6437C21.7298 19.0988 21.3195 19.5117 20.8962 19.9124C20.7467 20.0547 20.5367 20.1067 20.334 20.1417C19.6475 20.2603 18.957 20.357 18.2738 20.4928C17.4051 20.6651 16.5307 20.7951 15.6571 20.9349C15.0581 21.03 14.4656 21.1771 13.8641 21.2414C13.3035 21.3015 12.7969 21.5421 12.2493 21.6331C11.5277 21.7526 10.856 22.0387 10.1573 22.2305C9.88759 22.3045 9.62526 22.4882 9.31799 22.4199C9.49451 22.1224 9.78217 21.9623 10.0821 21.8266C10.865 21.4722 11.7042 21.3104 12.5394 21.1389C14.2817 20.7813 16.0428 20.5424 17.8031 20.2969C18.6571 20.1782 19.5111 20.0571 20.3724 19.9945C20.5203 19.984 20.6216 19.9165 20.714 19.7938C22.502 17.4164 24.3596 15.0942 26.2898 12.8298C26.7376 12.3047 27.192 11.7829 27.7412 11.3562C28.3557 10.8783 28.931 10.8775 29.5399 11.357C30.156 11.8431 30.59 12.4876 31.0476 13.107C31.98 14.3684 32.8365 15.6819 33.6823 17.0018C33.6994 17.0287 33.7093 17.0604 33.7231 17.0896V17.0921Z" fill="white"/>
<path d="M46.5642 24.1188C46.386 24.0733 46.1891 24.0603 46.0322 23.9749C45.5851 23.7327 45.1185 23.5376 44.6519 23.3369C44.2081 23.1467 43.7366 23.0451 43.2912 22.863C42.7241 22.6314 42.1193 22.5062 41.5367 22.3168C40.8143 22.0827 40.0886 21.8527 39.3621 21.6276C38.9102 21.487 38.4705 21.3057 38.0235 21.1472C37.8927 21.1009 37.7538 21.0757 37.6222 21.0302C37.5046 20.9887 37.3926 20.9318 37.3665 20.7896C37.7285 20.7717 38.057 20.918 38.3945 21.0074C39.4332 21.2846 40.4735 21.5577 41.5007 21.8738C42.9962 22.3347 44.5252 22.7126 45.8973 23.5011C46.1613 23.653 46.435 23.8124 46.5642 24.1171V24.1188Z" fill="white"/>
<path d="M37.3517 20.7906C37.2716 20.802 37.1972 20.8012 37.1719 20.702C37.2503 20.6947 37.3141 20.7159 37.3517 20.7906Z" fill="white"/>
<path d="M33.336 29.4678C31.8585 29.4483 30.6784 28.2388 30.7054 26.7482C30.7299 25.3729 31.9688 24.4821 32.8253 24.37C33.7136 24.2537 34.4817 24.4691 35.1167 25.1007C35.6226 25.6046 35.8939 26.2199 35.8882 26.9343C35.8775 28.3445 34.7195 29.4857 33.336 29.467V29.4678ZM34.0707 25.8346C34.078 25.4469 33.743 25.1137 33.3303 25.099C32.8841 25.0836 32.4943 25.4201 32.4935 25.8232C32.4935 26.2256 32.8326 26.5742 33.2379 26.5881C33.6915 26.6035 34.0617 26.2686 34.0699 25.8346H34.0707Z" fill="#371E22"/>
<path d="M19.3896 26.8183C19.3757 25.8186 19.7982 25.0472 20.6072 24.5433C21.4301 24.0312 22.468 24.1279 23.2354 24.9659C24.1482 25.9624 24.1041 27.6124 23.1479 28.569C21.994 29.7232 20.367 29.3095 19.6601 27.9529C19.4729 27.5937 19.3749 27.2035 19.3887 26.8175L19.3896 26.8183ZM21.6802 26.307C22.0651 26.3111 22.3683 26.0161 22.3765 25.63C22.3838 25.2837 22.0757 24.9651 21.7284 24.9602C21.3288 24.9546 21.0027 25.2569 20.9978 25.6365C20.9938 25.9835 21.3182 26.303 21.6794 26.307H21.6802Z" fill="#371E22"/>
<path d="M34.0712 25.8352C34.063 26.2692 33.6928 26.6041 33.2392 26.5887C32.8331 26.5748 32.4939 26.2262 32.4948 25.8238C32.4948 25.4215 32.8846 25.0842 33.3316 25.0996C33.7443 25.1143 34.0793 25.4475 34.072 25.8352H34.0712Z" fill="white"/>
<path d="M21.68 26.3073C21.3188 26.3032 20.9936 25.9838 20.9985 25.6367C21.0034 25.2572 21.3294 24.9556 21.7291 24.9605C22.0764 24.9654 22.3836 25.2832 22.3771 25.6302C22.3689 26.0163 22.0657 26.3114 21.6808 26.3073H21.68Z" fill="white"/>
<path d="M46.606 24.1852L46.5488 24.1267L46.5652 24.1186C46.387 24.0731 46.1901 24.0601 46.0332 23.9747C45.5861 23.7325 45.1195 23.5374 44.6529 23.3367C44.2091 23.1465 43.7376 23.0449 43.2922 22.8628C42.7251 22.6312 42.1204 22.506 41.5377 22.3166C40.8153 22.0825 40.0896 21.8525 39.3631 21.6274C38.9112 21.4868 38.4715 21.3055 38.0245 21.147C37.8937 21.1007 37.7548 21.0755 37.6232 21.03C37.5056 20.9885 37.3936 20.9316 37.3675 20.7894L37.3519 20.7878C37.2718 20.7991 37.1975 20.7983 37.1721 20.6992C36.8069 20.6033 36.4456 20.4887 36.0763 20.4188C35.8319 20.3724 35.6938 20.2497 35.5721 20.0449C35.0302 19.1305 34.4745 18.2242 33.8853 17.3391C33.8281 17.3261 33.82 17.2822 33.8167 17.2351C33.8003 17.2099 33.784 17.1855 33.7677 17.1603L33.7685 17.1587C33.7521 17.1359 33.7358 17.1123 33.7194 17.0896C33.5977 17.1042 33.5919 16.9953 33.5388 16.9286C32.6244 15.7753 31.7279 14.6081 30.8649 13.4158C30.4563 12.8517 30.0052 12.3242 29.483 11.8568C28.9527 11.3813 28.3953 11.4252 27.9377 11.8706C27.0077 12.7769 26.1823 13.7718 25.3577 14.7715C24.7743 15.4786 24.1891 16.1849 23.5754 16.8677C23.0614 17.4407 22.58 18.043 22.0963 18.6412C21.7285 19.0964 21.3183 19.5092 20.895 19.91C20.7454 20.0522 20.5354 20.1042 20.3327 20.1392C19.6463 20.2578 18.9557 20.3546 18.2725 20.4903C17.4038 20.6626 16.5294 20.7926 15.6558 20.9324C15.0568 21.0275 14.4643 21.1747 13.8629 21.2389C13.3023 21.299 12.7956 21.5396 12.2481 21.6306C11.5265 21.7501 10.8547 22.0362 10.156 22.228C9.88633 22.302 9.624 22.4857 9.31673 22.4174C9.19578 22.5556 9.17127 22.7246 9.15737 22.8978C9.12142 23.3407 9.25299 23.7398 9.4769 24.1153C9.75475 24.5811 10.0604 25.0305 10.3807 25.4678C12.1492 27.8826 14.0059 30.2291 15.8716 32.5683C16.1151 32.874 16.2475 33.1487 16.205 33.5754C16.053 35.0929 15.9688 36.6177 15.8626 38.14C15.7392 39.8997 15.6411 41.661 15.6607 43.4264C15.6665 43.919 15.7024 44.4107 15.8495 44.8862C16.0456 45.5226 16.4992 45.8323 17.126 45.7437C17.3278 45.7152 17.5297 45.6567 17.7201 45.5836C19.0113 45.0845 20.2453 44.4595 21.5013 43.8832C23.4169 43.0046 25.312 42.0821 27.2479 41.2473C27.4326 41.1677 27.5814 41.1717 27.7595 41.2611C29.4217 42.0983 31.0839 42.9355 32.7527 43.758C34.1109 44.427 35.4478 45.1422 36.8502 45.7193C37.3103 45.9087 37.7867 46.0257 38.2942 45.9948C38.8074 45.9639 39.2005 45.7396 39.4072 45.2739C39.6033 44.8317 39.6957 44.3514 39.7496 43.8718C39.8387 43.0802 39.8542 42.2836 39.8354 41.4871C39.7815 39.2064 39.6785 36.9273 39.569 34.6491C39.5192 33.6128 39.5077 33.6168 40.1942 32.8642C41.9471 30.9452 43.754 29.075 45.4529 27.1072C45.8558 26.6407 46.2742 26.1847 46.6126 25.6678C46.9345 25.1768 46.9247 24.551 46.6052 24.1812L46.606 24.1852ZM15.682 21.9655C15.5267 21.9184 15.3861 21.9184 15.2546 21.9468C15.3861 21.9175 15.5267 21.9184 15.682 21.9655ZM15.1116 21.9899C15.0789 22.0021 15.047 22.0167 15.016 22.0321C15.0478 22.0167 15.0797 22.0021 15.1116 21.9899ZM14.6507 22.2589C14.6425 22.2646 14.6335 22.2703 14.6253 22.2768C14.6229 22.2784 14.6204 22.2801 14.6188 22.2817C14.6212 22.2801 14.6237 22.2784 14.6253 22.2768C14.6335 22.2711 14.6425 22.2654 14.6507 22.2589ZM14.8877 22.102C14.868 22.1142 14.8484 22.1256 14.8288 22.1386C14.8484 22.1264 14.868 22.1142 14.8877 22.102ZM14.4079 22.5848C14.4079 22.5848 14.4079 22.5873 14.4079 22.5881C14.4079 22.5873 14.4079 22.5857 14.4079 22.5848ZM23.148 28.5686C21.9941 29.7228 20.367 29.3091 19.6602 27.9525C19.473 27.5933 19.3749 27.2031 19.3888 26.817C19.3749 25.8173 19.7974 25.046 20.6065 24.542C21.4294 24.03 22.4673 24.1267 23.2346 24.9647C24.1475 25.9612 24.1033 27.6111 23.1472 28.5678L23.148 28.5686ZM28.8235 14.5764C29.1913 14.5984 29.4871 14.7146 29.7069 14.9129C29.4871 14.7146 29.1921 14.5984 28.8235 14.5764C28.8031 14.5764 28.7827 14.5764 28.7614 14.5764C28.7819 14.5764 28.8023 14.5764 28.8235 14.5764ZM28.2785 15.0804C28.2891 15.147 28.3209 15.2137 28.3863 15.2827C28.3209 15.2145 28.2891 15.147 28.2785 15.0804ZM29.7878 15.9622C29.8761 15.9248 29.957 15.8566 30.0118 15.7785C29.9562 15.8566 29.8761 15.9248 29.7878 15.9622ZM33.3362 29.4676C31.8586 29.448 30.6786 28.2386 30.7056 26.748C30.7301 25.3727 31.969 24.4819 32.8254 24.3697C33.7137 24.2535 34.4819 24.4689 35.1169 25.1004C35.6227 25.6044 35.894 26.2196 35.8883 26.9341C35.8777 28.3443 34.7197 29.4854 33.3362 29.4667V29.4676ZM42.0762 24.4079C41.9953 24.3193 41.9177 24.2145 41.9013 24.0958C41.9177 24.2153 41.9953 24.3202 42.0762 24.4079ZM43.5047 24.503C43.5701 24.3258 43.4589 24.1665 43.3306 24.0341C43.1182 23.8146 42.8387 23.7106 42.5559 23.6252C42.8387 23.7106 43.1182 23.8138 43.3306 24.0341C43.4589 24.1665 43.5701 24.325 43.5047 24.503Z" fill="#F6E680"/>
<path d="M39.5715 23.2868C39.4212 23.2624 39.2716 23.2323 39.1212 23.2087C37.9902 23.0332 36.9287 22.8584 35.7821 22.8714C34.5547 22.8852 33.337 23.008 32.1284 23.2185C31.6666 23.2989 31.2041 23.377 30.7497 23.4891C30.0453 23.6639 29.349 23.8744 28.6462 24.0557C28.3643 24.128 28.0685 24.1459 27.7865 24.2174C27.3134 24.3369 26.8582 24.2109 26.4071 24.1207C25.9233 24.0248 25.4534 23.863 24.9761 23.7346C24.0723 23.4916 23.1562 23.3006 22.2311 23.1567C21.3469 23.0193 20.4545 22.9429 19.5613 22.9064C18.8128 22.8763 18.0601 22.8308 17.3132 22.9096C16.5662 22.9885 15.8667 23.1567 15.1533 23.2868C15.0642 23.303 14.9653 23.3258 14.9719 23.4428C14.9923 23.7907 15.0062 24.1402 15.0503 24.4864C15.0797 24.7181 15.2236 24.8749 15.4736 24.9099C15.6412 24.9335 15.8071 24.966 15.9746 24.9855C16.0522 24.9944 16.0841 25.0196 16.0849 25.1017C16.0865 25.2578 16.1029 25.413 16.1102 25.5691C16.1585 26.6054 16.2377 27.6392 16.3971 28.6658C16.4682 29.1242 16.5564 29.5786 16.728 30.0134C17.1473 31.0717 19.1135 30.9075 20.0198 30.931C20.5109 30.944 21.0037 30.931 21.4957 30.9091C22.245 30.8742 22.9895 30.8026 23.7242 30.636C24.217 30.5247 24.5577 30.2621 24.78 29.8126C25.0816 29.2014 25.3137 28.565 25.509 27.9148C25.7533 27.1004 25.9748 26.2794 26.2101 25.4447C26.3205 25.452 26.4512 25.4545 26.5795 25.4699C26.7462 25.4894 26.9121 25.5366 27.0788 25.5406C27.2954 25.5455 27.5136 25.5227 27.731 25.5073C27.8789 25.4967 28.026 25.4797 28.1731 25.4634C28.2393 25.4561 28.3063 25.448 28.3717 25.4366C28.4926 25.4155 28.5588 25.4707 28.5899 25.6089C28.8914 26.937 29.2575 28.2464 29.7977 29.5013C29.8974 29.7322 30.0339 29.9484 30.1671 30.1621C30.3142 30.3987 30.5544 30.5181 30.8143 30.575C31.2597 30.6734 31.7083 30.7693 32.1611 30.8254C33.0584 30.9367 33.963 30.9603 34.866 30.9286C35.2207 30.9164 35.5762 30.9034 35.9308 30.8815C36.243 30.862 36.5822 30.8717 36.8845 30.7864C37.1338 30.7165 37.5154 30.5799 37.7132 30.4092C37.8946 30.2532 38.009 30.0378 38.076 29.8118C38.295 29.0714 38.4013 28.313 38.4707 27.5507C38.5451 26.7403 38.5851 25.9267 38.635 25.1147C38.6415 25.0147 38.6791 24.9887 38.7731 24.983C38.921 24.9733 39.0673 24.9481 39.2144 24.9294C39.462 24.8969 39.6058 24.7538 39.6729 24.5189C39.7676 24.1849 39.7448 23.8427 39.7521 23.5013C39.7554 23.3688 39.6974 23.3071 39.5732 23.2868H39.5715Z" fill="black"/>
<defs>
<filter id="filter0_d_1189_1687" x="8.15149" y="9.99756" width="39.698" height="39.0024" filterUnits="userSpaceOnUse" color-interpolation-filters="sRGB">
<feFlood flood-opacity="0" result="BackgroundImageFix"/>
<feColorMatrix in="SourceAlpha" type="matrix" values="0 0 0 0 0 0 0 0 0 0 0 0 0 0 0 0 0 0 127 0" result="hardAlpha"/>
<feOffset dy="2"/>
<feComposite in2="hardAlpha" operator="out"/>
<feColorMatrix type="matrix" values="0 0 0 0 0 0 0 0 0 0 0 0 0 0 0 0 0 0 0.25 0"/>
<feBlend mode="normal" in2="BackgroundImageFix" result="effect1_dropShadow_1189_1687"/>
<feBlend mode="normal" in="SourceGraphic" in2="effect1_dropShadow_1189_1687" result="shape"/>
</filter>
</defs>
</svg>
