<svg width="56" height="56" viewBox="0 0 56 56" fill="none" xmlns="http://www.w3.org/2000/svg">
<g clip-path="url(#clip0_1189_1565)">
<path fill-rule="evenodd" clip-rule="evenodd" d="M32.6312 55.1497H32.632C32.6846 55.4828 32.7358 55.816 32.7851 56.1495C32.8426 56.5417 33.0404 56.6978 33.3847 56.8269L33.3847 56.8267L33.3862 56.8273L33.3269 55.9809L33.272 55.1983L33.2703 55.1725L33.2687 55.1466C33.2335 54.6455 33.1987 54.1445 33.1638 53.6435L33.1635 53.6382L33.1632 53.6351C33.1106 52.8776 33.0579 52.1202 33.0042 51.3626L32.9972 51.2632L32.9901 51.1638C32.9582 50.7166 32.9258 50.2698 32.8925 49.8226C32.8898 49.7867 32.887 49.7509 32.8841 49.7151C32.857 49.3747 32.8304 49.0416 32.9761 48.7419C32.9897 48.7143 33.0042 48.6868 33.0211 48.6597C33.0414 48.6268 33.0641 48.5944 33.0888 48.562C33.1047 48.5417 33.1217 48.5209 33.14 48.5011L33.1571 48.4826C33.1744 48.4645 33.1927 48.4466 33.212 48.4288C33.217 48.4242 33.222 48.4194 33.2269 48.4146C33.2292 48.4123 33.2315 48.4099 33.2337 48.4076C33.2603 48.3807 33.2841 48.3506 33.3064 48.3188C33.3637 48.2352 33.4082 48.1371 33.452 48.0405C33.4696 48.0018 33.487 47.9634 33.5051 47.9262C33.5503 47.8335 33.5962 47.741 33.6421 47.6486L33.6424 47.6479L33.6424 47.6478C33.7795 47.3716 33.9165 47.0953 34.036 46.8122C34.0544 46.7687 34.0727 46.7251 34.0902 46.6811L34.2381 46.3079C35.0354 44.3013 35.827 42.2923 36.6088 40.2794C37.0681 39.0976 37.4874 37.9043 37.7896 36.6694C37.8099 36.5872 37.8292 36.5045 37.8485 36.4219C38.0637 35.4906 37.8519 34.7049 37.2383 34.0014L37.2369 34.0016L37.2364 34.001C37.1997 33.9589 37.1617 33.9178 37.1236 33.8768C37.0353 33.7814 36.9471 33.686 36.8762 33.5789C36.7978 33.4609 36.72 33.3144 36.7166 33.1785C36.7034 32.6162 36.6989 32.0533 36.6944 31.4904C36.686 30.4412 36.6776 29.392 36.6131 28.3463C36.4816 26.2086 36.2718 24.0753 36.0551 21.944C35.7752 19.1879 35.4686 16.4343 35.1471 13.6831C35.0437 12.7985 34.9124 11.9174 34.7272 11.0469C34.676 10.8061 34.6206 10.5662 34.5606 10.3272C34.4904 10.0477 34.4138 9.76952 34.3299 9.49291C34.1186 8.79665 33.8629 8.1144 33.3822 7.554C33.2324 7.37945 33.0167 7.20781 32.8011 7.15365C31.9206 6.9322 31.1305 7.17057 30.4381 7.74064C30.3867 7.78316 30.3452 7.84433 30.3128 7.90965C30.2934 7.94806 30.2772 7.98801 30.264 8.02653C30.2074 8.19189 30.1649 8.36451 30.1383 8.53761C30.122 8.6433 30.1018 8.74954 30.0816 8.85594L30.0816 8.85596C30.0277 9.13941 29.9737 9.42397 29.9937 9.7024C30.0484 10.4769 30.1252 11.2498 30.202 12.0228L30.202 12.0229V12.0229C30.2534 12.5403 30.3048 13.0576 30.3496 13.5754C30.5379 15.7565 30.72 17.9378 30.9022 20.1192L30.9023 20.1204L30.9028 20.1263C30.9604 20.816 31.018 21.5058 31.0758 22.1955C31.0862 22.3197 31.0925 22.4442 31.0995 22.5829C31.1031 22.6548 31.107 22.7305 31.1117 22.812C30.6022 22.1138 30.3518 21.8504 29.9024 21.6921C28.7061 21.2705 27.566 21.3338 26.5777 22.2143C26.3379 22.4282 26.1245 22.6719 25.9081 22.9188L25.9081 22.9188L25.9081 22.9188L25.9081 22.9188L25.9081 22.9188C25.8086 23.0324 25.7084 23.1467 25.6049 23.2592C25.2142 22.6296 24.6016 22.4033 23.8652 22.472C23.6021 22.4967 23.3362 22.5416 23.0833 22.6175C21.922 22.9657 21.0177 23.5813 20.5167 24.6078C20.3969 24.8526 20.3 25.1208 20.2281 25.4143C20.2161 25.4627 20.2052 25.5114 20.1947 25.5588L20.1947 25.5589C20.189 25.5845 20.1834 25.6097 20.1777 25.6343C19.2804 25.7048 19.1777 25.7383 18.6378 26.169C17.9401 26.7255 17.3527 27.3889 16.8077 28.0895C16.4447 28.5564 16.0801 29.0254 15.8118 29.5478C15.6769 29.81 15.5662 30.0856 15.492 30.381C15.2087 31.51 15.0617 32.6584 15.0723 33.8246C15.0745 34.0673 15.0737 34.31 15.0729 34.5528C15.0722 34.7855 15.0714 35.0182 15.0733 35.251C15.096 37.8959 15.2222 40.5335 15.6637 43.1464C15.9219 44.6743 16.2801 46.1761 16.9605 47.5807C17.2931 48.2673 17.693 48.9066 18.3501 49.3427C18.4067 49.3799 18.4473 49.4703 18.4584 49.5419C18.7456 51.4034 19.0227 53.2664 19.1184 55.1497H19.1208C19.1265 55.2623 19.1315 55.3749 19.1359 55.4876L19.1362 55.4993L19.1366 55.5165C19.1379 55.5743 19.1393 55.6414 19.1707 55.6694C19.3193 55.8032 19.4745 55.9295 19.6377 56.0623L19.638 56.0625L19.6381 56.0626L19.6381 56.0626L19.6382 56.0627C19.693 56.1073 19.7488 56.1527 19.8055 56.1993V56.1981L19.8075 56.1997C19.8075 56.1334 19.8081 56.0698 19.8089 56.0084L26.2641 57.9995C26.2642 58.471 26.2652 58.8254 26.2674 58.9995C26.2715 59.3307 27.916 59.6651 29.5604 59.9995C31.1962 60.3321 32.8321 60.6647 32.8532 60.9942L32.6312 55.1497ZM26.2643 57.2065C26.2641 57.4951 26.264 57.7621 26.2641 57.9995C26.2396 57.7603 26.2024 57.4194 26.1573 57.0153C26.1718 57.0419 26.1871 57.0684 26.2024 57.095C26.2237 57.1321 26.2451 57.1692 26.2643 57.2065Z" fill="#BFBFBF"/>
<g clip-path="url(#clip1_1189_1565)">
<path d="M38.236 33.0018C38.1915 32.9506 38.1451 32.9013 38.0987 32.851C38.0184 32.7644 37.9401 32.6764 37.8753 32.5797C37.7979 32.4627 37.721 32.3181 37.7162 32.1837C37.7162 32.1823 37.7162 32.1808 37.7162 32.1794C37.7162 32.1774 37.7162 32.175 37.7162 32.1731C37.6785 30.5644 37.7118 28.9514 37.6127 27.3471C37.5634 26.5454 37.503 25.7447 37.4353 24.944C37.3453 23.8764 37.2423 22.8102 37.1355 21.7441C37.1089 21.4776 37.0818 21.2112 37.0547 20.9448C36.7854 18.2956 36.4914 15.6488 36.1839 13.004C36.1714 12.8971 36.1593 12.7903 36.1472 12.6839C36.1438 12.6554 36.1404 12.6268 36.137 12.5983C35.9721 11.2116 35.7367 9.83404 35.33 8.49325C35.1545 7.91448 34.9476 7.34537 34.6067 6.84783C34.5375 6.74678 34.4636 6.64862 34.3823 6.55434C34.3649 6.53403 34.3466 6.51372 34.3277 6.4939C34.1826 6.34159 33.9917 6.20185 33.8016 6.15447C33.5816 6.09935 33.367 6.07275 33.1581 6.07275C32.6364 6.07275 32.1504 6.24053 31.7027 6.5437C31.6132 6.60414 31.5252 6.67038 31.4382 6.74194C31.428 6.75016 31.4184 6.75935 31.4092 6.76902C31.3439 6.83671 31.297 6.93438 31.2661 7.02383C31.2095 7.1892 31.1669 7.36181 31.1403 7.53491C31.0809 7.92221 30.9682 8.31676 30.9958 8.69971C31.0872 9.99264 31.24 11.2812 31.3516 12.5727C31.5997 15.4458 31.8371 18.3193 32.0779 21.1929C32.0938 21.3834 32.1001 21.5748 32.1142 21.8166C31.6031 21.116 31.3521 20.852 30.9025 20.6934C30.49 20.5483 30.0848 20.4603 29.6898 20.4439C29.4693 20.4347 29.2517 20.4478 29.0385 20.4855C28.9834 20.4951 28.9292 20.5063 28.8746 20.5193C28.8543 20.5241 28.834 20.5295 28.8137 20.5348C28.773 20.5454 28.7329 20.557 28.6928 20.5696C28.6589 20.5802 28.6256 20.5914 28.5922 20.603C28.509 20.6325 28.4264 20.6658 28.3451 20.7035C28.0811 20.8268 27.8249 20.9956 27.5783 21.2151C27.2277 21.5274 26.9337 21.9036 26.6054 22.26C26.5082 22.1038 26.3975 21.9723 26.2747 21.864C26.2679 21.8582 26.2612 21.8529 26.2544 21.8471C26.2075 21.8074 26.1591 21.7711 26.1089 21.7378C25.7631 21.5081 25.3405 21.4288 24.8657 21.4728C24.6027 21.4975 24.3368 21.5424 24.0839 21.6184C22.7368 22.0226 21.7354 22.786 21.3085 24.1341C21.2945 24.1791 21.2804 24.2245 21.2679 24.2709C21.2548 24.3174 21.2427 24.3643 21.2311 24.4116C21.2258 24.4329 21.221 24.4547 21.2161 24.4759C21.2036 24.5306 21.1915 24.5843 21.1799 24.6355C20.2815 24.7061 20.179 24.7395 19.6389 25.1703C18.9412 25.7268 18.3537 26.3902 17.8088 27.0908C17.2643 27.7905 16.7165 28.4959 16.4951 29.3783C16.2117 30.5074 16.0647 31.6557 16.0754 32.822C16.0797 33.2973 16.0725 33.7726 16.0763 34.2483C16.0991 36.8932 16.2253 39.5308 16.6667 42.1437C16.9249 43.6716 17.2832 45.1734 17.9635 46.578C18.2962 47.2646 18.696 47.9039 19.3531 48.34C19.4097 48.3772 19.4503 48.4676 19.4614 48.5392C19.4803 48.661 19.4992 48.7829 19.5175 48.9047C19.5204 48.9231 19.5233 48.9415 19.5258 48.9594C19.5407 49.0585 19.5557 49.1571 19.5712 49.2563C19.5789 49.307 19.5867 49.3583 19.5944 49.4095C19.6046 49.4772 19.6147 49.5449 19.6249 49.6121C19.6341 49.6726 19.6428 49.7325 19.6515 49.793C19.6602 49.8515 19.6689 49.91 19.6771 49.9685C19.6868 50.0342 19.696 50.0995 19.7056 50.1653C19.7134 50.2185 19.7206 50.2712 19.7283 50.3244C19.738 50.393 19.7477 50.4622 19.7574 50.5308C19.7641 50.5811 19.7714 50.6314 19.7782 50.6817C19.7878 50.7523 19.797 50.8229 19.8067 50.8935C19.813 50.9418 19.8197 50.9902 19.826 51.0385C19.8357 51.111 19.8449 51.1836 19.8541 51.2561C19.8599 51.302 19.8657 51.3484 19.8715 51.3944C19.8807 51.4688 19.8898 51.5433 19.8985 51.6178C19.9039 51.6622 19.9092 51.7067 19.9145 51.7512C19.9232 51.8271 19.9319 51.903 19.9406 51.9785C19.9454 52.0215 19.9503 52.0645 19.9551 52.1076C19.9633 52.1849 19.972 52.2618 19.9798 52.3392C19.9841 52.3808 19.988 52.4219 19.9924 52.4634C20.0001 52.5422 20.0083 52.6211 20.0156 52.6999C20.0194 52.7395 20.0228 52.7787 20.0267 52.8183C20.0339 52.8991 20.0412 52.9803 20.0484 53.0611C20.0513 53.0978 20.0542 53.1346 20.0576 53.1713C20.0644 53.255 20.0712 53.3386 20.0774 53.4227C20.0799 53.4551 20.0818 53.4875 20.0842 53.5194C20.0905 53.6079 20.0968 53.6964 20.1021 53.7844C20.1036 53.8076 20.105 53.8313 20.106 53.8545C20.1118 53.9517 20.1176 54.0489 20.1224 54.1461C20.1282 54.2597 20.1335 54.3738 20.1379 54.4879C20.1403 54.5503 20.136 54.6364 20.1727 54.6697C20.3714 54.8486 20.5818 55.014 20.8076 55.1997C20.8076 54.9178 20.8187 54.6857 20.8056 54.4546C20.7998 54.3521 20.794 54.2491 20.7882 54.1466H33.6324C33.6851 54.4807 33.7368 54.8153 33.7866 55.1499C33.8447 55.5415 34.0419 55.6977 34.3862 55.8273C34.347 55.2707 34.3098 54.7345 34.2721 54.1983C34.2711 54.1809 34.2697 54.164 34.2687 54.1466C34.1802 52.8851 34.0937 51.624 34.0042 50.3625C33.9994 50.2963 33.995 50.2301 33.9902 50.1638C33.9583 49.7166 33.9259 49.2698 33.8925 48.8225C33.8645 48.4449 33.8152 48.0731 33.9762 47.7419C33.9897 47.7143 34.0042 47.6868 34.0212 47.6597C34.0415 47.6268 34.0642 47.5944 34.0888 47.562C34.1048 47.5417 34.1217 47.5209 34.1401 47.5011C34.1633 47.4755 34.1884 47.4498 34.216 47.4247C34.2499 47.3937 34.2794 47.3575 34.3064 47.3188C34.3867 47.2018 34.4418 47.0562 34.5052 46.9262C34.6855 46.5563 34.8765 46.1903 35.0361 45.8122C35.0544 45.7686 35.0728 45.7251 35.0902 45.6811C35.1395 45.5569 35.1888 45.4321 35.2382 45.3078C36.0355 43.3012 36.827 41.2922 37.6089 39.2793C38.0682 38.0976 38.4874 36.9043 38.7896 35.6694C38.8099 35.5872 38.8293 35.5045 38.8486 35.4218C39.0638 34.4906 38.852 33.7049 38.2384 33.0013L38.236 33.0018Z" fill="#342315" stroke="#342315" stroke-width="0.145056" stroke-miterlimit="10"/>
<path d="M23.6178 37.371C24.1453 37.899 24.6723 38.4271 25.2342 38.9899C25.6655 37.5828 26.4265 36.4253 27.3945 35.3615C26.4618 35.3117 25.533 35.2963 25.0683 34.262C23.802 34.775 22.6826 35.5419 21.5817 36.3465C21.4743 35.9466 21.5768 35.6521 21.8989 35.4457C22.7847 34.8775 23.7498 34.4728 24.7231 34.087C24.8116 34.0517 24.9005 34.0169 25.0108 33.9729C24.8764 33.6315 24.9218 33.2026 24.4107 33.0977C24.271 33.2186 24.1182 33.3724 23.9446 33.4971C23.6444 33.7127 23.3364 33.9178 23.0226 34.1136C22.6628 34.3379 22.276 34.3408 21.8829 34.2084C21.1596 33.9647 20.5755 33.5131 20.09 32.9411C19.9242 32.7457 19.7511 32.6809 19.5282 32.7128C18.9397 32.7979 18.3532 32.8956 17.7662 32.9899C17.6893 33.0025 17.6139 33.0252 17.5109 33.0498C17.4872 32.8318 17.466 32.636 17.4389 32.3879C18.2062 32.4218 18.9552 32.4551 19.7066 32.4885C19.533 31.99 19.3676 31.504 19.1921 31.0215C19.167 30.9519 19.0978 30.8938 19.0388 30.8416C18.6351 30.4833 18.2372 30.1173 17.8184 29.7774C17.6323 29.626 17.5917 29.466 17.6453 29.2615C18.0002 29.3988 18.3547 29.5361 18.7342 29.6831C18.7279 29.0821 18.2729 28.5971 18.5331 28.0188C18.6206 28.3645 18.6627 28.7306 18.8043 29.0531C19.2801 30.1342 19.7279 31.2357 20.3057 32.2622C21.0019 33.4986 21.8403 33.6745 23.0888 32.9986C23.2982 32.8854 23.4964 32.751 23.6869 32.634C23.4635 32.3787 23.2643 32.1384 23.0491 31.9131C23.0003 31.8623 22.8886 31.8299 22.8195 31.8464C22.2891 31.9721 21.7615 32.1109 21.234 32.2491C21.1504 32.2709 21.0706 32.3096 20.9889 32.34C20.9038 32.1742 21.0077 32.1162 21.1228 32.0577C21.6107 31.8091 22.0952 31.5548 22.585 31.3106C22.7116 31.2478 22.7532 31.1815 22.7281 31.0316C22.6594 30.6202 22.7726 30.2353 22.9447 29.8625C22.9815 29.7827 23.0124 29.671 22.9858 29.5961C22.5913 28.497 22.1696 27.4086 21.571 26.3995C21.47 26.2288 21.3486 26.0698 21.2316 25.8981C20.5861 26.223 20.0639 26.6524 19.6466 27.2109C19.622 27.2041 19.5978 27.1973 19.5731 27.1906C19.592 27.0914 19.5843 26.9744 19.6345 26.8956C19.8821 26.5098 20.1446 26.1331 20.4028 25.7545C20.4468 25.6902 20.4962 25.6298 20.5174 25.5253C20.2786 25.6322 20.0315 25.7236 19.8023 25.8488C17.7754 26.9585 16.7126 28.6817 16.5826 30.9785C16.555 31.4668 16.6493 31.9653 16.5922 32.4479C16.5521 32.7873 16.5424 33.1166 16.5594 33.4536C16.718 36.5626 17.0874 39.647 17.64 42.7096C17.8624 43.9401 18.1482 45.1518 18.7521 46.2659C19.3086 47.2928 20.0397 48.11 21.2529 48.314C21.7814 48.403 22.3234 48.4214 22.8606 48.4446C23.1468 48.4572 23.4355 48.4122 23.7232 48.3928C23.7348 48.4175 23.7459 48.4422 23.7575 48.4668C23.6274 48.5311 23.4988 48.6467 23.3663 48.652C22.6265 48.681 21.8858 48.6907 21.1455 48.6902C20.9816 48.6902 20.8733 48.7347 20.7795 48.8633C20.6021 49.1075 20.5126 49.3749 20.53 49.6771C20.6219 51.2693 20.7152 52.862 20.8037 54.4542C20.8163 54.6854 20.8056 54.9174 20.8056 55.1993C20.5798 55.0137 20.3695 54.8483 20.1708 54.6694C20.134 54.6365 20.1384 54.55 20.1359 54.4876C20.0586 52.4878 19.7651 50.5121 19.4605 48.5379C19.4493 48.4663 19.4087 48.3759 19.3522 48.3387C18.6951 47.903 18.2952 47.2638 17.9625 46.5768C17.2822 45.1721 16.9234 43.6703 16.6657 42.1424C16.2243 39.5295 16.0986 36.8919 16.0754 34.247C16.071 33.7717 16.0787 33.2964 16.0744 32.8207C16.0638 31.6539 16.2107 30.5061 16.4941 29.377C16.7155 28.4946 17.2634 27.7896 17.8078 27.0895C18.3527 26.3889 18.9402 25.7255 19.6379 25.169C20.178 24.7382 20.2805 24.7048 21.1789 24.6342C21.1953 24.5626 21.2113 24.4862 21.2301 24.4103C21.6029 22.8887 22.6464 22.0483 24.0834 21.6175C24.3363 21.5416 24.6022 21.4967 24.8652 21.472C25.6016 21.4033 26.2143 21.6296 26.6049 22.2592C26.9337 21.9023 27.2277 21.5266 27.5778 21.2143C28.5661 20.3338 29.7062 20.2705 30.9024 20.6921C31.3526 20.8507 31.6031 21.1147 32.1141 21.8153C32.1001 21.5735 32.0938 21.3821 32.0779 21.1916C31.8371 18.318 31.5997 15.4445 31.3516 12.5714C31.2399 11.2799 31.0872 9.99134 30.9958 8.69841C30.9687 8.31546 31.0814 7.92091 31.1403 7.53361C31.1669 7.36051 31.209 7.1879 31.2661 7.02253C31.3014 6.92003 31.3574 6.80737 31.4382 6.74064C32.1306 6.17057 32.9207 5.9322 33.8011 6.15365C34.0168 6.20781 34.2324 6.37945 34.3823 6.554C34.8629 7.1144 35.1187 7.79665 35.33 8.49291C35.7449 9.86127 35.9818 11.2678 36.1472 12.6831C36.4687 15.4343 36.7753 18.1879 37.0552 20.944C37.2718 23.0753 37.4817 25.2086 37.6132 27.3463C37.7123 28.953 37.679 30.5679 37.7167 32.1785C37.7201 32.3144 37.7979 32.4609 37.8762 32.5789C37.9778 32.7322 38.1146 32.8613 38.2365 33.001C38.85 33.7045 39.0613 34.4902 38.8467 35.4215C38.5411 36.7444 38.0967 38.0185 37.6069 39.279C36.7762 41.4166 35.9354 43.5499 35.0878 45.6808C34.9186 46.1063 34.7039 46.5139 34.5027 46.9259C34.4181 47.099 34.349 47.3001 34.2136 47.4248C33.7779 47.8262 33.8529 48.3189 33.8906 48.8222C34.0236 50.6136 34.1449 52.4061 34.2706 54.198C34.3084 54.7342 34.3456 55.2704 34.3847 55.8269C34.0405 55.6978 33.8427 55.5417 33.7852 55.1495C33.5357 53.4621 33.2383 51.7818 32.9535 50.0997C32.8796 49.6621 32.7156 49.2593 32.3796 48.9562C32.3085 48.8918 32.1644 48.8623 32.0668 48.8817C31.7515 48.9436 31.4401 49.0277 31.1316 49.1196C30.8966 49.1897 30.7453 49.1355 30.681 48.8885C30.6655 48.828 30.6375 48.7714 30.6085 48.6965C30.784 48.6129 30.9508 48.5365 31.1152 48.4543C31.3816 48.3208 31.6442 48.1796 31.9111 48.0486C33.0889 47.4703 33.9172 46.5869 34.4138 45.3568C35.1095 43.6336 35.8508 41.9282 36.5896 40.2224C37.018 39.2331 37.4952 38.2641 37.7645 37.2129C37.9454 36.506 38.0479 35.7943 37.9405 35.0613C37.8579 34.4941 37.6103 34.0043 37.2772 33.5517C36.5993 32.6306 35.9214 31.7095 35.2328 30.7966C34.5733 29.9224 33.9206 29.042 33.2253 28.1968C32.8592 27.7519 32.4236 27.3593 31.9913 26.9749C31.5223 26.5576 30.9697 26.4783 30.3914 26.7283C30.0819 26.8623 29.7913 27.0373 29.4886 27.1877C28.9128 27.4739 28.3325 27.7514 27.7605 28.044C27.6672 28.0914 27.5841 28.1871 27.5314 28.2804C27.1982 28.8742 27.2475 29.495 27.3858 30.1337C27.4419 30.3919 27.395 30.6724 27.395 30.9538H27.029C27.1939 30.6216 27.1624 30.3112 27.1175 29.9766C27.0575 29.5337 27.1034 29.0768 27.1044 28.6257C27.1049 28.3675 27.0309 28.3157 26.779 28.3878C26.0054 28.6078 25.2274 28.8128 24.46 29.0516C24.2652 29.1126 24.0602 29.2431 23.9335 29.4007C23.6033 29.8103 23.4954 30.3155 23.492 30.8286C23.4891 31.2845 23.7599 31.5838 24.2241 31.6979C25.0011 31.8889 25.7564 31.8304 26.4783 31.4586C26.4787 31.6829 26.4807 31.6912 26.2858 31.7371C25.6369 31.8899 24.9943 32.0934 24.3111 31.9866C24.2483 31.9769 24.1748 32.0335 24.0534 32.0794C24.1709 32.1713 24.24 32.2337 24.3169 32.2835C25.1312 32.811 26.0436 33.059 26.9884 33.2109C27.6455 33.3163 28.304 33.3477 28.9553 33.1804C29.7686 32.9715 30.3628 32.5209 30.5727 31.6636C30.578 31.6423 30.594 31.6239 30.6075 31.5993C30.8164 32.4174 30.6094 33.1054 29.9789 33.6731C30.2071 33.9642 30.5045 34.1373 30.8203 34.2809C31.7849 34.7194 32.8123 34.9124 33.8548 35.0342C34.0767 35.0603 34.1841 35.1314 34.2208 35.3514C34.2624 35.6014 34.333 35.846 34.4065 36.1574C33.8316 35.9369 33.3094 35.7551 32.8022 35.5385C31.8763 35.1425 30.9672 34.7122 30.1404 34.1252C30.0722 34.0768 29.9257 34.0855 29.8397 34.1228C28.9157 34.5207 28.1662 35.1507 27.5521 35.9345C25.6945 38.3052 25.1312 40.9689 25.7859 43.901C25.9957 44.84 26.3052 45.7432 26.7157 46.6125C26.7394 46.6628 26.7597 46.7146 26.7945 46.7963C26.2404 46.9679 25.6993 47.1352 25.123 47.3136C25.1147 47.2164 25.1036 47.142 25.1036 47.0675C25.0944 45.4884 25.0678 43.9087 25.0877 42.33C25.0954 41.6952 24.9934 41.097 24.756 40.5178C24.3986 39.647 24.0263 38.782 23.6705 37.9107C23.6037 37.7472 23.5849 37.564 23.5443 37.3899C23.5694 37.3827 23.595 37.3754 23.6202 37.3681L23.6178 37.371ZM36.3227 30.7067C36.4218 30.4451 36.5374 30.2445 36.5702 30.0308C36.6568 29.467 36.7646 28.8979 36.7608 28.3312C36.7525 27.149 36.7052 25.9648 36.6234 24.7851C36.4982 22.9777 36.3396 21.1727 36.1771 19.3687C36.0152 17.5729 35.8503 15.7766 35.6506 13.9842C35.5065 12.6889 35.3286 11.3964 35.1197 10.1103C34.9891 9.30571 34.729 8.52869 34.2581 7.8479C33.5328 6.79963 32.6934 6.74693 31.7239 7.4635C31.6311 7.53216 31.5431 7.66513 31.5325 7.77586C31.4977 8.13511 31.4682 8.50065 31.4943 8.85942C31.5687 9.87916 31.6712 10.897 31.7636 11.9153C31.7849 12.1493 31.811 12.3833 31.8356 12.6246C32.1301 12.5946 32.3854 12.5559 32.6417 12.5453C33.3974 12.5148 34.1536 12.4906 34.9098 12.4766C35.0491 12.4742 35.1893 12.5313 35.3291 12.5612C35.3237 12.5695 35.3184 12.5772 35.3131 12.5854C34.1667 12.6463 33.0203 12.7073 31.8627 12.7687C31.8627 12.9045 31.8555 13.007 31.8637 13.1086C32.0015 14.7777 32.1446 16.4468 32.2766 18.1164C32.2906 18.2967 32.3395 18.3596 32.5271 18.3717C33.3785 18.4278 34.2286 18.5042 35.08 18.567C35.2909 18.5825 35.4673 18.6366 35.5703 18.8508C35.5399 18.8586 35.5176 18.8707 35.4973 18.8682C34.7309 18.7836 33.9626 18.7106 33.1987 18.6052C32.8394 18.5554 32.5687 18.6453 32.4642 18.979C32.4014 19.1792 32.3883 19.4059 32.4018 19.6177C32.4521 20.4054 32.5101 21.1925 32.5904 21.9773C32.6378 22.4381 32.7355 22.894 32.8036 23.3529C32.8269 23.51 32.9192 23.5598 33.0623 23.5816C33.9931 23.7228 34.9219 23.8799 35.8551 24.008C36.1177 24.0443 36.2134 24.17 36.2395 24.4132C36.1651 24.4132 36.1008 24.4229 36.0403 24.4118C35.3039 24.2783 34.5709 24.126 33.8311 24.0163C33.615 23.9844 33.3776 24.0583 33.1576 24.113C33.1049 24.126 33.0449 24.2604 33.0507 24.3339C33.1141 25.1197 33.1866 25.9044 33.2659 26.6887C33.2756 26.783 33.3205 26.8879 33.3814 26.9604C33.9114 27.5871 34.4689 28.1915 34.978 28.8345C35.4369 29.4143 35.844 30.0346 36.3237 30.7062L36.3227 30.7067ZM21.6803 24.8034C22.3437 25.0689 22.6222 25.6365 22.8195 26.2859C23.0907 27.178 23.3968 28.0595 23.6927 28.9588C24.6709 28.338 25.811 28.1794 26.8491 27.7582C26.8491 27.7108 26.8544 27.678 26.8481 27.6475C26.6088 26.4561 26.3859 25.2608 26.1185 24.0757C26.0281 23.6749 25.8274 23.2978 25.6713 22.9124C25.5983 22.732 25.4551 22.7074 25.2753 22.7422C24.5036 22.8897 23.7285 23.0241 23.0545 23.4713C23.6303 22.7847 24.4422 22.6315 25.3154 22.5096C24.8996 22.1687 24.4741 22.0314 23.9872 22.133C22.9481 22.3501 21.8273 23.6425 21.6798 24.8034H21.6803ZM28.6115 22.2601C29.4707 21.6799 30.3894 21.7002 31.3512 22.0193C31.0876 21.7964 30.8246 21.5818 30.5301 21.427C29.8329 21.0615 29.1661 21.134 28.5511 21.6364C28.1812 21.9386 27.9071 22.3177 27.7204 22.749C27.4172 23.4491 27.1015 24.1512 27.2635 24.9528C27.3413 25.3392 27.3955 25.7299 27.4666 26.1176C27.5425 26.5315 27.6256 26.9445 27.7117 27.3903C27.922 27.2583 28.0971 27.1461 28.2745 27.0383C28.8378 26.6959 29.3924 26.3376 29.9693 26.019C30.4151 25.7724 30.9112 25.6675 31.4174 25.7758C31.7351 25.844 32.0382 25.9803 32.3869 26.0993C32.4405 25.9813 32.5348 25.8507 32.5585 25.7086C32.7374 24.6511 32.5614 23.6599 31.9609 22.7586C31.9309 22.7137 31.8869 22.6682 31.8385 22.6479C30.8028 22.2074 29.7551 21.8646 28.6115 22.2606V22.2601ZM25.8487 33.7451C26.3472 34.5894 28.0507 34.8529 28.7097 34.1968C27.7209 34.2944 26.7983 34.0725 25.8487 33.7451Z" fill="#342315"/>
<path d="M26.3834 48.9668C26.6469 48.9668 26.8863 48.9687 27.1256 48.9663C27.2958 48.9644 27.2649 49.0901 27.2663 49.1878C27.2813 50.1785 27.2939 51.1692 27.3065 52.16C27.3195 53.215 27.3321 54.2705 27.3437 55.3256C27.3471 55.6224 27.3437 55.9198 27.3437 56.2167L27.2823 56.2428C27.2088 56.0866 27.0865 55.9353 27.069 55.7733C26.8766 53.964 26.7001 52.1527 26.5193 50.3419C26.4748 49.8957 26.4308 49.4494 26.3829 48.9668H26.3834Z" fill="#342315"/>
<path d="M36.3224 30.7059C35.8427 30.0343 35.4356 29.414 34.9768 28.8342C34.4681 28.1912 33.9101 27.5868 33.3802 26.9601C33.3188 26.8876 33.2738 26.7827 33.2646 26.6884C33.1853 25.9041 33.1123 25.1194 33.0495 24.3337C33.0437 24.2602 33.1036 24.1257 33.1563 24.1127C33.3763 24.0576 33.6137 23.9836 33.8299 24.016C34.5696 24.1257 35.3027 24.2781 36.0391 24.4115C36.0995 24.4226 36.1638 24.413 36.2383 24.413C36.2122 24.1697 36.1164 24.0435 35.8539 24.0078C34.9212 23.8796 33.9923 23.7225 33.0611 23.5813C32.9179 23.5595 32.8261 23.5097 32.8024 23.3526C32.7342 22.8937 32.636 22.4378 32.5891 21.977C32.5089 21.1922 32.4509 20.4046 32.4006 19.6174C32.387 19.4056 32.4006 19.1789 32.4629 18.9787C32.5679 18.6451 32.8386 18.5556 33.1974 18.6049C33.9609 18.7103 34.7292 18.7829 35.4961 18.868C35.5164 18.8704 35.5386 18.8583 35.5691 18.8506C35.4661 18.6364 35.2896 18.5827 35.0788 18.5667C34.2278 18.5039 33.3778 18.427 32.5258 18.3714C32.3382 18.3593 32.2898 18.296 32.2753 18.1161C32.1433 16.4465 32.0007 14.7774 31.8624 13.1083C31.8542 13.0068 31.8615 12.9043 31.8615 12.7684C33.019 12.707 34.1654 12.6461 35.3118 12.5851C35.3172 12.5769 35.3225 12.5692 35.3278 12.561C35.1881 12.5315 35.0478 12.4739 34.9086 12.4763C34.1524 12.4904 33.3961 12.5145 32.6404 12.545C32.3841 12.5552 32.1288 12.5943 31.8344 12.6243C31.8097 12.3825 31.7836 12.149 31.7623 11.915C31.6695 10.8967 31.567 9.87888 31.493 8.85914C31.4669 8.50037 31.4964 8.13483 31.5312 7.77557C31.5418 7.66485 31.6298 7.53188 31.7227 7.46322C32.6921 6.74664 33.5315 6.79935 34.2568 7.84762C34.7282 8.52841 34.9879 9.30542 35.1184 10.11C35.3273 11.3962 35.5052 12.6886 35.6493 13.9839C35.8485 15.7759 36.0139 17.5721 36.1759 19.3684C36.3383 21.1729 36.4969 22.9779 36.6222 24.7848C36.7039 25.9646 36.7513 27.1487 36.7595 28.3309C36.7634 28.8971 36.656 29.4667 36.569 30.0305C36.5361 30.2442 36.4201 30.4448 36.3214 30.7064L36.3224 30.7059Z" fill="#FFE6D3"/>
<path d="M21.6802 24.8035C21.8276 23.6426 22.9484 22.3502 23.9875 22.1331C24.4744 22.031 24.8999 22.1684 25.3157 22.5097C24.4425 22.6316 23.6307 22.7848 23.0548 23.4714C23.7284 23.0242 24.5034 22.8903 25.2756 22.7423C25.4555 22.708 25.5986 22.7326 25.6716 22.9125C25.8283 23.2979 26.0285 23.6745 26.1189 24.0758C26.3863 25.2609 26.6092 26.4562 26.8485 27.6476C26.8548 27.6781 26.8495 27.7109 26.8495 27.7583C25.8114 28.179 24.6712 28.3381 23.6931 28.9589C23.3976 28.0595 23.0911 27.1781 22.8198 26.286C22.6226 25.6371 22.344 25.0695 21.6807 24.8035H21.6802Z" fill="#FFE6D3"/>
<path d="M28.6113 22.2592C29.7543 21.8632 30.8026 22.2061 31.8383 22.6465C31.8867 22.6668 31.9307 22.7123 31.9606 22.7573C32.5612 23.659 32.7372 24.6498 32.5583 25.7072C32.5341 25.8494 32.4403 25.9794 32.3866 26.0979C32.0385 25.9789 31.7353 25.8426 31.4172 25.7744C30.9109 25.6656 30.4148 25.771 29.969 26.0176C29.3927 26.3368 28.8376 26.6946 28.2743 27.0369C28.0968 27.1447 27.9218 27.2574 27.7115 27.3889C27.6254 26.9431 27.5423 26.5302 27.4663 26.1163C27.3953 25.7285 27.3411 25.3378 27.2633 24.9515C27.1018 24.1503 27.417 23.4477 27.7202 22.7476C27.9068 22.3163 28.1805 21.9372 28.5509 21.635C29.1659 21.1326 29.8327 21.0601 30.5299 21.4257C30.8244 21.5799 31.0874 21.7946 31.3509 22.018C30.3892 21.6988 29.4705 21.6795 28.6113 22.2592Z" fill="#FFE6D3"/>
<path d="M25.8489 33.7446C26.799 34.072 27.7215 34.2939 28.7099 34.1962C28.0508 34.8524 26.3474 34.5889 25.8489 33.7446Z" fill="#FFE6D3"/>
<path d="M32.3787 48.9567C32.3077 48.8924 32.1636 48.8629 32.0659 48.8822C31.7507 48.9441 31.4393 49.0282 31.1308 49.1201C30.8958 49.1902 30.7445 49.1361 30.6801 48.889C30.6647 48.8285 30.6361 48.772 30.6076 48.697C30.7831 48.6134 30.9499 48.537 31.1143 48.4548C31.3808 48.3213 31.6433 48.1801 31.9102 48.0491C33.0881 47.4708 33.9163 46.5874 34.4129 45.3574C35.1087 43.6341 35.8499 41.9287 36.5887 40.2229C37.0171 39.2336 37.4944 38.2646 37.7637 37.2135C37.9445 36.5066 38.047 35.7948 37.9397 35.0618C37.857 34.4946 37.6094 34.0048 37.2763 33.5523C36.5984 32.6312 35.9205 31.71 35.232 30.7972C34.5725 29.923 33.9197 29.0425 33.2244 28.1973C32.8584 27.7525 32.4227 27.3598 31.9905 26.9754C31.5219 26.5582 30.9688 26.4789 30.3905 26.7288C30.0811 26.8628 29.7905 27.0378 29.4878 27.1882C28.9119 27.4744 28.3317 27.752 27.7597 28.0445C27.6664 28.0919 27.5832 28.1876 27.5305 28.2809C27.1974 28.8747 27.2467 29.4955 27.385 30.1343C27.4411 30.3925 27.3942 30.6729 27.3942 30.9543H27.0281C27.193 30.6221 27.1616 30.3117 27.1166 29.9771C27.0567 29.5342 27.1026 29.0773 27.1036 28.6262C27.104 28.368 27.0301 28.3162 26.7782 28.3883C26.0045 28.6083 25.2265 28.8133 24.4592 29.0521C24.2643 29.1131 24.0593 29.2436 23.9326 29.4012C23.6024 29.8108 23.4946 30.3161 23.4912 30.8291C23.4883 31.285 23.7591 31.5843 24.2232 31.6984C25.0003 31.8894 25.7555 31.8309 26.4774 31.4591C26.4779 31.6835 26.4798 31.6917 26.285 31.7376C25.6361 31.8904 24.9935 32.094 24.3103 31.9871C24.2474 31.9774 24.1739 32.034 24.0526 32.0799C24.1701 32.1718 24.2387 32.2342 24.3156 32.284C25.1298 32.8115 26.0422 33.0595 26.987 33.2114C27.6441 33.3168 28.3027 33.3482 28.954 33.1809C29.7673 32.972 30.3615 32.5214 30.5714 31.6641C30.5767 31.6428 30.5926 31.6245 30.6062 31.5998C30.815 32.4179 30.6081 33.106 29.9776 33.6736C30.2058 33.9647 30.5032 34.1378 30.8189 34.2814C31.7835 34.72 32.811 34.9129 33.8535 35.0347C34.0754 35.0608 34.1828 35.1319 34.2195 35.3519C34.2611 35.6019 34.3317 35.8465 34.4052 36.1579C33.8303 35.9374 33.3081 35.7556 32.8009 35.539C31.8749 35.143 30.9659 34.7127 30.1391 34.1257C30.0709 34.0774 29.9244 34.0861 29.8383 34.1233C28.9143 34.5212 28.1649 35.1512 27.5508 35.935C25.6931 38.3057 25.1298 40.9694 25.7845 43.9015C25.9944 44.8405 26.3038 45.7437 26.7143 46.6131C26.738 46.6633 26.7583 46.7151 26.7931 46.7968C26.239 46.9684 25.698 47.1357 25.1211 47.3142C25.1129 47.217 25.1018 47.1425 25.1018 47.068C25.0926 45.4889 25.066 43.9092 25.0858 42.3305C25.0936 41.6957 24.9916 41.0976 24.7541 40.5183C24.3968 39.6475 24.0245 38.7825 23.6686 37.9112C23.6019 37.7477 23.5831 37.5645 23.5424 37.3904C23.5676 37.3832 23.5932 37.3759 23.6184 37.3687C24.1459 37.8967 24.6729 38.4247 25.2348 38.9875C25.6661 37.5804 26.4271 36.4229 27.3951 35.3592C26.4624 35.3094 25.5336 35.2939 25.0689 34.2596C23.8026 34.7727 22.6832 35.5395 21.5823 36.3441C21.4749 35.9442 21.5774 35.6498 21.8995 35.4433C22.7853 34.8752 23.7504 34.4705 24.7237 34.0846C24.8122 34.0493 24.9011 34.0145 25.0114 33.9705C24.877 33.6291 24.9229 33.2003 24.4113 33.0953C24.2716 33.2162 24.1188 33.37 23.9452 33.4947C23.645 33.7104 23.337 33.9154 23.0231 34.1112C22.6634 34.3356 22.2766 34.3385 21.8835 34.206C21.1602 33.9623 20.5761 33.5107 20.0906 32.9387C19.9248 32.7433 19.7517 32.6785 19.5288 32.7104C18.9403 32.7955 18.3538 32.8932 17.7668 32.9875C17.6899 33.0001 17.6145 33.0228 17.5115 33.0475C17.4878 32.8294 17.4666 32.6336 17.4395 32.3855C18.2068 32.4194 18.9558 32.4527 19.7072 32.4861C19.5336 31.9876 19.3682 31.5017 19.1927 31.0191C19.1676 30.9495 19.0984 30.8915 19.0394 30.8392C18.6357 30.4809 18.2378 30.1149 17.819 29.775C17.6329 29.6237 17.5923 29.4636 17.6459 29.2591C18.0008 29.3964 18.3553 29.5337 18.7348 29.6807C18.7285 29.0797 18.2735 28.5947 18.5337 28.0165C18.6212 28.3622 18.6633 28.7282 18.8049 29.0507C19.2807 30.1318 19.7285 31.2333 20.3063 32.2598C21.0025 33.4962 21.8409 33.6722 23.0894 32.9962C23.2988 32.8831 23.497 32.7486 23.6875 32.6316C23.4641 32.3763 23.2649 32.136 23.0497 31.9107C23.0009 31.8599 22.8892 31.8275 22.8201 31.844C22.2897 31.9697 21.7621 32.1085 21.2346 32.2468C21.151 32.2685 21.0712 32.3072 20.9895 32.3377C20.9044 32.1718 21.0083 32.1138 21.1234 32.0553C21.6113 31.8068 22.0958 31.5524 22.5856 31.3082C22.7122 31.2454 22.7538 31.1791 22.7287 31.0293C22.66 30.6178 22.7732 30.2329 22.9453 29.8601C22.982 29.7803 23.013 29.6686 22.9864 29.5937C22.5919 28.4947 22.1702 27.4063 21.5716 26.3971C21.4706 26.2265 21.3492 26.0679 21.2322 25.8957C20.5867 26.2207 20.0645 26.65 19.6472 27.2085C19.6226 27.2017 19.5984 27.195 19.5737 27.1882C19.5926 27.0891 19.5848 26.9721 19.6351 26.8932C19.8827 26.5074 20.1452 26.1307 20.4034 25.7521C20.4474 25.6878 20.4968 25.6274 20.518 25.5229C20.2792 25.6298 20.0316 25.7212 19.8029 25.8464C17.776 26.9561 16.7132 28.6794 16.5832 30.9761C16.5556 31.4644 16.6499 31.9629 16.5928 32.4455C16.5527 32.7849 16.543 33.1142 16.56 33.4512C16.7186 36.5602 17.088 39.6446 17.6406 42.7072C17.863 43.9377 18.1488 45.1494 18.7527 46.2635C19.3092 47.2905 20.0403 48.1076 21.2535 48.3117C21.782 48.4006 22.324 48.419 22.8612 48.4422C23.1474 48.4548 23.4361 48.4098 23.7238 48.3905C23.7354 48.4151 23.7465 48.4398 23.7581 48.4644C23.628 48.5288 23.4994 48.6443 23.3669 48.6496C22.6271 48.6786 21.8864 48.6883 21.1461 48.6878C20.9822 48.6878 20.8739 48.7323 20.7801 48.8609C20.6027 49.1051 20.5132 49.3725 20.5306 49.6747C20.6167 51.1644 20.6969 53.5098 20.7801 54.9995L27.2641 56.9995C27.1345 55.7312 26.6471 51.6073 26.5209 50.3386C26.4764 49.8923 26.4324 49.446 26.3846 48.9634C26.6481 48.9634 26.8874 48.9654 27.1268 48.963C27.297 48.961 27.266 49.0867 27.2675 49.1844C27.2825 50.1751 27.2549 57.0088 27.2675 57.9995C27.2757 58.6619 33.8457 59.3371 33.8535 59.9995L33.6311 54.1439C33.4178 52.7934 33.1819 51.4458 32.9536 50.0973C32.8797 49.6597 32.7158 49.2569 32.3797 48.9538L32.3787 48.9567Z" fill="#FFE6D3"/>
</g>
</g>
<path d="M0.3 28C0.3 12.7017 12.7017 0.3 28 0.3C43.2983 0.3 55.7 12.7017 55.7 28C55.7 43.2983 43.2983 55.7 28 55.7C12.7017 55.7 0.3 43.2983 0.3 28Z" stroke="#7F7F7F" stroke-width="0.6"/>
<defs>
<clipPath id="clip0_1189_1565">
<path d="M0 28C0 12.536 12.536 0 28 0C43.464 0 56 12.536 56 28C56 43.464 43.464 56 28 56C12.536 56 0 43.464 0 28Z" fill="white"/>
</clipPath>
<clipPath id="clip1_1189_1565">
<rect width="23" height="50.2429" fill="white" transform="translate(16 6)"/>
</clipPath>
</defs>
</svg>
