<svg width="53" height="54" viewBox="0 0 53 54" fill="none" xmlns="http://www.w3.org/2000/svg">
<g clip-path="url(#clip0_2455_2660)">
<path d="M23.51 5.25C33.58 5.25 41.77 13.44 41.77 23.51C41.77 33.58 33.58 41.77 23.51 41.77C13.44 41.77 5.25 33.57 5.25 23.51C5.25 13.45 13.44 5.25 23.51 5.25ZM23.51 1.75C11.49 1.75 1.75 11.49 1.75 23.51C1.75 35.53 11.49 45.27 23.51 45.27C35.53 45.27 45.27 35.53 45.27 23.51C45.27 11.49 35.52 1.75 23.51 1.75Z" fill="url(#paint0_linear_2455_2660)"/>
<path d="M23.5095 16.7695C27.2295 16.7695 30.2495 19.7895 30.2495 23.5095C30.2495 27.2295 27.2295 30.2495 23.5095 30.2495C19.7895 30.2495 16.7695 27.2295 16.7695 23.5095C16.7695 19.7895 19.7895 16.7695 23.5095 16.7695ZM23.5095 13.7695C18.1295 13.7695 13.7695 18.1295 13.7695 23.5095C13.7695 28.8895 18.1295 33.2495 23.5095 33.2495C28.8895 33.2495 33.2495 28.8895 33.2495 23.5095C33.2495 18.1295 28.8895 13.7695 23.5095 13.7695Z" fill="url(#paint1_linear_2455_2660)"/>
<path d="M23.5098 21.8301C22.5898 21.8301 21.8398 22.5801 21.8398 23.5001C21.8398 24.4201 22.5898 25.1701 23.5098 25.1701C24.4298 25.1701 25.1798 24.4201 25.1798 23.5001C25.1798 22.5801 24.4298 21.8301 23.5098 21.8301Z" fill="white"/>
<path d="M23.5098 21.8301C22.5898 21.8301 21.8398 22.5801 21.8398 23.5001C21.8398 24.4201 22.5898 25.1701 23.5098 25.1701C24.4298 25.1701 25.1798 24.4201 25.1798 23.5001C25.1798 22.5801 24.4298 21.8301 23.5098 21.8301Z" fill="url(#paint2_linear_2455_2660)"/>
<path d="M34.4307 51.9896C33.1307 51.9896 31.9107 51.4296 31.0707 50.4496L24.6707 42.9696C23.9007 42.0696 23.5307 40.9296 23.6207 39.7396C23.7107 38.5596 24.2607 37.4796 25.1607 36.7096L25.3407 36.5496C26.1407 35.8696 27.1607 35.4896 28.2207 35.4896C29.5207 35.4896 30.7507 36.0496 31.5907 37.0396L31.6807 37.1496V24.4496C31.6807 22.6796 33.1207 21.2396 34.8807 21.2396C35.4607 21.2396 36.0007 21.3896 36.4607 21.6596C37.0207 20.6996 38.0507 20.0596 39.2307 20.0596C40.4107 20.0596 41.4107 20.6796 41.9807 21.6096C42.4307 21.3696 42.9407 21.2396 43.4807 21.2396C45.0707 21.2396 46.3907 22.3996 46.6407 23.9196C46.9507 23.8196 47.2807 23.7696 47.6207 23.7696C49.3907 23.7696 50.8307 25.2096 50.8307 26.9796V46.7196C50.8307 49.5796 48.5007 51.9196 45.6307 51.9196H35.1607C34.9207 51.9596 34.6707 51.9796 34.4207 51.9796L34.4307 51.9896Z" fill="white"/>
<path d="M39.2401 21.8303C40.0401 21.8303 40.6901 22.4803 40.6901 23.2803V33.7703L42.0301 33.8803V24.4603C42.0301 23.6603 42.6801 23.0103 43.4801 23.0103C44.2801 23.0103 44.9301 23.6603 44.9301 24.4603V34.1203L45.6301 34.1803C45.8101 34.1803 45.9901 34.2103 46.1701 34.2303V26.9903C46.1701 26.1903 46.8201 25.5403 47.6201 25.5403C48.4201 25.5403 49.0701 26.1903 49.0701 26.9903V46.7303C49.0701 48.6203 47.5201 50.1803 45.6201 50.1803H34.9801C34.7901 50.2203 34.6001 50.2403 34.4001 50.2403C33.6501 50.2403 32.9001 49.9303 32.3701 49.3203L25.9701 41.8403C25.0101 40.7203 25.1401 39.0203 26.2601 38.0603L26.4401 37.9103C26.9401 37.4803 27.5601 37.2703 28.1801 37.2703C28.9401 37.2703 29.6901 37.5903 30.2201 38.2103L33.3901 41.9203V24.4903C33.3901 23.6903 34.0401 23.0403 34.8401 23.0403C35.6401 23.0403 36.2901 23.6903 36.2901 24.4903V33.5403C36.4701 33.5103 36.6401 33.4903 36.8301 33.4903L37.7401 33.5603V23.3103C37.7401 22.5103 38.3901 21.8603 39.1901 21.8603M39.2401 18.3303C37.9601 18.3303 36.7901 18.8203 35.9101 19.6203C35.5801 19.5503 35.2301 19.5103 34.8801 19.5103C32.1501 19.5103 29.9301 21.7303 29.9301 24.4603V33.9903C29.3801 33.8303 28.8001 33.7503 28.2201 33.7503C26.7501 33.7503 25.3201 34.2803 24.2001 35.2303L24.0201 35.3803C21.4301 37.6003 21.1301 41.5103 23.3401 44.1003L29.7401 51.5803C30.9101 52.9503 32.6201 53.7303 34.4301 53.7303C34.7201 53.7303 35.0101 53.7103 35.3001 53.6703H45.6401C49.4701 53.6703 52.5901 50.5503 52.5901 46.7203V26.9803C52.5901 24.3103 50.4601 22.1203 47.8101 22.0303C46.9601 20.5203 45.3401 19.5003 43.4901 19.5003C43.1701 19.5003 42.8601 19.5303 42.5501 19.5903C41.6701 18.8003 40.5101 18.3203 39.2401 18.3203V18.3303Z" fill="url(#paint3_linear_2455_2660)"/>
<path d="M47.6297 25.5401C46.8297 25.5401 46.1797 26.1901 46.1797 26.9901V34.2301C45.9997 34.2001 45.8297 34.1801 45.6397 34.1801L44.9397 34.1201V24.4601C44.9397 23.6601 44.2897 23.0101 43.4897 23.0101C42.6897 23.0101 42.0397 23.6601 42.0397 24.4601V33.8801L40.6997 33.7701V23.2801C40.6997 22.4801 40.0497 21.8301 39.2497 21.8301C38.4497 21.8301 37.7997 22.4801 37.7997 23.2801V33.5301L36.8897 33.4601C36.7097 33.4601 36.5297 33.4901 36.3497 33.5101V24.4601C36.3497 23.6601 35.6997 23.0101 34.8997 23.0101C34.0997 23.0101 33.4497 23.6601 33.4497 24.4601V41.8901L30.2797 38.1801C29.3197 37.0601 27.6197 36.9301 26.4997 37.8901L26.3197 38.0401C25.1997 39.0001 25.0697 40.7001 26.0297 41.8201L32.4297 49.3001C33.0897 50.0701 34.0997 50.3601 35.0397 50.1601H45.6797C47.5697 50.1601 49.1297 48.6101 49.1297 46.7101V26.9701C49.1297 26.1701 48.4797 25.5201 47.6797 25.5201L47.6297 25.5401Z" fill="#0F0F0F"/>
</g>
<defs>
<linearGradient id="paint0_linear_2455_2660" x1="7.51547" y1="4.82043" x2="27.0919" y2="46.899" gradientUnits="userSpaceOnUse">
<stop stop-color="white"/>
<stop offset="1" stop-color="#5867FE"/>
</linearGradient>
<linearGradient id="paint1_linear_2455_2660" x1="16.3502" y1="15.1439" x2="25.1128" y2="33.9787" gradientUnits="userSpaceOnUse">
<stop stop-color="white"/>
<stop offset="1" stop-color="#5867FE"/>
</linearGradient>
<linearGradient id="paint2_linear_2455_2660" x1="22.2823" y1="22.0657" x2="23.7847" y2="25.2951" gradientUnits="userSpaceOnUse">
<stop stop-color="white"/>
<stop offset="1" stop-color="#5867FE"/>
</linearGradient>
<linearGradient id="paint3_linear_2455_2660" x1="25.9322" y1="20.8186" x2="43.2753" y2="53.1684" gradientUnits="userSpaceOnUse">
<stop stop-color="white"/>
<stop offset="1" stop-color="#5867FE"/>
</linearGradient>
<clipPath id="clip0_2455_2660">
<rect width="52.59" height="53.74" fill="white"/>
</clipPath>
</defs>
</svg>