<svg width="56" height="56" viewBox="0 0 56 56" fill="none" xmlns="http://www.w3.org/2000/svg">
<g clip-path="url(#clip0_1363_5872)">
<path fill-rule="evenodd" clip-rule="evenodd" d="M32.6312 55.1497H32.632C32.6846 55.4828 32.7358 55.816 32.7851 56.1495C32.8426 56.5417 33.0404 56.6978 33.3847 56.8269L33.3847 56.8267L33.3862 56.8273L33.3269 55.9809L33.272 55.1983L33.2703 55.1725L33.2687 55.1466C33.2335 54.6455 33.1987 54.1445 33.1638 53.6435L33.1635 53.6382L33.1632 53.6351C33.1106 52.8776 33.0579 52.1202 33.0042 51.3626L32.9972 51.2632L32.9901 51.1638C32.9582 50.7166 32.9258 50.2698 32.8925 49.8226C32.8898 49.7867 32.887 49.7509 32.8841 49.7151C32.857 49.3747 32.8304 49.0416 32.9761 48.7419C32.9897 48.7143 33.0042 48.6868 33.0211 48.6597C33.0414 48.6268 33.0641 48.5944 33.0888 48.562C33.1047 48.5417 33.1217 48.5209 33.14 48.5011L33.1571 48.4826C33.1744 48.4645 33.1927 48.4466 33.212 48.4288C33.217 48.4242 33.222 48.4194 33.2269 48.4146C33.2292 48.4123 33.2315 48.4099 33.2337 48.4076C33.2603 48.3807 33.2841 48.3506 33.3064 48.3188C33.3637 48.2352 33.4082 48.1371 33.452 48.0405C33.4696 48.0018 33.487 47.9634 33.5051 47.9262C33.5503 47.8335 33.5962 47.741 33.6421 47.6486L33.6424 47.6479L33.6424 47.6478C33.7795 47.3716 33.9165 47.0953 34.036 46.8122C34.0544 46.7687 34.0727 46.7251 34.0902 46.6811L34.2381 46.3079C35.0354 44.3013 35.827 42.2923 36.6088 40.2794C37.0681 39.0976 37.4874 37.9043 37.7896 36.6694C37.8099 36.5872 37.8292 36.5045 37.8485 36.4219C38.0637 35.4906 37.8519 34.7049 37.2383 34.0014L37.2369 34.0016L37.2364 34.001C37.1997 33.9589 37.1617 33.9178 37.1236 33.8768C37.0353 33.7814 36.9471 33.686 36.8762 33.5789C36.7978 33.4609 36.72 33.3144 36.7166 33.1785C36.7034 32.6162 36.6989 32.0533 36.6944 31.4904C36.686 30.4412 36.6776 29.392 36.6131 28.3463C36.4816 26.2086 36.2718 24.0753 36.0551 21.944C35.7752 19.1879 35.4686 16.4343 35.1471 13.6831C35.0437 12.7985 34.9124 11.9174 34.7272 11.0469C34.676 10.8061 34.6206 10.5662 34.5606 10.3272C34.4904 10.0477 34.4138 9.76952 34.3299 9.49291C34.1186 8.79665 33.8629 8.1144 33.3822 7.554C33.2324 7.37945 33.0167 7.20781 32.8011 7.15365C31.9206 6.9322 31.1305 7.17057 30.4381 7.74064C30.3867 7.78316 30.3452 7.84433 30.3128 7.90965C30.2934 7.94806 30.2772 7.98801 30.264 8.02653C30.2074 8.19189 30.1649 8.36451 30.1383 8.53761C30.122 8.6433 30.1018 8.74954 30.0816 8.85594L30.0816 8.85596C30.0277 9.13941 29.9737 9.42397 29.9937 9.7024C30.0484 10.4769 30.1252 11.2498 30.202 12.0228L30.202 12.0229V12.0229C30.2534 12.5403 30.3048 13.0576 30.3496 13.5754C30.5379 15.7565 30.72 17.9378 30.9022 20.1192L30.9023 20.1204L30.9028 20.1263C30.9604 20.816 31.018 21.5058 31.0758 22.1955C31.0862 22.3197 31.0925 22.4442 31.0995 22.5829C31.1031 22.6548 31.107 22.7305 31.1117 22.812C30.6022 22.1138 30.3518 21.8504 29.9024 21.6921C28.7061 21.2705 27.566 21.3338 26.5777 22.2143C26.3379 22.4282 26.1245 22.6719 25.9081 22.9188L25.9081 22.9188L25.9081 22.9188L25.9081 22.9188L25.9081 22.9188C25.8086 23.0324 25.7084 23.1467 25.6049 23.2592C25.2142 22.6296 24.6016 22.4033 23.8652 22.472C23.6021 22.4967 23.3362 22.5416 23.0833 22.6175C21.922 22.9657 21.0177 23.5813 20.5167 24.6078C20.3969 24.8526 20.3 25.1208 20.2281 25.4143C20.2161 25.4627 20.2052 25.5114 20.1947 25.5588L20.1947 25.5589C20.189 25.5845 20.1834 25.6097 20.1777 25.6343C19.2804 25.7048 19.1777 25.7383 18.6378 26.169C17.9401 26.7255 17.3527 27.3889 16.8077 28.0895C16.4447 28.5564 16.0801 29.0254 15.8118 29.5478C15.6769 29.81 15.5662 30.0856 15.492 30.381C15.2087 31.51 15.0617 32.6584 15.0723 33.8246C15.0745 34.0673 15.0737 34.31 15.0729 34.5528C15.0722 34.7855 15.0714 35.0182 15.0733 35.251C15.096 37.8959 15.2222 40.5335 15.6637 43.1464C15.9219 44.6743 16.2801 46.1761 16.9605 47.5807C17.2931 48.2673 17.693 48.9066 18.3501 49.3427C18.4067 49.3799 18.4473 49.4703 18.4584 49.5419C18.7456 51.4034 19.0227 53.2664 19.1184 55.1497H19.1208C19.1265 55.2623 19.1315 55.3749 19.1359 55.4876L19.1362 55.4993L19.1366 55.5165C19.1379 55.5743 19.1393 55.6414 19.1707 55.6694C19.3193 55.8032 19.4745 55.9295 19.6377 56.0623L19.638 56.0625L19.6381 56.0626L19.6381 56.0626L19.6382 56.0627C19.693 56.1073 19.7488 56.1527 19.8055 56.1993V56.1981L19.8075 56.1997C19.8075 56.1334 19.8081 56.0698 19.8089 56.0084L26.2641 57.9995C26.2642 58.471 26.2652 58.8254 26.2674 58.9995C26.2715 59.3307 27.916 59.6651 29.5604 59.9995C31.1962 60.3321 32.8321 60.6647 32.8532 60.9942L32.6312 55.1497ZM26.2643 57.2065C26.2641 57.4951 26.264 57.7621 26.2641 57.9995C26.2396 57.7603 26.2024 57.4194 26.1573 57.0153C26.1718 57.0419 26.1871 57.0684 26.2024 57.095C26.2237 57.1321 26.2451 57.1692 26.2643 57.2065Z" fill="#BFBFBF"/>
<g clip-path="url(#clip1_1363_5872)">
<path d="M38.2359 33.0018C38.1914 32.9506 38.145 32.9013 38.0985 32.851C38.0183 32.7644 37.9399 32.6764 37.8752 32.5797C37.7978 32.4627 37.7209 32.3181 37.7161 32.1837C37.7161 32.1823 37.7161 32.1808 37.7161 32.1794C37.7161 32.1774 37.7161 32.175 37.7161 32.1731C37.6784 30.5644 37.7117 28.9514 37.6126 27.3471C37.5633 26.5454 37.5028 25.7447 37.4352 24.944C37.3452 23.8764 37.2422 22.8102 37.1354 21.7441C37.1088 21.4776 37.0817 21.2112 37.0546 20.9448C36.7853 18.2956 36.4913 15.6488 36.1838 13.004C36.1712 12.8971 36.1591 12.7903 36.1471 12.6839C36.1437 12.6554 36.1403 12.6268 36.1369 12.5983C35.972 11.2116 35.7366 9.83404 35.3299 8.49325C35.1544 7.91448 34.9474 7.34537 34.6066 6.84783C34.5374 6.74678 34.4634 6.64862 34.3822 6.55434C34.3648 6.53403 34.3464 6.51372 34.3276 6.4939C34.1825 6.34159 33.9915 6.20185 33.8015 6.15447C33.5815 6.09935 33.3668 6.07275 33.1579 6.07275C32.6362 6.07275 32.1503 6.24053 31.7026 6.5437C31.6131 6.60414 31.5251 6.67038 31.4381 6.74194C31.4279 6.75016 31.4182 6.75935 31.4091 6.76902C31.3438 6.83671 31.2969 6.93438 31.2659 7.02383C31.2094 7.1892 31.1668 7.36181 31.1402 7.53491C31.0808 7.92221 30.9681 8.31676 30.9957 8.69971C31.087 9.99264 31.2398 11.2812 31.3515 12.5727C31.5996 15.4458 31.837 18.3193 32.0778 21.1929C32.0937 21.3834 32.1 21.5748 32.114 21.8166C31.603 21.116 31.352 20.852 30.9023 20.6934C30.4899 20.5483 30.0847 20.4603 29.6897 20.4439C29.4692 20.4347 29.2516 20.4478 29.0384 20.4855C28.9833 20.4951 28.9291 20.5063 28.8745 20.5193C28.8542 20.5241 28.8338 20.5295 28.8135 20.5348C28.7729 20.5454 28.7328 20.557 28.6927 20.5696C28.6588 20.5802 28.6254 20.5914 28.5921 20.603C28.5089 20.6325 28.4262 20.6658 28.345 20.7035C28.081 20.8268 27.8247 20.9956 27.5781 21.2151C27.2276 21.5274 26.9336 21.9036 26.6053 22.26C26.5081 22.1038 26.3974 21.9723 26.2746 21.864C26.2678 21.8582 26.261 21.8529 26.2543 21.8471C26.2074 21.8074 26.159 21.7711 26.1087 21.7378C25.763 21.5081 25.3404 21.4288 24.8656 21.4728C24.6026 21.4975 24.3366 21.5424 24.0838 21.6184C22.7367 22.0226 21.7353 22.786 21.3084 24.1341C21.2943 24.1791 21.2803 24.2245 21.2677 24.2709C21.2547 24.3174 21.2426 24.3643 21.231 24.4116C21.2257 24.4329 21.2208 24.4547 21.216 24.4759C21.2034 24.5306 21.1914 24.5843 21.1797 24.6355C20.2814 24.7061 20.1789 24.7395 19.6388 25.1703C18.9411 25.7268 18.3536 26.3902 17.8087 27.0908C17.2642 27.7905 16.7164 28.4959 16.4949 29.3783C16.2116 30.5074 16.0646 31.6557 16.0752 32.822C16.0796 33.2973 16.0723 33.7726 16.0762 34.2483C16.0989 36.8932 16.2251 39.5308 16.6666 42.1437C16.9248 43.6716 17.2831 45.1734 17.9634 46.578C18.296 47.2646 18.6959 47.9039 19.353 48.34C19.4096 48.3772 19.4502 48.4676 19.4613 48.5392C19.4802 48.661 19.499 48.7829 19.5174 48.9047C19.5203 48.9231 19.5232 48.9415 19.5256 48.9594C19.5406 49.0585 19.5556 49.1571 19.5711 49.2563C19.5788 49.307 19.5866 49.3583 19.5943 49.4095C19.6044 49.4772 19.6146 49.5449 19.6248 49.6121C19.6339 49.6726 19.6426 49.7325 19.6513 49.793C19.6601 49.8515 19.6688 49.91 19.677 49.9685C19.6866 50.0342 19.6958 50.0995 19.7055 50.1653C19.7132 50.2185 19.7205 50.2712 19.7282 50.3244C19.7379 50.393 19.7476 50.4622 19.7572 50.5308C19.764 50.5811 19.7713 50.6314 19.778 50.6817C19.7877 50.7523 19.7969 50.8229 19.8066 50.8935C19.8128 50.9418 19.8196 50.9902 19.8259 51.0385C19.8356 51.111 19.8448 51.1836 19.8539 51.2561C19.8597 51.302 19.8655 51.3484 19.8713 51.3944C19.8805 51.4688 19.8897 51.5433 19.8984 51.6178C19.9037 51.6622 19.9091 51.7067 19.9144 51.7512C19.9231 51.8271 19.9318 51.903 19.9405 51.9785C19.9453 52.0215 19.9502 52.0645 19.955 52.1076C19.9632 52.1849 19.9719 52.2618 19.9797 52.3392C19.984 52.3808 19.9879 52.4219 19.9922 52.4634C20 52.5422 20.0082 52.6211 20.0154 52.6999C20.0193 52.7395 20.0227 52.7787 20.0266 52.8183C20.0338 52.8991 20.0411 52.9803 20.0483 53.0611C20.0512 53.0978 20.0541 53.1346 20.0575 53.1713C20.0643 53.255 20.071 53.3386 20.0773 53.4227C20.0797 53.4551 20.0817 53.4875 20.0841 53.5194C20.0904 53.6079 20.0967 53.6964 20.102 53.7844C20.1034 53.8076 20.1049 53.8313 20.1059 53.8545C20.1117 53.9517 20.1175 54.0489 20.1223 54.1461C20.1281 54.2597 20.1334 54.3738 20.1378 54.4879C20.1402 54.5503 20.1358 54.6364 20.1726 54.6697C20.3713 54.8486 20.5816 55.014 20.8074 55.1997C20.8074 54.9178 20.8186 54.6857 20.8055 54.4546C20.7997 54.3521 20.7939 54.2491 20.7881 54.1466H33.6323C33.685 54.4807 33.7367 54.8153 33.7865 55.1499C33.8445 55.5415 34.0418 55.6977 34.3861 55.8273C34.3469 55.2707 34.3097 54.7345 34.272 54.1983C34.271 54.1809 34.2696 54.164 34.2686 54.1466C34.1801 52.8851 34.0936 51.624 34.0041 50.3625C33.9993 50.2963 33.9949 50.2301 33.9901 50.1638C33.9582 49.7166 33.9258 49.2698 33.8924 48.8225C33.8644 48.4449 33.8151 48.0731 33.9761 47.7419C33.9896 47.7143 34.0041 47.6868 34.021 47.6597C34.0413 47.6268 34.0641 47.5944 34.0887 47.562C34.1047 47.5417 34.1216 47.5209 34.14 47.5011C34.1632 47.4755 34.1883 47.4498 34.2159 47.4247C34.2497 47.3937 34.2792 47.3575 34.3063 47.3188C34.3866 47.2018 34.4417 47.0562 34.505 46.9262C34.6854 46.5563 34.8764 46.1903 35.0359 45.8122C35.0543 45.7686 35.0727 45.7251 35.0901 45.6811C35.1394 45.5569 35.1887 45.4321 35.238 45.3078C36.0354 43.3012 36.8269 41.2922 37.6087 39.2793C38.0681 38.0976 38.4873 36.9043 38.7895 35.6694C38.8098 35.5872 38.8291 35.5045 38.8485 35.4218C39.0636 34.4906 38.8519 33.7049 38.2383 33.0013L38.2359 33.0018Z" fill="#342315" stroke="#342315" stroke-width="0.145056" stroke-miterlimit="10"/>
<path d="M23.6176 37.371C24.1452 37.899 24.6722 38.4271 25.234 38.9899C25.6653 37.5828 26.4264 36.4253 27.3944 35.3615C26.4617 35.3117 25.5329 35.2963 25.0682 34.262C23.8019 34.775 22.6825 35.5419 21.5815 36.3465C21.4742 35.9466 21.5767 35.6521 21.8987 35.4457C22.7845 34.8775 23.7496 34.4728 24.723 34.087C24.8114 34.0517 24.9004 34.0169 25.0107 33.9729C24.8762 33.6315 24.9217 33.2026 24.4106 33.0977C24.2709 33.2186 24.1181 33.3724 23.9445 33.4971C23.6442 33.7127 23.3362 33.9178 23.0224 34.1136C22.6627 34.3379 22.2759 34.3408 21.8828 34.2084C21.1594 33.9647 20.5753 33.5131 20.0899 32.9411C19.924 32.7457 19.7509 32.6809 19.528 32.7128C18.9396 32.7979 18.3531 32.8956 17.7661 32.9899C17.6892 33.0025 17.6138 33.0252 17.5108 33.0498C17.4871 32.8318 17.4658 32.636 17.4388 32.3879C18.2061 32.4218 18.9551 32.4551 19.7065 32.4885C19.5329 31.99 19.3675 31.504 19.192 31.0215C19.1669 30.9519 19.0977 30.8938 19.0387 30.8416C18.635 30.4833 18.237 30.1173 17.8183 29.7774C17.6322 29.626 17.5916 29.466 17.6452 29.2615C18.0001 29.3988 18.3545 29.5361 18.7341 29.6831C18.7278 29.0821 18.2728 28.5971 18.533 28.0188C18.6205 28.3645 18.6625 28.7306 18.8042 29.0531C19.28 30.1342 19.7277 31.2357 20.3055 32.2622C21.0018 33.4986 21.8402 33.6745 23.0887 32.9986C23.298 32.8854 23.4963 32.751 23.6868 32.634C23.4634 32.3787 23.2642 32.1384 23.049 31.9131C23.0002 31.8623 22.8885 31.8299 22.8193 31.8464C22.2889 31.9721 21.7614 32.1109 21.2339 32.2491C21.1502 32.2709 21.0705 32.3096 20.9887 32.34C20.9037 32.1742 21.0076 32.1162 21.1227 32.0577C21.6106 31.8091 22.095 31.5548 22.5848 31.3106C22.7115 31.2478 22.7531 31.1815 22.728 31.0316C22.6593 30.6202 22.7724 30.2353 22.9446 29.8625C22.9813 29.7827 23.0123 29.671 22.9857 29.5961C22.5911 28.497 22.1695 27.4086 21.5709 26.3995C21.4699 26.2288 21.3485 26.0698 21.2315 25.8981C20.586 26.223 20.0638 26.6524 19.6465 27.2109C19.6218 27.2041 19.5977 27.1973 19.573 27.1906C19.5919 27.0914 19.5841 26.9744 19.6344 26.8956C19.882 26.5098 20.1445 26.1331 20.4027 25.7545C20.4467 25.6902 20.496 25.6298 20.5173 25.5253C20.2785 25.6322 20.0314 25.7236 19.8022 25.8488C17.7753 26.9585 16.7125 28.6817 16.5824 30.9785C16.5549 31.4668 16.6492 31.9653 16.5921 32.4479C16.552 32.7873 16.5423 33.1166 16.5592 33.4536C16.7178 36.5626 17.0872 39.647 17.6399 42.7096C17.8623 43.9401 18.1481 45.1518 18.752 46.2659C19.3085 47.2928 20.0396 48.11 21.2528 48.314C21.7812 48.403 22.3233 48.4214 22.8604 48.4446C23.1467 48.4572 23.4354 48.4122 23.723 48.3928C23.7346 48.4175 23.7458 48.4422 23.7574 48.4668C23.6273 48.5311 23.4987 48.6467 23.3662 48.652C22.6264 48.681 21.8857 48.6907 21.1454 48.6902C20.9815 48.6902 20.8732 48.7347 20.7794 48.8633C20.6019 49.1075 20.5125 49.3749 20.5299 49.6771C20.6218 51.2693 20.7151 52.862 20.8036 54.4542C20.8161 54.6854 20.8055 54.9174 20.8055 55.1993C20.5797 55.0137 20.3694 54.8483 20.1706 54.6694C20.1339 54.6365 20.1382 54.55 20.1358 54.4876C20.0585 52.4878 19.765 50.5121 19.4603 48.5379C19.4492 48.4663 19.4086 48.3759 19.352 48.3387C18.6949 47.903 18.2951 47.2638 17.9624 46.5768C17.2821 45.1721 16.9233 43.6703 16.6656 42.1424C16.2242 39.5295 16.0984 36.8919 16.0752 34.247C16.0709 33.7717 16.0786 33.2964 16.0743 32.8207C16.0636 31.6539 16.2106 30.5061 16.494 29.377C16.7154 28.4946 17.2632 27.7896 17.8077 27.0895C18.3526 26.3889 18.9401 25.7255 19.6378 25.169C20.1779 24.7382 20.2804 24.7048 21.1788 24.6342C21.1952 24.5626 21.2112 24.4862 21.23 24.4103C21.6028 22.8887 22.6463 22.0483 24.0833 21.6175C24.3361 21.5416 24.6021 21.4967 24.8651 21.472C25.6015 21.4033 26.2141 21.6296 26.6048 22.2592C26.9336 21.9023 27.2276 21.5266 27.5777 21.2143C28.566 20.3338 29.7061 20.2705 30.9023 20.6921C31.3525 20.8507 31.6029 21.1147 32.114 21.8153C32.1 21.5735 32.0937 21.3821 32.0778 21.1916C31.837 18.318 31.5996 15.4445 31.3515 12.5714C31.2398 11.2799 31.087 9.99134 30.9956 8.69841C30.9686 8.31546 31.0812 7.92091 31.1402 7.53361C31.1668 7.36051 31.2089 7.1879 31.2659 7.02253C31.3012 6.92003 31.3573 6.80737 31.4381 6.74064C32.1305 6.17057 32.9205 5.9322 33.801 6.15365C34.0167 6.20781 34.2323 6.37945 34.3822 6.554C34.8628 7.1144 35.1186 7.79665 35.3299 8.49291C35.7448 9.86127 35.9817 11.2678 36.147 12.6831C36.4686 15.4343 36.7751 18.1879 37.0551 20.944C37.2717 23.0753 37.4816 25.2086 37.6131 27.3463C37.7122 28.953 37.6788 30.5679 37.7166 32.1785C37.7199 32.3144 37.7978 32.4609 37.8761 32.5789C37.9776 32.7322 38.1145 32.8613 38.2363 33.001C38.8499 33.7045 39.0612 34.4902 38.8465 35.4215C38.5409 36.7444 38.0966 38.0185 37.6068 39.279C36.7761 41.4166 35.9353 43.5499 35.0877 45.6808C34.9184 46.1063 34.7037 46.5139 34.5026 46.9259C34.418 47.099 34.3488 47.3001 34.2135 47.4248C33.7778 47.8262 33.8528 48.3189 33.8905 48.8222C34.0234 50.6136 34.1448 52.4061 34.2705 54.198C34.3082 54.7342 34.3455 55.2704 34.3846 55.8269C34.0404 55.6978 33.8426 55.5417 33.7851 55.1495C33.5356 53.4621 33.2382 51.7818 32.9534 50.0997C32.8794 49.6621 32.7155 49.2593 32.3795 48.9562C32.3084 48.8918 32.1643 48.8623 32.0666 48.8817C31.7514 48.9436 31.44 49.0277 31.1315 49.1196C30.8965 49.1897 30.7452 49.1355 30.6809 48.8885C30.6654 48.828 30.6374 48.7714 30.6083 48.6965C30.7839 48.6129 30.9507 48.5365 31.1151 48.4543C31.3815 48.3208 31.644 48.1796 31.9109 48.0486C33.0888 47.4703 33.9171 46.5869 34.4136 45.3568C35.1094 43.6336 35.8507 41.9282 36.5895 40.2224C37.0179 39.2331 37.4951 38.2641 37.7644 37.2129C37.9453 36.506 38.0478 35.7943 37.9404 35.0613C37.8577 34.4941 37.6102 34.0043 37.277 33.5517C36.5991 32.6306 35.9212 31.7095 35.2327 30.7966C34.5732 29.9224 33.9204 29.042 33.2251 28.1968C32.8591 27.7519 32.4235 27.3593 31.9912 26.9749C31.5222 26.5576 30.9695 26.4783 30.3912 26.7283C30.0818 26.8623 29.7912 27.0373 29.4885 27.1877C28.9126 27.4739 28.3324 27.7514 27.7604 28.044C27.6671 28.0914 27.5839 28.1871 27.5312 28.2804C27.1981 28.8742 27.2474 29.495 27.3857 30.1337C27.4418 30.3919 27.3949 30.6724 27.3949 30.9538H27.0289C27.1937 30.6216 27.1623 30.3112 27.1173 29.9766C27.0574 29.5337 27.1033 29.0768 27.1043 28.6257C27.1048 28.3675 27.0308 28.3157 26.7789 28.3878C26.0053 28.6078 25.2273 28.8128 24.4599 29.0516C24.2651 29.1126 24.0601 29.2431 23.9334 29.4007C23.6031 29.8103 23.4953 30.3155 23.4919 30.8286C23.489 31.2845 23.7598 31.5838 24.224 31.6979C25.001 31.8889 25.7562 31.8304 26.4781 31.4586C26.4786 31.6829 26.4806 31.6912 26.2857 31.7371C25.6368 31.8899 24.9942 32.0934 24.311 31.9866C24.2481 31.9769 24.1747 32.0335 24.0533 32.0794C24.1708 32.1713 24.2399 32.2337 24.3168 32.2835C25.1311 32.811 26.0434 33.059 26.9882 33.2109C27.6453 33.3163 28.3039 33.3477 28.9552 33.1804C29.7685 32.9715 30.3627 32.5209 30.5726 31.6636C30.5779 31.6423 30.5938 31.6239 30.6074 31.5993C30.8163 32.4174 30.6093 33.1054 29.9788 33.6731C30.207 33.9642 30.5044 34.1373 30.8201 34.2809C31.7847 34.7194 32.8122 34.9124 33.8547 35.0342C34.0766 35.0603 34.184 35.1314 34.2207 35.3514C34.2623 35.6014 34.3329 35.846 34.4064 36.1574C33.8315 35.9369 33.3093 35.7551 32.8021 35.5385C31.8761 35.1425 30.9671 34.7122 30.1403 34.1252C30.0721 34.0768 29.9256 34.0855 29.8396 34.1228C28.9156 34.5207 28.1661 35.1507 27.552 35.9345C25.6944 38.3052 25.1311 40.9689 25.7857 43.901C25.9956 44.84 26.305 45.7432 26.7155 46.6125C26.7392 46.6628 26.7595 46.7146 26.7944 46.7963C26.2402 46.9679 25.6992 47.1352 25.1228 47.3136C25.1146 47.2164 25.1035 47.142 25.1035 47.0675C25.0943 45.4884 25.0677 43.9087 25.0875 42.33C25.0953 41.6952 24.9932 41.097 24.7558 40.5178C24.3985 39.647 24.0262 38.782 23.6703 37.9107C23.6036 37.7472 23.5848 37.564 23.5441 37.3899C23.5693 37.3827 23.5949 37.3754 23.6201 37.3681L23.6176 37.371ZM36.3226 30.7067C36.4217 30.4451 36.5372 30.2445 36.5701 30.0308C36.6567 29.467 36.7645 28.8979 36.7606 28.3312C36.7524 27.149 36.705 25.9648 36.6233 24.7851C36.4981 22.9777 36.3395 21.1727 36.177 19.3687C36.015 17.5729 35.8502 15.7766 35.6505 13.9842C35.5064 12.6889 35.3285 11.3964 35.1196 10.1103C34.989 9.30571 34.7289 8.52869 34.2579 7.8479C33.5327 6.79963 32.6933 6.74693 31.7238 7.4635C31.631 7.53216 31.543 7.66513 31.5324 7.77586C31.4975 8.13511 31.468 8.50065 31.4942 8.85942C31.5686 9.87916 31.6711 10.897 31.7635 11.9153C31.7847 12.1493 31.8109 12.3833 31.8355 12.6246C32.13 12.5946 32.3853 12.5559 32.6415 12.5453C33.3973 12.5148 34.1535 12.4906 34.9097 12.4766C35.049 12.4742 35.1892 12.5313 35.3289 12.5612C35.3236 12.5695 35.3183 12.5772 35.313 12.5854C34.1666 12.6463 33.0201 12.7073 31.8626 12.7687C31.8626 12.9045 31.8553 13.007 31.8636 13.1086C32.0014 14.7777 32.1445 16.4468 32.2765 18.1164C32.2905 18.2967 32.3393 18.3596 32.5269 18.3717C33.3784 18.4278 34.2284 18.5042 35.0799 18.567C35.2907 18.5825 35.4672 18.6366 35.5702 18.8508C35.5398 18.8586 35.5175 18.8707 35.4972 18.8682C34.7308 18.7836 33.9625 18.7106 33.1986 18.6052C32.8393 18.5554 32.5685 18.6453 32.4641 18.979C32.4012 19.1792 32.3882 19.4059 32.4017 19.6177C32.452 20.4054 32.51 21.1925 32.5903 21.9773C32.6377 22.4381 32.7353 22.894 32.8035 23.3529C32.8267 23.51 32.9191 23.5598 33.0622 23.5816C33.993 23.7228 34.9218 23.8799 35.855 24.008C36.1176 24.0443 36.2133 24.17 36.2394 24.4132C36.1649 24.4132 36.1006 24.4229 36.0402 24.4118C35.3038 24.2783 34.5708 24.126 33.831 24.0163C33.6149 23.9844 33.3775 24.0583 33.1575 24.113C33.1048 24.126 33.0448 24.2604 33.0506 24.3339C33.1139 25.1197 33.1865 25.9044 33.2658 26.6887C33.2754 26.783 33.3204 26.8879 33.3813 26.9604C33.9113 27.5871 34.4688 28.1915 34.9779 28.8345C35.4368 29.4143 35.8439 30.0346 36.3235 30.7062L36.3226 30.7067ZM21.6802 24.8034C22.3436 25.0689 22.6221 25.6365 22.8193 26.2859C23.0906 27.178 23.3967 28.0595 23.6926 28.9588C24.6707 28.338 25.8109 28.1794 26.849 27.7582C26.849 27.7108 26.8543 27.678 26.848 27.6475C26.6087 26.4561 26.3858 25.2608 26.1184 24.0757C26.028 23.6749 25.8273 23.2978 25.6711 22.9124C25.5981 22.732 25.455 22.7074 25.2751 22.7422C24.5034 22.8897 23.7284 23.0241 23.0543 23.4713C23.6302 22.7847 24.442 22.6315 25.3153 22.5096C24.8994 22.1687 24.4739 22.0314 23.987 22.133C22.948 22.3501 21.8272 23.6425 21.6797 24.8034H21.6802ZM28.6114 22.2601C29.4706 21.6799 30.3893 21.7002 31.351 22.0193C31.0875 21.7964 30.8245 21.5818 30.53 21.427C29.8328 21.0615 29.166 21.134 28.551 21.6364C28.1811 21.9386 27.9069 22.3177 27.7203 22.749C27.4171 23.4491 27.1014 24.1512 27.2634 24.9528C27.3412 25.3392 27.3954 25.7299 27.4664 26.1176C27.5424 26.5315 27.6255 26.9445 27.7116 27.3903C27.9219 27.2583 28.097 27.1461 28.2744 27.0383C28.8377 26.6959 29.3923 26.3376 29.9691 26.019C30.4149 25.7724 30.911 25.6675 31.4173 25.7758C31.7349 25.844 32.0381 25.9803 32.3867 26.0993C32.4404 25.9813 32.5347 25.8507 32.5584 25.7086C32.7373 24.6511 32.5613 23.6599 31.9607 22.7586C31.9308 22.7137 31.8868 22.6682 31.8384 22.6479C30.8027 22.2074 29.7549 21.8646 28.6114 22.2606V22.2601ZM25.8486 33.7451C26.3471 34.5894 28.0505 34.8529 28.7096 34.1968C27.7208 34.2944 26.7982 34.0725 25.8486 33.7451Z" fill="#342315"/>
<path d="M26.3833 48.9667C26.6468 48.9667 26.8862 48.9686 27.1255 48.9662C27.2957 48.9643 27.2647 49.09 27.2662 49.1877C27.2812 50.1784 27.2938 51.1691 27.3063 52.1598C27.3194 53.2149 27.332 54.2704 27.3436 55.3254C27.3469 55.6223 27.3436 55.9197 27.3436 56.2166L27.2822 56.2427C27.2087 56.0865 27.0863 55.9352 27.0689 55.7732C26.8765 53.9639 26.7 52.1526 26.5192 50.3418C26.4747 49.8955 26.4307 49.4492 26.3828 48.9667H26.3833Z" fill="#342315"/>
<path d="M36.3223 30.7057C35.8426 30.0341 35.4355 29.4137 34.9766 28.834C34.468 28.1909 33.91 27.5865 33.3801 26.9599C33.3187 26.8874 33.2737 26.7824 33.2645 26.6881C33.1852 25.9039 33.1122 25.1191 33.0493 24.3334C33.0435 24.2599 33.1035 24.1255 33.1562 24.1124C33.3762 24.0573 33.6136 23.9833 33.8297 24.0157C34.5695 24.1255 35.3025 24.2778 36.0389 24.4113C36.0994 24.4224 36.1637 24.4127 36.2381 24.4127C36.212 24.1695 36.1163 24.0433 35.8537 24.0075C34.921 23.8794 33.9922 23.7222 33.0609 23.5811C32.9178 23.5593 32.826 23.5095 32.8023 23.3524C32.7341 22.8935 32.6359 22.4375 32.589 21.9767C32.5088 21.192 32.4507 20.4043 32.4005 19.6172C32.3869 19.4054 32.4005 19.1786 32.4628 18.9784C32.5678 18.6448 32.8385 18.5554 33.1973 18.6047C33.9608 18.7101 34.7291 18.7826 35.4959 18.8677C35.5162 18.8701 35.5385 18.8581 35.569 18.8503C35.466 18.6361 35.2895 18.5824 35.0787 18.5665C34.2277 18.5036 33.3776 18.4268 32.5257 18.3711C32.3381 18.3591 32.2897 18.2957 32.2752 18.1159C32.1432 16.4463 32.0006 14.7772 31.8623 13.1081C31.8541 13.0065 31.8613 12.904 31.8613 12.7681C33.0189 12.7067 34.1653 12.6458 35.3117 12.5849C35.317 12.5767 35.3224 12.5689 35.3277 12.5607C35.1879 12.5312 35.0477 12.4737 34.9085 12.4761C34.1522 12.4901 33.396 12.5143 32.6403 12.5448C32.384 12.5549 32.1287 12.5941 31.8343 12.624C31.8096 12.3823 31.7835 12.1488 31.7622 11.9147C31.6694 10.8964 31.5669 9.87863 31.4929 8.85889C31.4668 8.50012 31.4963 8.13458 31.5311 7.77533C31.5417 7.6646 31.6297 7.53163 31.7226 7.46297C32.692 6.7464 33.5314 6.7991 34.2567 7.84737C34.7281 8.52817 34.9878 9.30518 35.1183 10.1098C35.3272 11.3959 35.5051 12.6884 35.6492 13.9837C35.8484 15.7756 36.0138 17.5719 36.1758 19.3682C36.3382 21.1727 36.4968 22.9776 36.6221 24.7845C36.7038 25.9643 36.7512 27.1485 36.7594 28.3307C36.7632 28.8969 36.6559 29.4664 36.5689 30.0302C36.536 30.2439 36.4199 30.4446 36.3213 30.7062L36.3223 30.7057Z" fill="#FFE6D3"/>
<path d="M21.6802 24.8033C21.8276 23.6424 22.9484 22.3499 23.9875 22.1328C24.4744 22.0308 24.8999 22.1681 25.3157 22.5095C24.4425 22.6313 23.6307 22.7846 23.0548 23.4712C23.7284 23.0239 24.5034 22.89 25.2756 22.7421C25.4555 22.7077 25.5986 22.7324 25.6716 22.9123C25.8283 23.2976 26.0285 23.6743 26.1189 24.0756C26.3863 25.2607 26.6092 26.456 26.8485 27.6473C26.8548 27.6778 26.8495 27.7107 26.8495 27.7581C25.8114 28.1787 24.6712 28.3378 23.6931 28.9586C23.3976 28.0593 23.0911 27.1779 22.8198 26.2858C22.6226 25.6369 22.344 25.0692 21.6807 24.8033H21.6802Z" fill="#FFE6D3"/>
<path d="M28.6116 22.2595C29.7546 21.8635 30.8029 22.2063 31.8386 22.6468C31.8869 22.6671 31.9309 22.7125 31.9609 22.7575C32.5614 23.6593 32.7374 24.65 32.5585 25.7075C32.5343 25.8496 32.4405 25.9797 32.3869 26.0981C32.0387 25.9792 31.7356 25.8428 31.4174 25.7747C30.9112 25.6659 30.4151 25.7713 29.9693 26.0179C29.3929 26.337 28.8378 26.6948 28.2745 27.0371C28.0971 27.145 27.9221 27.2576 27.7117 27.3891C27.6257 26.9433 27.5425 26.5304 27.4666 26.1165C27.3955 25.7287 27.3414 25.338 27.2635 24.9517C27.102 24.1505 27.4173 23.448 27.7204 22.7478C27.9071 22.3165 28.1807 21.9375 28.5511 21.6353C29.1662 21.1329 29.8329 21.0604 30.5302 21.4259C30.8246 21.5801 31.0877 21.7948 31.3512 22.0182C30.3895 21.6991 29.4708 21.6797 28.6116 22.2595Z" fill="#FFE6D3"/>
<path d="M25.8486 33.7446C26.7987 34.072 27.7213 34.2939 28.7096 34.1962C28.0506 34.8524 26.3471 34.5889 25.8486 33.7446Z" fill="#FFE6D3"/>
<path d="M32.379 48.9567C32.3079 48.8924 32.1638 48.8629 32.0662 48.8822C31.7509 48.9441 31.4395 49.0282 31.131 49.1201C30.896 49.1902 30.7447 49.1361 30.6804 48.889C30.6649 48.8285 30.6364 48.772 30.6079 48.697C30.7834 48.6134 30.9502 48.537 31.1146 48.4548C31.381 48.3213 31.6436 48.1801 31.9105 48.0491C33.0883 47.4708 33.9166 46.5874 34.4132 45.3574C35.1089 43.6341 35.8502 41.9287 36.589 40.2229C37.0174 39.2336 37.4946 38.2646 37.7639 37.2135C37.9448 36.5066 38.0473 35.7948 37.9399 35.0618C37.8573 34.4946 37.6097 34.0048 37.2765 33.5523C36.5987 32.6312 35.9208 31.71 35.2322 30.7972C34.5727 29.923 33.92 29.0425 33.2247 28.1973C32.8586 27.7525 32.423 27.3598 31.9907 26.9754C31.5222 26.5582 30.9691 26.4789 30.3908 26.7288C30.0813 26.8628 29.7907 27.0378 29.488 27.1882C28.9122 27.4744 28.3319 27.752 27.7599 28.0445C27.6666 28.0919 27.5835 28.1876 27.5308 28.2809C27.1976 28.8747 27.2469 29.4955 27.3852 30.1343C27.4413 30.3925 27.3944 30.6729 27.3944 30.9543H27.0284C27.1933 30.6221 27.1618 30.3117 27.1169 29.9771C27.0569 29.5342 27.1028 29.0773 27.1038 28.6262C27.1043 28.368 27.0303 28.3162 26.7784 28.3883C26.0048 28.6083 25.2268 28.8133 24.4594 29.0521C24.2646 29.1131 24.0596 29.2436 23.9329 29.4012C23.6026 29.8108 23.4948 30.3161 23.4914 30.8291C23.4885 31.285 23.7593 31.5843 24.2235 31.6984C25.0005 31.8894 25.7558 31.8309 26.4776 31.4591C26.4781 31.6835 26.4801 31.6917 26.2852 31.7376C25.6363 31.8904 24.9937 32.094 24.3105 31.9871C24.2477 31.9774 24.1742 32.034 24.0528 32.0799C24.1703 32.1718 24.239 32.2342 24.3158 32.284C25.1301 32.8115 26.0425 33.0595 26.9873 33.2114C27.6444 33.3168 28.3029 33.3482 28.9542 33.1809C29.7675 32.972 30.3617 32.5214 30.5716 31.6641C30.5769 31.6428 30.5929 31.6245 30.6064 31.5998C30.8153 32.4179 30.6083 33.106 29.9778 33.6736C30.2061 33.9647 30.5034 34.1378 30.8192 34.2814C31.7838 34.72 32.8113 34.9129 33.8537 35.0347C34.0757 35.0608 34.183 35.1319 34.2197 35.3519C34.2613 35.6019 34.3319 35.8465 34.4054 36.1579C33.8305 35.9374 33.3083 35.7556 32.8011 35.539C31.8752 35.143 30.9661 34.7127 30.1393 34.1257C30.0712 34.0774 29.9247 34.0861 29.8386 34.1233C28.9146 34.5212 28.1651 35.1512 27.5511 35.935C25.6934 38.3057 25.1301 40.9694 25.7848 43.9015C25.9946 44.8405 26.3041 45.7437 26.7146 46.6131C26.7383 46.6633 26.7586 46.7151 26.7934 46.7968C26.2393 46.9684 25.6982 47.1357 25.1214 47.3142C25.1132 47.217 25.102 47.1425 25.102 47.068C25.0929 45.4889 25.0663 43.9092 25.0861 42.3305C25.0938 41.6957 24.9918 41.0976 24.7544 40.5183C24.3971 39.6475 24.0248 38.7825 23.6689 37.9112C23.6022 37.7477 23.5833 37.5645 23.5427 37.3904C23.5678 37.3832 23.5935 37.3759 23.6186 37.3687C24.1461 37.8967 24.6732 38.4247 25.235 38.9875C25.6663 37.5804 26.4274 36.4229 27.3954 35.3592C26.4627 35.3094 25.5338 35.2939 25.0692 34.2596C23.8028 34.7727 22.6835 35.5395 21.5825 36.3441C21.4752 35.9442 21.5777 35.6498 21.8997 35.4433C22.7855 34.8752 23.7506 34.4705 24.7239 34.0846C24.8124 34.0493 24.9014 34.0145 25.0116 33.9705C24.8772 33.6291 24.9231 33.2003 24.4116 33.0953C24.2718 33.2162 24.119 33.37 23.9455 33.4947C23.6452 33.7104 23.3372 33.9154 23.0234 34.1112C22.6637 34.3356 22.2768 34.3385 21.8837 34.206C21.1604 33.9623 20.5763 33.5107 20.0909 32.9387C19.925 32.7433 19.7519 32.6785 19.529 32.7104C18.9406 32.7955 18.3541 32.8932 17.7671 32.9875C17.6902 33.0001 17.6148 33.0228 17.5118 33.0475C17.4881 32.8294 17.4668 32.6336 17.4397 32.3855C18.2071 32.4194 18.956 32.4527 19.7074 32.4861C19.5338 31.9876 19.3685 31.5017 19.193 31.0191C19.1678 30.9495 19.0987 30.8915 19.0397 30.8392C18.6359 30.4809 18.238 30.1149 17.8193 29.775C17.6331 29.6237 17.5925 29.4636 17.6462 29.2591C18.0011 29.3964 18.3555 29.5337 18.7351 29.6807C18.7288 29.0797 18.2738 28.5947 18.5339 28.0165C18.6214 28.3622 18.6635 28.7282 18.8052 29.0507C19.281 30.1318 19.7287 31.2333 20.3065 32.2598C21.0028 33.4962 21.8412 33.6722 23.0896 32.9962C23.299 32.8831 23.4972 32.7486 23.6877 32.6316C23.4644 32.3763 23.2652 32.136 23.05 31.9107C23.0012 31.8599 22.8895 31.8275 22.8203 31.844C22.2899 31.9697 21.7624 32.1085 21.2349 32.2468C21.1512 32.2685 21.0714 32.3072 20.9897 32.3377C20.9046 32.1718 21.0086 32.1138 21.1236 32.0553C21.6115 31.8068 22.096 31.5524 22.5858 31.3082C22.7125 31.2454 22.7541 31.1791 22.7289 31.0293C22.6603 30.6178 22.7734 30.2329 22.9455 29.8601C22.9823 29.7803 23.0132 29.6686 22.9866 29.5937C22.5921 28.4947 22.1705 27.4063 21.5719 26.3971C21.4708 26.2265 21.3495 26.0679 21.2324 25.8957C20.5869 26.2207 20.0647 26.65 19.6475 27.2085C19.6228 27.2017 19.5986 27.195 19.574 27.1882C19.5928 27.0891 19.5851 26.9721 19.6354 26.8932C19.8829 26.5074 20.1455 26.1307 20.4037 25.7521C20.4477 25.6878 20.497 25.6274 20.5183 25.5229C20.2794 25.6298 20.0319 25.7212 19.8032 25.8464C17.7763 26.9561 16.7135 28.6794 16.5834 30.9761C16.5559 31.4644 16.6501 31.9629 16.5931 32.4455C16.5529 32.7849 16.5433 33.1142 16.5602 33.4512C16.7188 36.5602 17.0882 39.6446 17.6409 42.7072C17.8633 43.9377 18.149 45.1494 18.753 46.2635C19.3095 47.2905 20.0406 48.1076 21.2537 48.3117C21.7822 48.4006 22.3242 48.419 22.8614 48.4422C23.1477 48.4548 23.4363 48.4098 23.724 48.3905C23.7356 48.4151 23.7467 48.4398 23.7583 48.4644C23.6283 48.5288 23.4997 48.6443 23.3672 48.6496C22.6274 48.6786 21.8866 48.6883 21.1464 48.6878C20.9825 48.6878 20.8742 48.7323 20.7804 48.8609C20.6029 49.1051 20.5134 49.3725 20.5309 49.6747C20.6169 51.1644 20.6972 53.5098 20.7804 54.9995L27.2644 56.9995C27.1348 55.7312 26.6474 51.6073 26.5212 50.3386C26.4767 49.8923 26.4327 49.446 26.3848 48.9634C26.6483 48.9634 26.8877 48.9654 27.127 48.963C27.2972 48.961 27.2663 49.0867 27.2677 49.1844C27.2827 50.1751 27.2551 57.0088 27.2677 57.9995C27.2759 58.6619 33.846 59.3371 33.8537 59.9995L33.6313 54.1439C33.4181 52.7934 33.1821 51.4458 32.9539 50.0973C32.8799 49.6597 32.716 49.2569 32.38 48.9538L32.379 48.9567Z" fill="#FFE6D3"/>
</g>
</g>
<defs>
<clipPath id="clip0_1363_5872">
<path d="M0 28C0 12.536 12.536 0 28 0C43.464 0 56 12.536 56 28C56 43.464 43.464 56 28 56C12.536 56 0 43.464 0 28Z" fill="white"/>
</clipPath>
<clipPath id="clip1_1363_5872">
<rect width="23" height="50.2429" fill="white" transform="translate(16 6)"/>
</clipPath>
</defs>
</svg>
