<svg width="48" height="49" viewBox="0 0 48 49" fill="none" xmlns="http://www.w3.org/2000/svg">
<g clip-path="url(#clip0_2538_2700)">
<path d="M47.6003 9.62C47.3403 8.09 46.6603 6.85 45.5903 5.95C45.5903 5.6 45.5903 5.25 45.5903 4.9C45.5903 4.4 45.5903 3.9 45.5903 3.4C45.5903 2.92 45.5303 2.52 45.4003 2.15C44.9103 0.7 43.4403 -0.19 41.9203 0.05C40.3503 0.29 39.2303 1.57 39.2003 3.15C39.2003 3.58 39.1903 4.01 39.1803 4.44C39.1803 4.72 39.1803 5 39.1803 5.27C37.9003 5.96 36.9603 7.08 36.3803 8.63C35.8103 10.14 35.5803 11.75 35.6803 13.56C35.7503 14.73 35.9903 15.75 36.4203 16.63C35.3903 16.98 34.4503 17.63 33.6203 18.58C32.3703 20.01 31.4803 21.69 31.0003 23.58C30.7503 24.56 30.5103 25.98 31.1303 27.42C30.8303 27.38 30.4903 27.35 30.1403 27.35C26.1703 27.34 22.2003 27.35 18.2303 27.35H17.6003H17.4403C17.2303 27.35 16.9503 27.34 16.6303 27.39C16.9803 26.43 17.0603 25.41 16.8803 24.34C16.4703 21.96 15.4003 19.88 13.6903 18.15C12.9903 17.44 12.1903 16.93 11.3203 16.64C11.4703 16.33 11.6003 16 11.6803 15.67C12.4103 12.95 12.1703 10.29 10.9603 7.79C10.4303 6.68 9.60032 5.82 8.55032 5.28C8.55032 4.92 8.55032 4.57 8.55032 4.21V3.35C8.54032 1.44 7.16032 0 5.34032 0C4.49032 0 3.70032 0.33 3.12032 0.91C2.50032 1.54 2.16032 2.41 2.16032 3.38V4.2C2.17032 4.78 2.18032 5.36 2.18032 5.94C1.29032 6.7 0.67032 7.66 0.39032 8.76C0.16032 9.64 0.0403203 10.5 0.0103203 11.33C-0.0496797 13.41 0.31032 15.17 1.13032 16.72C1.92032 18.22 3.01032 19.15 4.36032 19.47C4.38032 19.47 4.39032 19.47 4.41032 19.48C3.94032 20.38 3.74032 21.39 3.83032 22.44C4.04032 24.95 5.11032 27.23 7.00032 29.23C8.14032 30.43 9.55032 31.08 11.1003 31.13L11.2503 31.32C11.2503 31.32 11.3203 31.41 11.3503 31.45C11.1803 31.86 11.0203 32.3 10.9303 32.8C10.1903 37.15 10.4303 41.63 11.6603 46.12C12.0503 47.54 12.9503 48.23 14.4203 48.23H33.4603C34.9203 48.23 35.8003 47.58 36.2303 46.17C37.4103 42.23 37.7403 38.17 37.2103 34.09C37.1003 33.25 36.9703 32.25 36.5503 31.26C36.5903 31.21 36.6203 31.17 36.6603 31.12C38.3603 31.07 39.8803 30.29 41.1803 28.79C42.3803 27.4 43.2303 25.79 43.7003 23.98C44.1403 22.32 44.0303 20.81 43.3803 19.5C45.0103 18.97 46.2303 17.78 46.9403 16.04C47.7603 14.02 47.9803 11.85 47.6003 9.59V9.62ZM38.7303 9.41C39.0703 8.49 39.6003 7.87 40.3703 7.46L40.9503 7.15L40.9203 7.81C40.9003 8.31 40.8503 8.8 40.4703 9.27C39.8703 10.02 39.7303 10.98 39.6403 11.98C39.5403 13.02 39.6003 13.86 39.8203 14.64C39.9003 14.93 39.8503 15.22 39.7903 15.53C39.7703 15.66 39.7403 15.79 39.7303 15.93L39.6303 16.83L39.0603 16.13C38.4803 15.42 38.3203 14.72 38.2403 14.19C37.9903 12.54 38.1603 10.94 38.7303 9.42V9.41ZM33.3603 24.4C33.7603 22.65 34.5703 21.14 35.7603 19.92C36.4003 19.26 37.1103 18.91 37.9303 18.82L38.5803 18.75L38.3103 19.35C38.1003 19.8 37.8703 20.17 37.4303 20.49C36.8803 20.89 36.4103 21.35 36.0903 21.82C35.1403 23.2 34.7103 24.37 34.6803 25.6C34.6803 25.89 34.5303 26.14 34.3903 26.38C34.3303 26.48 34.2703 26.59 34.2103 26.7L33.8503 27.44L33.5203 26.69C33.2003 25.96 33.1503 25.25 33.3503 24.4H33.3603ZM10.1403 18.86C10.3503 18.9 10.5603 18.95 10.7503 19.07L10.9803 19.22C11.4203 19.5 11.8703 19.78 12.2303 20.18C13.4003 21.48 14.1503 22.99 14.4503 24.67C14.5803 25.4 14.5203 26.03 14.2603 26.64L13.9903 27.27L13.6103 26.69C13.3603 26.31 13.1103 25.9 13.0503 25.33C12.8603 23.49 12.0603 21.92 10.6603 20.67C10.5603 20.58 10.4503 20.51 10.3403 20.44C10.0403 20.24 9.67032 19.99 9.51032 19.5L9.16032 18.59L9.88032 18.79C9.97032 18.82 10.0603 18.83 10.1403 18.85V18.86ZM7.39032 7.46C7.97032 7.76 8.40032 8.17 8.67032 8.69C9.72032 10.76 9.92032 12.94 9.25032 15.16C9.19032 15.37 9.08032 15.56 8.97032 15.76C8.92032 15.85 8.86032 15.95 8.81032 16.06L8.37032 16.92L8.11032 15.99C7.94032 15.39 7.87032 14.91 7.99032 14.33C8.34032 12.77 8.19032 11.21 7.55032 9.69C7.46032 9.47 7.36032 9.32 7.26032 9.22C6.86032 8.85 6.85032 8.41 6.84032 8.02L6.80032 7.15L7.38032 7.45L7.39032 7.46ZM4.92032 17.08C4.23032 16.79 3.72032 16.31 3.31032 15.57C2.83032 14.7 2.58032 13.71 2.49032 12.36C2.43032 11.5 2.39032 10.51 2.73032 9.53C2.90032 9.04 3.16032 8.61 3.36032 8.28L3.78032 7.61L4.04032 8.36C4.17032 8.75 4.30032 9.27 4.14032 9.87C3.71032 11.5 3.86032 13.17 4.58032 14.83C4.69032 15.07 4.79032 15.19 4.85032 15.24C5.27032 15.6 5.34032 16.07 5.41032 16.48L5.55032 17.33L4.92032 17.07V17.08ZM5.64032 10.13C5.38032 10.13 5.09032 10.01 5.04032 9.45L4.69032 5.15H4.77032V3.4C4.77032 3.16 4.77032 2.64 5.33032 2.62C5.50032 2.62 5.65032 2.66 5.76032 2.77C5.93032 2.93 5.96032 3.16 5.96032 3.39L5.98032 4.33C6.00032 5.44 6.02032 6.55 6.05032 7.66C6.06032 8.03 6.11032 8.41 6.15032 8.78C6.17032 8.97 6.20032 9.16 6.21032 9.36C6.23032 9.54 6.23032 9.77 6.08032 9.94C5.98032 10.05 5.85032 10.11 5.67032 10.12C5.66032 10.12 5.64032 10.12 5.63032 10.12L5.64032 10.13ZM5.97032 15.41L5.81032 14.7L5.90032 14.6C5.90032 14.6 5.94032 14.55 5.96032 14.52C6.04032 14.4 6.16032 14.23 6.35032 14.19C6.87032 14.08 7.01032 14.58 7.06032 14.78C7.14032 15.09 7.22032 15.39 7.30032 15.7C7.50032 16.5 7.71032 17.33 8.00032 18.1C8.24032 18.74 8.58032 19.36 8.91032 19.97C9.06032 20.24 9.21032 20.52 9.36032 20.8C9.37032 20.82 9.39032 20.85 9.41032 20.88C9.47032 20.97 9.55032 21.08 9.55032 21.22C9.55032 21.37 9.51032 21.51 9.48032 21.63C9.47032 21.67 9.46032 21.72 9.45032 21.77L9.39032 22.04L9.13032 21.96C9.13032 21.96 9.04032 21.94 8.98032 21.93C8.81032 21.9 8.60032 21.86 8.50032 21.68C7.69032 20.36 6.70032 18.59 6.23032 16.55C6.15032 16.19 6.06032 15.82 5.98032 15.43L5.97032 15.41ZM10.8203 28.58C10.1803 28.52 9.62032 28.28 9.15032 27.85C7.49032 26.35 6.52032 24.45 6.27032 22.23C6.24032 21.95 6.28032 21.68 6.32032 21.42C6.34032 21.32 6.35032 21.21 6.36032 21.11L6.39032 20.78H6.94032L7.16032 20.96C7.40032 21.37 7.63032 21.83 7.74032 22.42C8.15032 24.54 9.01032 26 10.4303 27.02C10.7303 27.23 10.9003 27.56 11.0603 27.85L11.5103 28.65L10.8003 28.58H10.8203ZM11.6503 27.25C11.5103 27.03 11.3803 26.8 11.2603 26.57L11.1603 26.38C11.0503 26.18 11.0203 26 11.0703 25.83C11.1003 25.73 11.1803 25.59 11.3603 25.49C11.5103 25.41 11.8903 25.29 12.2003 25.8L12.4603 26.22C12.9003 26.95 13.3503 27.67 13.8103 28.39C13.9803 28.65 14.1703 28.89 14.3703 29.15C14.4703 29.27 14.5703 29.4 14.6703 29.53L14.8203 29.72L13.8303 30.53L13.1803 29.55C12.6603 28.77 12.1603 28.01 11.6603 27.24L11.6503 27.25ZM33.6303 44.94C33.5303 45.3 33.3803 45.4 33.0103 45.4C29.9903 45.38 26.9603 45.4 23.9403 45.4C20.9203 45.4 17.8903 45.4 14.8703 45.41C14.4903 45.41 14.3603 45.28 14.2703 44.93C13.4503 41.76 13.1903 38.54 13.4603 35.28C13.5203 34.57 13.6103 33.85 13.7603 33.15C14.1303 31.41 15.6303 30.21 17.3903 30.21C21.7603 30.21 26.1303 30.21 30.5003 30.21C32.3303 30.21 33.8803 31.52 34.1903 33.34C34.8703 37.25 34.6803 41.12 33.6103 44.95L33.6303 44.94ZM35.6903 27.99C35.3403 28.52 34.9803 29.05 34.6003 29.58L34.1403 30.24C34.1003 30.3 34.0403 30.33 33.9703 30.34C33.9603 30.34 33.9403 30.34 33.9303 30.34C33.8803 30.34 33.8203 30.32 33.7803 30.29L33.1903 29.85C33.1403 29.81 33.1003 29.75 33.0903 29.68C33.0903 29.61 33.0903 29.55 33.1403 29.49C33.2203 29.39 33.3003 29.29 33.3703 29.2C33.5303 29 33.6903 28.81 33.8203 28.6C34.2203 27.99 34.6003 27.37 34.9903 26.76L35.3903 26.13C35.3903 26.13 35.4203 26.07 35.4403 26.03C35.4903 25.93 35.5403 25.8 35.6603 25.72C35.7903 25.63 35.9403 25.59 36.0703 25.55C36.1203 25.54 36.1603 25.52 36.2103 25.51C36.2803 25.48 36.3503 25.49 36.4203 25.53C36.4803 25.57 36.5303 25.63 36.5403 25.7C36.5403 25.75 36.5703 25.79 36.5803 25.84C36.6303 26 36.6903 26.19 36.6003 26.37C36.3103 26.94 36.0003 27.49 35.6703 27.99H35.6903ZM40.4903 25.43C39.5003 27.3 38.1703 28.49 36.9403 28.61L36.2603 28.68L36.5703 28.07C36.8003 27.63 37.0503 27.13 37.6003 26.81C37.8403 26.67 38.0803 26.44 38.3103 26.13C39.3903 24.69 39.9303 23.45 40.0603 22.1C40.0903 21.78 40.2403 21.51 40.3903 21.25C40.4503 21.15 40.5103 21.04 40.5603 20.93L40.8703 20.26L41.2203 20.91C41.8403 22.04 41.2103 24.05 40.4803 25.43H40.4903ZM41.7903 15.42C41.6903 15.86 41.6003 16.27 41.5003 16.68C41.0503 18.53 40.1803 20.16 39.3003 21.64C39.1803 21.84 39.0203 21.97 38.8403 22.01C38.8103 22.01 38.7803 22.01 38.7503 22.01C38.6603 22.01 38.5403 21.98 38.4203 21.89C38.2103 21.72 38.1803 21.32 38.2503 21.11C38.3303 20.86 38.4803 20.63 38.6103 20.42L38.6803 20.31C39.6503 18.74 40.3003 16.96 40.6803 14.88C40.7003 14.72 40.7103 14.59 40.8103 14.49C40.9803 14.32 41.1603 14.16 41.3903 14.2C41.5703 14.23 41.6803 14.36 41.7803 14.47C41.8103 14.5 41.8303 14.53 41.8503 14.55C41.9103 14.61 41.9403 14.7 41.9203 14.79L41.7803 15.43L41.7903 15.42ZM42.0703 10.13C41.8903 10.12 41.7503 10.05 41.6603 9.93C41.5203 9.75 41.5303 9.53 41.5603 9.31C41.8103 7.6 41.8103 5.84 41.8103 4.14V3.39C41.8103 2.9 42.0103 2.64 42.4003 2.63C42.5703 2.63 42.7203 2.67 42.8203 2.77C43.0003 2.94 43.0003 3.22 43.0003 3.38C43.0003 3.86 43.0003 4.33 43.0003 4.81L43.0203 5.16L43.0603 5.41L42.7403 9.43C42.7303 9.58 42.7003 9.75 42.6203 9.88C42.5603 9.98 42.4203 10.13 42.1403 10.13C42.1203 10.13 42.1003 10.13 42.0703 10.13ZM44.7103 15.02C44.3303 16.01 43.7203 16.69 42.8603 17.08L42.2203 17.37L42.3303 16.68C42.4203 16.15 42.4903 15.68 42.8803 15.27C43.4003 14.72 43.5803 13.96 43.7003 13.21C43.8703 12.15 43.9903 10.91 43.5803 9.67C43.4903 9.38 43.5103 9.08 43.5303 8.82C43.5303 8.72 43.5503 8.61 43.5503 8.51V8.18L44.2403 8.09L44.3703 8.25C44.7903 8.75 45.0603 9.37 45.1703 10.09C45.4503 11.82 45.2903 13.48 44.7003 15.02H44.7103Z" fill="url(#paint0_linear_2538_2700)"/>
<path d="M21.0601 41.0398C21.0601 41.8898 21.0601 42.7398 21.0601 43.5898C21.0601 44.0798 20.8401 44.3598 20.4701 44.3598C20.1001 44.3598 19.8901 44.0798 19.8901 43.5898C19.8901 42.9098 19.8901 42.2298 19.8901 41.5498C19.8901 41.2898 19.8101 41.1698 19.5301 41.1798C19.0501 41.1998 18.5601 41.1998 18.0801 41.1798C17.8401 41.1798 17.7601 41.2698 17.7601 41.4998C17.7601 42.2498 17.7601 42.9898 17.7601 43.7398C17.7601 44.0198 17.6401 44.2598 17.3701 44.2998C17.1701 44.3298 16.9201 44.2398 16.7401 44.1298C16.6401 44.0698 16.6001 43.8498 16.6001 43.7098C16.6001 41.9398 16.5901 40.1798 16.6001 38.4098C16.6001 37.9998 16.8301 37.7598 17.1701 37.7598C17.5201 37.7598 17.7501 38.0198 17.7601 38.4398C17.7601 38.9098 17.7701 39.3798 17.7601 39.8498C17.7601 40.0798 17.8301 40.1798 18.0701 40.1798C18.5701 40.1698 19.0601 40.1798 19.5601 40.1798C19.8001 40.1798 19.8901 40.0798 19.8801 39.8498C19.8801 39.3798 19.8801 38.9098 19.8801 38.4398C19.8801 38.0098 20.1201 37.7598 20.4701 37.7598C20.8201 37.7598 21.0501 38.0198 21.0501 38.4498C21.0501 39.3098 21.0501 40.1798 21.0501 41.0398H21.0601Z" fill="url(#paint1_linear_2538_2700)"/>
<path d="M26.8007 41.0499C26.8007 41.6899 26.6907 42.3199 26.4807 42.9699C26.1707 43.9199 25.4207 44.3799 24.3607 44.3899C23.3107 44.3899 22.5407 43.9299 22.2107 42.9999C21.7607 41.7299 21.7707 40.4299 22.2107 39.1599C22.5307 38.2099 23.2407 37.7699 24.3007 37.7599C25.4207 37.7499 26.1507 38.1699 26.4807 39.1299C26.7007 39.7699 26.8007 40.4099 26.8007 41.0499ZM25.6407 41.2499C25.6507 40.6799 25.5607 40.1099 25.4107 39.5199C25.2807 38.9899 24.8907 38.7599 24.3507 38.7599C23.8107 38.7599 23.4407 38.9799 23.2807 39.5099C22.9707 40.5299 22.9707 41.5699 23.2807 42.5999C23.4407 43.1299 23.7907 43.3399 24.3507 43.3399C24.9107 43.3399 25.2507 43.1399 25.4207 42.5999C25.5707 42.1399 25.6407 41.6899 25.6407 41.2499Z" fill="url(#paint2_linear_2538_2700)"/>
<path d="M18.8004 33.3605C19.4804 33.3605 20.1204 33.3605 20.7604 33.3505C20.8304 33.3505 20.9404 33.1805 20.9404 33.0805C20.9604 32.6005 20.9404 32.1105 20.9504 31.6305C20.9504 31.2105 21.1804 30.9405 21.5404 30.9505C21.8704 30.9505 22.1004 31.2205 22.1004 31.6205C22.1004 33.3705 22.1004 35.1305 22.1004 36.8805C22.1004 37.3005 21.8504 37.5705 21.5104 37.5605C21.1704 37.5505 20.9604 37.2905 20.9604 36.8905C20.9604 36.1805 20.9504 35.4805 20.9604 34.7705C20.9604 34.5005 20.8804 34.3905 20.6004 34.4005C20.1204 34.4105 19.6304 34.4205 19.1504 34.4005C18.8604 34.4005 18.8004 34.5105 18.8004 34.7805C18.8104 35.4705 18.8004 36.1705 18.8004 36.8605C18.8004 37.2905 18.5804 37.5605 18.2304 37.5605C17.8804 37.5605 17.6504 37.3005 17.6504 36.8705C17.6504 35.1205 17.6504 33.3605 17.6504 31.6105C17.6504 31.2105 17.8804 30.9505 18.2204 30.9505C18.5704 30.9505 18.8004 31.2205 18.8004 31.6405C18.8004 32.2005 18.8004 32.7605 18.8004 33.3605Z" fill="url(#paint3_linear_2538_2700)"/>
<path d="M27.6504 41.0799C27.6504 40.2599 27.6504 39.4299 27.6504 38.6099C27.6504 38.0699 27.7704 37.9199 28.3204 37.8299C29.0504 37.7099 29.7804 37.6899 30.4904 37.9299C31.3504 38.2199 31.8704 38.8699 31.9004 39.6699C31.9304 40.5499 31.4904 41.2399 30.6104 41.5699C30.1504 41.7399 29.6604 41.8499 29.1704 41.9299C28.8804 41.9799 28.8104 42.0999 28.8204 42.3599C28.8304 42.7699 28.8204 43.1699 28.8204 43.5799C28.8204 44.0899 28.6204 44.3499 28.2404 44.3499C27.8604 44.3499 27.6504 44.0699 27.6504 43.5499C27.6504 42.7299 27.6504 41.8999 27.6504 41.0799ZM28.8304 41.0199C29.3004 40.9199 29.8304 40.7799 30.2504 40.5899C30.6204 40.4299 30.7504 40.0799 30.7204 39.6799C30.6904 39.2899 30.4604 39.0299 30.1304 38.9299C29.9204 38.8699 28.8504 38.5799 28.8404 39.0099C28.8204 39.6399 28.8304 40.2499 28.8304 41.0199Z" fill="url(#paint4_linear_2538_2700)"/>
<path d="M24.8509 34.2905C24.8509 35.1505 24.8509 36.0205 24.8509 36.8805C24.8509 37.3005 24.6209 37.5705 24.2709 37.5605C23.9409 37.5605 23.7109 37.2905 23.7109 36.8905C23.7109 35.1405 23.7109 33.3905 23.7109 31.6305C23.7109 31.2105 23.9609 30.9405 24.3009 30.9505C24.6409 30.9605 24.8509 31.2105 24.8509 31.6205C24.8509 32.5105 24.8509 33.4005 24.8509 34.2905Z" fill="url(#paint5_linear_2538_2700)"/>
<path d="M29.5407 31.2304C28.6907 30.8504 27.8107 30.8704 26.9307 31.0704C26.6007 31.1404 26.4707 31.3704 26.4707 31.7004C26.4707 32.5604 26.4707 33.4304 26.4707 34.2904C26.4707 35.1404 26.4707 35.9904 26.4707 36.8404C26.4707 37.2704 26.6907 37.5404 27.0307 37.5504C27.3907 37.5704 27.6207 37.3104 27.6307 36.8404C27.6407 36.4204 27.6507 36.0004 27.6307 35.5804C27.6207 35.2804 27.7107 35.1604 28.0407 35.1104C28.5607 35.0304 29.0907 34.9004 29.5807 34.7004C30.3607 34.3804 30.7307 33.7304 30.7107 32.8904C30.6907 32.0904 30.2607 31.5404 29.5407 31.2204V31.2304ZM29.0307 33.8104C28.6207 33.9704 28.1607 34.0204 27.7207 34.1204C27.7207 34.0904 27.7207 34.0704 27.7107 34.0404V32.0504C27.8007 31.9504 27.9807 31.9604 28.3807 31.9804C29.0307 32.0304 29.4807 32.3604 29.5307 32.8404C29.5707 33.2704 29.4307 33.6504 29.0307 33.8104Z" fill="url(#paint6_linear_2538_2700)"/>
</g>
<defs>
<linearGradient id="paint0_linear_2538_2700" x1="6.33332" y1="3.40273" x2="28.1602" y2="49.8777" gradientUnits="userSpaceOnUse">
<stop stop-color="#D9DCFF"/>
<stop offset="1" stop-color="#5867FE"/>
</linearGradient>
<linearGradient id="paint1_linear_2538_2700" x1="17.1871" y1="38.2254" x2="20.8116" y2="43.4952" gradientUnits="userSpaceOnUse">
<stop stop-color="#D9DCFF"/>
<stop offset="1" stop-color="#5867FE"/>
</linearGradient>
<linearGradient id="paint2_linear_2538_2700" x1="22.5292" y1="38.2275" x2="26.0376" y2="43.8278" gradientUnits="userSpaceOnUse">
<stop stop-color="#D9DCFF"/>
<stop offset="1" stop-color="#5867FE"/>
</linearGradient>
<linearGradient id="paint3_linear_2538_2700" x1="18.2399" y1="31.4166" x2="21.8764" y2="36.6784" gradientUnits="userSpaceOnUse">
<stop stop-color="#D9DCFF"/>
<stop offset="1" stop-color="#5867FE"/>
</linearGradient>
<linearGradient id="paint4_linear_2538_2700" x1="28.2136" y1="38.2093" x2="31.903" y2="43.3124" gradientUnits="userSpaceOnUse">
<stop stop-color="#D9DCFF"/>
<stop offset="1" stop-color="#5867FE"/>
</linearGradient>
<linearGradient id="paint5_linear_2538_2700" x1="23.862" y1="31.4166" x2="26.3958" y2="32.3558" gradientUnits="userSpaceOnUse">
<stop stop-color="#D9DCFF"/>
<stop offset="1" stop-color="#5867FE"/>
</linearGradient>
<linearGradient id="paint6_linear_2538_2700" x1="27.0325" y1="31.3969" x2="30.7359" y2="36.4948" gradientUnits="userSpaceOnUse">
<stop stop-color="#D9DCFF"/>
<stop offset="1" stop-color="#5867FE"/>
</linearGradient>
<clipPath id="clip0_2538_2700">
<rect width="47.79" height="48.24" fill="white"/>
</clipPath>
</defs>
</svg>
