<svg width="64" height="64" viewBox="0 0 64 64" fill="none" xmlns="http://www.w3.org/2000/svg">
<path fill-rule="evenodd" clip-rule="evenodd" d="M12.1205 35.5597L13.2685 36.4207C12.7859 37.5829 12.6935 38.9134 13.1001 40.2C13.2572 40.6781 13.4702 41.1238 13.7331 41.5303H13.5906L12.2206 43.1103C11.9606 43.4203 11.7706 43.7803 11.6706 44.1703C11.3006 45.5903 12.1506 47.0403 13.5706 47.4103L25.8106 50.6003C27.4906 51.0403 29.2206 51.2603 30.9606 51.2603H32.5806C34.3206 51.2603 36.0506 51.0403 37.7306 50.6003L49.9706 47.4103C50.8506 47.1803 51.5606 46.5103 51.8306 45.6403C52.1106 44.7703 51.9106 43.8103 51.3206 43.1203L49.9506 41.5303H49.8262C50.0862 41.1297 50.2973 40.6907 50.4501 40.22C50.8365 39.0191 50.7861 37.782 50.3885 36.6786L51.8805 35.5597C53.7105 34.1896 56.7705 31.4496 56.7705 28.4596C56.7705 22.4996 45.0505 9.88965 32.0005 9.88965C18.9505 9.88965 7.23047 22.4996 7.23047 28.4596C7.23047 31.4496 10.2905 34.1896 12.1205 35.5597ZM27.5505 18.6996V23.0196C27.5505 23.8996 28.0105 24.7396 28.7505 25.2296L32.0005 27.3896L35.2505 25.2296C35.9905 24.7296 36.4405 23.8996 36.4505 23.0096V18.6996H35.7305C34.8705 18.6996 34.0305 18.4496 33.3105 17.9796L32.0005 17.1096L30.7105 17.9696C29.9705 18.4496 29.1305 18.6996 28.2705 18.6996H27.5505ZM45.7631 36.5957C45.1214 36.399 39.0576 34.54 31.7701 34.54V34.53C24.4954 34.53 18.4092 36.3923 17.7754 36.5862L17.7301 36.6C16.6801 36.95 16.0901 38.07 16.4301 39.13C16.6001 39.65 16.9601 40.07 17.4401 40.32C17.7301 40.47 18.0401 40.54 18.3501 40.54C18.5501 40.54 18.7601 40.51 18.9601 40.44L18.9741 40.4358C19.3057 40.3359 25.2323 38.55 31.7701 38.55C38.4601 38.55 44.3101 40.36 44.5601 40.44C44.7701 40.51 44.9801 40.54 45.1801 40.54C46.0601 40.54 46.8401 39.98 47.1101 39.14C47.4501 38.09 46.8701 36.96 45.8101 36.61L45.7631 36.5957Z" fill="url(#paint0_linear_2001_5330)"/>
<defs>
<linearGradient id="paint0_linear_2001_5330" x1="13.7935" y1="12.8084" x2="30.2186" y2="55.0852" gradientUnits="userSpaceOnUse">
<stop stop-color="white"/>
<stop offset="1" stop-color="#5867FE"/>
</linearGradient>
</defs>
</svg>