<svg width="56" height="56" viewBox="0 0 56 56" fill="none" xmlns="http://www.w3.org/2000/svg">
<g filter="url(#filter0_d_1363_5576)">
<mask id="path-2-outside-1_1363_5576" maskUnits="userSpaceOnUse" x="5.08594" y="11.75" width="46" height="31" fill="black">
<rect fill="white" x="5.08594" y="11.75" width="46" height="31"/>
<path fill-rule="evenodd" clip-rule="evenodd" d="M30.8293 27.5953H7.08594L16.8456 13.75H39.7469H39.7539L39.7521 13.7528L39.7596 13.7567L39.7551 13.75H40.239L49.1967 27.8356L48.4689 27.8467L40.083 14.2805L40.0825 14.2812L48.4681 27.8469H46.6989L46.1049 26.8839L46.5225 27.5949V41.2497H42.6076V41.2502H37.9934V41.2497H31.3462V29.9414V27.5957V27.5953H30.8305L32.1397 25.5625L30.8293 27.5953ZM31.345 41.2497H9.56959V29.9424V29.9406V27.5967H31.345V29.9406V29.9424V41.2497Z"/>
</mask>
<path fill-rule="evenodd" clip-rule="evenodd" d="M30.8293 27.5953H7.08594L16.8456 13.75H39.7469H39.7539L39.7521 13.7528L39.7596 13.7567L39.7551 13.75H40.239L49.1967 27.8356L48.4689 27.8467L40.083 14.2805L40.0825 14.2812L48.4681 27.8469H46.6989L46.1049 26.8839L46.5225 27.5949V41.2497H42.6076V41.2502H37.9934V41.2497H31.3462V29.9414V27.5957V27.5953H30.8305L32.1397 25.5625L30.8293 27.5953ZM31.345 41.2497H9.56959V29.9424V29.9406V27.5967H31.345V29.9406V29.9424V41.2497Z" fill="#D6292E"/>
<path d="M7.08594 27.5953L6.18686 26.9615C5.95017 27.2973 5.92031 27.737 6.10943 28.1017C6.29855 28.4664 6.67512 28.6953 7.08594 28.6953V27.5953ZM30.8293 27.5953V28.6953C31.2031 28.6953 31.5514 28.5054 31.7539 28.1912L30.8293 27.5953ZM16.8456 13.75V12.65C16.4879 12.65 16.1526 12.8239 15.9465 13.1162L16.8456 13.75ZM39.7539 13.75L40.6783 14.3463C40.8966 14.0079 40.9125 13.5772 40.7198 13.2236C40.5271 12.87 40.1566 12.65 39.7539 12.65V13.75ZM39.7521 13.7528L38.8277 13.1565C38.6603 13.416 38.6097 13.734 38.6883 14.0327C38.7669 14.3314 38.9675 14.5833 39.241 14.7268L39.7521 13.7528ZM39.7596 13.7567L39.2485 14.7307C39.6944 14.9647 40.2423 14.8661 40.5785 14.4912C40.9147 14.1163 40.9535 13.5609 40.6725 13.143L39.7596 13.7567ZM39.7551 13.75V12.65C39.3487 12.65 38.9754 12.8741 38.7843 13.2328C38.5932 13.5916 38.6155 14.0264 38.8422 14.3637L39.7551 13.75ZM40.239 13.75L41.1673 13.1597C40.9654 12.8423 40.6153 12.65 40.239 12.65V13.75ZM49.1967 27.8356L49.2135 28.9354C49.6119 28.9293 49.9758 28.7083 50.1649 28.3576C50.354 28.007 50.3386 27.5815 50.1249 27.2453L49.1967 27.8356ZM48.4689 27.8467L47.5332 28.4251C47.7368 28.7545 48.0986 28.9525 48.4857 28.9466L48.4689 27.8467ZM40.083 14.2805L41.0187 13.7021C40.8195 13.38 40.4687 13.1829 40.0901 13.1805C39.7114 13.178 39.3581 13.3706 39.1548 13.6901L40.083 14.2805ZM40.0825 14.2812L39.1543 13.6909C38.928 14.0468 38.9251 14.5008 39.1468 14.8596L40.0825 14.2812ZM48.4681 27.8469V28.9469C48.867 28.9469 49.2346 28.731 49.4289 28.3826C49.6231 28.0341 49.6135 27.6079 49.4037 27.2686L48.4681 27.8469ZM46.6989 27.8469L45.7627 28.4244C45.963 28.7492 46.3173 28.9469 46.6989 28.9469V27.8469ZM46.1049 26.8839L47.0411 26.3064C46.7247 25.7933 46.0541 25.6305 45.5376 25.9415C45.0211 26.2524 44.8511 26.9211 45.1564 27.441L46.1049 26.8839ZM46.5225 27.5949H47.6225C47.6225 27.399 47.5702 27.2067 47.471 27.0378L46.5225 27.5949ZM46.5225 41.2497V42.3497C47.13 42.3497 47.6225 41.8572 47.6225 41.2497H46.5225ZM42.6076 41.2497V40.1497C42.0001 40.1497 41.5076 40.6422 41.5076 41.2497H42.6076ZM42.6076 41.2502V42.3502C43.2152 42.3502 43.7076 41.8577 43.7076 41.2502H42.6076ZM37.9934 41.2502H36.8934C36.8934 41.8577 37.3859 42.3502 37.9934 42.3502V41.2502ZM37.9934 41.2497H39.0934C39.0934 40.6422 38.6009 40.1497 37.9934 40.1497V41.2497ZM31.3462 41.2497H30.2462C30.2462 41.8572 30.7386 42.3497 31.3462 42.3497V41.2497ZM31.3462 27.5953H32.4462C32.4462 26.9878 31.9537 26.4953 31.3462 26.4953V27.5953ZM30.8305 27.5953L29.9057 26.9997C29.6878 27.3381 29.6721 27.7686 29.8648 28.122C30.0576 28.4754 30.428 28.6953 30.8305 28.6953V27.5953ZM32.1397 25.5625L33.0645 26.158C33.3934 25.6474 33.246 24.9668 32.7354 24.6378C32.2248 24.3088 31.5442 24.4559 31.2151 24.9665L32.1397 25.5625ZM9.56959 41.2497H8.46959C8.46959 41.8572 8.96208 42.3497 9.56959 42.3497V41.2497ZM31.345 41.2497V42.3497C31.9525 42.3497 32.445 41.8572 32.445 41.2497H31.345ZM9.56959 27.5967V26.4967C8.96208 26.4967 8.46959 26.9892 8.46959 27.5967H9.56959ZM31.345 27.5967H32.445C32.445 26.9892 31.9525 26.4967 31.345 26.4967V27.5967ZM7.08594 28.6953H30.8293V26.4953H7.08594V28.6953ZM15.9465 13.1162L6.18686 26.9615L7.98501 28.229L17.7447 14.3838L15.9465 13.1162ZM39.7469 12.65H16.8456V14.85H39.7469V12.65ZM39.7539 12.65H39.7469V14.85H39.7539V12.65ZM40.6765 14.349L40.6783 14.3463L38.8295 13.1537L38.8277 13.1565L40.6765 14.349ZM40.2708 12.7827L40.2633 12.7787L39.241 14.7268L39.2485 14.7307L40.2708 12.7827ZM38.8422 14.3637L38.8467 14.3704L40.6725 13.143L40.668 13.1363L38.8422 14.3637ZM40.239 12.65H39.7551V14.85H40.239V12.65ZM50.1249 27.2453L41.1673 13.1597L39.3108 14.3403L48.2684 28.4259L50.1249 27.2453ZM48.4857 28.9466L49.2135 28.9354L49.1798 26.7357L48.452 26.7469L48.4857 28.9466ZM39.1473 14.8588L47.5332 28.4251L49.4045 27.2684L41.0187 13.7021L39.1473 14.8588ZM41.0107 14.8715L41.0112 14.8708L39.1548 13.6901L39.1543 13.6909L41.0107 14.8715ZM49.4037 27.2686L41.0182 13.7028L39.1468 14.8596L47.5324 28.4253L49.4037 27.2686ZM46.6989 28.9469H48.4681V26.7469H46.6989V28.9469ZM45.1687 27.4613L45.7627 28.4244L47.6351 27.2695L47.0411 26.3064L45.1687 27.4613ZM47.471 27.0378L47.0534 26.3268L45.1564 27.441L45.574 28.152L47.471 27.0378ZM47.6225 41.2497V27.5949H45.4225V41.2497H47.6225ZM42.6076 42.3497H46.5225V40.1497H42.6076V42.3497ZM43.7076 41.2502V41.2497H41.5076V41.2502H43.7076ZM37.9934 42.3502H42.6076V40.1502H37.9934V42.3502ZM36.8934 41.2497V41.2502H39.0934V41.2497H36.8934ZM31.3462 42.3497H37.9934V40.1497H31.3462V42.3497ZM30.2462 29.9414V41.2497H32.4462V29.9414H30.2462ZM32.4462 29.9414V27.5957H30.2462V29.9414H32.4462ZM30.2462 27.5953V27.5957H32.4462V27.5953H30.2462ZM30.8305 28.6953H31.3462V26.4953H30.8305V28.6953ZM31.2148 24.9669L29.9057 26.9997L31.7553 28.1908L33.0645 26.158L31.2148 24.9669ZM31.7539 28.1912L33.0642 26.1584L31.2151 24.9665L29.9048 26.9993L31.7539 28.1912ZM9.56959 42.3497H31.345V40.1497H9.56959V42.3497ZM8.46959 29.9424V41.2497H10.6696V29.9424H8.46959ZM8.46959 29.9406V29.9424H10.6696V29.9406H8.46959ZM8.46959 27.5967V29.9406H10.6696V27.5967H8.46959ZM31.345 26.4967H9.56959V28.6967H31.345V26.4967ZM32.445 29.9406V27.5967H30.245V29.9406H32.445ZM32.445 29.9424V29.9406H30.245V29.9424H32.445ZM32.445 41.2497V29.9424H30.245V41.2497H32.445Z" fill="#352416" mask="url(#path-2-outside-1_1363_5576)"/>
</g>
<g clip-path="url(#clip0_1363_5576)">
<path d="M25.5102 15.8405C26.9012 14.5922 28.294 13.3434 29.6822 12.0919C29.7815 12.0019 29.9767 11.9368 29.915 11.7749C29.8675 11.6503 29.6895 11.6732 29.5658 11.6561C28.3342 11.4908 27.1019 11.3321 25.8697 11.1687C25.5641 11.1285 25.26 11.0768 24.8278 11.0107C26.072 9.96128 27.2364 8.97982 28.467 7.94269C28.6063 8.46915 28.7252 8.93066 28.7406 9.41103C28.7565 9.90345 28.9013 10.199 29.516 10.2908C30.7077 10.4687 31.8769 10.7489 33.0555 10.9877C33.2396 11.0254 33.4227 11.0679 33.6885 11.1262C30.9611 12.8141 28.263 14.3664 25.5773 15.9384C25.555 15.9058 25.5326 15.8731 25.5102 15.8405Z" fill="#352416"/>
</g>
<path d="M21.5665 19.0929C21.4296 18.6552 21.2809 18.2216 21.1582 17.7802C20.7558 16.3292 20.3692 14.8744 19.9598 13.4254C19.8884 13.1732 19.7616 12.9391 19.7544 12.6669C19.747 12.4009 19.5908 12.3144 19.3272 12.2811C17.3997 12.0377 15.4763 11.7605 13.5473 11.533C13.1227 11.4827 13.2667 11.2957 13.3663 11.1186C13.6818 10.5601 14.0346 10.0228 14.3439 9.46181C14.939 8.38082 15.6247 7.35074 16.1726 6.24315C16.2602 6.06674 16.4046 5.91842 16.5566 5.71111C16.5703 6.62975 16.3969 7.47168 16.345 8.32424C16.3213 8.71213 16.2898 9.10165 16.225 9.48343C16.1749 9.78071 16.278 9.88927 16.5652 9.94297C17.886 10.1902 19.2014 10.4627 20.5222 10.7099C21.081 10.8143 21.6267 10.9897 22.208 10.986C22.4053 10.9852 22.4778 11.1648 22.4521 11.3885C22.3215 12.5089 22.2109 13.6326 22.0885 14.754C21.9423 16.0966 21.7926 17.438 21.641 18.7801C21.6287 18.8867 21.589 18.9903 21.5624 19.0952L21.5665 19.0929Z" fill="#352416"/>
<path d="M7.08594 27.5953H30.8293L39.7539 13.75H16.8456L7.08594 27.5953Z" fill="#FB6DA9"/>
<path d="M49.1967 27.8356L40.2391 13.75H39.7552L39.7597 13.7567L39.7469 13.75L30.8306 27.5953H31.6004L40.083 14.2805L48.4689 27.8467L49.1967 27.8356Z" fill="#A43665"/>
<path d="M46.5226 41.2498H31.3462V27.5949L39.3637 15.4065L46.5226 27.5949V41.2498Z" fill="#A8A8A8"/>
<path d="M46.6987 27.8469H48.4679L40.082 14.2806L39.1899 15.6726L46.6987 27.8469Z" fill="#682A45"/>
<path d="M42.6079 30.7699H37.9937V41.2502H42.6079V30.7699Z" fill="#3B2314"/>
<path d="M18.9546 19.8967L16.5391 21.1185L18.6793 21.9327L18.9546 22.038V19.8967Z" fill="white"/>
<path d="M31.3537 20.2367L28.291 19.5959L28.4975 21.1903L31.3537 20.2367Z" fill="white"/>
<path d="M24.4632 18.2248L25.2355 20.1414L28.5803 19.657L28.2897 19.5954L29.6499 17.6049L25.2355 18.2447L24.4632 16.3281L22.3363 18.0845L18.1484 17.2068L18.7535 19.2305L22.3363 19.9812L24.4632 18.2248Z" fill="white"/>
<path d="M18.6577 23.4991L22.7184 22.4773L26.6338 23.284L27.5171 21.5172L28.4969 21.1901L28.2904 19.5958L25.2363 20.1418L24.4639 18.2252L22.337 19.9816L18.7543 19.2309L18.954 19.8982V21.7949V22.0394L19.3832 22.2034L18.6577 23.4991Z" fill="#352416"/>
<path d="M9.56982 41.2498H31.3452V29.9407H9.56982" fill="#E0E0E0"/>
<path d="M9.56982 29.9424H31.3452V27.5967H9.56982" fill="#E0E0E0"/>
<path d="M39.7538 16.5879L31.3462 29.9414V27.5957L39.1896 15.6729L39.7538 16.5879Z" fill="#8A8A8A"/>
<defs>
<filter id="filter0_d_1363_5576" x="5.98584" y="12.65" width="44.311" height="31.9002" filterUnits="userSpaceOnUse" color-interpolation-filters="sRGB">
<feFlood flood-opacity="0" result="BackgroundImageFix"/>
<feColorMatrix in="SourceAlpha" type="matrix" values="0 0 0 0 0 0 0 0 0 0 0 0 0 0 0 0 0 0 127 0" result="hardAlpha"/>
<feOffset dy="2.2"/>
<feComposite in2="hardAlpha" operator="out"/>
<feColorMatrix type="matrix" values="0 0 0 0 0 0 0 0 0 0 0 0 0 0 0 0 0 0 0.25 0"/>
<feBlend mode="normal" in2="BackgroundImageFix" result="effect1_dropShadow_1363_5576"/>
<feBlend mode="normal" in="SourceGraphic" in2="effect1_dropShadow_1363_5576" result="shape"/>
</filter>
<clipPath id="clip0_1363_5576">
<rect width="8.99515" height="7.19612" fill="white" transform="translate(24 8.91711) rotate(-12.3055)"/>
</clipPath>
</defs>
</svg>
