<svg width="52" height="38" viewBox="0 0 52 38" fill="none" xmlns="http://www.w3.org/2000/svg">
<g clip-path="url(#clip0_2455_2641)">
<path d="M26.1105 35.86C16.7105 35.86 9.06055 28.21 9.06055 18.81C9.06055 9.41 16.7005 1.75 26.1105 1.75C35.5205 1.75 43.1605 9.4 43.1605 18.8C43.1605 28.2 35.5105 35.85 26.1105 35.85V35.86Z" fill="url(#paint0_linear_2455_2641)"/>
<path d="M26.1108 3.5C34.5508 3.5 41.4108 10.37 41.4108 18.8C41.4108 27.23 34.5408 34.1 26.1108 34.1C17.6808 34.1 10.8108 27.23 10.8108 18.8C10.8108 10.37 17.6708 3.5 26.1108 3.5ZM26.1108 0C15.7208 0 7.30078 8.42 7.30078 18.8C7.30078 29.18 15.7208 37.6 26.1008 37.6C36.4808 37.6 44.9008 29.18 44.9008 18.8C44.9008 8.42 36.4908 0 26.1108 0Z" fill="url(#paint1_linear_2455_2641)"/>
<path d="M11.7501 15.0298C11.8601 15.1698 11.9101 15.3098 11.9101 15.4498C11.9201 15.5198 11.9201 15.5998 11.9101 15.6998C11.9101 15.7998 11.9001 15.8698 11.8801 15.9298C11.8501 16.0398 11.7701 16.1498 11.6501 16.2598C11.6201 16.2898 11.5801 16.3198 11.5401 16.3498C11.5001 16.3798 11.4401 16.3998 11.3801 16.4198C11.3201 16.4398 11.2501 16.4598 11.1801 16.4598C11.1101 16.4598 11.0401 16.4698 10.9701 16.4798C10.8901 16.4898 10.8201 16.4998 10.7601 16.4998C10.7001 16.4998 10.6201 16.4998 10.5501 16.4998H9.62009V16.7798C9.61009 17.7598 9.62009 18.7398 9.68009 19.7098C9.74009 20.6798 9.72009 21.6698 9.66009 22.6398C9.63009 22.9698 9.58009 23.2998 9.51009 23.6398C9.44009 23.9798 9.34009 24.2998 9.19009 24.5998C9.04009 24.8998 8.85009 25.1698 8.61009 25.4198C8.37009 25.6698 8.07009 25.8698 7.70009 26.0098C7.35009 26.1398 6.97009 26.2298 6.56009 26.2898C6.15009 26.3498 5.73009 26.3498 5.31009 26.3098C4.89009 26.2698 4.49009 26.1698 4.11009 26.0298C3.73009 25.8898 3.41009 25.6898 3.15009 25.4398C3.01009 25.3098 2.88009 25.1498 2.76009 24.9598C2.64009 24.7698 2.56009 24.5698 2.52009 24.3598C2.48009 24.1498 2.49009 23.9398 2.55009 23.7398C2.62009 23.5398 2.77009 23.3698 3.01009 23.2398C3.22009 23.1198 3.40009 23.0898 3.57009 23.1598C3.74009 23.2298 3.90009 23.3298 4.06009 23.4698C4.22009 23.6098 4.38009 23.7598 4.55009 23.9098C4.72009 24.0598 4.91009 24.1598 5.11009 24.1998C5.56009 24.3098 5.92009 24.3098 6.20009 24.1998C6.48009 24.0998 6.70009 23.9298 6.87009 23.6998C7.03009 23.4698 7.15009 23.1998 7.22009 22.8698C7.29009 22.5398 7.33009 22.2098 7.35009 21.8798C7.37009 21.5398 7.37009 21.2198 7.35009 20.8998C7.34009 20.5798 7.34009 20.3198 7.35009 20.0998C7.36009 19.5198 7.36009 18.9598 7.35009 18.4098C7.34009 17.8598 7.33009 17.2898 7.33009 16.7198V16.6598C7.33009 16.6598 7.35009 16.6098 7.35009 16.5598H7.30009C7.23009 16.5498 7.10009 16.5398 6.89009 16.5298C6.68009 16.5298 6.46009 16.5298 6.22009 16.5298C5.98009 16.5298 5.76009 16.5298 5.54009 16.5298C5.32009 16.5298 5.19009 16.5298 5.12009 16.5298H4.89009V16.5098C4.80009 16.4998 4.72009 16.4798 4.63009 16.4598C4.54009 16.4398 4.46009 16.4198 4.37009 16.3898C4.16009 16.3198 4.01009 16.2198 3.90009 16.0798C3.85009 16.0298 3.80009 15.9398 3.78009 15.8198C3.75009 15.6998 3.74009 15.5998 3.74009 15.5098V15.3298C3.74009 15.2598 3.75009 15.2098 3.77009 15.1498C3.79009 15.0298 3.87009 14.9198 4.00009 14.8198C4.09009 14.7598 4.19009 14.7098 4.31009 14.6698C4.39009 14.6498 4.46009 14.6298 4.54009 14.6198C4.62009 14.6098 4.70009 14.5998 4.78009 14.5898C4.86009 14.5798 4.93009 14.5698 5.01009 14.5698H7.05009C7.14009 14.5698 7.23009 14.5698 7.34009 14.5498H8.59009C9.00009 14.5498 9.40009 14.5498 9.80009 14.5698H9.90009C10.0201 14.5698 10.1401 14.5698 10.2501 14.5698C10.3601 14.5698 10.4801 14.5698 10.6001 14.5698C10.8501 14.5798 11.0801 14.6298 11.3001 14.7198C11.4701 14.7598 11.6101 14.8598 11.7201 14.9998L11.7501 15.0298Z" fill="#0F0F0F" stroke="#0F0F0F" stroke-width="5" stroke-linecap="round" stroke-linejoin="round"/>
<path d="M18.3109 18.5504C18.4909 18.5104 18.6809 18.5204 18.8709 18.5804C19.0609 18.6504 19.2409 18.7504 19.4009 18.9104C19.4809 18.9904 19.5309 19.0804 19.5709 19.1904C19.6109 19.3004 19.6309 19.4104 19.6309 19.5304C19.6309 19.6604 19.6109 19.8004 19.5709 19.9504C19.5309 20.1004 19.4809 20.2104 19.4209 20.2804C19.3309 20.3804 19.2209 20.4504 19.0809 20.5104C18.9409 20.5604 18.8009 20.6004 18.6709 20.6204C18.5409 20.6404 18.4309 20.6404 18.3409 20.6404H18.1909L15.0009 20.6604C14.8709 20.6704 14.7409 20.6804 14.6009 20.6804C14.4609 20.6804 14.3309 20.6804 14.2009 20.6604C14.0709 20.6404 13.9509 20.6104 13.8309 20.5604C13.7209 20.5104 13.6109 20.4404 13.5109 20.3604C13.3909 20.2404 13.3009 20.1204 13.2309 20.0104C13.1709 19.9004 13.1309 19.7604 13.1309 19.6104C13.1309 19.4304 13.1809 19.2404 13.2909 19.0604C13.3909 18.8804 13.5409 18.7604 13.7209 18.6904C13.9509 18.5904 14.1809 18.5504 14.4309 18.5504C14.6709 18.5504 14.9209 18.5504 15.1709 18.5504H18.3109Z" fill="#0F0F0F" stroke="#0F0F0F" stroke-width="5" stroke-linecap="round" stroke-linejoin="round"/>
<path d="M27.9094 15.6498C28.3194 16.0298 28.6294 16.4798 28.8194 17.0098C29.0194 17.5398 29.0894 18.0598 29.0494 18.5798C29.0094 19.0798 28.8494 19.5398 28.5794 19.9598C28.3094 20.3798 27.8994 20.6998 27.3394 20.9098C26.9094 21.0898 26.4794 21.2298 26.0494 21.2998C25.6294 21.3798 25.1594 21.4398 24.6494 21.4798C24.4194 21.4998 24.2294 21.5198 24.0694 21.5198C23.9094 21.5198 23.7294 21.5298 23.5194 21.5398H23.2994C23.1994 21.5398 23.1194 21.5398 23.0794 21.5598V24.9298C23.0494 25.1398 23.0094 25.3498 22.9594 25.5598C22.9094 25.7798 22.7794 25.9498 22.5794 26.0698C22.4594 26.1298 22.3094 26.1698 22.1394 26.1798C21.9694 26.1898 21.8094 26.1798 21.6694 26.1598C21.5194 26.1398 21.3894 26.0998 21.2894 26.0398C21.1894 25.9798 21.0994 25.8698 21.0394 25.7198C20.9994 25.6198 20.9594 25.5098 20.9194 25.3898C20.8794 25.2698 20.8594 25.1098 20.8594 24.9298V15.9198C20.8594 15.8398 20.8594 15.7698 20.8794 15.7098C20.8894 15.6498 20.8994 15.5798 20.9094 15.5098C20.9294 15.4598 20.9494 15.3998 20.9594 15.3298C20.9694 15.2598 20.9894 15.2098 21.0094 15.1498C21.0294 15.0998 21.0594 15.0498 21.0794 14.9998C21.1094 14.9598 21.1394 14.9198 21.1894 14.8898C21.2394 14.8398 21.3294 14.7898 21.4394 14.7398C21.5494 14.6998 21.7294 14.6698 21.9494 14.6698H21.9794C22.3194 14.6498 22.6894 14.6298 23.0994 14.6098C23.5094 14.5898 23.8494 14.6098 24.1294 14.6298C24.2794 14.6498 24.4194 14.6698 24.5494 14.6698C24.6794 14.6698 24.8094 14.6798 24.9294 14.6898C25.0594 14.6998 25.1894 14.7098 25.3194 14.7198C25.4494 14.7298 25.5794 14.7498 25.7094 14.7698C25.8194 14.7898 25.9194 14.8098 26.0094 14.8198C26.0994 14.8298 26.1994 14.8498 26.2994 14.8698C26.3894 14.8898 26.4794 14.9098 26.5894 14.9398C26.6994 14.9698 26.7894 14.9998 26.8794 15.0498C27.1094 15.1098 27.2994 15.1998 27.4494 15.2898C27.5994 15.3798 27.7594 15.4998 27.9194 15.6198L27.9094 15.6498ZM26.9294 18.3398C26.9394 18.0798 26.8894 17.8498 26.7794 17.6598C26.6694 17.4598 26.5094 17.2998 26.2994 17.1698C26.0894 17.0398 25.8594 16.9398 25.5994 16.8598C25.3394 16.7798 25.0794 16.7298 24.8194 16.6998C24.7594 16.6998 24.6694 16.6998 24.5494 16.6998C24.4294 16.6998 24.3094 16.6898 24.1794 16.6798C24.0494 16.6798 23.9294 16.6698 23.8094 16.6598C23.6994 16.6598 23.6094 16.6598 23.5394 16.6598C23.4894 16.6498 23.4194 16.6398 23.3394 16.6398H23.0794C23.0894 16.9798 23.0994 17.2998 23.0994 17.6098V18.6098C23.0894 18.8098 23.0794 18.9998 23.0794 19.1998V19.7698L24.0894 19.7498C24.3494 19.7498 24.6394 19.7298 24.9494 19.6998C25.2694 19.6698 25.5594 19.5998 25.8494 19.4998C26.1394 19.3998 26.3694 19.2598 26.5694 19.0798C26.7694 18.8998 26.8894 18.6498 26.9194 18.3498L26.9294 18.3398Z" fill="#0F0F0F" stroke="#0F0F0F" stroke-width="5" stroke-linecap="round" stroke-linejoin="round"/>
<path d="M33.2707 15.01C34.0007 14.74 34.6607 14.62 35.2507 14.65C35.8407 14.68 36.3707 14.83 36.8407 15.1C37.3107 15.37 37.7107 15.72 38.0407 16.17C38.3707 16.62 38.6407 17.12 38.8507 17.67C39.0107 18.08 39.1407 18.52 39.2207 18.97C39.3007 19.42 39.3607 19.88 39.3807 20.33C39.4007 20.78 39.3807 21.22 39.3307 21.66C39.2807 22.1 39.2007 22.5 39.0907 22.87C39.0207 23.12 38.9507 23.35 38.8607 23.55C38.7707 23.75 38.6707 23.96 38.5507 24.17C38.2807 24.64 37.9307 25.02 37.5007 25.31C37.0707 25.6 36.6007 25.81 36.0907 25.93C35.7407 26.02 35.3807 26.06 35.0107 26.05C34.6407 26.05 34.2807 26 33.9207 25.9C33.5607 25.81 33.2207 25.67 32.8907 25.49C32.5607 25.31 32.2607 25.09 31.9907 24.81C31.6507 24.48 31.3807 24.11 31.1607 23.68C30.9407 23.25 30.7707 22.8 30.6607 22.33C30.5507 21.86 30.4607 21.38 30.4307 20.9C30.4007 20.42 30.4007 19.97 30.4307 19.53C30.4607 19.13 30.5407 18.7 30.6707 18.24C30.7907 17.78 30.9807 17.34 31.2107 16.92C31.4507 16.5 31.7407 16.11 32.0807 15.77C32.4207 15.43 32.8207 15.17 33.2807 15L33.2707 15.01ZM37.0807 21.99C37.2107 21.48 37.2607 20.9 37.2407 20.26C37.2207 19.62 37.1207 19.02 36.9307 18.45C36.8107 18.1 36.6607 17.8 36.4807 17.53C36.3007 17.26 36.0907 17.06 35.8407 16.92C35.6007 16.78 35.3107 16.71 34.9907 16.71C34.6707 16.71 34.3007 16.81 33.9007 17C33.6607 17.12 33.4607 17.28 33.2907 17.49C33.1207 17.7 32.9907 17.93 32.8807 18.19C32.7707 18.45 32.7007 18.72 32.6407 19C32.5807 19.28 32.5407 19.55 32.5307 19.81C32.5107 20.09 32.5007 20.39 32.5107 20.7C32.5207 21.01 32.5607 21.32 32.6207 21.63C32.6807 21.94 32.7607 22.23 32.8707 22.51C32.9807 22.79 33.1207 23.03 33.3107 23.25C33.5907 23.58 33.9207 23.8 34.3007 23.93C34.6707 24.05 35.0507 24.07 35.4207 23.99C36.0207 23.86 36.4707 23.46 36.7907 22.8C36.9207 22.56 37.0207 22.29 37.0807 21.99Z" fill="#0F0F0F" stroke="#0F0F0F" stroke-width="5" stroke-linecap="round" stroke-linejoin="round"/>
<path d="M48.0793 15.6498C48.4893 16.0298 48.7993 16.4798 48.9893 17.0098C49.1893 17.5398 49.2593 18.0598 49.2193 18.5798C49.1793 19.0798 49.0193 19.5398 48.7493 19.9598C48.4793 20.3798 48.0693 20.6998 47.5093 20.9098C47.0793 21.0898 46.6493 21.2298 46.2193 21.2998C45.7993 21.3798 45.3293 21.4398 44.8193 21.4798C44.5893 21.4998 44.3993 21.5198 44.2393 21.5198C44.0793 21.5198 43.8993 21.5298 43.6893 21.5398H43.4693C43.3693 21.5398 43.2893 21.5398 43.2493 21.5598V24.9298C43.2193 25.1398 43.1793 25.3498 43.1293 25.5598C43.0793 25.7798 42.9493 25.9498 42.7493 26.0698C42.6293 26.1298 42.4793 26.1698 42.3093 26.1798C42.1393 26.1898 41.9793 26.1798 41.8393 26.1598C41.6893 26.1398 41.5593 26.0998 41.4593 26.0398C41.3593 25.9798 41.2693 25.8698 41.2093 25.7198C41.1693 25.6198 41.1293 25.5098 41.0893 25.3898C41.0493 25.2698 41.0293 25.1098 41.0293 24.9298V15.9198C41.0293 15.8398 41.0293 15.7698 41.0493 15.7098C41.0593 15.6498 41.0693 15.5798 41.0793 15.5098C41.0993 15.4598 41.1193 15.3998 41.1293 15.3298C41.1393 15.2598 41.1593 15.2098 41.1793 15.1498C41.1993 15.0998 41.2293 15.0498 41.2493 14.9998C41.2793 14.9598 41.3093 14.9198 41.3593 14.8898C41.4093 14.8398 41.4993 14.7898 41.6093 14.7398C41.7193 14.6998 41.8993 14.6698 42.1193 14.6698H42.1493C42.4893 14.6498 42.8593 14.6298 43.2693 14.6098C43.6793 14.5898 44.0193 14.6098 44.2993 14.6298C44.4493 14.6498 44.5893 14.6698 44.7193 14.6698C44.8493 14.6698 44.9793 14.6798 45.0993 14.6898C45.2293 14.6998 45.3593 14.7098 45.4893 14.7198C45.6193 14.7298 45.7493 14.7498 45.8793 14.7698C45.9893 14.7898 46.0893 14.8098 46.1793 14.8198C46.2693 14.8298 46.3693 14.8498 46.4693 14.8698C46.5593 14.8898 46.6493 14.9098 46.7593 14.9398C46.8693 14.9698 46.9593 14.9998 47.0493 15.0498C47.2793 15.1098 47.4693 15.1998 47.6193 15.2898C47.7693 15.3798 47.9293 15.4998 48.0893 15.6198L48.0793 15.6498ZM47.0993 18.3398C47.1093 18.0798 47.0593 17.8498 46.9493 17.6598C46.8393 17.4598 46.6793 17.2998 46.4693 17.1698C46.2593 17.0398 46.0293 16.9398 45.7693 16.8598C45.5093 16.7798 45.2493 16.7298 44.9893 16.6998C44.9293 16.6998 44.8393 16.6998 44.7193 16.6998C44.5993 16.6998 44.4793 16.6898 44.3493 16.6798C44.2193 16.6798 44.0993 16.6698 43.9793 16.6598C43.8693 16.6598 43.7793 16.6598 43.7093 16.6598C43.6593 16.6498 43.5893 16.6398 43.5093 16.6398H43.2493C43.2593 16.9798 43.2693 17.2998 43.2693 17.6098V18.6098C43.2593 18.8098 43.2493 18.9998 43.2493 19.1998V19.7698L44.2593 19.7498C44.5193 19.7498 44.8093 19.7298 45.1193 19.6998C45.4393 19.6698 45.7293 19.5998 46.0193 19.4998C46.3093 19.3998 46.5393 19.2598 46.7393 19.0798C46.9393 18.8998 47.0593 18.6498 47.0893 18.3498L47.0993 18.3398Z" fill="#0F0F0F" stroke="#0F0F0F" stroke-width="5" stroke-linecap="round" stroke-linejoin="round"/>
<path d="M11.7208 15.0298C11.8308 15.1698 11.8808 15.3098 11.8808 15.4498C11.8908 15.5198 11.8908 15.5998 11.8808 15.6998C11.8808 15.7998 11.8708 15.8698 11.8508 15.9298C11.8208 16.0398 11.7408 16.1498 11.6208 16.2598C11.5908 16.2898 11.5508 16.3198 11.5108 16.3498C11.4708 16.3798 11.4108 16.3998 11.3508 16.4198C11.2908 16.4398 11.2208 16.4598 11.1508 16.4598C11.0808 16.4598 11.0108 16.4698 10.9408 16.4798C10.8608 16.4898 10.7908 16.4998 10.7308 16.4998C10.6708 16.4998 10.5908 16.4998 10.5208 16.4998H9.5908V16.7798C9.5808 17.7598 9.5908 18.7398 9.6508 19.7098C9.7108 20.6798 9.6908 21.6698 9.6308 22.6398C9.6008 22.9698 9.5508 23.2998 9.4808 23.6398C9.4108 23.9798 9.3108 24.2998 9.1608 24.5998C9.0108 24.8998 8.8208 25.1698 8.5808 25.4198C8.3408 25.6698 8.0408 25.8698 7.6708 26.0098C7.3208 26.1398 6.9408 26.2298 6.5308 26.2898C6.1208 26.3498 5.7008 26.3498 5.2808 26.3098C4.8608 26.2698 4.4608 26.1698 4.0808 26.0298C3.7008 25.8898 3.3808 25.6898 3.1208 25.4398C2.9808 25.3098 2.8508 25.1498 2.7308 24.9598C2.6108 24.7698 2.5308 24.5698 2.4908 24.3598C2.4508 24.1498 2.4608 23.9398 2.5208 23.7398C2.5908 23.5398 2.7408 23.3698 2.9808 23.2398C3.1908 23.1198 3.3708 23.0898 3.5408 23.1598C3.7108 23.2298 3.8708 23.3298 4.0308 23.4698C4.1908 23.6098 4.3508 23.7598 4.5208 23.9098C4.6908 24.0598 4.8808 24.1598 5.0808 24.1998C5.5308 24.3098 5.8908 24.3098 6.1708 24.1998C6.4508 24.0998 6.6708 23.9298 6.8408 23.6998C7.0008 23.4698 7.1208 23.1998 7.1908 22.8698C7.2608 22.5398 7.3008 22.2098 7.3208 21.8798C7.3408 21.5398 7.3408 21.2198 7.3208 20.8998C7.3108 20.5798 7.3108 20.3198 7.3208 20.0998C7.3308 19.5198 7.3308 18.9598 7.3208 18.4098C7.3108 17.8598 7.3008 17.2898 7.3008 16.7198V16.6598C7.3008 16.6598 7.3208 16.6098 7.3208 16.5598H7.2708C7.2008 16.5498 7.0708 16.5398 6.8608 16.5298C6.6508 16.5298 6.4308 16.5298 6.1908 16.5298C5.9508 16.5298 5.7308 16.5298 5.5108 16.5298C5.2908 16.5298 5.1608 16.5298 5.0908 16.5298H4.8608V16.5098C4.7708 16.4998 4.6908 16.4798 4.6008 16.4598C4.5108 16.4398 4.4308 16.4198 4.3408 16.3898C4.1308 16.3198 3.9808 16.2198 3.8708 16.0798C3.8208 16.0298 3.7708 15.9398 3.7508 15.8198C3.7208 15.6998 3.7108 15.5998 3.7108 15.5098V15.3298C3.7108 15.2598 3.7208 15.2098 3.7408 15.1498C3.7608 15.0298 3.8408 14.9198 3.9708 14.8198C4.0608 14.7598 4.1608 14.7098 4.2808 14.6698C4.3608 14.6498 4.4308 14.6298 4.5108 14.6198C4.5908 14.6098 4.6708 14.5998 4.7508 14.5898C4.8308 14.5798 4.9008 14.5698 4.9808 14.5698H7.0208C7.1108 14.5698 7.2008 14.5698 7.3108 14.5498H8.5608C8.9708 14.5498 9.3708 14.5498 9.7708 14.5698H9.8708C9.9908 14.5698 10.1108 14.5698 10.2208 14.5698C10.3308 14.5698 10.4508 14.5698 10.5708 14.5698C10.8208 14.5798 11.0508 14.6298 11.2708 14.7198C11.4408 14.7598 11.5808 14.8598 11.6908 14.9998L11.7208 15.0298Z" fill="url(#paint2_linear_2455_2641)"/>
<path d="M18.2796 18.5504C18.4596 18.5104 18.6496 18.5204 18.8396 18.5804C19.0296 18.6504 19.2096 18.7504 19.3696 18.9104C19.4496 18.9904 19.4996 19.0804 19.5396 19.1904C19.5796 19.3004 19.5996 19.4104 19.5996 19.5304C19.5996 19.6604 19.5796 19.8004 19.5396 19.9504C19.4996 20.1004 19.4496 20.2104 19.3896 20.2804C19.2996 20.3804 19.1896 20.4504 19.0496 20.5104C18.9096 20.5604 18.7696 20.6004 18.6396 20.6204C18.5096 20.6404 18.3996 20.6404 18.3096 20.6404H18.1596L14.9696 20.6604C14.8396 20.6704 14.7096 20.6804 14.5696 20.6804C14.4296 20.6804 14.2996 20.6804 14.1696 20.6604C14.0396 20.6404 13.9196 20.6104 13.7996 20.5604C13.6896 20.5104 13.5796 20.4404 13.4796 20.3604C13.3596 20.2404 13.2696 20.1204 13.1996 20.0104C13.1396 19.9004 13.0996 19.7604 13.0996 19.6104C13.0996 19.4304 13.1496 19.2404 13.2596 19.0604C13.3596 18.8804 13.5096 18.7604 13.6896 18.6904C13.9196 18.5904 14.1496 18.5504 14.3996 18.5504C14.6396 18.5504 14.8896 18.5504 15.1396 18.5504H18.2796Z" fill="url(#paint3_linear_2455_2641)"/>
<path d="M27.8801 15.6498C28.2901 16.0298 28.6001 16.4798 28.7901 17.0098C28.9901 17.5398 29.0601 18.0598 29.0201 18.5798C28.9801 19.0798 28.8201 19.5398 28.5501 19.9598C28.2801 20.3798 27.8701 20.6998 27.3101 20.9098C26.8801 21.0898 26.4501 21.2298 26.0201 21.2998C25.6001 21.3798 25.1301 21.4398 24.6201 21.4798C24.3901 21.4998 24.2001 21.5198 24.0401 21.5198C23.8801 21.5198 23.7001 21.5298 23.4901 21.5398H23.2701C23.1701 21.5398 23.0901 21.5398 23.0501 21.5598V24.9298C23.0201 25.1398 22.9801 25.3498 22.9301 25.5598C22.8801 25.7798 22.7501 25.9498 22.5501 26.0698C22.4301 26.1298 22.2801 26.1698 22.1101 26.1798C21.9401 26.1898 21.7801 26.1798 21.6401 26.1598C21.4901 26.1398 21.3601 26.0998 21.2601 26.0398C21.1601 25.9798 21.0701 25.8698 21.0101 25.7198C20.9701 25.6198 20.9301 25.5098 20.8901 25.3898C20.8501 25.2698 20.8301 25.1098 20.8301 24.9298V15.9198C20.8301 15.8398 20.8301 15.7698 20.8501 15.7098C20.8601 15.6498 20.8701 15.5798 20.8801 15.5098C20.9001 15.4598 20.9201 15.3998 20.9301 15.3298C20.9401 15.2598 20.9601 15.2098 20.9801 15.1498C21.0001 15.0998 21.0301 15.0498 21.0501 14.9998C21.0801 14.9598 21.1101 14.9198 21.1601 14.8898C21.2101 14.8398 21.3001 14.7898 21.4101 14.7398C21.5201 14.6998 21.7001 14.6698 21.9201 14.6698H21.9501C22.2901 14.6498 22.6601 14.6298 23.0701 14.6098C23.4801 14.5898 23.8201 14.6098 24.1001 14.6298C24.2501 14.6498 24.3901 14.6698 24.5201 14.6698C24.6501 14.6698 24.7801 14.6798 24.9001 14.6898C25.0301 14.6998 25.1601 14.7098 25.2901 14.7198C25.4201 14.7298 25.5501 14.7498 25.6801 14.7698C25.7901 14.7898 25.8901 14.8098 25.9801 14.8198C26.0701 14.8298 26.1701 14.8498 26.2701 14.8698C26.3601 14.8898 26.4501 14.9098 26.5601 14.9398C26.6701 14.9698 26.7601 14.9998 26.8501 15.0498C27.0801 15.1098 27.2701 15.1998 27.4201 15.2898C27.5701 15.3798 27.7301 15.4998 27.8901 15.6198L27.8801 15.6498ZM26.9001 18.3398C26.9101 18.0798 26.8601 17.8498 26.7501 17.6598C26.6401 17.4598 26.4801 17.2998 26.2701 17.1698C26.0601 17.0398 25.8301 16.9398 25.5701 16.8598C25.3101 16.7798 25.0501 16.7298 24.7901 16.6998C24.7301 16.6998 24.6401 16.6998 24.5201 16.6998C24.4001 16.6998 24.2801 16.6898 24.1501 16.6798C24.0201 16.6798 23.9001 16.6698 23.7801 16.6598C23.6701 16.6598 23.5801 16.6598 23.5101 16.6598C23.4601 16.6498 23.3901 16.6398 23.3101 16.6398H23.0501C23.0601 16.9798 23.0701 17.2998 23.0701 17.6098V18.6098C23.0601 18.8098 23.0501 18.9998 23.0501 19.1998V19.7698L24.0601 19.7498C24.3201 19.7498 24.6101 19.7298 24.9201 19.6998C25.2401 19.6698 25.5301 19.5998 25.8201 19.4998C26.1101 19.3998 26.3401 19.2598 26.5401 19.0798C26.7401 18.8998 26.8601 18.6498 26.8901 18.3498L26.9001 18.3398Z" fill="url(#paint4_linear_2455_2641)"/>
<path d="M33.2395 15.01C33.9695 14.74 34.6295 14.62 35.2195 14.65C35.8095 14.68 36.3395 14.83 36.8095 15.1C37.2795 15.37 37.6795 15.72 38.0095 16.17C38.3395 16.62 38.6095 17.12 38.8195 17.67C38.9795 18.08 39.1095 18.52 39.1895 18.97C39.2695 19.42 39.3295 19.88 39.3495 20.33C39.3695 20.78 39.3495 21.22 39.2995 21.66C39.2495 22.1 39.1695 22.5 39.0595 22.87C38.9895 23.12 38.9195 23.35 38.8295 23.55C38.7395 23.75 38.6395 23.96 38.5195 24.17C38.2495 24.64 37.8995 25.02 37.4695 25.31C37.0395 25.6 36.5695 25.81 36.0595 25.93C35.7095 26.02 35.3495 26.06 34.9795 26.05C34.6095 26.05 34.2495 26 33.8895 25.9C33.5295 25.81 33.1895 25.67 32.8595 25.49C32.5295 25.31 32.2295 25.09 31.9595 24.81C31.6195 24.48 31.3495 24.11 31.1295 23.68C30.9095 23.25 30.7395 22.8 30.6295 22.33C30.5195 21.86 30.4295 21.38 30.3995 20.9C30.3695 20.42 30.3695 19.97 30.3995 19.53C30.4295 19.13 30.5095 18.7 30.6395 18.24C30.7595 17.78 30.9495 17.34 31.1795 16.92C31.4195 16.5 31.7095 16.11 32.0495 15.77C32.3895 15.43 32.7895 15.17 33.2495 15L33.2395 15.01ZM37.0495 21.99C37.1795 21.48 37.2295 20.9 37.2095 20.26C37.1895 19.62 37.0895 19.02 36.8995 18.45C36.7795 18.1 36.6295 17.8 36.4495 17.53C36.2695 17.26 36.0595 17.06 35.8095 16.92C35.5695 16.78 35.2795 16.71 34.9595 16.71C34.6395 16.71 34.2695 16.81 33.8695 17C33.6295 17.12 33.4295 17.28 33.2595 17.49C33.0895 17.7 32.9595 17.93 32.8495 18.19C32.7395 18.45 32.6695 18.72 32.6095 19C32.5495 19.28 32.5095 19.55 32.4995 19.81C32.4795 20.09 32.4695 20.39 32.4795 20.7C32.4895 21.01 32.5295 21.32 32.5895 21.63C32.6495 21.94 32.7295 22.23 32.8395 22.51C32.9495 22.79 33.0895 23.03 33.2795 23.25C33.5595 23.58 33.8895 23.8 34.2695 23.93C34.6395 24.05 35.0195 24.07 35.3895 23.99C35.9895 23.86 36.4395 23.46 36.7595 22.8C36.8895 22.56 36.9895 22.29 37.0495 21.99Z" fill="url(#paint5_linear_2455_2641)"/>
<path d="M48.05 15.6498C48.46 16.0298 48.77 16.4798 48.96 17.0098C49.16 17.5398 49.23 18.0598 49.19 18.5798C49.15 19.0798 48.99 19.5398 48.72 19.9598C48.45 20.3798 48.04 20.6998 47.48 20.9098C47.05 21.0898 46.62 21.2298 46.19 21.2998C45.77 21.3798 45.3 21.4398 44.79 21.4798C44.56 21.4998 44.37 21.5198 44.21 21.5198C44.05 21.5198 43.87 21.5298 43.66 21.5398H43.44C43.34 21.5398 43.26 21.5398 43.22 21.5598V24.9298C43.19 25.1398 43.15 25.3498 43.1 25.5598C43.05 25.7798 42.92 25.9498 42.72 26.0698C42.6 26.1298 42.45 26.1698 42.28 26.1798C42.11 26.1898 41.95 26.1798 41.81 26.1598C41.66 26.1398 41.53 26.0998 41.43 26.0398C41.33 25.9798 41.24 25.8698 41.18 25.7198C41.14 25.6198 41.1 25.5098 41.06 25.3898C41.02 25.2698 41 25.1098 41 24.9298V15.9198C41 15.8398 41 15.7698 41.02 15.7098C41.03 15.6498 41.04 15.5798 41.05 15.5098C41.07 15.4598 41.09 15.3998 41.1 15.3298C41.11 15.2598 41.13 15.2098 41.15 15.1498C41.17 15.0998 41.2 15.0498 41.22 14.9998C41.25 14.9598 41.28 14.9198 41.33 14.8898C41.38 14.8398 41.47 14.7898 41.58 14.7398C41.69 14.6998 41.87 14.6698 42.09 14.6698H42.12C42.46 14.6498 42.83 14.6298 43.24 14.6098C43.65 14.5898 43.99 14.6098 44.27 14.6298C44.42 14.6498 44.56 14.6698 44.69 14.6698C44.82 14.6698 44.95 14.6798 45.07 14.6898C45.2 14.6998 45.33 14.7098 45.46 14.7198C45.59 14.7298 45.72 14.7498 45.85 14.7698C45.96 14.7898 46.06 14.8098 46.15 14.8198C46.24 14.8298 46.34 14.8498 46.44 14.8698C46.53 14.8898 46.62 14.9098 46.73 14.9398C46.84 14.9698 46.93 14.9998 47.02 15.0498C47.25 15.1098 47.44 15.1998 47.59 15.2898C47.74 15.3798 47.9 15.4998 48.06 15.6198L48.05 15.6498ZM47.07 18.3398C47.08 18.0798 47.03 17.8498 46.92 17.6598C46.81 17.4598 46.65 17.2998 46.44 17.1698C46.23 17.0398 46 16.9398 45.74 16.8598C45.48 16.7798 45.22 16.7298 44.96 16.6998C44.9 16.6998 44.81 16.6998 44.69 16.6998C44.57 16.6998 44.45 16.6898 44.32 16.6798C44.19 16.6798 44.07 16.6698 43.95 16.6598C43.84 16.6598 43.75 16.6598 43.68 16.6598C43.63 16.6498 43.56 16.6398 43.48 16.6398H43.22C43.23 16.9798 43.24 17.2998 43.24 17.6098V18.6098C43.23 18.8098 43.22 18.9998 43.22 19.1998V19.7698L44.23 19.7498C44.49 19.7498 44.78 19.7298 45.09 19.6998C45.41 19.6698 45.7 19.5998 45.99 19.4998C46.28 19.3998 46.51 19.2598 46.71 19.0798C46.91 18.8998 47.03 18.6498 47.06 18.3498L47.07 18.3398Z" fill="url(#paint6_linear_2455_2641)"/>
</g>
<defs>
<linearGradient id="paint0_linear_2455_2641" x1="13.5781" y1="4.15653" x2="28.9245" y2="37.1333" gradientUnits="userSpaceOnUse">
<stop stop-color="white"/>
<stop offset="1" stop-color="#5867FE"/>
</linearGradient>
<linearGradient id="paint1_linear_2455_2641" x1="12.282" y1="2.65276" x2="29.1954" y2="39.0074" gradientUnits="userSpaceOnUse">
<stop stop-color="white"/>
<stop offset="1" stop-color="#5867FE"/>
</linearGradient>
<linearGradient id="paint2_linear_2455_2641" x1="3.71494" y1="15.3815" x2="9.74281" y2="25.7371" gradientUnits="userSpaceOnUse">
<stop stop-color="white"/>
<stop offset="1" stop-color="#5867FE"/>
</linearGradient>
<linearGradient id="paint3_linear_2455_2641" x1="13.9607" y1="18.6783" x2="14.3422" y2="21.153" gradientUnits="userSpaceOnUse">
<stop stop-color="white"/>
<stop offset="1" stop-color="#5867FE"/>
</linearGradient>
<linearGradient id="paint4_linear_2455_2641" x1="21.9165" y1="15.4187" x2="28.1682" y2="24.9334" gradientUnits="userSpaceOnUse">
<stop stop-color="white"/>
<stop offset="1" stop-color="#5867FE"/>
</linearGradient>
<linearGradient id="paint5_linear_2455_2641" x1="31.5666" y1="15.4502" x2="37.4422" y2="25.3935" gradientUnits="userSpaceOnUse">
<stop stop-color="white"/>
<stop offset="1" stop-color="#5867FE"/>
</linearGradient>
<linearGradient id="paint6_linear_2455_2641" x1="42.0864" y1="15.4187" x2="48.3382" y2="24.9334" gradientUnits="userSpaceOnUse">
<stop stop-color="white"/>
<stop offset="1" stop-color="#5867FE"/>
</linearGradient>
<clipPath id="clip0_2455_2641">
<rect width="51.73" height="37.61" fill="white"/>
</clipPath>
</defs>
</svg>
