<svg width="52" height="48" viewBox="0 0 52 48" fill="none" xmlns="http://www.w3.org/2000/svg">
<g clip-path="url(#clip0_2455_2655)">
<path d="M1.75 1.75H49.46" stroke="url(#paint0_linear_2455_2655)" stroke-width="3.5" stroke-miterlimit="10" stroke-linecap="round"/>
<path d="M9.10906 31.7001L22.7691 12.0601C23.2191 11.4101 23.4591 10.6401 23.4591 9.85007C23.4591 8.48007 22.5391 7.21007 21.1891 6.94007C19.9591 6.70007 18.8291 7.27007 18.2291 8.21007C18.0291 8.53007 17.5491 8.51007 17.3391 8.19007C16.8391 7.41007 15.9491 6.88007 14.9591 6.88007C13.9691 6.88007 13.0691 7.41007 12.5591 8.21007C12.3591 8.53007 11.8891 8.53007 11.6891 8.21007C11.1891 7.41007 10.2991 6.88007 9.28906 6.88007C8.27906 6.88007 7.38906 7.41007 6.88906 8.21007C6.68906 8.53007 6.23906 8.55007 6.03906 8.23007C5.43906 7.26007 4.27906 6.68007 3.01906 6.94007C1.68906 7.22007 0.789062 8.48007 0.789062 9.84007V41.4301V44.4301V44.5601C0.789062 46.0401 1.85906 47.3601 3.32906 47.5101C3.45906 47.5201 3.58906 47.5101 3.70906 47.5101C3.76906 47.5101 3.81906 47.5301 3.87906 47.5301H16.1991C17.6591 47.5301 18.5391 45.9001 17.7291 44.6801L9.08906 31.7001H9.10906Z" fill="url(#paint1_linear_2455_2655)"/>
<path d="M41.6898 31.7001L28.0298 12.0601C27.5798 11.4101 27.3398 10.6401 27.3398 9.85007C27.3398 8.48007 28.2598 7.21007 29.6098 6.94007C30.8398 6.70007 31.9698 7.27007 32.5698 8.21007C32.7698 8.53007 33.2498 8.51007 33.4598 8.19007C33.9598 7.41007 34.8498 6.88007 35.8398 6.88007C36.8298 6.88007 37.7298 7.41007 38.2398 8.21007C38.4398 8.53007 38.9098 8.53007 39.1098 8.21007C39.6098 7.41007 40.4998 6.88007 41.5098 6.88007C42.5198 6.88007 43.4098 7.41007 43.9098 8.21007C44.1098 8.53007 44.5598 8.55007 44.7598 8.23007C45.3598 7.26007 46.5198 6.68007 47.7798 6.94007C49.1098 7.22007 50.0098 8.48007 50.0098 9.84007V41.4301V44.4301V44.5601C50.0098 46.0401 48.9398 47.3601 47.4698 47.5101C47.3398 47.5201 47.2098 47.5101 47.0898 47.5101C47.0298 47.5101 46.9798 47.5301 46.9198 47.5301H34.5998C33.1398 47.5301 32.2598 45.9001 33.0698 44.6801L41.7098 31.7001H41.6898Z" fill="url(#paint2_linear_2455_2655)"/>
</g>
<defs>
<linearGradient id="paint0_linear_2455_2655" x1="8.07055" y1="1.82055" x2="8.08202" y2="2.99659" gradientUnits="userSpaceOnUse">
<stop stop-color="white"/>
<stop offset="1" stop-color="#5867FE"/>
</linearGradient>
<linearGradient id="paint1_linear_2455_2655" x1="3.79235" y1="9.74603" x2="27.3117" y2="37.9377" gradientUnits="userSpaceOnUse">
<stop stop-color="white"/>
<stop offset="1" stop-color="#5867FE"/>
</linearGradient>
<linearGradient id="paint2_linear_2455_2655" x1="30.3431" y1="9.74603" x2="53.8625" y2="37.9377" gradientUnits="userSpaceOnUse">
<stop stop-color="white"/>
<stop offset="1" stop-color="#5867FE"/>
</linearGradient>
<clipPath id="clip0_2455_2655">
<rect width="51.21" height="47.53" fill="white"/>
</clipPath>
</defs>
</svg>