<svg width="56" height="56" viewBox="0 0 56 56" fill="none" xmlns="http://www.w3.org/2000/svg">
<path d="M0.3 28C0.3 12.7017 12.7017 0.3 28 0.3C43.2983 0.3 55.7 12.7017 55.7 28C55.7 43.2983 43.2983 55.7 28 55.7C12.7017 55.7 0.3 43.2983 0.3 28Z" stroke="#7F7F7F" stroke-width="0.6"/>
<path d="M26.4789 18.5613L25.4091 33.9028C25.4091 33.9028 24.4207 41.5018 26.4789 42.4073L28.7896 43.9561H31.6691L36.419 40.5714L43.7584 34.5268L46.3218 24.9594L45.2106 16.8759L41.3704 13.1875L37.6309 11.6719L33.7907 11.9756L29.0464 13.6955L26.3643 17.6337L26.4789 18.5613Z" fill="#FBD7BE"/>
<path d="M36.0294 38.0155C35.9825 37.6235 36.1399 37.3088 36.3331 37.0106C36.7417 36.3812 37.1807 35.7697 37.5741 35.1305C39.0759 32.6859 40.2479 30.0949 40.9795 27.3121C41.3411 25.9345 41.3163 24.5472 41.0844 23.1572C40.9394 22.2917 40.8249 21.4151 40.604 20.5676C40.2064 19.034 39.3423 17.8206 37.8584 17.1677C36.634 16.628 35.4069 16.6818 34.2487 17.4093C33.825 17.6757 33.825 17.9214 34.2556 18.1823C35.3241 18.8297 35.8044 19.8249 35.9687 21.0176C36.0708 21.7644 35.9797 22.5001 35.8652 23.2345C35.8279 23.4691 35.6954 23.5381 35.4662 23.4457C35.2109 23.3421 35.0507 23.1406 34.9445 22.899C34.7457 22.4504 34.5621 21.9949 34.3675 21.5435C34.1991 21.1542 33.9782 20.8064 33.6428 20.5303C32.7082 19.7614 31.6785 20.2432 31.4562 21.3779C31.3292 22.0252 31.4397 22.6657 31.5888 23.2952C31.6881 23.7148 32.0098 23.9095 32.417 23.9661C32.8725 24.0282 33.3391 24.0337 33.7836 24.14C34.5704 24.3263 35.1584 24.8398 35.6526 25.4541C36.4187 26.4052 36.9639 27.4694 37.1531 28.6869C37.3781 30.1391 37.033 31.4132 35.8983 32.4071C35.4165 32.8281 34.8506 33.071 34.2032 33.0876C33.7918 33.0986 33.3791 33.0972 32.9664 33.089C31.9532 33.0696 31.2368 33.5155 30.813 34.4362C30.5645 34.9773 30.3299 35.5281 30.0469 36.0526C29.8012 36.5068 29.4299 36.8394 28.8887 36.9209C28.4636 36.9858 28.0716 36.9167 27.8038 36.5537C27.5401 36.1962 27.6064 35.8014 27.7748 35.4259C28.1958 34.4845 28.6292 33.55 28.9025 32.5479C29.2187 31.3883 29.376 30.2095 29.4133 29.0127C29.4202 28.8043 29.4257 28.5903 29.4726 28.3874C29.5789 27.9291 30.0041 27.7428 30.4085 27.9871C30.6197 28.1141 30.813 28.2825 30.9828 28.4619C31.4107 28.9133 31.7972 29.4061 32.2444 29.8368C32.5523 30.1336 32.9125 30.3945 33.2866 30.6015C33.6648 30.81 34.0776 30.7658 34.413 30.4635C34.7581 30.1515 34.7747 29.7388 34.6739 29.3219C34.5718 28.8981 34.2998 28.5738 33.9865 28.288C33.6345 27.9678 33.2659 27.6641 32.9056 27.3521C31.8483 26.4369 31.2658 25.2705 31.1125 23.8929C31.0449 23.2772 31.038 22.6533 31.0007 22.0335C30.9565 21.3116 31.1319 20.6545 31.4921 20.0223C32.1506 18.8656 32.8587 17.7516 33.8774 16.8737C34.9969 15.9088 36.2751 15.3677 37.7797 15.4767C38.9393 15.5609 39.8393 16.1324 40.5584 17.0117C41.3453 17.9725 41.7953 19.0989 42.1376 20.2763C42.6138 21.9134 42.7822 23.5837 42.6456 25.2829C42.4813 27.3328 41.8781 29.2598 40.8759 31.0432C40.067 32.483 39.1725 33.8758 38.2946 35.2755C37.806 36.0554 37.2814 36.8118 36.7624 37.5724C36.594 37.8195 36.3566 37.9796 36.0239 38.0155H36.0294Z" fill="#342315"/>
<path d="M45.4395 23.5098C45.445 22.48 45.3001 21.4682 45.1206 20.4564C44.9522 19.5081 44.7272 18.5832 44.3255 17.7025C43.7748 16.4919 43.039 15.4373 41.9748 14.616C40.8332 13.7353 39.6185 13.012 38.2091 12.6462C37.0358 12.3425 35.8763 12.4226 34.7168 12.7083C32.9623 13.1404 31.3266 13.843 29.8551 14.9004C28.7038 15.7272 27.8287 16.7887 27.2379 18.0821C27.0805 18.4258 26.7948 18.6011 26.4759 18.5611C25.9748 18.4962 25.6836 17.9938 25.8934 17.5314C26.3751 16.4698 27.0253 15.5229 27.8563 14.703C29.2891 13.2881 31.0339 12.4033 32.9043 11.7352C33.9465 11.3625 35.0163 11.096 36.1234 11.0187C38.0048 10.8876 39.7082 11.4549 41.3025 12.3991C42.3419 13.0148 43.3193 13.7229 44.1088 14.645C45.2587 15.9881 45.9903 17.5493 46.3478 19.2775C46.6377 20.6758 46.9234 22.0783 46.882 23.518C46.824 25.5293 46.6763 27.5308 46.2029 29.4965C45.7556 31.3544 44.8846 33.004 43.7527 34.5293C43.0984 35.4127 42.4565 36.3114 41.6228 37.0347C41.0334 37.5468 40.386 37.9927 39.7606 38.4634C38.5197 39.4007 37.3947 40.4663 36.2973 41.5637C35.487 42.374 34.7402 43.2478 33.7947 43.9159C32.5716 44.7814 31.2078 45.0712 29.7377 44.9856C28.9413 44.9387 28.1724 44.7772 27.4408 44.4583C25.99 43.8261 25.1715 42.6749 24.7629 41.1896C24.2797 39.4324 24.1693 37.6448 24.3267 35.8365C24.3653 35.3879 24.4468 34.9407 24.5268 34.4976C24.6041 34.0655 24.9782 33.8212 25.402 33.9026C25.7871 33.9772 26.0356 34.3747 25.9527 34.7888C25.6491 36.2934 25.627 37.8063 25.8603 39.3178C25.9596 39.9666 26.1212 40.6126 26.3172 41.2407C26.6595 42.3367 27.4394 43.0103 28.5313 43.314C29.8026 43.6674 31.0698 43.684 32.2928 43.1221C33.0672 42.766 33.6663 42.1724 34.2668 41.5816C35.378 40.4884 36.4892 39.3951 37.6307 38.3336C38.1608 37.8408 38.7378 37.3881 39.3383 36.9809C40.3114 36.321 41.1576 35.5397 41.874 34.6094C42.7574 33.4623 43.6064 32.2972 44.1875 30.9583C44.6209 29.9616 44.9205 28.9208 45.0585 27.8497C45.2435 26.4099 45.3595 24.9605 45.5044 23.5153L45.4368 23.5084L45.4395 23.5098Z" fill="#342315"/>
<path d="M11.102 24.332L8.48047 29.4476L15.3055 28.9003L13.751 32.2806L24.7843 30.316L16.6324 29.9964L18.6857 27.2554L11.102 24.332Z" fill="#D6292E"/>
<path d="M17.6896 12.0234L12.3594 14.1801L17.8817 18.227L14.4966 19.7702L26.9408 27.1715L18.169 19.9252L21.5154 19.1939L17.6896 12.0234Z" fill="#D6292E"/>
<g filter="url(#filter0_d_1189_1428)">
<path d="M26.4789 18.5613L25.4091 33.9028C25.4091 33.9028 24.4207 41.5018 26.4789 42.4073L28.7896 43.9561H31.6691L36.419 40.5714L43.7584 34.5268L46.3218 24.9594L45.2106 16.8759L41.3704 13.1875L37.6309 11.6719L33.7907 11.9756L29.0464 13.6955L26.3643 17.6337L26.4789 18.5613Z" fill="#FBD7BE"/>
<path d="M36.0294 38.0155C35.9825 37.6235 36.1399 37.3088 36.3331 37.0106C36.7417 36.3812 37.1807 35.7697 37.5741 35.1305C39.0759 32.6859 40.2479 30.0949 40.9795 27.3121C41.3411 25.9345 41.3163 24.5472 41.0844 23.1572C40.9394 22.2917 40.8249 21.4151 40.604 20.5676C40.2064 19.034 39.3423 17.8206 37.8584 17.1677C36.634 16.628 35.4069 16.6818 34.2487 17.4093C33.825 17.6757 33.825 17.9214 34.2556 18.1823C35.3241 18.8297 35.8044 19.8249 35.9687 21.0176C36.0708 21.7644 35.9797 22.5001 35.8652 23.2345C35.8279 23.4691 35.6954 23.5381 35.4662 23.4457C35.2109 23.3421 35.0507 23.1406 34.9445 22.899C34.7457 22.4504 34.5621 21.9949 34.3675 21.5435C34.1991 21.1542 33.9782 20.8064 33.6428 20.5303C32.7082 19.7614 31.6785 20.2432 31.4562 21.3779C31.3292 22.0252 31.4397 22.6657 31.5888 23.2952C31.6881 23.7148 32.0098 23.9095 32.417 23.9661C32.8725 24.0282 33.3391 24.0337 33.7836 24.14C34.5704 24.3263 35.1584 24.8398 35.6526 25.4541C36.4187 26.4052 36.9639 27.4694 37.1531 28.6869C37.3781 30.1391 37.033 31.4132 35.8983 32.4071C35.4165 32.8281 34.8506 33.071 34.2032 33.0876C33.7918 33.0986 33.3791 33.0972 32.9664 33.089C31.9532 33.0696 31.2368 33.5155 30.813 34.4362C30.5645 34.9773 30.3299 35.5281 30.0469 36.0526C29.8012 36.5068 29.4299 36.8394 28.8887 36.9209C28.4636 36.9858 28.0716 36.9167 27.8038 36.5537C27.5401 36.1962 27.6064 35.8014 27.7748 35.4259C28.1958 34.4845 28.6292 33.55 28.9025 32.5479C29.2187 31.3883 29.376 30.2095 29.4133 29.0127C29.4202 28.8043 29.4257 28.5903 29.4726 28.3874C29.5789 27.9291 30.0041 27.7428 30.4085 27.9871C30.6197 28.1141 30.813 28.2825 30.9828 28.4619C31.4107 28.9133 31.7972 29.4061 32.2444 29.8368C32.5523 30.1336 32.9125 30.3945 33.2866 30.6015C33.6648 30.81 34.0776 30.7658 34.413 30.4635C34.7581 30.1515 34.7747 29.7388 34.6739 29.3219C34.5718 28.8981 34.2998 28.5738 33.9865 28.288C33.6345 27.9678 33.2659 27.6641 32.9056 27.3521C31.8483 26.4369 31.2658 25.2705 31.1125 23.8929C31.0449 23.2772 31.038 22.6533 31.0007 22.0335C30.9565 21.3116 31.1319 20.6545 31.4921 20.0223C32.1506 18.8656 32.8587 17.7516 33.8774 16.8737C34.9969 15.9088 36.2751 15.3677 37.7797 15.4767C38.9393 15.5609 39.8393 16.1324 40.5584 17.0117C41.3453 17.9725 41.7953 19.0989 42.1376 20.2763C42.6138 21.9134 42.7822 23.5837 42.6456 25.2829C42.4813 27.3328 41.8781 29.2598 40.8759 31.0432C40.067 32.483 39.1725 33.8758 38.2946 35.2755C37.806 36.0554 37.2814 36.8118 36.7624 37.5724C36.594 37.8195 36.3566 37.9796 36.0239 38.0155H36.0294Z" fill="#342315"/>
<path d="M45.4395 23.5098C45.445 22.48 45.3001 21.4682 45.1206 20.4564C44.9522 19.5081 44.7272 18.5832 44.3255 17.7025C43.7748 16.4919 43.039 15.4373 41.9748 14.616C40.8332 13.7353 39.6185 13.012 38.2091 12.6462C37.0358 12.3425 35.8763 12.4226 34.7168 12.7083C32.9623 13.1404 31.3266 13.843 29.8551 14.9004C28.7038 15.7272 27.8287 16.7887 27.2379 18.0821C27.0805 18.4258 26.7948 18.6011 26.4759 18.5611C25.9748 18.4962 25.6836 17.9938 25.8934 17.5314C26.3751 16.4698 27.0253 15.5229 27.8563 14.703C29.2891 13.2881 31.0339 12.4033 32.9043 11.7352C33.9465 11.3625 35.0163 11.096 36.1234 11.0187C38.0048 10.8876 39.7082 11.4549 41.3025 12.3991C42.3419 13.0148 43.3193 13.7229 44.1088 14.645C45.2587 15.9881 45.9903 17.5493 46.3478 19.2775C46.6377 20.6758 46.9234 22.0783 46.882 23.518C46.824 25.5293 46.6763 27.5308 46.2029 29.4965C45.7556 31.3544 44.8846 33.004 43.7527 34.5293C43.0984 35.4127 42.4565 36.3114 41.6228 37.0347C41.0334 37.5468 40.386 37.9927 39.7606 38.4634C38.5197 39.4007 37.3947 40.4663 36.2973 41.5637C35.487 42.374 34.7402 43.2478 33.7947 43.9159C32.5716 44.7814 31.2078 45.0712 29.7377 44.9856C28.9413 44.9387 28.1724 44.7772 27.4408 44.4583C25.99 43.8261 25.1715 42.6749 24.7629 41.1896C24.2797 39.4324 24.1693 37.6448 24.3267 35.8365C24.3653 35.3879 24.4468 34.9407 24.5268 34.4976C24.6041 34.0655 24.9782 33.8212 25.402 33.9026C25.7871 33.9772 26.0356 34.3747 25.9527 34.7888C25.6491 36.2934 25.627 37.8063 25.8603 39.3178C25.9596 39.9666 26.1212 40.6126 26.3172 41.2407C26.6595 42.3367 27.4394 43.0103 28.5313 43.314C29.8026 43.6674 31.0698 43.684 32.2928 43.1221C33.0672 42.766 33.6663 42.1724 34.2668 41.5816C35.378 40.4884 36.4892 39.3951 37.6307 38.3336C38.1608 37.8408 38.7378 37.3881 39.3383 36.9809C40.3114 36.321 41.1576 35.5397 41.874 34.6094C42.7574 33.4623 43.6064 32.2972 44.1875 30.9583C44.6209 29.9616 44.9205 28.9208 45.0585 27.8497C45.2435 26.4099 45.3595 24.9605 45.5044 23.5153L45.4368 23.5084L45.4395 23.5098Z" fill="#342315"/>
</g>
<defs>
<filter id="filter0_d_1189_1428" x="24.2598" y="11" width="22.6262" height="36" filterUnits="userSpaceOnUse" color-interpolation-filters="sRGB">
<feFlood flood-opacity="0" result="BackgroundImageFix"/>
<feColorMatrix in="SourceAlpha" type="matrix" values="0 0 0 0 0 0 0 0 0 0 0 0 0 0 0 0 0 0 127 0" result="hardAlpha"/>
<feOffset dy="2"/>
<feComposite in2="hardAlpha" operator="out"/>
<feColorMatrix type="matrix" values="0 0 0 0 0 0 0 0 0 0 0 0 0 0 0 0 0 0 0.25 0"/>
<feBlend mode="normal" in2="BackgroundImageFix" result="effect1_dropShadow_1189_1428"/>
<feBlend mode="normal" in="SourceGraphic" in2="effect1_dropShadow_1189_1428" result="shape"/>
</filter>
</defs>
</svg>
