<svg width="64" height="64" viewBox="0 0 64 64" fill="none" xmlns="http://www.w3.org/2000/svg">
<path d="M33.4306 10.9297C31.5706 10.9297 31.2306 13.3397 32.8006 13.9497C39.2406 16.4397 43.5706 22.6697 43.5706 29.6897C43.5706 39.7497 35.2906 46.5697 26.5606 46.5697C22.9906 46.5697 19.3506 45.4297 16.1706 42.8997C14.8306 41.8397 12.9706 43.4097 13.8406 44.9097C21.2606 57.6697 38.8806 60.0997 49.4406 49.5497C63.6806 35.3297 53.5406 10.9297 33.4306 10.9297ZM21.5706 49.0297C23.2006 49.4697 24.9206 49.6997 26.6806 49.6997C44.5306 49.6997 53.4106 28.0197 40.8006 15.4997C43.2206 16.4897 45.4006 17.9497 47.2206 19.7697C50.7506 23.2997 52.9406 28.1697 52.9406 33.5497C52.9406 49.7497 34.2706 58.7597 21.5706 49.0297Z" fill="url(#paint0_linear_2001_5324)"/>
<path d="M52.9403 33.55C52.9403 49.75 34.2703 58.76 21.5703 49.03C23.2003 49.47 24.9203 49.7 26.6803 49.7C44.5303 49.7 53.4103 28.02 40.8003 15.5C43.2203 16.49 45.4003 17.95 47.2203 19.77C50.7503 23.3 52.9403 28.17 52.9403 33.55Z" fill="url(#paint1_linear_2001_5324)"/>
<path d="M17.1991 13.1602L16.9891 14.6402C16.8491 15.6202 16.0791 16.3902 15.0991 16.5302L13.6191 16.7402V17.6402L15.0991 17.8502C16.0791 17.9902 16.8491 18.7602 16.9891 19.7402L17.1191 20.6502C17.1691 20.9802 17.4491 21.2302 17.7891 21.2302H18.0991L18.3091 19.7502C18.4491 18.7702 19.2191 18.0002 20.1991 17.8602L21.6791 17.6502V16.7502L20.1991 16.5402C19.2191 16.4002 18.4491 15.6302 18.3091 14.6502L18.0991 13.1702H17.1991V13.1602Z" fill="url(#paint2_linear_2001_5324)"/>
<path d="M31.5507 25.4902L31.3407 26.9702C31.2007 27.9502 30.4307 28.7202 29.4507 28.8602L27.9707 29.0702V29.9702L29.4507 30.1802C30.4307 30.3202 31.2007 31.0902 31.3407 32.0702L31.4707 32.9802C31.5207 33.3102 31.8007 33.5602 32.1407 33.5602H32.4507L32.6607 32.0802C32.8007 31.1002 33.5707 30.3302 34.5507 30.1902L36.0307 29.9802V29.0802L34.5507 28.8702C33.5707 28.7302 32.8007 27.9602 32.6607 26.9802L32.4507 25.5002H31.5507V25.4902Z" fill="url(#paint3_linear_2001_5324)"/>
<path d="M20.1101 32.0195L19.9501 33.1695C19.8401 33.9295 19.2401 34.5295 18.4801 34.6395L17.3301 34.7995V35.4995L18.4801 35.6595C19.2401 35.7695 19.8401 36.3695 19.9501 37.1295L20.0501 37.8295C20.0901 38.0895 20.3101 38.2795 20.5701 38.2795H20.8101L20.9701 37.1295C21.0801 36.3695 21.6801 35.7695 22.4401 35.6595L23.5901 35.4995V34.7995L22.4401 34.6395C21.6801 34.5295 21.0801 33.9295 20.9701 33.1695L20.8101 32.0195H20.1101Z" fill="url(#paint4_linear_2001_5324)"/>
<defs>
<linearGradient id="paint0_linear_2001_5324" x1="19.2445" y1="14.1215" x2="40.4133" y2="56.8427" gradientUnits="userSpaceOnUse">
<stop stop-color="white"/>
<stop offset="1" stop-color="#5867FE"/>
</linearGradient>
<linearGradient id="paint1_linear_2001_5324" x1="25.7262" y1="18.1492" x2="44.499" y2="51.8595" gradientUnits="userSpaceOnUse">
<stop stop-color="white"/>
<stop offset="1" stop-color="#5867FE"/>
</linearGradient>
<linearGradient id="paint2_linear_2001_5324" x1="14.6869" y1="13.7295" x2="18.3199" y2="21.5288" gradientUnits="userSpaceOnUse">
<stop stop-color="white"/>
<stop offset="1" stop-color="#5867FE"/>
</linearGradient>
<linearGradient id="paint3_linear_2001_5324" x1="29.0385" y1="26.0596" x2="32.6715" y2="33.8589" gradientUnits="userSpaceOnUse">
<stop stop-color="white"/>
<stop offset="1" stop-color="#5867FE"/>
</linearGradient>
<linearGradient id="paint4_linear_2001_5324" x1="18.1594" y1="32.4612" x2="20.9753" y2="38.5138" gradientUnits="userSpaceOnUse">
<stop stop-color="white"/>
<stop offset="1" stop-color="#5867FE"/>
</linearGradient>
</defs>
</svg>
