<svg width="56" height="56" viewBox="0 0 56 56" fill="none" xmlns="http://www.w3.org/2000/svg">
<path d="M0.3 28C0.3 12.7017 12.7017 0.3 28 0.3C43.2983 0.3 55.7 12.7017 55.7 28C55.7 43.2983 43.2983 55.7 28 55.7C12.7017 55.7 0.3 43.2983 0.3 28Z" stroke="#7F7F7F" stroke-width="0.6"/>
<g filter="url(#filter0_d_1189_1674)">
<path d="M36.6563 37.3669C26.7025 37.3669 18.6341 29.2976 18.6341 19.3447C18.6341 16.3335 19.3732 13.496 20.6793 11.001C14.9264 14.0105 11 20.0354 11 26.978C11 36.9318 19.0692 45.0002 29.0222 45.0002C35.9647 45.0002 41.9896 41.0737 45 35.3217C42.505 36.627 39.6675 37.3669 36.6563 37.3669Z" fill="#342315"/>
<path d="M21.1223 11.2329L21.8633 9.81728L20.4475 10.5579C14.5364 13.6503 10.5 19.842 10.5 26.978C10.5 37.2079 18.7931 45.5002 29.0222 45.5002C36.1581 45.5002 42.3498 41.4638 45.443 35.5535L46.1838 34.1381L44.7682 34.8787C42.3428 36.1475 39.5847 36.8669 36.6563 36.8669C26.9787 36.8669 19.1341 29.0215 19.1341 19.3447C19.1341 16.4162 19.8527 13.6581 21.1223 11.2329Z" stroke="#342315"/>
</g>
<path d="M36.6563 37.3659C26.7025 37.3659 18.6341 29.2967 18.6341 19.3437C18.6341 16.3325 19.3732 13.495 20.6793 11C14.9264 14.0096 11 20.0344 11 26.977C11 36.9308 19.0692 44.9992 29.0222 44.9992C35.9647 44.9992 41.9896 41.0727 45 35.3207C42.505 36.626 39.6675 37.3659 36.6563 37.3659Z" fill="#EEC161"/>
<defs>
<filter id="filter0_d_1189_1674" x="10" y="8.63379" width="37.3676" height="39.1662" filterUnits="userSpaceOnUse" color-interpolation-filters="sRGB">
<feFlood flood-opacity="0" result="BackgroundImageFix"/>
<feColorMatrix in="SourceAlpha" type="matrix" values="0 0 0 0 0 0 0 0 0 0 0 0 0 0 0 0 0 0 127 0" result="hardAlpha"/>
<feOffset dy="1.8"/>
<feComposite in2="hardAlpha" operator="out"/>
<feColorMatrix type="matrix" values="0 0 0 0 0 0 0 0 0 0 0 0 0 0 0 0 0 0 0.25 0"/>
<feBlend mode="normal" in2="BackgroundImageFix" result="effect1_dropShadow_1189_1674"/>
<feBlend mode="normal" in="SourceGraphic" in2="effect1_dropShadow_1189_1674" result="shape"/>
</filter>
</defs>
</svg>
