<svg width="64" height="64" viewBox="0 0 64 64" fill="none" xmlns="http://www.w3.org/2000/svg">
<path d="M45.1291 23.0793H43.8291C41.0991 23.0793 38.8691 25.3093 38.8691 28.0393V37.2693C38.8691 39.9993 41.0991 42.2293 43.8291 42.2293H45.1291C50.3991 42.2293 54.7091 37.9193 54.7091 32.6493C54.7091 27.3793 50.3991 23.0693 45.1291 23.0693V23.0793ZM46.0391 36.9993H45.4491C44.2091 36.9993 43.1991 35.9893 43.1991 34.7493V30.5693C43.1991 29.3293 44.2091 28.3193 45.4491 28.3193H46.0391C48.4291 28.3193 50.3791 30.2693 50.3791 32.6593C50.3791 35.0493 48.4291 36.9993 46.0391 36.9993Z" fill="url(#paint0_linear_2001_5259)"/>
<path d="M18.6397 20.2393H39.6197C42.7697 20.2393 45.3297 22.7993 45.3297 25.9493V34.5093C45.3297 42.0593 39.1997 48.1893 31.6497 48.1893H26.6097C19.0597 48.1893 12.9297 42.0593 12.9297 34.5093V25.9493C12.9297 22.7993 15.4897 20.2393 18.6397 20.2393Z" fill="url(#paint1_linear_2001_5259)"/>
<path d="M29.1709 8H29.0309C27.8434 8 26.8809 8.96259 26.8809 10.15V14.9C26.8809 16.0874 27.8434 17.05 29.0309 17.05H29.1709C30.3583 17.05 31.3209 16.0874 31.3209 14.9V10.15C31.3209 8.96259 30.3583 8 29.1709 8Z" fill="url(#paint2_linear_2001_5259)"/>
<path d="M18.8293 8H18.6793C17.4919 8 16.5293 8.96259 16.5293 10.15V14.9C16.5293 16.0874 17.4919 17.05 18.6793 17.05H18.8293C20.0167 17.05 20.9793 16.0874 20.9793 14.9V10.15C20.9793 8.96259 20.0167 8 18.8293 8Z" fill="url(#paint3_linear_2001_5259)"/>
<path d="M39.5302 8H39.3902C38.2028 8 37.2402 8.96259 37.2402 10.15V14.9C37.2402 16.0874 38.2028 17.05 39.3902 17.05H39.5302C40.7176 17.05 41.6802 16.0874 41.6802 14.9V10.15C41.6802 8.96259 40.7176 8 39.5302 8Z" fill="url(#paint4_linear_2001_5259)"/>
<path d="M45.6394 56.2994C46.8654 56.2994 47.8594 55.3054 47.8594 54.0794C47.8594 52.8533 46.8654 51.8594 45.6394 51.8594H15.5894C14.3633 51.8594 13.3694 52.8533 13.3694 54.0794C13.3694 55.3054 14.3633 56.2994 15.5894 56.2994H45.6394Z" fill="url(#paint5_linear_2001_5259)"/>
<defs>
<linearGradient id="paint0_linear_2001_5259" x1="40.9676" y1="24.4211" x2="50.599" y2="41.5362" gradientUnits="userSpaceOnUse">
<stop stop-color="white"/>
<stop offset="1" stop-color="#5867FE"/>
</linearGradient>
<linearGradient id="paint1_linear_2001_5259" x1="17.222" y1="22.2112" x2="28.5851" y2="50.5242" gradientUnits="userSpaceOnUse">
<stop stop-color="white"/>
<stop offset="1" stop-color="#5867FE"/>
</linearGradient>
<linearGradient id="paint2_linear_2001_5259" x1="27.4691" y1="8.6385" x2="32.7837" y2="14.2429" gradientUnits="userSpaceOnUse">
<stop stop-color="white"/>
<stop offset="1" stop-color="#5867FE"/>
</linearGradient>
<linearGradient id="paint3_linear_2001_5259" x1="17.1188" y1="8.6385" x2="22.4328" y2="14.2549" gradientUnits="userSpaceOnUse">
<stop stop-color="white"/>
<stop offset="1" stop-color="#5867FE"/>
</linearGradient>
<linearGradient id="paint4_linear_2001_5259" x1="37.8284" y1="8.6385" x2="43.143" y2="14.2429" gradientUnits="userSpaceOnUse">
<stop stop-color="white"/>
<stop offset="1" stop-color="#5867FE"/>
</linearGradient>
<linearGradient id="paint5_linear_2001_5259" x1="45.426" y1="52.4476" x2="42.541" y2="62.874" gradientUnits="userSpaceOnUse">
<stop stop-color="white"/>
<stop offset="1" stop-color="#5867FE"/>
</linearGradient>
</defs>
</svg>
