<svg width="56" height="56" viewBox="0 0 56 56" fill="none" xmlns="http://www.w3.org/2000/svg">
<path d="M0.3 28C0.3 12.7017 12.7017 0.3 28 0.3C43.2983 0.3 55.7 12.7017 55.7 28C55.7 43.2983 43.2983 55.7 28 55.7C12.7017 55.7 0.3 43.2983 0.3 28Z" stroke="#7F7F7F" stroke-width="0.6"/>
<path opacity="0.47" d="M40.364 23.5732L40.585 28.8812L40.364 23.5732Z" fill="#F5E054"/>
<g filter="url(#filter0_d_1189_1740)">
<mask id="path-3-outside-1_1189_1740" maskUnits="userSpaceOnUse" x="13" y="11.2271" width="37" height="32" fill="black">
<rect fill="white" x="13" y="11.2271" width="37" height="32"/>
<path d="M46.434 20.9327C44.9577 19.1133 42.245 18.8688 40.6653 18.897C40.6747 18.8735 40.6747 18.85 40.6747 18.8312C40.6747 18.7983 40.6653 18.7607 40.6512 18.7278C40.6653 18.6948 40.6747 18.6572 40.6747 18.6243C40.6747 18.5914 40.6653 18.5538 40.6512 18.5209C40.6653 18.488 40.6747 18.4504 40.6747 18.4175C40.6747 18.3846 40.6653 18.3469 40.6512 18.314C40.6653 18.2811 40.6747 18.2435 40.6747 18.2106C40.6747 18.1777 40.6653 18.1401 40.6512 18.1072C40.6653 18.0743 40.6747 18.0366 40.6747 18.0037C40.6747 17.9708 40.6653 17.9332 40.6512 17.9003C40.6653 17.8674 40.6747 17.8298 40.6747 17.7969C40.6747 17.764 40.6653 17.7263 40.6512 17.6934C40.6653 17.6605 40.6747 17.6229 40.6747 17.59C40.6747 17.5571 40.6653 17.5195 40.6512 17.4866C40.6653 17.4537 40.6747 17.4161 40.6747 17.3831C40.6747 17.3502 40.6653 17.3126 40.6512 17.2797C40.6653 17.2468 40.6747 17.2092 40.6747 17.1763C40.6747 17.1434 40.6653 17.1058 40.6512 17.0728C40.6653 17.0399 40.6747 17.0023 40.6747 16.9694C40.6747 16.9365 40.6653 16.8989 40.6512 16.866C40.6653 16.8331 40.6747 16.7955 40.6747 16.7625C40.6747 16.7296 40.6653 16.692 40.6512 16.6591C40.6653 16.6262 40.6747 16.5886 40.6747 16.5557C40.6747 16.5228 40.6653 16.4852 40.6512 16.4523C40.6653 16.4193 40.6747 16.3817 40.6747 16.3488C40.6747 16.3159 40.6653 16.2783 40.6512 16.2454C40.6653 16.2125 40.6747 16.1749 40.6747 16.142C40.6747 16.109 40.6653 16.0714 40.6512 16.0385C40.6653 16.0056 40.6747 15.968 40.6747 15.9351C40.6747 15.9022 40.6653 15.8646 40.6512 15.8317C40.6653 15.7988 40.6747 15.7611 40.6747 15.7282C40.6747 15.6953 40.6653 15.6577 40.6512 15.6248C40.6653 15.5919 40.6747 15.5543 40.6747 15.5214C40.6747 15.4885 40.6653 15.4508 40.6512 15.4179C40.6653 15.385 40.6747 15.3474 40.6747 15.3145C40.6747 15.2816 40.6653 15.244 40.6512 15.2111C40.6653 15.1782 40.6747 15.1405 40.6747 15.1076C40.6747 15.0747 40.6653 15.0371 40.6512 15.0042C40.6653 14.9713 40.6747 14.9337 40.6747 14.9008C40.6747 13.9746 34.9248 13.2271 27.835 13.2271C20.7452 13.2271 15 13.9558 15 14.882C15 14.9149 15.0094 14.9525 15.0235 14.9854C15.0094 15.0183 15 15.0559 15 15.0888C15 15.1217 15.0094 15.1594 15.0235 15.1923C15.0094 15.2252 15 15.2628 15 15.2957C15 15.3286 15.0094 15.3662 15.0235 15.3991C15.0094 15.432 15 15.4696 15 15.5026C15 15.5355 15.0094 15.5731 15.0235 15.606C15.0094 15.6389 15 15.6765 15 15.7094C15 15.7423 15.0094 15.7799 15.0235 15.8129C15.0094 15.8458 15 15.8834 15 15.9163C15 15.9492 15.0094 15.9868 15.0235 16.0197C15.0094 16.0526 15 16.0902 15 16.1232C15 16.1561 15.0094 16.1937 15.0235 16.2266C15.0094 16.2595 15 16.2971 15 16.33C15 16.3629 15.0094 16.4005 15.0235 16.4334C15.0094 16.4664 15 16.504 15 16.5369C15 16.5698 15.0094 16.6074 15.0235 16.6403C15.0094 16.6732 15 16.7108 15 16.7437C15 16.7767 15.0094 16.8143 15.0235 16.8472C15.0094 16.8801 15 16.9177 15 16.9506C15 16.9835 15.0094 17.0211 15.0235 17.054C15.0094 17.0869 15 17.1246 15 17.1575C15 17.1904 15.0094 17.228 15.0235 17.2609C15.0094 17.2938 15 17.3314 15 17.3643C15 17.3972 15.0094 17.4349 15.0235 17.4678C15.0094 17.5007 15 17.5383 15 17.5712C15 17.6041 15.0094 17.6417 15.0235 17.6746C15.0094 17.7075 15 17.7452 15 17.7781C15 17.811 15.0094 17.8486 15.0235 17.8815C15.0094 17.9144 15 17.952 15 17.9849C15 18.0178 15.0094 18.0555 15.0235 18.0884C15.0094 18.1213 15 18.1589 15 18.1918C15 18.2247 15.0094 18.2623 15.0235 18.2952C15.0094 18.3281 15 18.3657 15 18.3987C15 18.4316 15.0094 18.4692 15.0235 18.5021C15.0094 18.535 15 18.5726 15 18.6055C15 18.6384 15.0094 18.676 15.0235 18.709C15.0094 18.7419 15 18.7795 15 18.8124C15 18.8453 15.0094 18.8829 15.0235 18.9158C15.0094 18.9487 15 18.9863 15 19.0193C15 19.0522 15.0094 19.0898 15.0235 19.1227C15.0094 19.1556 15 19.1932 15 19.2261C15 19.259 15.0094 19.2966 15.0235 19.3295C15.0094 19.3625 15 19.4001 15 19.433C15 19.4659 15.0094 19.5035 15.0235 19.5364C15.0094 19.5693 15 19.6069 15 19.6398C15 19.6728 15.0094 19.7104 15.0235 19.7433C15.0094 19.7762 15 19.8138 15 19.8467C15 19.8796 15.0094 19.9172 15.0235 19.9501C15.0094 19.983 15 20.0207 15 20.0536C15 20.0865 15.0094 20.1241 15.0235 20.157C15.0094 20.1899 15 20.2275 15 20.2604C15 20.2933 15.0094 20.331 15.0235 20.3639C15.0094 20.3968 15 20.4344 15 20.4673C15 20.5002 15.0094 20.5378 15.0235 20.5707C15.0094 20.6036 15 20.6413 15 20.6742C15 20.7071 15.0094 20.7447 15.0235 20.7776C15.0094 20.8105 15 20.8481 15 20.881C15 20.9139 15.0094 20.9516 15.0235 20.9845C15.0094 21.0174 15 21.055 15 21.0879C15 21.1208 15.0094 21.1584 15.0235 21.1913C15.0094 21.2242 15 21.2618 15 21.2948C15 21.3277 15.0094 21.3653 15.0235 21.3982C15.0094 21.4311 15 21.4687 15 21.5016C15 21.5345 15.0094 21.5721 15.0235 21.6051C15.0094 21.638 15 21.6756 15 21.7085C15 21.7414 15.0094 21.779 15.0235 21.8119C15.0094 21.8448 15 21.8824 15 21.9153C15 21.9483 15.0094 21.9859 15.0235 22.0188C15.0094 22.0517 15 22.0893 15 22.1222C15 22.1551 15.0094 22.1927 15.0235 22.2256C15.0094 22.2586 15 22.2962 15 22.3291C15 22.362 15.0094 22.3996 15.0235 22.4325C15.0094 22.4654 15 22.503 15 22.5359C15 22.5689 15.0094 22.6065 15.0235 22.6394C15.0094 22.6723 15 22.7099 15 22.7428C15 22.7757 15.0094 22.8133 15.0235 22.8462C15.0094 22.8791 15 22.9168 15 22.9497C15 22.9826 15.0094 23.0202 15.0235 23.0531C15.0094 23.086 15 23.1236 15 23.1565C15 23.1894 15.0094 23.2271 15.0235 23.26C15.0094 23.2929 15 23.3305 15 23.3634C15 23.3963 15.0094 23.4339 15.0235 23.4668C15.0094 23.4997 15 23.5374 15 23.5703C15 23.6032 15.0094 23.6408 15.0235 23.6737C15.0094 23.7066 15 23.7442 15 23.7771C15 23.81 15.0094 23.8477 15.0235 23.8806C15.0094 23.9135 15 23.9511 15 23.984C15 24.0169 15.0094 24.0545 15.0235 24.0874C15.0094 24.1203 15 24.1579 15 24.1909C15 24.2238 15.0094 24.2614 15.0235 24.2943C15.0094 24.3272 15 24.3648 15 24.3977C15 24.4306 15.0094 24.4682 15.0235 24.5012C15.0094 24.5341 15 24.5717 15 24.6046C15 24.6375 15.0094 24.6751 15.0235 24.708C15.0094 24.7409 15 24.7785 15 24.8114C15 24.8444 15.0094 24.882 15.0235 24.9149C15.0094 24.9478 15 24.9854 15 25.0183C15 25.0512 15.0094 25.0888 15.0235 25.1217C15.0094 25.1547 15 25.1923 15 25.2252C15 25.2581 15.0094 25.2957 15.0235 25.3286C15.0094 25.3615 15 25.3991 15 25.432C15 25.465 15.0094 25.5026 15.0235 25.5355C15.0094 25.5684 15 25.606 15 25.6389C15 25.6718 15.0094 25.7094 15.0235 25.7423C15.0094 25.7752 15 25.8129 15 25.8458C15 25.8787 15.0094 25.9163 15.0235 25.9492C15.0094 25.9821 15 26.0197 15 26.0526C15 26.0855 15.0094 26.1232 15.0235 26.1561C15.0094 26.189 15 26.2266 15 26.2595C15 26.2924 15.0094 26.33 15.0235 26.3629C15.0094 26.3958 15 26.4335 15 26.4664C15 26.4993 15.0094 26.5369 15.0235 26.5698C15.0094 26.6027 15 26.6403 15 26.6732C15 26.7061 15.0094 26.7437 15.0235 26.7767C15.0094 26.8096 15 26.8472 15 26.8801C15 26.913 15.0094 26.9506 15.0235 26.9835C15.0094 27.0164 15 27.054 15 27.087C15 27.1199 15.0094 27.1575 15.0235 27.1904C15.0094 27.2233 15 27.2609 15 27.2938C15 27.3267 15.0094 27.3643 15.0235 27.3973C15.0094 27.4302 15 27.4678 15 27.5007C15 27.5336 15.0094 27.5712 15.0235 27.6041C15.0094 27.637 15 27.6746 15 27.7076C15 27.7405 15.0094 27.7781 15.0235 27.811C15.0094 27.8439 15 27.8815 15 27.9144C15 27.9473 15.0094 27.9849 15.0235 28.0178C15.0094 28.0508 15 28.0884 15 28.1213C15 28.1542 15.0094 28.1918 15.0235 28.2247C15.0094 28.2576 15 28.2952 15 28.3281C15 28.3611 15.0094 28.3987 15.0235 28.4316C15.0094 28.4645 15 28.5021 15 28.535C15 28.5679 15.0094 28.6055 15.0235 28.6384C15.0094 28.6713 15 28.709 15 28.7419C15 28.7748 15.0094 28.8124 15.0235 28.8453C15.0094 28.8782 15 28.9158 15 28.9487C15 28.9816 15.0094 29.0193 15.0235 29.0522C15.0094 29.0851 15 29.1227 15 29.1556C15 29.1885 15.0094 29.2261 15.0235 29.259C15.0094 29.2919 15 29.3296 15 29.3625C15 29.3954 15.0094 29.433 15.0235 29.4659C15.0094 29.4988 15 29.5364 15 29.5693C15 29.6022 15.0094 29.6399 15.0235 29.6728C15.0094 29.7057 15 29.7433 15 29.7762C15 29.8091 15.0094 29.8467 15.0235 29.8796C15.0094 29.9125 15 29.9501 15 29.9831C15 30.016 15.0094 30.0536 15.0235 30.0865C15.0094 30.1194 15 30.157 15 30.1899C15 30.2228 15.0094 30.2604 15.0235 30.2934C15.0094 30.3263 15 30.3639 15 30.3968C15 30.4297 15.0094 30.4673 15.0235 30.5002C15.0094 30.5331 15 30.5707 15 30.6036C15 30.6366 15.0094 30.6742 15.0235 30.7071C15.0094 30.74 15 30.7776 15 30.8105C15 30.8434 15.0094 30.881 15.0235 30.9139C15.0094 30.9469 15 30.9845 15 31.0174C15 31.0503 15.0094 31.0879 15.0235 31.1208C15.0094 31.1537 15 31.1913 15 31.2242C15 31.2572 15.0094 31.2948 15.0235 31.3277C15.0094 31.3606 15 31.3982 15 31.4311C15 31.464 15.0094 31.5016 15.0235 31.5345C15.0094 31.5674 15 31.6051 15 31.638C15 31.6709 15.0094 31.7085 15.0235 31.7414C15.0094 31.7743 15 31.8119 15 31.8448C15 31.8777 15.0094 31.9154 15.0235 31.9483C15.0094 31.9812 15 32.0188 15 32.0517C15 32.0846 15.0094 32.1222 15.0235 32.1551C15.0094 32.188 15 32.2257 15 32.2586C15 32.2915 15.0094 32.3291 15.0235 32.362C15.0094 32.3949 15 32.4325 15 32.4654C15 32.4983 15.0094 32.5359 15.0235 32.5689C15.0094 32.6018 15 32.6394 15 32.6723C15 32.7052 15.0094 32.7428 15.0235 32.7757C15.0094 32.8086 15 32.8462 15 32.8792C15 32.9121 15.0094 32.9497 15.0235 32.9826C15.0094 33.0155 15 33.0531 15 33.086C15 33.1189 15.0094 33.1565 15.0235 33.1894C15.0094 33.2224 15 33.26 15 33.2929C15 33.3258 15.0094 33.3634 15.0235 33.3963C15.0094 33.4292 15 33.4668 15 33.4997C15 33.5327 15.0094 33.5703 15.0235 33.6032C15.0094 33.6361 15 33.6737 15 33.7066C15 33.7395 15.0094 33.7771 15.0235 33.81C15.0094 33.843 15 33.8806 15 33.9135C15 33.9464 15.0094 33.984 15.0235 34.0169C15.0094 34.0498 15 34.0874 15 34.1203C15 34.1533 15.0094 34.1909 15.0235 34.2238C15.0094 34.2567 15 34.2943 15 34.3272C15 34.3601 15.0094 34.3977 15.0235 34.4306C15.0094 34.4635 15 34.5012 15 34.5341C15 34.567 15.0094 34.6046 15.0235 34.6375C15.0094 34.6704 15 34.708 15 34.7409C15 34.7738 15.0094 34.8115 15.0235 34.8444C15.0094 34.8773 15 34.9149 15 34.9478C15 34.9807 15.0094 35.0183 15.0235 35.0512C15.0094 35.0841 15 35.1218 15 35.1547C15 35.1876 15.0094 35.2252 15.0235 35.2581C15.0094 35.291 15 35.3286 15 35.3615C15 35.3944 15.0094 35.4321 15.0235 35.465C15.0094 35.4979 15 35.5355 15 35.5684C15 35.6013 15.0094 35.6389 15.0235 35.6718C15.0094 35.7047 15 35.7423 15 35.7753C15 35.8082 15.0094 35.8458 15.0235 35.8787C15.0094 35.9116 15 35.9492 15 35.9821C15 36.015 15.0094 36.0526 15.0235 36.0856C15.0094 36.1185 15 36.1561 15 36.189C15 36.2219 15.0094 36.2595 15.0235 36.2924C15.0094 36.3253 15 36.3629 15 36.3958C15 36.4288 15.0094 36.4664 15.0235 36.4993C15.0094 36.5322 15 36.5698 15 36.6027C15 36.6356 15.0094 36.6732 15.0235 36.7061C15.0094 36.7391 15 36.7767 15 36.8096C15 36.8425 15.0094 36.8801 15.0235 36.913C15.0094 36.9459 15 36.9835 15 37.0164C15 37.0494 15.0094 37.087 15.0235 37.1199C15.0094 37.1528 15 37.1904 15 37.2233C15 37.2562 15.0094 37.2938 15.0235 37.3267C15.0094 37.3596 15 37.3973 15 37.4302C15 37.4631 15.0094 37.5007 15.0235 37.5336C15.0094 37.5665 15 37.6041 15 37.637C15 37.6699 15.0094 37.7076 15.0235 37.7405C15.0094 37.7734 15 37.811 15 37.8439C15 37.8768 15.0094 37.9144 15.0235 37.9473C15.0094 37.9802 15 38.0179 15 38.0508C15 38.0837 15.0094 38.1213 15.0235 38.1542C15.0094 38.1871 15 38.2247 15 38.2576C15 38.2905 15.0094 38.3281 15.0235 38.3611C15.0094 38.394 15 38.4316 15 38.4645C15 38.4974 15.0094 38.535 15.0235 38.5679C15.0094 38.6008 15 38.6384 15 38.6714C15 38.7043 15.0094 38.7419 15.0235 38.7748C15.0094 38.8077 15 38.8453 15 38.8782C15 38.9111 15.0094 38.9487 15.0235 38.9817C15.0094 39.0146 15 39.0522 15 39.0851C15 39.118 15.0094 39.1556 15.0235 39.1885C15.0094 39.2214 15 39.259 15 39.2919C15 39.3249 15.0094 39.3625 15.0235 39.3954C15.0094 39.4283 15 39.4659 15 39.4988C15 39.5317 15.0094 39.5693 15.0235 39.6022C15.0094 39.6352 15 39.6728 15 39.7057C15 39.7386 15.0094 39.7762 15.0235 39.8091C15.0094 39.842 15 39.8796 15 39.9125C15 39.9455 15.0094 39.9831 15.0235 40.016C15.0094 40.0489 15 40.0865 15 40.1194C15 40.1523 15.0094 40.1899 15.0235 40.2228C15.0094 40.2557 15 40.2934 15 40.3263C15 41.2525 20.7499 42 27.8397 42C34.9295 42 40.6794 41.2525 40.6794 40.3263C40.6794 40.2934 40.67 40.2557 40.6559 40.2228C40.67 40.1899 40.6794 40.1523 40.6794 40.1194C40.6794 40.0865 40.67 40.0489 40.6559 40.016C40.67 39.9831 40.6794 39.9455 40.6794 39.9125C40.6794 39.8796 40.67 39.842 40.6559 39.8091C40.67 39.7762 40.6794 39.7386 40.6794 39.7057C40.6794 39.6728 40.67 39.6352 40.6559 39.6022C40.67 39.5693 40.6794 39.5317 40.6794 39.4988C40.6794 39.4659 40.67 39.4283 40.6559 39.3954C40.67 39.3625 40.6794 39.3249 40.6794 39.2919C40.6794 39.259 40.67 39.2214 40.6559 39.1885C40.67 39.1556 40.6794 39.118 40.6794 39.0851C40.6794 39.0522 40.67 39.0146 40.6559 38.9817C40.67 38.9487 40.6794 38.9111 40.6794 38.8782C40.6794 38.8453 40.67 38.8077 40.6559 38.7748C40.67 38.7419 40.6794 38.7043 40.6794 38.6714C40.6794 38.6384 40.67 38.6008 40.6559 38.5679C40.67 38.535 40.6794 38.4974 40.6794 38.4645C40.6794 38.4316 40.67 38.394 40.6559 38.3611C40.67 38.3281 40.6794 38.2905 40.6794 38.2576C40.6794 38.2247 40.67 38.1871 40.6559 38.1542C40.67 38.1213 40.6794 38.0837 40.6794 38.0508C40.6794 38.0179 40.67 37.9802 40.6559 37.9473C40.67 37.9144 40.6794 37.8768 40.6794 37.8439C40.6794 37.811 40.67 37.7734 40.6559 37.7405C40.67 37.7076 40.6794 37.6699 40.6794 37.637C40.6794 37.6041 40.67 37.5665 40.6559 37.5336C40.67 37.5007 40.6794 37.4631 40.6794 37.4302C40.6794 37.3973 40.67 37.3596 40.6559 37.3267C40.67 37.2938 40.6794 37.2562 40.6794 37.2233C40.6794 37.1904 40.67 37.1528 40.6559 37.1199C40.67 37.087 40.6794 37.0494 40.6794 37.0164C40.6794 36.9835 40.67 36.9459 40.6559 36.913C40.67 36.8801 40.6794 36.8425 40.6794 36.8096C40.6794 36.7767 40.67 36.7391 40.6559 36.7061C40.67 36.6732 40.6794 36.6356 40.6794 36.6027C40.6794 36.5698 40.67 36.5322 40.6559 36.4993C40.67 36.4664 40.6794 36.4288 40.6794 36.3958C40.6794 36.3629 40.67 36.3253 40.6559 36.2924C40.67 36.2595 40.6794 36.2219 40.6794 36.189C40.6794 36.1561 40.67 36.1185 40.6559 36.0856C40.67 36.0526 40.6794 36.015 40.6794 35.9821C40.6794 35.9492 40.67 35.9116 40.6559 35.8787C40.67 35.8458 40.6794 35.8082 40.6794 35.7753C40.6794 35.7423 40.67 35.7047 40.6559 35.6718C40.67 35.6389 40.6794 35.6013 40.6794 35.5684C40.6794 35.5355 40.67 35.4979 40.6559 35.465C40.67 35.4321 40.6794 35.3944 40.6794 35.3615C40.6794 35.3286 40.67 35.291 40.6559 35.2581C40.67 35.2252 40.6794 35.1876 40.6794 35.1547C40.6794 35.1218 40.67 35.0841 40.6559 35.0512C40.67 35.0183 40.6794 34.9807 40.6794 34.9478C40.6794 34.9149 40.67 34.8773 40.6559 34.8444C40.67 34.8115 40.6794 34.7738 40.6794 34.7409C40.6794 34.708 40.67 34.6704 40.6559 34.6375C40.67 34.6046 40.6794 34.567 40.6794 34.5341C40.6794 34.5012 40.67 34.4635 40.6559 34.4306C40.67 34.3977 40.6794 34.3601 40.6794 34.3272C40.6794 34.2943 40.67 34.2567 40.6559 34.2238C40.67 34.1909 40.6794 34.1533 40.6794 34.1203C40.6794 34.0921 40.6747 34.0639 40.6606 34.0357C42.4659 33.6314 45.2539 32.0705 46.937 29.8702C48.8129 27.4161 48.5966 23.5185 46.434 20.8481V20.9327ZM44.9201 28.8594C43.787 30.3451 41.9206 31.4076 40.6747 31.7085C40.6747 31.6756 40.6653 31.6427 40.6512 31.6098C40.6653 31.5769 40.6747 31.5392 40.6747 31.5063C40.6747 31.4734 40.6653 31.4358 40.6512 31.4029C40.6653 31.37 40.6747 31.3324 40.6747 31.2995C40.6747 31.2666 40.6653 31.2289 40.6512 31.196C40.6653 31.1631 40.6747 31.1255 40.6747 31.0926C40.6747 31.0597 40.6653 31.0221 40.6512 30.9892C40.6653 30.9563 40.6747 30.9186 40.6747 30.8857C40.6747 30.8528 40.6653 30.8152 40.6512 30.7823C40.6653 30.7494 40.6747 30.7118 40.6747 30.6789C40.6747 30.646 40.6653 30.6084 40.6512 30.5754C40.6653 30.5425 40.6747 30.5049 40.6747 30.472C40.6747 30.4391 40.6653 30.4015 40.6512 30.3686C40.6653 30.3357 40.6747 30.2981 40.6747 30.2651C40.6747 30.2322 40.6653 30.1946 40.6512 30.1617C40.6653 30.1288 40.6747 30.0912 40.6747 30.0583C40.6747 30.0254 40.6653 29.9878 40.6512 29.9548C40.6653 29.9219 40.6747 29.8843 40.6747 29.8514C40.6747 29.8185 40.6653 29.7809 40.6512 29.748C40.6653 29.7151 40.6747 29.6775 40.6747 29.6446C40.6747 29.6116 40.6653 29.574 40.6512 29.5411C40.6653 29.5082 40.6747 29.4706 40.6747 29.4377C40.6747 29.4048 40.6653 29.3672 40.6512 29.3343C40.6653 29.3013 40.6747 29.2637 40.6747 29.2308C40.6747 29.1979 40.6653 29.1603 40.6512 29.1274C40.6653 29.0945 40.6747 29.0569 40.6747 29.024C40.6747 28.991 40.6653 28.9534 40.6512 28.9205C40.6653 28.8876 40.6747 28.85 40.6747 28.8171C40.6747 28.7842 40.6653 28.7466 40.6512 28.7137C40.6653 28.6808 40.6747 28.6431 40.6747 28.6102C40.6747 28.5773 40.6653 28.5397 40.6512 28.5068C40.6653 28.4739 40.6747 28.4363 40.6747 28.4034C40.6747 28.3705 40.6653 28.3328 40.6512 28.2999C40.6653 28.267 40.6747 28.2294 40.6747 28.1965C40.6747 28.1636 40.6653 28.126 40.6512 28.0931C40.6653 28.0602 40.6747 28.0225 40.6747 27.9896C40.6747 27.9567 40.6653 27.9191 40.6512 27.8862C40.6653 27.8533 40.6747 27.8157 40.6747 27.7828C40.6747 27.7499 40.6653 27.7122 40.6512 27.6793C40.6653 27.6464 40.6747 27.6088 40.6747 27.5759C40.6747 27.543 40.6653 27.5054 40.6512 27.4725C40.6653 27.4396 40.6747 27.402 40.6747 27.369C40.6747 27.3361 40.6653 27.2985 40.6512 27.2656C40.6653 27.2327 40.6747 27.1951 40.6747 27.1622C40.6747 27.1293 40.6653 27.0917 40.6512 27.0587C40.6653 27.0258 40.6747 26.9882 40.6747 26.9553C40.6747 26.9224 40.6653 26.8848 40.6512 26.8519C40.6653 26.819 40.6747 26.7814 40.6747 26.7485C40.6747 26.7155 40.6653 26.6779 40.6512 26.645C40.6653 26.6121 40.6747 26.5745 40.6747 26.5416C40.6747 26.5087 40.6653 26.4711 40.6512 26.4382C40.6653 26.4052 40.6747 26.3676 40.6747 26.3347C40.6747 26.3018 40.6653 26.2642 40.6512 26.2313C40.6653 26.1984 40.6747 26.1608 40.6747 26.1279C40.6747 26.0949 40.6653 26.0573 40.6512 26.0244C40.6653 25.9915 40.6747 25.9539 40.6747 25.921C40.6747 25.8881 40.6653 25.8505 40.6512 25.8176C40.6653 25.7847 40.6747 25.747 40.6747 25.7141C40.6747 25.6812 40.6653 25.6436 40.6512 25.6107C40.6653 25.5778 40.6747 25.5402 40.6747 25.5073C40.6747 25.4744 40.6653 25.4367 40.6512 25.4038C40.6653 25.3709 40.6747 25.3333 40.6747 25.3004C40.6747 25.2675 40.6653 25.2299 40.6512 25.197C40.6653 25.1641 40.6747 25.1264 40.6747 25.0935C40.6747 25.0606 40.6653 25.023 40.6512 24.9901C40.6653 24.9572 40.6747 24.9196 40.6747 24.8867C40.6747 24.8538 40.6653 24.8162 40.6512 24.7832C40.6653 24.7503 40.6747 24.7127 40.6747 24.6798C40.6747 24.6469 40.6653 24.6093 40.6512 24.5764C40.6653 24.5435 40.6747 24.5059 40.6747 24.4729C40.6747 24.44 40.6653 24.4024 40.6512 24.3695C40.6653 24.3366 40.6747 24.299 40.6747 24.2661C40.6747 24.2332 40.6653 24.1956 40.6512 24.1626C40.6653 24.1297 40.6747 24.0921 40.6747 24.0592C40.6747 24.0263 40.6653 23.9887 40.6512 23.9558C40.6653 23.9229 40.6747 23.8853 40.6747 23.8524C40.6747 23.8194 40.6653 23.7818 40.6512 23.7489C40.6653 23.716 40.6747 23.6784 40.6747 23.6455C40.6747 23.6126 40.6653 23.575 40.6512 23.5421C40.6653 23.5091 40.6747 23.4715 40.6747 23.4386C40.6747 23.4057 40.6653 23.3681 40.6512 23.3352C40.6653 23.3023 40.6747 23.2647 40.6747 23.2318C40.6747 23.1988 40.6653 23.1612 40.6512 23.1283C40.6653 23.0954 40.6747 23.0578 40.6747 23.0249C40.6747 22.992 40.6653 22.9544 40.6512 22.9215C40.6653 22.8886 40.6747 22.8509 40.6747 22.818C40.6747 22.7851 40.6653 22.7475 40.6512 22.7146C40.6653 22.6817 40.6747 22.6441 40.6747 22.6112C40.6747 22.5783 40.6653 22.5406 40.6512 22.5077C40.6653 22.4748 40.6747 22.4372 40.6747 22.4043C40.6747 22.3714 40.6653 22.3338 40.6512 22.3009C40.6653 22.268 40.6747 22.2303 40.6747 22.1974C40.6747 22.1645 40.6653 22.1269 40.6512 22.094C40.6653 22.0611 40.6747 22.0235 40.6747 21.9906C40.6747 21.9577 40.6653 21.9201 40.6512 21.8871C40.6653 21.8542 40.6747 21.8166 40.6747 21.7837C40.6747 21.7508 40.6653 21.7132 40.6512 21.6803C40.6653 21.6474 40.6747 21.6098 40.6747 21.5768C40.6747 21.5439 40.6653 21.5063 40.6512 21.4734C40.6653 21.4405 40.6747 21.4029 40.6747 21.37C40.6747 21.3465 40.6747 21.3277 40.6653 21.3042C41.7607 21.2901 43.5755 21.4781 44.5722 22.7052C46.0626 24.5435 46.2083 27.2233 44.9201 28.9064V28.8594Z"/>
</mask>
<path d="M46.434 20.9327C44.9577 19.1133 42.245 18.8688 40.6653 18.897C40.6747 18.8735 40.6747 18.85 40.6747 18.8312C40.6747 18.7983 40.6653 18.7607 40.6512 18.7278C40.6653 18.6948 40.6747 18.6572 40.6747 18.6243C40.6747 18.5914 40.6653 18.5538 40.6512 18.5209C40.6653 18.488 40.6747 18.4504 40.6747 18.4175C40.6747 18.3846 40.6653 18.3469 40.6512 18.314C40.6653 18.2811 40.6747 18.2435 40.6747 18.2106C40.6747 18.1777 40.6653 18.1401 40.6512 18.1072C40.6653 18.0743 40.6747 18.0366 40.6747 18.0037C40.6747 17.9708 40.6653 17.9332 40.6512 17.9003C40.6653 17.8674 40.6747 17.8298 40.6747 17.7969C40.6747 17.764 40.6653 17.7263 40.6512 17.6934C40.6653 17.6605 40.6747 17.6229 40.6747 17.59C40.6747 17.5571 40.6653 17.5195 40.6512 17.4866C40.6653 17.4537 40.6747 17.4161 40.6747 17.3831C40.6747 17.3502 40.6653 17.3126 40.6512 17.2797C40.6653 17.2468 40.6747 17.2092 40.6747 17.1763C40.6747 17.1434 40.6653 17.1058 40.6512 17.0728C40.6653 17.0399 40.6747 17.0023 40.6747 16.9694C40.6747 16.9365 40.6653 16.8989 40.6512 16.866C40.6653 16.8331 40.6747 16.7955 40.6747 16.7625C40.6747 16.7296 40.6653 16.692 40.6512 16.6591C40.6653 16.6262 40.6747 16.5886 40.6747 16.5557C40.6747 16.5228 40.6653 16.4852 40.6512 16.4523C40.6653 16.4193 40.6747 16.3817 40.6747 16.3488C40.6747 16.3159 40.6653 16.2783 40.6512 16.2454C40.6653 16.2125 40.6747 16.1749 40.6747 16.142C40.6747 16.109 40.6653 16.0714 40.6512 16.0385C40.6653 16.0056 40.6747 15.968 40.6747 15.9351C40.6747 15.9022 40.6653 15.8646 40.6512 15.8317C40.6653 15.7988 40.6747 15.7611 40.6747 15.7282C40.6747 15.6953 40.6653 15.6577 40.6512 15.6248C40.6653 15.5919 40.6747 15.5543 40.6747 15.5214C40.6747 15.4885 40.6653 15.4508 40.6512 15.4179C40.6653 15.385 40.6747 15.3474 40.6747 15.3145C40.6747 15.2816 40.6653 15.244 40.6512 15.2111C40.6653 15.1782 40.6747 15.1405 40.6747 15.1076C40.6747 15.0747 40.6653 15.0371 40.6512 15.0042C40.6653 14.9713 40.6747 14.9337 40.6747 14.9008C40.6747 13.9746 34.9248 13.2271 27.835 13.2271C20.7452 13.2271 15 13.9558 15 14.882C15 14.9149 15.0094 14.9525 15.0235 14.9854C15.0094 15.0183 15 15.0559 15 15.0888C15 15.1217 15.0094 15.1594 15.0235 15.1923C15.0094 15.2252 15 15.2628 15 15.2957C15 15.3286 15.0094 15.3662 15.0235 15.3991C15.0094 15.432 15 15.4696 15 15.5026C15 15.5355 15.0094 15.5731 15.0235 15.606C15.0094 15.6389 15 15.6765 15 15.7094C15 15.7423 15.0094 15.7799 15.0235 15.8129C15.0094 15.8458 15 15.8834 15 15.9163C15 15.9492 15.0094 15.9868 15.0235 16.0197C15.0094 16.0526 15 16.0902 15 16.1232C15 16.1561 15.0094 16.1937 15.0235 16.2266C15.0094 16.2595 15 16.2971 15 16.33C15 16.3629 15.0094 16.4005 15.0235 16.4334C15.0094 16.4664 15 16.504 15 16.5369C15 16.5698 15.0094 16.6074 15.0235 16.6403C15.0094 16.6732 15 16.7108 15 16.7437C15 16.7767 15.0094 16.8143 15.0235 16.8472C15.0094 16.8801 15 16.9177 15 16.9506C15 16.9835 15.0094 17.0211 15.0235 17.054C15.0094 17.0869 15 17.1246 15 17.1575C15 17.1904 15.0094 17.228 15.0235 17.2609C15.0094 17.2938 15 17.3314 15 17.3643C15 17.3972 15.0094 17.4349 15.0235 17.4678C15.0094 17.5007 15 17.5383 15 17.5712C15 17.6041 15.0094 17.6417 15.0235 17.6746C15.0094 17.7075 15 17.7452 15 17.7781C15 17.811 15.0094 17.8486 15.0235 17.8815C15.0094 17.9144 15 17.952 15 17.9849C15 18.0178 15.0094 18.0555 15.0235 18.0884C15.0094 18.1213 15 18.1589 15 18.1918C15 18.2247 15.0094 18.2623 15.0235 18.2952C15.0094 18.3281 15 18.3657 15 18.3987C15 18.4316 15.0094 18.4692 15.0235 18.5021C15.0094 18.535 15 18.5726 15 18.6055C15 18.6384 15.0094 18.676 15.0235 18.709C15.0094 18.7419 15 18.7795 15 18.8124C15 18.8453 15.0094 18.8829 15.0235 18.9158C15.0094 18.9487 15 18.9863 15 19.0193C15 19.0522 15.0094 19.0898 15.0235 19.1227C15.0094 19.1556 15 19.1932 15 19.2261C15 19.259 15.0094 19.2966 15.0235 19.3295C15.0094 19.3625 15 19.4001 15 19.433C15 19.4659 15.0094 19.5035 15.0235 19.5364C15.0094 19.5693 15 19.6069 15 19.6398C15 19.6728 15.0094 19.7104 15.0235 19.7433C15.0094 19.7762 15 19.8138 15 19.8467C15 19.8796 15.0094 19.9172 15.0235 19.9501C15.0094 19.983 15 20.0207 15 20.0536C15 20.0865 15.0094 20.1241 15.0235 20.157C15.0094 20.1899 15 20.2275 15 20.2604C15 20.2933 15.0094 20.331 15.0235 20.3639C15.0094 20.3968 15 20.4344 15 20.4673C15 20.5002 15.0094 20.5378 15.0235 20.5707C15.0094 20.6036 15 20.6413 15 20.6742C15 20.7071 15.0094 20.7447 15.0235 20.7776C15.0094 20.8105 15 20.8481 15 20.881C15 20.9139 15.0094 20.9516 15.0235 20.9845C15.0094 21.0174 15 21.055 15 21.0879C15 21.1208 15.0094 21.1584 15.0235 21.1913C15.0094 21.2242 15 21.2618 15 21.2948C15 21.3277 15.0094 21.3653 15.0235 21.3982C15.0094 21.4311 15 21.4687 15 21.5016C15 21.5345 15.0094 21.5721 15.0235 21.6051C15.0094 21.638 15 21.6756 15 21.7085C15 21.7414 15.0094 21.779 15.0235 21.8119C15.0094 21.8448 15 21.8824 15 21.9153C15 21.9483 15.0094 21.9859 15.0235 22.0188C15.0094 22.0517 15 22.0893 15 22.1222C15 22.1551 15.0094 22.1927 15.0235 22.2256C15.0094 22.2586 15 22.2962 15 22.3291C15 22.362 15.0094 22.3996 15.0235 22.4325C15.0094 22.4654 15 22.503 15 22.5359C15 22.5689 15.0094 22.6065 15.0235 22.6394C15.0094 22.6723 15 22.7099 15 22.7428C15 22.7757 15.0094 22.8133 15.0235 22.8462C15.0094 22.8791 15 22.9168 15 22.9497C15 22.9826 15.0094 23.0202 15.0235 23.0531C15.0094 23.086 15 23.1236 15 23.1565C15 23.1894 15.0094 23.2271 15.0235 23.26C15.0094 23.2929 15 23.3305 15 23.3634C15 23.3963 15.0094 23.4339 15.0235 23.4668C15.0094 23.4997 15 23.5374 15 23.5703C15 23.6032 15.0094 23.6408 15.0235 23.6737C15.0094 23.7066 15 23.7442 15 23.7771C15 23.81 15.0094 23.8477 15.0235 23.8806C15.0094 23.9135 15 23.9511 15 23.984C15 24.0169 15.0094 24.0545 15.0235 24.0874C15.0094 24.1203 15 24.1579 15 24.1909C15 24.2238 15.0094 24.2614 15.0235 24.2943C15.0094 24.3272 15 24.3648 15 24.3977C15 24.4306 15.0094 24.4682 15.0235 24.5012C15.0094 24.5341 15 24.5717 15 24.6046C15 24.6375 15.0094 24.6751 15.0235 24.708C15.0094 24.7409 15 24.7785 15 24.8114C15 24.8444 15.0094 24.882 15.0235 24.9149C15.0094 24.9478 15 24.9854 15 25.0183C15 25.0512 15.0094 25.0888 15.0235 25.1217C15.0094 25.1547 15 25.1923 15 25.2252C15 25.2581 15.0094 25.2957 15.0235 25.3286C15.0094 25.3615 15 25.3991 15 25.432C15 25.465 15.0094 25.5026 15.0235 25.5355C15.0094 25.5684 15 25.606 15 25.6389C15 25.6718 15.0094 25.7094 15.0235 25.7423C15.0094 25.7752 15 25.8129 15 25.8458C15 25.8787 15.0094 25.9163 15.0235 25.9492C15.0094 25.9821 15 26.0197 15 26.0526C15 26.0855 15.0094 26.1232 15.0235 26.1561C15.0094 26.189 15 26.2266 15 26.2595C15 26.2924 15.0094 26.33 15.0235 26.3629C15.0094 26.3958 15 26.4335 15 26.4664C15 26.4993 15.0094 26.5369 15.0235 26.5698C15.0094 26.6027 15 26.6403 15 26.6732C15 26.7061 15.0094 26.7437 15.0235 26.7767C15.0094 26.8096 15 26.8472 15 26.8801C15 26.913 15.0094 26.9506 15.0235 26.9835C15.0094 27.0164 15 27.054 15 27.087C15 27.1199 15.0094 27.1575 15.0235 27.1904C15.0094 27.2233 15 27.2609 15 27.2938C15 27.3267 15.0094 27.3643 15.0235 27.3973C15.0094 27.4302 15 27.4678 15 27.5007C15 27.5336 15.0094 27.5712 15.0235 27.6041C15.0094 27.637 15 27.6746 15 27.7076C15 27.7405 15.0094 27.7781 15.0235 27.811C15.0094 27.8439 15 27.8815 15 27.9144C15 27.9473 15.0094 27.9849 15.0235 28.0178C15.0094 28.0508 15 28.0884 15 28.1213C15 28.1542 15.0094 28.1918 15.0235 28.2247C15.0094 28.2576 15 28.2952 15 28.3281C15 28.3611 15.0094 28.3987 15.0235 28.4316C15.0094 28.4645 15 28.5021 15 28.535C15 28.5679 15.0094 28.6055 15.0235 28.6384C15.0094 28.6713 15 28.709 15 28.7419C15 28.7748 15.0094 28.8124 15.0235 28.8453C15.0094 28.8782 15 28.9158 15 28.9487C15 28.9816 15.0094 29.0193 15.0235 29.0522C15.0094 29.0851 15 29.1227 15 29.1556C15 29.1885 15.0094 29.2261 15.0235 29.259C15.0094 29.2919 15 29.3296 15 29.3625C15 29.3954 15.0094 29.433 15.0235 29.4659C15.0094 29.4988 15 29.5364 15 29.5693C15 29.6022 15.0094 29.6399 15.0235 29.6728C15.0094 29.7057 15 29.7433 15 29.7762C15 29.8091 15.0094 29.8467 15.0235 29.8796C15.0094 29.9125 15 29.9501 15 29.9831C15 30.016 15.0094 30.0536 15.0235 30.0865C15.0094 30.1194 15 30.157 15 30.1899C15 30.2228 15.0094 30.2604 15.0235 30.2934C15.0094 30.3263 15 30.3639 15 30.3968C15 30.4297 15.0094 30.4673 15.0235 30.5002C15.0094 30.5331 15 30.5707 15 30.6036C15 30.6366 15.0094 30.6742 15.0235 30.7071C15.0094 30.74 15 30.7776 15 30.8105C15 30.8434 15.0094 30.881 15.0235 30.9139C15.0094 30.9469 15 30.9845 15 31.0174C15 31.0503 15.0094 31.0879 15.0235 31.1208C15.0094 31.1537 15 31.1913 15 31.2242C15 31.2572 15.0094 31.2948 15.0235 31.3277C15.0094 31.3606 15 31.3982 15 31.4311C15 31.464 15.0094 31.5016 15.0235 31.5345C15.0094 31.5674 15 31.6051 15 31.638C15 31.6709 15.0094 31.7085 15.0235 31.7414C15.0094 31.7743 15 31.8119 15 31.8448C15 31.8777 15.0094 31.9154 15.0235 31.9483C15.0094 31.9812 15 32.0188 15 32.0517C15 32.0846 15.0094 32.1222 15.0235 32.1551C15.0094 32.188 15 32.2257 15 32.2586C15 32.2915 15.0094 32.3291 15.0235 32.362C15.0094 32.3949 15 32.4325 15 32.4654C15 32.4983 15.0094 32.5359 15.0235 32.5689C15.0094 32.6018 15 32.6394 15 32.6723C15 32.7052 15.0094 32.7428 15.0235 32.7757C15.0094 32.8086 15 32.8462 15 32.8792C15 32.9121 15.0094 32.9497 15.0235 32.9826C15.0094 33.0155 15 33.0531 15 33.086C15 33.1189 15.0094 33.1565 15.0235 33.1894C15.0094 33.2224 15 33.26 15 33.2929C15 33.3258 15.0094 33.3634 15.0235 33.3963C15.0094 33.4292 15 33.4668 15 33.4997C15 33.5327 15.0094 33.5703 15.0235 33.6032C15.0094 33.6361 15 33.6737 15 33.7066C15 33.7395 15.0094 33.7771 15.0235 33.81C15.0094 33.843 15 33.8806 15 33.9135C15 33.9464 15.0094 33.984 15.0235 34.0169C15.0094 34.0498 15 34.0874 15 34.1203C15 34.1533 15.0094 34.1909 15.0235 34.2238C15.0094 34.2567 15 34.2943 15 34.3272C15 34.3601 15.0094 34.3977 15.0235 34.4306C15.0094 34.4635 15 34.5012 15 34.5341C15 34.567 15.0094 34.6046 15.0235 34.6375C15.0094 34.6704 15 34.708 15 34.7409C15 34.7738 15.0094 34.8115 15.0235 34.8444C15.0094 34.8773 15 34.9149 15 34.9478C15 34.9807 15.0094 35.0183 15.0235 35.0512C15.0094 35.0841 15 35.1218 15 35.1547C15 35.1876 15.0094 35.2252 15.0235 35.2581C15.0094 35.291 15 35.3286 15 35.3615C15 35.3944 15.0094 35.4321 15.0235 35.465C15.0094 35.4979 15 35.5355 15 35.5684C15 35.6013 15.0094 35.6389 15.0235 35.6718C15.0094 35.7047 15 35.7423 15 35.7753C15 35.8082 15.0094 35.8458 15.0235 35.8787C15.0094 35.9116 15 35.9492 15 35.9821C15 36.015 15.0094 36.0526 15.0235 36.0856C15.0094 36.1185 15 36.1561 15 36.189C15 36.2219 15.0094 36.2595 15.0235 36.2924C15.0094 36.3253 15 36.3629 15 36.3958C15 36.4288 15.0094 36.4664 15.0235 36.4993C15.0094 36.5322 15 36.5698 15 36.6027C15 36.6356 15.0094 36.6732 15.0235 36.7061C15.0094 36.7391 15 36.7767 15 36.8096C15 36.8425 15.0094 36.8801 15.0235 36.913C15.0094 36.9459 15 36.9835 15 37.0164C15 37.0494 15.0094 37.087 15.0235 37.1199C15.0094 37.1528 15 37.1904 15 37.2233C15 37.2562 15.0094 37.2938 15.0235 37.3267C15.0094 37.3596 15 37.3973 15 37.4302C15 37.4631 15.0094 37.5007 15.0235 37.5336C15.0094 37.5665 15 37.6041 15 37.637C15 37.6699 15.0094 37.7076 15.0235 37.7405C15.0094 37.7734 15 37.811 15 37.8439C15 37.8768 15.0094 37.9144 15.0235 37.9473C15.0094 37.9802 15 38.0179 15 38.0508C15 38.0837 15.0094 38.1213 15.0235 38.1542C15.0094 38.1871 15 38.2247 15 38.2576C15 38.2905 15.0094 38.3281 15.0235 38.3611C15.0094 38.394 15 38.4316 15 38.4645C15 38.4974 15.0094 38.535 15.0235 38.5679C15.0094 38.6008 15 38.6384 15 38.6714C15 38.7043 15.0094 38.7419 15.0235 38.7748C15.0094 38.8077 15 38.8453 15 38.8782C15 38.9111 15.0094 38.9487 15.0235 38.9817C15.0094 39.0146 15 39.0522 15 39.0851C15 39.118 15.0094 39.1556 15.0235 39.1885C15.0094 39.2214 15 39.259 15 39.2919C15 39.3249 15.0094 39.3625 15.0235 39.3954C15.0094 39.4283 15 39.4659 15 39.4988C15 39.5317 15.0094 39.5693 15.0235 39.6022C15.0094 39.6352 15 39.6728 15 39.7057C15 39.7386 15.0094 39.7762 15.0235 39.8091C15.0094 39.842 15 39.8796 15 39.9125C15 39.9455 15.0094 39.9831 15.0235 40.016C15.0094 40.0489 15 40.0865 15 40.1194C15 40.1523 15.0094 40.1899 15.0235 40.2228C15.0094 40.2557 15 40.2934 15 40.3263C15 41.2525 20.7499 42 27.8397 42C34.9295 42 40.6794 41.2525 40.6794 40.3263C40.6794 40.2934 40.67 40.2557 40.6559 40.2228C40.67 40.1899 40.6794 40.1523 40.6794 40.1194C40.6794 40.0865 40.67 40.0489 40.6559 40.016C40.67 39.9831 40.6794 39.9455 40.6794 39.9125C40.6794 39.8796 40.67 39.842 40.6559 39.8091C40.67 39.7762 40.6794 39.7386 40.6794 39.7057C40.6794 39.6728 40.67 39.6352 40.6559 39.6022C40.67 39.5693 40.6794 39.5317 40.6794 39.4988C40.6794 39.4659 40.67 39.4283 40.6559 39.3954C40.67 39.3625 40.6794 39.3249 40.6794 39.2919C40.6794 39.259 40.67 39.2214 40.6559 39.1885C40.67 39.1556 40.6794 39.118 40.6794 39.0851C40.6794 39.0522 40.67 39.0146 40.6559 38.9817C40.67 38.9487 40.6794 38.9111 40.6794 38.8782C40.6794 38.8453 40.67 38.8077 40.6559 38.7748C40.67 38.7419 40.6794 38.7043 40.6794 38.6714C40.6794 38.6384 40.67 38.6008 40.6559 38.5679C40.67 38.535 40.6794 38.4974 40.6794 38.4645C40.6794 38.4316 40.67 38.394 40.6559 38.3611C40.67 38.3281 40.6794 38.2905 40.6794 38.2576C40.6794 38.2247 40.67 38.1871 40.6559 38.1542C40.67 38.1213 40.6794 38.0837 40.6794 38.0508C40.6794 38.0179 40.67 37.9802 40.6559 37.9473C40.67 37.9144 40.6794 37.8768 40.6794 37.8439C40.6794 37.811 40.67 37.7734 40.6559 37.7405C40.67 37.7076 40.6794 37.6699 40.6794 37.637C40.6794 37.6041 40.67 37.5665 40.6559 37.5336C40.67 37.5007 40.6794 37.4631 40.6794 37.4302C40.6794 37.3973 40.67 37.3596 40.6559 37.3267C40.67 37.2938 40.6794 37.2562 40.6794 37.2233C40.6794 37.1904 40.67 37.1528 40.6559 37.1199C40.67 37.087 40.6794 37.0494 40.6794 37.0164C40.6794 36.9835 40.67 36.9459 40.6559 36.913C40.67 36.8801 40.6794 36.8425 40.6794 36.8096C40.6794 36.7767 40.67 36.7391 40.6559 36.7061C40.67 36.6732 40.6794 36.6356 40.6794 36.6027C40.6794 36.5698 40.67 36.5322 40.6559 36.4993C40.67 36.4664 40.6794 36.4288 40.6794 36.3958C40.6794 36.3629 40.67 36.3253 40.6559 36.2924C40.67 36.2595 40.6794 36.2219 40.6794 36.189C40.6794 36.1561 40.67 36.1185 40.6559 36.0856C40.67 36.0526 40.6794 36.015 40.6794 35.9821C40.6794 35.9492 40.67 35.9116 40.6559 35.8787C40.67 35.8458 40.6794 35.8082 40.6794 35.7753C40.6794 35.7423 40.67 35.7047 40.6559 35.6718C40.67 35.6389 40.6794 35.6013 40.6794 35.5684C40.6794 35.5355 40.67 35.4979 40.6559 35.465C40.67 35.4321 40.6794 35.3944 40.6794 35.3615C40.6794 35.3286 40.67 35.291 40.6559 35.2581C40.67 35.2252 40.6794 35.1876 40.6794 35.1547C40.6794 35.1218 40.67 35.0841 40.6559 35.0512C40.67 35.0183 40.6794 34.9807 40.6794 34.9478C40.6794 34.9149 40.67 34.8773 40.6559 34.8444C40.67 34.8115 40.6794 34.7738 40.6794 34.7409C40.6794 34.708 40.67 34.6704 40.6559 34.6375C40.67 34.6046 40.6794 34.567 40.6794 34.5341C40.6794 34.5012 40.67 34.4635 40.6559 34.4306C40.67 34.3977 40.6794 34.3601 40.6794 34.3272C40.6794 34.2943 40.67 34.2567 40.6559 34.2238C40.67 34.1909 40.6794 34.1533 40.6794 34.1203C40.6794 34.0921 40.6747 34.0639 40.6606 34.0357C42.4659 33.6314 45.2539 32.0705 46.937 29.8702C48.8129 27.4161 48.5966 23.5185 46.434 20.8481V20.9327ZM44.9201 28.8594C43.787 30.3451 41.9206 31.4076 40.6747 31.7085C40.6747 31.6756 40.6653 31.6427 40.6512 31.6098C40.6653 31.5769 40.6747 31.5392 40.6747 31.5063C40.6747 31.4734 40.6653 31.4358 40.6512 31.4029C40.6653 31.37 40.6747 31.3324 40.6747 31.2995C40.6747 31.2666 40.6653 31.2289 40.6512 31.196C40.6653 31.1631 40.6747 31.1255 40.6747 31.0926C40.6747 31.0597 40.6653 31.0221 40.6512 30.9892C40.6653 30.9563 40.6747 30.9186 40.6747 30.8857C40.6747 30.8528 40.6653 30.8152 40.6512 30.7823C40.6653 30.7494 40.6747 30.7118 40.6747 30.6789C40.6747 30.646 40.6653 30.6084 40.6512 30.5754C40.6653 30.5425 40.6747 30.5049 40.6747 30.472C40.6747 30.4391 40.6653 30.4015 40.6512 30.3686C40.6653 30.3357 40.6747 30.2981 40.6747 30.2651C40.6747 30.2322 40.6653 30.1946 40.6512 30.1617C40.6653 30.1288 40.6747 30.0912 40.6747 30.0583C40.6747 30.0254 40.6653 29.9878 40.6512 29.9548C40.6653 29.9219 40.6747 29.8843 40.6747 29.8514C40.6747 29.8185 40.6653 29.7809 40.6512 29.748C40.6653 29.7151 40.6747 29.6775 40.6747 29.6446C40.6747 29.6116 40.6653 29.574 40.6512 29.5411C40.6653 29.5082 40.6747 29.4706 40.6747 29.4377C40.6747 29.4048 40.6653 29.3672 40.6512 29.3343C40.6653 29.3013 40.6747 29.2637 40.6747 29.2308C40.6747 29.1979 40.6653 29.1603 40.6512 29.1274C40.6653 29.0945 40.6747 29.0569 40.6747 29.024C40.6747 28.991 40.6653 28.9534 40.6512 28.9205C40.6653 28.8876 40.6747 28.85 40.6747 28.8171C40.6747 28.7842 40.6653 28.7466 40.6512 28.7137C40.6653 28.6808 40.6747 28.6431 40.6747 28.6102C40.6747 28.5773 40.6653 28.5397 40.6512 28.5068C40.6653 28.4739 40.6747 28.4363 40.6747 28.4034C40.6747 28.3705 40.6653 28.3328 40.6512 28.2999C40.6653 28.267 40.6747 28.2294 40.6747 28.1965C40.6747 28.1636 40.6653 28.126 40.6512 28.0931C40.6653 28.0602 40.6747 28.0225 40.6747 27.9896C40.6747 27.9567 40.6653 27.9191 40.6512 27.8862C40.6653 27.8533 40.6747 27.8157 40.6747 27.7828C40.6747 27.7499 40.6653 27.7122 40.6512 27.6793C40.6653 27.6464 40.6747 27.6088 40.6747 27.5759C40.6747 27.543 40.6653 27.5054 40.6512 27.4725C40.6653 27.4396 40.6747 27.402 40.6747 27.369C40.6747 27.3361 40.6653 27.2985 40.6512 27.2656C40.6653 27.2327 40.6747 27.1951 40.6747 27.1622C40.6747 27.1293 40.6653 27.0917 40.6512 27.0587C40.6653 27.0258 40.6747 26.9882 40.6747 26.9553C40.6747 26.9224 40.6653 26.8848 40.6512 26.8519C40.6653 26.819 40.6747 26.7814 40.6747 26.7485C40.6747 26.7155 40.6653 26.6779 40.6512 26.645C40.6653 26.6121 40.6747 26.5745 40.6747 26.5416C40.6747 26.5087 40.6653 26.4711 40.6512 26.4382C40.6653 26.4052 40.6747 26.3676 40.6747 26.3347C40.6747 26.3018 40.6653 26.2642 40.6512 26.2313C40.6653 26.1984 40.6747 26.1608 40.6747 26.1279C40.6747 26.0949 40.6653 26.0573 40.6512 26.0244C40.6653 25.9915 40.6747 25.9539 40.6747 25.921C40.6747 25.8881 40.6653 25.8505 40.6512 25.8176C40.6653 25.7847 40.6747 25.747 40.6747 25.7141C40.6747 25.6812 40.6653 25.6436 40.6512 25.6107C40.6653 25.5778 40.6747 25.5402 40.6747 25.5073C40.6747 25.4744 40.6653 25.4367 40.6512 25.4038C40.6653 25.3709 40.6747 25.3333 40.6747 25.3004C40.6747 25.2675 40.6653 25.2299 40.6512 25.197C40.6653 25.1641 40.6747 25.1264 40.6747 25.0935C40.6747 25.0606 40.6653 25.023 40.6512 24.9901C40.6653 24.9572 40.6747 24.9196 40.6747 24.8867C40.6747 24.8538 40.6653 24.8162 40.6512 24.7832C40.6653 24.7503 40.6747 24.7127 40.6747 24.6798C40.6747 24.6469 40.6653 24.6093 40.6512 24.5764C40.6653 24.5435 40.6747 24.5059 40.6747 24.4729C40.6747 24.44 40.6653 24.4024 40.6512 24.3695C40.6653 24.3366 40.6747 24.299 40.6747 24.2661C40.6747 24.2332 40.6653 24.1956 40.6512 24.1626C40.6653 24.1297 40.6747 24.0921 40.6747 24.0592C40.6747 24.0263 40.6653 23.9887 40.6512 23.9558C40.6653 23.9229 40.6747 23.8853 40.6747 23.8524C40.6747 23.8194 40.6653 23.7818 40.6512 23.7489C40.6653 23.716 40.6747 23.6784 40.6747 23.6455C40.6747 23.6126 40.6653 23.575 40.6512 23.5421C40.6653 23.5091 40.6747 23.4715 40.6747 23.4386C40.6747 23.4057 40.6653 23.3681 40.6512 23.3352C40.6653 23.3023 40.6747 23.2647 40.6747 23.2318C40.6747 23.1988 40.6653 23.1612 40.6512 23.1283C40.6653 23.0954 40.6747 23.0578 40.6747 23.0249C40.6747 22.992 40.6653 22.9544 40.6512 22.9215C40.6653 22.8886 40.6747 22.8509 40.6747 22.818C40.6747 22.7851 40.6653 22.7475 40.6512 22.7146C40.6653 22.6817 40.6747 22.6441 40.6747 22.6112C40.6747 22.5783 40.6653 22.5406 40.6512 22.5077C40.6653 22.4748 40.6747 22.4372 40.6747 22.4043C40.6747 22.3714 40.6653 22.3338 40.6512 22.3009C40.6653 22.268 40.6747 22.2303 40.6747 22.1974C40.6747 22.1645 40.6653 22.1269 40.6512 22.094C40.6653 22.0611 40.6747 22.0235 40.6747 21.9906C40.6747 21.9577 40.6653 21.9201 40.6512 21.8871C40.6653 21.8542 40.6747 21.8166 40.6747 21.7837C40.6747 21.7508 40.6653 21.7132 40.6512 21.6803C40.6653 21.6474 40.6747 21.6098 40.6747 21.5768C40.6747 21.5439 40.6653 21.5063 40.6512 21.4734C40.6653 21.4405 40.6747 21.4029 40.6747 21.37C40.6747 21.3465 40.6747 21.3277 40.6653 21.3042C41.7607 21.2901 43.5755 21.4781 44.5722 22.7052C46.0626 24.5435 46.2083 27.2233 44.9201 28.9064V28.8594Z" fill="#F5E054"/>
<path d="M46.434 20.9327C44.9577 19.1133 42.245 18.8688 40.6653 18.897C40.6747 18.8735 40.6747 18.85 40.6747 18.8312C40.6747 18.7983 40.6653 18.7607 40.6512 18.7278C40.6653 18.6948 40.6747 18.6572 40.6747 18.6243C40.6747 18.5914 40.6653 18.5538 40.6512 18.5209C40.6653 18.488 40.6747 18.4504 40.6747 18.4175C40.6747 18.3846 40.6653 18.3469 40.6512 18.314C40.6653 18.2811 40.6747 18.2435 40.6747 18.2106C40.6747 18.1777 40.6653 18.1401 40.6512 18.1072C40.6653 18.0743 40.6747 18.0366 40.6747 18.0037C40.6747 17.9708 40.6653 17.9332 40.6512 17.9003C40.6653 17.8674 40.6747 17.8298 40.6747 17.7969C40.6747 17.764 40.6653 17.7263 40.6512 17.6934C40.6653 17.6605 40.6747 17.6229 40.6747 17.59C40.6747 17.5571 40.6653 17.5195 40.6512 17.4866C40.6653 17.4537 40.6747 17.4161 40.6747 17.3831C40.6747 17.3502 40.6653 17.3126 40.6512 17.2797C40.6653 17.2468 40.6747 17.2092 40.6747 17.1763C40.6747 17.1434 40.6653 17.1058 40.6512 17.0728C40.6653 17.0399 40.6747 17.0023 40.6747 16.9694C40.6747 16.9365 40.6653 16.8989 40.6512 16.866C40.6653 16.8331 40.6747 16.7955 40.6747 16.7625C40.6747 16.7296 40.6653 16.692 40.6512 16.6591C40.6653 16.6262 40.6747 16.5886 40.6747 16.5557C40.6747 16.5228 40.6653 16.4852 40.6512 16.4523C40.6653 16.4193 40.6747 16.3817 40.6747 16.3488C40.6747 16.3159 40.6653 16.2783 40.6512 16.2454C40.6653 16.2125 40.6747 16.1749 40.6747 16.142C40.6747 16.109 40.6653 16.0714 40.6512 16.0385C40.6653 16.0056 40.6747 15.968 40.6747 15.9351C40.6747 15.9022 40.6653 15.8646 40.6512 15.8317C40.6653 15.7988 40.6747 15.7611 40.6747 15.7282C40.6747 15.6953 40.6653 15.6577 40.6512 15.6248C40.6653 15.5919 40.6747 15.5543 40.6747 15.5214C40.6747 15.4885 40.6653 15.4508 40.6512 15.4179C40.6653 15.385 40.6747 15.3474 40.6747 15.3145C40.6747 15.2816 40.6653 15.244 40.6512 15.2111C40.6653 15.1782 40.6747 15.1405 40.6747 15.1076C40.6747 15.0747 40.6653 15.0371 40.6512 15.0042C40.6653 14.9713 40.6747 14.9337 40.6747 14.9008C40.6747 13.9746 34.9248 13.2271 27.835 13.2271C20.7452 13.2271 15 13.9558 15 14.882C15 14.9149 15.0094 14.9525 15.0235 14.9854C15.0094 15.0183 15 15.0559 15 15.0888C15 15.1217 15.0094 15.1594 15.0235 15.1923C15.0094 15.2252 15 15.2628 15 15.2957C15 15.3286 15.0094 15.3662 15.0235 15.3991C15.0094 15.432 15 15.4696 15 15.5026C15 15.5355 15.0094 15.5731 15.0235 15.606C15.0094 15.6389 15 15.6765 15 15.7094C15 15.7423 15.0094 15.7799 15.0235 15.8129C15.0094 15.8458 15 15.8834 15 15.9163C15 15.9492 15.0094 15.9868 15.0235 16.0197C15.0094 16.0526 15 16.0902 15 16.1232C15 16.1561 15.0094 16.1937 15.0235 16.2266C15.0094 16.2595 15 16.2971 15 16.33C15 16.3629 15.0094 16.4005 15.0235 16.4334C15.0094 16.4664 15 16.504 15 16.5369C15 16.5698 15.0094 16.6074 15.0235 16.6403C15.0094 16.6732 15 16.7108 15 16.7437C15 16.7767 15.0094 16.8143 15.0235 16.8472C15.0094 16.8801 15 16.9177 15 16.9506C15 16.9835 15.0094 17.0211 15.0235 17.054C15.0094 17.0869 15 17.1246 15 17.1575C15 17.1904 15.0094 17.228 15.0235 17.2609C15.0094 17.2938 15 17.3314 15 17.3643C15 17.3972 15.0094 17.4349 15.0235 17.4678C15.0094 17.5007 15 17.5383 15 17.5712C15 17.6041 15.0094 17.6417 15.0235 17.6746C15.0094 17.7075 15 17.7452 15 17.7781C15 17.811 15.0094 17.8486 15.0235 17.8815C15.0094 17.9144 15 17.952 15 17.9849C15 18.0178 15.0094 18.0555 15.0235 18.0884C15.0094 18.1213 15 18.1589 15 18.1918C15 18.2247 15.0094 18.2623 15.0235 18.2952C15.0094 18.3281 15 18.3657 15 18.3987C15 18.4316 15.0094 18.4692 15.0235 18.5021C15.0094 18.535 15 18.5726 15 18.6055C15 18.6384 15.0094 18.676 15.0235 18.709C15.0094 18.7419 15 18.7795 15 18.8124C15 18.8453 15.0094 18.8829 15.0235 18.9158C15.0094 18.9487 15 18.9863 15 19.0193C15 19.0522 15.0094 19.0898 15.0235 19.1227C15.0094 19.1556 15 19.1932 15 19.2261C15 19.259 15.0094 19.2966 15.0235 19.3295C15.0094 19.3625 15 19.4001 15 19.433C15 19.4659 15.0094 19.5035 15.0235 19.5364C15.0094 19.5693 15 19.6069 15 19.6398C15 19.6728 15.0094 19.7104 15.0235 19.7433C15.0094 19.7762 15 19.8138 15 19.8467C15 19.8796 15.0094 19.9172 15.0235 19.9501C15.0094 19.983 15 20.0207 15 20.0536C15 20.0865 15.0094 20.1241 15.0235 20.157C15.0094 20.1899 15 20.2275 15 20.2604C15 20.2933 15.0094 20.331 15.0235 20.3639C15.0094 20.3968 15 20.4344 15 20.4673C15 20.5002 15.0094 20.5378 15.0235 20.5707C15.0094 20.6036 15 20.6413 15 20.6742C15 20.7071 15.0094 20.7447 15.0235 20.7776C15.0094 20.8105 15 20.8481 15 20.881C15 20.9139 15.0094 20.9516 15.0235 20.9845C15.0094 21.0174 15 21.055 15 21.0879C15 21.1208 15.0094 21.1584 15.0235 21.1913C15.0094 21.2242 15 21.2618 15 21.2948C15 21.3277 15.0094 21.3653 15.0235 21.3982C15.0094 21.4311 15 21.4687 15 21.5016C15 21.5345 15.0094 21.5721 15.0235 21.6051C15.0094 21.638 15 21.6756 15 21.7085C15 21.7414 15.0094 21.779 15.0235 21.8119C15.0094 21.8448 15 21.8824 15 21.9153C15 21.9483 15.0094 21.9859 15.0235 22.0188C15.0094 22.0517 15 22.0893 15 22.1222C15 22.1551 15.0094 22.1927 15.0235 22.2256C15.0094 22.2586 15 22.2962 15 22.3291C15 22.362 15.0094 22.3996 15.0235 22.4325C15.0094 22.4654 15 22.503 15 22.5359C15 22.5689 15.0094 22.6065 15.0235 22.6394C15.0094 22.6723 15 22.7099 15 22.7428C15 22.7757 15.0094 22.8133 15.0235 22.8462C15.0094 22.8791 15 22.9168 15 22.9497C15 22.9826 15.0094 23.0202 15.0235 23.0531C15.0094 23.086 15 23.1236 15 23.1565C15 23.1894 15.0094 23.2271 15.0235 23.26C15.0094 23.2929 15 23.3305 15 23.3634C15 23.3963 15.0094 23.4339 15.0235 23.4668C15.0094 23.4997 15 23.5374 15 23.5703C15 23.6032 15.0094 23.6408 15.0235 23.6737C15.0094 23.7066 15 23.7442 15 23.7771C15 23.81 15.0094 23.8477 15.0235 23.8806C15.0094 23.9135 15 23.9511 15 23.984C15 24.0169 15.0094 24.0545 15.0235 24.0874C15.0094 24.1203 15 24.1579 15 24.1909C15 24.2238 15.0094 24.2614 15.0235 24.2943C15.0094 24.3272 15 24.3648 15 24.3977C15 24.4306 15.0094 24.4682 15.0235 24.5012C15.0094 24.5341 15 24.5717 15 24.6046C15 24.6375 15.0094 24.6751 15.0235 24.708C15.0094 24.7409 15 24.7785 15 24.8114C15 24.8444 15.0094 24.882 15.0235 24.9149C15.0094 24.9478 15 24.9854 15 25.0183C15 25.0512 15.0094 25.0888 15.0235 25.1217C15.0094 25.1547 15 25.1923 15 25.2252C15 25.2581 15.0094 25.2957 15.0235 25.3286C15.0094 25.3615 15 25.3991 15 25.432C15 25.465 15.0094 25.5026 15.0235 25.5355C15.0094 25.5684 15 25.606 15 25.6389C15 25.6718 15.0094 25.7094 15.0235 25.7423C15.0094 25.7752 15 25.8129 15 25.8458C15 25.8787 15.0094 25.9163 15.0235 25.9492C15.0094 25.9821 15 26.0197 15 26.0526C15 26.0855 15.0094 26.1232 15.0235 26.1561C15.0094 26.189 15 26.2266 15 26.2595C15 26.2924 15.0094 26.33 15.0235 26.3629C15.0094 26.3958 15 26.4335 15 26.4664C15 26.4993 15.0094 26.5369 15.0235 26.5698C15.0094 26.6027 15 26.6403 15 26.6732C15 26.7061 15.0094 26.7437 15.0235 26.7767C15.0094 26.8096 15 26.8472 15 26.8801C15 26.913 15.0094 26.9506 15.0235 26.9835C15.0094 27.0164 15 27.054 15 27.087C15 27.1199 15.0094 27.1575 15.0235 27.1904C15.0094 27.2233 15 27.2609 15 27.2938C15 27.3267 15.0094 27.3643 15.0235 27.3973C15.0094 27.4302 15 27.4678 15 27.5007C15 27.5336 15.0094 27.5712 15.0235 27.6041C15.0094 27.637 15 27.6746 15 27.7076C15 27.7405 15.0094 27.7781 15.0235 27.811C15.0094 27.8439 15 27.8815 15 27.9144C15 27.9473 15.0094 27.9849 15.0235 28.0178C15.0094 28.0508 15 28.0884 15 28.1213C15 28.1542 15.0094 28.1918 15.0235 28.2247C15.0094 28.2576 15 28.2952 15 28.3281C15 28.3611 15.0094 28.3987 15.0235 28.4316C15.0094 28.4645 15 28.5021 15 28.535C15 28.5679 15.0094 28.6055 15.0235 28.6384C15.0094 28.6713 15 28.709 15 28.7419C15 28.7748 15.0094 28.8124 15.0235 28.8453C15.0094 28.8782 15 28.9158 15 28.9487C15 28.9816 15.0094 29.0193 15.0235 29.0522C15.0094 29.0851 15 29.1227 15 29.1556C15 29.1885 15.0094 29.2261 15.0235 29.259C15.0094 29.2919 15 29.3296 15 29.3625C15 29.3954 15.0094 29.433 15.0235 29.4659C15.0094 29.4988 15 29.5364 15 29.5693C15 29.6022 15.0094 29.6399 15.0235 29.6728C15.0094 29.7057 15 29.7433 15 29.7762C15 29.8091 15.0094 29.8467 15.0235 29.8796C15.0094 29.9125 15 29.9501 15 29.9831C15 30.016 15.0094 30.0536 15.0235 30.0865C15.0094 30.1194 15 30.157 15 30.1899C15 30.2228 15.0094 30.2604 15.0235 30.2934C15.0094 30.3263 15 30.3639 15 30.3968C15 30.4297 15.0094 30.4673 15.0235 30.5002C15.0094 30.5331 15 30.5707 15 30.6036C15 30.6366 15.0094 30.6742 15.0235 30.7071C15.0094 30.74 15 30.7776 15 30.8105C15 30.8434 15.0094 30.881 15.0235 30.9139C15.0094 30.9469 15 30.9845 15 31.0174C15 31.0503 15.0094 31.0879 15.0235 31.1208C15.0094 31.1537 15 31.1913 15 31.2242C15 31.2572 15.0094 31.2948 15.0235 31.3277C15.0094 31.3606 15 31.3982 15 31.4311C15 31.464 15.0094 31.5016 15.0235 31.5345C15.0094 31.5674 15 31.6051 15 31.638C15 31.6709 15.0094 31.7085 15.0235 31.7414C15.0094 31.7743 15 31.8119 15 31.8448C15 31.8777 15.0094 31.9154 15.0235 31.9483C15.0094 31.9812 15 32.0188 15 32.0517C15 32.0846 15.0094 32.1222 15.0235 32.1551C15.0094 32.188 15 32.2257 15 32.2586C15 32.2915 15.0094 32.3291 15.0235 32.362C15.0094 32.3949 15 32.4325 15 32.4654C15 32.4983 15.0094 32.5359 15.0235 32.5689C15.0094 32.6018 15 32.6394 15 32.6723C15 32.7052 15.0094 32.7428 15.0235 32.7757C15.0094 32.8086 15 32.8462 15 32.8792C15 32.9121 15.0094 32.9497 15.0235 32.9826C15.0094 33.0155 15 33.0531 15 33.086C15 33.1189 15.0094 33.1565 15.0235 33.1894C15.0094 33.2224 15 33.26 15 33.2929C15 33.3258 15.0094 33.3634 15.0235 33.3963C15.0094 33.4292 15 33.4668 15 33.4997C15 33.5327 15.0094 33.5703 15.0235 33.6032C15.0094 33.6361 15 33.6737 15 33.7066C15 33.7395 15.0094 33.7771 15.0235 33.81C15.0094 33.843 15 33.8806 15 33.9135C15 33.9464 15.0094 33.984 15.0235 34.0169C15.0094 34.0498 15 34.0874 15 34.1203C15 34.1533 15.0094 34.1909 15.0235 34.2238C15.0094 34.2567 15 34.2943 15 34.3272C15 34.3601 15.0094 34.3977 15.0235 34.4306C15.0094 34.4635 15 34.5012 15 34.5341C15 34.567 15.0094 34.6046 15.0235 34.6375C15.0094 34.6704 15 34.708 15 34.7409C15 34.7738 15.0094 34.8115 15.0235 34.8444C15.0094 34.8773 15 34.9149 15 34.9478C15 34.9807 15.0094 35.0183 15.0235 35.0512C15.0094 35.0841 15 35.1218 15 35.1547C15 35.1876 15.0094 35.2252 15.0235 35.2581C15.0094 35.291 15 35.3286 15 35.3615C15 35.3944 15.0094 35.4321 15.0235 35.465C15.0094 35.4979 15 35.5355 15 35.5684C15 35.6013 15.0094 35.6389 15.0235 35.6718C15.0094 35.7047 15 35.7423 15 35.7753C15 35.8082 15.0094 35.8458 15.0235 35.8787C15.0094 35.9116 15 35.9492 15 35.9821C15 36.015 15.0094 36.0526 15.0235 36.0856C15.0094 36.1185 15 36.1561 15 36.189C15 36.2219 15.0094 36.2595 15.0235 36.2924C15.0094 36.3253 15 36.3629 15 36.3958C15 36.4288 15.0094 36.4664 15.0235 36.4993C15.0094 36.5322 15 36.5698 15 36.6027C15 36.6356 15.0094 36.6732 15.0235 36.7061C15.0094 36.7391 15 36.7767 15 36.8096C15 36.8425 15.0094 36.8801 15.0235 36.913C15.0094 36.9459 15 36.9835 15 37.0164C15 37.0494 15.0094 37.087 15.0235 37.1199C15.0094 37.1528 15 37.1904 15 37.2233C15 37.2562 15.0094 37.2938 15.0235 37.3267C15.0094 37.3596 15 37.3973 15 37.4302C15 37.4631 15.0094 37.5007 15.0235 37.5336C15.0094 37.5665 15 37.6041 15 37.637C15 37.6699 15.0094 37.7076 15.0235 37.7405C15.0094 37.7734 15 37.811 15 37.8439C15 37.8768 15.0094 37.9144 15.0235 37.9473C15.0094 37.9802 15 38.0179 15 38.0508C15 38.0837 15.0094 38.1213 15.0235 38.1542C15.0094 38.1871 15 38.2247 15 38.2576C15 38.2905 15.0094 38.3281 15.0235 38.3611C15.0094 38.394 15 38.4316 15 38.4645C15 38.4974 15.0094 38.535 15.0235 38.5679C15.0094 38.6008 15 38.6384 15 38.6714C15 38.7043 15.0094 38.7419 15.0235 38.7748C15.0094 38.8077 15 38.8453 15 38.8782C15 38.9111 15.0094 38.9487 15.0235 38.9817C15.0094 39.0146 15 39.0522 15 39.0851C15 39.118 15.0094 39.1556 15.0235 39.1885C15.0094 39.2214 15 39.259 15 39.2919C15 39.3249 15.0094 39.3625 15.0235 39.3954C15.0094 39.4283 15 39.4659 15 39.4988C15 39.5317 15.0094 39.5693 15.0235 39.6022C15.0094 39.6352 15 39.6728 15 39.7057C15 39.7386 15.0094 39.7762 15.0235 39.8091C15.0094 39.842 15 39.8796 15 39.9125C15 39.9455 15.0094 39.9831 15.0235 40.016C15.0094 40.0489 15 40.0865 15 40.1194C15 40.1523 15.0094 40.1899 15.0235 40.2228C15.0094 40.2557 15 40.2934 15 40.3263C15 41.2525 20.7499 42 27.8397 42C34.9295 42 40.6794 41.2525 40.6794 40.3263C40.6794 40.2934 40.67 40.2557 40.6559 40.2228C40.67 40.1899 40.6794 40.1523 40.6794 40.1194C40.6794 40.0865 40.67 40.0489 40.6559 40.016C40.67 39.9831 40.6794 39.9455 40.6794 39.9125C40.6794 39.8796 40.67 39.842 40.6559 39.8091C40.67 39.7762 40.6794 39.7386 40.6794 39.7057C40.6794 39.6728 40.67 39.6352 40.6559 39.6022C40.67 39.5693 40.6794 39.5317 40.6794 39.4988C40.6794 39.4659 40.67 39.4283 40.6559 39.3954C40.67 39.3625 40.6794 39.3249 40.6794 39.2919C40.6794 39.259 40.67 39.2214 40.6559 39.1885C40.67 39.1556 40.6794 39.118 40.6794 39.0851C40.6794 39.0522 40.67 39.0146 40.6559 38.9817C40.67 38.9487 40.6794 38.9111 40.6794 38.8782C40.6794 38.8453 40.67 38.8077 40.6559 38.7748C40.67 38.7419 40.6794 38.7043 40.6794 38.6714C40.6794 38.6384 40.67 38.6008 40.6559 38.5679C40.67 38.535 40.6794 38.4974 40.6794 38.4645C40.6794 38.4316 40.67 38.394 40.6559 38.3611C40.67 38.3281 40.6794 38.2905 40.6794 38.2576C40.6794 38.2247 40.67 38.1871 40.6559 38.1542C40.67 38.1213 40.6794 38.0837 40.6794 38.0508C40.6794 38.0179 40.67 37.9802 40.6559 37.9473C40.67 37.9144 40.6794 37.8768 40.6794 37.8439C40.6794 37.811 40.67 37.7734 40.6559 37.7405C40.67 37.7076 40.6794 37.6699 40.6794 37.637C40.6794 37.6041 40.67 37.5665 40.6559 37.5336C40.67 37.5007 40.6794 37.4631 40.6794 37.4302C40.6794 37.3973 40.67 37.3596 40.6559 37.3267C40.67 37.2938 40.6794 37.2562 40.6794 37.2233C40.6794 37.1904 40.67 37.1528 40.6559 37.1199C40.67 37.087 40.6794 37.0494 40.6794 37.0164C40.6794 36.9835 40.67 36.9459 40.6559 36.913C40.67 36.8801 40.6794 36.8425 40.6794 36.8096C40.6794 36.7767 40.67 36.7391 40.6559 36.7061C40.67 36.6732 40.6794 36.6356 40.6794 36.6027C40.6794 36.5698 40.67 36.5322 40.6559 36.4993C40.67 36.4664 40.6794 36.4288 40.6794 36.3958C40.6794 36.3629 40.67 36.3253 40.6559 36.2924C40.67 36.2595 40.6794 36.2219 40.6794 36.189C40.6794 36.1561 40.67 36.1185 40.6559 36.0856C40.67 36.0526 40.6794 36.015 40.6794 35.9821C40.6794 35.9492 40.67 35.9116 40.6559 35.8787C40.67 35.8458 40.6794 35.8082 40.6794 35.7753C40.6794 35.7423 40.67 35.7047 40.6559 35.6718C40.67 35.6389 40.6794 35.6013 40.6794 35.5684C40.6794 35.5355 40.67 35.4979 40.6559 35.465C40.67 35.4321 40.6794 35.3944 40.6794 35.3615C40.6794 35.3286 40.67 35.291 40.6559 35.2581C40.67 35.2252 40.6794 35.1876 40.6794 35.1547C40.6794 35.1218 40.67 35.0841 40.6559 35.0512C40.67 35.0183 40.6794 34.9807 40.6794 34.9478C40.6794 34.9149 40.67 34.8773 40.6559 34.8444C40.67 34.8115 40.6794 34.7738 40.6794 34.7409C40.6794 34.708 40.67 34.6704 40.6559 34.6375C40.67 34.6046 40.6794 34.567 40.6794 34.5341C40.6794 34.5012 40.67 34.4635 40.6559 34.4306C40.67 34.3977 40.6794 34.3601 40.6794 34.3272C40.6794 34.2943 40.67 34.2567 40.6559 34.2238C40.67 34.1909 40.6794 34.1533 40.6794 34.1203C40.6794 34.0921 40.6747 34.0639 40.6606 34.0357C42.4659 33.6314 45.2539 32.0705 46.937 29.8702C48.8129 27.4161 48.5966 23.5185 46.434 20.8481V20.9327ZM44.9201 28.8594C43.787 30.3451 41.9206 31.4076 40.6747 31.7085C40.6747 31.6756 40.6653 31.6427 40.6512 31.6098C40.6653 31.5769 40.6747 31.5392 40.6747 31.5063C40.6747 31.4734 40.6653 31.4358 40.6512 31.4029C40.6653 31.37 40.6747 31.3324 40.6747 31.2995C40.6747 31.2666 40.6653 31.2289 40.6512 31.196C40.6653 31.1631 40.6747 31.1255 40.6747 31.0926C40.6747 31.0597 40.6653 31.0221 40.6512 30.9892C40.6653 30.9563 40.6747 30.9186 40.6747 30.8857C40.6747 30.8528 40.6653 30.8152 40.6512 30.7823C40.6653 30.7494 40.6747 30.7118 40.6747 30.6789C40.6747 30.646 40.6653 30.6084 40.6512 30.5754C40.6653 30.5425 40.6747 30.5049 40.6747 30.472C40.6747 30.4391 40.6653 30.4015 40.6512 30.3686C40.6653 30.3357 40.6747 30.2981 40.6747 30.2651C40.6747 30.2322 40.6653 30.1946 40.6512 30.1617C40.6653 30.1288 40.6747 30.0912 40.6747 30.0583C40.6747 30.0254 40.6653 29.9878 40.6512 29.9548C40.6653 29.9219 40.6747 29.8843 40.6747 29.8514C40.6747 29.8185 40.6653 29.7809 40.6512 29.748C40.6653 29.7151 40.6747 29.6775 40.6747 29.6446C40.6747 29.6116 40.6653 29.574 40.6512 29.5411C40.6653 29.5082 40.6747 29.4706 40.6747 29.4377C40.6747 29.4048 40.6653 29.3672 40.6512 29.3343C40.6653 29.3013 40.6747 29.2637 40.6747 29.2308C40.6747 29.1979 40.6653 29.1603 40.6512 29.1274C40.6653 29.0945 40.6747 29.0569 40.6747 29.024C40.6747 28.991 40.6653 28.9534 40.6512 28.9205C40.6653 28.8876 40.6747 28.85 40.6747 28.8171C40.6747 28.7842 40.6653 28.7466 40.6512 28.7137C40.6653 28.6808 40.6747 28.6431 40.6747 28.6102C40.6747 28.5773 40.6653 28.5397 40.6512 28.5068C40.6653 28.4739 40.6747 28.4363 40.6747 28.4034C40.6747 28.3705 40.6653 28.3328 40.6512 28.2999C40.6653 28.267 40.6747 28.2294 40.6747 28.1965C40.6747 28.1636 40.6653 28.126 40.6512 28.0931C40.6653 28.0602 40.6747 28.0225 40.6747 27.9896C40.6747 27.9567 40.6653 27.9191 40.6512 27.8862C40.6653 27.8533 40.6747 27.8157 40.6747 27.7828C40.6747 27.7499 40.6653 27.7122 40.6512 27.6793C40.6653 27.6464 40.6747 27.6088 40.6747 27.5759C40.6747 27.543 40.6653 27.5054 40.6512 27.4725C40.6653 27.4396 40.6747 27.402 40.6747 27.369C40.6747 27.3361 40.6653 27.2985 40.6512 27.2656C40.6653 27.2327 40.6747 27.1951 40.6747 27.1622C40.6747 27.1293 40.6653 27.0917 40.6512 27.0587C40.6653 27.0258 40.6747 26.9882 40.6747 26.9553C40.6747 26.9224 40.6653 26.8848 40.6512 26.8519C40.6653 26.819 40.6747 26.7814 40.6747 26.7485C40.6747 26.7155 40.6653 26.6779 40.6512 26.645C40.6653 26.6121 40.6747 26.5745 40.6747 26.5416C40.6747 26.5087 40.6653 26.4711 40.6512 26.4382C40.6653 26.4052 40.6747 26.3676 40.6747 26.3347C40.6747 26.3018 40.6653 26.2642 40.6512 26.2313C40.6653 26.1984 40.6747 26.1608 40.6747 26.1279C40.6747 26.0949 40.6653 26.0573 40.6512 26.0244C40.6653 25.9915 40.6747 25.9539 40.6747 25.921C40.6747 25.8881 40.6653 25.8505 40.6512 25.8176C40.6653 25.7847 40.6747 25.747 40.6747 25.7141C40.6747 25.6812 40.6653 25.6436 40.6512 25.6107C40.6653 25.5778 40.6747 25.5402 40.6747 25.5073C40.6747 25.4744 40.6653 25.4367 40.6512 25.4038C40.6653 25.3709 40.6747 25.3333 40.6747 25.3004C40.6747 25.2675 40.6653 25.2299 40.6512 25.197C40.6653 25.1641 40.6747 25.1264 40.6747 25.0935C40.6747 25.0606 40.6653 25.023 40.6512 24.9901C40.6653 24.9572 40.6747 24.9196 40.6747 24.8867C40.6747 24.8538 40.6653 24.8162 40.6512 24.7832C40.6653 24.7503 40.6747 24.7127 40.6747 24.6798C40.6747 24.6469 40.6653 24.6093 40.6512 24.5764C40.6653 24.5435 40.6747 24.5059 40.6747 24.4729C40.6747 24.44 40.6653 24.4024 40.6512 24.3695C40.6653 24.3366 40.6747 24.299 40.6747 24.2661C40.6747 24.2332 40.6653 24.1956 40.6512 24.1626C40.6653 24.1297 40.6747 24.0921 40.6747 24.0592C40.6747 24.0263 40.6653 23.9887 40.6512 23.9558C40.6653 23.9229 40.6747 23.8853 40.6747 23.8524C40.6747 23.8194 40.6653 23.7818 40.6512 23.7489C40.6653 23.716 40.6747 23.6784 40.6747 23.6455C40.6747 23.6126 40.6653 23.575 40.6512 23.5421C40.6653 23.5091 40.6747 23.4715 40.6747 23.4386C40.6747 23.4057 40.6653 23.3681 40.6512 23.3352C40.6653 23.3023 40.6747 23.2647 40.6747 23.2318C40.6747 23.1988 40.6653 23.1612 40.6512 23.1283C40.6653 23.0954 40.6747 23.0578 40.6747 23.0249C40.6747 22.992 40.6653 22.9544 40.6512 22.9215C40.6653 22.8886 40.6747 22.8509 40.6747 22.818C40.6747 22.7851 40.6653 22.7475 40.6512 22.7146C40.6653 22.6817 40.6747 22.6441 40.6747 22.6112C40.6747 22.5783 40.6653 22.5406 40.6512 22.5077C40.6653 22.4748 40.6747 22.4372 40.6747 22.4043C40.6747 22.3714 40.6653 22.3338 40.6512 22.3009C40.6653 22.268 40.6747 22.2303 40.6747 22.1974C40.6747 22.1645 40.6653 22.1269 40.6512 22.094C40.6653 22.0611 40.6747 22.0235 40.6747 21.9906C40.6747 21.9577 40.6653 21.9201 40.6512 21.8871C40.6653 21.8542 40.6747 21.8166 40.6747 21.7837C40.6747 21.7508 40.6653 21.7132 40.6512 21.6803C40.6653 21.6474 40.6747 21.6098 40.6747 21.5768C40.6747 21.5439 40.6653 21.5063 40.6512 21.4734C40.6653 21.4405 40.6747 21.4029 40.6747 21.37C40.6747 21.3465 40.6747 21.3277 40.6653 21.3042C41.7607 21.2901 43.5755 21.4781 44.5722 22.7052C46.0626 24.5435 46.2083 27.2233 44.9201 28.9064V28.8594Z" stroke="#352416" stroke-width="2.01308" stroke-linejoin="round" mask="url(#path-3-outside-1_1189_1740)"/>
</g>
<path d="M27.8397 16.3474C34.9309 16.3474 40.6794 15.5981 40.6794 14.6737C40.6794 13.7494 34.9309 13 27.8397 13C20.7485 13 15 13.7494 15 14.6737C15 15.5981 20.7485 16.3474 27.8397 16.3474Z" fill="#48170B"/>
<path d="M27.8403 36.8892C32.2622 36.8892 35.8469 33.3045 35.8469 28.8826C35.8469 24.4606 32.2622 20.876 27.8403 20.876C23.4184 20.876 19.8337 24.4606 19.8337 28.8826C19.8337 33.3045 23.4184 36.8892 27.8403 36.8892Z" fill="white"/>
<path d="M27.84 35.4363C31.4596 35.4363 34.3938 32.502 34.3938 28.8825C34.3938 25.2629 31.4596 22.3286 27.84 22.3286C24.2204 22.3286 21.2861 25.2629 21.2861 28.8825C21.2861 32.502 24.2204 35.4363 27.84 35.4363Z" fill="white"/>
<path d="M27.8406 35.5968C24.1406 35.5968 21.127 32.5879 21.127 28.8831C21.127 25.1784 24.1359 22.1694 27.8406 22.1694C31.5454 22.1694 34.5543 25.1784 34.5543 28.8831C34.5543 32.5879 31.5454 35.5968 27.8406 35.5968ZM27.8406 22.4844C24.3145 22.4844 21.442 25.357 21.442 28.8831C21.442 32.4092 24.3145 35.2818 27.8406 35.2818C31.3667 35.2818 34.2393 32.4092 34.2393 28.8831C34.2393 25.357 31.3667 22.4844 27.8406 22.4844Z" fill="#C2C2C2"/>
<path d="M29.8309 30.7525C31.5494 29.034 32.0525 26.7508 30.9545 25.6529C29.8566 24.5549 27.5734 25.058 25.8548 26.7765C24.1363 28.495 23.6332 30.7782 24.7312 31.8762C25.8291 32.9741 28.1123 32.4711 29.8309 30.7525Z" fill="#6E3722"/>
<path d="M25.2541 31.2926C25.0425 30.0608 25.6866 28.6456 26.9278 28.2319C27.0548 28.1849 27.1864 28.1567 27.318 28.1191C27.9386 27.9686 28.5122 27.6724 29.0576 27.2869C29.5653 26.9155 30.0496 26.483 30.5197 26.0034C30.0966 27.2164 29.0952 28.2695 27.8681 28.7068C27.6847 28.7726 27.445 28.8243 27.2569 28.8713C26.138 29.1628 25.5785 30.2065 25.2588 31.2926H25.2541Z" fill="#4B2315"/>
<defs>
<filter id="filter0_d_1189_1740" x="12.9869" y="12.2207" width="36.2321" height="32.7987" filterUnits="userSpaceOnUse" color-interpolation-filters="sRGB">
<feFlood flood-opacity="0" result="BackgroundImageFix"/>
<feColorMatrix in="SourceAlpha" type="matrix" values="0 0 0 0 0 0 0 0 0 0 0 0 0 0 0 0 0 0 127 0" result="hardAlpha"/>
<feOffset dx="-1.00654" dy="2.01308"/>
<feComposite in2="hardAlpha" operator="out"/>
<feColorMatrix type="matrix" values="0 0 0 0 0 0 0 0 0 0 0 0 0 0 0 0 0 0 0.25 0"/>
<feBlend mode="normal" in2="BackgroundImageFix" result="effect1_dropShadow_1189_1740"/>
<feBlend mode="normal" in="SourceGraphic" in2="effect1_dropShadow_1189_1740" result="shape"/>
</filter>
</defs>
</svg>
