<svg width="64" height="64" viewBox="0 0 64 64" fill="none" xmlns="http://www.w3.org/2000/svg">
<path d="M48.9791 39.2795L43.7991 34.1095H43.7791C43.1991 33.5295 42.8891 32.7895 42.8891 32.0095C42.8891 31.2295 43.1991 30.4595 43.7791 29.9095L48.9491 24.7295C51.4591 22.2295 52.8391 18.8895 52.8391 15.3295C52.8391 11.7695 49.9091 8.76953 46.2791 8.76953H17.6791C14.0491 8.76953 11.1191 11.7095 11.1191 15.3295C11.1191 18.9495 12.4991 22.2295 15.0091 24.7295L20.1791 29.9095C20.7591 30.4795 21.0691 31.2195 21.0691 32.0095C21.0691 32.7995 20.7591 33.5595 20.1791 34.1095L15.0091 39.2795C12.4991 41.7895 11.1191 45.1295 11.1191 48.6795C11.1191 52.2295 14.0491 55.2395 17.6791 55.2395H46.3091C49.9291 55.2395 52.8691 52.3095 52.8691 48.6795C52.8691 45.0495 51.4791 41.7895 48.9791 39.2795ZM46.3191 51.6795H17.6891C16.0391 51.6795 14.7091 50.3395 14.7091 48.6995C14.7091 46.0995 15.7091 43.6595 17.5491 41.8295L22.7191 36.6495C23.9591 35.4095 24.6491 33.7595 24.6491 32.0195C24.6491 30.2795 23.9591 28.6095 22.7191 27.3895L17.5491 22.2195C15.7091 20.3795 14.7091 17.9495 14.7091 15.3495C14.7091 13.6995 16.0391 12.3595 17.6891 12.3595H46.3191C47.9591 12.3595 49.2991 13.6995 49.2991 15.3495C49.2991 17.9495 48.2991 20.3795 46.4591 22.2195L41.2791 27.3895C40.0391 28.6295 39.3491 30.2795 39.3491 32.0195C39.3491 33.7595 40.0391 35.4295 41.2791 36.6495L46.4591 41.8295C48.2991 43.6595 49.2991 46.0995 49.2991 48.6995C49.2991 50.3395 47.9591 51.6795 46.3191 51.6795Z" fill="url(#paint0_linear_2001_5268)"/>
<path d="M41.139 40.9903L34.959 34.8103C33.389 33.2403 30.639 33.2403 29.069 34.8103L22.889 40.9903C21.699 42.1803 21.339 43.9703 21.979 45.5503C22.629 47.1203 24.149 48.1203 25.849 48.1203H38.179C39.869 48.1203 41.379 47.1203 42.049 45.5503C42.689 43.9703 42.329 42.1803 41.139 40.9903ZM38.739 44.1603H38.719C38.669 44.3103 38.529 44.5203 38.169 44.5203H25.839C25.479 44.5203 25.339 44.2803 25.289 44.1603C25.239 44.0203 25.169 43.7603 25.409 43.5203L31.589 37.3403C31.589 37.3403 31.849 37.1703 32.019 37.1703C32.179 37.1703 32.329 37.2203 32.449 37.3403L38.619 43.5203C38.859 43.7603 38.819 44.0203 38.739 44.1603Z" fill="url(#paint1_linear_2001_5268)"/>
<path d="M38.7398 44.1599H38.7198C38.6698 44.3099 38.5298 44.5199 38.1698 44.5199H25.8398C25.4798 44.5199 25.3398 44.2799 25.2898 44.1599C25.2398 44.0199 25.1698 43.7599 25.4098 43.5199L31.5898 37.3399C31.5898 37.3399 31.8498 37.1699 32.0198 37.1699C32.1798 37.1699 32.3298 37.2199 32.4498 37.3399L38.6198 43.5199C38.8598 43.7599 38.8198 44.0199 38.7398 44.1599Z" fill="url(#paint2_linear_2001_5268)"/>
<defs>
<linearGradient id="paint0_linear_2001_5268" x1="16.6501" y1="12.0481" x2="38.9681" y2="55.147" gradientUnits="userSpaceOnUse">
<stop stop-color="white"/>
<stop offset="1" stop-color="#5867FE"/>
</linearGradient>
<linearGradient id="paint1_linear_2001_5268" x1="24.4078" y1="34.6549" x2="29.4249" y2="50.0605" gradientUnits="userSpaceOnUse">
<stop stop-color="white"/>
<stop offset="1" stop-color="#5867FE"/>
</linearGradient>
<linearGradient id="paint2_linear_2001_5268" x1="27.0368" y1="37.6885" x2="29.0863" y2="45.8165" gradientUnits="userSpaceOnUse">
<stop stop-color="white"/>
<stop offset="1" stop-color="#5867FE"/>
</linearGradient>
</defs>
</svg>
