<svg width="56" height="56" viewBox="0 0 56 56" fill="none" xmlns="http://www.w3.org/2000/svg">
<g filter="url(#filter0_d_1363_6281)">
<path fill-rule="evenodd" clip-rule="evenodd" d="M41.8122 21.9351C42.6139 23.587 43.3907 25.2509 44.1675 26.9148C44.7381 28.1372 45.3088 29.3596 45.8894 30.5773L45.8875 30.5763C46.1571 31.1412 46.2638 31.7118 46.3085 32.3263C46.48 34.7097 46.0351 36.9532 44.9663 39.0966C43.8117 41.4124 42.579 43.6815 41.2539 45.903C40.9329 46.4413 40.8233 46.406 40.4623 45.9516C39.3839 44.5928 38.3058 43.2333 37.2277 41.8737C36.482 40.9333 35.7363 39.993 34.9904 39.0527C34.9483 38.9999 34.9055 38.9488 34.8755 38.913C34.8682 38.9043 34.8617 38.8965 34.8561 38.8898C34.7597 39.0294 34.6652 39.168 34.5715 39.3055C34.3588 39.6174 34.15 39.9237 33.9311 40.2225C33.6511 40.6036 33.3586 40.977 33.0509 41.3371L33.0207 41.3725C32.7581 41.6803 32.4913 41.9929 32.1831 42.2507C31.7629 42.6025 31.5334 43.065 31.3025 43.5304C31.2633 43.6095 31.224 43.6886 31.1838 43.7673C31.1109 43.9097 31.0397 44.0531 30.9684 44.1965C30.8058 44.5237 30.6432 44.851 30.4617 45.1676C30.0416 45.9011 29.8215 46.6985 29.6567 47.5168C29.5849 47.8757 29.4015 47.9557 29.2561 47.9857C29.2552 47.9883 29.2523 47.9929 29.2471 48C29.2434 47.9971 29.2397 47.9949 29.2359 47.9932C29.2388 47.9913 29.2415 47.9896 29.244 47.9881C29.2391 47.9891 29.2342 47.99 29.2294 47.9908C29.207 47.9844 29.1827 47.9947 29.1603 48.0043C29.1313 48.0167 29.1053 48.0279 29.0899 48C28.5641 48.1133 28.1363 46.8033 28.1754 45.6277C28.1806 45.4644 28.2045 45.302 28.2306 45.1242C28.2427 45.0416 28.2554 44.9556 28.2668 44.8647C28.1653 44.9239 28.0642 44.9799 27.9644 45.0351C27.7562 45.1503 27.5537 45.2623 27.3657 45.3943C25.9996 46.3546 24.5802 47.2253 23.0913 47.9797C22.9119 48.0703 22.7291 48.1544 22.5462 48.2385C22.3463 48.3304 22.1464 48.4223 21.951 48.5227C21.77 48.6161 21.6585 48.5704 21.5566 48.417C21.4697 48.2862 21.3805 48.1568 21.2914 48.0275C21.1234 47.7839 20.9555 47.5404 20.8031 47.2872C20.6818 47.0857 20.5599 46.8844 20.438 46.6831C19.9755 45.9197 19.5127 45.1556 19.0845 44.3731C18.4025 43.1252 17.9147 41.7801 17.6156 40.3893C17.2774 38.8155 16.8725 37.2628 16.2067 35.7929C16.1376 35.6403 16.0209 35.5096 15.9036 35.3784C15.8364 35.3032 15.769 35.2278 15.7104 35.1479C15.6306 35.0396 15.556 34.9274 15.4813 34.8151C15.3991 34.6914 15.3168 34.5676 15.2274 34.4487C15.0083 34.1582 14.7806 33.8733 14.5462 33.5942C14.4304 33.4562 14.31 33.322 14.1897 33.1879C14.0568 33.0398 13.924 32.8918 13.7975 32.7388C12.7229 31.4394 11.6512 30.1371 10.5814 28.834C10.4481 28.6711 10.3242 28.4986 10.2033 28.3262C9.92318 27.9261 9.93271 27.4127 10.2309 27.0297C10.2795 26.9678 10.3652 26.8801 10.4224 26.8878C10.6597 26.9209 10.7691 26.7774 10.8805 26.6314C10.9005 26.6052 10.9206 26.5788 10.9415 26.5534C11.5429 25.8228 12.1419 25.0902 12.7408 24.3575C14.1733 22.6053 15.6059 20.853 17.0716 19.1287C19.0445 16.8071 21.286 14.7447 23.5304 12.6908C24.6748 11.6441 25.8306 10.6106 26.9863 9.57698C27.4757 9.13935 27.965 8.70171 28.4536 8.26307C28.8318 7.92393 28.8889 7.91155 29.2938 8.23258C29.726 8.57585 30.1593 8.91776 30.5926 9.25965C31.8991 10.2907 33.2055 11.3215 34.4817 12.3889C36.1298 13.7664 37.6273 15.3029 38.8952 17.0462C40.0155 18.5866 40.9824 20.2261 41.8122 21.9351ZM29.2294 47.9908C29.2316 47.9914 29.2337 47.9922 29.2359 47.9932C29.2346 47.994 29.2332 47.9948 29.2319 47.9957C29.2037 48.0137 29.1626 48.0399 29.1719 48C29.1759 47.9994 29.1799 47.9988 29.1841 47.9981C29.1984 47.9959 29.2136 47.9936 29.2294 47.9908ZM10.4461 27.2301C10.3832 27.3397 10.3352 27.448 10.3083 27.5557C10.251 27.7844 10.289 28.0106 10.4833 28.2412C10.665 28.457 10.85 28.6706 11.0349 28.8842L11.035 28.8842L11.035 28.8842L11.035 28.8842C11.527 29.4524 12.0192 30.0207 12.4505 30.6313C12.8942 31.2595 13.4005 31.8273 13.9068 32.3933C13.4001 31.8271 12.8935 31.2591 12.4495 30.6306C12.0182 30.02 11.526 29.4516 11.034 28.8835C10.849 28.6699 10.6641 28.4563 10.4824 28.2405C10.1975 27.9023 10.249 27.5727 10.4452 27.2297C10.4455 27.2299 10.4458 27.23 10.4461 27.2301ZM15.0957 33.7852C15.3452 34.1069 15.5803 34.4417 15.7913 34.7983C15.7946 34.804 15.8207 34.8305 15.8342 34.8405C15.8205 34.83 15.7954 34.8046 15.7923 34.799C15.5809 34.4421 15.3455 34.1072 15.0957 33.7852ZM44.7448 28.6526C44.7548 28.6752 44.7647 28.6979 44.7747 28.7206C44.7764 28.7244 44.7781 28.7282 44.7797 28.7319C44.779 28.7304 44.7784 28.7288 44.7777 28.7273C44.7667 28.7024 44.7558 28.6775 44.7448 28.6526ZM45.4231 30.2144C45.4795 30.3464 45.5359 30.4785 45.5921 30.6106C45.6816 30.8211 45.7712 31.0326 45.8597 31.2431C45.8614 31.2469 45.863 31.2506 45.8646 31.2544C45.864 31.2529 45.8634 31.2513 45.8627 31.2498C45.7742 31.0385 45.6847 30.8281 45.5952 30.6176L45.595 30.6173C45.5379 30.4829 45.4806 30.3486 45.4231 30.2144ZM45.8914 31.3237C45.8991 31.3456 45.9063 31.3677 45.9131 31.3898C45.9588 31.5403 45.9845 31.6994 46.0007 31.8623C46.0165 32.0257 46.022 32.1923 46.0274 32.3556C46.0292 32.4094 46.031 32.4629 46.0331 32.5158L46.0303 32.5101C46.0379 32.7292 46.0455 32.9493 46.0493 33.1684C46.0531 33.3141 46.0531 33.4599 46.0531 33.6066C46.0531 33.7533 46.0512 33.899 46.0465 34.0448L46.0438 34.1175C46.0421 34.1665 46.0404 34.2154 46.0379 34.2639C46.0303 34.4096 46.0217 34.5554 46.0093 34.7011C45.9969 34.8469 45.9817 34.9926 45.9636 35.1374C45.9274 35.427 45.8769 35.7176 45.8093 36.0062C45.6387 36.7378 45.3977 37.4437 45.1053 38.1258C44.93 38.5354 44.7357 38.9365 44.5261 39.3309C44.2365 39.8758 43.944 40.4188 43.6497 40.9608C43.0874 41.9954 42.5182 43.0248 41.9487 44.0548L41.9487 44.0549L41.8654 44.2054C41.5663 44.7456 41.2681 45.2857 40.9709 45.8268C40.9542 45.8565 40.9338 45.8835 40.9083 45.9173C40.8945 45.9354 40.8793 45.9556 40.8623 45.9792C40.8383 45.9531 40.8148 45.9287 40.792 45.9052L40.7918 45.905L40.7918 45.905C40.7689 45.8814 40.7468 45.8586 40.7259 45.8355C40.7255 45.8362 40.7251 45.8369 40.7247 45.8376C40.7493 45.865 40.7754 45.892 40.8027 45.9203C40.8229 45.9412 40.8438 45.9629 40.8653 45.9859C40.8823 45.9621 40.8978 45.9419 40.9117 45.9236C40.9373 45.89 40.9578 45.8631 40.9739 45.8335C41.1872 45.445 41.4016 45.0571 41.6159 44.6693C41.7001 44.5169 41.7843 44.3645 41.8684 44.2121C42.4657 43.1319 43.063 42.0516 43.6526 40.9675C43.947 40.4255 44.2394 39.8825 44.529 39.3376C44.7386 38.9432 44.9329 38.5421 45.1082 38.1325C45.4007 37.4495 45.6417 36.7445 45.8122 36.0129C45.8789 35.7243 45.9294 35.4347 45.9665 35.1441C45.9846 34.9984 45.9999 34.8536 46.0123 34.7078C46.0247 34.5621 46.0342 34.4163 46.0409 34.2706C46.0447 34.1972 46.0475 34.1248 46.0494 34.0515L46.0523 34.0572C46.0561 33.9105 46.0589 33.7647 46.0589 33.619C46.0589 33.4732 46.058 33.3265 46.0551 33.1808C46.0513 32.9617 46.0447 32.7416 46.0361 32.5225C46.034 32.4697 46.0322 32.4164 46.0304 32.3628C46.025 32.199 46.0195 32.0327 46.0037 31.869C45.9875 31.7061 45.9618 31.5461 45.9161 31.3965C45.9081 31.3718 45.9 31.3476 45.8914 31.3237ZM21.7273 48.199C21.7338 48.2028 21.7404 48.2063 21.7471 48.2093C21.7766 48.2227 21.8062 48.2303 21.8386 48.2303C21.871 48.2312 21.9062 48.2246 21.9462 48.2131C22.0062 48.196 22.0758 48.1646 22.1605 48.1226C22.1927 48.1063 22.2274 48.0883 22.2648 48.069C22.2927 48.0546 22.322 48.0394 22.353 48.0236C22.3874 48.0057 22.4231 47.9904 22.4587 47.9751C22.5008 47.9571 22.5428 47.9391 22.5826 47.9169C22.8493 47.7673 23.116 47.6187 23.3828 47.4701L23.5101 47.3991C24.268 46.977 25.026 46.5547 25.7738 46.1145C26.1039 45.9201 26.4222 45.706 26.7405 45.492C27.0614 45.2761 27.3824 45.0603 27.7153 44.8647C27.9296 44.7389 28.1392 44.6103 28.3392 44.475C28.4059 44.4293 28.4717 44.3836 28.5364 44.3369C28.665 44.2426 28.7898 44.1454 28.908 44.0435C29.0851 43.8901 29.249 43.7253 29.3938 43.5462C29.5862 43.3071 29.7463 43.0404 29.8615 42.7384C29.9482 42.5117 30.0092 42.264 30.0406 41.9925L30.0721 41.7105C30.0825 41.6172 30.094 41.5229 30.1073 41.4295C30.2038 40.7667 30.1319 40.1712 29.8543 39.6446C30.1286 40.17 30.1997 40.7627 30.1043 41.4228C30.091 41.5162 30.0796 41.6095 30.0691 41.7039L30.0377 41.9858C30.0062 42.2573 29.9453 42.505 29.8586 42.7317C29.7433 43.0347 29.5842 43.3004 29.3908 43.5396C29.246 43.7196 29.0822 43.8835 28.905 44.0368C28.7869 44.1388 28.663 44.2369 28.5335 44.3302C28.4687 44.3769 28.403 44.4236 28.3363 44.4684C28.1353 44.6036 27.9267 44.7322 27.7123 44.858C27.3794 45.0536 27.0585 45.2694 26.7375 45.4853C26.4193 45.6993 26.101 45.9134 25.7709 46.1078C25.0091 46.5568 24.2358 46.9871 23.462 47.4177L23.4618 47.4178L23.3798 47.4634C23.1131 47.612 22.8463 47.7606 22.5796 47.9102C22.5404 47.9321 22.4988 47.9498 22.4572 47.9676L22.4572 47.9677L22.4571 47.9677C22.4209 47.9832 22.3846 47.9987 22.35 48.0169C22.2776 48.055 22.2138 48.0883 22.1576 48.116C22.0718 48.1579 22.0023 48.1883 21.9432 48.2064C21.9032 48.2179 21.868 48.2236 21.8356 48.2236C21.8023 48.2236 21.7727 48.2169 21.7441 48.2026L21.7333 48.1969C21.7313 48.1976 21.7293 48.1983 21.7273 48.199ZM26.0596 35.5987C26.0336 35.5467 26.009 35.4939 25.9862 35.4404C25.8957 35.2308 25.8261 35.0107 25.7833 34.7783C25.7613 34.6621 25.7471 34.542 25.7385 34.4201C25.729 34.2753 25.7223 34.1305 25.7185 33.9857C25.7156 33.8771 25.7137 33.7685 25.7137 33.659C25.7137 33.3322 25.7242 33.0055 25.7413 32.6797C25.7442 32.6292 25.7471 32.5777 25.7509 32.5273C25.7766 32.171 25.8271 31.8109 25.9242 31.4708C26.1548 30.663 26.3882 29.8561 26.6225 29.0492C26.8092 28.405 26.9966 27.7611 27.1839 27.1172L27.185 27.1134C27.4666 26.1456 27.7481 25.1778 28.0276 24.209C28.2071 23.5858 28.3861 22.9621 28.5636 22.3383L28.5219 22.5016C28.3591 23.0732 28.1951 23.6447 28.0306 24.2157C27.7537 25.175 27.4747 26.1341 27.1957 27.0932C27.0054 27.7473 26.8151 28.4016 26.6255 29.0559C26.3911 29.8628 26.1587 30.6697 25.9272 31.4775C25.83 31.8185 25.7796 32.1777 25.7538 32.5339C25.7502 32.5819 25.7474 32.6308 25.7447 32.6789L25.7443 32.6864C25.7272 33.0122 25.7157 33.3389 25.7167 33.6657C25.7167 33.7743 25.7186 33.8838 25.7214 33.9924C25.7253 34.1372 25.7319 34.282 25.7414 34.4268C25.7491 34.5497 25.7643 34.6688 25.7862 34.785C25.8291 35.0174 25.8986 35.2375 25.9891 35.4471C26.0115 35.4983 26.035 35.5488 26.0596 35.5987ZM29.6404 11.8222C29.6376 11.9605 29.6348 12.0987 29.6348 12.2364V12.2368C29.6348 12.2929 29.6348 12.349 29.6358 12.4041C29.6377 12.5156 29.6424 12.628 29.651 12.7385C29.7244 13.6997 29.7434 14.6552 29.7082 15.6049C29.6939 15.985 29.672 16.3642 29.6415 16.7423C29.6262 16.931 29.6081 17.1205 29.5891 17.3092C29.5672 17.5206 29.5415 17.7321 29.5148 17.9426C29.4691 18.2961 29.4167 18.6485 29.3566 19.001C29.3408 19.0939 29.3244 19.1868 29.3075 19.2795C29.2999 19.313 29.2922 19.3464 29.2845 19.3798C29.3084 19.2513 29.3314 19.1228 29.3537 18.9943C29.4137 18.6428 29.4661 18.2894 29.5118 17.936C29.5394 17.7254 29.5642 17.5139 29.5861 17.3025C29.6061 17.1138 29.6233 16.9252 29.6385 16.7357C29.669 16.3575 29.6919 15.9783 29.7052 15.5982C29.7395 14.6485 29.7214 13.693 29.648 12.7318C29.6395 12.6203 29.6347 12.5089 29.6328 12.3974C29.6318 12.3412 29.6318 12.286 29.6318 12.2298C29.6318 12.0896 29.6347 11.9492 29.6376 11.8089L29.6381 11.7814C29.6389 11.795 29.6397 11.8086 29.6404 11.8222ZM34.5096 38.7902C34.4746 38.9249 34.3976 39.0684 34.2786 39.2318C34.0281 39.5766 33.769 39.9157 33.5051 40.2501C33.2403 40.5845 32.9707 40.916 32.7001 41.2447C32.6373 41.3209 32.5715 41.3952 32.5039 41.4676C32.3696 41.6124 32.2267 41.7505 32.0828 41.8886C32.0114 41.9572 31.94 42.0258 31.8685 42.0953C31.7647 42.1963 31.6713 42.303 31.5875 42.4154C31.5313 42.4897 31.4789 42.5669 31.4293 42.645C31.3798 42.7231 31.3331 42.8031 31.2893 42.8851C31.1788 43.0889 31.0835 43.3004 30.9892 43.5138C30.9686 43.5607 30.948 43.6076 30.9275 43.6545L30.9271 43.6555L30.9267 43.6564C30.8728 43.7796 30.8189 43.9027 30.7625 44.0244C30.7102 44.1379 30.6508 44.2484 30.5915 44.3588C30.5611 44.4152 30.5308 44.4716 30.5015 44.5283C30.4729 44.5845 30.4453 44.6407 30.4186 44.6979L30.2803 44.9994C30.1709 45.2377 30.0616 45.4758 29.9537 45.7144C29.8766 45.8839 29.8013 46.0544 29.727 46.225C29.6499 46.4002 29.5851 46.5822 29.5308 46.7651C29.5284 46.7731 29.526 46.7812 29.5237 46.7893C29.5258 46.7822 29.5279 46.7751 29.53 46.768C29.5853 46.5851 29.6501 46.4032 29.7263 46.2279C29.8006 46.0574 29.8768 45.8868 29.953 45.7173C30.0752 45.4464 30.1991 45.1767 30.323 44.9072C30.3547 44.8384 30.3863 44.7696 30.4179 44.7008C30.4436 44.6437 30.4721 44.5875 30.5007 44.5313L30.5007 44.5313C30.5315 44.4715 30.5632 44.4124 30.595 44.3533C30.6529 44.2456 30.7107 44.138 30.7618 44.0273C30.8181 43.9056 30.872 43.7825 30.9259 43.6592C30.9467 43.6117 30.9675 43.5642 30.9885 43.5167C31.0818 43.3033 31.1781 43.0918 31.2886 42.888C31.3333 42.807 31.3791 42.726 31.4286 42.6479C31.4781 42.5698 31.5305 42.4926 31.5867 42.4183C31.6715 42.3069 31.7639 42.1992 31.8678 42.0983C31.9208 42.0459 31.975 41.9941 32.0289 41.9425C32.0467 41.9255 32.0644 41.9085 32.0821 41.8915C32.225 41.7534 32.3679 41.6153 32.5032 41.4705C32.5708 41.3981 32.6365 41.3238 32.6994 41.2476C32.9709 40.9189 33.2405 40.5874 33.5044 40.253C33.7682 39.9187 34.0273 39.5795 34.2779 39.2347C34.3977 39.0701 34.475 38.9257 34.5096 38.7902ZM29.3323 47.6435C29.3289 47.6537 29.3263 47.6648 29.3238 47.6758C29.3254 47.6695 29.3272 47.6633 29.3289 47.657C29.33 47.6532 29.331 47.6493 29.3319 47.6454L29.3323 47.6435ZM28.4629 45.8025C28.4634 45.7313 28.4662 45.66 28.4717 45.5887C28.484 45.4277 28.5098 45.2667 28.5526 45.1057C28.5812 44.998 28.6165 44.8904 28.6612 44.7827C28.686 44.7227 28.7174 44.6646 28.7546 44.6094C28.7917 44.5541 28.8337 44.5017 28.8784 44.455C28.9108 44.4207 28.9451 44.3884 28.9804 44.356C29.0156 44.3236 29.0509 44.2931 29.0871 44.2617C29.1391 44.2172 29.192 44.1742 29.2449 44.1313C29.2657 44.1144 29.2864 44.0976 29.3071 44.0807C29.4491 43.9644 29.571 43.8377 29.6777 43.7006C29.7482 43.6091 29.812 43.512 29.8682 43.41C29.9254 43.3081 29.9749 43.2014 30.0197 43.089C30.0416 43.0328 30.0625 42.9756 30.0816 42.9166C30.3247 42.1782 30.4479 41.4378 30.4531 40.6929C30.4574 40.1088 30.3892 39.5218 30.2493 38.9307L30.2454 38.9144L30.2454 38.9144C30.2228 38.8197 30.2 38.7242 30.1883 38.6278L30.188 38.6251L30.188 38.6251C30.1866 38.6127 30.1852 38.6004 30.1841 38.5881C30.1853 38.6022 30.1867 38.6164 30.1883 38.6307M30.1807 38.53C30.1807 38.5287 30.1807 38.5273 30.1807 38.5259C30.1803 38.5146 30.18 38.5033 30.1797 38.4921L30.1807 38.5288C30.1807 38.5292 30.1807 38.5296 30.1807 38.53ZM30.1423 37.0484L30.1311 36.5949C30.1311 36.5797 30.1307 36.5642 30.1302 36.5487C30.1297 36.5332 30.1292 36.5177 30.1292 36.5025C30.1278 36.447 30.1264 36.3913 30.1249 36.3356C30.1263 36.3923 30.1278 36.4489 30.1292 36.5054C30.1292 36.5213 30.1297 36.5369 30.1302 36.5523C30.1307 36.5676 30.1311 36.5827 30.1311 36.5978C30.1348 36.7482 30.1385 36.8984 30.1423 37.0484ZM30.108 35.6468C30.1078 35.6364 30.1076 35.626 30.1073 35.6156C30.105 35.5108 30.1024 35.4055 30.0998 35.3001L30.0998 35.2985C30.0972 35.1899 30.0945 35.0811 30.0921 34.9726C30.0892 34.823 30.0854 34.6725 30.0816 34.522V34.521L30.0816 34.514C30.0816 34.5176 30.0816 34.5212 30.0816 34.5249C30.0844 34.6754 30.0883 34.8259 30.0921 34.9755C30.0945 35.0873 30.0973 35.199 30.1 35.3103C30.1025 35.4135 30.105 35.5164 30.1073 35.6185C30.1076 35.628 30.1078 35.6374 30.108 35.6468ZM30.0807 34.3693L30.0807 34.3648C30.0785 34.2468 30.0713 34.18 30.0565 34.043C30.052 34.0009 30.0467 33.9522 30.0406 33.8933V33.8904C30.0339 33.8641 30.0306 33.8372 30.0306 33.8103C30.0303 33.8382 30.0336 33.8661 30.0406 33.8933V33.8962C30.0467 33.9557 30.052 34.0047 30.0566 34.047C30.0713 34.183 30.0785 34.2493 30.0806 34.3677C30.0807 34.3683 30.0807 34.3688 30.0807 34.3693ZM34.5155 38.4988C34.5231 38.5299 34.528 38.5612 34.5303 38.5926C34.5341 38.6412 34.5313 38.6898 34.5227 38.7403L34.521 38.7386C34.5212 38.7375 34.5214 38.7365 34.5216 38.7354C34.5301 38.685 34.533 38.6364 34.5292 38.5878C34.527 38.558 34.5224 38.5283 34.5155 38.4988ZM29.832 39.0786C29.567 38.8324 29.2994 38.5846 29.0303 38.3353C28.6323 37.9667 28.231 37.595 27.8296 37.2208C27.6048 37.0113 27.3809 36.8007 27.157 36.5902C26.9494 36.3949 26.7693 36.1872 26.6169 35.9691C26.5026 35.8052 26.4035 35.6347 26.3187 35.4585C26.2625 35.3404 26.2139 35.2203 26.1711 35.0965C26.0863 34.8498 26.0282 34.5916 25.9968 34.323C25.9815 34.1886 25.972 34.0515 25.9701 33.9114C25.9691 33.8419 25.9701 33.7704 25.972 33.699C25.9758 33.5762 25.9784 33.4585 25.9811 33.341C25.9864 33.1047 25.9916 32.8691 26.0063 32.5949C26.011 32.5035 26.0873 32.432 26.1787 32.432C26.1908 32.432 26.2027 32.432 26.2146 32.432C26.2856 32.4319 26.3554 32.4317 26.4378 32.4358C26.6674 32.4482 26.8941 32.4615 27.118 32.4787C27.1923 32.4844 27.2666 32.4911 27.3409 32.4977C27.4886 32.5111 27.6353 32.5273 27.781 32.5454C27.9268 32.5644 28.0706 32.5854 28.2135 32.6111C28.3564 32.6368 28.4983 32.6664 28.6384 32.7007C28.7089 32.7178 28.7784 32.7359 28.8479 32.7559C29.0566 32.815 29.2633 32.8864 29.4671 32.9721C29.4675 32.9723 29.4678 32.9724 29.4681 32.9726C29.2648 32.8872 29.0587 32.816 28.8507 32.7571C28.7811 32.7371 28.7106 32.719 28.6411 32.7018C28.501 32.6675 28.3591 32.638 28.2162 32.6123C28.0733 32.5866 27.9295 32.5646 27.7837 32.5465C27.638 32.5275 27.4922 32.5123 27.3436 32.4989L27.3436 32.4989L27.3435 32.4989C27.2692 32.4922 27.195 32.4856 27.1207 32.4799C26.8968 32.4627 26.6701 32.4494 26.4405 32.437C26.3589 32.4329 26.2892 32.433 26.2176 32.4331L26.1814 32.4332C26.09 32.4332 26.0137 32.5046 26.009 32.5961C25.9944 32.8703 25.9891 33.1058 25.9838 33.3422V33.3422C25.9811 33.4597 25.9785 33.5774 25.9747 33.7002C25.9728 33.7716 25.9718 33.8421 25.9728 33.9126C25.9747 34.0526 25.9842 34.1898 25.9995 34.3241C26.0309 34.5928 26.089 34.8509 26.1738 35.0977C26.2167 35.2215 26.2652 35.3415 26.3214 35.4597C26.4053 35.6359 26.5043 35.8064 26.6196 35.9703C26.772 36.1884 26.9521 36.3961 27.1598 36.5914C27.3836 36.8019 27.6075 37.0124 27.8323 37.222C28.2337 37.5961 28.635 37.9679 29.033 38.3364C29.3012 38.5849 29.5679 38.8319 29.832 39.0772C29.832 39.0777 29.832 39.0781 29.832 39.0786Z" fill="black"/>
</g>
<g clip-path="url(#clip0_1363_6281)">
<path d="M24.7279 14.7916L24.7278 14.7916L24.7323 14.8011C24.8784 15.108 24.9593 15.4448 24.9593 15.7996C24.9593 17.1422 23.7819 18.2932 22.2505 18.2932C20.7191 18.2932 19.5417 17.1422 19.5417 15.7996C19.5417 15.4448 19.6226 15.108 19.7686 14.8011L19.7687 14.8011L19.773 14.7917L22.2513 9.31485L24.7279 14.7916Z" fill="#00EBFF" stroke="#342315" stroke-width="1.08333" stroke-linejoin="round"/>
</g>
<path d="M32.5425 34.7533C32.5439 34.7551 32.5454 34.7569 32.547 34.7588C32.5615 34.7765 32.5809 34.8001 32.5992 34.8235L32.5994 34.8239C32.6957 34.9471 32.7923 35.0722 32.8877 35.2014L32.8878 35.2016C32.9527 35.2895 33.0169 35.3769 33.0808 35.4638C33.3351 35.8099 33.5834 36.1479 33.8433 36.478C34.1674 36.8897 34.501 37.281 34.8659 37.6414C34.8727 37.6481 34.8792 37.6549 34.8855 37.6619C35.1218 37.8997 35.3279 38.1862 35.3551 38.5498C35.3552 38.5502 35.3552 38.5506 35.3552 38.5509L34.8566 38.5878C34.8604 38.6364 34.8575 38.685 34.8489 38.7354L32.5425 34.7533ZM32.5425 34.7533C32.4874 34.6838 32.4315 34.6144 32.3746 34.545C32.2719 34.4187 32.1725 34.2981 32.0729 34.1774C31.9451 34.0223 31.8169 33.8669 31.6811 33.6985L31.6811 33.6985L31.6801 33.6972C31.6256 33.6301 31.6063 33.6077 31.5425 33.5338C31.5225 33.5107 31.4982 33.4825 31.4671 33.4463L31.4664 33.4455C31.4178 33.3892 31.3446 33.3179 31.2748 33.262C31.2739 33.2612 31.273 33.2604 31.2723 33.2597C31.2586 33.247 31.2455 33.2358 31.2387 33.2301L31.2322 33.2246C31.071 33.067 30.8611 32.9994 30.6712 32.9981C30.4735 32.9966 30.2465 33.0671 30.0785 33.2503C29.8977 33.447 29.8244 33.7129 29.8737 33.967C29.8797 34.025 29.8847 34.0713 29.8889 34.1099C29.9023 34.235 29.907 34.2783 29.9088 34.3698C29.9088 34.3902 29.909 34.4118 29.9092 34.4325C29.9092 34.4351 29.9093 34.4376 29.9093 34.44C29.9095 34.4657 29.9097 34.4921 29.9097 34.521V34.522H29.9096L29.9099 34.5347C29.9137 34.6854 29.9175 34.8344 29.9203 34.9821L29.9203 34.9837C29.9224 35.0778 29.9253 35.1957 29.9281 35.3127C29.9309 35.4257 29.9336 35.5378 29.9356 35.6268L29.9356 35.6268C29.9422 35.9231 29.9498 36.2183 29.9574 36.5099C29.9575 36.5302 29.9581 36.5493 29.9585 36.562L29.9586 36.5641C29.9591 36.5809 29.9593 36.5887 29.9593 36.5949H29.9591L29.9594 36.6071L29.9821 37.5327V37.558L29.9823 37.5727C29.9871 37.7324 29.9913 37.8923 29.9956 38.0528L29.9956 38.0556C29.9999 38.2148 30.0041 38.3748 30.0088 38.5347L32.5425 34.7533ZM28.8922 46.7079C28.815 46.3345 28.7712 45.9611 28.7998 45.5857C28.8122 45.4248 28.8379 45.2638 28.8808 45.1028M28.8922 46.7079L29.2066 44.4521C29.1618 44.4988 29.1199 44.5512 29.0827 44.6064C29.0456 44.6617 29.0132 44.7208 28.9894 44.7798C28.9456 44.8875 28.9094 44.9951 28.8808 45.1028M28.8922 46.7079L28.9265 46.868M28.8922 46.7079L28.9265 46.868M28.8808 45.1028L28.3975 44.9745C28.3975 44.9744 28.3975 44.9744 28.3976 44.9743M28.8808 45.1028L28.3976 44.9743M28.5263 44.5913C28.565 44.4956 28.6147 44.4064 28.6678 44.3275C28.7201 44.2497 28.7799 44.1746 28.8457 44.106L28.8481 44.1036L28.8481 44.1036C28.8873 44.0632 28.9266 44.025 28.9677 43.9872C29.0109 43.9465 29.0542 43.909 29.0931 43.8763L29.4143 44.2577L29.0931 43.8763C29.1517 43.827 29.2123 43.7776 29.269 43.7313C29.2859 43.7175 29.3025 43.7039 29.3186 43.6908L29.3201 43.6896C29.4319 43.5988 29.5272 43.5003 29.6086 43.394C29.6642 43.3211 29.7142 43.2447 29.7602 43.1625C29.8046 43.0835 29.8447 42.9977 29.8826 42.9027C29.9018 42.8534 29.9189 42.8065 29.9339 42.7601L29.9348 42.7572L29.9348 42.7572C30.339 41.5304 30.388 40.3014 30.0909 39.0463C30.0909 39.0462 30.0909 39.046 30.0908 39.0459L28.5263 44.5913ZM28.5263 44.5913C28.4749 44.7176 28.4318 44.8452 28.3976 44.9741L28.5263 44.5913ZM28.3976 44.9743C28.3461 45.1675 28.3158 45.3589 28.3013 45.5474L28.3012 45.5478C28.2679 45.986 28.32 46.4094 28.4026 46.8091L28.4025 46.8091L28.4033 46.8127L28.4376 46.9727L28.4375 46.9728L28.4395 46.981C28.4648 47.0904 28.4916 47.2014 28.5206 47.3134L28.5206 47.3134L28.5216 47.3174C28.5282 47.3417 28.5345 47.3664 28.5415 47.3934L28.5418 47.3943C28.5485 47.4203 28.5558 47.4486 28.5635 47.4772C28.6141 47.6669 28.7025 47.8256 28.8195 47.9549C28.9348 48.0824 29.0671 48.1683 29.1827 48.2294C29.1988 48.2379 29.2153 48.2455 29.2322 48.2522M28.3976 44.9743L35.0102 39.5261C35.0103 39.526 35.0103 39.5259 35.0104 39.5259C34.7552 39.8771 34.492 40.2215 34.225 40.5599L34.2245 40.5606C33.957 40.8982 33.6853 41.2323 33.4136 41.5624L33.4132 41.5628C33.3432 41.6477 33.2708 41.7295 33.1972 41.8083C33.052 41.9648 32.8996 42.1119 32.7566 42.2493L32.7565 42.2493C32.6849 42.3181 32.6147 42.3855 32.5446 42.4536L32.5445 42.4538C32.4596 42.5364 32.3837 42.6231 32.3157 42.7143L32.3137 42.7171L32.3136 42.7171C32.2676 42.778 32.223 42.8434 32.179 42.9128C32.1361 42.9804 32.0956 43.0498 32.0576 43.1209L32.0563 43.1233L32.0563 43.1233C31.9564 43.3076 31.8683 43.5024 31.7741 43.7157M29.2322 48.2522C29.6168 48.4185 30.0425 48.1829 30.1364 47.7967L30.1364 47.7967L30.1377 47.7911L30.1385 47.7875M29.2322 48.2522C29.2171 48.2457 29.2021 48.2385 29.1872 48.2308L29.4161 47.7909L29.4181 47.7873M29.2322 48.2522C29.2906 48.2753 29.353 48.2873 29.4161 48.2873H29.4181V47.7873M30.1385 47.7875C30.1423 47.7749 30.1456 47.7622 30.1484 47.7494L30.1989 47.5189L30.199 47.5189L30.2009 47.5096L30.2073 47.4773C30.2505 47.2604 30.286 47.0817 30.3376 46.9071M30.1385 47.7875L30.1392 47.7846C30.1395 47.7832 30.1396 47.7831 30.1394 47.7837C30.1393 47.7842 30.1386 47.7869 30.1374 47.791C30.1369 47.7926 30.1363 47.7945 30.1357 47.7965C30.1353 47.7978 30.1348 47.7992 30.1344 47.8006C30.1348 47.7992 30.1352 47.7979 30.1357 47.7965C30.1363 47.7947 30.1369 47.7929 30.1374 47.791C30.1378 47.7898 30.1382 47.7887 30.1385 47.7875ZM30.3376 46.9071C30.3868 46.7413 30.4446 46.5796 30.512 46.4264L30.5128 46.4247C30.5865 46.2555 30.6606 46.0877 30.7362 45.9214L30.7367 45.9204C30.844 45.6832 30.9523 45.4473 31.0614 45.2097C31.1074 45.1094 31.1536 45.0088 31.1999 44.9077M30.3376 46.9071C30.3375 46.9072 30.3375 46.9073 30.3375 46.9074L29.8582 46.7651M30.3376 46.9071C30.3376 46.907 30.3376 46.9069 30.3377 46.9068L29.8582 46.7651M31.1999 44.9077C31.2232 44.8577 31.2478 44.8077 31.2738 44.7565M31.1999 44.9077C31.1996 44.9083 31.1994 44.9088 31.1991 44.9093L30.746 44.6979M31.1999 44.9077C31.2001 44.9072 31.2004 44.9066 31.2006 44.9061L30.746 44.6979M31.2738 44.7565C31.2955 44.7146 31.3212 44.6667 31.3488 44.6152C31.412 44.4976 31.4852 44.3611 31.5437 44.2343M31.2738 44.7565C31.2735 44.757 31.2733 44.7575 31.273 44.758L30.8289 44.5283M31.2738 44.7565C31.274 44.756 31.2743 44.7555 31.2746 44.755L30.8289 44.5283M31.5437 44.2343C31.6024 44.1075 31.6596 43.9769 31.7142 43.8521C31.7345 43.8057 31.7545 43.76 31.7741 43.7157M31.5437 44.2343C31.5438 44.2341 31.5439 44.2339 31.544 44.2338L31.0899 44.0244L31.5436 44.2346C31.5436 44.2345 31.5437 44.2344 31.5437 44.2343ZM31.7741 43.7157C31.774 43.7158 31.774 43.7158 31.774 43.7159L31.3166 43.5138M31.7741 43.7157L31.3166 43.5138M31.3166 43.5138C31.2957 43.5613 31.2748 43.6089 31.254 43.6565C31.2001 43.7796 31.1463 43.9028 31.0899 44.0244C31.0376 44.1379 30.9782 44.2484 30.9188 44.3588C30.8885 44.4152 30.8582 44.4716 30.8289 44.5283M31.3166 43.5138C31.4109 43.3004 31.5062 43.0889 31.6167 42.8851C31.6605 42.8031 31.7072 42.7231 31.7567 42.645C31.8063 42.5669 31.8587 42.4897 31.9149 42.4154C31.9987 42.303 32.0921 42.1963 32.1959 42.0953C32.2673 42.0258 32.3388 41.9572 32.4102 41.8886L30.8289 44.5283M30.8289 44.5283C30.8003 44.5845 30.7727 44.6407 30.746 44.6979M30.8289 44.5283L30.746 44.6979M28.9265 46.868C28.9513 46.9747 28.977 47.0814 29.0046 47.1881M28.9265 46.868L29.0046 47.1881M29.0046 47.1881C29.0118 47.2147 29.0187 47.2414 29.0256 47.2681C29.0325 47.2947 29.0394 47.3214 29.0465 47.3481C29.077 47.4624 29.1275 47.55 29.1904 47.6196C29.2533 47.6891 29.3314 47.7425 29.4161 47.7873M29.0046 47.1881L29.4161 47.7873M29.4161 47.7873H29.4181M29.4161 47.7873L29.6505 47.6787M29.4181 47.7873C29.5114 47.8358 29.6257 47.7806 29.6505 47.6787M29.6505 47.6787C29.6534 47.6663 29.6562 47.6539 29.66 47.6425M29.6505 47.6787L29.66 47.6425M29.66 47.6425L29.7105 47.4119M29.66 47.6425L29.7105 47.4119M29.7105 47.4119C29.7131 47.3987 29.7158 47.3855 29.7184 47.3723C29.7602 47.1621 29.7999 46.9623 29.8582 46.7651M29.7105 47.4119L29.8582 46.7651M30.746 44.6979C30.6999 44.7986 30.6537 44.8992 30.6076 44.9997C30.4982 45.2379 30.389 45.4759 30.2811 45.7143M30.746 44.6979L30.2811 45.7143M30.2811 45.7143C30.204 45.8839 30.1287 46.0544 30.0544 46.225M30.2811 45.7143L30.0544 46.225M29.8582 46.7651C29.9125 46.5822 29.9772 46.4002 30.0544 46.225M29.8582 46.7651L30.0544 46.225M31.2238 33.2176C31.2235 33.2173 31.2235 33.2173 31.2238 33.2176L31.2238 33.2176Z" fill="#8F8F8F" stroke="#342315" stroke-linejoin="round"/>
<path d="M15.2268 30.9846L15.2269 30.9848C15.6292 31.8195 15.9754 32.693 16.3138 33.5467C16.4558 33.905 16.5964 34.2599 16.7392 34.6068C16.7522 34.6383 16.7619 34.671 16.7682 34.7044C16.7759 34.7453 16.7885 34.83 16.7678 34.9309C16.7436 35.0486 16.6724 35.1885 16.5237 35.2791C16.3938 35.3582 16.2656 35.3615 16.1969 35.3571C16.1239 35.3524 16.0601 35.3353 16.0142 35.3205C16.0035 35.317 15.993 35.3132 15.9826 35.309C15.925 35.286 15.8841 35.2568 15.8742 35.2497L15.8735 35.2492C15.8571 35.2376 15.844 35.2269 15.8359 35.2201C15.8193 35.2061 15.8048 35.1926 15.7945 35.1826C15.7837 35.1722 15.7721 35.1605 15.7609 35.1485C15.7555 35.1426 15.7477 35.134 15.739 35.1237L15.7387 35.1233C15.7353 35.1193 15.712 35.0919 15.6895 35.0539C15.2545 34.3195 14.7072 33.676 14.1185 33.0143C14.0419 32.9282 13.9644 32.8417 13.8864 32.7545C13.3737 32.1816 12.8379 31.5829 12.3695 30.9198L12.3695 30.9198C11.9534 30.3308 11.4856 29.7905 10.9995 29.2292C10.8112 29.0118 10.6202 28.7912 10.4284 28.5634L15.2268 30.9846ZM15.2268 30.9846C14.9365 30.3833 14.5419 29.8133 14.1751 29.2835C14.0467 29.0979 13.9216 28.9173 13.8057 28.7419L15.2268 30.9846ZM11.6724 27.0724L11.673 27.0726C12.5632 27.394 13.2827 27.9505 13.8055 28.7418L11.6724 27.0724ZM11.6724 27.0724C11.5245 27.0192 11.3917 26.9593 11.2374 26.8895C11.1566 26.853 11.0698 26.8138 10.9718 26.7714C10.7383 26.6706 10.4664 26.7611 10.3399 26.9816M11.6724 27.0724L10.3399 26.9816M10.3399 26.9816C10.2201 27.1904 10.1147 27.4444 10.1114 27.7312M10.3399 26.9816L10.1114 27.7312M10.1114 27.7312C10.108 28.0337 10.2186 28.3144 10.4282 28.5632L10.1114 27.7312ZM11.5033 27.5429C11.337 27.4832 11.1752 27.4102 11.0094 27.3354C10.932 27.3004 10.8536 27.265 10.7736 27.2305L11.5033 27.5429Z" fill="#C3C3C3" stroke="#342315" stroke-linejoin="round"/>
<mask id="path-6-outside-1_1363_6281" maskUnits="userSpaceOnUse" x="10" y="7.29688" width="38" height="42" fill="black">
<rect fill="white" x="10" y="7.29688" width="38" height="42"/>
<path d="M46.1203 32.5163C46.1117 32.3029 46.1089 32.08 46.0879 31.8628C46.0717 31.6999 46.046 31.5408 46.0003 31.3903C45.985 31.3408 45.9679 31.2912 45.9469 31.2436C45.8583 31.0331 45.7688 30.8216 45.6792 30.6111C45.4106 29.9795 45.1391 29.3488 44.8619 28.7211C44.7237 28.4067 44.5847 28.0933 44.4437 27.7799C43.6006 25.9013 42.7147 24.0437 41.7582 22.2185C41.5991 21.9146 41.4372 21.6107 41.2743 21.3087C40.9209 20.6543 40.5579 20.0065 40.1778 19.3711C40.1016 19.2444 40.0245 19.1167 39.9473 18.991C39.7149 18.6128 39.4748 18.2384 39.2252 17.8707C38.6441 17.0124 38.0135 16.1874 37.3085 15.412C37.0294 15.1043 36.7436 14.8042 36.4531 14.5099C35.9415 13.9907 35.4128 13.4906 34.8727 13.0038C34.7288 12.8742 34.5831 12.7447 34.4373 12.617C32.9598 11.3205 31.4023 10.1164 29.8409 8.91798C29.6933 8.80462 29.5428 8.69602 29.3961 8.59219C29.2494 8.48835 29.1093 8.39023 28.9779 8.29688C26.4372 10.3888 23.9995 12.5665 21.6732 14.8442C20.8977 15.6035 20.1347 16.3732 19.384 17.1553C18.6334 17.9364 17.8951 18.73 17.1701 19.5349C15.3573 21.5469 13.6254 23.6341 11.9783 25.8032C11.6487 26.2366 11.3229 26.6739 11 27.115C11.1448 27.1788 11.2944 27.2521 11.4515 27.3121C11.543 27.3464 11.6316 27.3845 11.7192 27.4236C11.8936 27.5027 12.0612 27.5922 12.2194 27.6932C12.3775 27.7942 12.528 27.9056 12.668 28.0295C12.809 28.1533 12.9395 28.2895 13.0615 28.4381C13.1224 28.5124 13.1805 28.5906 13.2358 28.6715C13.5216 29.0888 13.7797 29.527 14.0836 29.9299C14.7324 30.7902 15.1839 31.7495 15.5459 32.7535C15.585 32.8621 15.6231 32.9717 15.6612 33.0822C15.7736 33.4118 15.8784 33.7433 15.9851 34.0748C16.0918 34.4063 16.2004 34.7369 16.3204 35.0627C16.3604 35.1713 16.4014 35.2799 16.4442 35.3875C16.5147 35.5637 16.5843 35.7409 16.6519 35.9181C16.7891 36.2725 16.9215 36.6278 17.0482 36.9851C17.1749 37.3423 17.294 37.7014 17.4035 38.0644C17.5683 38.6083 17.7112 39.1589 17.8217 39.7191C18.0999 41.1223 18.5038 42.495 19.1592 43.7601C19.3373 44.104 19.5221 44.4431 19.7127 44.7813C19.9032 45.1185 20.0975 45.4539 20.2957 45.7873C20.691 46.4541 21.0978 47.1152 21.4969 47.7783C21.6017 47.9516 21.676 48.0698 21.7465 48.1403C21.7751 48.1688 21.8027 48.1888 21.8313 48.2031C21.8599 48.2174 21.8894 48.2241 21.9228 48.2241C21.9551 48.2241 21.9904 48.2184 22.0304 48.2069C22.0895 48.1888 22.159 48.1584 22.2447 48.1164C22.3009 48.0888 22.3648 48.0555 22.4372 48.0174C22.5115 47.9783 22.5934 47.9516 22.6668 47.9107C22.9335 47.7611 23.2002 47.6125 23.467 47.4639C24.2681 47.0181 25.0693 46.5732 25.858 46.1083C26.5211 45.7177 27.1364 45.2481 27.7995 44.8585C28.0138 44.7327 28.2224 44.6041 28.4234 44.4688C28.4901 44.4241 28.5559 44.3774 28.6206 44.3307C28.7502 44.2374 28.874 44.1392 28.9922 44.0373C29.1693 43.8839 29.3332 43.7201 29.478 43.54C29.6714 43.3009 29.8305 43.0352 29.9457 42.7322C30.0324 42.5055 30.0934 42.2578 30.1248 41.9863C30.1353 41.892 30.1458 41.7987 30.1563 41.7043C30.1667 41.61 30.1782 41.5167 30.1915 41.4233C30.3049 40.6384 30.1829 39.9487 29.7638 39.3542C29.6237 39.1561 29.4513 38.9694 29.2427 38.7931C28.8731 38.4797 28.5101 38.1568 28.1529 37.8281C27.9738 37.6643 27.7966 37.4985 27.6204 37.3318C27.4441 37.1651 27.2679 36.9984 27.0926 36.8307C26.9212 36.6659 26.7592 36.4945 26.6135 36.3144C26.4677 36.1344 26.3362 35.9457 26.2248 35.7467C26.1695 35.6476 26.1181 35.5456 26.0733 35.4409C25.9828 35.2313 25.9133 35.0112 25.8704 34.7788C25.8485 34.6626 25.8342 34.5425 25.8256 34.4206C25.8161 34.2758 25.8095 34.131 25.8056 33.9862C25.8028 33.8776 25.8009 33.769 25.8009 33.6595C25.8009 33.3327 25.8114 33.006 25.8285 32.6802C25.8314 32.6297 25.8342 32.5782 25.838 32.5277C25.8637 32.1715 25.9142 31.8114 26.0114 31.4713C26.2419 30.6635 26.4753 29.8566 26.7097 29.0497C27.1774 27.436 27.649 25.8242 28.1148 24.2095C28.3472 23.4026 28.5787 22.5948 28.8073 21.7869C28.9121 21.4173 29.0084 21.0458 29.0969 20.6743C29.1417 20.4885 29.1836 20.3018 29.2236 20.116C29.3046 19.7436 29.3761 19.3692 29.4408 18.9948C29.5009 18.6433 29.5532 18.2899 29.599 17.9364C29.6266 17.7259 29.6514 17.5144 29.6733 17.303C29.6933 17.1143 29.7104 16.9257 29.7257 16.7361C29.7562 16.358 29.779 15.9788 29.7924 15.5987C29.8267 14.649 29.8086 13.6935 29.7352 12.7323C29.7266 12.6208 29.7219 12.5094 29.72 12.3979C29.719 12.3417 29.719 12.2865 29.719 12.2302C29.719 11.9502 29.7304 11.6692 29.7304 11.39C29.7714 11.3777 29.8124 11.3643 29.8533 11.3519C29.8886 11.4453 29.9495 11.5377 29.9562 11.633C29.9695 11.8273 29.9781 12.0226 29.9857 12.2179C29.9934 12.4132 30 12.6084 30.0105 12.8037C30.0391 13.3296 30.061 13.8554 30.0724 14.3813C30.0781 14.6442 30.08 14.9071 30.0791 15.1691C30.0772 15.5625 30.0667 15.9559 30.0458 16.3484C30.0315 16.6104 30.0124 16.8714 29.9876 17.1324C29.9734 17.2782 29.9572 17.423 29.94 17.5687C29.9105 17.8136 29.8752 18.0584 29.8343 18.3032C29.7905 18.5623 29.74 18.8214 29.6809 19.0786C29.6142 19.3711 29.5466 19.6636 29.478 19.9551C29.2713 20.8305 29.0531 21.7041 28.8302 22.5767C28.6816 23.1578 28.5311 23.7389 28.3796 24.32C28.2282 24.9011 28.0767 25.4812 27.9252 26.0623C27.7766 26.6358 27.6023 27.2035 27.4308 27.7713C27.3622 27.999 27.2946 28.2257 27.2279 28.4534C27.1946 28.5677 27.1622 28.6811 27.1307 28.7954C27.0688 29.0202 26.9993 29.2422 26.9269 29.4632C26.8535 29.6842 26.7783 29.9042 26.7021 30.1243C26.6258 30.3443 26.5525 30.5653 26.483 30.7873C26.4134 31.0093 26.3496 31.2331 26.2953 31.4599C26.2829 31.5132 26.2677 31.5665 26.2515 31.6189C26.2353 31.6723 26.2181 31.7247 26.2 31.779C26.1438 31.9476 26.26 32.1257 26.4372 32.14C26.7525 32.1657 27.0602 32.1905 27.366 32.2162C27.5051 32.2277 27.6442 32.2401 27.7833 32.2515C27.97 32.2677 28.1538 32.2905 28.3339 32.321C29.0207 32.4372 29.6533 32.6592 30.222 33.006C30.2496 33.0231 30.2772 33.0383 30.3049 33.0555C30.4525 33.1498 30.5954 33.2527 30.7335 33.3641C30.8717 33.4756 31.006 33.5966 31.1346 33.7271C31.1994 33.7919 31.2623 33.8595 31.3242 33.93C31.3861 33.9995 31.4471 34.0719 31.5071 34.1472C31.5852 34.2453 31.6633 34.3425 31.7405 34.4406C32.252 35.0817 32.7636 35.7238 33.2751 36.3649C33.8648 37.1041 34.4545 37.8424 35.0432 38.5826C35.9958 39.781 36.9484 40.9794 37.9011 42.1778C38.8537 43.3762 39.8063 44.5746 40.7589 45.773C40.7723 45.7901 40.7875 45.8073 40.8018 45.8235C40.8466 45.874 40.8971 45.9226 40.9495 45.9797C40.998 45.9121 41.0323 45.873 41.0581 45.8273C41.3553 45.2862 41.6534 44.7461 41.9526 44.2059C42.5499 43.1257 43.1472 42.0463 43.7368 40.9613C44.0312 40.4193 44.3236 39.8763 44.6132 39.3314C44.8228 38.937 45.0172 38.5359 45.1924 38.1263C45.4849 37.4442 45.7259 36.7383 45.8964 36.0067C45.9641 35.7181 46.0145 35.4275 46.0507 35.1379C46.0688 34.9931 46.0841 34.8474 46.0965 34.7016C46.1088 34.5559 46.1174 34.4101 46.125 34.2644C46.1289 34.192 46.1308 34.1186 46.1336 34.0453C46.1384 33.8995 46.1403 33.7538 46.1403 33.6071C46.1403 33.4604 46.1403 33.3146 46.1365 33.1689C46.1327 32.9498 46.125 32.7297 46.1174 32.5106L46.1203 32.5163Z"/>
</mask>
<path d="M46.1203 32.5163C46.1117 32.3029 46.1089 32.08 46.0879 31.8628C46.0717 31.6999 46.046 31.5408 46.0003 31.3903C45.985 31.3408 45.9679 31.2912 45.9469 31.2436C45.8583 31.0331 45.7688 30.8216 45.6792 30.6111C45.4106 29.9795 45.1391 29.3488 44.8619 28.7211C44.7237 28.4067 44.5847 28.0933 44.4437 27.7799C43.6006 25.9013 42.7147 24.0437 41.7582 22.2185C41.5991 21.9146 41.4372 21.6107 41.2743 21.3087C40.9209 20.6543 40.5579 20.0065 40.1778 19.3711C40.1016 19.2444 40.0245 19.1167 39.9473 18.991C39.7149 18.6128 39.4748 18.2384 39.2252 17.8707C38.6441 17.0124 38.0135 16.1874 37.3085 15.412C37.0294 15.1043 36.7436 14.8042 36.4531 14.5099C35.9415 13.9907 35.4128 13.4906 34.8727 13.0038C34.7288 12.8742 34.5831 12.7447 34.4373 12.617C32.9598 11.3205 31.4023 10.1164 29.8409 8.91798C29.6933 8.80462 29.5428 8.69602 29.3961 8.59219C29.2494 8.48835 29.1093 8.39023 28.9779 8.29688C26.4372 10.3888 23.9995 12.5665 21.6732 14.8442C20.8977 15.6035 20.1347 16.3732 19.384 17.1553C18.6334 17.9364 17.8951 18.73 17.1701 19.5349C15.3573 21.5469 13.6254 23.6341 11.9783 25.8032C11.6487 26.2366 11.3229 26.6739 11 27.115C11.1448 27.1788 11.2944 27.2521 11.4515 27.3121C11.543 27.3464 11.6316 27.3845 11.7192 27.4236C11.8936 27.5027 12.0612 27.5922 12.2194 27.6932C12.3775 27.7942 12.528 27.9056 12.668 28.0295C12.809 28.1533 12.9395 28.2895 13.0615 28.4381C13.1224 28.5124 13.1805 28.5906 13.2358 28.6715C13.5216 29.0888 13.7797 29.527 14.0836 29.9299C14.7324 30.7902 15.1839 31.7495 15.5459 32.7535C15.585 32.8621 15.6231 32.9717 15.6612 33.0822C15.7736 33.4118 15.8784 33.7433 15.9851 34.0748C16.0918 34.4063 16.2004 34.7369 16.3204 35.0627C16.3604 35.1713 16.4014 35.2799 16.4442 35.3875C16.5147 35.5637 16.5843 35.7409 16.6519 35.9181C16.7891 36.2725 16.9215 36.6278 17.0482 36.9851C17.1749 37.3423 17.294 37.7014 17.4035 38.0644C17.5683 38.6083 17.7112 39.1589 17.8217 39.7191C18.0999 41.1223 18.5038 42.495 19.1592 43.7601C19.3373 44.104 19.5221 44.4431 19.7127 44.7813C19.9032 45.1185 20.0975 45.4539 20.2957 45.7873C20.691 46.4541 21.0978 47.1152 21.4969 47.7783C21.6017 47.9516 21.676 48.0698 21.7465 48.1403C21.7751 48.1688 21.8027 48.1888 21.8313 48.2031C21.8599 48.2174 21.8894 48.2241 21.9228 48.2241C21.9551 48.2241 21.9904 48.2184 22.0304 48.2069C22.0895 48.1888 22.159 48.1584 22.2447 48.1164C22.3009 48.0888 22.3648 48.0555 22.4372 48.0174C22.5115 47.9783 22.5934 47.9516 22.6668 47.9107C22.9335 47.7611 23.2002 47.6125 23.467 47.4639C24.2681 47.0181 25.0693 46.5732 25.858 46.1083C26.5211 45.7177 27.1364 45.2481 27.7995 44.8585C28.0138 44.7327 28.2224 44.6041 28.4234 44.4688C28.4901 44.4241 28.5559 44.3774 28.6206 44.3307C28.7502 44.2374 28.874 44.1392 28.9922 44.0373C29.1693 43.8839 29.3332 43.7201 29.478 43.54C29.6714 43.3009 29.8305 43.0352 29.9457 42.7322C30.0324 42.5055 30.0934 42.2578 30.1248 41.9863C30.1353 41.892 30.1458 41.7987 30.1563 41.7043C30.1667 41.61 30.1782 41.5167 30.1915 41.4233C30.3049 40.6384 30.1829 39.9487 29.7638 39.3542C29.6237 39.1561 29.4513 38.9694 29.2427 38.7931C28.8731 38.4797 28.5101 38.1568 28.1529 37.8281C27.9738 37.6643 27.7966 37.4985 27.6204 37.3318C27.4441 37.1651 27.2679 36.9984 27.0926 36.8307C26.9212 36.6659 26.7592 36.4945 26.6135 36.3144C26.4677 36.1344 26.3362 35.9457 26.2248 35.7467C26.1695 35.6476 26.1181 35.5456 26.0733 35.4409C25.9828 35.2313 25.9133 35.0112 25.8704 34.7788C25.8485 34.6626 25.8342 34.5425 25.8256 34.4206C25.8161 34.2758 25.8095 34.131 25.8056 33.9862C25.8028 33.8776 25.8009 33.769 25.8009 33.6595C25.8009 33.3327 25.8114 33.006 25.8285 32.6802C25.8314 32.6297 25.8342 32.5782 25.838 32.5277C25.8637 32.1715 25.9142 31.8114 26.0114 31.4713C26.2419 30.6635 26.4753 29.8566 26.7097 29.0497C27.1774 27.436 27.649 25.8242 28.1148 24.2095C28.3472 23.4026 28.5787 22.5948 28.8073 21.7869C28.9121 21.4173 29.0084 21.0458 29.0969 20.6743C29.1417 20.4885 29.1836 20.3018 29.2236 20.116C29.3046 19.7436 29.3761 19.3692 29.4408 18.9948C29.5009 18.6433 29.5532 18.2899 29.599 17.9364C29.6266 17.7259 29.6514 17.5144 29.6733 17.303C29.6933 17.1143 29.7104 16.9257 29.7257 16.7361C29.7562 16.358 29.779 15.9788 29.7924 15.5987C29.8267 14.649 29.8086 13.6935 29.7352 12.7323C29.7266 12.6208 29.7219 12.5094 29.72 12.3979C29.719 12.3417 29.719 12.2865 29.719 12.2302C29.719 11.9502 29.7304 11.6692 29.7304 11.39C29.7714 11.3777 29.8124 11.3643 29.8533 11.3519C29.8886 11.4453 29.9495 11.5377 29.9562 11.633C29.9695 11.8273 29.9781 12.0226 29.9857 12.2179C29.9934 12.4132 30 12.6084 30.0105 12.8037C30.0391 13.3296 30.061 13.8554 30.0724 14.3813C30.0781 14.6442 30.08 14.9071 30.0791 15.1691C30.0772 15.5625 30.0667 15.9559 30.0458 16.3484C30.0315 16.6104 30.0124 16.8714 29.9876 17.1324C29.9734 17.2782 29.9572 17.423 29.94 17.5687C29.9105 17.8136 29.8752 18.0584 29.8343 18.3032C29.7905 18.5623 29.74 18.8214 29.6809 19.0786C29.6142 19.3711 29.5466 19.6636 29.478 19.9551C29.2713 20.8305 29.0531 21.7041 28.8302 22.5767C28.6816 23.1578 28.5311 23.7389 28.3796 24.32C28.2282 24.9011 28.0767 25.4812 27.9252 26.0623C27.7766 26.6358 27.6023 27.2035 27.4308 27.7713C27.3622 27.999 27.2946 28.2257 27.2279 28.4534C27.1946 28.5677 27.1622 28.6811 27.1307 28.7954C27.0688 29.0202 26.9993 29.2422 26.9269 29.4632C26.8535 29.6842 26.7783 29.9042 26.7021 30.1243C26.6258 30.3443 26.5525 30.5653 26.483 30.7873C26.4134 31.0093 26.3496 31.2331 26.2953 31.4599C26.2829 31.5132 26.2677 31.5665 26.2515 31.6189C26.2353 31.6723 26.2181 31.7247 26.2 31.779C26.1438 31.9476 26.26 32.1257 26.4372 32.14C26.7525 32.1657 27.0602 32.1905 27.366 32.2162C27.5051 32.2277 27.6442 32.2401 27.7833 32.2515C27.97 32.2677 28.1538 32.2905 28.3339 32.321C29.0207 32.4372 29.6533 32.6592 30.222 33.006C30.2496 33.0231 30.2772 33.0383 30.3049 33.0555C30.4525 33.1498 30.5954 33.2527 30.7335 33.3641C30.8717 33.4756 31.006 33.5966 31.1346 33.7271C31.1994 33.7919 31.2623 33.8595 31.3242 33.93C31.3861 33.9995 31.4471 34.0719 31.5071 34.1472C31.5852 34.2453 31.6633 34.3425 31.7405 34.4406C32.252 35.0817 32.7636 35.7238 33.2751 36.3649C33.8648 37.1041 34.4545 37.8424 35.0432 38.5826C35.9958 39.781 36.9484 40.9794 37.9011 42.1778C38.8537 43.3762 39.8063 44.5746 40.7589 45.773C40.7723 45.7901 40.7875 45.8073 40.8018 45.8235C40.8466 45.874 40.8971 45.9226 40.9495 45.9797C40.998 45.9121 41.0323 45.873 41.0581 45.8273C41.3553 45.2862 41.6534 44.7461 41.9526 44.2059C42.5499 43.1257 43.1472 42.0463 43.7368 40.9613C44.0312 40.4193 44.3236 39.8763 44.6132 39.3314C44.8228 38.937 45.0172 38.5359 45.1924 38.1263C45.4849 37.4442 45.7259 36.7383 45.8964 36.0067C45.9641 35.7181 46.0145 35.4275 46.0507 35.1379C46.0688 34.9931 46.0841 34.8474 46.0965 34.7016C46.1088 34.5559 46.1174 34.4101 46.125 34.2644C46.1289 34.192 46.1308 34.1186 46.1336 34.0453C46.1384 33.8995 46.1403 33.7538 46.1403 33.6071C46.1403 33.4604 46.1403 33.3146 46.1365 33.1689C46.1327 32.9498 46.125 32.7297 46.1174 32.5106L46.1203 32.5163Z" fill="#342315"/>
<path d="M46.1203 32.5163C46.1117 32.3029 46.1089 32.08 46.0879 31.8628C46.0717 31.6999 46.046 31.5408 46.0003 31.3903C45.985 31.3408 45.9679 31.2912 45.9469 31.2436C45.8583 31.0331 45.7688 30.8216 45.6792 30.6111C45.4106 29.9795 45.1391 29.3488 44.8619 28.7211C44.7237 28.4067 44.5847 28.0933 44.4437 27.7799C43.6006 25.9013 42.7147 24.0437 41.7582 22.2185C41.5991 21.9146 41.4372 21.6107 41.2743 21.3087C40.9209 20.6543 40.5579 20.0065 40.1778 19.3711C40.1016 19.2444 40.0245 19.1167 39.9473 18.991C39.7149 18.6128 39.4748 18.2384 39.2252 17.8707C38.6441 17.0124 38.0135 16.1874 37.3085 15.412C37.0294 15.1043 36.7436 14.8042 36.4531 14.5099C35.9415 13.9907 35.4128 13.4906 34.8727 13.0038C34.7288 12.8742 34.5831 12.7447 34.4373 12.617C32.9598 11.3205 31.4023 10.1164 29.8409 8.91798C29.6933 8.80462 29.5428 8.69602 29.3961 8.59219C29.2494 8.48835 29.1093 8.39023 28.9779 8.29688C26.4372 10.3888 23.9995 12.5665 21.6732 14.8442C20.8977 15.6035 20.1347 16.3732 19.384 17.1553C18.6334 17.9364 17.8951 18.73 17.1701 19.5349C15.3573 21.5469 13.6254 23.6341 11.9783 25.8032C11.6487 26.2366 11.3229 26.6739 11 27.115C11.1448 27.1788 11.2944 27.2521 11.4515 27.3121C11.543 27.3464 11.6316 27.3845 11.7192 27.4236C11.8936 27.5027 12.0612 27.5922 12.2194 27.6932C12.3775 27.7942 12.528 27.9056 12.668 28.0295C12.809 28.1533 12.9395 28.2895 13.0615 28.4381C13.1224 28.5124 13.1805 28.5906 13.2358 28.6715C13.5216 29.0888 13.7797 29.527 14.0836 29.9299C14.7324 30.7902 15.1839 31.7495 15.5459 32.7535C15.585 32.8621 15.6231 32.9717 15.6612 33.0822C15.7736 33.4118 15.8784 33.7433 15.9851 34.0748C16.0918 34.4063 16.2004 34.7369 16.3204 35.0627C16.3604 35.1713 16.4014 35.2799 16.4442 35.3875C16.5147 35.5637 16.5843 35.7409 16.6519 35.9181C16.7891 36.2725 16.9215 36.6278 17.0482 36.9851C17.1749 37.3423 17.294 37.7014 17.4035 38.0644C17.5683 38.6083 17.7112 39.1589 17.8217 39.7191C18.0999 41.1223 18.5038 42.495 19.1592 43.7601C19.3373 44.104 19.5221 44.4431 19.7127 44.7813C19.9032 45.1185 20.0975 45.4539 20.2957 45.7873C20.691 46.4541 21.0978 47.1152 21.4969 47.7783C21.6017 47.9516 21.676 48.0698 21.7465 48.1403C21.7751 48.1688 21.8027 48.1888 21.8313 48.2031C21.8599 48.2174 21.8894 48.2241 21.9228 48.2241C21.9551 48.2241 21.9904 48.2184 22.0304 48.2069C22.0895 48.1888 22.159 48.1584 22.2447 48.1164C22.3009 48.0888 22.3648 48.0555 22.4372 48.0174C22.5115 47.9783 22.5934 47.9516 22.6668 47.9107C22.9335 47.7611 23.2002 47.6125 23.467 47.4639C24.2681 47.0181 25.0693 46.5732 25.858 46.1083C26.5211 45.7177 27.1364 45.2481 27.7995 44.8585C28.0138 44.7327 28.2224 44.6041 28.4234 44.4688C28.4901 44.4241 28.5559 44.3774 28.6206 44.3307C28.7502 44.2374 28.874 44.1392 28.9922 44.0373C29.1693 43.8839 29.3332 43.7201 29.478 43.54C29.6714 43.3009 29.8305 43.0352 29.9457 42.7322C30.0324 42.5055 30.0934 42.2578 30.1248 41.9863C30.1353 41.892 30.1458 41.7987 30.1563 41.7043C30.1667 41.61 30.1782 41.5167 30.1915 41.4233C30.3049 40.6384 30.1829 39.9487 29.7638 39.3542C29.6237 39.1561 29.4513 38.9694 29.2427 38.7931C28.8731 38.4797 28.5101 38.1568 28.1529 37.8281C27.9738 37.6643 27.7966 37.4985 27.6204 37.3318C27.4441 37.1651 27.2679 36.9984 27.0926 36.8307C26.9212 36.6659 26.7592 36.4945 26.6135 36.3144C26.4677 36.1344 26.3362 35.9457 26.2248 35.7467C26.1695 35.6476 26.1181 35.5456 26.0733 35.4409C25.9828 35.2313 25.9133 35.0112 25.8704 34.7788C25.8485 34.6626 25.8342 34.5425 25.8256 34.4206C25.8161 34.2758 25.8095 34.131 25.8056 33.9862C25.8028 33.8776 25.8009 33.769 25.8009 33.6595C25.8009 33.3327 25.8114 33.006 25.8285 32.6802C25.8314 32.6297 25.8342 32.5782 25.838 32.5277C25.8637 32.1715 25.9142 31.8114 26.0114 31.4713C26.2419 30.6635 26.4753 29.8566 26.7097 29.0497C27.1774 27.436 27.649 25.8242 28.1148 24.2095C28.3472 23.4026 28.5787 22.5948 28.8073 21.7869C28.9121 21.4173 29.0084 21.0458 29.0969 20.6743C29.1417 20.4885 29.1836 20.3018 29.2236 20.116C29.3046 19.7436 29.3761 19.3692 29.4408 18.9948C29.5009 18.6433 29.5532 18.2899 29.599 17.9364C29.6266 17.7259 29.6514 17.5144 29.6733 17.303C29.6933 17.1143 29.7104 16.9257 29.7257 16.7361C29.7562 16.358 29.779 15.9788 29.7924 15.5987C29.8267 14.649 29.8086 13.6935 29.7352 12.7323C29.7266 12.6208 29.7219 12.5094 29.72 12.3979C29.719 12.3417 29.719 12.2865 29.719 12.2302C29.719 11.9502 29.7304 11.6692 29.7304 11.39C29.7714 11.3777 29.8124 11.3643 29.8533 11.3519C29.8886 11.4453 29.9495 11.5377 29.9562 11.633C29.9695 11.8273 29.9781 12.0226 29.9857 12.2179C29.9934 12.4132 30 12.6084 30.0105 12.8037C30.0391 13.3296 30.061 13.8554 30.0724 14.3813C30.0781 14.6442 30.08 14.9071 30.0791 15.1691C30.0772 15.5625 30.0667 15.9559 30.0458 16.3484C30.0315 16.6104 30.0124 16.8714 29.9876 17.1324C29.9734 17.2782 29.9572 17.423 29.94 17.5687C29.9105 17.8136 29.8752 18.0584 29.8343 18.3032C29.7905 18.5623 29.74 18.8214 29.6809 19.0786C29.6142 19.3711 29.5466 19.6636 29.478 19.9551C29.2713 20.8305 29.0531 21.7041 28.8302 22.5767C28.6816 23.1578 28.5311 23.7389 28.3796 24.32C28.2282 24.9011 28.0767 25.4812 27.9252 26.0623C27.7766 26.6358 27.6023 27.2035 27.4308 27.7713C27.3622 27.999 27.2946 28.2257 27.2279 28.4534C27.1946 28.5677 27.1622 28.6811 27.1307 28.7954C27.0688 29.0202 26.9993 29.2422 26.9269 29.4632C26.8535 29.6842 26.7783 29.9042 26.7021 30.1243C26.6258 30.3443 26.5525 30.5653 26.483 30.7873C26.4134 31.0093 26.3496 31.2331 26.2953 31.4599C26.2829 31.5132 26.2677 31.5665 26.2515 31.6189C26.2353 31.6723 26.2181 31.7247 26.2 31.779C26.1438 31.9476 26.26 32.1257 26.4372 32.14C26.7525 32.1657 27.0602 32.1905 27.366 32.2162C27.5051 32.2277 27.6442 32.2401 27.7833 32.2515C27.97 32.2677 28.1538 32.2905 28.3339 32.321C29.0207 32.4372 29.6533 32.6592 30.222 33.006C30.2496 33.0231 30.2772 33.0383 30.3049 33.0555C30.4525 33.1498 30.5954 33.2527 30.7335 33.3641C30.8717 33.4756 31.006 33.5966 31.1346 33.7271C31.1994 33.7919 31.2623 33.8595 31.3242 33.93C31.3861 33.9995 31.4471 34.0719 31.5071 34.1472C31.5852 34.2453 31.6633 34.3425 31.7405 34.4406C32.252 35.0817 32.7636 35.7238 33.2751 36.3649C33.8648 37.1041 34.4545 37.8424 35.0432 38.5826C35.9958 39.781 36.9484 40.9794 37.9011 42.1778C38.8537 43.3762 39.8063 44.5746 40.7589 45.773C40.7723 45.7901 40.7875 45.8073 40.8018 45.8235C40.8466 45.874 40.8971 45.9226 40.9495 45.9797C40.998 45.9121 41.0323 45.873 41.0581 45.8273C41.3553 45.2862 41.6534 44.7461 41.9526 44.2059C42.5499 43.1257 43.1472 42.0463 43.7368 40.9613C44.0312 40.4193 44.3236 39.8763 44.6132 39.3314C44.8228 38.937 45.0172 38.5359 45.1924 38.1263C45.4849 37.4442 45.7259 36.7383 45.8964 36.0067C45.9641 35.7181 46.0145 35.4275 46.0507 35.1379C46.0688 34.9931 46.0841 34.8474 46.0965 34.7016C46.1088 34.5559 46.1174 34.4101 46.125 34.2644C46.1289 34.192 46.1308 34.1186 46.1336 34.0453C46.1384 33.8995 46.1403 33.7538 46.1403 33.6071C46.1403 33.4604 46.1403 33.3146 46.1365 33.1689C46.1327 32.9498 46.125 32.7297 46.1174 32.5106L46.1203 32.5163Z" stroke="#342315" stroke-width="2" stroke-linejoin="round" mask="url(#path-6-outside-1_1363_6281)"/>
<path d="M34.5136 37.9972C34.1287 37.6171 33.781 37.2084 33.4495 36.7873C33.118 36.3663 32.8036 35.9309 32.4845 35.4984C32.3931 35.3746 32.2997 35.2536 32.2044 35.1317C32.1873 35.1098 32.1692 35.0879 32.1521 35.0669C32.0978 34.9983 32.0425 34.9297 31.9863 34.8611C31.7624 34.5858 31.529 34.3077 31.2909 34.0124C31.2252 33.9314 31.2213 33.9285 31.087 33.7723C31.0508 33.7304 30.986 33.6694 30.9413 33.637C30.9346 33.6265 30.8946 33.5961 30.8879 33.5884C30.7746 33.4703 30.5583 33.4655 30.4459 33.5884C30.3678 33.6732 30.3411 33.7866 30.3678 33.8904V33.8933C30.3935 34.1438 30.4049 34.2105 30.4078 34.3648C30.4078 34.4077 30.4088 34.4582 30.4088 34.521V34.522C30.4126 34.6725 30.4164 34.823 30.4192 34.9726C30.424 35.1869 30.4297 35.4022 30.4345 35.6156C30.4411 35.9128 30.4488 36.2091 30.4564 36.5025C30.4564 36.533 30.4583 36.5644 30.4583 36.5949C30.4659 36.9064 30.4735 37.217 30.4812 37.5266V37.558C30.4907 37.8809 30.4983 38.2039 30.5078 38.5259C30.5078 38.5602 30.5116 38.5935 30.5154 38.6278C30.5278 38.7297 30.5526 38.8307 30.5764 38.9307C30.8946 40.2749 30.8422 41.5981 30.4088 42.9136C30.3897 42.9727 30.3687 43.0299 30.3468 43.0861C30.3021 43.1985 30.2525 43.3052 30.1954 43.4071C30.1382 43.509 30.0753 43.6052 30.0048 43.6977C29.8991 43.8358 29.7762 43.9625 29.6343 44.0777C29.5609 44.1378 29.4866 44.1978 29.4142 44.2587C29.378 44.2892 29.3418 44.3207 29.3075 44.3531C29.2723 44.3854 29.2389 44.4178 29.2056 44.4521C29.1608 44.4988 29.1189 44.5512 29.0818 44.6064C29.0446 44.6617 29.0122 44.7208 28.9884 44.7798C28.9446 44.8875 28.9084 44.9951 28.8798 45.1028C28.8369 45.2638 28.8112 45.4248 28.7988 45.5857C28.7702 45.9611 28.8141 46.3345 28.8912 46.7079C28.9027 46.7613 28.9141 46.8146 28.9255 46.868C28.9503 46.9747 28.976 47.0814 29.0036 47.1881C29.0179 47.2414 29.0313 47.2947 29.0456 47.3481C29.076 47.4624 29.1265 47.55 29.1894 47.6196C29.2523 47.6891 29.3304 47.7425 29.4152 47.7873H29.4171C29.5104 47.8358 29.6247 47.7806 29.6495 47.6787C29.6524 47.6663 29.6552 47.6539 29.659 47.6425L29.7095 47.4119C29.7543 47.1871 29.7953 46.9747 29.8572 46.7651C29.9115 46.5822 29.9763 46.4002 30.0534 46.225C30.1277 46.0544 30.203 45.8839 30.2802 45.7143C30.4335 45.3752 30.5898 45.037 30.745 44.6979C30.7717 44.6407 30.7993 44.5845 30.8279 44.5283C30.9146 44.3607 31.0099 44.1959 31.0889 44.0244C31.167 43.8558 31.2404 43.6843 31.3157 43.5138C31.41 43.3004 31.5052 43.0889 31.6157 42.8851C31.6595 42.8031 31.7062 42.7231 31.7558 42.645C31.8053 42.5669 31.8577 42.4897 31.9139 42.4154C31.9977 42.303 32.0911 42.1963 32.1949 42.0953C32.2664 42.0258 32.3378 41.9572 32.4093 41.8886C32.5531 41.7505 32.696 41.6124 32.8303 41.4676C32.898 41.3952 32.9637 41.3209 33.0266 41.2447C33.2971 40.916 33.5667 40.5845 33.8315 40.2501C34.0954 39.9157 34.3545 39.5766 34.6051 39.2318C34.7403 39.046 34.8213 38.886 34.848 38.7354C34.8565 38.685 34.8594 38.6364 34.8556 38.5878C34.8413 38.3944 34.7279 38.2096 34.5117 37.9962L34.5136 37.9972Z" fill="#8F8F8F"/>
<path d="M14.7765 31.201C14.404 30.4293 13.8648 29.7368 13.3885 29.0166C12.9265 28.3174 12.2949 27.8277 11.5033 27.542C11.2594 27.4543 11.025 27.3381 10.7736 27.2295C10.5773 27.5715 10.5249 27.9011 10.8107 28.2402C11.4756 29.0299 12.1844 29.7901 12.7779 30.6304C13.8162 32.1002 15.1966 33.2396 16.1197 34.7981C16.1235 34.8047 16.1587 34.84 16.1682 34.8438C16.2683 34.8762 16.2864 34.8466 16.2768 34.7962C15.7824 33.5949 15.3395 32.3689 14.7765 31.201Z" fill="#C3C3C3"/>
<path d="M46.3605 32.5158C46.3519 32.3024 46.3491 32.0795 46.3281 31.8623C46.3119 31.6994 46.2862 31.5403 46.2405 31.3898C46.2252 31.3403 46.2081 31.2908 46.1871 31.2431C46.0985 31.0326 46.009 30.8211 45.9195 30.6106C45.6508 29.979 45.3793 29.3484 45.1021 28.7206C44.964 28.4062 44.8249 28.0928 44.6839 27.7794C43.8408 25.9008 42.9549 24.0432 41.9985 22.218C41.8394 21.9141 41.6774 21.6102 41.5145 21.3082C41.1611 20.6538 40.7982 20.006 40.4181 19.3706C40.3419 19.2439 40.2647 19.1163 40.1875 18.9905C39.9551 18.6123 39.715 18.2379 39.4654 17.8702C38.8843 17.0119 38.2537 16.1869 37.5488 15.4115C37.2697 15.1038 36.9839 14.8037 36.6933 14.5094C36.1818 13.9902 35.6531 13.4901 35.1129 13.0033C34.9691 12.8737 34.8233 12.7442 34.6776 12.6165C33.2001 11.32 31.6425 10.1159 30.0812 8.9175C29.9335 8.80413 29.783 8.69553 29.6363 8.5917C29.4896 8.48786 29.3496 8.38974 29.2181 8.29639C26.6775 10.3883 24.2397 12.566 21.9134 14.8438C21.138 15.603 20.3749 16.3727 19.6243 17.1548C18.8736 17.936 18.1353 18.7295 17.4104 19.5345C15.5975 21.5464 13.8657 23.6336 12.2186 25.8027C11.889 26.2361 11.5632 26.6734 11.2402 27.1145C11.385 27.1783 11.5346 27.2516 11.6918 27.3117C11.7832 27.346 11.8718 27.3841 11.9595 27.4231C12.1338 27.5022 12.3015 27.5917 12.4596 27.6927C12.6177 27.7937 12.7682 27.9051 12.9083 28.029C13.0493 28.1528 13.1798 28.289 13.3017 28.4377C13.3627 28.512 13.4208 28.5901 13.476 28.671C13.7618 29.0883 14.02 29.5265 14.3239 29.9295C14.9726 30.7897 15.4241 31.749 15.7861 32.753C15.8252 32.8616 15.8633 32.9712 15.9014 33.0817C16.0138 33.4113 16.1186 33.7428 16.2253 34.0743C16.332 34.4058 16.4406 34.7364 16.5606 35.0622C16.6006 35.1708 16.6416 35.2794 16.6845 35.387C16.755 35.5633 16.8245 35.7404 16.8921 35.9176C17.0293 36.272 17.1617 36.6273 17.2884 36.9846C17.4151 37.3418 17.5342 37.7009 17.6438 38.0639C17.8086 38.6078 17.9515 39.1585 18.062 39.7186C18.3401 41.1218 18.744 42.4945 19.3994 43.7596C19.5776 44.1035 19.7624 44.4426 19.9529 44.7808C20.1434 45.118 20.3378 45.4534 20.5359 45.7868C20.9312 46.4536 21.338 47.1147 21.7372 47.7778C21.842 47.9511 21.9163 48.0693 21.9868 48.1398C22.0153 48.1683 22.043 48.1883 22.0715 48.2026C22.1001 48.2169 22.1296 48.2236 22.163 48.2236C22.1954 48.2236 22.2306 48.2179 22.2706 48.2064C22.3297 48.1883 22.3992 48.1579 22.485 48.1159C22.5412 48.0883 22.605 48.055 22.6774 48.0169C22.7517 47.9778 22.8336 47.9511 22.907 47.9102C23.1737 47.7606 23.4405 47.612 23.7072 47.4634C24.5083 47.0176 25.3095 46.5727 26.0983 46.1078C26.7613 45.7172 27.3767 45.2476 28.0397 44.858C28.254 44.7322 28.4627 44.6036 28.6637 44.4684C28.7304 44.4236 28.7961 44.3769 28.8609 44.3302C28.9904 44.2369 29.1143 44.1388 29.2324 44.0368C29.4096 43.8835 29.5734 43.7196 29.7182 43.5396C29.9116 43.3004 30.0707 43.0347 30.186 42.7317C30.2727 42.505 30.3336 42.2573 30.3651 41.9858C30.3755 41.8915 30.386 41.7982 30.3965 41.7039C30.407 41.6095 30.4184 41.5162 30.4317 41.4228C30.5451 40.6379 30.4232 39.9482 30.004 39.3537C29.864 39.1556 29.6916 38.9689 29.4829 38.7926C29.1133 38.4792 28.7504 38.1563 28.3931 37.8276C28.214 37.6638 28.0369 37.498 27.8606 37.3313C27.6844 37.1646 27.5081 36.9979 27.3329 36.8302C27.1614 36.6654 26.9994 36.494 26.8537 36.3139C26.7079 36.1339 26.5765 35.9453 26.465 35.7462C26.4098 35.6471 26.3583 35.5452 26.3136 35.4404C26.2231 35.2308 26.1535 35.0107 26.1107 34.7783C26.0887 34.6621 26.0745 34.542 26.0659 34.4201C26.0564 34.2753 26.0497 34.1305 26.0459 33.9857C26.043 33.8771 26.0411 33.7685 26.0411 33.659C26.0411 33.3322 26.0516 33.0055 26.0687 32.6797C26.0716 32.6292 26.0745 32.5777 26.0783 32.5273C26.104 32.171 26.1545 31.8109 26.2516 31.4708C26.4822 30.663 26.7156 29.8561 26.9499 29.0492C27.4176 27.4355 27.8892 25.8237 28.355 24.209C28.5875 23.4021 28.819 22.5943 29.0476 21.7865C29.1524 21.4168 29.2486 21.0453 29.3372 20.6738C29.382 20.488 29.4239 20.3013 29.4639 20.1156C29.5448 19.7431 29.6163 19.3687 29.6811 18.9943C29.7411 18.6428 29.7935 18.2894 29.8392 17.936C29.8668 17.7254 29.8916 17.5139 29.9135 17.3025C29.9335 17.1138 29.9507 16.9252 29.9659 16.7357C29.9964 16.3575 30.0193 15.9783 30.0326 15.5982C30.0669 14.6485 30.0488 13.693 29.9754 12.7318C29.9669 12.6203 29.9621 12.5089 29.9602 12.3974C29.9592 12.3412 29.9592 12.286 29.9592 12.2298C29.9592 11.9497 29.9707 11.6687 29.9707 11.3895C30.0116 11.3772 30.0526 11.3638 30.0936 11.3514C30.1288 11.4448 30.1898 11.5372 30.1964 11.6325C30.2098 11.8268 30.2184 12.0221 30.226 12.2174C30.2336 12.4127 30.2403 12.6079 30.2507 12.8032C30.2793 13.3291 30.3012 13.8549 30.3127 14.3808C30.3184 14.6437 30.3203 14.9066 30.3193 15.1686C30.3174 15.562 30.3069 15.9555 30.286 16.3479C30.2717 16.6099 30.2526 16.8709 30.2279 17.1319C30.2136 17.2777 30.1974 17.4225 30.1803 17.5682C30.1507 17.8131 30.1155 18.0579 30.0745 18.3027C30.0307 18.5618 29.9802 18.8209 29.9211 19.0782C29.8545 19.3706 29.7868 19.6631 29.7182 19.9546C29.5115 20.83 29.2934 21.7036 29.0704 22.5762C28.9218 23.1573 28.7713 23.7384 28.6199 24.3195C28.4684 24.9006 28.3169 25.4807 28.1655 26.0618C28.0168 26.6353 27.8425 27.2031 27.671 27.7708C27.6025 27.9985 27.5348 28.2252 27.4681 28.4529C27.4348 28.5672 27.4024 28.6806 27.371 28.7949C27.309 29.0197 27.2395 29.2417 27.1671 29.4627C27.0938 29.6837 27.0185 29.9037 26.9423 30.1238C26.8661 30.3438 26.7927 30.5649 26.7232 30.7868C26.6536 31.0088 26.5898 31.2326 26.5355 31.4594C26.5231 31.5127 26.5079 31.5661 26.4917 31.6185C26.4755 31.6718 26.4584 31.7242 26.4403 31.7785C26.3841 31.9471 26.5003 32.1252 26.6775 32.1395C26.9928 32.1653 27.3005 32.19 27.6063 32.2157C27.7453 32.2272 27.8844 32.2396 28.0235 32.251C28.2102 32.2672 28.3941 32.2901 28.5741 32.3205C29.261 32.4368 29.8935 32.6587 30.4622 33.0055C30.4899 33.0226 30.5175 33.0379 30.5451 33.055C30.6928 33.1493 30.8357 33.2522 30.9738 33.3637C31.1119 33.4751 31.2462 33.5961 31.3748 33.7266C31.4396 33.7914 31.5025 33.859 31.5644 33.9295C31.6263 33.9991 31.6873 34.0715 31.7473 34.1467C31.8254 34.2448 31.9035 34.342 31.9807 34.4401C32.4923 35.0812 33.0038 35.7233 33.5154 36.3644C34.105 37.1036 34.6947 37.8419 35.2834 38.5821C36.2361 39.7805 37.1887 40.9789 38.1413 42.1773C39.0939 43.3757 40.0465 44.5741 40.9992 45.7725C41.0125 45.7896 41.0277 45.8068 41.042 45.823C41.0868 45.8735 41.1373 45.9221 41.1897 45.9792C41.2383 45.9116 41.2726 45.8725 41.2983 45.8268C41.5955 45.2857 41.8937 44.7456 42.1928 44.2054C42.7901 43.1252 43.3874 42.0458 43.9771 40.9608C44.2714 40.4188 44.5639 39.8758 44.8535 39.3309C45.063 38.9365 45.2574 38.5354 45.4327 38.1258C45.7251 37.4437 45.9661 36.7378 46.1367 36.0062C46.2043 35.7176 46.2548 35.427 46.291 35.1374C46.3091 34.9926 46.3243 34.8469 46.3367 34.7011C46.3491 34.5554 46.3577 34.4096 46.3653 34.2639C46.3691 34.1915 46.371 34.1181 46.3739 34.0448C46.3786 33.899 46.3805 33.7533 46.3805 33.6066C46.3805 33.4599 46.3805 33.3141 46.3767 33.1684C46.3729 32.9493 46.3653 32.7292 46.3577 32.5101L46.3605 32.5158Z" fill="white"/>
<path d="M29.9802 33.2505C29.9744 33.1638 29.9049 33.0448 29.8296 32.9914C29.8192 32.9838 29.8077 32.9771 29.7973 32.9733C29.5934 32.8876 29.3867 32.8161 29.178 32.7571C29.1085 32.7371 29.038 32.719 28.9685 32.7018C28.8284 32.6675 28.6865 32.638 28.5436 32.6123C28.4007 32.5866 28.2569 32.5646 28.1111 32.5465C27.9654 32.5275 27.8196 32.5123 27.671 32.4989C27.5967 32.4922 27.5224 32.4856 27.4481 32.4799C27.2242 32.4627 26.9975 32.4494 26.7679 32.437C26.6727 32.4322 26.5936 32.4332 26.5088 32.4332C26.4174 32.4332 26.3411 32.5046 26.3364 32.5961C26.3145 33.0067 26.3135 33.3306 26.3021 33.7002C26.3002 33.7716 26.2992 33.8421 26.3002 33.9126C26.3021 34.0526 26.3116 34.1898 26.3269 34.3241C26.3583 34.5928 26.4164 34.8509 26.5012 35.0977C26.544 35.2215 26.5926 35.3415 26.6488 35.4597C26.7327 35.6359 26.8317 35.8064 26.947 35.9703C27.0994 36.1884 27.2795 36.3961 27.4871 36.5914C27.711 36.8019 27.9349 37.0124 28.1597 37.222C28.8332 37.8498 29.5067 38.4709 30.164 39.0815C30.164 38.2575 30.1859 37.4068 30.1583 36.558C30.1402 36.0065 30.1135 35.4559 30.083 34.9043C30.0516 34.3537 30.0164 33.8021 29.9821 33.2515L29.9802 33.2505Z" fill="#C3C3C3"/>
<path d="M46.2165 30.5773C44.8457 27.7023 43.5301 24.8006 42.1393 21.9351C41.3096 20.2261 40.3427 18.5866 39.2224 17.0462C37.9544 15.3029 36.4569 13.7664 34.8089 12.3889C33.1094 10.9676 31.3566 9.61102 29.6209 8.23258C29.2161 7.91155 29.1589 7.92393 28.7807 8.26307C27.1384 9.73772 25.4865 11.2009 23.8576 12.6908C21.6132 14.7447 19.3717 16.8071 17.3988 19.1287C15.3202 21.574 13.3082 24.0756 11.2687 26.5534C11.1315 26.7201 11.0296 26.9268 10.7495 26.8878C10.6923 26.8801 10.6066 26.9678 10.558 27.0297C10.2599 27.4127 10.2503 27.9261 10.5304 28.3262C10.6514 28.4986 10.7752 28.6711 10.9086 28.834C11.9784 30.1372 13.0501 31.4394 14.1246 32.7388C14.3657 33.0303 14.6295 33.3037 14.8734 33.5942C15.1077 33.8733 15.3354 34.1582 15.5545 34.4487C15.725 34.6754 15.8698 34.9203 16.0375 35.1479C16.1985 35.367 16.4252 35.5528 16.5338 35.7929C17.1997 37.2628 17.6046 38.8155 17.9427 40.3893C18.2419 41.7801 18.7296 43.1252 19.4117 44.3731C19.9528 45.3619 20.5491 46.3212 21.1302 47.2872C21.3636 47.6749 21.6332 48.0398 21.8837 48.417C21.9857 48.5704 22.0971 48.6161 22.2781 48.5227C22.6525 48.3303 23.0431 48.1693 23.4184 47.9797C24.9074 47.2253 26.3268 46.3546 27.6928 45.3943C27.971 45.199 28.2806 45.0476 28.594 44.8647C28.5578 45.1514 28.5102 45.3886 28.5025 45.6277C28.4635 46.8033 28.8912 48.1133 29.4171 48C29.4475 48.0553 29.5199 47.9571 29.5742 48C29.62 47.9381 29.4828 48.0695 29.499 48C29.6476 47.9769 29.8972 47.9502 29.9839 47.5168C30.1487 46.6985 30.3687 45.9011 30.7888 45.1676C31.0499 44.7123 31.2718 44.235 31.5109 43.7673C31.7881 43.2252 32.0187 42.6622 32.5102 42.2507C32.8303 41.983 33.1056 41.6562 33.3781 41.3371C33.6858 40.977 33.9782 40.6036 34.2583 40.2225C34.5736 39.792 34.868 39.3461 35.1833 38.8898C35.2119 38.9241 35.2652 38.987 35.3176 39.0527C37.1419 41.3524 38.9652 43.6529 40.7895 45.9516C41.1505 46.406 41.26 46.4413 41.5811 45.903C42.9062 43.6815 44.1389 41.4124 45.2934 39.0966C46.3623 36.9532 46.8072 34.7097 46.6357 32.3263C46.5909 31.7118 46.4842 31.1412 46.2146 30.5763L46.2165 30.5773ZM16.1671 34.844C16.1575 34.8402 16.1223 34.805 16.1185 34.7983C15.1963 33.2398 13.815 32.1005 12.7767 30.6306C12.1832 29.7904 11.4744 29.0302 10.8095 28.2405C10.5247 27.9023 10.5761 27.5727 10.7724 27.2297C11.0239 27.3383 11.2582 27.4536 11.5021 27.5422C12.2937 27.828 12.9253 28.3176 13.3873 29.0169C13.8636 29.7371 14.4028 30.4296 14.7753 31.2012C15.3392 32.3691 15.7812 33.5952 16.2757 34.7964C16.2852 34.8469 16.2671 34.8764 16.1671 34.844ZM34.848 38.7384C34.8213 38.8889 34.7403 39.0489 34.605 39.2347C34.3545 39.5795 34.0954 39.9187 33.8315 40.253C33.5676 40.5874 33.298 40.9189 33.0265 41.2476C32.9637 41.3238 32.8979 41.3981 32.8303 41.4705C32.695 41.6153 32.5521 41.7534 32.4092 41.8915C32.3378 41.9601 32.2654 42.0287 32.1949 42.0983C32.0911 42.1992 31.9987 42.3069 31.9139 42.4183C31.8577 42.4926 31.8053 42.5698 31.7557 42.6479C31.7062 42.726 31.6605 42.807 31.6157 42.888C31.5052 43.0918 31.409 43.3033 31.3156 43.5167C31.2404 43.6872 31.167 43.8587 31.0889 44.0273C31.0098 44.1988 30.9146 44.3626 30.8279 44.5313C30.7993 44.5875 30.7707 44.6437 30.745 44.7008C30.5897 45.039 30.4335 45.3772 30.2801 45.7173C30.2039 45.8868 30.1277 46.0574 30.0534 46.2279C29.9772 46.4032 29.9124 46.5851 29.8572 46.768C29.7943 46.9776 29.7533 47.191 29.7095 47.4148L29.659 47.6454C29.6562 47.6578 29.6524 47.6692 29.6495 47.6816C29.6238 47.7835 29.5095 47.8388 29.4171 47.7902H29.4152C29.3304 47.7454 29.2532 47.693 29.1894 47.6225C29.1256 47.552 29.076 47.4653 29.0455 47.351C29.0312 47.2977 29.017 47.2443 29.0036 47.191C28.976 47.0843 28.9493 46.9776 28.9255 46.8709C28.9131 46.8175 28.9017 46.7642 28.8912 46.7108C28.8141 46.3374 28.7702 45.964 28.7988 45.5887C28.8112 45.4277 28.8369 45.2667 28.8798 45.1057C28.9084 44.998 28.9436 44.8904 28.9884 44.7827C29.0132 44.7227 29.0446 44.6646 29.0817 44.6094C29.1189 44.5541 29.1608 44.5017 29.2056 44.455C29.238 44.4207 29.2723 44.3884 29.3075 44.356C29.3428 44.3236 29.378 44.2931 29.4142 44.2617C29.4866 44.1997 29.5609 44.1407 29.6343 44.0807C29.7762 43.9644 29.8981 43.8377 30.0048 43.7006C30.0753 43.6091 30.1391 43.512 30.1954 43.41C30.2525 43.3081 30.302 43.2014 30.3468 43.089C30.3687 43.0328 30.3897 42.9756 30.4087 42.9166C30.8422 41.6 30.8946 40.2769 30.5764 38.9337C30.5526 38.8336 30.5278 38.7327 30.5154 38.6307C30.5116 38.5964 30.5088 38.5631 30.5078 38.5288C30.4992 38.2068 30.4907 37.8839 30.4821 37.5609V37.5295C30.4735 37.2199 30.4659 36.9093 30.4583 36.5978C30.4583 36.5673 30.4564 36.5369 30.4564 36.5054C30.4487 36.2111 30.4421 35.9157 30.4345 35.6185C30.4297 35.4061 30.424 35.1908 30.4192 34.9755C30.4154 34.826 30.4116 34.6754 30.4087 34.5249C30.4087 34.462 30.4087 34.4106 30.4078 34.3677C30.4049 34.2125 30.3935 34.1467 30.3678 33.8962V33.8933C30.3411 33.7895 30.3678 33.6761 30.4459 33.5914C30.5583 33.4685 30.7745 33.4732 30.8879 33.5914C30.8946 33.598 30.9346 33.6285 30.9413 33.6399C30.986 33.6723 31.0518 33.7333 31.087 33.7752C31.2213 33.9324 31.2261 33.9343 31.2909 34.0153C31.53 34.3106 31.7624 34.5887 31.9863 34.865C32.0425 34.9336 32.0977 35.0022 32.152 35.0708C32.1692 35.0927 32.1873 35.1146 32.2044 35.1356C32.2997 35.2565 32.394 35.3785 32.4845 35.5023C32.8036 35.9348 33.118 36.3692 33.4495 36.7912C33.781 37.2132 34.1287 37.6209 34.5136 38.001C34.7298 38.2144 34.8432 38.3992 34.8575 38.5926C34.8613 38.6412 34.8584 38.6898 34.8499 38.7403L34.848 38.7384ZM46.3766 34.0515C46.3747 34.1248 46.3718 34.1972 46.368 34.2706C46.3613 34.4163 46.3518 34.5621 46.3394 34.7078C46.327 34.8536 46.3118 34.9984 46.2937 35.1441C46.2565 35.4347 46.2061 35.7243 46.1394 36.0129C45.9689 36.7445 45.7278 37.4495 45.4354 38.1325C45.2601 38.5421 45.0658 38.9432 44.8562 39.3376C44.5666 39.8825 44.2741 40.4255 43.9798 40.9675C43.3901 42.0516 42.7928 43.1319 42.1955 44.2121C41.8973 44.7523 41.5982 45.2924 41.301 45.8335C41.2762 45.8792 41.241 45.9183 41.1924 45.9859C41.1391 45.9288 41.0895 45.8802 41.0448 45.8297C41.0295 45.8125 41.0152 45.7963 41.0019 45.7792C40.0493 44.5808 39.0966 43.3824 38.144 42.184C37.1914 40.9856 36.2397 39.7862 35.2862 38.5888C34.6974 37.8486 34.1078 37.1103 33.5181 36.3711C33.0065 35.73 32.495 35.0879 31.9834 34.4468C31.9053 34.3487 31.8272 34.2515 31.75 34.1534C31.69 34.0781 31.629 34.0067 31.5671 33.9362C31.5052 33.8667 31.4414 33.799 31.3776 33.7333C31.249 33.6028 31.1146 33.4818 30.9765 33.3703C30.8384 33.2589 30.6945 33.156 30.5478 33.0617C30.5202 33.0445 30.4926 33.0284 30.4649 33.0122C29.8962 32.6654 29.2637 32.4425 28.5768 32.3272C28.3968 32.2967 28.2129 32.2739 28.0262 32.2577C27.8871 32.2453 27.749 32.2339 27.609 32.2224C27.3032 32.1967 26.9955 32.1719 26.6802 32.1462C26.503 32.1319 26.3858 31.9538 26.443 31.7852C26.4611 31.7318 26.4782 31.6785 26.4944 31.6251C26.5106 31.5718 26.5249 31.5194 26.5382 31.4661C26.5925 31.2393 26.6564 31.0155 26.7259 30.7935C26.7954 30.5715 26.8698 30.3505 26.945 30.1305C27.0203 29.9104 27.0965 29.6904 27.1698 29.4694C27.2422 29.2484 27.3118 29.0264 27.3737 28.8016C27.4051 28.6873 27.4375 28.5729 27.4709 28.4596C27.5366 28.2319 27.6052 28.0042 27.6738 27.7775C27.8452 27.2097 28.0196 26.642 28.1682 26.0685C28.3187 25.4874 28.4711 24.9073 28.6226 24.3262C28.774 23.7451 28.9246 23.164 29.0732 22.5829C29.2961 21.7103 29.5142 20.8367 29.7209 19.9613C29.7895 19.6698 29.8581 19.3773 29.9239 19.0848C29.982 18.8267 30.0334 18.5685 30.0772 18.3094C30.1182 18.0655 30.1534 17.8207 30.183 17.5749C30.2001 17.4301 30.2163 17.2844 30.2306 17.1386C30.2554 16.8776 30.2744 16.6166 30.2887 16.3546C30.3106 15.9621 30.3201 15.5687 30.3221 15.1753C30.323 14.9124 30.3211 14.6504 30.3154 14.3875C30.3049 13.8616 30.282 13.3358 30.2535 12.8099C30.243 12.6146 30.2363 12.4194 30.2287 12.2241C30.2211 12.0288 30.2125 11.8335 30.1992 11.6392C30.1925 11.5439 30.1325 11.4515 30.0963 11.3581C30.0553 11.3705 30.0144 11.3839 29.9734 11.3962C29.9734 11.6763 29.962 11.9573 29.962 12.2364C29.962 12.2927 29.962 12.3489 29.9629 12.4041C29.9648 12.5156 29.9696 12.628 29.9782 12.7385C30.0515 13.6997 30.0706 14.6552 30.0353 15.6049C30.021 15.985 29.9991 16.3642 29.9686 16.7423C29.9534 16.931 29.9353 17.1205 29.9162 17.3092C29.8943 17.5206 29.8686 17.7321 29.8419 17.9426C29.7962 18.2961 29.7438 18.6485 29.6838 19.001C29.62 19.3754 29.5476 19.7488 29.4666 20.1222C29.4266 20.309 29.3837 20.4947 29.3399 20.6805C29.2513 21.052 29.1541 21.4235 29.0503 21.7931C28.8217 22.601 28.5902 23.4088 28.3577 24.2157C27.8919 25.8294 27.4204 27.4422 26.9526 29.0559C26.7183 29.8628 26.4858 30.6697 26.2544 31.4775C26.1572 31.8185 26.1067 32.1777 26.081 32.5339C26.0772 32.5844 26.0743 32.6359 26.0715 32.6864C26.0543 33.0122 26.0429 33.3389 26.0438 33.6657C26.0438 33.7743 26.0457 33.8838 26.0486 33.9924C26.0524 34.1372 26.0591 34.282 26.0686 34.4268C26.0762 34.5497 26.0915 34.6688 26.1134 34.785C26.1562 35.0174 26.2258 35.2375 26.3163 35.4471C26.362 35.5518 26.4125 35.6538 26.4677 35.7529C26.5792 35.952 26.7097 36.1406 26.8564 36.3206C27.0022 36.5007 27.1632 36.6721 27.3356 36.8369C27.5109 37.0046 27.6871 37.1723 27.8633 37.338C28.0396 37.5047 28.2177 37.6695 28.3958 37.8343C28.7531 38.163 29.1151 38.4859 29.4857 38.7993C29.6943 38.9756 29.8667 39.1632 30.0067 39.3604C30.4268 39.9539 30.5488 40.6446 30.4345 41.4295C30.4211 41.5229 30.4097 41.6172 30.3992 41.7105C30.3887 41.8049 30.3783 41.8982 30.3678 41.9925C30.3363 42.264 30.2754 42.5117 30.1887 42.7384C30.0734 43.0404 29.9134 43.3071 29.7209 43.5462C29.5761 43.7253 29.4123 43.8901 29.2351 44.0435C29.117 44.1454 28.9922 44.2426 28.8636 44.3369C28.7988 44.3836 28.7331 44.4293 28.6664 44.475C28.4663 44.6103 28.2568 44.7389 28.0424 44.8647C27.3794 45.2543 26.764 45.7239 26.101 46.1145C25.3113 46.5794 24.5101 47.0243 23.7099 47.4701C23.4432 47.6187 23.1764 47.7673 22.9097 47.9169C22.8364 47.9578 22.7554 47.9845 22.6801 48.0236C22.6077 48.0607 22.5439 48.0941 22.4877 48.1226C22.4029 48.1646 22.3334 48.196 22.2734 48.2131C22.2333 48.2246 22.1981 48.2312 22.1657 48.2303C22.1333 48.2303 22.1038 48.2227 22.0743 48.2093C22.0447 48.196 22.0181 48.175 21.9895 48.1465C21.919 48.076 21.8437 47.9578 21.7399 47.7845C21.3398 47.1205 20.934 46.4603 20.5386 45.7935C20.3405 45.4601 20.1462 45.1257 19.9556 44.7875C19.7661 44.4503 19.5803 44.1102 19.4022 43.7663C18.7468 42.5012 18.3428 41.1285 18.0647 39.7253C17.9532 39.1642 17.8103 38.6136 17.6465 38.0706C17.5369 37.7086 17.4169 37.3485 17.2911 36.9913C17.1654 36.634 17.032 36.2787 16.8949 35.9243C16.8263 35.7471 16.7567 35.57 16.6872 35.3937C16.6443 35.2861 16.6034 35.1775 16.5633 35.0689C16.4433 34.7431 16.3347 34.4125 16.228 34.081C16.1213 33.7495 16.0165 33.417 15.9041 33.0884C15.867 32.9788 15.8289 32.8693 15.7889 32.7597C15.4269 31.7566 14.9753 30.7964 14.3266 29.9361C14.0227 29.5332 13.7645 29.095 13.4788 28.6777C13.4235 28.5968 13.3654 28.5186 13.3044 28.4443C13.1834 28.2957 13.052 28.1595 12.911 28.0357C12.77 27.9118 12.6204 27.8004 12.4623 27.6994C12.3042 27.5984 12.1365 27.5089 11.9622 27.4298C11.8745 27.3898 11.786 27.3526 11.6945 27.3183C11.5373 27.2583 11.3878 27.185 11.243 27.1212C11.5659 26.681 11.8917 26.2438 12.2213 25.8094C13.8684 23.6403 15.6002 21.5531 17.4131 19.5411C18.138 18.7362 18.8763 17.9436 19.627 17.1615C20.3776 16.3803 21.1407 15.6097 21.9161 14.8504C24.2424 12.5737 26.6802 10.395 29.2208 8.30308C29.3513 8.39643 29.4923 8.49455 29.639 8.59839C29.7857 8.70222 29.9362 8.81082 30.0839 8.92418C31.6462 10.1226 33.2037 11.3267 34.6803 12.6232C34.826 12.7509 34.9708 12.8804 35.1156 13.01C35.6558 13.4968 36.1845 13.9969 36.696 14.5161C36.9866 14.8104 37.2714 15.1115 37.5515 15.4182C38.2564 16.1936 38.8871 17.0186 39.4682 17.8769C39.7168 18.2446 39.9569 18.6181 40.1902 18.9972C40.2674 19.1229 40.3446 19.2496 40.4208 19.3773C40.8009 20.0136 41.1638 20.6614 41.5173 21.3149C41.6811 21.6169 41.8421 21.9208 42.0012 22.2247C42.9576 24.0489 43.8436 25.9075 44.6866 27.7861C44.8267 28.0995 44.9667 28.4129 45.1048 28.7273C45.3811 29.355 45.6535 29.9857 45.9222 30.6173C46.0117 30.8278 46.1013 31.0383 46.1899 31.2498C46.2099 31.2974 46.227 31.346 46.2432 31.3965C46.2889 31.5461 46.3147 31.7061 46.3308 31.869C46.3518 32.0862 46.3547 32.3082 46.3632 32.5225C46.3718 32.7416 46.3785 32.9617 46.3823 33.1808C46.3851 33.3265 46.3861 33.4732 46.3861 33.619C46.3861 33.7647 46.3832 33.9105 46.3794 34.0572L46.3766 34.0515ZM30.1611 39.0804C29.5037 38.4697 28.8302 37.8486 28.1567 37.2208C27.9319 37.0113 27.7081 36.8007 27.4842 36.5902C27.2765 36.3949 27.0965 36.1872 26.9441 35.9691C26.8297 35.8052 26.7307 35.6347 26.6459 35.4585C26.5897 35.3404 26.5411 35.2203 26.4982 35.0965C26.4134 34.8498 26.3553 34.5916 26.3239 34.323C26.3087 34.1886 26.2991 34.0515 26.2972 33.9114C26.2963 33.8419 26.2972 33.7704 26.2991 33.699C26.3106 33.3294 26.3115 33.0055 26.3334 32.5949C26.3382 32.5035 26.4144 32.432 26.5059 32.432C26.5897 32.432 26.6687 32.4311 26.765 32.4358C26.9945 32.4482 27.2213 32.4615 27.4451 32.4787C27.5194 32.4844 27.5937 32.4911 27.6681 32.4977C27.8157 32.5111 27.9624 32.5273 28.1082 32.5454C28.2539 32.5644 28.3978 32.5854 28.5406 32.6111C28.6835 32.6368 28.8255 32.6664 28.9655 32.7007C29.036 32.7178 29.1056 32.7359 29.1751 32.7559C29.3837 32.815 29.5904 32.8864 29.7943 32.9721C29.8048 32.9769 29.8162 32.9826 29.8267 32.9902C29.9019 33.0436 29.9715 33.1636 29.9772 33.2494C30.0124 33.8 30.0477 34.3506 30.0782 34.9022C30.1096 35.4528 30.1363 36.0043 30.1534 36.5559C30.1811 37.4047 30.1592 38.2554 30.1592 39.0794L30.1611 39.0804Z" fill="black"/>
<g clip-path="url(#clip1_1363_6281)">
<path d="M17.7279 20.9582L17.7278 20.9582L17.7323 20.9677C17.8784 21.2747 17.9593 21.6114 17.9593 21.9663C17.9593 23.3088 16.7819 24.4598 15.2505 24.4598C13.7191 24.4598 12.5417 23.3088 12.5417 21.9663C12.5417 21.6114 12.6226 21.2747 12.7686 20.9677L12.7687 20.9677L12.773 20.9583L15.2513 15.4815L17.7279 20.9582Z" fill="#00EBFF" stroke="#342315" stroke-width="1.08333" stroke-linejoin="round"/>
</g>
<defs>
<filter id="filter0_d_1363_6281" x="9" y="8" width="37.3442" height="42.571" filterUnits="userSpaceOnUse" color-interpolation-filters="sRGB">
<feFlood flood-opacity="0" result="BackgroundImageFix"/>
<feColorMatrix in="SourceAlpha" type="matrix" values="0 0 0 0 0 0 0 0 0 0 0 0 0 0 0 0 0 0 127 0" result="hardAlpha"/>
<feOffset dx="-1" dy="2"/>
<feComposite in2="hardAlpha" operator="out"/>
<feColorMatrix type="matrix" values="0 0 0 0 0 0 0 0 0 0 0 0 0 0 0 0 0 0 0.25 0"/>
<feBlend mode="normal" in2="BackgroundImageFix" result="effect1_dropShadow_1363_6281"/>
<feBlend mode="normal" in="SourceGraphic" in2="effect1_dropShadow_1363_6281" result="shape"/>
</filter>
<clipPath id="clip0_1363_6281">
<rect width="6.5" height="10.8333" fill="white" transform="translate(19 8)"/>
</clipPath>
<clipPath id="clip1_1363_6281">
<rect width="6.5" height="10.8333" fill="white" transform="translate(12 14.1666)"/>
</clipPath>
</defs>
</svg>
