<svg width="64" height="64" viewBox="0 0 64 64" fill="none" xmlns="http://www.w3.org/2000/svg">
<path d="M33.3105 7.33008C33.4005 7.42008 33.5005 7.51008 33.6105 7.60008C33.5205 7.50008 33.4205 7.41008 33.3105 7.33008Z" fill="url(#paint0_linear_2001_5278)"/>
<path d="M30.8799 7.23047C30.6999 7.34047 30.5499 7.49047 30.4199 7.65047C30.5699 7.51047 30.7299 7.37047 30.8799 7.23047Z" fill="url(#paint1_linear_2001_5278)"/>
<path d="M32.0297 11.5996C33.2797 12.7796 34.6297 14.0796 35.2297 14.6596L35.5397 14.9496C37.2097 16.5496 38.6897 18.0096 40.0497 19.4096C42.0897 21.4996 44.3897 24.0196 46.0397 26.8496C46.4197 27.5096 46.7697 28.1796 47.0697 28.8396C48.5597 32.1496 49.3397 35.9196 49.3397 39.7296C49.3397 44.0996 47.7497 47.5596 44.6197 50.0296C41.5497 52.4496 37.0697 53.7796 32.0097 53.7796C26.9497 53.7796 22.4697 52.4496 19.3997 50.0296C16.2697 47.5596 14.6797 44.0996 14.6797 39.7296C14.6797 35.6296 15.4497 31.8196 16.9097 28.6996C18.4597 25.3997 20.9597 22.5296 23.1997 20.1596C26.0397 17.1596 29.0997 14.2896 32.0397 11.5996M32.0397 6.88965C31.6097 6.88965 31.2197 7.01965 30.8897 7.23965C30.7397 7.37965 30.5797 7.51965 30.4297 7.65965C26.9497 10.8096 23.5097 14.0096 20.2897 17.4196C17.5597 20.3096 14.9797 23.3896 13.2897 27.0196C11.4497 30.9597 10.6797 35.4196 10.6797 39.7496C10.6797 51.5296 20.2297 57.7996 32.0097 57.7996C43.7897 57.7996 53.3397 51.5296 53.3397 39.7496C53.3397 35.4496 52.4797 31.1496 50.7197 27.2196C50.3497 26.3996 49.9397 25.6096 49.4997 24.8496C47.7297 21.8096 45.3897 19.1696 42.9197 16.6296C41.4097 15.0796 39.8697 13.5596 38.3097 12.0696C37.9297 11.6996 35.3597 9.21965 33.6197 7.60965C33.5197 7.51965 33.4197 7.41965 33.3197 7.33965C32.9597 7.06965 32.5297 6.89965 32.0397 6.89965V6.88965Z" fill="url(#paint2_linear_2001_5278)"/>
<path d="M30.2001 19.7297C30.0801 19.7297 29.9601 19.7597 29.8501 19.7997C29.6401 19.8797 29.5201 20.0097 29.3901 20.1097C27.9101 21.4597 26.4501 22.8297 25.0501 24.2597C23.1601 26.1997 21.2801 28.2597 20.1201 30.7497C19.0301 33.0697 18.5801 35.6997 18.5801 38.2497C18.5801 44.1997 22.7201 47.7697 28.2701 48.6597C29.7901 48.8997 31.1501 47.6897 31.1501 46.1497V20.5397C31.1501 20.0197 30.7201 19.7197 30.2001 19.7197V19.7297Z" fill="url(#paint3_linear_2001_5278)"/>
<defs>
<linearGradient id="paint0_linear_2001_5278" x1="33.3503" y1="7.34913" x2="33.4634" y2="7.61932" gradientUnits="userSpaceOnUse">
<stop stop-color="white"/>
<stop offset="1" stop-color="#5867FE"/>
</linearGradient>
<linearGradient id="paint1_linear_2001_5278" x1="30.4809" y1="7.2601" x2="30.6586" y2="7.67858" gradientUnits="userSpaceOnUse">
<stop stop-color="white"/>
<stop offset="1" stop-color="#5867FE"/>
</linearGradient>
<linearGradient id="paint2_linear_2001_5278" x1="16.3312" y1="10.4815" x2="41.7427" y2="56.2508" gradientUnits="userSpaceOnUse">
<stop stop-color="white"/>
<stop offset="1" stop-color="#5867FE"/>
</linearGradient>
<linearGradient id="paint3_linear_2001_5278" x1="20.2453" y1="21.7637" x2="37.2408" y2="37.6141" gradientUnits="userSpaceOnUse">
<stop stop-color="white"/>
<stop offset="1" stop-color="#5867FE"/>
</linearGradient>
</defs>
</svg>
