<svg width="49" height="49" viewBox="0 0 49 49" fill="none" xmlns="http://www.w3.org/2000/svg">
<g clip-path="url(#clip0_2534_5023)">
<path d="M43.8495 0L43.6395 1.48C43.4995 2.46 42.7295 3.23 41.7495 3.37L40.2695 3.58V4.48L41.7495 4.69C42.7295 4.83 43.4995 5.6 43.6395 6.58L43.7695 7.49C43.8195 7.82 44.0995 8.07 44.4395 8.07H44.7495L44.9595 6.59C45.0995 5.61 45.8695 4.84 46.8495 4.7L48.3295 4.49V3.59L46.8495 3.38C45.8695 3.24 45.0995 2.47 44.9595 1.49L44.7495 0.01H43.8495V0Z" fill="url(#paint0_linear_2534_5023)"/>
<path d="M6.5 36.7402H2V46.9102H6.5V36.7402Z" fill="url(#paint1_linear_2534_5023)"/>
<path d="M4.5 38.7402V44.9102H4V38.7402H4.5ZM7.02 34.7402H1.48C0.66 34.7402 0 35.4102 0 36.2202V47.4202C0 48.2402 0.67 48.9002 1.48 48.9002H7.02C7.84 48.9002 8.5 48.2302 8.5 47.4202V36.2202C8.5 35.4002 7.83 34.7402 7.02 34.7402Z" fill="url(#paint2_linear_2534_5023)"/>
<path d="M42.4808 13.0703H46.1308C46.3608 13.0703 46.5508 13.2603 46.5508 13.4903V46.4803C46.5508 46.7103 46.3608 46.9003 46.1308 46.9003H42.4708C42.2408 46.9003 42.0508 46.7103 42.0508 46.4803V13.5003C42.0508 13.2703 42.2408 13.0803 42.4708 13.0803L42.4808 13.0703Z" fill="url(#paint3_linear_2534_5023)"/>
<path d="M44.5505 15.0703V44.9103H44.0505V15.0703H44.5505ZM46.1305 11.0703H42.4805C41.1505 11.0703 40.0605 12.1603 40.0605 13.4903V46.4803C40.0605 47.8103 41.1505 48.9003 42.4805 48.9003H46.1305C47.4605 48.9003 48.5505 47.8103 48.5505 46.4803V13.4903C48.5505 12.1603 47.4605 11.0703 46.1305 11.0703Z" fill="url(#paint4_linear_2534_5023)"/>
<path d="M28.8597 20.7402H33.0297C33.1197 20.7402 33.1897 20.8102 33.1897 20.9002V46.7402C33.1897 46.8302 33.1197 46.9102 33.0197 46.9102H28.8497C28.7597 46.9102 28.6797 46.8402 28.6797 46.7402V20.9002C28.6797 20.8102 28.7497 20.7402 28.8397 20.7402H28.8597Z" fill="url(#paint5_linear_2534_5023)"/>
<path d="M31.2009 22.7402V44.9102H30.7009V22.7402H31.2009ZM33.0409 18.7402H28.8709C27.6809 18.7402 26.7109 19.7102 26.7109 20.9002V46.7402C26.7109 47.9302 27.6809 48.9002 28.8709 48.9002H33.0409C34.2309 48.9002 35.2009 47.9302 35.2009 46.7402V20.9002C35.2009 19.7102 34.2309 18.7402 33.0409 18.7402Z" fill="url(#paint6_linear_2534_5023)"/>
<path d="M19.8496 31.1201H15.3496V46.9101H19.8496V31.1201Z" fill="url(#paint7_linear_2534_5023)"/>
<path d="M17.8496 33.1201V44.9101H17.3496V33.1201H17.8496ZM20.0996 29.1201H15.0996C14.1396 29.1201 13.3496 29.9101 13.3496 30.8701V47.1601C13.3496 48.1201 14.1396 48.9101 15.0996 48.9101H20.0996C21.0596 48.9101 21.8496 48.1201 21.8496 47.1601V30.8701C21.8496 29.9101 21.0596 29.1201 20.0996 29.1201Z" fill="url(#paint8_linear_2534_5023)"/>
</g>
<defs>
<linearGradient id="paint0_linear_2534_5023" x1="41.3373" y1="0.569356" x2="44.9703" y2="8.36862" gradientUnits="userSpaceOnUse">
<stop stop-color="white"/>
<stop offset="1" stop-color="#5867FE"/>
</linearGradient>
<linearGradient id="paint1_linear_2534_5023" x1="2.59615" y1="37.4577" x2="8.56938" y2="43.1388" gradientUnits="userSpaceOnUse">
<stop stop-color="white"/>
<stop offset="1" stop-color="#5867FE"/>
</linearGradient>
<linearGradient id="paint2_linear_2534_5023" x1="1.12607" y1="35.7393" x2="9.18993" y2="46.1439" gradientUnits="userSpaceOnUse">
<stop stop-color="white"/>
<stop offset="1" stop-color="#5867FE"/>
</linearGradient>
<linearGradient id="paint3_linear_2534_5023" x1="42.6469" y1="15.4571" x2="53.1636" y2="18.464" gradientUnits="userSpaceOnUse">
<stop stop-color="white"/>
<stop offset="1" stop-color="#5867FE"/>
</linearGradient>
<linearGradient id="paint4_linear_2534_5023" x1="41.1853" y1="13.7393" x2="58.597" y2="22.1385" gradientUnits="userSpaceOnUse">
<stop stop-color="white"/>
<stop offset="1" stop-color="#5867FE"/>
</linearGradient>
<linearGradient id="paint5_linear_2534_5023" x1="29.2772" y1="22.5866" x2="39.3031" y2="26.3004" gradientUnits="userSpaceOnUse">
<stop stop-color="white"/>
<stop offset="1" stop-color="#5867FE"/>
</linearGradient>
<linearGradient id="paint6_linear_2534_5023" x1="27.8357" y1="20.8681" x2="43.5471" y2="30.3745" gradientUnits="userSpaceOnUse">
<stop stop-color="white"/>
<stop offset="1" stop-color="#5867FE"/>
</linearGradient>
<linearGradient id="paint7_linear_2534_5023" x1="15.9458" y1="32.2341" x2="24.218" y2="37.3015" gradientUnits="userSpaceOnUse">
<stop stop-color="white"/>
<stop offset="1" stop-color="#5867FE"/>
</linearGradient>
<linearGradient id="paint8_linear_2534_5023" x1="14.4757" y1="30.5163" x2="26.0767" y2="41.2265" gradientUnits="userSpaceOnUse">
<stop stop-color="white"/>
<stop offset="1" stop-color="#5867FE"/>
</linearGradient>
<clipPath id="clip0_2534_5023">
<rect width="48.55" height="48.91" fill="white"/>
</clipPath>
</defs>
</svg>
