
<svg width="64" height="64" viewBox="0 0 64 64" fill="none" xmlns="http://www.w3.org/2000/svg">
<path d="M32.2391 10.6301C32.7791 10.6301 33.7691 11.3501 34.8091 12.1201C35.0091 12.2701 35.2091 12.4201 35.4191 12.5601L35.4991 12.6201C39.9191 15.8301 44.4891 19.1501 48.5291 22.7701L48.7391 22.9601L48.9791 23.1201C50.2191 23.9501 51.2991 25.0801 52.1091 26.3801L52.1891 26.5201L52.2791 26.6501C53.2391 27.9501 53.7091 29.1101 53.7091 30.1801V30.3901L53.7291 30.6001C53.8491 31.6801 53.8491 32.7701 53.7291 33.8601L53.7091 34.0801V43.4001C53.7091 49.2501 49.0591 54.0001 43.3491 54.0001H20.6691C14.9491 54.0001 10.3091 49.2401 10.3091 43.4001V32.0601C10.3091 31.7401 10.3291 31.4301 10.3591 31.1001C10.3691 30.9801 10.3791 30.8601 10.3991 30.7101C10.5291 29.5301 10.7791 28.4701 11.1491 27.5301C11.4191 26.8401 11.8791 26.1501 12.5591 25.4201L12.6491 25.3301L12.7291 25.2301C13.4791 24.3101 14.3891 23.5301 15.4391 22.8901L15.6291 22.7801L15.7991 22.6501L15.8791 22.5901C16.2891 22.2801 16.6891 21.9601 17.0891 21.6501C20.0091 19.3501 23.1291 16.9001 26.1691 14.6101C26.7291 14.1901 27.2591 13.7601 27.7691 13.3501C29.1491 12.2401 30.4391 11.1901 31.7191 10.7501C31.9291 10.6801 32.1191 10.6401 32.2591 10.6401M32.2391 6.63012C31.6691 6.63012 31.0491 6.73012 30.3791 6.97012C27.8491 7.85012 25.8391 9.84012 23.7391 11.4201C20.7191 13.6901 17.6091 16.1301 14.5891 18.5101C14.1791 18.8301 13.7591 19.1601 13.3391 19.4801C11.9291 20.3401 10.6591 21.4301 9.60906 22.7101C8.68906 23.7001 7.89906 24.8101 7.39906 26.1001C6.87906 27.4101 6.56906 28.8301 6.39906 30.2801C6.37906 30.4501 6.35906 30.6101 6.34906 30.7801C6.30906 31.2001 6.28906 31.6201 6.28906 32.0401V43.4001C6.28906 51.4301 12.7491 58.0001 20.6491 58.0001H43.3291C51.2291 58.0001 57.6891 51.4301 57.6891 43.4001V34.2901C57.8391 32.9301 57.8391 31.5201 57.6891 30.1501C57.6791 27.9701 56.7591 26.0001 55.4791 24.2701C54.3691 22.4801 52.9091 20.9501 51.1691 19.7901C46.9491 16.0001 42.3191 12.6401 37.7391 9.32012C35.8691 7.96012 34.2991 6.62012 32.2191 6.62012L32.2391 6.63012Z" fill="url(#paint0_linear_2001_5288)"/>
<path d="M32 36.2695C27.47 36.2695 23.75 39.9795 23.75 44.5195V55.1195H40.24V44.5195C40.24 39.9895 36.53 36.2695 31.99 36.2695H32Z" fill="url(#paint1_linear_2001_5288)"/>
<defs>
<linearGradient id="paint0_linear_2001_5288" x1="13.1134" y1="10.2451" x2="36.1871" y2="59.9688" gradientUnits="userSpaceOnUse">
<stop stop-color="white"/>
<stop offset="1" stop-color="#5867FE"/>
</linearGradient>
<linearGradient id="paint1_linear_2001_5288" x1="25.9346" y1="37.5994" x2="35.1257" y2="54.8819" gradientUnits="userSpaceOnUse">
<stop stop-color="white"/>
<stop offset="1" stop-color="#5867FE"/>
</linearGradient>
</defs>
</svg>
