<svg width="64" height="64" viewBox="0 0 64 64" fill="none" xmlns="http://www.w3.org/2000/svg">
<path d="M43.97 22.4901L40.77 33.9901L39.53 38.4301H45.52L33.91 47.7401L37.4001 35.9201L38.72 31.4301H32.88L43.97 22.4901ZM47.76 15.3301C47.47 15.3301 47.16 15.4301 46.89 15.6401L25.5 32.8801C24.66 33.5601 25.14 34.9201 26.22 34.9201H34.04L28.65 53.2001C28.36 54.1701 29.14 54.9901 29.99 54.9901C30.28 54.9901 30.58 54.8901 30.85 54.6801L52.91 36.9901C53.76 36.3101 53.28 34.9301 52.19 34.9301H44.14L49.11 17.1101C49.38 16.1401 48.61 15.3401 47.76 15.3401V15.3301Z" fill="url(#paint0_linear_2001_5302)"/>
<path d="M18.3298 20.0902L15.2598 21.3702L19.1198 14.2402L20.2998 23.6002L23.4498 22.2802L19.3998 29.7302L18.3298 20.0902Z" fill="white"/>
<path d="M19.8393 9.57031C19.5693 9.57031 19.2993 9.70031 19.1493 9.99031L11.6893 23.7803C11.4393 24.2403 11.7993 24.7503 12.2593 24.7503C12.3393 24.7503 12.4293 24.7303 12.5193 24.7003L16.6393 22.9803L17.8293 33.7903C17.8793 34.2403 18.2493 34.5003 18.6193 34.5003C18.8893 34.5003 19.1593 34.3703 19.3093 34.0903L27.0193 19.9103C27.2693 19.4503 26.9093 18.9303 26.4393 18.9303C26.3593 18.9303 26.2693 18.9503 26.1793 18.9803L21.9393 20.7503L20.6193 10.2703C20.5593 9.83031 20.1993 9.57031 19.8293 9.57031H19.8393Z" fill="url(#paint1_linear_2001_5302)"/>
<defs>
<linearGradient id="paint0_linear_2001_5302" x1="28.8178" y1="18.1282" x2="50.1671" y2="50.8413" gradientUnits="userSpaceOnUse">
<stop stop-color="white"/>
<stop offset="1" stop-color="#5867FE"/>
</linearGradient>
<linearGradient id="paint1_linear_2001_5302" x1="13.66" y1="11.3292" x2="27.7268" y2="30.1205" gradientUnits="userSpaceOnUse">
<stop stop-color="white"/>
<stop offset="1" stop-color="#5867FE"/>
</linearGradient>
</defs>
</svg>
