<svg width="49" height="49" viewBox="0 0 49 49" fill="none" xmlns="http://www.w3.org/2000/svg">
<g clip-path="url(#clip0_2566_4891)">
<path d="M43.8495 25.0195L43.6395 26.4995C43.4995 27.4795 42.7295 28.2495 41.7495 28.3895L40.2695 28.5995V29.4995L41.7495 29.7095C42.7295 29.8495 43.4995 30.6195 43.6395 31.5995L43.7695 32.5095C43.8195 32.8395 44.0995 33.0895 44.4395 33.0895H44.7495L44.9595 31.6095C45.0995 30.6295 45.8695 29.8595 46.8495 29.7195L48.3295 29.5095V28.6095L46.8495 28.3995C45.8695 28.2595 45.0995 27.4895 44.9595 26.5095L44.7495 25.0295H43.8495V25.0195Z" fill="url(#paint0_linear_2566_4891)"/>
<path d="M46.5508 36.6699H42.0508V46.8399H46.5508V36.6699Z" fill="url(#paint1_linear_2566_4891)"/>
<path d="M44.5508 38.6699V44.8399H44.0508V38.6699H44.5508ZM47.0708 34.6699H41.5308C40.7108 34.6699 40.0508 35.3399 40.0508 36.1499V47.3499C40.0508 48.1699 40.7208 48.8299 41.5308 48.8299H47.0708C47.8908 48.8299 48.5508 48.1599 48.5508 47.3499V36.1499C48.5508 35.3299 47.8808 34.6699 47.0708 34.6699Z" fill="url(#paint2_linear_2566_4891)"/>
<path d="M2.42023 13H6.07023C6.30023 13 6.49023 13.19 6.49023 13.42V46.41C6.49023 46.64 6.30023 46.83 6.07023 46.83H2.41023C2.18023 46.83 1.99023 46.64 1.99023 46.41V13.42C1.99023 13.19 2.18023 13 2.41023 13H2.42023Z" fill="url(#paint3_linear_2566_4891)"/>
<path d="M4.5 15V44.84H4V15H4.5ZM6.08 11H2.43C1.09 11 0 12.09 0 13.42V46.41C0 47.74 1.09 48.83 2.42 48.83H6.07C7.4 48.83 8.49 47.74 8.49 46.41V13.42C8.49 12.09 7.4 11 6.07 11H6.08Z" fill="url(#paint4_linear_2566_4891)"/>
<path d="M19.6896 20.6699H15.5096C15.4212 20.6699 15.3496 20.7416 15.3496 20.8299V46.6799C15.3496 46.7683 15.4212 46.8399 15.5096 46.8399H19.6896C19.778 46.8399 19.8496 46.7683 19.8496 46.6799V20.8299C19.8496 20.7416 19.778 20.6699 19.6896 20.6699Z" fill="url(#paint5_linear_2566_4891)"/>
<path d="M17.8494 22.6699V44.8399H17.3494V22.6699H17.8494ZM19.6894 18.6699H15.5194C14.3294 18.6699 13.3594 19.6399 13.3594 20.8299V46.6699C13.3594 47.8599 14.3294 48.8299 15.5194 48.8299H19.6894C20.8794 48.8299 21.8494 47.8599 21.8494 46.6699V20.8299C21.8494 19.6399 20.8794 18.6699 19.6894 18.6699Z" fill="url(#paint6_linear_2566_4891)"/>
<path d="M33.1992 31.0498H28.6992V46.8398H33.1992V31.0498Z" fill="url(#paint7_linear_2566_4891)"/>
<path d="M31.1992 33.0498V44.8398H30.6992V33.0498H31.1992ZM33.4492 29.0498H28.4492C27.4892 29.0498 26.6992 29.8398 26.6992 30.7998V47.0898C26.6992 48.0498 27.4892 48.8398 28.4492 48.8398H33.4492C34.4092 48.8398 35.1992 48.0498 35.1992 47.0898V30.7998C35.1992 29.8398 34.4092 29.0498 33.4492 29.0498Z" fill="url(#paint8_linear_2566_4891)"/>
</g>
<defs>
<linearGradient id="paint0_linear_2566_4891" x1="41.3373" y1="25.5889" x2="44.9703" y2="33.3882" gradientUnits="userSpaceOnUse">
<stop stop-color="white"/>
<stop offset="1" stop-color="#5867FE"/>
</linearGradient>
<linearGradient id="paint1_linear_2566_4891" x1="42.6469" y1="37.3874" x2="48.6202" y2="43.0685" gradientUnits="userSpaceOnUse">
<stop stop-color="white"/>
<stop offset="1" stop-color="#5867FE"/>
</linearGradient>
<linearGradient id="paint2_linear_2566_4891" x1="41.1768" y1="35.6689" x2="49.2407" y2="46.0736" gradientUnits="userSpaceOnUse">
<stop stop-color="white"/>
<stop offset="1" stop-color="#5867FE"/>
</linearGradient>
<linearGradient id="paint3_linear_2566_4891" x1="2.58639" y1="15.3868" x2="13.103" y2="18.3937" gradientUnits="userSpaceOnUse">
<stop stop-color="white"/>
<stop offset="1" stop-color="#5867FE"/>
</linearGradient>
<linearGradient id="paint4_linear_2566_4891" x1="1.12474" y1="13.669" x2="18.5365" y2="22.0682" gradientUnits="userSpaceOnUse">
<stop stop-color="white"/>
<stop offset="1" stop-color="#5867FE"/>
</linearGradient>
<linearGradient id="paint5_linear_2566_4891" x1="15.9458" y1="22.5163" x2="25.9548" y2="26.2157" gradientUnits="userSpaceOnUse">
<stop stop-color="white"/>
<stop offset="1" stop-color="#5867FE"/>
</linearGradient>
<linearGradient id="paint6_linear_2566_4891" x1="14.4841" y1="20.7978" x2="30.1955" y2="30.3042" gradientUnits="userSpaceOnUse">
<stop stop-color="white"/>
<stop offset="1" stop-color="#5867FE"/>
</linearGradient>
<linearGradient id="paint7_linear_2566_4891" x1="29.2954" y1="32.1638" x2="37.5676" y2="37.2312" gradientUnits="userSpaceOnUse">
<stop stop-color="white"/>
<stop offset="1" stop-color="#5867FE"/>
</linearGradient>
<linearGradient id="paint8_linear_2566_4891" x1="27.8253" y1="30.446" x2="39.4263" y2="41.1562" gradientUnits="userSpaceOnUse">
<stop stop-color="white"/>
<stop offset="1" stop-color="#5867FE"/>
</linearGradient>
<clipPath id="clip0_2566_4891">
<rect width="48.55" height="37.84" fill="white" transform="translate(0 11)"/>
</clipPath>
</defs>
</svg>
