<svg width="49" height="38" viewBox="0 0 49 38" fill="none" xmlns="http://www.w3.org/2000/svg">
<g clip-path="url(#clip0_2534_5012)">
<path d="M43.8495 14.0195L43.6395 15.4995C43.4995 16.4795 42.7295 17.2495 41.7495 17.3895L40.2695 17.5995V18.4995L41.7495 18.7095C42.7295 18.8495 43.4995 19.6195 43.6395 20.5995L43.7695 21.5095C43.8195 21.8395 44.0995 22.0895 44.4395 22.0895H44.7495L44.9595 20.6095C45.0995 19.6295 45.8695 18.8595 46.8495 18.7195L48.3295 18.5095V17.6095L46.8495 17.3995C45.8695 17.2595 45.0995 16.4895 44.9595 15.5095L44.7495 14.0295H43.8495V14.0195Z" fill="url(#paint0_linear_2534_5012)"/>
<path d="M46.5508 25.6699H42.0508V35.8399H46.5508V25.6699Z" fill="url(#paint1_linear_2534_5012)"/>
<path d="M44.5508 27.6699V33.8399H44.0508V27.6699H44.5508ZM47.0708 23.6699H41.5308C40.7108 23.6699 40.0508 24.3399 40.0508 25.1499V36.3499C40.0508 37.1699 40.7208 37.8299 41.5308 37.8299H47.0708C47.8908 37.8299 48.5508 37.1599 48.5508 36.3499V25.1499C48.5508 24.3299 47.8808 23.6699 47.0708 23.6699Z" fill="url(#paint2_linear_2534_5012)"/>
<path d="M2.42023 2H6.07023C6.30023 2 6.49023 2.19 6.49023 2.42V35.41C6.49023 35.64 6.30023 35.83 6.07023 35.83H2.41023C2.18023 35.83 1.99023 35.64 1.99023 35.41V2.42C1.99023 2.19 2.18023 2 2.41023 2H2.42023Z" fill="url(#paint3_linear_2534_5012)"/>
<path d="M4.5 4V33.84H4V4H4.5ZM6.08 0H2.43C1.09 0 0 1.09 0 2.42V35.41C0 36.74 1.09 37.83 2.42 37.83H6.07C7.4 37.83 8.49 36.74 8.49 35.41V2.42C8.49 1.09 7.4 0 6.07 0H6.08Z" fill="url(#paint4_linear_2534_5012)"/>
<path d="M19.6896 9.66992H15.5096C15.4212 9.66992 15.3496 9.74156 15.3496 9.82992V35.6799C15.3496 35.7683 15.4212 35.8399 15.5096 35.8399H19.6896C19.778 35.8399 19.8496 35.7683 19.8496 35.6799V9.82992C19.8496 9.74156 19.778 9.66992 19.6896 9.66992Z" fill="url(#paint5_linear_2534_5012)"/>
<path d="M17.8494 11.6699V33.8399H17.3494V11.6699H17.8494ZM19.6894 7.66992H15.5194C14.3294 7.66992 13.3594 8.63992 13.3594 9.82992V35.6699C13.3594 36.8599 14.3294 37.8299 15.5194 37.8299H19.6894C20.8794 37.8299 21.8494 36.8599 21.8494 35.6699V9.82992C21.8494 8.63992 20.8794 7.66992 19.6894 7.66992Z" fill="url(#paint6_linear_2534_5012)"/>
<path d="M33.1992 20.0498H28.6992V35.8398H33.1992V20.0498Z" fill="url(#paint7_linear_2534_5012)"/>
<path d="M31.1992 22.0498V33.8398H30.6992V22.0498H31.1992ZM33.4492 18.0498H28.4492C27.4892 18.0498 26.6992 18.8398 26.6992 19.7998V36.0898C26.6992 37.0498 27.4892 37.8398 28.4492 37.8398H33.4492C34.4092 37.8398 35.1992 37.0498 35.1992 36.0898V19.7998C35.1992 18.8398 34.4092 18.0498 33.4492 18.0498Z" fill="url(#paint8_linear_2534_5012)"/>
</g>
<defs>
<linearGradient id="paint0_linear_2534_5012" x1="41.3373" y1="14.5889" x2="44.9703" y2="22.3882" gradientUnits="userSpaceOnUse">
<stop stop-color="white"/>
<stop offset="1" stop-color="#5867FE"/>
</linearGradient>
<linearGradient id="paint1_linear_2534_5012" x1="42.6469" y1="26.3874" x2="48.6202" y2="32.0685" gradientUnits="userSpaceOnUse">
<stop stop-color="white"/>
<stop offset="1" stop-color="#5867FE"/>
</linearGradient>
<linearGradient id="paint2_linear_2534_5012" x1="41.1768" y1="24.6689" x2="49.2407" y2="35.0736" gradientUnits="userSpaceOnUse">
<stop stop-color="white"/>
<stop offset="1" stop-color="#5867FE"/>
</linearGradient>
<linearGradient id="paint3_linear_2534_5012" x1="2.58639" y1="4.38678" x2="13.103" y2="7.39366" gradientUnits="userSpaceOnUse">
<stop stop-color="white"/>
<stop offset="1" stop-color="#5867FE"/>
</linearGradient>
<linearGradient id="paint4_linear_2534_5012" x1="1.12474" y1="2.66899" x2="18.5365" y2="11.0682" gradientUnits="userSpaceOnUse">
<stop stop-color="white"/>
<stop offset="1" stop-color="#5867FE"/>
</linearGradient>
<linearGradient id="paint5_linear_2534_5012" x1="15.9458" y1="11.5163" x2="25.9548" y2="15.2157" gradientUnits="userSpaceOnUse">
<stop stop-color="white"/>
<stop offset="1" stop-color="#5867FE"/>
</linearGradient>
<linearGradient id="paint6_linear_2534_5012" x1="14.4841" y1="9.79778" x2="30.1955" y2="19.3042" gradientUnits="userSpaceOnUse">
<stop stop-color="white"/>
<stop offset="1" stop-color="#5867FE"/>
</linearGradient>
<linearGradient id="paint7_linear_2534_5012" x1="29.2954" y1="21.1638" x2="37.5676" y2="26.2312" gradientUnits="userSpaceOnUse">
<stop stop-color="white"/>
<stop offset="1" stop-color="#5867FE"/>
</linearGradient>
<linearGradient id="paint8_linear_2534_5012" x1="27.8253" y1="19.446" x2="39.4263" y2="30.1562" gradientUnits="userSpaceOnUse">
<stop stop-color="white"/>
<stop offset="1" stop-color="#5867FE"/>
</linearGradient>
<clipPath id="clip0_2534_5012">
<rect width="48.55" height="37.84" fill="white"/>
</clipPath>
</defs>
</svg>
