<svg width="56" height="56" viewBox="0 0 56 56" fill="none" xmlns="http://www.w3.org/2000/svg">
<g filter="url(#filter0_d_1363_6322)">
<mask id="path-2-outside-1_1363_6322" maskUnits="userSpaceOnUse" x="13" y="8" width="17" height="36" fill="black">
<rect fill="white" x="13" y="8" width="17" height="36"/>
<path fill-rule="evenodd" clip-rule="evenodd" d="M21.901 10.0206C24.1347 10.2 26.0388 11.5109 27.2178 13.4236C27.702 14.2092 28.064 15.0975 28.2758 16.0496L28.2773 16.0493C28.4016 16.6069 28.474 17.1872 28.4902 17.7827L27.5155 16.7539C27.4827 16.7193 27.443 16.6981 27.4016 16.6889C27.4423 16.6983 27.4813 16.7194 27.5135 16.7534L28.4883 17.7822C28.498 18.1107 28.4894 18.4447 28.4624 18.7818C28.3662 19.9922 28.042 21.1225 27.5438 22.1232V22.1234L27.5438 22.1232L27.5432 22.1235L27.5433 22.1233C25.8619 22.3988 23.9321 22.4787 21.8942 22.3156C18.8705 22.0735 16.1678 21.3408 14.2129 20.3455H14.214C14.0227 19.4832 13.9546 18.5679 14.0302 17.6266C14.0627 17.2181 14.1221 16.8194 14.2042 16.4303L14.2056 16.4296C14.3579 15.7164 14.5899 15.0399 14.8898 14.413L14.8887 14.4124C15.1102 13.9499 15.3674 13.5144 15.6581 13.1102C17.1299 11.0613 19.4263 9.82287 21.901 10.0206ZM16.1536 15.5031C16.1907 15.5423 16.2142 15.5954 16.2142 15.6566L16.2186 19.0001C16.2186 19.1602 16.3307 19.2747 16.4637 19.3042C16.3315 19.274 16.2205 19.1598 16.2205 19.0006L16.2162 15.6581C16.2158 15.5961 16.1915 15.5424 16.1536 15.5031ZM19.6367 16.7976C19.6847 16.8277 19.722 16.8762 19.7361 16.9393L20.5812 20.7411C20.6104 20.8715 20.7075 20.9529 20.817 20.9773C20.7083 20.9524 20.6121 20.8712 20.5831 20.7415L19.738 16.9398C19.7238 16.8762 19.6856 16.8275 19.6367 16.7976ZM23.2367 17.3209C23.3101 17.3221 23.3831 17.3583 23.4265 17.4299L25.4268 20.7594C25.4744 20.8387 25.5464 20.8858 25.6236 20.9031C25.5471 20.8854 25.4759 20.8385 25.4287 20.7599L23.4284 17.4304C23.3847 17.3576 23.3107 17.3213 23.2367 17.3209ZM27.5432 22.1235C25.8619 22.399 23.932 22.4789 21.8942 22.3157C18.8716 22.0737 16.1689 21.3421 14.2129 20.3457C14.7943 22.9793 16.5212 25.1189 18.8132 25.9889L18.3907 31.2743C18.207 33.5642 17.7531 35.8207 17.0907 38.0198C17.015 38.2705 16.9642 38.5352 16.9426 38.8108C16.8043 40.5409 17.845 42.0355 19.2671 42.149C20.6892 42.2624 21.9547 40.9527 22.093 39.2225C22.1146 38.947 22.1071 38.6768 22.0725 38.4185C21.7677 36.1416 21.678 33.842 21.8618 31.5521L22.2821 26.3012C24.5122 25.8874 26.4484 24.3198 27.5432 22.1235Z"/>
</mask>
<path fill-rule="evenodd" clip-rule="evenodd" d="M21.901 10.0206C24.1347 10.2 26.0388 11.5109 27.2178 13.4236C27.702 14.2092 28.064 15.0975 28.2758 16.0496L28.2773 16.0493C28.4016 16.6069 28.474 17.1872 28.4902 17.7827L27.5155 16.7539C27.4827 16.7193 27.443 16.6981 27.4016 16.6889C27.4423 16.6983 27.4813 16.7194 27.5135 16.7534L28.4883 17.7822C28.498 18.1107 28.4894 18.4447 28.4624 18.7818C28.3662 19.9922 28.042 21.1225 27.5438 22.1232V22.1234L27.5438 22.1232L27.5432 22.1235L27.5433 22.1233C25.8619 22.3988 23.9321 22.4787 21.8942 22.3156C18.8705 22.0735 16.1678 21.3408 14.2129 20.3455H14.214C14.0227 19.4832 13.9546 18.5679 14.0302 17.6266C14.0627 17.2181 14.1221 16.8194 14.2042 16.4303L14.2056 16.4296C14.3579 15.7164 14.5899 15.0399 14.8898 14.413L14.8887 14.4124C15.1102 13.9499 15.3674 13.5144 15.6581 13.1102C17.1299 11.0613 19.4263 9.82287 21.901 10.0206ZM16.1536 15.5031C16.1907 15.5423 16.2142 15.5954 16.2142 15.6566L16.2186 19.0001C16.2186 19.1602 16.3307 19.2747 16.4637 19.3042C16.3315 19.274 16.2205 19.1598 16.2205 19.0006L16.2162 15.6581C16.2158 15.5961 16.1915 15.5424 16.1536 15.5031ZM19.6367 16.7976C19.6847 16.8277 19.722 16.8762 19.7361 16.9393L20.5812 20.7411C20.6104 20.8715 20.7075 20.9529 20.817 20.9773C20.7083 20.9524 20.6121 20.8712 20.5831 20.7415L19.738 16.9398C19.7238 16.8762 19.6856 16.8275 19.6367 16.7976ZM23.2367 17.3209C23.3101 17.3221 23.3831 17.3583 23.4265 17.4299L25.4268 20.7594C25.4744 20.8387 25.5464 20.8858 25.6236 20.9031C25.5471 20.8854 25.4759 20.8385 25.4287 20.7599L23.4284 17.4304C23.3847 17.3576 23.3107 17.3213 23.2367 17.3209ZM27.5432 22.1235C25.8619 22.399 23.932 22.4789 21.8942 22.3157C18.8716 22.0737 16.1689 21.3421 14.2129 20.3457C14.7943 22.9793 16.5212 25.1189 18.8132 25.9889L18.3907 31.2743C18.207 33.5642 17.7531 35.8207 17.0907 38.0198C17.015 38.2705 16.9642 38.5352 16.9426 38.8108C16.8043 40.5409 17.845 42.0355 19.2671 42.149C20.6892 42.2624 21.9547 40.9527 22.093 39.2225C22.1146 38.947 22.1071 38.6768 22.0725 38.4185C21.7677 36.1416 21.678 33.842 21.8618 31.5521L22.2821 26.3012C24.5122 25.8874 26.4484 24.3198 27.5432 22.1235Z" fill="#DFCF1E"/>
<path d="M27.2178 13.4236L28.0692 12.899L28.0691 12.8989L27.2178 13.4236ZM21.901 10.0206L21.9811 9.02384L21.9807 9.02381L21.901 10.0206ZM28.2758 16.0496L27.2997 16.2667C27.4159 16.7893 27.9231 17.1276 28.4502 17.0342L28.2758 16.0496ZM28.2773 16.0493L29.2534 15.8318C29.137 15.3094 28.6299 14.9713 28.1029 15.0646L28.2773 16.0493ZM28.4902 17.7827L27.7643 18.4705C28.0493 18.7712 28.4902 18.8651 28.873 18.7065C29.2558 18.5479 29.5011 18.1696 29.4899 17.7555L28.4902 17.7827ZM27.5155 16.7539L28.2414 16.0661L28.2411 16.0658L27.5155 16.7539ZM27.4016 16.6889L27.6179 15.7126C27.0804 15.5935 26.5477 15.9313 26.4262 16.4682C26.3047 17.0052 26.6401 17.5394 27.1766 17.6633L27.4016 16.6889ZM27.5135 16.7534L28.2395 16.0657L28.2392 16.0654L27.5135 16.7534ZM28.4883 17.7822L29.4879 17.7526C29.4806 17.5071 29.3832 17.2728 29.2142 17.0944L28.4883 17.7822ZM28.4624 18.7818L27.4656 18.702L27.4655 18.7026L28.4624 18.7818ZM27.5438 22.1232L26.6486 21.6775C26.5797 21.816 26.5438 21.9685 26.5438 22.1232H27.5438ZM27.5438 22.1234L26.548 22.2144C26.5966 22.7468 27.0554 23.1467 27.5894 23.1223C28.1234 23.098 28.5438 22.6579 28.5438 22.1234H27.5438ZM27.5438 22.1232L28.5397 22.0322C28.5101 21.709 28.3255 21.4202 28.0446 21.2577C27.7637 21.0951 27.4214 21.079 27.1265 21.2145L27.5438 22.1232ZM27.5433 22.1233L28.4368 22.5724C28.6057 22.2364 28.5718 21.8341 28.3491 21.5311C28.1265 21.2281 27.7527 21.0757 27.3816 21.1364L27.5433 22.1233ZM21.8942 22.3156L21.974 21.3188L21.974 21.3188L21.8942 22.3156ZM14.2129 20.3455V19.3455C13.7505 19.3455 13.3483 19.6626 13.2405 20.1122C13.1326 20.5619 13.3471 21.0269 13.7592 21.2367L14.2129 20.3455ZM14.214 20.3455V21.3455C14.5172 21.3455 14.8041 21.2079 14.9939 20.9714C15.1837 20.7349 15.2559 20.4251 15.1902 20.129L14.214 20.3455ZM14.0302 17.6266L15.027 17.7067L15.0271 17.7057L14.0302 17.6266ZM14.2042 16.4303L13.703 15.565C13.4578 15.7071 13.2843 15.9465 13.2258 16.2238L14.2042 16.4303ZM14.2056 16.4296L14.7068 17.2949C14.9513 17.1532 15.1245 16.9148 15.1835 16.6384L14.2056 16.4296ZM14.8898 14.413L15.7919 14.8445C16.0289 14.3491 15.8221 13.7554 15.3287 13.5144L14.8898 14.413ZM14.8887 14.4124L13.9868 13.9804C13.7495 14.4758 13.9562 15.0699 14.4498 15.3109L14.8887 14.4124ZM15.6581 13.1102L16.4699 13.6941L16.4703 13.6936L15.6581 13.1102ZM16.2142 15.6566H15.2142L15.2142 15.6579L16.2142 15.6566ZM16.1536 15.5031L16.8736 14.8092C16.4916 14.4128 15.861 14.3997 15.4629 14.7799C15.0648 15.1602 15.0489 15.7906 15.4273 16.1905L16.1536 15.5031ZM16.2186 19.0001H17.2186L17.2186 18.9988L16.2186 19.0001ZM16.4637 19.3042L16.2472 20.2805C16.7852 20.3998 17.3183 20.0613 17.4393 19.5237C17.5602 18.986 17.2234 18.4519 16.6862 18.3292L16.4637 19.3042ZM16.2205 19.0006H17.2205L17.2205 18.9993L16.2205 19.0006ZM16.2162 15.6581L17.2162 15.6568L17.2162 15.6519L16.2162 15.6581ZM19.7361 16.9393L20.7123 16.7223L20.7121 16.7217L19.7361 16.9393ZM19.6367 16.7976L20.1587 15.9446C19.6895 15.6575 19.0766 15.8032 18.7868 16.2707C18.497 16.7382 18.6391 17.352 19.105 17.6445L19.6367 16.7976ZM20.5812 20.7411L19.605 20.958L19.6053 20.9596L20.5812 20.7411ZM20.817 20.9773L20.6001 21.9535C21.1381 22.073 21.6714 21.7347 21.7925 21.1971C21.9136 20.6594 21.577 20.1252 21.0397 20.0024L20.817 20.9773ZM20.5831 20.7415L19.6069 20.9585L19.6073 20.96L20.5831 20.7415ZM19.738 16.9398L20.7142 16.7228L20.7138 16.7208L19.738 16.9398ZM23.4265 17.4299L24.2837 16.9149L24.2818 16.9118L23.4265 17.4299ZM23.2367 17.3209L23.2421 16.3209C22.6917 16.318 22.2425 16.7602 22.2367 17.3105C22.231 17.8608 22.671 18.3123 23.2212 18.3208L23.2367 17.3209ZM25.4268 20.7594L26.2843 20.2449L26.284 20.2444L25.4268 20.7594ZM25.6236 20.9031L25.4051 21.8789C25.9428 21.9993 26.4766 21.6621 26.5988 21.1247C26.7209 20.5874 26.3853 20.0525 25.8484 19.9287L25.6236 20.9031ZM25.4287 20.7599L26.2862 20.2454L26.2859 20.2449L25.4287 20.7599ZM23.4284 17.4304L24.2856 16.9154L24.2854 16.915L23.4284 17.4304ZM21.8942 22.3157L21.8143 23.3125L21.8144 23.3125L21.8942 22.3157ZM14.2129 20.3457L14.6668 19.4546C14.3221 19.279 13.907 19.318 13.601 19.5548C13.295 19.7915 13.153 20.1835 13.2364 20.5613L14.2129 20.3457ZM18.8132 25.9889L19.81 26.0686C19.8455 25.6252 19.5839 25.2118 19.1681 25.0539L18.8132 25.9889ZM18.3907 31.2743L19.3875 31.3543L19.3875 31.354L18.3907 31.2743ZM17.0907 38.0198L18.048 38.3086L18.0482 38.3082L17.0907 38.0198ZM16.9426 38.8108L17.9394 38.8905L17.9396 38.889L16.9426 38.8108ZM19.2671 42.149L19.1876 43.1458H19.1876L19.2671 42.149ZM22.093 39.2225L23.0898 39.3022L23.0899 39.3007L22.093 39.2225ZM22.0725 38.4185L21.0813 38.5512L21.0813 38.5513L22.0725 38.4185ZM21.8618 31.5521L22.8585 31.632L22.8586 31.6319L21.8618 31.5521ZM22.2821 26.3012L22.0997 25.318C21.6552 25.4004 21.3214 25.7708 21.2853 26.2214L22.2821 26.3012ZM28.0691 12.8989C26.7464 10.7529 24.5744 9.23211 21.9811 9.02384L21.821 11.0174C23.695 11.1679 25.3313 12.2688 26.3666 13.9483L28.0691 12.8989ZM29.2519 15.8324C29.0164 14.7737 28.6129 13.7813 28.0692 12.899L26.3665 13.9482C26.7911 14.6372 27.1116 15.4213 27.2997 16.2667L29.2519 15.8324ZM28.1029 15.0646L28.1013 15.0649L28.4502 17.0342L28.4518 17.034L28.1029 15.0646ZM29.4899 17.7555C29.4719 17.0967 29.3918 16.4527 29.2534 15.8318L27.3013 16.2668C27.4115 16.7612 27.4761 17.2777 27.4906 17.8099L29.4899 17.7555ZM26.7896 17.4417L27.7643 18.4705L29.2161 17.0949L28.2414 16.0661L26.7896 17.4417ZM27.1852 17.6652C27.0369 17.6324 26.8978 17.5558 26.7899 17.442L28.2411 16.0658C28.0677 15.8829 27.8491 15.7638 27.6179 15.7126L27.1852 17.6652ZM28.2392 16.0654C28.0685 15.8854 27.854 15.7671 27.6266 15.7146L27.1766 17.6633C27.0306 17.6296 26.8941 17.5535 26.7879 17.4415L28.2392 16.0654ZM29.2142 17.0944L28.2395 16.0657L26.7876 17.4412L27.7624 18.47L29.2142 17.0944ZM29.4592 18.8617C29.489 18.4891 29.4987 18.1187 29.4879 17.7526L27.4887 17.8118C27.4974 18.1028 27.4897 18.4002 27.4656 18.702L29.4592 18.8617ZM28.439 22.5688C28.9939 21.4542 29.3529 20.1995 29.4592 18.861L27.4655 18.7026C27.3795 19.7848 27.0901 20.7908 26.6486 21.6775L28.439 22.5688ZM26.5438 22.1232V22.1234H28.5438V22.1232H26.5438ZM28.5397 22.0323L28.5397 22.0322L26.548 22.2143L26.548 22.2144L28.5397 22.0323ZM27.1265 21.2145L27.1259 21.2147L27.9606 23.0322L27.9611 23.032L27.1265 21.2145ZM28.4367 22.5725L28.4368 22.5724L26.6498 21.6742L26.6497 21.6744L28.4367 22.5725ZM21.8143 23.3124C23.9255 23.4814 25.9369 23.3998 27.705 23.1101L27.3816 21.1364C25.787 21.3977 23.9386 21.4761 21.974 21.3188L21.8143 23.3124ZM13.7592 21.2367C15.8544 22.3034 18.69 23.0622 21.8144 23.3124L21.974 21.3188C19.051 21.0848 16.4811 20.3782 14.6666 19.4544L13.7592 21.2367ZM14.214 19.3455H14.2129V21.3455H14.214V19.3455ZM13.0335 17.5465C12.9498 18.5873 13.0249 19.6026 13.2377 20.5621L15.1902 20.129C15.0205 19.3638 14.9594 18.5484 15.027 17.7067L13.0335 17.5465ZM13.2258 16.2238C13.1353 16.6526 13.0694 17.094 13.0334 17.5475L15.0271 17.7057C15.056 17.3423 15.1089 16.9861 15.1827 16.6369L13.2258 16.2238ZM13.7043 15.5643L13.703 15.565L14.7055 17.2956L14.7068 17.2949L13.7043 15.5643ZM13.9877 13.9814C13.6536 14.6798 13.3963 15.4311 13.2276 16.2207L15.1835 16.6384C15.3195 16.0018 15.5262 15.4 15.7919 14.8445L13.9877 13.9814ZM14.4498 15.3109L14.4509 15.3115L15.3287 13.5144L15.3276 13.5139L14.4498 15.3109ZM14.8463 12.5263C14.52 12.98 14.2329 13.4665 13.9868 13.9804L15.7906 14.8444C15.9875 14.4333 16.2148 14.0488 16.4699 13.6941L14.8463 12.5263ZM21.9807 9.02381C19.105 8.79401 16.4899 10.2383 14.8459 12.5268L16.4703 13.6936C17.77 11.8843 19.7476 10.8517 21.8214 11.0175L21.9807 9.02381ZM17.2142 15.6566C17.2142 15.328 17.0846 15.032 16.8799 14.8157L15.4273 16.1905C15.2968 16.0526 15.2142 15.8627 15.2142 15.6566H17.2142ZM17.2186 18.9988L17.2142 15.6553L15.2142 15.6579L15.2186 19.0014L17.2186 18.9988ZM16.6801 18.3279C16.9536 18.3885 17.2186 18.6407 17.2186 19.0001H15.2186C15.2186 19.6796 15.7077 20.1609 16.2472 20.2805L16.6801 18.3279ZM15.2205 19.0006C15.2205 19.6766 15.705 20.1567 16.2411 20.2791L16.6862 18.3292C16.9581 18.3913 17.2205 18.6431 17.2205 19.0006H15.2205ZM15.2162 15.6594L15.2205 19.0019L17.2205 18.9993L17.2162 15.6568L15.2162 15.6594ZM15.4335 16.197C15.3013 16.0598 15.2175 15.8703 15.2162 15.6644L17.2162 15.6519C17.2141 15.3219 17.0817 15.025 16.8736 14.8092L15.4335 16.197ZM20.7121 16.7217C20.6374 16.3866 20.4326 16.1165 20.1685 15.9507L19.105 17.6445C18.9368 17.5389 18.8066 17.3659 18.7601 17.1569L20.7121 16.7217ZM21.5573 20.5241L20.7123 16.7223L18.7599 17.1563L19.605 20.958L21.5573 20.5241ZM21.0338 20.001C21.2673 20.0529 21.4938 20.2404 21.557 20.5225L19.6053 20.9596C19.727 21.5027 20.1477 21.853 20.6001 21.9535L21.0338 20.001ZM19.6073 20.96C19.7281 21.4997 20.1446 21.8494 20.5942 21.9521L21.0397 20.0024C21.272 20.0555 21.4962 20.2428 21.5589 20.523L19.6073 20.96ZM18.7618 17.1567L19.6069 20.9585L21.5593 20.5245L20.7142 16.7228L18.7618 17.1567ZM19.1148 17.6505C18.9447 17.5465 18.8103 17.3725 18.7623 17.1587L20.7138 16.7208C20.6373 16.38 20.4265 16.1084 20.1587 15.9446L19.1148 17.6505ZM24.2818 16.9118C24.0475 16.5251 23.6449 16.3271 23.2521 16.321L23.2212 18.3208C22.9752 18.317 22.7187 18.1915 22.5712 17.9481L24.2818 16.9118ZM26.284 20.2444L24.2837 16.9149L22.5693 17.9449L24.5696 21.2744L26.284 20.2444ZM25.8422 19.9273C26.0203 19.9671 26.1849 20.0793 26.2843 20.2449L24.5693 21.2739C24.7638 21.5981 25.0725 21.8044 25.4051 21.8789L25.8422 19.9273ZM24.5712 21.2744C24.764 21.5957 25.0691 21.8015 25.3989 21.8775L25.8484 19.9287C26.0251 19.9694 26.1878 20.0813 26.2862 20.2454L24.5712 21.2744ZM22.5713 17.9454L24.5715 21.2749L26.2859 20.2449L24.2856 16.9154L22.5713 17.9454ZM23.2313 18.3209C22.9809 18.3196 22.7199 18.1925 22.5715 17.9458L24.2854 16.915C24.0494 16.5226 23.6405 16.3231 23.2421 16.3209L23.2313 18.3209ZM21.8144 23.3125C23.9255 23.4816 25.9368 23.4 27.7049 23.1103L27.3815 21.1366C25.7869 21.3979 23.9386 21.4762 21.974 21.3189L21.8144 23.3125ZM13.759 21.2368C15.8556 22.3048 18.6913 23.0624 21.8143 23.3125L21.974 21.3189C19.0519 21.0849 16.4821 20.3794 14.6668 19.4546L13.759 21.2368ZM19.1681 25.0539C17.2327 24.3194 15.7082 22.4802 15.1894 20.1301L13.2364 20.5613C13.8804 23.4784 15.8097 25.9185 18.4584 26.9238L19.1681 25.0539ZM19.3875 31.354L19.81 26.0686L17.8164 25.9092L17.3939 31.1947L19.3875 31.354ZM18.0482 38.3082C18.7286 36.0492 19.1975 33.7228 19.3875 31.3543L17.3939 31.1944C17.2165 33.4057 16.7776 35.5921 16.1332 37.7314L18.0482 38.3082ZM17.9396 38.889C17.9555 38.6855 17.9929 38.4914 18.048 38.3086L16.1333 37.7309C16.0371 38.0496 15.9729 38.385 15.9457 38.7326L17.9396 38.889ZM19.3466 41.1521C18.6491 41.0965 17.8298 40.2618 17.9394 38.8905L15.9458 38.7311C15.7788 40.8201 17.0409 42.9745 19.1876 43.1458L19.3466 41.1521ZM21.0962 39.1429C20.9866 40.5135 20.045 41.2078 19.3466 41.1521L19.1876 43.1458C21.3335 43.317 22.9228 41.3918 23.0898 39.3022L21.0962 39.1429ZM21.0813 38.5513C21.1063 38.738 21.1123 38.9374 21.0961 39.1444L23.0899 39.3007C23.1169 38.9566 23.1078 38.6157 23.0636 38.2858L21.0813 38.5513ZM20.865 31.4721C20.6749 33.841 20.7683 36.2124 21.0813 38.5512L23.0636 38.2859C22.7672 36.0709 22.6812 33.8429 22.8585 31.632L20.865 31.4721ZM21.2853 26.2214L20.8649 31.4723L22.8586 31.6319L23.2789 26.381L21.2853 26.2214ZM26.6483 21.6774C25.6745 23.6308 23.9816 24.9688 22.0997 25.318L22.4646 27.2844C25.0428 26.806 27.2223 25.0089 28.4382 22.5696L26.6483 21.6774Z" fill="#352416" mask="url(#path-2-outside-1_1363_6322)"/>
</g>
<g filter="url(#filter1_d_1363_6322)">
<mask id="path-4-outside-2_1363_6322" maskUnits="userSpaceOnUse" x="24.7246" y="17.5078" width="21" height="34" fill="black">
<rect fill="white" x="24.7246" y="17.5078" width="21" height="34"/>
<path fill-rule="evenodd" clip-rule="evenodd" d="M39.8046 20.0197C41.8676 20.8929 43.2616 22.7376 43.7771 24.9248H43.7782C43.99 25.8239 44.0537 26.7803 43.9543 27.7507C42.2058 27.4967 40.2574 26.9521 38.2809 26.1146C35.7963 25.0631 33.6746 23.7219 32.1511 22.3398C33.6747 23.7224 35.7972 25.0634 38.2828 26.1163C40.2604 26.9528 42.2088 27.4985 43.9562 27.7524C43.8979 28.3209 43.7844 28.8947 43.6115 29.4642L43.6111 29.4635C43.5161 29.7786 43.4027 30.0927 43.2711 30.4036C42.7966 31.5221 42.1331 32.4925 41.3453 33.2846C39.6628 33.0166 37.8051 32.4839 35.9226 31.6863C33.1302 30.5041 30.7949 28.9577 29.2539 27.3962V27.3951C29.3447 26.5165 29.5684 25.6271 29.9369 24.7572C30.0968 24.3801 30.2784 24.0191 30.4794 23.6766L30.4826 23.6759C30.8517 23.0473 31.2854 22.479 31.7675 21.9786L31.7656 21.9768C32.1212 21.6083 32.5026 21.2754 32.9057 20.9837C34.9492 19.5032 37.519 19.0514 39.8046 20.0197ZM32.6298 23.427C32.6465 23.4721 32.649 23.5234 32.632 23.575L31.5827 26.7488C31.5755 26.7708 31.5708 26.7926 31.5685 26.814C31.571 26.7932 31.5757 26.772 31.5827 26.7507L32.632 23.5768L32.6331 23.5779C32.6505 23.5252 32.6474 23.4728 32.6298 23.427ZM35.5693 25.847C35.5718 25.8649 35.5722 25.8835 35.5703 25.9027L35.1737 29.7768C35.1724 29.7899 35.1718 29.8028 35.172 29.8154C35.1719 29.8034 35.1725 29.7911 35.1737 29.7787L35.5703 25.9045C35.5725 25.8847 35.572 25.8654 35.5693 25.847ZM35.9208 31.6867C37.8044 32.4842 39.6609 33.0159 41.3435 33.285H41.3446C39.6145 35.0248 37.2824 35.9034 35.0347 35.5922L32.9803 40.4432C32.0845 42.5591 31.4447 44.7701 31.0157 47.0265C30.9671 47.2827 30.8893 47.5409 30.7812 47.796C30.1036 49.3932 28.4902 50.2382 27.1762 49.6817C25.8621 49.1252 25.3455 47.3788 26.022 45.7806C26.1301 45.5266 26.2619 45.291 26.4121 45.077C27.7338 43.1989 28.876 41.1997 29.7719 39.0848L31.8392 34.2024C29.9383 32.6539 28.9733 30.0797 29.2521 27.3965C30.7942 28.9569 33.1284 30.5044 35.9208 31.6867Z"/>
</mask>
<path fill-rule="evenodd" clip-rule="evenodd" d="M39.8046 20.0197C41.8676 20.8929 43.2616 22.7376 43.7771 24.9248H43.7782C43.99 25.8239 44.0537 26.7803 43.9543 27.7507C42.2058 27.4967 40.2574 26.9521 38.2809 26.1146C35.7963 25.0631 33.6746 23.7219 32.1511 22.3398C33.6747 23.7224 35.7972 25.0634 38.2828 26.1163C40.2604 26.9528 42.2088 27.4985 43.9562 27.7524C43.8979 28.3209 43.7844 28.8947 43.6115 29.4642L43.6111 29.4635C43.5161 29.7786 43.4027 30.0927 43.2711 30.4036C42.7966 31.5221 42.1331 32.4925 41.3453 33.2846C39.6628 33.0166 37.8051 32.4839 35.9226 31.6863C33.1302 30.5041 30.7949 28.9577 29.2539 27.3962V27.3951C29.3447 26.5165 29.5684 25.6271 29.9369 24.7572C30.0968 24.3801 30.2784 24.0191 30.4794 23.6766L30.4826 23.6759C30.8517 23.0473 31.2854 22.479 31.7675 21.9786L31.7656 21.9768C32.1212 21.6083 32.5026 21.2754 32.9057 20.9837C34.9492 19.5032 37.519 19.0514 39.8046 20.0197ZM32.6298 23.427C32.6465 23.4721 32.649 23.5234 32.632 23.575L31.5827 26.7488C31.5755 26.7708 31.5708 26.7926 31.5685 26.814C31.571 26.7932 31.5757 26.772 31.5827 26.7507L32.632 23.5768L32.6331 23.5779C32.6505 23.5252 32.6474 23.4728 32.6298 23.427ZM35.5693 25.847C35.5718 25.8649 35.5722 25.8835 35.5703 25.9027L35.1737 29.7768C35.1724 29.7899 35.1718 29.8028 35.172 29.8154C35.1719 29.8034 35.1725 29.7911 35.1737 29.7787L35.5703 25.9045C35.5725 25.8847 35.572 25.8654 35.5693 25.847ZM35.9208 31.6867C37.8044 32.4842 39.6609 33.0159 41.3435 33.285H41.3446C39.6145 35.0248 37.2824 35.9034 35.0347 35.5922L32.9803 40.4432C32.0845 42.5591 31.4447 44.7701 31.0157 47.0265C30.9671 47.2827 30.8893 47.5409 30.7812 47.796C30.1036 49.3932 28.4902 50.2382 27.1762 49.6817C25.8621 49.1252 25.3455 47.3788 26.022 45.7806C26.1301 45.5266 26.2619 45.291 26.4121 45.077C27.7338 43.1989 28.876 41.1997 29.7719 39.0848L31.8392 34.2024C29.9383 32.6539 28.9733 30.0797 29.2521 27.3965C30.7942 28.9569 33.1284 30.5044 35.9208 31.6867Z" fill="#DFCF1E"/>
<path d="M43.7771 24.9248L42.8037 25.1542C42.9102 25.6057 43.3132 25.9248 43.7771 25.9248V24.9248ZM39.8046 20.0197L39.4145 20.9405L39.4148 20.9406L39.8046 20.0197ZM43.7782 24.9248L44.7515 24.6955C44.6451 24.2439 44.2421 23.9248 43.7782 23.9248V24.9248ZM43.9543 27.7507L43.8106 28.7403C44.0803 28.7795 44.3543 28.7069 44.5692 28.5393C44.7841 28.3717 44.9213 28.1237 44.9491 27.8526L43.9543 27.7507ZM38.2809 26.1146L38.671 25.1938L38.6706 25.1937L38.2809 26.1146ZM32.1511 22.3398L32.823 21.5991C32.4139 21.2281 31.7815 21.2588 31.4105 21.6678C31.0394 22.0768 31.0701 22.7092 31.4791 23.0803L32.1511 22.3398ZM38.2828 26.1163L37.8927 27.0371L37.8932 27.0373L38.2828 26.1163ZM43.9562 27.7524L44.951 27.8546C45.0057 27.3214 44.6304 26.8399 44.1 26.7628L43.9562 27.7524ZM43.6115 29.4642L42.7057 29.888C42.8812 30.2631 43.2698 30.4912 43.6828 30.4616C44.0959 30.4321 44.448 30.151 44.5684 29.7547L43.6115 29.4642ZM43.6111 29.4635L44.5169 29.0397C44.3413 28.6643 43.9522 28.4361 43.5388 28.4661C43.1254 28.496 42.7734 28.7779 42.6537 29.1748L43.6111 29.4635ZM43.2711 30.4036L44.1917 30.7941L44.1918 30.7937L43.2711 30.4036ZM41.3453 33.2846L41.188 34.2722C41.5054 34.3227 41.8277 34.2177 42.0544 33.9898L41.3453 33.2846ZM35.9226 31.6863L36.3127 30.7656L36.3125 30.7655L35.9226 31.6863ZM29.2539 27.3962H28.2539C28.2539 27.6591 28.3575 27.9114 28.5421 28.0986L29.2539 27.3962ZM29.2539 27.3951L28.2592 27.2923C28.2557 27.3264 28.2539 27.3608 28.2539 27.3951H29.2539ZM29.9369 24.7572L29.0162 24.3668L29.0161 24.3672L29.9369 24.7572ZM30.4794 23.6766L30.2765 22.6973C29.9996 22.7547 29.76 22.9266 29.6169 23.1705L30.4794 23.6766ZM30.4826 23.6759L30.6854 24.6551C30.9622 24.5978 31.2018 24.426 31.3449 24.1823L30.4826 23.6759ZM31.7675 21.9786L32.4877 22.6724C32.8687 22.2768 32.8594 21.648 32.4669 21.2639L31.7675 21.9786ZM31.7656 21.9768L31.046 21.2824C30.6644 21.6779 30.6735 22.3071 31.0662 22.6915L31.7656 21.9768ZM32.9057 20.9837L33.4921 21.7937L33.4924 21.7935L32.9057 20.9837ZM32.632 23.575L33.5815 23.8889L33.582 23.8874L32.632 23.575ZM32.6298 23.427L33.5627 23.0668C33.3647 22.5541 32.7901 22.2972 32.2761 22.4916C31.762 22.686 31.5012 23.2588 31.692 23.7742L32.6298 23.427ZM31.5827 26.7488L30.6333 26.4349L30.6324 26.4374L31.5827 26.7488ZM31.5685 26.814L30.5746 26.7028C30.5135 27.25 30.906 27.7437 31.4529 27.8073C31.9998 27.8709 32.4952 27.4805 32.5612 26.9339L31.5685 26.814ZM31.5827 26.7507L32.5318 27.0657L32.5322 27.0646L31.5827 26.7507ZM32.632 23.5768L33.3395 22.87C33.0941 22.6245 32.739 22.5237 32.4013 22.6038C32.0636 22.6839 31.7915 22.9334 31.6826 23.2629L32.632 23.5768ZM32.6331 23.5779L31.9257 24.2847C32.1712 24.5304 32.5267 24.6311 32.8646 24.5507C33.2025 24.4703 33.4745 24.2203 33.5831 23.8904L32.6331 23.5779ZM35.5703 25.9027L36.5651 26.0045L36.5654 26.0022L35.5703 25.9027ZM35.5693 25.847L36.5584 25.7C36.4773 25.1549 35.9706 24.7781 35.4253 24.8574C34.88 24.9367 34.5016 25.4423 34.5792 25.9878L35.5693 25.847ZM35.1737 29.7768L36.1685 29.879L36.1685 29.8787L35.1737 29.7768ZM35.172 29.8154L34.1721 29.8291C34.1796 30.3801 34.6316 30.8212 35.1826 30.8153C35.7337 30.8095 36.1762 30.3589 36.172 29.8078L35.172 29.8154ZM35.1737 29.7787L34.1789 29.6768L34.1789 29.6769L35.1737 29.7787ZM35.5703 25.9045L34.576 25.7982L34.5755 25.8027L35.5703 25.9045ZM41.3435 33.285L41.1856 34.2724C41.2378 34.2808 41.2906 34.285 41.3435 34.285V33.285ZM35.9208 31.6867L36.3107 30.7658L36.3107 30.7658L35.9208 31.6867ZM41.3446 33.285L42.0537 33.9901C42.3385 33.7036 42.423 33.274 42.2679 32.901C42.1128 32.528 41.7485 32.285 41.3446 32.285V33.285ZM35.0347 35.5922L35.1718 34.6016C34.7239 34.5396 34.2901 34.7858 34.1138 35.2022L35.0347 35.5922ZM32.9803 40.4432L32.0595 40.0533L32.0595 40.0533L32.9803 40.4432ZM31.0157 47.0265L30.0333 46.8398L30.0333 46.84L31.0157 47.0265ZM30.7812 47.796L31.7018 48.1865L31.702 48.1861L30.7812 47.796ZM27.1762 49.6817L26.7862 50.6025L27.1762 49.6817ZM26.022 45.7806L25.1019 45.389L25.1011 45.3908L26.022 45.7806ZM26.4121 45.077L25.5943 44.5016L25.5937 44.5025L26.4121 45.077ZM29.7719 39.0848L30.6927 39.4749L30.6927 39.4747L29.7719 39.0848ZM31.8392 34.2024L32.76 34.5923C32.9334 34.1828 32.8156 33.708 32.4708 33.4271L31.8392 34.2024ZM29.2521 27.3965L29.9634 26.6936C29.6915 26.4185 29.2854 26.3248 28.9205 26.4531C28.5556 26.5813 28.2974 26.9084 28.2574 27.2931L29.2521 27.3965ZM44.7504 24.6954C44.1721 22.2415 42.59 20.1128 40.1944 19.0988L39.4148 20.9406C41.1451 21.673 42.3511 23.2336 42.8037 25.1542L44.7504 24.6954ZM43.7782 23.9248H43.7771V25.9248H43.7782V23.9248ZM44.9491 27.8526C45.0597 26.7731 44.9893 25.7047 44.7515 24.6955L42.8048 25.1541C42.9907 25.9431 43.0478 26.7874 42.9595 27.6488L44.9491 27.8526ZM37.8907 27.0353C39.9383 27.903 41.9693 28.4729 43.8106 28.7403L44.098 26.7611C42.4423 26.5206 40.5765 26.0012 38.671 25.1938L37.8907 27.0353ZM31.4791 23.0804C33.099 24.5499 35.3206 25.9477 37.8911 27.0355L38.6706 25.1937C36.272 24.1786 34.2502 22.8939 32.823 21.5991L31.4791 23.0804ZM38.6728 25.1955C36.2728 24.1789 34.2503 22.8943 32.823 21.5992L31.4791 23.0803C33.0992 24.5504 35.3216 25.948 37.8927 27.0371L38.6728 25.1955ZM44.1 26.7628C42.4456 26.5224 40.5796 26.002 38.6723 25.1953L37.8932 27.0373C39.9411 27.9035 41.9719 28.4746 43.8124 28.742L44.1 26.7628ZM44.5684 29.7547C44.7602 29.1229 44.8862 28.4859 44.951 27.8546L42.9614 27.6503C42.9095 28.1558 42.8086 28.6665 42.6546 29.1737L44.5684 29.7547ZM42.7054 29.8872L42.7057 29.888L44.5172 29.0404L44.5169 29.0397L42.7054 29.8872ZM44.1918 30.7937C44.3375 30.4499 44.4631 30.1019 44.5686 29.7521L42.6537 29.1748C42.5691 29.4554 42.468 29.7356 42.3503 30.0136L44.1918 30.7937ZM42.0544 33.9898C42.9321 33.1072 43.6675 32.03 44.1917 30.7941L42.3504 30.0131C41.9258 31.0142 41.3341 31.8778 40.6363 32.5795L42.0544 33.9898ZM35.5325 32.6071C37.4828 33.4334 39.4184 33.9903 41.188 34.2722L41.5026 32.2971C39.9071 32.0429 38.1274 31.5344 36.3127 30.7656L35.5325 32.6071ZM28.5421 28.0986C30.1942 29.7727 32.6476 31.3857 35.5327 32.6072L36.3125 30.7655C33.6128 29.6225 31.3956 28.1427 29.9657 26.6937L28.5421 28.0986ZM28.2539 27.3951V27.3962H30.2539V27.3951H28.2539ZM29.0161 24.3672C28.6087 25.3289 28.3602 26.3151 28.2592 27.2923L30.2486 27.4979C30.3292 26.7179 30.5281 25.9254 30.8577 25.1473L29.0161 24.3672ZM29.6169 23.1705C29.3937 23.5508 29.1928 23.9504 29.0162 24.3668L30.8575 25.1476C31.0008 24.8097 31.163 24.4875 31.3419 24.1826L29.6169 23.1705ZM30.2797 22.6967L30.2765 22.6973L30.6822 24.6558L30.6854 24.6551L30.2797 22.6967ZM31.0473 21.2848C30.5107 21.8418 30.0293 22.473 29.6203 23.1695L31.3449 24.1823C31.6741 23.6216 32.06 23.1163 32.4877 22.6724L31.0473 21.2848ZM31.0662 22.6915L31.068 22.6933L32.4669 21.2639L32.4651 21.2621L31.0662 22.6915ZM32.3194 20.1736C31.8665 20.5014 31.4407 20.8733 31.046 21.2824L32.4853 22.6711C32.8016 22.3432 33.1388 22.0494 33.4921 21.7937L32.3194 20.1736ZM40.1947 19.0989C37.5384 17.9736 34.6011 18.5205 32.319 20.1738L33.4924 21.7935C35.2973 20.4858 37.4997 20.1293 39.4145 20.9405L40.1947 19.0989ZM33.582 23.8874C33.6721 23.6135 33.6601 23.3296 33.5676 23.0798L31.692 23.7742C31.6329 23.6145 31.6259 23.4333 31.6821 23.2625L33.582 23.8874ZM32.5322 27.0627L33.5815 23.8889L31.6826 23.2611L30.6333 26.4349L32.5322 27.0627ZM32.5623 26.9251C32.557 26.9725 32.5469 27.0178 32.533 27.0603L30.6324 26.4374C30.6041 26.5238 30.5847 26.6126 30.5746 26.7028L32.5623 26.9251ZM30.6337 26.4356C30.6058 26.5196 30.5863 26.6061 30.5757 26.6941L32.5612 26.9339C32.5556 26.9802 32.5455 27.0244 32.5318 27.0657L30.6337 26.4356ZM31.6826 23.2629L30.6333 26.4368L32.5322 27.0646L33.5815 23.8907L31.6826 23.2629ZM33.3405 22.8711L33.3395 22.87L31.9246 24.2836L31.9257 24.2847L33.3405 22.8711ZM31.6969 23.7872C31.6344 23.6253 31.6257 23.4401 31.6832 23.2654L33.5831 23.8904C33.6752 23.6103 33.6605 23.3202 33.5627 23.0668L31.6969 23.7872ZM36.5654 26.0022C36.5752 25.9035 36.5732 25.8041 36.5593 25.7062L34.5792 25.9878C34.5704 25.9256 34.5693 25.8635 34.5753 25.8032L36.5654 26.0022ZM36.1685 29.8787L36.5651 26.0045L34.5755 25.8009L34.1789 29.675L36.1685 29.8787ZM36.1719 29.8017C36.1723 29.8282 36.1711 29.854 36.1685 29.879L34.179 29.6747C34.1737 29.7259 34.1714 29.7774 34.1721 29.8291L36.1719 29.8017ZM34.1789 29.6769C34.174 29.7253 34.1716 29.7741 34.172 29.823L36.172 29.8078C36.1721 29.8327 36.171 29.857 36.1686 29.8804L34.1789 29.6769ZM34.5755 25.8027L34.1789 29.6768L36.1685 29.8805L36.5651 26.0064L34.5755 25.8027ZM34.5801 25.9941C34.5704 25.9284 34.5691 25.8625 34.576 25.7982L36.5647 26.0109C36.5758 25.9069 36.5736 25.8025 36.5584 25.7L34.5801 25.9941ZM41.5014 32.2975C39.9052 32.0422 38.1264 31.5346 36.3107 30.7658L35.5309 32.6075C37.4824 33.4338 39.4167 33.9895 41.1856 34.2724L41.5014 32.2975ZM41.3446 32.285H41.3435V34.285H41.3446V32.285ZM34.8975 36.5827C37.4965 36.9426 40.1321 35.9225 42.0537 33.9901L40.6355 32.5798C39.0968 34.1271 37.0683 34.8642 35.1718 34.6016L34.8975 36.5827ZM33.9012 40.8332L35.9555 35.9821L34.1138 35.2022L32.0595 40.0533L33.9012 40.8332ZM31.9981 47.2133C32.4155 45.0181 33.0362 42.8761 33.9012 40.8331L32.0595 40.0533C31.1328 42.2421 30.474 44.5222 30.0333 46.8398L31.9981 47.2133ZM31.702 48.1861C31.8373 47.8666 31.9361 47.5401 31.9982 47.2131L30.0333 46.84C29.9981 47.0252 29.9412 47.2153 29.8605 47.4058L31.702 48.1861ZM26.7862 50.6025C28.7695 51.4425 30.8839 50.1145 31.7018 48.1865L29.8606 47.4054C29.3234 48.6718 28.211 49.034 27.5661 48.7609L26.7862 50.6025ZM25.1011 45.3908C24.2842 47.3208 24.8032 49.7627 26.7862 50.6025L27.5661 48.7609C26.9209 48.4876 26.4068 47.4369 26.9429 46.1703L25.1011 45.3908ZM25.5937 44.5025C25.4033 44.7736 25.2374 45.0705 25.1019 45.389L26.9422 46.1721C27.0228 45.9827 27.1205 45.8084 27.2306 45.6516L25.5937 44.5025ZM28.8511 38.6948C27.986 40.737 26.88 42.6745 25.5943 44.5016L27.2299 45.6525C28.5875 43.7232 29.7661 41.6623 30.6927 39.4749L28.8511 38.6948ZM30.9183 33.8125L28.851 38.6949L30.6927 39.4747L32.76 34.5923L30.9183 33.8125ZM28.2574 27.2931C27.9486 30.2656 29.0112 33.1884 31.2076 34.9777L32.4708 33.4271C30.8654 32.1193 29.998 29.8939 30.2467 27.4998L28.2574 27.2931ZM36.3107 30.7658C33.6114 29.623 31.3949 28.1422 29.9634 26.6936L28.5408 28.0994C30.1935 29.7717 32.6453 31.3859 35.5309 32.6075L36.3107 30.7658Z" fill="#352416" mask="url(#path-4-outside-2_1363_6322)"/>
</g>
<path d="M27.5438 22.1234C25.8623 22.3989 23.9323 22.4789 21.8942 22.3157C18.8716 22.0737 16.1689 21.3421 14.2129 20.3457C14.7943 22.9793 16.5212 25.1189 18.8132 25.9889L18.3907 31.2743C18.207 33.5642 17.7531 35.8207 17.0907 38.0198C17.015 38.2705 16.9642 38.5352 16.9426 38.8108C16.8043 40.5409 17.845 42.0355 19.2671 42.149C20.6892 42.2624 21.9547 40.9527 22.093 39.2225C22.1146 38.947 22.1071 38.6768 22.0725 38.4185C21.7677 36.1416 21.678 33.842 21.8618 31.5521L22.2821 26.3012C24.5126 25.8873 26.4491 24.3193 27.5438 22.1223V22.1234Z" fill="#D5B389"/>
<path d="M27.2178 13.4236C26.0388 11.5109 24.1347 10.2 21.901 10.0206C19.4263 9.82287 17.1299 11.0613 15.6581 13.1102C15.3674 13.5144 15.1102 13.9499 14.8887 14.4124C16.8263 15.3591 19.4523 16.0518 22.3765 16.2852C24.5162 16.4559 26.537 16.3597 28.2758 16.0496C28.064 15.0975 27.702 14.2092 27.2178 13.4236Z" fill="#D5B389"/>
<path d="M16.2162 15.657L16.2205 19.0006C16.2205 19.2718 16.5425 19.4123 16.7425 19.2297L19.3663 16.823C19.4938 16.7063 19.7002 16.7712 19.738 16.9398L20.5831 20.7415C20.6458 21.0214 21.0208 21.0754 21.1602 20.8247L23.0383 17.4369C23.1226 17.2856 23.3388 17.2812 23.4284 17.4304L25.4287 20.7599C25.5681 20.9922 25.9172 20.9479 25.9939 20.6885L27.1362 16.8447C27.1859 16.6782 27.3966 16.6285 27.5155 16.7539L28.4902 17.7827C28.474 17.1872 28.4016 16.6069 28.2773 16.0493C26.5386 16.3584 24.5177 16.4556 22.3781 16.2849C19.4538 16.0504 16.8289 15.3577 14.8902 14.4121C14.5898 15.04 14.3575 15.7175 14.2051 16.4318L15.8779 15.4636C16.0281 15.3771 16.2151 15.4852 16.2162 15.6581V15.657Z" fill="#B8292D"/>
<path d="M14.2129 20.3455C16.1678 21.3408 18.8705 22.0735 21.8942 22.3156C23.9323 22.4787 25.8623 22.3988 27.5438 22.1232C28.042 21.1225 28.3662 19.9922 28.4624 18.7818C28.4894 18.4447 28.498 18.1107 28.4883 17.7822L27.5135 16.7534C27.3947 16.6281 27.184 16.6778 27.1342 16.8442L25.992 20.6881C25.9153 20.9475 25.5662 20.9918 25.4268 20.7594L23.4265 17.4299C23.3368 17.2819 23.1207 17.2851 23.0364 17.4364L21.1582 20.8243C21.0188 21.075 20.6438 21.0209 20.5812 20.7411L19.7361 16.9393C19.6983 16.7697 19.4919 16.7048 19.3643 16.8226L16.7405 19.2292C16.5406 19.4119 16.2186 19.2714 16.2186 19.0001L16.2142 15.6566C16.2142 15.4837 16.0262 15.3756 15.876 15.4621L14.2042 16.4303C14.1221 16.8194 14.0627 17.2181 14.0302 17.6266C13.9546 18.5679 14.0227 19.4832 14.214 20.3455H14.2129Z" fill="#FFEA00"/>
<path d="M41.3435 33.285C39.6609 33.0159 37.8044 32.4842 35.9208 31.6867C33.1284 30.5044 30.7942 28.9569 29.2521 27.3965C28.9733 30.0797 29.9383 32.6539 31.8392 34.2024L29.7719 39.0848C28.876 41.1997 27.7338 43.1989 26.4121 45.077C26.2619 45.291 26.1301 45.5266 26.022 45.7806C25.3455 47.3788 25.8621 49.1252 27.1762 49.6817C28.4902 50.2382 30.1036 49.3932 30.7812 47.796C30.8893 47.5409 30.9671 47.2827 31.0157 47.0265C31.4447 44.7701 32.0845 42.5591 32.9803 40.4432L35.0347 35.5922C37.2824 35.9034 39.6145 35.0248 41.3446 33.285H41.3435Z" fill="#D5B389"/>
<path d="M43.7771 24.9248C43.2616 22.7376 41.8676 20.8929 39.8046 20.0197C37.519 19.0514 34.9492 19.5032 32.9057 20.9837C32.5026 21.2754 32.1212 21.6083 31.7656 21.9768C33.3066 23.4854 35.5792 24.9713 38.2809 26.1146C40.2574 26.9521 42.2058 27.4967 43.9543 27.7507C44.0537 26.7803 43.99 25.8239 43.7782 24.9248H43.7771Z" fill="#D5B389"/>
<path d="M32.632 23.5768L31.5827 26.7507C31.4974 27.0079 31.7589 27.2435 32.0063 27.1332L35.2548 25.6765C35.4126 25.6052 35.5887 25.7327 35.5703 25.9045L35.1737 29.7787C35.1446 30.064 35.4839 30.2336 35.6946 30.0391L38.5454 27.4164C38.6729 27.2986 38.8793 27.3634 38.9171 27.5331L39.7665 31.324C39.826 31.5888 40.1707 31.6568 40.3263 31.4342L42.6227 28.1469C42.7221 28.0053 42.9382 28.0237 43.0106 28.1804L43.6115 29.4642C43.7844 28.8947 43.8979 28.3209 43.9562 27.7524C42.2088 27.4985 40.2604 26.9528 38.2828 26.1163C35.5811 24.9719 33.3085 23.4871 31.7675 21.9785C31.2845 22.4799 30.8501 23.0494 30.4805 23.6795L32.3738 23.2872C32.5434 23.2515 32.6872 23.4136 32.6331 23.5779L32.632 23.5768Z" fill="#4A7740"/>
<path d="M29.2539 27.3962C30.7949 28.9577 33.1302 30.5041 35.9226 31.6863C37.8051 32.4839 39.6628 33.0166 41.3453 33.2846C42.1331 32.4925 42.7966 31.5221 43.2711 30.4036C43.4029 30.0924 43.5164 29.7779 43.6115 29.4624L43.0106 28.1785C42.9371 28.0219 42.721 28.0035 42.6227 28.1451L40.3263 31.4324C40.1707 31.655 39.8259 31.5869 39.7665 31.3222L38.9171 27.5312C38.8793 27.3627 38.6729 27.2978 38.5454 27.4145L35.6946 30.0373C35.4839 30.2318 35.1445 30.061 35.1737 29.7768L35.5703 25.9027C35.5876 25.7298 35.4125 25.6034 35.2548 25.6747L32.0063 27.1314C31.7589 27.2427 31.4984 27.006 31.5827 26.7488L32.632 23.575C32.6861 23.4107 32.5423 23.2486 32.3727 23.2843L30.4794 23.6766C30.2784 24.0191 30.0968 24.3801 29.9369 24.7572C29.5684 25.6271 29.3447 26.5165 29.2539 27.3951V27.3962Z" fill="#FFEA00"/>
<defs>
<filter id="filter0_d_1363_6322" x="12" y="8.99988" width="17.4922" height="35.1565" filterUnits="userSpaceOnUse" color-interpolation-filters="sRGB">
<feFlood flood-opacity="0" result="BackgroundImageFix"/>
<feColorMatrix in="SourceAlpha" type="matrix" values="0 0 0 0 0 0 0 0 0 0 0 0 0 0 0 0 0 0 127 0" result="hardAlpha"/>
<feOffset dx="-1" dy="1"/>
<feComposite in2="hardAlpha" operator="out"/>
<feColorMatrix type="matrix" values="0 0 0 0 0 0 0 0 0 0 0 0 0 0 0 0 0 0 0.25 0"/>
<feBlend mode="normal" in2="BackgroundImageFix" result="effect1_dropShadow_1363_6322"/>
<feBlend mode="normal" in="SourceGraphic" in2="effect1_dropShadow_1363_6322" result="shape"/>
</filter>
<filter id="filter1_d_1363_6322" x="23.73" y="18.5073" width="21.27" height="33.3521" filterUnits="userSpaceOnUse" color-interpolation-filters="sRGB">
<feFlood flood-opacity="0" result="BackgroundImageFix"/>
<feColorMatrix in="SourceAlpha" type="matrix" values="0 0 0 0 0 0 0 0 0 0 0 0 0 0 0 0 0 0 127 0" result="hardAlpha"/>
<feOffset dx="-1" dy="1"/>
<feComposite in2="hardAlpha" operator="out"/>
<feColorMatrix type="matrix" values="0 0 0 0 0 0 0 0 0 0 0 0 0 0 0 0 0 0 0.25 0"/>
<feBlend mode="normal" in2="BackgroundImageFix" result="effect1_dropShadow_1363_6322"/>
<feBlend mode="normal" in="SourceGraphic" in2="effect1_dropShadow_1363_6322" result="shape"/>
</filter>
</defs>
</svg>
