<svg width="56" height="56" viewBox="0 0 56 56" fill="none" xmlns="http://www.w3.org/2000/svg">
<g filter="url(#filter0_d_1363_6351)">
<mask id="path-2-outside-1_1363_6351" maskUnits="userSpaceOnUse" x="4" y="22.5859" width="48" height="21" fill="black">
<rect fill="white" x="4" y="22.5859" width="48" height="21"/>
<path fill-rule="evenodd" clip-rule="evenodd" d="M30.5982 25.282C24.1688 25.5868 19.2332 27.4591 16.8907 30.0633C16.4916 30.0455 16.0845 30.0376 15.6736 30.0376V30.0357C9.24018 30.0357 5 32.0945 5 34.6335C5 37.1724 9.24018 39.2313 15.6736 39.2313C16.8986 39.2313 18.0782 39.1562 19.1866 39.0179C22.2057 40.8416 26.847 41.9994 32.4663 41.9994C42.5807 41.9994 50.7825 38.2453 50.7825 33.6179C50.7825 30.9564 48.0693 28.5844 43.8396 27.0494C44.0162 26.7193 44.1164 26.342 44.1164 25.9412C44.1164 24.641 43.0633 23.5859 41.7612 23.5859C40.4859 23.5859 39.4495 24.5961 39.4073 25.8611C38.0562 25.6077 36.6242 25.4261 35.1341 25.3266C34.8636 24.3242 33.9475 23.5859 32.86 23.5859C31.7884 23.5859 30.8833 24.3014 30.5982 25.282Z"/>
</mask>
<path fill-rule="evenodd" clip-rule="evenodd" d="M30.5982 25.282C24.1688 25.5868 19.2332 27.4591 16.8907 30.0633C16.4916 30.0455 16.0845 30.0376 15.6736 30.0376V30.0357C9.24018 30.0357 5 32.0945 5 34.6335C5 37.1724 9.24018 39.2313 15.6736 39.2313C16.8986 39.2313 18.0782 39.1562 19.1866 39.0179C22.2057 40.8416 26.847 41.9994 32.4663 41.9994C42.5807 41.9994 50.7825 38.2453 50.7825 33.6179C50.7825 30.9564 48.0693 28.5844 43.8396 27.0494C44.0162 26.7193 44.1164 26.342 44.1164 25.9412C44.1164 24.641 43.0633 23.5859 41.7612 23.5859C40.4859 23.5859 39.4495 24.5961 39.4073 25.8611C38.0562 25.6077 36.6242 25.4261 35.1341 25.3266C34.8636 24.3242 33.9475 23.5859 32.86 23.5859C31.7884 23.5859 30.8833 24.3014 30.5982 25.282Z" fill="#352416"/>
<path d="M16.8907 30.0633L16.8462 31.0623L17.3182 31.0834L17.6342 30.7321L16.8907 30.0633ZM30.5982 25.282L30.6455 26.2809L31.359 26.247L31.5584 25.5612L30.5982 25.282ZM15.6736 30.0376H14.6736V31.0376H15.6736V30.0376ZM15.6736 30.0357H16.6736V29.0357H15.6736V30.0357ZM19.1866 39.0179L19.7037 38.1619L19.4069 37.9826L19.0628 38.0256L19.1866 39.0179ZM43.8396 27.0494L42.9579 26.5775L42.4131 27.5955L43.4984 27.9894L43.8396 27.0494ZM39.4073 25.8611L39.223 26.8439L40.368 27.0586L40.4068 25.8943L39.4073 25.8611ZM35.1341 25.3266L34.1686 25.5871L34.3548 26.2767L35.0675 26.3243L35.1341 25.3266ZM17.6342 30.7321C19.7132 28.4208 24.3216 26.5806 30.6455 26.2809L30.5508 24.2831C24.016 24.5929 18.7533 26.4973 16.1472 29.3946L17.6342 30.7321ZM15.6736 31.0376C16.0719 31.0376 16.4639 31.0453 16.8462 31.0623L16.9352 29.0643C16.5192 29.0458 16.0972 29.0376 15.6736 29.0376V31.0376ZM14.6736 30.0357V30.0376H16.6736V30.0357H14.6736ZM6 34.6335C6 33.9809 6.56762 33.0831 8.33185 32.2956C10.0298 31.5377 12.5487 31.0357 15.6736 31.0357V29.0357C12.365 29.0357 9.54713 29.563 7.51668 30.4693C5.55246 31.346 4 32.7471 4 34.6335H6ZM15.6736 38.2313C12.5487 38.2313 10.0298 37.7292 8.33185 36.9713C6.56762 36.1839 6 35.2861 6 34.6335H4C4 36.5199 5.55246 37.9209 7.51668 38.7977C9.54713 39.7039 12.365 40.2313 15.6736 40.2313V38.2313ZM19.0628 38.0256C17.9963 38.1587 16.8581 38.2313 15.6736 38.2313V40.2313C16.9391 40.2313 18.16 40.1537 19.3104 40.0102L19.0628 38.0256ZM32.4663 40.9994C26.9625 40.9994 22.5181 39.862 19.7037 38.1619L18.6696 39.8738C21.8934 41.8212 26.7316 42.9994 32.4663 42.9994V40.9994ZM49.7825 33.6179C49.7825 35.3018 48.246 37.1497 45.0012 38.6347C41.8445 40.0793 37.4135 40.9994 32.4663 40.9994V42.9994C37.6336 42.9994 42.3607 42.0425 45.8335 40.4533C49.2181 38.9043 51.7825 36.5614 51.7825 33.6179H49.7825ZM43.4984 27.9894C45.5339 28.7281 47.1391 29.6462 48.2178 30.645C49.2945 31.6419 49.7825 32.6528 49.7825 33.6179H51.7825C51.7825 31.9215 50.9139 30.4156 49.5766 29.1774C48.2413 27.9411 46.375 26.9057 44.1807 26.1094L43.4984 27.9894ZM43.1164 25.9412C43.1164 26.1735 43.0588 26.3891 42.9579 26.5775L44.7212 27.5212C44.9737 27.0495 45.1164 26.5105 45.1164 25.9412H43.1164ZM41.7612 24.5859C42.5105 24.5859 43.1164 25.1928 43.1164 25.9412H45.1164C45.1164 24.0893 43.6161 22.5859 41.7612 22.5859V24.5859ZM40.4068 25.8943C40.431 25.1668 41.027 24.5859 41.7612 24.5859V22.5859C39.9449 22.5859 38.4679 24.0255 38.4079 25.8278L40.4068 25.8943ZM35.0675 26.3243C36.5197 26.4213 37.9123 26.5981 39.223 26.8439L39.5916 24.8782C38.2001 24.6172 36.7288 24.4308 35.2007 24.3288L35.0675 26.3243ZM32.86 24.5859C33.4839 24.5859 34.0128 25.0097 34.1686 25.5871L36.0996 25.066C35.7143 23.6387 34.4111 22.5859 32.86 22.5859V24.5859ZM31.5584 25.5612C31.7225 24.9966 32.2445 24.5859 32.86 24.5859V22.5859C31.3322 22.5859 30.044 23.6062 29.6379 25.0028L31.5584 25.5612Z" fill="#352416" mask="url(#path-2-outside-1_1363_6351)"/>
</g>
<path d="M33.0562 30.4115C33.0562 30.4115 34.3227 30.457 35.8026 29.9531C37.2825 29.4473 38.2941 29.7239 38.6617 29.9531C39.0292 30.1823 41.1707 30.5498 41.6765 30.4115" stroke="#E7EC95" stroke-width="0.584458" stroke-miterlimit="10" stroke-linecap="round" stroke-linejoin="round"/>
<path d="M15.6738 30.0386C16.0847 30.0386 16.4918 30.0465 16.8909 30.0643C19.4556 27.2131 25.1282 25.2393 32.4666 25.2393C42.5809 25.2393 50.7827 28.9914 50.7827 33.6189C50.7827 38.2463 42.5809 42.0004 32.4666 42.0004C26.8472 42.0004 22.2059 40.8426 19.1868 39.0189C18.0784 39.1572 16.8988 39.2323 15.6738 39.2323C9.24039 39.2323 5.00021 37.1734 5.00021 34.6344C5.00021 32.0955 9.24039 30.0366 15.6738 30.0366V30.0386Z" fill="#2667B2"/>
<path d="M44.3354 33.8624C44.6476 33.1925 44.8195 33.4593 44.8195 32.7025C44.8195 30.9322 43.879 29.3376 42.3754 28.2134C43.3791 27.9447 44.1181 27.0299 44.1181 25.9412C44.1181 24.641 43.065 23.5859 41.7629 23.5859C40.4608 23.5859 39.4077 24.6391 39.4077 25.9412C39.4077 26.2751 39.4788 26.5932 39.6052 26.8817C38.8149 26.6643 37.9692 26.5458 37.086 26.5458C36.3886 26.5458 35.7108 26.6208 35.0687 26.7592C35.1635 26.5043 35.2169 26.2296 35.2169 25.9412C35.2169 24.641 34.1618 23.5859 32.8617 23.5859C31.5615 23.5859 30.5064 24.6391 30.5064 25.9412C30.5064 26.9153 31.0972 27.7491 31.9389 28.1087C30.3523 29.2369 29.3525 30.8749 29.3525 32.7025C29.3525 33.4553 29.5225 33.1886 29.8346 33.8564C32.7312 35.6189 37.9791 37.4979 44.3315 33.8624H44.3354Z" fill="#92C551"/>
<path d="M32.9066 27.2827C33.4173 27.2827 33.8313 26.8687 33.8313 26.358C33.8313 25.8474 33.4173 25.4333 32.9066 25.4333C32.3959 25.4333 31.9819 25.8474 31.9819 26.358C31.9819 26.8687 32.3959 27.2827 32.9066 27.2827Z" fill="#385B38"/>
<path d="M41.6029 27.2827C42.1136 27.2827 42.5276 26.8687 42.5276 26.358C42.5276 25.8474 42.1136 25.4333 41.6029 25.4333C41.0922 25.4333 40.6782 25.8474 40.6782 26.358C40.6782 26.8687 41.0922 27.2827 41.6029 27.2827Z" fill="#385B38"/>
<path d="M33.0566 30.4115C33.0566 30.4115 34.3232 30.457 35.8031 29.9531C37.283 29.4473 38.2946 29.7239 38.6621 29.9531C39.0296 30.1823 41.1712 30.5498 41.677 30.4115" stroke="#E7EC95" stroke-width="0.584458" stroke-miterlimit="10" stroke-linecap="round" stroke-linejoin="round"/>
<path d="M26.0602 17.7709L25.7926 12.8117L22.2444 16.2875C22.0353 16.4846 21.8671 16.7266 21.7575 17.0084C21.3391 18.0847 21.9345 19.3209 23.0872 19.769C24.2399 20.2171 25.5139 19.7077 25.9323 18.6314C26.0418 18.3496 26.0812 18.0574 26.0602 17.7709Z" fill="#2667B2"/>
<path d="M36.0607 10.7709L35.7931 5.81173L32.2449 9.28746C32.0358 9.48456 31.8675 9.72663 31.758 10.0084C31.3396 11.0847 31.935 12.3209 33.0877 12.769C34.2404 13.2171 35.5143 12.7077 35.9328 11.6314C36.0423 11.3496 36.0817 11.0574 36.0607 10.7709Z" fill="#2667B2"/>
<path d="M12.0607 24.7709L11.7931 19.8117L8.24487 23.2875C8.03583 23.4846 7.86755 23.7266 7.75802 24.0084C7.33957 25.0847 7.93496 26.3209 9.08765 26.769C10.2404 27.2171 11.5143 26.7077 11.9328 25.6314C12.0423 25.3496 12.0817 25.0574 12.0607 24.7709Z" fill="#2667B2"/>
<path d="M17.0602 11.7709L16.7926 6.81173L13.2444 10.2875C13.0353 10.4846 12.8671 10.7266 12.7575 11.0084C12.3391 12.0847 12.9345 13.3209 14.0872 13.769C15.2399 14.2171 16.5139 13.7077 16.9323 12.6314C17.0418 12.3496 17.0812 12.0574 17.0602 11.7709Z" fill="#2667B2"/>
<path d="M46.0602 17.7709L45.7926 12.8117L42.2444 16.2875C42.0353 16.4846 41.8671 16.7266 41.7575 17.0084C41.3391 18.0847 41.9345 19.3209 43.0872 19.769C44.2399 20.2171 45.5139 19.7077 45.9323 18.6314C46.0418 18.3496 46.0812 18.0574 46.0602 17.7709Z" fill="#2667B2"/>
<defs>
<filter id="filter0_d_1363_6351" x="4" y="22.5859" width="47.7827" height="21.6135" filterUnits="userSpaceOnUse" color-interpolation-filters="sRGB">
<feFlood flood-opacity="0" result="BackgroundImageFix"/>
<feColorMatrix in="SourceAlpha" type="matrix" values="0 0 0 0 0 0 0 0 0 0 0 0 0 0 0 0 0 0 127 0" result="hardAlpha"/>
<feOffset dy="1.2"/>
<feComposite in2="hardAlpha" operator="out"/>
<feColorMatrix type="matrix" values="0 0 0 0 0 0 0 0 0 0 0 0 0 0 0 0 0 0 0.25 0"/>
<feBlend mode="normal" in2="BackgroundImageFix" result="effect1_dropShadow_1363_6351"/>
<feBlend mode="normal" in="SourceGraphic" in2="effect1_dropShadow_1363_6351" result="shape"/>
</filter>
</defs>
</svg>
