<svg width="39" height="36" viewBox="0 0 39 36" fill="none" xmlns="http://www.w3.org/2000/svg">
<path d="M18.4789 7.56133L17.4091 22.9028C17.4091 22.9028 16.4207 30.5018 18.4789 31.4073L20.7896 32.9561H23.6691L28.419 29.5714L35.7584 23.5268L38.3218 13.9594L37.2106 5.87589L33.3704 2.18753L29.6309 0.671875L25.7907 0.975558L21.0464 2.69551L18.3643 6.63372L18.4789 7.56133Z" fill="#FBD7BE"/>
<path d="M28.0294 27.0155C27.9825 26.6235 28.1399 26.3088 28.3331 26.0106C28.7417 25.3812 29.1807 24.7697 29.5741 24.1305C31.0759 21.6859 32.2479 19.0949 32.9795 16.3121C33.3411 14.9345 33.3163 13.5472 33.0844 12.1572C32.9394 11.2917 32.8249 10.4151 32.604 9.56757C32.2064 8.03397 31.3423 6.82062 29.8584 6.16771C28.634 5.62798 27.4069 5.68181 26.2487 6.40927C25.825 6.67568 25.825 6.92139 26.2556 7.18228C27.3241 7.82968 27.8044 8.82493 27.9687 10.0176C28.0708 10.7644 27.9797 11.5001 27.8652 12.2345C27.8279 12.4691 27.6954 12.5381 27.4662 12.4457C27.2109 12.3421 27.0507 12.1406 26.9445 11.899C26.7457 11.4504 26.5621 10.9949 26.3675 10.5435C26.1991 10.1542 25.9782 9.80638 25.6428 9.5303C24.7082 8.76143 23.6785 9.24318 23.4562 10.3779C23.3292 11.0252 23.4397 11.6657 23.5888 12.2952C23.6881 12.7148 24.0098 12.9095 24.417 12.9661C24.8725 13.0282 25.3391 13.0337 25.7836 13.14C26.5704 13.3263 27.1584 13.8398 27.6526 14.4541C28.4187 15.4052 28.9639 16.4694 29.1531 17.6869C29.3781 19.1391 29.033 20.4132 27.8983 21.4071C27.4165 21.8281 26.8506 22.071 26.2032 22.0876C25.7918 22.0986 25.3791 22.0972 24.9664 22.089C23.9532 22.0696 23.2368 22.5155 22.813 23.4362C22.5645 23.9773 22.3299 24.5281 22.0469 25.0526C21.8012 25.5068 21.4299 25.8394 20.8887 25.9209C20.4636 25.9858 20.0716 25.9167 19.8038 25.5537C19.5401 25.1962 19.6064 24.8014 19.7748 24.4259C20.1958 23.4845 20.6292 22.55 20.9025 21.5479C21.2187 20.3883 21.376 19.2095 21.4133 18.0127C21.4202 17.8043 21.4257 17.5903 21.4726 17.3874C21.5789 16.9291 22.0041 16.7428 22.4085 16.9871C22.6197 17.1141 22.813 17.2825 22.9828 17.4619C23.4107 17.9133 23.7972 18.4061 24.2444 18.8368C24.5523 19.1336 24.9125 19.3945 25.2866 19.6015C25.6648 19.81 26.0776 19.7658 26.413 19.4635C26.7581 19.1515 26.7747 18.7388 26.6739 18.3219C26.5718 17.8981 26.2998 17.5738 25.9865 17.288C25.6345 16.9678 25.2659 16.6641 24.9056 16.3521C23.8483 15.4369 23.2658 14.2705 23.1125 12.8929C23.0449 12.2772 23.038 11.6533 23.0007 11.0335C22.9565 10.3116 23.1319 9.65454 23.4921 9.02232C24.1506 7.86557 24.8587 6.75161 25.8774 5.87369C26.9969 4.9088 28.2751 4.3677 29.7797 4.47675C30.9393 4.56095 31.8393 5.13242 32.5584 6.01172C33.3453 6.97247 33.7953 8.09885 34.1376 9.27631C34.6138 10.9134 34.7822 12.5837 34.6456 14.2829C34.4813 16.3328 33.8781 18.2598 32.8759 20.0432C32.067 21.483 31.1725 22.8758 30.2946 24.2755C29.806 25.0554 29.2814 25.8118 28.7624 26.5724C28.594 26.8195 28.3566 26.9796 28.0239 27.0155H28.0294Z" fill="#342315"/>
<path d="M37.4395 12.5098C37.445 11.48 37.3001 10.4682 37.1206 9.45637C36.9522 8.50805 36.7272 7.5832 36.3255 6.70252C35.7748 5.49193 35.039 4.43732 33.9748 3.616C32.8332 2.73532 31.6185 2.012 30.2091 1.6462C29.0358 1.34252 27.8763 1.42258 26.7168 1.70832C24.9623 2.14038 23.3266 2.84299 21.8551 3.90036C20.7038 4.7272 19.8287 5.78871 19.2379 7.08212C19.0805 7.42584 18.7948 7.60114 18.4759 7.56111C17.9748 7.49624 17.6836 6.99378 17.8934 6.53135C18.3751 5.46984 19.0253 4.52291 19.8563 3.70296C21.2891 2.28808 23.0339 1.40326 24.9043 0.735155C25.9465 0.362454 27.0163 0.0960414 28.1234 0.0187403C30.0048 -0.112395 31.7082 0.454939 33.3025 1.39912C34.3419 2.01476 35.3193 2.7229 36.1088 3.64499C37.2587 4.98809 37.9903 6.5493 38.3478 8.27753C38.6377 9.67585 38.9234 11.0783 38.882 12.518C38.824 14.5293 38.6763 16.5308 38.2029 18.4965C37.7556 20.3544 36.8846 22.004 35.7527 23.5293C35.0984 24.4127 34.4565 25.3114 33.6228 26.0347C33.0334 26.5468 32.386 26.9927 31.7606 27.4634C30.5197 28.4007 29.3947 29.4663 28.2973 30.5637C27.487 31.374 26.7402 32.2478 25.7947 32.9159C24.5716 33.7814 23.2078 34.0712 21.7377 33.9856C20.9413 33.9387 20.1724 33.7772 19.4408 33.4583C17.99 32.8261 17.1715 31.6749 16.7629 30.1896C16.2797 28.4324 16.1693 26.6448 16.3267 24.8365C16.3653 24.3879 16.4468 23.9407 16.5268 23.4976C16.6041 23.0655 16.9782 22.8212 17.402 22.9026C17.7871 22.9772 18.0356 23.3747 17.9527 23.7888C17.6491 25.2934 17.627 26.8063 17.8603 28.3178C17.9596 28.9666 18.1212 29.6126 18.3172 30.2407C18.6595 31.3367 19.4394 32.0103 20.5313 32.314C21.8026 32.6674 23.0698 32.684 24.2928 32.1221C25.0672 31.766 25.6663 31.1724 26.2668 30.5816C27.378 29.4884 28.4892 28.3951 29.6307 27.3336C30.1608 26.8408 30.7378 26.3881 31.3383 25.9809C32.3114 25.321 33.1576 24.5397 33.874 23.6094C34.7574 22.4623 35.6064 21.2972 36.1875 19.9583C36.6209 18.9616 36.9205 17.9208 37.0585 16.8497C37.2435 15.4099 37.3595 13.9605 37.5044 12.5153L37.4368 12.5084L37.4395 12.5098Z" fill="#342315"/>
<path d="M3.102 13.332L0.480469 18.4476L7.30548 17.9003L5.75097 21.2806L16.7843 19.316L8.63239 18.9964L10.6857 16.2554L3.102 13.332Z" fill="#D6292E"/>
<path d="M9.6896 1.02344L4.35938 3.18006L9.8817 7.22697L6.49663 8.77019L18.9408 16.1715L10.169 8.92515L13.5154 8.1939L9.6896 1.02344Z" fill="#D6292E"/>
<g filter="url(#filter0_d_1189_1438)">
<path d="M18.4789 7.56133L17.4091 22.9028C17.4091 22.9028 16.4207 30.5018 18.4789 31.4073L20.7896 32.9561H23.6691L28.419 29.5714L35.7584 23.5268L38.3218 13.9594L37.2106 5.87589L33.3704 2.18753L29.6309 0.671875L25.7907 0.975558L21.0464 2.69551L18.3643 6.63372L18.4789 7.56133Z" fill="#FBD7BE"/>
<path d="M28.0294 27.0155C27.9825 26.6235 28.1399 26.3088 28.3331 26.0106C28.7417 25.3812 29.1807 24.7697 29.5741 24.1305C31.0759 21.6859 32.2479 19.0949 32.9795 16.3121C33.3411 14.9345 33.3163 13.5472 33.0844 12.1572C32.9394 11.2917 32.8249 10.4151 32.604 9.56757C32.2064 8.03397 31.3423 6.82062 29.8584 6.16771C28.634 5.62798 27.4069 5.68181 26.2487 6.40927C25.825 6.67568 25.825 6.92139 26.2556 7.18228C27.3241 7.82968 27.8044 8.82493 27.9687 10.0176C28.0708 10.7644 27.9797 11.5001 27.8652 12.2345C27.8279 12.4691 27.6954 12.5381 27.4662 12.4457C27.2109 12.3421 27.0507 12.1406 26.9445 11.899C26.7457 11.4504 26.5621 10.9949 26.3675 10.5435C26.1991 10.1542 25.9782 9.80638 25.6428 9.5303C24.7082 8.76143 23.6785 9.24318 23.4562 10.3779C23.3292 11.0252 23.4397 11.6657 23.5888 12.2952C23.6881 12.7148 24.0098 12.9095 24.417 12.9661C24.8725 13.0282 25.3391 13.0337 25.7836 13.14C26.5704 13.3263 27.1584 13.8398 27.6526 14.4541C28.4187 15.4052 28.9639 16.4694 29.1531 17.6869C29.3781 19.1391 29.033 20.4132 27.8983 21.4071C27.4165 21.8281 26.8506 22.071 26.2032 22.0876C25.7918 22.0986 25.3791 22.0972 24.9664 22.089C23.9532 22.0696 23.2368 22.5155 22.813 23.4362C22.5645 23.9773 22.3299 24.5281 22.0469 25.0526C21.8012 25.5068 21.4299 25.8394 20.8887 25.9209C20.4636 25.9858 20.0716 25.9167 19.8038 25.5537C19.5401 25.1962 19.6064 24.8014 19.7748 24.4259C20.1958 23.4845 20.6292 22.55 20.9025 21.5479C21.2187 20.3883 21.376 19.2095 21.4133 18.0127C21.4202 17.8043 21.4257 17.5903 21.4726 17.3874C21.5789 16.9291 22.0041 16.7428 22.4085 16.9871C22.6197 17.1141 22.813 17.2825 22.9828 17.4619C23.4107 17.9133 23.7972 18.4061 24.2444 18.8368C24.5523 19.1336 24.9125 19.3945 25.2866 19.6015C25.6648 19.81 26.0776 19.7658 26.413 19.4635C26.7581 19.1515 26.7747 18.7388 26.6739 18.3219C26.5718 17.8981 26.2998 17.5738 25.9865 17.288C25.6345 16.9678 25.2659 16.6641 24.9056 16.3521C23.8483 15.4369 23.2658 14.2705 23.1125 12.8929C23.0449 12.2772 23.038 11.6533 23.0007 11.0335C22.9565 10.3116 23.1319 9.65454 23.4921 9.02232C24.1506 7.86557 24.8587 6.75161 25.8774 5.87369C26.9969 4.9088 28.2751 4.3677 29.7797 4.47675C30.9393 4.56095 31.8393 5.13242 32.5584 6.01172C33.3453 6.97247 33.7953 8.09885 34.1376 9.27631C34.6138 10.9134 34.7822 12.5837 34.6456 14.2829C34.4813 16.3328 33.8781 18.2598 32.8759 20.0432C32.067 21.483 31.1725 22.8758 30.2946 24.2755C29.806 25.0554 29.2814 25.8118 28.7624 26.5724C28.594 26.8195 28.3566 26.9796 28.0239 27.0155H28.0294Z" fill="#342315"/>
<path d="M37.4395 12.5098C37.445 11.48 37.3001 10.4682 37.1206 9.45637C36.9522 8.50805 36.7272 7.5832 36.3255 6.70252C35.7748 5.49193 35.039 4.43732 33.9748 3.616C32.8332 2.73532 31.6185 2.012 30.2091 1.6462C29.0358 1.34252 27.8763 1.42258 26.7168 1.70832C24.9623 2.14038 23.3266 2.84299 21.8551 3.90036C20.7038 4.7272 19.8287 5.78871 19.2379 7.08212C19.0805 7.42584 18.7948 7.60114 18.4759 7.56111C17.9748 7.49624 17.6836 6.99378 17.8934 6.53135C18.3751 5.46984 19.0253 4.52291 19.8563 3.70296C21.2891 2.28808 23.0339 1.40326 24.9043 0.735155C25.9465 0.362454 27.0163 0.0960414 28.1234 0.0187403C30.0048 -0.112395 31.7082 0.454939 33.3025 1.39912C34.3419 2.01476 35.3193 2.7229 36.1088 3.64499C37.2587 4.98809 37.9903 6.5493 38.3478 8.27753C38.6377 9.67585 38.9234 11.0783 38.882 12.518C38.824 14.5293 38.6763 16.5308 38.2029 18.4965C37.7556 20.3544 36.8846 22.004 35.7527 23.5293C35.0984 24.4127 34.4565 25.3114 33.6228 26.0347C33.0334 26.5468 32.386 26.9927 31.7606 27.4634C30.5197 28.4007 29.3947 29.4663 28.2973 30.5637C27.487 31.374 26.7402 32.2478 25.7947 32.9159C24.5716 33.7814 23.2078 34.0712 21.7377 33.9856C20.9413 33.9387 20.1724 33.7772 19.4408 33.4583C17.99 32.8261 17.1715 31.6749 16.7629 30.1896C16.2797 28.4324 16.1693 26.6448 16.3267 24.8365C16.3653 24.3879 16.4468 23.9407 16.5268 23.4976C16.6041 23.0655 16.9782 22.8212 17.402 22.9026C17.7871 22.9772 18.0356 23.3747 17.9527 23.7888C17.6491 25.2934 17.627 26.8063 17.8603 28.3178C17.9596 28.9666 18.1212 29.6126 18.3172 30.2407C18.6595 31.3367 19.4394 32.0103 20.5313 32.314C21.8026 32.6674 23.0698 32.684 24.2928 32.1221C25.0672 31.766 25.6663 31.1724 26.2668 30.5816C27.378 29.4884 28.4892 28.3951 29.6307 27.3336C30.1608 26.8408 30.7378 26.3881 31.3383 25.9809C32.3114 25.321 33.1576 24.5397 33.874 23.6094C34.7574 22.4623 35.6064 21.2972 36.1875 19.9583C36.6209 18.9616 36.9205 17.9208 37.0585 16.8497C37.2435 15.4099 37.3595 13.9605 37.5044 12.5153L37.4368 12.5084L37.4395 12.5098Z" fill="#342315"/>
</g>
<defs>
<filter id="filter0_d_1189_1438" x="16.2598" y="0" width="22.6262" height="36" filterUnits="userSpaceOnUse" color-interpolation-filters="sRGB">
<feFlood flood-opacity="0" result="BackgroundImageFix"/>
<feColorMatrix in="SourceAlpha" type="matrix" values="0 0 0 0 0 0 0 0 0 0 0 0 0 0 0 0 0 0 127 0" result="hardAlpha"/>
<feOffset dy="2"/>
<feComposite in2="hardAlpha" operator="out"/>
<feColorMatrix type="matrix" values="0 0 0 0 0 0 0 0 0 0 0 0 0 0 0 0 0 0 0.25 0"/>
<feBlend mode="normal" in2="BackgroundImageFix" result="effect1_dropShadow_1189_1438"/>
<feBlend mode="normal" in="SourceGraphic" in2="effect1_dropShadow_1189_1438" result="shape"/>
</filter>
</defs>
</svg>
