<svg width="23" height="50" viewBox="0 0 23 50" fill="none" xmlns="http://www.w3.org/2000/svg">
<g clip-path="url(#clip0_1189_1587)">
<path d="M22.236 27.0018C22.1915 26.9506 22.1451 26.9013 22.0987 26.851C22.0184 26.7644 21.9401 26.6764 21.8753 26.5797C21.7979 26.4627 21.721 26.3181 21.7162 26.1837C21.7162 26.1823 21.7162 26.1808 21.7162 26.1794C21.7162 26.1774 21.7162 26.175 21.7162 26.1731C21.6785 24.5644 21.7118 22.9514 21.6127 21.3471C21.5634 20.5454 21.503 19.7447 21.4353 18.944C21.3453 17.8764 21.2423 16.8102 21.1355 15.7441C21.1089 15.4776 21.0818 15.2112 21.0547 14.9448C20.7854 12.2956 20.4914 9.64883 20.1839 7.00399C20.1714 6.89713 20.1593 6.79027 20.1472 6.6839C20.1438 6.65537 20.1404 6.62684 20.137 6.59832C19.9721 5.21159 19.7367 3.83404 19.33 2.49325C19.1545 1.91448 18.9476 1.34537 18.6067 0.847834C18.5375 0.746778 18.4636 0.648624 18.3823 0.554338C18.3649 0.53403 18.3466 0.513723 18.3277 0.493898C18.1826 0.34159 17.9917 0.201853 17.8016 0.154469C17.5816 0.0993474 17.367 0.0727539 17.1581 0.0727539C16.6364 0.0727539 16.1504 0.240535 15.7027 0.543701C15.6132 0.604141 15.5252 0.670383 15.4382 0.741943C15.428 0.750163 15.4184 0.75935 15.4092 0.76902C15.3439 0.836713 15.297 0.934384 15.2661 1.02383C15.2095 1.1892 15.1669 1.36181 15.1403 1.53491C15.0809 1.92221 14.9682 2.31676 14.9958 2.69971C15.0872 3.99264 15.24 5.28121 15.3516 6.57269C15.5997 9.44576 15.8371 12.3193 16.0779 15.1929C16.0938 15.3834 16.1001 15.5748 16.1142 15.8166C15.6031 15.116 15.3521 14.852 14.9025 14.6934C14.49 14.5483 14.0848 14.4603 13.6898 14.4439C13.4693 14.4347 13.2517 14.4478 13.0385 14.4855C12.9834 14.4951 12.9292 14.5063 12.8746 14.5193C12.8543 14.5241 12.834 14.5295 12.8137 14.5348C12.773 14.5454 12.7329 14.557 12.6928 14.5696C12.6589 14.5802 12.6256 14.5914 12.5922 14.603C12.509 14.6325 12.4264 14.6658 12.3451 14.7035C12.0811 14.8268 11.8249 14.9956 11.5783 15.2151C11.2277 15.5274 10.9337 15.9036 10.6054 16.26C10.5082 16.1038 10.3975 15.9723 10.2747 15.864C10.2679 15.8582 10.2612 15.8529 10.2544 15.8471C10.2075 15.8074 10.1591 15.7711 10.1089 15.7378C9.76314 15.5081 9.34055 15.4288 8.86573 15.4728C8.6027 15.4975 8.33676 15.5424 8.08388 15.6184C6.7368 16.0226 5.73543 16.786 5.30849 18.1341C5.29447 18.1791 5.28044 18.2245 5.26787 18.2709C5.25482 18.3174 5.24273 18.3643 5.23112 18.4116C5.22581 18.4329 5.22097 18.4547 5.21614 18.4759C5.20356 18.5306 5.19148 18.5843 5.17987 18.6355C4.28149 18.7061 4.17899 18.7395 3.6389 19.1703C2.94118 19.7268 2.35371 20.3902 1.80878 21.0908C1.26434 21.7905 0.716514 22.4959 0.495062 23.3783C0.21172 24.5074 0.0647309 25.6557 0.0753683 26.822C0.07972 27.2973 0.0724672 27.7726 0.0763354 28.2483C0.0990607 30.8932 0.225259 33.5308 0.666711 36.1437C0.92491 37.6716 1.2832 39.1734 1.96351 40.578C2.29617 41.2646 2.69604 41.9039 3.35314 42.34C3.40971 42.3772 3.45033 42.4676 3.46145 42.5392C3.4803 42.661 3.49916 42.7829 3.51753 42.9047C3.52044 42.9231 3.52334 42.9415 3.52576 42.9594C3.54074 43.0585 3.55573 43.1571 3.57121 43.2563C3.57894 43.307 3.58668 43.3583 3.59441 43.4095C3.60457 43.4772 3.61472 43.5449 3.62488 43.6121C3.63406 43.6726 3.64277 43.7325 3.65147 43.793C3.66017 43.8515 3.66888 43.91 3.6771 43.9685C3.68677 44.0342 3.69595 44.0995 3.70562 44.1653C3.71336 44.2185 3.72061 44.2712 3.72835 44.3244C3.73802 44.393 3.74769 44.4622 3.75736 44.5308C3.76413 44.5811 3.77138 44.6314 3.77815 44.6817C3.78782 44.7523 3.79701 44.8229 3.80668 44.8935C3.81296 44.9418 3.81973 44.9902 3.82602 45.0385C3.83569 45.111 3.84488 45.1836 3.85406 45.2561C3.85987 45.302 3.86567 45.3484 3.87147 45.3944C3.88066 45.4688 3.88984 45.5433 3.89855 45.6178C3.90387 45.6622 3.90918 45.7067 3.9145 45.7512C3.92321 45.8271 3.93191 45.903 3.94061 45.9785C3.94545 46.0215 3.95028 46.0645 3.95512 46.1076C3.96334 46.1849 3.97204 46.2618 3.97978 46.3392C3.98413 46.3808 3.988 46.4219 3.99235 46.4634C4.00009 46.5422 4.00831 46.6211 4.01556 46.6999C4.01943 46.7395 4.02281 46.7787 4.02668 46.8183C4.03393 46.8991 4.04119 46.9803 4.04844 47.0611C4.05134 47.0978 4.05424 47.1346 4.05763 47.1713C4.06439 47.255 4.07116 47.3386 4.07745 47.4227C4.07987 47.4551 4.0818 47.4875 4.08422 47.5194C4.0905 47.6079 4.09679 47.6964 4.10211 47.7844C4.10356 47.8076 4.10501 47.8313 4.10598 47.8545C4.11178 47.9517 4.11758 48.0489 4.12242 48.1461C4.12822 48.2597 4.13354 48.3738 4.13789 48.4879C4.14031 48.5503 4.13596 48.6364 4.1727 48.6697C4.37143 48.8486 4.58176 49.014 4.80756 49.1997C4.80756 48.9178 4.81868 48.6857 4.80563 48.4546C4.79983 48.3521 4.79402 48.2491 4.78822 48.1466H17.6324C17.6851 48.4807 17.7368 48.8153 17.7866 49.1499C17.8447 49.5415 18.0419 49.6977 18.3862 49.8273C18.347 49.2707 18.3098 48.7345 18.2721 48.1983C18.2711 48.1809 18.2697 48.164 18.2687 48.1466C18.1802 46.8851 18.0937 45.624 18.0042 44.3625C17.9994 44.2963 17.995 44.2301 17.9902 44.1638C17.9583 43.7166 17.9259 43.2698 17.8925 42.8225C17.8645 42.4449 17.8152 42.0731 17.9762 41.7419C17.9897 41.7143 18.0042 41.6868 18.0212 41.6597C18.0415 41.6268 18.0642 41.5944 18.0888 41.562C18.1048 41.5417 18.1217 41.5209 18.1401 41.5011C18.1633 41.4755 18.1884 41.4498 18.216 41.4247C18.2499 41.3937 18.2794 41.3575 18.3064 41.3188C18.3867 41.2018 18.4418 41.0562 18.5052 40.9262C18.6855 40.5563 18.8765 40.1903 19.0361 39.8122C19.0544 39.7686 19.0728 39.7251 19.0902 39.6811C19.1395 39.5569 19.1888 39.4321 19.2382 39.3078C20.0355 37.3012 20.827 35.2922 21.6089 33.2793C22.0682 32.0976 22.4874 30.9043 22.7896 29.6694C22.8099 29.5872 22.8293 29.5045 22.8486 29.4218C23.0638 28.4906 22.852 27.7049 22.2384 27.0013L22.236 27.0018Z" fill="#342315" stroke="#342315" stroke-width="0.145056" stroke-miterlimit="10"/>
<path d="M7.61776 31.371C8.14528 31.899 8.67231 32.4271 9.23416 32.9899C9.66546 31.5828 10.4265 30.4253 11.3945 29.3615C10.4618 29.3117 9.53298 29.2963 9.06832 28.262C7.80198 28.775 6.68264 29.5419 5.58167 30.3465C5.47432 29.9466 5.57683 29.6521 5.89885 29.4457C6.78466 28.8775 7.74976 28.4728 8.72308 28.087C8.81157 28.0517 8.90053 28.0169 9.01078 27.9729C8.87636 27.6315 8.92181 27.2026 8.41073 27.0977C8.27099 27.2186 8.1182 27.3724 7.94462 27.4971C7.64435 27.7127 7.33635 27.9178 7.02255 28.1136C6.66281 28.3379 6.276 28.3408 5.8829 28.2084C5.15955 27.9647 4.57546 27.5131 4.09001 26.9411C3.92416 26.7457 3.75107 26.6809 3.52816 26.7128C2.93972 26.7979 2.35321 26.8956 1.76622 26.9899C1.68934 27.0025 1.61391 27.0252 1.51092 27.0498C1.48723 26.8318 1.46596 26.636 1.43888 26.3879C2.20622 26.4218 2.95519 26.4551 3.70658 26.4885C3.533 25.99 3.36764 25.504 3.19212 25.0215C3.16697 24.9519 3.09783 24.8938 3.03884 24.8416C2.6351 24.4833 2.23717 24.1173 1.81844 23.7774C1.63229 23.626 1.59167 23.466 1.64534 23.2615C2.00025 23.3988 2.35466 23.5361 2.73423 23.6831C2.72794 23.0821 2.27295 22.5971 2.53308 22.0188C2.6206 22.3645 2.66267 22.7306 2.80434 23.0531C3.28012 24.1342 3.72786 25.2357 4.30566 26.2622C5.00193 27.4986 5.84035 27.6745 7.08879 26.9986C7.29816 26.8854 7.4964 26.751 7.6869 26.634C7.46352 26.3787 7.26431 26.1384 7.04914 25.9131C7.00031 25.8623 6.88861 25.8299 6.81947 25.8464C6.28905 25.9721 5.76153 26.1109 5.23402 26.2491C5.15037 26.2709 5.07059 26.3096 4.98887 26.34C4.90377 26.1742 5.00773 26.1162 5.12281 26.0577C5.61068 25.8091 6.09516 25.5548 6.58497 25.3106C6.71165 25.2478 6.75323 25.1815 6.72809 25.0316C6.65943 24.6202 6.77257 24.2353 6.9447 23.8625C6.98145 23.7827 7.0124 23.671 6.9858 23.5961C6.59125 22.497 6.16962 21.4086 5.57103 20.3995C5.46997 20.2288 5.34861 20.0698 5.2316 19.8981C4.5861 20.223 4.0639 20.6524 3.64663 21.2109C3.62197 21.2041 3.59779 21.1973 3.57313 21.1906C3.59199 21.0914 3.58425 20.9744 3.63454 20.8956C3.8821 20.5098 4.14465 20.1331 4.40285 19.7545C4.44685 19.6902 4.49617 19.6298 4.51744 19.5253C4.27858 19.6322 4.03151 19.7236 3.80232 19.8488C1.77541 20.9585 0.712636 22.6817 0.58257 24.9785C0.555009 25.4668 0.649295 25.9653 0.59224 26.4479C0.552108 26.7873 0.542437 27.1166 0.559361 27.4536C0.717955 30.5626 1.08736 33.647 1.64002 36.7096C1.86244 37.9401 2.1482 39.1518 2.75212 40.2659C3.30865 41.2928 4.03973 42.11 5.25287 42.314C5.78136 42.403 6.32338 42.4214 6.86057 42.4446C7.14681 42.4572 7.43547 42.4122 7.72317 42.3928C7.73477 42.4175 7.74589 42.4422 7.7575 42.4668C7.62743 42.5311 7.49882 42.6467 7.36633 42.652C6.62655 42.681 5.8858 42.6907 5.14553 42.6902C4.98162 42.6902 4.87331 42.7347 4.77951 42.8633C4.60206 43.1075 4.51261 43.3749 4.53001 43.6771C4.62188 45.2693 4.7152 46.862 4.80368 48.4542C4.81626 48.6854 4.80562 48.9174 4.80562 49.1993C4.57982 49.0137 4.36949 48.8483 4.17076 48.6694C4.13401 48.6365 4.13836 48.55 4.13595 48.4876C4.05858 46.4878 3.76509 44.5121 3.46047 42.5379C3.44935 42.4663 3.40873 42.3759 3.35216 42.3387C2.69506 41.903 2.29519 41.2638 1.96253 40.5768C1.28222 39.1721 0.92345 37.6703 0.665735 36.1424C0.224282 33.5295 0.0985677 30.8919 0.0753588 28.247C0.0710071 27.7717 0.0787434 27.2964 0.0743918 26.8207C0.0637544 25.6539 0.210744 24.5061 0.494086 23.377C0.715537 22.4946 1.26336 21.7896 1.8078 21.0895C2.35273 20.3889 2.9402 19.7255 3.63792 19.169C4.17801 18.7382 4.28052 18.7048 5.17889 18.6342C5.19533 18.5626 5.21129 18.4862 5.23015 18.4103C5.60294 16.8887 6.64637 16.0483 8.08339 15.6175C8.33627 15.5416 8.6022 15.4967 8.86524 15.472C9.60164 15.4033 10.2143 15.6296 10.6049 16.2592C10.9337 15.9023 11.2277 15.5266 11.5778 15.2143C12.5661 14.3338 13.7062 14.2705 14.9024 14.6921C15.3526 14.8507 15.6031 15.1147 16.1141 15.8153C16.1001 15.5735 16.0938 15.3821 16.0779 15.1916C15.8371 12.318 15.5997 9.44446 15.3516 6.57139C15.2399 5.27991 15.0872 3.99134 14.9958 2.69841C14.9687 2.31546 15.0814 1.92091 15.1403 1.53361C15.1669 1.36051 15.209 1.1879 15.2661 1.02253C15.3014 0.920028 15.3574 0.807368 15.4382 0.740642C16.1306 0.170574 16.9207 -0.0678004 17.8011 0.153651C18.0168 0.207805 18.2324 0.379454 18.3823 0.554004C18.8629 1.1144 19.1187 1.79665 19.33 2.49291C19.7449 3.86127 19.9818 5.26782 20.1472 6.68308C20.4687 9.4343 20.7753 12.1879 21.0552 14.944C21.2718 17.0753 21.4817 19.2086 21.6132 21.3463C21.7123 22.953 21.679 24.5679 21.7167 26.1785C21.7201 26.3144 21.7979 26.4609 21.8762 26.5789C21.9778 26.7322 22.1146 26.8613 22.2365 27.001C22.85 27.7045 23.0613 28.4902 22.8467 29.4215C22.5411 30.7444 22.0967 32.0185 21.6069 33.279C20.7762 35.4166 19.9354 37.5499 19.0878 39.6808C18.9186 40.1063 18.7039 40.5139 18.5027 40.9259C18.4181 41.099 18.349 41.3001 18.2136 41.4248C17.7779 41.8262 17.8529 42.3189 17.8906 42.8222C18.0236 44.6136 18.1449 46.4061 18.2706 48.198C18.3084 48.7342 18.3456 49.2704 18.3847 49.8269C18.0405 49.6978 17.8427 49.5417 17.7852 49.1495C17.5357 47.4621 17.2383 45.7818 16.9535 44.0997C16.8796 43.6621 16.7156 43.2593 16.3796 42.9562C16.3085 42.8918 16.1644 42.8623 16.0668 42.8817C15.7515 42.9436 15.4401 43.0277 15.1316 43.1196C14.8966 43.1897 14.7453 43.1355 14.681 42.8885C14.6655 42.828 14.6375 42.7714 14.6085 42.6965C14.784 42.6129 14.9508 42.5365 15.1152 42.4543C15.3816 42.3208 15.6442 42.1796 15.9111 42.0486C17.0889 41.4703 17.9172 40.5869 18.4138 39.3568C19.1095 37.6336 19.8508 35.9282 20.5896 34.2224C21.018 33.2331 21.4952 32.2641 21.7645 31.2129C21.9454 30.506 22.0479 29.7943 21.9405 29.0613C21.8579 28.4941 21.6103 28.0043 21.2772 27.5517C20.5993 26.6306 19.9214 25.7095 19.2328 24.7966C18.5733 23.9224 17.9206 23.042 17.2253 22.1968C16.8592 21.7519 16.4236 21.3593 15.9913 20.9749C15.5223 20.5576 14.9697 20.4783 14.3914 20.7283C14.0819 20.8623 13.7913 21.0373 13.4886 21.1877C12.9128 21.4739 12.3325 21.7514 11.7605 22.044C11.6672 22.0914 11.5841 22.1871 11.5314 22.2804C11.1982 22.8742 11.2475 23.495 11.3858 24.1337C11.4419 24.3919 11.395 24.6724 11.395 24.9538H11.029C11.1939 24.6216 11.1624 24.3112 11.1175 23.9766C11.0575 23.5337 11.1034 23.0768 11.1044 22.6257C11.1049 22.3675 11.0309 22.3157 10.779 22.3878C10.0054 22.6078 9.22739 22.8128 8.46005 23.0516C8.26519 23.1126 8.06018 23.2431 7.9335 23.4007C7.60326 23.8103 7.49543 24.3155 7.49205 24.8286C7.48914 25.2845 7.75991 25.5838 8.22409 25.6979C9.00111 25.8889 9.75636 25.8304 10.4783 25.4586C10.4787 25.6829 10.4807 25.6912 10.2858 25.7371C9.63693 25.8899 8.99434 26.0934 8.31113 25.9866C8.24827 25.9769 8.17477 26.0335 8.05341 26.0794C8.17091 26.1713 8.24005 26.2337 8.31693 26.2835C9.13117 26.811 10.0436 27.059 10.9884 27.2109C11.6455 27.3163 12.304 27.3477 12.9553 27.1804C13.7686 26.9715 14.3628 26.5209 14.5727 25.6636C14.578 25.6423 14.594 25.6239 14.6075 25.5993C14.8164 26.4174 14.6094 27.1054 13.9789 27.6731C14.2071 27.9642 14.5045 28.1373 14.8203 28.2809C15.7849 28.7194 16.8123 28.9124 17.8548 29.0342C18.0767 29.0603 18.1841 29.1314 18.2208 29.3514C18.2624 29.6014 18.333 29.846 18.4065 30.1574C17.8316 29.9369 17.3094 29.7551 16.8022 29.5385C15.8763 29.1425 14.9672 28.7122 14.1404 28.1252C14.0722 28.0768 13.9257 28.0855 13.8397 28.1228C12.9157 28.5207 12.1662 29.1507 11.5521 29.9345C9.69447 32.3052 9.13117 34.9689 9.78586 37.901C9.9957 38.84 10.3052 39.7432 10.7157 40.6125C10.7394 40.6628 10.7597 40.7146 10.7945 40.7963C10.2404 40.9679 9.69931 41.1352 9.12295 41.3136C9.11473 41.2164 9.10361 41.142 9.10361 41.0675C9.09443 39.4884 9.06783 37.9087 9.08766 36.33C9.09539 35.6952 8.99337 35.097 8.75596 34.5178C8.39864 33.647 8.02633 32.782 7.67046 31.9107C7.60374 31.7472 7.58488 31.564 7.54427 31.3899C7.56941 31.3827 7.59504 31.3754 7.62018 31.3681L7.61776 31.371ZM20.3227 24.7067C20.4218 24.4451 20.5374 24.2445 20.5702 24.0308C20.6568 23.467 20.7646 22.8979 20.7608 22.3312C20.7525 21.149 20.7052 19.9648 20.6234 18.7851C20.4982 16.9777 20.3396 15.1727 20.1771 13.3687C20.0152 11.5729 19.8503 9.77663 19.6506 7.98423C19.5065 6.68888 19.3286 5.39644 19.1197 4.11028C18.9891 3.30571 18.729 2.52869 18.2581 1.8479C17.5328 0.799631 16.6934 0.746928 15.7239 1.4635C15.6311 1.53216 15.5431 1.66513 15.5325 1.77586C15.4977 2.13511 15.4682 2.50065 15.4943 2.85942C15.5687 3.87916 15.6712 4.89697 15.7636 5.91526C15.7849 6.14928 15.811 6.3833 15.8356 6.62458C16.1301 6.5946 16.3854 6.55592 16.6417 6.54528C17.3974 6.51482 18.1536 6.49064 18.9098 6.47662C19.0491 6.4742 19.1893 6.53126 19.3291 6.56124C19.3237 6.56946 19.3184 6.57719 19.3131 6.58541C18.1667 6.64634 17.0203 6.70726 15.8627 6.76867C15.8627 6.90453 15.8555 7.00704 15.8637 7.10858C16.0015 8.77768 16.1446 10.4468 16.2766 12.1164C16.2906 12.2967 16.3395 12.3596 16.5271 12.3717C17.3785 12.4278 18.2286 12.5042 19.08 12.567C19.2909 12.5825 19.4673 12.6366 19.5703 12.8508C19.5399 12.8586 19.5176 12.8707 19.4973 12.8682C18.7309 12.7836 17.9626 12.7106 17.1987 12.6052C16.8394 12.5554 16.5687 12.6453 16.4642 12.979C16.4014 13.1792 16.3883 13.4059 16.4018 13.6177C16.4521 14.4054 16.5101 15.1925 16.5904 15.9773C16.6378 16.4381 16.7355 16.894 16.8036 17.3529C16.8269 17.51 16.9192 17.5598 17.0623 17.5816C17.9931 17.7228 18.9219 17.8799 19.8551 18.008C20.1177 18.0443 20.2134 18.17 20.2395 18.4132C20.1651 18.4132 20.1008 18.4229 20.0403 18.4118C19.3039 18.2783 18.5709 18.126 17.8311 18.0163C17.615 17.9844 17.3776 18.0583 17.1576 18.113C17.1049 18.126 17.0449 18.2604 17.0507 18.3339C17.1141 19.1197 17.1866 19.9044 17.2659 20.6887C17.2756 20.783 17.3205 20.8879 17.3814 20.9604C17.9114 21.5871 18.4689 22.1915 18.978 22.8345C19.4369 23.4143 19.844 24.0346 20.3237 24.7062L20.3227 24.7067ZM5.6803 18.8034C6.34369 19.0689 6.6222 19.6365 6.81947 20.2859C7.09073 21.178 7.39679 22.0595 7.69271 22.9588C8.67086 22.338 9.811 22.1794 10.8491 21.7582C10.8491 21.7108 10.8544 21.678 10.8481 21.6475C10.6088 20.4561 10.3859 19.2608 10.1185 18.0757C10.0281 17.6749 9.82744 17.2978 9.67126 16.9124C9.59825 16.732 9.45513 16.7074 9.27526 16.7422C8.50357 16.8897 7.72849 17.0241 7.05446 17.4713C7.63033 16.7847 8.44216 16.6315 9.31539 16.5096C8.89957 16.1687 8.47407 16.0314 7.98717 16.133C6.94809 16.3501 5.82729 17.6425 5.67982 18.8034H5.6803ZM12.6115 16.2601C13.4707 15.6799 14.3894 15.7002 15.3512 16.0193C15.0876 15.7964 14.8246 15.5818 14.5301 15.427C13.8329 15.0615 13.1661 15.134 12.5511 15.6364C12.1812 15.9386 11.9071 16.3177 11.7204 16.749C11.4172 17.4491 11.1015 18.1512 11.2635 18.9528C11.3413 19.3392 11.3955 19.7299 11.4666 20.1176C11.5425 20.5315 11.6256 20.9445 11.7117 21.3903C11.922 21.2583 12.0971 21.1461 12.2745 21.0383C12.8378 20.6959 13.3924 20.3376 13.9693 20.019C14.4151 19.7724 14.9112 19.6675 15.4174 19.7758C15.7351 19.844 16.0382 19.9803 16.3869 20.0993C16.4405 19.9813 16.5348 19.8507 16.5585 19.7086C16.7374 18.6511 16.5614 17.6599 15.9609 16.7586C15.9309 16.7137 15.8869 16.6682 15.8385 16.6479C14.8028 16.2074 13.7551 15.8646 12.6115 16.2606V16.2601ZM9.84871 27.7451C10.3472 28.5894 12.0507 28.8529 12.7097 28.1968C11.7209 28.2944 10.7983 28.0725 9.84871 27.7451Z" fill="#342315"/>
<path d="M10.3834 42.9668C10.6469 42.9668 10.8863 42.9687 11.1256 42.9663C11.2958 42.9644 11.2649 43.0901 11.2663 43.1878C11.2813 44.1785 11.2939 45.1692 11.3065 46.16C11.3195 47.215 11.3321 48.2705 11.3437 49.3256C11.3471 49.6224 11.3437 49.9198 11.3437 50.2167L11.2823 50.2428C11.2088 50.0866 11.0865 49.9353 11.069 49.7733C10.8766 47.964 10.7001 46.1527 10.5193 44.3419C10.4748 43.8957 10.4308 43.4494 10.3829 42.9668H10.3834Z" fill="#342315"/>
<path d="M20.3224 24.7059C19.8427 24.0343 19.4356 23.414 18.9768 22.8342C18.4681 22.1912 17.9101 21.5868 17.3802 20.9601C17.3188 20.8876 17.2738 20.7827 17.2646 20.6884C17.1853 19.9041 17.1123 19.1194 17.0495 18.3337C17.0437 18.2602 17.1036 18.1257 17.1563 18.1127C17.3763 18.0576 17.6137 17.9836 17.8299 18.016C18.5696 18.1257 19.3027 18.2781 20.0391 18.4115C20.0995 18.4226 20.1638 18.413 20.2383 18.413C20.2122 18.1697 20.1164 18.0435 19.8539 18.0078C18.9212 17.8796 17.9923 17.7225 17.0611 17.5813C16.9179 17.5595 16.8261 17.5097 16.8024 17.3526C16.7342 16.8937 16.636 16.4378 16.5891 15.977C16.5089 15.1922 16.4509 14.4046 16.4006 13.6174C16.387 13.4056 16.4006 13.1789 16.4629 12.9787C16.5679 12.6451 16.8386 12.5556 17.1974 12.6049C17.9609 12.7103 18.7292 12.7829 19.4961 12.868C19.5164 12.8704 19.5386 12.8583 19.5691 12.8506C19.4661 12.6364 19.2896 12.5827 19.0788 12.5667C18.2278 12.5039 17.3778 12.427 16.5258 12.3714C16.3382 12.3593 16.2898 12.296 16.2753 12.1161C16.1433 10.4465 16.0007 8.7774 15.8624 7.1083C15.8542 7.00676 15.8615 6.90425 15.8615 6.76838C17.019 6.70698 18.1654 6.64605 19.3118 6.58513C19.3172 6.57691 19.3225 6.56917 19.3278 6.56095C19.1881 6.53146 19.0478 6.47392 18.9086 6.47634C18.1524 6.49036 17.3961 6.51453 16.6404 6.545C16.3841 6.55515 16.1288 6.59432 15.8344 6.62429C15.8097 6.38253 15.7836 6.149 15.7623 5.91497C15.6695 4.89668 15.567 3.87888 15.493 2.85914C15.4669 2.50037 15.4964 2.13483 15.5312 1.77557C15.5418 1.66485 15.6298 1.53188 15.7227 1.46322C16.6921 0.746645 17.5315 0.799348 18.2568 1.84762C18.7282 2.52841 18.9879 3.30542 19.1184 4.11C19.3273 5.39616 19.5052 6.6886 19.6493 7.98395C19.8485 9.77587 20.0139 11.5721 20.1759 13.3684C20.3383 15.1729 20.4969 16.9779 20.6222 18.7848C20.7039 19.9646 20.7513 21.1487 20.7595 22.3309C20.7634 22.8971 20.656 23.4667 20.569 24.0305C20.5361 24.2442 20.4201 24.4448 20.3214 24.7064L20.3224 24.7059Z" fill="#FFE6D3"/>
<path d="M5.68018 18.8035C5.82765 17.6426 6.94844 16.3502 7.98752 16.1331C8.47443 16.031 8.89992 16.1684 9.31575 16.5097C8.44252 16.6316 7.63069 16.7848 7.05482 17.4714C7.72836 17.0242 8.50344 16.8903 9.27562 16.7423C9.45549 16.708 9.59861 16.7326 9.67162 16.9125C9.82828 17.2979 10.0285 17.6745 10.1189 18.0758C10.3863 19.2609 10.6092 20.4562 10.8485 21.6476C10.8548 21.6781 10.8495 21.7109 10.8495 21.7583C9.81136 22.179 8.67122 22.3381 7.69306 22.9589C7.39763 22.0595 7.09108 21.1781 6.81983 20.286C6.62255 19.6371 6.34405 19.0695 5.68066 18.8035H5.68018Z" fill="#FFE6D3"/>
<path d="M12.6113 16.2592C13.7543 15.8632 14.8026 16.2061 15.8383 16.6465C15.8867 16.6668 15.9307 16.7123 15.9606 16.7573C16.5612 17.659 16.7372 18.6498 16.5583 19.7072C16.5341 19.8494 16.4403 19.9794 16.3866 20.0979C16.0385 19.9789 15.7353 19.8426 15.4172 19.7744C14.9109 19.6656 14.4148 19.771 13.969 20.0176C13.3927 20.3368 12.8376 20.6946 12.2743 21.0369C12.0968 21.1447 11.9218 21.2574 11.7115 21.3889C11.6254 20.9431 11.5423 20.5302 11.4663 20.1163C11.3953 19.7285 11.3411 19.3378 11.2633 18.9515C11.1018 18.1503 11.417 17.4477 11.7202 16.7476C11.9068 16.3163 12.1805 15.9372 12.5509 15.635C13.1659 15.1326 13.8327 15.0601 14.5299 15.4257C14.8244 15.5799 15.0874 15.7946 15.3509 16.018C14.3892 15.6988 13.4705 15.6795 12.6113 16.2592Z" fill="#FFE6D3"/>
<path d="M9.84888 27.7446C10.799 28.072 11.7215 28.2939 12.7099 28.1962C12.0508 28.8524 10.3474 28.5889 9.84888 27.7446Z" fill="#FFE6D3"/>
<path d="M16.3787 42.9567C16.3077 42.8924 16.1636 42.8629 16.0659 42.8822C15.7507 42.9441 15.4393 43.0282 15.1308 43.1201C14.8958 43.1902 14.7445 43.1361 14.6801 42.889C14.6647 42.8285 14.6361 42.772 14.6076 42.697C14.7831 42.6134 14.9499 42.537 15.1143 42.4548C15.3808 42.3213 15.6433 42.1801 15.9102 42.0491C17.0881 41.4708 17.9163 40.5874 18.4129 39.3574C19.1087 37.6341 19.8499 35.9287 20.5887 34.2229C21.0171 33.2336 21.4944 32.2646 21.7637 31.2135C21.9445 30.5066 22.047 29.7948 21.9397 29.0618C21.857 28.4946 21.6094 28.0048 21.2763 27.5523C20.5984 26.6312 19.9205 25.71 19.232 24.7972C18.5725 23.923 17.9197 23.0425 17.2244 22.1973C16.8584 21.7525 16.4227 21.3598 15.9905 20.9754C15.5219 20.5582 14.9688 20.4789 14.3905 20.7288C14.0811 20.8628 13.7905 21.0378 13.4878 21.1882C12.9119 21.4744 12.3317 21.752 11.7597 22.0445C11.6664 22.0919 11.5832 22.1876 11.5305 22.2809C11.1974 22.8747 11.2467 23.4955 11.385 24.1343C11.4411 24.3925 11.3942 24.6729 11.3942 24.9543H11.0281C11.193 24.6221 11.1616 24.3117 11.1166 23.9771C11.0567 23.5342 11.1026 23.0773 11.1036 22.6262C11.104 22.368 11.0301 22.3162 10.7782 22.3883C10.0045 22.6083 9.22654 22.8133 8.4592 23.0521C8.26434 23.1131 8.05933 23.2436 7.93265 23.4012C7.6024 23.8108 7.49458 24.3161 7.49119 24.8291C7.48829 25.285 7.75906 25.5843 8.22324 25.6984C9.00025 25.8894 9.75551 25.8309 10.4774 25.4591C10.4779 25.6835 10.4798 25.6917 10.285 25.7376C9.63608 25.8904 8.99349 26.094 8.31027 25.9871C8.24742 25.9774 8.17392 26.034 8.05256 26.0799C8.17005 26.1718 8.23871 26.2342 8.31559 26.284C9.12984 26.8115 10.0422 27.0595 10.987 27.2114C11.6441 27.3168 12.3027 27.3482 12.954 27.1809C13.7673 26.972 14.3615 26.5214 14.5714 25.6641C14.5767 25.6428 14.5926 25.6245 14.6062 25.5998C14.815 26.4179 14.6081 27.106 13.9776 27.6736C14.2058 27.9647 14.5032 28.1378 14.8189 28.2814C15.7835 28.72 16.811 28.9129 17.8535 29.0347C18.0754 29.0608 18.1828 29.1319 18.2195 29.3519C18.2611 29.6019 18.3317 29.8465 18.4052 30.1579C17.8303 29.9374 17.3081 29.7556 16.8009 29.539C15.8749 29.143 14.9659 28.7127 14.1391 28.1257C14.0709 28.0774 13.9244 28.0861 13.8383 28.1233C12.9143 28.5212 12.1649 29.1512 11.5508 29.935C9.69314 32.3057 9.12984 34.9694 9.78452 37.9015C9.99437 38.8405 10.3038 39.7437 10.7143 40.6131C10.738 40.6633 10.7583 40.7151 10.7931 40.7968C10.239 40.9684 9.69797 41.1357 9.12113 41.3142C9.11291 41.217 9.10179 41.1425 9.10179 41.068C9.09261 39.4889 9.06601 37.9092 9.08584 36.3305C9.09357 35.6957 8.99155 35.0976 8.75414 34.5183C8.39682 33.6475 8.02451 32.7825 7.66865 31.9112C7.60192 31.7477 7.58306 31.5645 7.54245 31.3904C7.56759 31.3832 7.59322 31.3759 7.61836 31.3687C8.14588 31.8967 8.67291 32.4247 9.23476 32.9875C9.66606 31.5804 10.4271 30.4229 11.3951 29.3592C10.4624 29.3094 9.53358 29.2939 9.06891 28.2596C7.80258 28.7727 6.68323 29.5395 5.58226 30.3441C5.47492 29.9442 5.57743 29.6498 5.89945 29.4433C6.78526 28.8752 7.75036 28.4705 8.72368 28.0846C8.81217 28.0493 8.90113 28.0145 9.01138 27.9705C8.87696 27.6291 8.92289 27.2003 8.41133 27.0953C8.27159 27.2162 8.1188 27.37 7.94522 27.4947C7.64495 27.7104 7.33695 27.9154 7.02315 28.1112C6.66341 28.3356 6.2766 28.3385 5.8835 28.206C5.16015 27.9623 4.57606 27.5107 4.09061 26.9387C3.92476 26.7433 3.75166 26.6785 3.52876 26.7104C2.94032 26.7955 2.35381 26.8932 1.76682 26.9875C1.68994 27.0001 1.61451 27.0228 1.51152 27.0475C1.48783 26.8294 1.46656 26.6336 1.43948 26.3855C2.20682 26.4194 2.95579 26.4527 3.70718 26.4861C3.5336 25.9876 3.36823 25.5017 3.19272 25.0191C3.16757 24.9495 3.09843 24.8915 3.03944 24.8392C2.6357 24.4809 2.23777 24.1149 1.81904 23.775C1.63289 23.6237 1.59227 23.4636 1.64594 23.2591C2.00084 23.3964 2.35526 23.5337 2.73482 23.6807C2.72854 23.0797 2.27355 22.5947 2.53368 22.0165C2.6212 22.3622 2.66326 22.7282 2.80493 23.0507C3.28072 24.1318 3.72845 25.2333 4.30626 26.2598C5.00253 27.4962 5.84095 27.6722 7.08939 26.9962C7.29875 26.8831 7.497 26.7486 7.6875 26.6316C7.46412 26.3763 7.26491 26.136 7.04974 25.9107C7.00091 25.8599 6.88921 25.8275 6.82007 25.844C6.28965 25.9697 5.76213 26.1085 5.23461 26.2468C5.15097 26.2685 5.07119 26.3072 4.98947 26.3377C4.90437 26.1718 5.00833 26.1138 5.1234 26.0553C5.61128 25.8068 6.09576 25.5524 6.58556 25.3082C6.71225 25.2454 6.75383 25.1791 6.72869 25.0293C6.66003 24.6178 6.77317 24.2329 6.9453 23.8601C6.98205 23.7803 7.01299 23.6686 6.9864 23.5937C6.59185 22.4947 6.17022 21.4063 5.57163 20.3971C5.47057 20.2265 5.34921 20.0679 5.2322 19.8957C4.5867 20.2207 4.0645 20.65 3.64722 21.2085C3.62256 21.2017 3.59839 21.195 3.57373 21.1882C3.59259 21.0891 3.58485 20.9721 3.63514 20.8932C3.8827 20.5074 4.14525 20.1307 4.40345 19.7521C4.44745 19.6878 4.49677 19.6274 4.51804 19.5229C4.27918 19.6298 4.03162 19.7212 3.80292 19.8464C1.77601 20.9561 0.713234 22.6794 0.583167 24.9761C0.555607 25.4644 0.649893 25.9629 0.592838 26.4455C0.552706 26.7849 0.543035 27.1142 0.559958 27.4512C0.718552 30.5602 1.08796 33.6446 1.64062 36.7072C1.86304 37.9377 2.1488 39.1494 2.75271 40.2635C3.30924 41.2905 4.04032 42.1076 5.25347 42.3117C5.78196 42.4006 6.32398 42.419 6.86117 42.4422C7.14741 42.4548 7.43607 42.4098 7.72377 42.3905C7.73537 42.4151 7.74649 42.4398 7.7581 42.4644C7.62803 42.5288 7.49941 42.6443 7.36693 42.6496C6.62715 42.6786 5.8864 42.6883 5.14613 42.6878C4.98222 42.6878 4.87391 42.7323 4.78011 42.8609C4.60266 43.1051 4.5132 43.3725 4.53061 43.6747C4.61668 45.1644 4.69694 47.5098 4.78011 48.9995L11.2641 50.9995C11.1345 49.7312 10.6471 45.6073 10.5209 44.3386C10.4764 43.8923 10.4324 43.446 10.3846 42.9634C10.6481 42.9634 10.8874 42.9654 11.1268 42.963C11.297 42.961 11.266 43.0867 11.2675 43.1844C11.2825 44.1751 11.2549 51.0088 11.2675 51.9995C11.2757 52.6619 17.8457 53.3371 17.8535 53.9995L17.6311 48.1439C17.4178 46.7934 17.1819 45.4458 16.9536 44.0973C16.8797 43.6597 16.7158 43.2569 16.3797 42.9538L16.3787 42.9567Z" fill="#FFE6D3"/>
</g>
<defs>
<clipPath id="clip0_1189_1587">
<rect width="23" height="50.2429" fill="white"/>
</clipPath>
</defs>
</svg>
