<svg width="43" height="29" viewBox="0 0 43 29" fill="none" xmlns="http://www.w3.org/2000/svg">
<path d="M0.0859375 14.5953H23.8293L32.7539 0.75H9.84559L0.0859375 14.5953Z" fill="#FB6DA9"/>
<path d="M42.1967 14.8356L33.2391 0.75H32.7552L32.7597 0.756696L32.7469 0.75L23.8306 14.5953H24.6004L33.083 1.28045L41.4689 14.8467L42.1967 14.8356Z" fill="#A43665"/>
<path d="M39.5226 28.2495H24.3462V14.5947L32.3637 2.40625L39.5226 14.5947V28.2495Z" fill="#A8A8A8"/>
<path d="M39.6989 14.847H41.468L33.0821 1.28076L32.1901 2.67273L39.6989 14.847Z" fill="#682A45"/>
<path d="M35.6076 17.77H30.9934V28.2503H35.6076V17.77Z" fill="#3B2314"/>
<path d="M11.9546 6.89648L9.53906 8.11828L11.6793 8.9325L11.9546 9.03771V6.89648Z" fill="white"/>
<path d="M24.3537 7.23646L21.291 6.5957L21.4975 8.19001L24.3537 7.23646Z" fill="white"/>
<path d="M17.463 5.22481L18.2354 7.14139L21.5801 6.65703L21.2895 6.59542L22.6498 4.6049L18.2354 5.24471L17.463 3.32812L15.3361 5.08452L11.1483 4.2068L11.7534 6.23049L15.3361 6.9812L17.463 5.22481Z" fill="white"/>
<path d="M11.6575 10.499L15.7182 9.47723L19.6336 10.2839L20.5168 8.51704L21.4966 8.19002L21.2901 6.59571L18.236 7.14168L17.4637 5.2251L15.3368 6.98149L11.754 6.23078L11.9538 6.89808V8.79476V9.03931L12.383 9.20329L11.6575 10.499Z" fill="#352416"/>
<path d="M2.56958 28.2495H24.345V16.9404H2.56958" fill="#E0E0E0"/>
<path d="M2.56958 16.9424H24.345V14.5967H2.56958" fill="#E0E0E0"/>
<path d="M32.7538 3.58793L24.3462 16.9414V14.5957L32.1896 2.67285L32.7538 3.58793Z" fill="#8A8A8A"/>
</svg>
