<svg width="47" height="47" viewBox="0 0 47 47" fill="none" xmlns="http://www.w3.org/2000/svg">
<path d="M23.05 46.1C35.7802 46.1 46.1 35.7802 46.1 23.05C46.1 10.3198 35.7802 0 23.05 0C10.3198 0 0 10.3198 0 23.05C0 35.7802 10.3198 46.1 23.05 46.1Z" fill="white"/>
<mask id="mask0_2433_4484" style="mask-type:luminance" maskUnits="userSpaceOnUse" x="0" y="0" width="47" height="47">
<path d="M23.05 46.1C35.7802 46.1 46.1 35.7802 46.1 23.05C46.1 10.3198 35.7802 0 23.05 0C10.3198 0 0 10.3198 0 23.05C0 35.7802 10.3198 46.1 23.05 46.1Z" fill="white"/>
</mask>
<g mask="url(#mask0_2433_4484)">
<path d="M41.0609 42.74C40.7709 40.91 39.4509 39.75 38.1409 38.54C36.8809 37.37 35.5609 36.18 34.1009 35.27C33.6409 35.22 33.2009 35.15 32.7809 35.1C30.8909 34.84 29.1109 34.32 27.4109 33.42C26.4509 32.92 27.3009 31.46 28.2609 31.97C29.6809 32.71 31.1609 33.17 32.7409 33.41C33.2309 33.48 33.7409 33.56 34.2309 33.61H34.2409C34.3709 33.58 34.5109 33.58 34.6509 33.64H34.7309C35.1909 33.66 35.7909 33.66 36.1409 33.31C36.4209 33.01 36.4509 32.43 36.4609 32.03C36.4609 31.42 36.2309 30.83 35.8909 30.33C35.0309 29.06 34.1409 27.79 33.2209 26.56C32.9709 26.23 33.0309 25.9 33.2509 25.67C33.2109 25.39 33.3309 25.12 33.6709 24.96C34.9609 24.37 36.4409 23.74 37.2409 22.5C37.8709 21.54 37.9809 20.33 37.1209 19.48C35.6709 18.04 33.3109 18.13 31.4409 17.86C30.5309 17.73 29.6409 17.45 28.9809 16.8C28.2009 16.04 27.8509 14.87 27.4309 13.9C27.1809 13.33 26.9409 12.76 26.7509 12.18C26.6009 11.7 26.5109 11.21 26.2809 10.77C25.8109 9.81997 25.0409 9.60997 24.1809 10.26C23.2209 10.97 23.0009 11.95 22.5409 13.03C22.2309 13.78 21.8309 14.45 21.3009 15.02C21.2409 15.22 21.1209 15.38 20.9109 15.51C20.7909 15.58 20.6809 15.64 20.5609 15.7C20.5609 15.7 20.5542 15.7033 20.5409 15.71C20.5409 15.71 20.5109 15.74 20.4909 15.75C20.3609 15.84 20.2409 15.89 20.1209 15.89C18.7809 16.41 17.3809 16.33 15.9409 16C15.1109 15.8 14.3009 15.55 13.4609 15.41C12.8009 15.3 11.8909 15.12 11.3109 15.55C10.2609 16.32 10.6009 18.48 10.8409 19.54C11.2009 21.15 11.9709 22.63 13.1009 23.83C13.2809 24.02 13.3409 24.23 13.3309 24.43C13.4909 24.71 13.4809 25.06 13.1509 25.34C11.8709 26.41 10.5009 27.43 9.31085 28.6C8.88086 29.02 8.36086 29.67 8.56086 30.32C8.72086 30.84 9.32085 31.1 9.79085 31.26C12.7609 32.27 16.1209 31.84 19.1709 31.51C20.2509 31.39 20.2309 33.08 19.1709 33.2C17.1909 33.41 15.2009 33.61 13.2109 33.52C12.9709 33.51 12.7209 33.5 12.4609 33.48C12.4409 33.48 12.4109 33.5 12.3909 33.51C9.18085 34.66 6.25085 36.55 3.88085 39.02C2.77085 40.19 1.51085 41.59 1.27085 43.25C1.16085 44 1.29085 44.93 1.78085 45.51C2.26085 46.08 2.98085 45.87 3.57085 45.56C4.28085 45.18 4.97085 45.84 4.78085 46.54C4.78085 46.54 4.95085 46.68 4.97085 46.69C5.15085 46.82 5.38086 46.91 5.60085 46.96C6.08085 47.06 6.44086 46.79 6.80086 46.49C7.68086 45.76 8.56085 45.02 9.40085 44.24C11.1609 42.61 12.9009 40.99 15.0809 39.9C16.0509 39.41 16.9009 40.87 15.9309 41.36C13.7709 42.44 12.0709 44.09 10.3109 45.68C10.5209 45.86 10.6209 46.14 10.5309 46.47C9.82085 49.05 10.4609 51.97 12.3009 53.94C14.0309 55.78 16.6509 56.7 19.1409 56.35C19.3809 56.09 19.7709 55.95 20.1709 56.17C21.1709 56.72 22.2309 57.02 23.3409 57.08C26.0109 55.1 27.5309 51.64 27.3309 48.34C27.3309 48.35 27.3209 48.36 27.3209 48.37C27.3209 48.36 27.3209 48.35 27.3309 48.33C27.3209 48.32 27.3209 48.3 27.3309 48.28C27.3309 48.22 27.3109 48.16 27.2309 48.17C27.1709 48.17 27.2709 48.16 27.1609 48.14C26.9209 48.1 26.5509 48.39 26.3409 48.5C25.7809 48.81 25.2709 49.18 24.8009 49.61C24.7509 49.67 24.6909 49.73 24.6109 49.78C24.3809 50 24.1209 50.04 23.8809 49.98C22.4309 50.25 20.9709 50.19 19.5409 49.78C18.5009 49.48 18.9409 47.85 19.9909 48.15C21.2209 48.51 22.4909 48.57 23.7509 48.29C24.6509 47.47 25.8709 46.55 27.0509 46.45C28.0409 46.38 29.0909 47.32 29.0209 48.34V48.41C29.1509 50.85 28.4509 53.29 27.1509 55.34C29.1009 55.98 31.1709 56.13 33.2009 55.72C34.9209 54.31 37.3209 52.85 37.6509 50.49C37.7409 49.81 37.5909 49.21 37.0309 48.78C36.9009 48.67 36.7409 48.59 36.5809 48.53C36.5109 48.5 36.2309 48.44 36.2309 48.43C35.1509 48.32 33.9909 48.71 33.3609 49.57C33.3309 49.62 33.2909 49.66 33.2609 49.69C33.2609 49.69 33.2509 49.69 33.2509 49.7C33.1209 49.93 32.8909 50.09 32.5509 50.09C32.3109 50.09 32.1209 50.01 31.9909 49.87C31.7309 49.7 31.5909 49.4 31.7309 49.01C32.0209 48.21 32.2809 47.4 32.5209 46.58C32.7209 45.89 32.9009 45.19 33.0309 44.48C33.1309 43.98 33.1609 43.46 33.6709 43.19C34.4509 42.77 35.2309 43.48 35.8109 43.98C36.3909 44.48 36.9309 45.17 37.6309 45.51C38.3909 45.87 39.8709 46.15 40.5509 45.5C41.2209 44.84 41.2009 43.6 41.0609 42.74ZM27.2409 22.56C28.2409 22.56 28.2409 24.12 27.2409 24.12C26.2409 24.12 26.2409 22.56 27.2409 22.56ZM22.1709 22.09C23.1809 22.09 23.1709 23.65 22.1709 23.65C21.1709 23.65 21.1709 22.09 22.1709 22.09ZM24.0509 27.47C22.7109 27.35 21.5409 26.52 21.4209 25.12C21.3509 24.37 22.5209 24.38 22.5809 25.12C22.6609 25.95 23.5609 26.28 24.2709 26.32C24.8609 26.35 26.0209 26.35 26.2309 25.65C26.4509 24.93 27.5809 25.24 27.3609 25.96C26.9509 27.33 25.2909 27.58 24.0509 27.47Z" fill="#FEC501"/>
<path d="M27.2422 24.1201C26.2422 24.1201 26.2422 22.5601 27.2422 22.5601C28.2422 22.5601 28.2422 24.1201 27.2422 24.1201Z" fill="black"/>
<path d="M22.1719 23.6498C21.1719 23.6498 21.1719 22.0898 22.1719 22.0898C23.1719 22.0898 23.1719 23.6498 22.1719 23.6498Z" fill="black"/>
<path d="M27.3571 25.9598C26.9471 27.3298 25.2871 27.5798 24.0471 27.4698C22.7071 27.3498 21.5371 26.5198 21.4171 25.1198C21.3471 24.3698 22.5171 24.3798 22.5771 25.1198C22.6571 25.9498 23.5571 26.2798 24.2671 26.3198C24.8571 26.3498 26.0171 26.3498 26.2271 25.6498C26.4471 24.9298 27.5771 25.2398 27.3571 25.9598Z" fill="black"/>
<path d="M35.0202 26.1797C34.8502 26.2597 34.6902 26.3397 34.5202 26.4197C33.8802 26.7197 33.2902 26.1897 33.2502 25.6697C33.2102 25.3897 33.3302 25.1197 33.6702 24.9597C34.9602 24.3697 36.4402 23.7397 37.2402 22.4997C37.8702 21.5397 37.9802 20.3297 37.1202 19.4797C35.6702 18.0397 33.3102 18.1297 31.4402 17.8597C30.5302 17.7297 29.6402 17.4497 28.9802 16.7997C28.2002 16.0397 27.8502 14.8697 27.4302 13.8997C27.1802 13.3297 26.9402 12.7597 26.7502 12.1797C26.6002 11.6997 26.5102 11.2097 26.2802 10.7697C25.8102 9.81969 25.0402 9.60969 24.1802 10.2597C23.2202 10.9697 23.0002 11.9497 22.5402 13.0297C22.2302 13.7797 21.8302 14.4497 21.3002 15.0197C21.0802 15.2697 20.8302 15.4897 20.5602 15.6997C20.5602 15.6997 20.5536 15.703 20.5402 15.7097C20.5402 15.7097 20.5102 15.7397 20.4902 15.7497C20.3602 15.8397 20.2402 15.8897 20.1202 15.8897C19.3902 15.9797 18.8902 14.8297 19.6302 14.2897C19.6502 14.2797 19.6702 14.2597 19.6802 14.2497C20.8902 13.3597 21.0702 11.7797 21.7002 10.6097C22.3502 9.41969 23.5802 8.27969 24.9802 8.17969C25.0502 8.17969 25.1202 8.17969 25.1902 8.17969C26.3102 8.17969 27.2302 8.93969 27.7402 9.92969C28.0202 10.4797 28.1702 11.0597 28.3502 11.6497C28.5402 12.2997 28.8202 12.9197 29.1002 13.5397C29.5202 14.4897 29.8002 15.6497 30.8802 16.0297C31.9102 16.3897 33.0802 16.3297 34.1602 16.4997C36.3402 16.8397 38.9802 17.8797 39.3902 20.3497C39.8702 23.2597 37.3302 25.0497 35.0202 26.1897V26.1797Z" fill="black"/>
<path d="M21.2997 15.0201C21.2397 15.2201 21.1197 15.3801 20.9097 15.5101C20.7897 15.5801 20.6797 15.6401 20.5597 15.7001C20.5597 15.7001 20.5531 15.7035 20.5397 15.7101C20.3997 15.7801 20.2597 15.8401 20.1197 15.8901C18.7797 16.4101 17.3797 16.3301 15.9397 16.0001C15.1097 15.8001 14.2997 15.5501 13.4597 15.4101C12.7997 15.3001 11.8897 15.1201 11.3097 15.5501C10.2597 16.3201 10.5997 18.4801 10.8397 19.5401C11.1997 21.1501 11.9697 22.6301 13.0997 23.8301C13.2797 24.0201 13.3397 24.2301 13.3297 24.4301C13.2997 25.0801 12.4697 25.6301 11.9097 25.0201C11.7697 24.8701 11.6297 24.7101 11.4897 24.5501C10.4097 23.2601 9.61972 21.7301 9.23972 20.0901C8.86972 18.5101 8.67972 16.4901 9.55972 15.0301C10.5997 13.2901 12.7397 13.5201 14.4497 13.8901C16.1997 14.2701 17.9797 15.0201 19.6797 14.2501C19.8097 14.2001 19.9297 14.1301 20.0597 14.0601C20.7797 13.6401 21.4497 14.4001 21.2997 15.0201Z" fill="black"/>
<path d="M19.1657 33.2001C17.1857 33.4101 15.1957 33.6101 13.2057 33.5201C12.9657 33.5101 12.7157 33.5001 12.4557 33.4801C11.4457 33.4101 10.3757 33.2901 9.39573 32.9501C8.95573 32.8001 8.54573 32.6001 8.15573 32.3501C6.68573 31.3701 6.47573 29.5701 7.47573 28.1501C8.02573 27.3701 8.80573 26.7901 9.53573 26.1801C10.1757 25.6301 10.8357 25.0801 11.4857 24.5501C11.6457 24.4101 11.7957 24.2801 11.9557 24.1501C12.4557 23.7301 13.0857 24.0001 13.3257 24.4301C13.4857 24.7101 13.4757 25.0601 13.1457 25.3401C11.8657 26.4101 10.4957 27.4301 9.30573 28.6001C8.87573 29.0201 8.35573 29.6701 8.55573 30.3201C8.71573 30.8401 9.31573 31.1001 9.78573 31.2601C12.7557 32.2701 16.1157 31.8401 19.1657 31.5101C20.2457 31.3901 20.2257 33.0801 19.1657 33.2001Z" fill="black"/>
<path d="M37.326 34.4997C37.116 34.7097 36.896 34.8697 36.646 34.9797C35.886 35.3697 34.976 35.3697 34.096 35.2697C33.636 35.2197 33.196 35.1497 32.776 35.0997C30.886 34.8397 29.106 34.3197 27.406 33.4197C26.446 32.9197 27.296 31.4597 28.256 31.9697C29.676 32.7097 31.156 33.1697 32.736 33.4097C33.226 33.4797 33.736 33.5597 34.226 33.6097H34.236C34.376 33.6197 34.516 33.6297 34.646 33.6397H34.726C35.186 33.6597 35.786 33.6597 36.136 33.3097C36.416 33.0097 36.446 32.4297 36.456 32.0297C36.456 31.4197 36.226 30.8297 35.886 30.3297C35.026 29.0597 34.136 27.7897 33.216 26.5597C32.966 26.2297 33.026 25.8997 33.246 25.6697C33.576 25.2997 34.286 25.1797 34.676 25.7097C34.786 25.8597 34.906 26.0197 35.016 26.1797C35.466 26.8097 35.906 27.4597 36.346 28.0997C36.866 28.8497 37.486 29.5497 37.826 30.3997C38.306 31.6397 38.326 33.4997 37.326 34.4997Z" fill="black"/>
<path d="M15.9291 41.3598C13.7691 42.4398 12.0691 44.0898 10.3091 45.6798C9.76906 46.1598 9.22906 46.6498 8.66906 47.0998H8.65906C7.55906 48.0098 6.52906 49.0098 4.98906 48.5398C4.35906 48.3498 3.71906 47.9598 3.36906 47.4398C2.77906 47.5998 2.16906 47.6098 1.57906 47.3798C0.629062 47.0098 0.0290625 46.1198 -0.250938 45.1798C-0.390938 44.7198 -0.460938 44.2598 -0.460938 43.7998C-0.460938 42.1498 0.389063 40.5798 1.40906 39.2898C3.52906 36.5998 6.31906 34.4498 9.39906 32.9498C10.2291 32.5498 11.0791 32.1898 11.9391 31.8798C12.9391 31.5198 13.3891 33.0598 12.4591 33.4798C12.4391 33.4798 12.4091 33.4998 12.3891 33.5098C9.17906 34.6598 6.24906 36.5498 3.87906 39.0198C2.76906 40.1898 1.50906 41.5898 1.26906 43.2498C1.15906 43.9998 1.28906 44.9298 1.77906 45.5098C2.25906 46.0798 2.97906 45.8698 3.56906 45.5598C4.27906 45.1798 4.96906 45.8398 4.77906 46.5398C4.67906 46.5398 4.77906 46.4598 4.77906 46.5398C4.76906 46.5998 4.74906 46.6498 4.71906 46.7098C4.75906 46.6198 4.77906 46.5698 4.77906 46.5398C4.77906 46.5398 4.94906 46.6798 4.96906 46.6898C5.14906 46.8198 5.37906 46.9098 5.59906 46.9598C6.07906 47.0598 6.43906 46.7898 6.79906 46.4898C7.67906 45.7598 8.55906 45.0198 9.39906 44.2398C11.1591 42.6098 12.8991 40.9898 15.0791 39.8998C16.0491 39.4098 16.8991 40.8698 15.9291 41.3598Z" fill="black"/>
<path d="M20.0556 57.9101C20.0556 57.9101 19.9656 57.9301 19.9256 57.9301C16.7556 58.5201 13.3356 57.5201 11.1056 55.1301C9.10563 52.9901 8.22563 49.9701 8.66563 47.1001C8.71563 46.7401 8.79563 46.3801 8.89563 46.0201C9.09563 45.3001 9.90563 45.2901 10.3056 45.6801C10.5156 45.8601 10.6156 46.1401 10.5256 46.4701C9.81563 49.0501 10.4556 51.9701 12.2956 53.9401C14.0256 55.7801 16.6456 56.7001 19.1356 56.3501C19.2956 56.3401 19.4456 56.3101 19.6056 56.2801C20.6756 56.0701 21.1256 57.7001 20.0556 57.9101Z" fill="black"/>
<path d="M42.7772 42.86C42.6672 41.85 42.3972 40.81 41.7972 39.97C41.2572 39.21 40.5972 38.54 39.9272 37.89C38.8972 36.89 37.8072 35.88 36.6472 34.98C36.0672 34.53 35.4572 34.1 34.8372 33.72C34.7772 33.68 34.7072 33.65 34.6472 33.64C34.5072 33.58 34.3672 33.58 34.2372 33.61H34.2272C33.5972 33.78 33.2572 34.75 33.9772 35.19C34.0172 35.21 34.0572 35.24 34.0972 35.27C35.5572 36.18 36.8772 37.37 38.1372 38.54C39.4472 39.75 40.7672 40.91 41.0572 42.74C41.1972 43.6 41.2172 44.84 40.5472 45.5C39.8672 46.15 38.3872 45.87 37.6272 45.51C36.9272 45.17 36.3872 44.48 35.8072 43.98C35.2272 43.48 34.4472 42.77 33.6672 43.19C33.1572 43.46 33.1272 43.98 33.0272 44.48C32.8972 45.19 32.7172 45.89 32.5172 46.58C32.2772 47.4 32.0172 48.21 31.7272 49.01C31.5872 49.4 31.7272 49.7 31.9872 49.87C32.3372 50.12 32.8972 50.11 33.2072 49.74C33.2172 49.74 33.2172 49.72 33.2172 49.72C33.2472 49.7 33.2572 49.67 33.2672 49.65C33.3072 49.6 33.3472 49.54 33.3672 49.47C33.6372 48.73 33.8772 47.97 34.1072 47.21C34.1272 47.15 34.1472 47.08 34.1572 47.02H34.1672C34.3072 46.52 34.4372 46.02 34.5572 45.51C34.5772 45.43 34.5972 45.34 34.6072 45.26C35.0772 45.67 35.5772 46.09 36.0472 46.48C36.1772 46.58 36.3172 46.68 36.4572 46.77H36.4672C36.9372 47.07 37.4472 47.27 37.9872 47.4C38.3872 47.49 38.7972 47.54 39.2172 47.55C40.3672 47.58 41.4972 47.2 42.1672 46.18C42.6472 45.44 42.8272 44.54 42.8272 43.65C42.8272 43.38 42.8072 43.12 42.7772 42.86ZM34.0572 44.74C34.0572 44.74 34.0472 44.74 34.0372 44.75C34.0172 44.7 34.0372 44.7 34.0572 44.74Z" fill="black"/>
</g>
</svg>
