<svg width="14" height="16" viewBox="0 0 14 16" fill="none" xmlns="http://www.w3.org/2000/svg">
<path d="M7.14543 15.0394L7.14546 15.0394C7.55953 15.0539 8.32622 15.2041 9.10869 15.6008C9.60633 15.7594 10.0854 15.6948 10.5989 15.4944C10.8138 15.41 11.1194 15.1876 11.4991 14.7536C11.8727 14.3265 12.3006 13.7148 12.7671 12.8835C12.9443 12.4957 13.0709 12.2022 13.1488 11.9996C13.1667 11.9531 13.1814 11.9129 13.1933 11.8785C13.1311 11.8385 13.0527 11.7877 12.9647 11.7275C12.7298 11.567 12.419 11.3354 12.1152 11.0323C11.5096 10.4284 10.9042 9.51073 11.0276 8.28807C11.1455 7.11946 11.6147 6.35985 12.069 5.88319C12.2877 5.65369 12.5 5.49277 12.6615 5.3842C12.6155 5.33469 12.5616 5.2796 12.5011 5.22122C12.2691 4.99755 11.9605 4.74571 11.6529 4.58033C11.1911 4.34293 10.6797 4.2065 10.1554 4.18141C10.1548 4.18138 10.1543 4.18136 10.1538 4.18133L7.14543 15.0394ZM7.14543 15.0394C6.91982 15.0316 6.56054 15.0792 6.20148 15.1629C5.84547 15.2459 5.44964 15.3737 5.15051 15.5473L7.14543 15.0394ZM7.8836 1.39313L7.88369 1.39303C8.39871 0.856286 8.9496 0.577959 9.37213 0.437958C9.54716 0.379964 9.69903 0.3461 9.81552 0.327488C9.8161 0.421684 9.80916 0.542103 9.78632 0.684555C9.72437 1.07103 9.54507 1.62263 9.07742 2.25505C8.62951 2.86079 8.05562 3.15199 7.5864 3.28871C7.36779 3.35241 7.17416 3.38179 7.03106 3.39357C7.03232 3.26979 7.04432 3.10617 7.08089 2.91721C7.16475 2.4839 7.37686 1.92079 7.8836 1.39313ZM8.94062 4.28758L8.94063 4.28758L0.613311 10.9557C0.498824 10.6267 0.349964 9.88874 0.315164 9.04626C0.280266 8.20144 0.362534 7.30116 0.672268 6.62514L0.672301 6.62507C1.3133 5.22509 2.21683 4.7185 2.66277 4.54722L2.66307 4.54711C3.18341 4.34664 3.81932 4.12756 4.39588 4.23452L4.40321 4.23588L4.41059 4.23688C4.90243 4.30368 5.38424 4.46449 5.79945 4.61429C5.85401 4.63397 5.90814 4.65374 5.96125 4.67313C6.10469 4.72549 6.24074 4.77516 6.35795 4.81334C6.50594 4.86155 6.68166 4.91231 6.82971 4.90422L6.82977 4.90421C6.95063 4.89758 7.11798 4.85614 7.2807 4.81022C7.4532 4.76155 7.65448 4.69765 7.85767 4.6314C7.95472 4.59976 8.05173 4.56776 8.14665 4.53645C8.45794 4.43378 8.74675 4.33851 8.94062 4.28758Z" fill="white" stroke="#7F7F7F" stroke-width="0.615385"/>
</svg>
