<svg width="2608" height="442" viewBox="0 0 2608 442" fill="none" xmlns="http://www.w3.org/2000/svg">
<path d="M168 6.79999V112.4H140.2V6.79999H168ZM16 160.4C16 140.8 32 124.8 51.6 124.8H133C152.6 124.8 168.6 140.8 168.6 160.4C168.6 180 152.6 196 133 196H51.6C32 196 16 180 16 160.4ZM43 160.4C43 165.6 46.6 170.8 52 170.8H132.6C138 170.8 141.6 165.6 141.6 160.4C141.6 155.2 138 150 132.6 150H52C46.6 150 43 155.2 43 160.4ZM42.8 7.79999H75.4L118 108H85.4L59 41.8L32.8 108H0.2L42.8 7.79999ZM203.392 162.2C203.392 142.6 219.392 128.4 238.992 128.4H322.992C342.592 128.4 358.592 142.6 358.592 162.2C358.592 181.8 342.592 196 322.992 196H238.992C219.392 196 203.392 181.8 203.392 162.2ZM194.992 90.8H266.592V68.4H295.392V90.8H366.992V116H194.992V90.8ZM300.792 7.4L360.392 76.4H321.592L281.792 30.8L241.992 76.4H203.192L262.792 7.4H300.792ZM230.392 162.2C230.392 167 234.192 171.4 238.992 171.4H322.992C327.792 171.4 331.592 167 331.592 162.2C331.592 157.4 327.792 153 322.992 153H238.992C234.192 153 230.392 157.4 230.392 162.2ZM434.584 123H516.984C536.584 123 552.584 139.8 552.584 159.6C552.584 179.2 536.584 196.2 516.984 196.2H434.584C414.984 196.2 398.984 179.2 398.984 159.6C398.984 139.8 414.984 123 434.584 123ZM510.784 105.8H484.184V6.79999H510.784V43H526.984V6.79999H552.784V105.8H526.984V68.2H510.784V105.8ZM414.384 7.79999H446.384L475.984 105.4H446.984L430.384 45L413.784 105.4H384.784L414.384 7.79999ZM516.984 149.4H434.584C429.984 149.4 425.984 154.2 425.984 159.6C425.984 165 429.984 169.8 434.584 169.8H516.984C521.784 169.8 525.584 165 525.584 159.6C525.584 154.2 521.784 149.4 516.984 149.4ZM587.377 162.2C587.377 142.6 603.377 128.4 622.977 128.4H706.977C726.577 128.4 742.577 142.6 742.577 162.2C742.577 181.8 726.577 196 706.977 196H622.977C603.377 196 587.377 181.8 587.377 162.2ZM578.977 90.8H650.577V68.4H679.377V90.8H750.977V116H578.977V90.8ZM684.777 7.4L744.377 76.4H705.577L665.777 30.8L625.977 76.4H587.177L646.777 7.4H684.777ZM614.377 162.2C614.377 167 618.177 171.4 622.977 171.4H706.977C711.777 171.4 715.577 167 715.577 162.2C715.577 157.4 711.777 153 706.977 153H622.977C618.177 153 614.377 157.4 614.377 162.2ZM876.431 129.8V170.6H966.431V6.79999H994.631V50.6H1015.03V77.8H994.631V196H848.431V129.8H876.431ZM840.031 7.79999H940.031V108H840.031V7.79999ZM870.631 34.6V81.2H909.431V34.6H870.631ZM1034.42 58.6L1117.22 31H1034.42V7.99999H1191.62V31L1149.02 45.8L1190.22 60.2V85.2L1112.42 58.4L1034.42 85.2V58.6ZM1027.02 98.2H1098.42V73.8H1127.62V98.2H1199.02V122H1027.02V98.2ZM1188.22 135.2V158.6L1180.62 196H1150.82L1158.62 158.6H1037.82V135.2H1188.22ZM1219.02 169.8H1290.02V115H1228.62V7.79999H1381.62V34.2H1258.82V88.4H1381.62V115H1320.02V169.8H1391.02V196H1219.02V169.8ZM1488.47 107.6H1612.67V64.6H1586.47V40H1612.67V6.79999H1640.07V162H1516.67V172.6H1640.07V196H1488.47V140.8H1611.87V130.6H1488.47V107.6ZM1514.07 7.79999H1547.07L1587.07 98.4H1554.47L1530.47 41.4L1506.67 98.4H1474.07L1514.07 7.79999ZM1680.46 7.79999H1825.66V85.8H1680.46V7.79999ZM1667.06 103.6H1839.06V128.8H1770.06V155.4H1743.46V128.8H1709.06V169H1829.66V196H1680.66V128.8H1667.06V103.6ZM1706.86 34.4V59.2H1799.06V34.4H1706.86ZM1869.05 96.2L1967.05 33.2H1869.05V6.79999H2021.05V33.2L1971.45 64.2L2021.05 96.2V128.2L1945.05 80.8L1869.05 128.2V96.2ZM1859.05 167H1930.45V114H1959.65V167H2031.05V196H1859.05V167ZM2164.85 195H2135.45L2108.25 72L2081.05 195H2051.85L2094.85 7.79999H2121.65L2164.85 195ZM2210.65 6.79999V66.8H2231.05V94H2210.65V196H2183.05V6.79999H2210.65ZM2292.84 56.2H2307.64C2329.84 56.2 2347.64 73.4 2347.64 94.6V156.6C2347.64 177.8 2329.84 195 2307.64 195H2292.84C2270.64 195 2252.84 177.8 2252.84 156.6V94.6C2252.84 73.4 2270.64 56.2 2292.84 56.2ZM2402.64 6.79999V82.6H2423.04V109.8H2402.64V196H2374.44V6.79999H2402.64ZM2314.44 -2.38419e-06V19H2353.04V44H2248.04V19H2286.44V-2.38419e-06H2314.44ZM2299.24 168.2H2301.24C2311.44 168.2 2319.84 161.6 2319.84 150.8V100.4C2319.84 89.6 2311.44 82.8 2301.24 82.8H2299.24C2289.04 82.8 2280.64 89.6 2280.64 100.4V150.8C2280.64 161.6 2289.04 168.2 2299.24 168.2ZM2435.03 169.8H2486.03V89.6H2515.23V169.8H2552.83L2563.23 35.6H2447.23V8.79999H2593.23V35.6L2582.83 169.8H2607.03V196H2435.03V169.8Z" fill="black"/>
<path d="M118.6 315.2H139.4V295H118.6V268.6H139.4V252.8H168V442H14.8V381H43V416H139.4V341.4H118.6V315.2ZM7 279.6V253.8H108V279.6H92.6V333.4H108V359.2H7V333.4H21.4V279.6H7ZM49.2 279.6V333.4H65V279.6H49.2ZM256.992 253.8C281.192 253.8 300.792 273.2 300.792 297.4V325C300.792 349.2 281.192 368.8 256.992 368.8H242.792C218.592 368.8 198.992 349.2 198.992 325V297.4C198.992 273.2 218.592 253.8 242.792 253.8H256.992ZM194.992 415H331.792V252.8H359.992V442H194.992V415ZM256.992 281.4H242.792C233.992 281.4 226.792 288.6 226.792 297.4V325C226.792 333.8 233.992 341 242.792 341H256.992C265.792 341 272.992 333.8 272.992 325V297.4C272.992 288.6 265.792 281.4 256.992 281.4ZM399.984 373.2H521.984V315.4H496.984V288.4H521.984V252.8H551.984V442H399.984V373.2ZM490.984 279.8L461.784 302.6L492.184 325.4V357.2L442.184 317.8L391.984 357V325.2L451.584 279.8H391.984V253.8H490.984V279.8ZM429.184 399.2V415.8H522.584V399.2H429.184ZM699.039 323.2C734.839 323.2 757.039 344.4 757.039 381.4C757.039 417.8 737.239 439.6 697.639 439.6C662.439 439.6 639.239 422 639.239 384.6H667.839C667.839 400.4 676.239 411.4 696.439 411.4C715.239 411.4 727.239 400.8 727.239 381.6C727.239 359.6 713.439 352.4 695.639 352.4C684.839 352.4 677.039 355.2 672.439 360.2H643.239V267H748.839V296.8H674.839V328C679.839 324.6 690.039 323.2 699.039 323.2ZM820.084 265H845.484C871.084 265 892.084 285.8 892.084 311.6V389.6C892.084 415.4 871.084 436.2 845.484 436.2H820.084C794.484 436.2 773.684 415.4 773.684 389.6V311.6C773.684 285.8 794.484 265 820.084 265ZM863.084 384.4V316.8C863.084 305 853.684 295.4 842.084 295.4H823.484C811.884 295.4 802.484 305 802.484 316.8V384.4C802.484 396.2 811.884 405.8 823.484 405.8H842.084C853.684 405.8 863.084 396.2 863.084 384.4ZM957.389 265H982.789C1008.39 265 1029.39 285.8 1029.39 311.6V389.6C1029.39 415.4 1008.39 436.2 982.789 436.2H957.389C931.789 436.2 910.989 415.4 910.989 389.6V311.6C910.989 285.8 931.789 265 957.389 265ZM1000.39 384.4V316.8C1000.39 305 990.989 295.4 979.389 295.4H960.789C949.189 295.4 939.789 305 939.789 316.8V384.4C939.789 396.2 949.189 405.8 960.789 405.8H979.389C990.989 405.8 1000.39 396.2 1000.39 384.4ZM1094.69 265H1120.09C1145.69 265 1166.69 285.8 1166.69 311.6V389.6C1166.69 415.4 1145.69 436.2 1120.09 436.2H1094.69C1069.09 436.2 1048.29 415.4 1048.29 389.6V311.6C1048.29 285.8 1069.09 265 1094.69 265ZM1137.69 384.4V316.8C1137.69 305 1128.29 295.4 1116.69 295.4H1098.09C1086.49 295.4 1077.09 305 1077.09 316.8V384.4C1077.09 396.2 1086.49 405.8 1098.09 405.8H1116.69C1128.29 405.8 1137.69 396.2 1137.69 384.4ZM1238.6 398.6V371.2H1186.4V345.2H1323.4V315.2H1297.6V288.2H1323.4V252.8H1351.4V442H1195.4V396.4H1223.4V415.4H1323.4V371.2H1265.4V398.6H1238.6ZM1238.6 252.8H1240C1264 252.8 1285.4 269 1285.4 288.8V302.2C1285.4 322 1263.8 338.2 1239.6 338.2C1215.2 338.2 1195 322 1195 302.2V289.6C1195 266.6 1219.2 252.8 1238.6 252.8ZM1259.2 298.4V294.2C1259.2 285 1250.8 277.4 1240.4 277.4C1230 277.4 1221.4 285 1221.4 294.2V298.4C1221.4 307.8 1230 315.2 1240.4 315.2C1250.8 315.2 1259.2 307.8 1259.2 298.4ZM1455.85 328.2V303.8H1570.05L1574.45 280.2H1455.85V253.8H1602.05V280.2L1588.05 357.6H1614.45V382.6H1542.25V442H1514.65V382.6H1442.45V357.6H1560.45L1565.65 328.2H1455.85ZM1798.45 316.2V342H1737.45V358H1806.45V382.8H1676.45V414.8H1796.85V442H1648.05V382.8H1634.45V358H1705.45V342H1642.25V316.2H1669.25V279.8H1642.25V253.8H1798.45V279.8H1773.25V316.2H1798.45ZM1699.45 279.8V316.2H1743.05V279.8H1699.45ZM1934.5 416.6H2050.1V442H1903.9V366H2021.9V252.8H2050.1V292.6H2070.5V319.2H2050.1V391.4H1934.5V416.6ZM1993.3 348.4H1895.5V253.8H1923.5V277.6H1965.1V253.8H1993.3V348.4ZM1923.5 303.4V322.6H1965.1V303.4H1923.5ZM2176.09 281.4L2154.49 340.8L2187.69 441.4H2156.69L2138.69 384.2L2117.89 441.4H2086.09L2143.49 281.4H2087.49V253.8H2176.09V281.4ZM2242.09 442H2215.49V252.8H2242.09V317.4H2262.49V343.8H2242.09V442ZM2317.08 255V393.2H2287.68V255H2317.08ZM2317.08 407V436.2H2287.68V407H2317.08Z" fill="#6734E6"/>
</svg>
