<svg width="20" height="21" viewBox="0 0 20 21" fill="none" xmlns="http://www.w3.org/2000/svg">
<g clip-path="url(#clip0_2410_4130)">
<path d="M14.4113 4.72031C13.1553 3.46432 11.4221 2.68555 9.51614 2.68555C7.6102 2.68555 5.87699 3.46432 4.62099 4.72031C3.365 5.97631 2.58623 7.70952 2.58623 9.61546C2.58623 10.9417 2.9639 12.1831 3.61679 13.2371C3.56994 13.3103 3.53188 13.3893 3.5026 13.4713L2.65356 15.8837C2.49254 16.3492 2.62429 16.8674 2.99318 17.2041C3.36207 17.535 3.88906 17.6081 4.33993 17.3915L7.05393 16.0887C7.82099 16.3844 8.64954 16.5454 9.51614 16.5454C11.4221 16.5454 13.1553 15.7666 14.4113 14.5106C15.6673 13.2546 16.4461 11.5214 16.4461 9.61546C16.4461 7.70952 15.6673 5.97631 14.4113 4.72031Z" stroke="#6DFBFB" stroke-width="1.30121" stroke-miterlimit="10"/>
<path d="M6.8226 10.6921C7.35134 10.6921 7.77996 10.2634 7.77996 9.73471C7.77996 9.20597 7.35134 8.77734 6.8226 8.77734C6.29386 8.77734 5.86523 9.20597 5.86523 9.73471C5.86523 10.2634 6.29386 10.6921 6.8226 10.6921Z" fill="#6DFBFB"/>
<path d="M9.47885 10.6921C10.0076 10.6921 10.4362 10.2634 10.4362 9.73471C10.4362 9.20597 10.0076 8.77734 9.47885 8.77734C8.95011 8.77734 8.52148 9.20597 8.52148 9.73471C8.52148 10.2634 8.95011 10.6921 9.47885 10.6921Z" fill="#6DFBFB"/>
<path d="M12.2054 10.6921C12.7341 10.6921 13.1628 10.2634 13.1628 9.73471C13.1628 9.20597 12.7341 8.77734 12.2054 8.77734C11.6767 8.77734 11.248 9.20597 11.248 9.73471C11.248 10.2634 11.6767 10.6921 12.2054 10.6921Z" fill="#6DFBFB"/>
</g>
<defs>
<clipPath id="clip0_2410_4130">
<rect width="15.0309" height="16" fill="white" transform="translate(2 2.09961)"/>
</clipPath>
</defs>
</svg>