<svg width="16" height="16" viewBox="0 0 16 16" fill="none" xmlns="http://www.w3.org/2000/svg">
<path d="M9.9987 1.33317H3.9987C3.44536 1.33317 2.97203 1.6665 2.77203 2.1465L0.758698 6.8465C0.698698 6.99984 0.665365 7.15984 0.665365 7.33317V8.6665C0.665365 9.39984 1.26537 9.99984 1.9987 9.99984H6.20537L5.57203 13.0465L5.55203 13.2598C5.55203 13.5332 5.66537 13.7865 5.84537 13.9665L6.55203 14.6665L10.9454 10.2732C11.1854 10.0332 11.332 9.69984 11.332 9.33317V2.6665C11.332 1.93317 10.732 1.33317 9.9987 1.33317ZM9.9987 9.33317L7.10536 12.2265L7.9987 8.6665H1.9987V7.33317L3.9987 2.6665H9.9987V9.33317ZM15.332 9.33317H12.6654V1.33317H15.332V9.33317Z" fill="#ABABAB"/>
</svg>
