<svg width="14" height="14" viewBox="0 0 14 14" fill="none" xmlns="http://www.w3.org/2000/svg">
<path d="M7.48253 10.401L11.5032 3.65103C11.5727 3.53859 11.6107 3.40874 11.6132 3.27565C11.6156 3.14257 11.5823 3.01135 11.5169 2.89634C11.4544 2.77963 11.3624 2.68233 11.2505 2.61469C11.1386 2.54705 11.011 2.51156 10.8811 2.51197L2.83068 2.51197C2.70078 2.51156 2.57317 2.54705 2.46128 2.61469C2.34939 2.68233 2.25737 2.77963 2.19488 2.89634C2.12949 3.01135 2.09619 3.14257 2.09861 3.27565C2.10103 3.40874 2.13908 3.53859 2.2086 3.65103L6.22923 10.401C6.29436 10.5117 6.38627 10.6032 6.49607 10.6667C6.60586 10.7302 6.7298 10.7636 6.85588 10.7636C6.98196 10.7636 7.10591 10.7302 7.2157 10.6667C7.32549 10.6032 7.4174 10.5117 7.48253 10.401Z" fill="#00D2E3"/>
</svg>
