<svg width="18" height="17" viewBox="0 0 18 17" fill="none" xmlns="http://www.w3.org/2000/svg">
<path d="M9.7751 13.6538C9.29842 13.3661 8.70158 13.3661 8.2249 13.6538L4.59063 15.8473C4.21197 16.0758 3.74486 15.7364 3.84534 15.3056L4.8098 11.1714C4.9363 10.6292 4.75203 10.0615 4.33118 9.69688L1.11878 6.91397C0.78448 6.62437 0.963185 6.07524 1.4039 6.03785L5.6314 5.67919C6.18577 5.63216 6.66857 5.28215 6.88568 4.7699L8.53964 0.867484C8.71193 0.460971 9.28807 0.46097 9.46036 0.867486L11.1143 4.7699C11.3314 5.28215 11.8142 5.63216 12.3686 5.67919L16.5961 6.03785C17.0368 6.07524 17.2155 6.62437 16.8812 6.91397L13.6688 9.69688C13.248 10.0615 13.0637 10.6292 13.1902 11.1714L14.1547 15.3056C14.2551 15.7364 13.788 16.0758 13.4094 15.8473L9.7751 13.6538Z" stroke="#ABABAB"/>
</svg>
