<svg width="32" height="42" viewBox="0 0 32 42" fill="none" xmlns="http://www.w3.org/2000/svg">
<path d="M9.33333 15.4838V12.043H28V15.4838H9.33333ZM9.33333 22.3655V18.9247H28V22.3655H9.33333ZM9.33333 29.2473V25.8064H28V29.2473H9.33333ZM5.33333 15.4838C4.95556 15.4838 4.63889 15.319 4.38333 14.9892C4.12778 14.6595 4 14.2509 4 13.7634C4 13.2759 4.12778 12.8673 4.38333 12.5376C4.63889 12.2078 4.95556 12.043 5.33333 12.043C5.71111 12.043 6.02778 12.2078 6.28333 12.5376C6.53889 12.8673 6.66667 13.2759 6.66667 13.7634C6.66667 14.2509 6.53889 14.6595 6.28333 14.9892C6.02778 15.319 5.71111 15.4838 5.33333 15.4838ZM5.33333 22.3655C4.95556 22.3655 4.63889 22.2007 4.38333 21.8709C4.12778 21.5412 4 21.1326 4 20.6451C4 20.1577 4.12778 19.7491 4.38333 19.4193C4.63889 19.0896 4.95556 18.9247 5.33333 18.9247C5.71111 18.9247 6.02778 19.0896 6.28333 19.4193C6.53889 19.7491 6.66667 20.1577 6.66667 20.6451C6.66667 21.1326 6.53889 21.5412 6.28333 21.8709C6.02778 22.2007 5.71111 22.3655 5.33333 22.3655ZM5.33333 29.2473C4.95556 29.2473 4.63889 29.0824 4.38333 28.7526C4.12778 28.4229 4 28.0143 4 27.5268C4 27.0394 4.12778 26.6308 4.38333 26.301C4.63889 25.9713 4.95556 25.8064 5.33333 25.8064C5.71111 25.8064 6.02778 25.9713 6.28333 26.301C6.53889 26.6308 6.66667 27.0394 6.66667 27.5268C6.66667 28.0143 6.53889 28.4229 6.28333 28.7526C6.02778 29.0824 5.71111 29.2473 5.33333 29.2473Z" fill="white"/>
</svg>
