<svg width="16" height="16" viewBox="0 0 16 16" fill="none" xmlns="http://www.w3.org/2000/svg">
<path d="M6.0013 14.6668H12.0013C12.5546 14.6668 13.028 14.3335 13.228 13.8535L15.2413 9.1535C15.3013 9.00016 15.3346 8.84016 15.3346 8.66683V7.3335C15.3346 6.60016 14.7346 6.00016 14.0013 6.00016H9.79463L10.428 2.9535L10.448 2.74016C10.448 2.46683 10.3346 2.2135 10.1546 2.0335L9.44797 1.3335L5.05464 5.72683C4.81464 5.96683 4.66797 6.30016 4.66797 6.66683V13.3335C4.66797 14.0668 5.26797 14.6668 6.0013 14.6668ZM6.0013 6.66683L8.89464 3.7735L8.0013 7.3335H14.0013V8.66683L12.0013 13.3335H6.0013V6.66683ZM0.667969 6.66683H3.33464V14.6668H0.667969V6.66683Z" fill="#ABABAB"/>
</svg>
