<svg width="91" height="186" viewBox="0 0 91 186" fill="none" xmlns="http://www.w3.org/2000/svg">
<g filter="url(#filter0_d_1221_3220)">
<path d="M47.768 97.2128C48.9609 96.4588 50.0183 95.8978 50.9447 95.1833C52.4313 94.0305 52.2732 93.1143 50.5877 92.2289C49.345 91.5758 48.0934 90.9315 46.914 90.1819C44.0943 88.3891 42.7342 85.654 41.7627 82.4454C42.7477 83.6815 43.5385 84.808 44.4694 85.8205C45.3595 86.7892 46.313 87.7316 47.3749 88.5163C49.9957 90.4624 52.9103 90.0241 54.9211 87.4906C56.4258 85.597 57.9306 81.6695 58.152 78.9562C56.7422 78.5486 55.3142 78.0489 53.8502 77.7333C48.9474 76.6769 44.0582 75.5241 39.1102 74.7263C35.1744 74.0908 31.1573 73.9549 27.1808 73.5341C22.7118 73.0651 18.2564 72.5215 13.7783 72.0087C15.143 71.075 14.5284 69.5102 15.2921 68.0856C19.246 68.3223 23.3941 68.5722 27.6462 68.8264C27.9219 67.2484 28.2065 65.6397 28.5138 63.8776C27.235 63.7593 26.0602 63.6497 24.7723 63.5314C24.5916 64.4475 24.4244 65.3066 24.2346 66.2665C21.3878 66.0474 18.5817 65.8326 15.7214 65.6178C15.875 64.5483 16.0241 63.5138 16.1732 62.4794C16.0738 62.4311 15.9699 62.3873 15.8705 62.3391C16.3224 62.2777 16.7787 62.1462 17.2306 62.1725C20.7642 62.3654 24.2979 62.567 27.827 62.8125C28.5183 62.8607 28.7623 62.6635 28.8482 62.0147C29.047 60.5639 29.3227 59.1217 29.5893 57.5525C28.2969 57.4561 27.1175 57.3684 25.8749 57.2764C25.6761 58.2407 25.4863 59.1305 25.301 60.0291C22.4723 59.845 19.734 59.6653 16.955 59.4856C17.1312 58.4029 17.2939 57.4342 17.4294 56.4611C17.434 56.4172 17.208 56.3383 16.9369 56.1981C17.4068 56.1236 17.7367 56.014 18.0575 56.0271C21.5595 56.1674 25.0615 56.2989 28.559 56.4961C29.4447 56.5444 29.9056 56.4567 29.9824 55.4354C30.0818 54.116 30.4162 52.8142 30.6692 51.3677C29.3633 51.2668 28.1885 51.1748 26.9097 51.074C26.7786 51.8016 26.7154 52.481 26.5165 53.1254C26.4352 53.3884 26.0602 53.7697 25.8342 53.7609C23.3263 53.6601 20.823 53.4936 18.3332 53.3445C17.9355 52.2662 19.3183 51.0608 17.9898 49.8423C22.2509 49.9738 26.494 50.1009 30.8545 50.2368C31.1527 48.536 31.4555 46.8002 31.7808 44.9505C30.5969 44.8672 29.5124 44.7576 28.428 44.7401C28.2472 44.7401 27.958 45.0951 27.8993 45.3274C27.723 46.02 27.6372 46.7345 27.4971 47.5498C24.8085 47.4402 22.1741 47.335 19.5577 47.2298C19.2685 46.1077 20.5202 44.9023 19.4041 43.7538C23.4664 43.3506 27.6688 43.7495 31.9435 43.881C32.2463 42.1758 32.54 40.5321 32.8563 38.7481C31.6136 38.656 30.4388 38.564 29.1058 38.4632C28.925 39.4012 28.7443 40.3261 28.5816 41.1808H20.7236C20.9269 40.0412 21.1031 39.0768 21.2839 38.0818C20.7326 37.9591 20.2627 37.8583 19.7972 37.7531C24.1759 37.1131 28.5319 37.398 33.0054 37.7443C33.3262 35.934 33.6425 34.1588 33.986 32.2345C32.7117 32.1687 31.5233 32.103 30.2264 32.0372C30.0185 33.0761 29.8242 34.0667 29.6435 34.996H21.9707C22.1921 33.8344 22.3819 32.835 22.5898 31.7436C21.9888 31.6734 21.4692 31.6164 20.945 31.5551C25.292 30.7617 29.6435 31.0159 34.1351 31.2482C34.4243 29.6045 34.7044 28.0002 35.0117 26.2688C33.7329 26.203 32.5445 26.1417 31.2521 26.0715C31.0669 27.0183 30.8952 27.9125 30.7235 28.8111H23.2676C23.4393 27.803 23.5929 26.9175 23.7692 25.8962C22.5898 25.9883 21.5189 26.0759 20.4434 26.1592C20.5654 21.4822 23.4258 15.9768 27.1492 14.1796C23.7421 17.0551 21.9798 20.7239 21.4149 25.1116C22.8067 25.0239 24.0945 24.9275 25.3914 24.8705C32.54 24.5505 39.5982 25.1598 46.5751 26.729C50.0861 27.5224 53.6604 28.0747 57.1353 28.9952C59.955 29.7448 62.6662 30.88 65.4271 31.8444C65.6169 31.9101 65.8067 31.9759 66.1049 32.0855C66.968 28.3728 67.569 24.739 66.5749 21.0395C66.0552 19.1021 64.7403 17.6819 63.0322 16.7044C60.8451 15.4552 56.4349 16.5641 54.894 18.5585C54.0897 19.5974 53.2673 20.6319 52.3545 21.583C51.5682 22.4027 50.4973 22.6832 49.3405 22.5737C47.9985 22.4465 47.4607 21.6444 47.9533 20.4171C49.083 17.5898 51.2067 15.6524 53.9315 14.2673C54.4557 13.9999 54.9708 13.715 55.5402 13.4125C51.8665 11.5672 48.3057 13.0662 46.6609 15.8102C45.8792 17.112 45.233 18.4928 44.492 19.8209C44.1892 20.3601 43.8367 20.8817 43.4391 21.3595C42.9375 21.96 42.2778 22.3545 41.4915 21.903C40.7369 21.4691 40.3935 20.8554 40.6556 19.9086C41.4373 17.0814 43.3442 14.3681 46.3763 11.9704C43.9271 11.3305 42.6754 11.5759 41.121 13.338C40.1404 14.447 39.5937 15.9286 38.8933 17.2655C38.3194 18.3525 37.8404 19.4922 37.2349 20.5617C37.0496 20.8905 36.6158 21.1315 36.2408 21.2981C35.441 21.6575 34.9484 21.2806 35.0072 20.4083C35.0117 20.3382 35.0072 20.268 35.0343 20.2067C36.2544 17.0989 37.366 13.921 40.3302 11.874C39.1011 11.5058 37.4834 11.874 36.5029 12.6016C34.3655 14.1928 33.4031 16.4633 32.5174 18.7996C32.296 19.3782 32.1288 20.0007 31.7808 20.5004C31.5504 20.8335 31.0352 20.9781 30.6512 21.2104C30.4614 20.8247 30.0502 20.3952 30.118 20.0533C30.6783 17.2129 31.6317 14.5478 34.0492 12.6235C34.1848 12.5183 34.3113 12.4088 34.4378 12.2948C34.4559 12.2773 34.4378 12.229 34.4378 11.9134C33.629 12.2641 32.8382 12.4526 32.2417 12.8953C30.136 14.4514 28.69 16.5028 27.7818 18.9136C27.6146 19.3651 27.47 19.8648 27.1582 20.2111C26.8464 20.5573 26.3358 20.7414 25.9156 20.9957C25.7167 20.5267 25.4411 20.0708 25.3372 19.5799C25.2739 19.273 25.423 18.8961 25.5631 18.5892C26.7334 16.0294 28.6087 13.9736 31.0533 12.6104C32.296 11.9178 33.9769 11.9266 35.4726 11.7162C42.5399 10.7299 49.5981 10.5809 56.5479 12.4394C63.7597 14.3681 69.9097 17.9624 74.6543 23.6783C78.1472 27.8862 79.4712 32.5238 78.7618 37.9722C76.8549 52.5555 73.9991 66.9766 71.3376 81.4372C70.5423 85.7548 68.6489 89.2527 65.3051 92.093C63.3033 93.7938 60.8723 94.6748 58.3553 95.2534C55.1606 95.9898 51.9162 96.5421 48.6898 97.1645C48.4549 97.2084 48.2063 97.1908 47.768 97.2128ZM63.9902 44.5034C64.067 44.1615 64.1212 43.9686 64.1619 43.767C64.3968 42.5864 63.9374 41.7507 62.7837 41.2597C62.1375 40.988 61.4823 40.7293 60.8225 40.4883C54.1981 38.0731 47.289 36.8545 40.2986 35.9998C38.7306 35.8069 37.1581 35.6842 35.5404 35.5264C35.441 36.0173 35.3506 36.3811 35.2919 36.7493C35.2286 37.1482 35.1879 37.5514 35.1202 38.1169C44.9257 39.4187 54.6952 40.7074 63.9902 44.5034ZM58.9428 75.1252C58.9925 74.8535 59.0286 74.4414 59.1461 74.0513C59.4308 73.1045 59.11 72.7232 58.0978 72.412C51.8484 70.4964 45.459 69.1771 39.0017 68.1514C36.0781 67.6867 33.141 67.3185 30.1089 66.8934C29.9643 67.7174 29.8333 68.4363 29.7293 69.0237C39.5078 71.0663 49.1598 73.087 58.9382 75.1296L58.9428 75.1252ZM32.9602 50.3902C42.8065 52.0032 52.5443 53.5856 61.889 56.8249C62.752 54.4535 62.7294 54.3921 60.4791 53.5812C53.6514 51.1134 46.5525 49.759 39.3632 48.7815C37.3795 48.5097 35.3868 48.3125 33.4031 48.0802C33.3127 48.3914 33.2494 48.5536 33.2223 48.7201C33.1319 49.2593 33.0551 49.794 32.9602 50.3946V50.3902ZM30.7822 62.944C40.6782 64.5001 50.3482 66.4287 59.9369 69.2034C60.0815 68.3179 60.2125 67.5202 60.3571 66.6567C50.8633 63.3823 41.1029 61.7868 31.1798 60.6384C31.0307 61.4887 30.9132 62.1901 30.7822 62.944ZM60.8632 62.9966C61.6992 60.6296 61.663 60.5463 59.4263 59.7792C59.3269 59.7442 59.2274 59.7135 59.1235 59.6784C52.0111 57.3027 44.6637 55.9307 37.2304 54.9444C35.5991 54.7297 33.9634 54.5499 32.2689 54.3483C32.183 54.8392 32.1152 55.2074 32.0565 55.5756C31.9977 55.9307 31.9525 56.2857 31.9074 56.5926C41.7401 58.2407 51.4056 60.0203 60.8632 62.9922V62.9966ZM36.2453 31.3403C46.0283 33.3303 55.8791 34.3166 65.0249 38.3054C65.1515 37.6917 65.2328 37.2227 65.3503 36.7625C65.5356 36.0524 65.3277 35.6272 64.5776 35.3598C63.4524 34.9609 62.3815 34.4174 61.2563 34.0097C54.659 31.6033 47.7771 30.4286 40.8137 29.6264C39.4265 29.4686 38.0302 29.4029 36.5933 29.2889C36.4577 30.0691 36.3538 30.7003 36.2453 31.3359V31.3403ZM34.0718 43.9467C43.9 45.7088 53.6288 47.2342 62.9509 50.6356C63.0412 50.3069 63.1452 50.0527 63.1768 49.7853C63.4163 47.7821 63.8094 48.2818 61.8844 47.5235C55.2871 44.9154 48.36 43.5654 41.3424 42.5923C39.074 42.2767 36.7966 42.0487 34.4424 41.7726C34.3023 42.5879 34.1848 43.2848 34.0718 43.9467ZM27.0272 72.5347C27.1718 71.6142 27.2938 70.8208 27.4293 69.9354C26.137 69.7995 24.9621 69.6724 23.7014 69.5365C23.5568 70.4526 23.4258 71.2723 23.2812 72.1665C24.5916 72.2936 25.7393 72.4076 27.0226 72.5347H27.0272Z" fill="white"/>
</g>
<g filter="url(#filter1_d_1221_3220)">
<path d="M39.6343 115.385C41.3379 119.978 45.8656 121.228 51.7535 118.598C52.2777 120.706 52.7657 122.806 53.317 124.883C55.7616 134.106 56.6698 143.526 57.1985 152.998C57.3702 156.119 57.5465 159.24 57.804 162.352C57.917 163.698 57.3973 164.675 56.2496 165.254C53.8411 166.472 51.4417 167.739 48.9248 168.708C45.7436 169.931 42.4495 170.869 38.9927 172C38.8571 170.606 38.699 169.4 38.6538 168.186C38.6447 167.949 39.0469 167.66 39.309 167.454C41.722 165.543 44.1485 163.658 46.557 161.738C47.1851 161.239 47.899 160.752 48.3012 160.099C48.848 159.218 49.4761 158.188 49.4715 157.224C49.4489 146.787 49.3089 136.346 49.2004 125.909C49.2004 125.602 49.1869 125.287 49.1372 124.984C48.7711 122.797 48.3373 122.547 46.4892 122.293C42.4992 121.741 38.5227 121.079 34.5417 120.461C34.4469 120.447 34.361 120.386 34.2887 120.202C36.0284 120.373 37.7726 120.548 39.6343 120.732V115.385Z" fill="white"/>
</g>
<g filter="url(#filter2_d_1221_3220)">
<path d="M29.3543 93.9604C26.5888 92.8295 23.8189 91.8652 21.2025 90.6028C14.7544 87.4862 11.6862 80.885 12.0883 74.2881C12.0928 74.2048 12.1425 74.1215 12.2148 73.9023C12.6712 76.8435 12.7797 79.7322 14.2934 82.2569C14.438 82.2438 14.5872 82.235 14.7318 82.2219C14.7318 81.7529 14.7092 81.2838 14.7363 80.8192C14.8086 79.6357 14.8041 78.4303 15.039 77.2775C15.1249 76.8435 15.7846 76.5148 16.1777 76.1422C16.4172 76.6244 16.8284 77.0978 16.8601 77.5975C16.9776 79.342 16.8872 81.0954 17.0227 82.8399C17.1402 84.3303 17.6373 85.7417 18.7037 86.8726C18.9432 87.1268 19.3905 87.1882 19.7475 87.3372C19.7656 86.9602 19.9147 86.5263 19.7792 86.2151C18.8573 84.076 18.663 81.8274 18.645 79.5524C18.6404 78.9519 18.7263 78.255 19.0471 77.7772C19.3408 77.3432 20.0006 76.94 20.5157 76.9224C20.841 76.9093 21.424 77.5975 21.4872 78.027C21.6409 79.1053 21.6092 80.2143 21.5731 81.3058C21.5098 83.3572 21.686 85.3603 22.7208 87.2013C23.3218 88.2752 24.1352 89.1344 25.7077 89.6779C25.4366 88.8144 25.3055 88.17 25.0389 87.5827C23.9409 85.1675 23.4935 82.669 23.9318 80.0478C24.0087 79.5787 24.0764 79.0659 24.3159 78.6714C24.5599 78.2681 25.0434 77.6764 25.3598 77.7114C25.8613 77.764 26.4849 78.1761 26.7289 78.61C27.0091 79.1097 26.9774 79.7979 27.0046 80.4072C27.122 82.8881 27.4022 85.334 28.4415 87.6397C29.2594 89.45 30.4388 90.9534 32.2689 91.9046C32.6168 92.0843 33.0144 92.1676 33.3895 92.2947C33.4708 92.2071 33.5522 92.1238 33.6335 92.0361C33.2584 91.5057 32.9421 90.9228 32.4993 90.4494C30.2671 88.0692 29.3633 85.1894 29.1735 82.0685C29.1238 81.2751 29.3181 80.4247 29.6073 79.6708C30.0276 78.5618 31.0624 78.049 32.0294 78.2769C33.2449 78.5618 33.8007 79.3026 33.6471 80.6746C33.4347 82.5156 33.6109 84.2908 34.1938 86.0573C35.2693 89.3053 37.7455 91.2603 40.7008 92.7725C40.9448 92.8996 41.3469 92.7375 41.6768 92.7112C41.5729 92.3473 41.5864 91.8783 41.3514 91.6372C39.6931 89.9234 38.1386 88.1174 37.2665 85.9126C36.7333 84.5626 36.4712 83.0854 36.2905 81.6389C36.1775 80.7359 36.539 79.8417 37.6235 79.5481C38.5137 79.3114 39.544 79.8374 40.0229 80.8499C40.3573 81.56 40.5336 82.3402 40.7776 83.0942C42.0157 86.912 44.1259 90.0417 47.9894 91.817C48.3374 91.9748 48.6763 92.1852 48.9655 92.4306C49.8692 93.1889 49.8828 94.1357 48.8706 94.7362C46.9772 95.8584 44.9348 96.6605 42.6438 96.2923C38.7758 95.6743 34.9213 94.9992 30.9132 94.3242C30.7144 95.6392 30.4523 97.0419 30.2987 98.4577C29.8694 102.416 29.3904 106.37 29.1284 110.336C28.9883 112.462 29.5802 114.452 31.7853 115.561C31.9028 115.623 32.0339 115.662 32.3773 115.798C31.3877 111.441 31.3109 107.246 32.7252 103.029C35.2015 103.604 37.7455 103.95 40.1133 104.927C37.8043 104.485 35.4952 104.042 33.15 103.595C31.6724 108.167 32.3773 112.598 33.5522 117.039C31.0127 116.784 28.8572 115.162 28.446 112.813C28.08 110.74 27.9625 108.574 28.1071 106.475C28.3918 102.267 28.925 98.0719 29.3452 93.956L29.3543 93.9604Z" fill="white"/>
</g>
<g filter="url(#filter3_d_1221_3220)">
<path d="M45.748 99.8505C41.9975 98.9124 38.4141 98.0139 34.8263 97.1197C34.8353 97.0583 34.8489 97.0013 34.8579 96.9399C36.8552 97.2424 38.857 97.5405 40.8542 97.8517C42.7024 98.141 44.5505 98.6626 46.4032 98.6845C48.5315 98.7108 50.6734 98.3426 52.7972 98.0577C54.8532 97.7815 56.8911 97.3958 59.0601 97.0408C57.7361 100.911 56.4618 104.615 55.2056 108.323C54.2658 111.098 53.2897 113.855 51.5093 116.257C49.7877 118.576 47.9305 118.909 45.1877 117.73C43.4254 116.972 43.2085 115.245 43.0865 113.614C42.8605 110.515 43.7372 107.561 44.4466 104.589C44.8217 103.028 45.2916 101.494 45.748 99.8505Z" fill="white"/>
</g>
<g filter="url(#filter4_d_1221_3220)">
<path d="M27.5826 163.12C28.0842 150.615 28.5857 138.236 29.0828 125.858C29.1235 125.858 29.1686 125.858 29.2093 125.858V162.09C31.9702 162.809 34.799 163.546 37.7949 164.326C38.1563 153.118 37.9846 156.078 38.3461 144.948C38.3461 144.948 38.4139 159.371 38.4139 144.948C38.5359 155.775 39.1866 152.517 39.3131 163.607C40.3389 162.717 41.1929 161.981 42.0379 161.24C43.2715 160.157 44.5051 159.075 45.7342 157.987C46.6154 157.212 47.1034 156.269 47.0943 155.09C47.0266 146.131 46.9723 137.167 46.9 128.207C46.882 125.871 46.8549 125.928 44.478 125.595C40.5693 125.047 36.6697 124.416 32.7655 123.82C32.7791 123.723 32.7972 123.622 32.8107 123.526C34.4646 123.754 36.1184 124.039 37.7813 124.197C40.6642 124.477 43.5607 124.639 46.4391 124.955C46.8413 124.999 47.4061 125.551 47.5055 125.954C47.7722 127.011 47.9122 128.12 47.9393 129.211C48.1653 137.864 48.3641 146.512 48.5494 155.165C48.581 156.677 48.0026 157.988 46.8368 159.018C44.347 161.209 41.8572 163.401 39.3448 165.566C39.0872 165.79 38.6263 166.035 38.3461 165.961C34.7944 165.053 31.2563 164.089 27.5871 163.103L27.5826 163.12Z" fill="white"/>
</g>
<g filter="url(#filter5_d_1221_3220)">
<path d="M37.4469 171.694C34.0714 170.624 30.949 169.643 27.8446 168.626C27.6232 168.556 27.3611 168.214 27.3521 167.99C27.2979 166.938 27.3295 165.877 27.3295 164.694C30.5513 165.518 33.6195 166.298 36.6787 167.1C36.8685 167.148 37.126 167.385 37.1396 167.552C37.2661 168.876 37.3429 170.199 37.4469 171.694Z" fill="white"/>
</g>
<defs>
<filter id="filter0_d_1221_3220" x="1.75316" y="0.310966" width="89.2187" height="110.263" filterUnits="userSpaceOnUse" color-interpolation-filters="sRGB">
<feFlood flood-opacity="0" result="BackgroundImageFix"/>
<feColorMatrix in="SourceAlpha" type="matrix" values="0 0 0 0 0 0 0 0 0 0 0 0 0 0 0 0 0 0 127 0" result="hardAlpha"/>
<feOffset dy="1.33613"/>
<feGaussianBlur stdDeviation="6.01258"/>
<feComposite in2="hardAlpha" operator="out"/>
<feColorMatrix type="matrix" values="0 0 0 0 0.984314 0 0 0 0 0.427451 0 0 0 0 0.662745 0 0 0 1 0"/>
<feBlend mode="normal" in2="BackgroundImageFix" result="effect1_dropShadow_1221_3220"/>
<feBlend mode="normal" in="SourceGraphic" in2="effect1_dropShadow_1221_3220" result="shape"/>
</filter>
<filter id="filter1_d_1221_3220" x="22.2635" y="104.696" width="47.5808" height="80.6651" filterUnits="userSpaceOnUse" color-interpolation-filters="sRGB">
<feFlood flood-opacity="0" result="BackgroundImageFix"/>
<feColorMatrix in="SourceAlpha" type="matrix" values="0 0 0 0 0 0 0 0 0 0 0 0 0 0 0 0 0 0 127 0" result="hardAlpha"/>
<feOffset dy="1.33613"/>
<feGaussianBlur stdDeviation="6.01258"/>
<feComposite in2="hardAlpha" operator="out"/>
<feColorMatrix type="matrix" values="0 0 0 0 0.984314 0 0 0 0 0.427451 0 0 0 0 0.662745 0 0 0 1 0"/>
<feBlend mode="normal" in2="BackgroundImageFix" result="effect1_dropShadow_1221_3220"/>
<feBlend mode="normal" in="SourceGraphic" in2="effect1_dropShadow_1221_3220" result="shape"/>
</filter>
<filter id="filter2_d_1221_3220" x="0.0281811" y="63.2133" width="61.6338" height="67.1866" filterUnits="userSpaceOnUse" color-interpolation-filters="sRGB">
<feFlood flood-opacity="0" result="BackgroundImageFix"/>
<feColorMatrix in="SourceAlpha" type="matrix" values="0 0 0 0 0 0 0 0 0 0 0 0 0 0 0 0 0 0 127 0" result="hardAlpha"/>
<feOffset dy="1.33613"/>
<feGaussianBlur stdDeviation="6.01258"/>
<feComposite in2="hardAlpha" operator="out"/>
<feColorMatrix type="matrix" values="0 0 0 0 0.984314 0 0 0 0 0.427451 0 0 0 0 0.662745 0 0 0 1 0"/>
<feBlend mode="normal" in2="BackgroundImageFix" result="effect1_dropShadow_1221_3220"/>
<feBlend mode="normal" in="SourceGraphic" in2="effect1_dropShadow_1221_3220" result="shape"/>
</filter>
<filter id="filter3_d_1221_3220" x="22.8011" y="86.2509" width="48.2842" height="45.5039" filterUnits="userSpaceOnUse" color-interpolation-filters="sRGB">
<feFlood flood-opacity="0" result="BackgroundImageFix"/>
<feColorMatrix in="SourceAlpha" type="matrix" values="0 0 0 0 0 0 0 0 0 0 0 0 0 0 0 0 0 0 127 0" result="hardAlpha"/>
<feOffset dy="1.33613"/>
<feGaussianBlur stdDeviation="6.01258"/>
<feComposite in2="hardAlpha" operator="out"/>
<feColorMatrix type="matrix" values="0 0 0 0 0.984314 0 0 0 0 0.427451 0 0 0 0 0.662745 0 0 0 1 0"/>
<feBlend mode="normal" in2="BackgroundImageFix" result="effect1_dropShadow_1221_3220"/>
<feBlend mode="normal" in="SourceGraphic" in2="effect1_dropShadow_1221_3220" result="shape"/>
</filter>
<filter id="filter4_d_1221_3220" x="15.5574" y="112.837" width="45.0183" height="66.4991" filterUnits="userSpaceOnUse" color-interpolation-filters="sRGB">
<feFlood flood-opacity="0" result="BackgroundImageFix"/>
<feColorMatrix in="SourceAlpha" type="matrix" values="0 0 0 0 0 0 0 0 0 0 0 0 0 0 0 0 0 0 127 0" result="hardAlpha"/>
<feOffset dy="1.33613"/>
<feGaussianBlur stdDeviation="6.01258"/>
<feComposite in2="hardAlpha" operator="out"/>
<feColorMatrix type="matrix" values="0 0 0 0 0.984314 0 0 0 0 0.427451 0 0 0 0 0.662745 0 0 0 1 0"/>
<feBlend mode="normal" in2="BackgroundImageFix" result="effect1_dropShadow_1221_3220"/>
<feBlend mode="normal" in="SourceGraphic" in2="effect1_dropShadow_1221_3220" result="shape"/>
</filter>
<filter id="filter5_d_1221_3220" x="15.2951" y="154.005" width="34.1769" height="31.0503" filterUnits="userSpaceOnUse" color-interpolation-filters="sRGB">
<feFlood flood-opacity="0" result="BackgroundImageFix"/>
<feColorMatrix in="SourceAlpha" type="matrix" values="0 0 0 0 0 0 0 0 0 0 0 0 0 0 0 0 0 0 127 0" result="hardAlpha"/>
<feOffset dy="1.33613"/>
<feGaussianBlur stdDeviation="6.01258"/>
<feComposite in2="hardAlpha" operator="out"/>
<feColorMatrix type="matrix" values="0 0 0 0 0.984314 0 0 0 0 0.427451 0 0 0 0 0.662745 0 0 0 1 0"/>
<feBlend mode="normal" in2="BackgroundImageFix" result="effect1_dropShadow_1221_3220"/>
<feBlend mode="normal" in="SourceGraphic" in2="effect1_dropShadow_1221_3220" result="shape"/>
</filter>
</defs>
</svg>
