<svg width="46" height="24" viewBox="0 0 46 24" fill="none" xmlns="http://www.w3.org/2000/svg">
<g clip-path="url(#clip0_818_1526)">
<path d="M3.9264 14.9573L4.47869 15.2127C4.64184 14.6847 4.72342 14.1353 4.72261 13.5653V12.8198L2.78103 13.1361V13.8816C2.78347 14.5628 2.57545 15.2365 2.15858 15.9013C1.74171 16.5668 1.02218 17.2628 0 17.991L1.07032 19.3558C2.16021 18.5667 3.00129 17.7653 3.59355 16.949L2.83487 16.5907L3.92558 14.9581L3.9264 14.9573Z" fill="#FDC9F7"/>
<path d="M7.43059 16.575L4.80619 15.2126C4.65772 15.6937 4.44235 16.1574 4.15845 16.6022C4.08503 16.7175 4.0059 16.8329 3.92188 16.9482L6.37659 18.262L7.43059 16.575Z" fill="#FDC9F7"/>
<path d="M4.47894 15.2126L3.92665 14.9573L2.83594 16.5898L3.59462 16.9481C3.67865 16.8328 3.75696 16.7175 3.8312 16.6022C4.1151 16.1566 4.33046 15.6928 4.47894 15.2126Z" fill="#FDC9F7"/>
<path opacity="0.99" d="M9.8267 19.3708C9.58033 19.0422 9.24015 18.8148 8.80614 18.6896C8.37214 18.5644 7.88022 18.5463 7.33201 18.6353L4.63012 19.0751C4.08191 19.1641 3.59243 19.3428 3.16333 19.6089C2.73341 19.8757 2.39812 20.2126 2.15746 20.6204C1.91598 21.0289 1.79606 21.4811 1.79688 21.9778C1.79688 22.4663 1.91925 22.8756 2.16072 23.2051C2.4022 23.5346 2.73912 23.7619 3.16904 23.8888C3.59896 24.0148 4.08843 24.0338 4.63664 23.944L7.33854 23.5041C7.88675 23.4152 8.37786 23.2364 8.81186 22.9695C9.24504 22.7027 9.58441 22.3641 9.82996 21.9556C10.0747 21.547 10.1971 21.0981 10.1963 20.6088C10.1963 20.1121 10.0723 19.6995 9.82588 19.3708H9.8267ZM7.97567 21.524C7.77091 21.6936 7.47641 21.8098 7.09217 21.8724L4.8822 22.2323C4.5053 22.2941 4.21651 22.2727 4.01583 22.1689C3.81514 22.0651 3.71399 21.8938 3.71399 21.6533C3.71399 21.4128 3.81351 21.2085 4.0142 21.0388C4.21406 20.8699 4.50285 20.7546 4.87975 20.6937L7.08972 20.3337C7.47396 20.2711 7.76928 20.2909 7.97404 20.3939C8.1788 20.4968 8.28159 20.6681 8.28159 20.9087C8.28159 21.1492 8.17962 21.3543 7.97567 21.524Z" fill="#FDC9F7"/>
<path d="M11.5845 17.8585L11.582 16.2836L22.4859 14.5061L22.4883 16.081L11.5845 17.8585Z" fill="#FDC9F7"/>
<path d="M21.0535 18.0463C20.8153 17.7646 20.4734 17.5677 20.0272 17.4557C19.581 17.3445 19.0589 17.3371 18.4609 17.4343L15.6122 17.8988C15.0142 17.996 14.4929 18.1731 14.0467 18.4301C13.6004 18.6871 13.2594 18.9952 13.022 19.3543C12.7846 19.7134 12.6672 20.0973 12.668 20.5067C12.668 20.9152 12.7879 21.2603 13.0253 21.5429C13.2635 21.8246 13.6053 22.0214 14.0516 22.1334C14.4978 22.2446 15.0199 22.2521 15.6179 22.1549L18.4666 21.6903C19.0638 21.5931 19.5859 21.416 20.0321 21.159C20.4775 20.902 20.8193 20.594 21.0567 20.2348C21.2933 19.8757 21.4116 19.4919 21.4108 19.0825C21.4108 18.6739 21.2909 18.328 21.0535 18.0463ZM19.1584 19.8708C18.9332 20.0034 18.571 20.1105 18.0718 20.192L16.0086 20.5281C15.5094 20.6096 15.1472 20.6203 14.922 20.561C14.6968 20.5017 14.5843 20.3757 14.5834 20.1829C14.5834 19.991 14.6952 19.8279 14.9204 19.6953C15.1455 19.5627 15.5077 19.4556 16.007 19.3741L18.0701 19.038C18.5694 18.9565 18.9316 18.9457 19.1568 19.0051C19.3819 19.0644 19.4945 19.1904 19.4953 19.3831C19.4953 19.5759 19.3836 19.7381 19.1584 19.8708Z" fill="#FDC9F7"/>
<path d="M16.0775 16.4523L16.0742 14.6369L17.9897 14.3247L17.993 16.1401L16.0775 16.4523Z" fill="#FDC9F7"/>
<path d="M16.8922 11.7861L17.8019 11.9402C17.9234 11.5851 17.9846 11.2104 17.9838 10.815V10.418L16.1907 10.7104V11.1074C16.1923 11.5967 15.8994 12.0794 15.3153 12.5546C14.7304 13.0307 13.7425 13.5381 12.3516 14.0776L12.8696 15.5685C14.1137 15.1171 15.1097 14.6485 15.8586 14.1617C16.1678 13.9607 16.4411 13.7548 16.6801 13.5439L16.1833 13.4656L16.8931 11.7869L16.8922 11.7861Z" fill="#FDC9F7"/>
<path d="M22.0369 12.6008L18.1301 11.9402C18.0502 12.1741 17.9449 12.4822 17.8111 12.6988C17.6145 13.0176 17.444 13.2597 17.1055 13.5596L21.3884 14.2342L22.0369 12.6016V12.6008Z" fill="#FDC9F7"/>
<path d="M17.484 12.6156C17.6169 12.3998 17.723 12.1741 17.8029 11.9402L16.8933 11.7861L16.1836 13.4648L16.6804 13.5431C17.019 13.2441 17.2874 12.9344 17.484 12.6156Z" fill="#FDC9F7"/>
<path d="M26.4595 11.4171L26.8715 11.693C27.0216 11.1222 27.0967 10.5226 27.0958 9.8949V9.17334L25.1787 9.48552V10.2071C25.1812 10.9047 25.0237 11.6016 24.7097 12.2976C24.3956 12.9945 23.858 13.6855 23.0977 14.37L24.2781 15.5726C25.0368 14.9087 25.6397 14.2168 26.0867 13.4969L25.2571 12.936L26.4587 11.4171H26.4595Z" fill="#FDC9F7"/>
<path d="M29.1016 13.1872L27.1152 11.7754C27.0026 12.2029 26.8476 12.6156 26.6502 13.0118C26.5547 13.2029 26.4479 13.3923 26.332 13.5793L27.9375 14.7481L29.1016 13.1872Z" fill="#FDC9F7"/>
<path d="M26.8714 11.6932L26.4595 11.4172L25.2578 12.9361L26.0875 13.4971C26.2041 13.3093 26.3102 13.1206 26.4056 12.9295C26.6031 12.5333 26.7581 12.1215 26.8706 11.6932H26.8714Z" fill="#FDC9F7"/>
<path d="M33.3454 15.5382C33.099 15.2095 32.7613 14.9822 32.3313 14.8553C31.9014 14.7293 31.4079 14.7112 30.8515 14.8018L28.0639 15.2565C27.5067 15.3471 27.014 15.5258 26.5849 15.7919C26.155 16.0588 25.8181 16.3957 25.5733 16.8042C25.3286 17.2128 25.2062 17.6658 25.207 18.1625C25.207 18.6509 25.331 19.0603 25.5774 19.389C25.8238 19.7176 26.164 19.945 26.598 20.0702C27.032 20.1954 27.5231 20.2143 28.0721 20.1245L30.8596 19.6698C31.4079 19.5809 31.899 19.4021 32.333 19.1353C32.7661 18.8684 33.1055 18.5298 33.3511 18.1213C33.5958 17.7127 33.7182 17.2638 33.7174 16.7746C33.7174 16.2779 33.5934 15.8652 33.347 15.5365L33.3454 15.5382ZM31.4935 17.6922C31.2887 17.8618 30.9943 17.978 30.61 18.0406L28.3136 18.4145C27.9285 18.4771 27.634 18.4574 27.4292 18.3544C27.2245 18.2514 27.1217 18.0801 27.1217 17.8396C27.1217 17.5991 27.2237 17.394 27.4276 17.2243C27.6316 17.0546 27.9269 16.9385 28.3111 16.8759L30.6076 16.5019C30.9918 16.4393 31.2871 16.4591 31.4919 16.562C31.6966 16.665 31.7994 16.8363 31.7994 17.0769C31.7994 17.3174 31.6975 17.5225 31.4935 17.6922Z" fill="#FDC9F7"/>
<path d="M30.2806 12.0571L30.279 10.4221L30.9536 10.3125L30.9512 8.3645L29.207 8.64868L29.216 14.5397L30.9593 14.2556L30.9561 11.9476L30.2806 12.0571Z" fill="#FDC9F7"/>
<path d="M32.3799 11.7154L32.3775 10.0803L30.9531 10.3126L30.9556 11.9476L32.3799 11.7154Z" fill="#FDC9F7"/>
<path d="M30.279 12.0571L30.9545 11.9475L30.952 10.3125L30.2773 10.4221L30.279 12.0571Z" fill="#FDC9F7"/>
<path d="M31.7941 14.2399L31.7852 8.10833L33.5783 7.81592L33.5872 13.9475L31.7941 14.2399Z" fill="#FDC9F7"/>
<path d="M34.8649 14.0638L34.8633 12.4889L45.7671 10.7122L45.7696 12.2871L34.8649 14.0638Z" fill="#FDC9F7"/>
<path d="M44.3339 14.2523C44.0957 13.9706 43.7539 13.7738 43.3076 13.6617C42.8606 13.5505 42.3393 13.5431 41.7413 13.6403L38.8926 14.1049C38.2946 14.2021 37.7733 14.3792 37.3271 14.6362C36.8809 14.8932 36.5399 15.2012 36.3033 15.5604C36.0659 15.9195 35.9484 16.3033 35.9492 16.7127C35.9492 17.1213 36.0691 17.4664 36.3065 17.7489C36.5447 18.0306 36.8866 18.2275 37.3328 18.3395C37.779 18.4507 38.3011 18.4581 38.8991 18.3609L41.7479 17.8964C42.345 17.7992 42.8671 17.6221 43.3134 17.3651C43.7588 17.1081 44.1006 16.8 44.3372 16.4409C44.5738 16.0818 44.692 15.6979 44.692 15.2885C44.692 14.88 44.5721 14.5349 44.3347 14.2523H44.3339ZM42.4388 16.076C42.2137 16.2086 41.8515 16.3157 41.3522 16.3972L39.2891 16.7333C38.7898 16.8148 38.4276 16.8256 38.2024 16.7662C37.9773 16.7069 37.8647 16.5809 37.8639 16.3882C37.8639 16.1962 37.9756 16.0332 38.2008 15.9005C38.426 15.7679 38.7882 15.6608 39.2874 15.5793L41.3506 15.2432C41.8498 15.1617 42.212 15.151 42.4372 15.2103C42.6624 15.2696 42.7749 15.3956 42.7758 15.5884C42.7758 15.7811 42.664 15.9434 42.4388 16.076Z" fill="#FDC9F7"/>
<path d="M39.3579 12.6584L39.3555 10.8429L41.2709 10.5308L41.2742 12.3462L39.3579 12.6584Z" fill="#FDC9F7"/>
<path d="M41.5483 8.22778C41.4684 8.46171 41.3631 8.68741 41.2293 8.90404C41.0327 9.22281 40.7643 9.53252 40.4258 9.83152L44.6426 10.4394L45.2912 8.80684L41.5475 8.22861L41.5483 8.22778Z" fill="#FDC9F7"/>
<path d="M41.0812 8.14543C41.2028 7.79041 41.264 7.41563 41.2632 7.02026V6.99225H41.264L41.2558 0.000732422L40.148 0.172061V0.165471L29.2433 1.94218V1.96442L18.5891 3.70077V3.71477L8.14453 5.41653L8.16166 5.52443L8.14453 5.52773L8.14616 6.62159H8.14453L8.14616 6.62983L8.14943 9.14457H8.14535L8.14943 9.17175L8.15269 11.9591L8.14535 11.9608L8.15432 18.0924L10.0698 17.7802L10.0625 12.6996L10.0698 12.698L10.0673 10.4048L29.4962 7.20559L39.4684 5.58044L39.47 6.91647V7.3135C39.47 7.80277 39.1788 8.28463 38.5939 8.76073C38.009 9.23682 37.021 9.74422 35.6301 10.2837L36.1481 11.7746C37.3922 11.3232 38.3883 10.8546 39.1372 10.3678C39.4464 10.1668 39.7197 9.96085 39.9587 9.74999C40.2973 9.45098 40.5657 9.14127 40.7623 8.8225C40.8952 8.6067 41.0013 8.381 41.0812 8.14625V8.14543ZM29.2441 5.67105V5.69329L18.5899 7.42964V7.44364L10.0657 8.83321V7.88267L29.4962 4.68261L39.466 3.05746V4.00554L29.2441 5.67187V5.67105Z" fill="#FDC9F7"/>
</g>
<defs>
<clipPath id="clip0_818_1526">
<rect width="45.7674" height="24" fill="white"/>
</clipPath>
</defs>
</svg>
