<svg width="164" height="86" viewBox="0 0 164 86" fill="none" xmlns="http://www.w3.org/2000/svg">
<g clip-path="url(#clip0_273_1793)">
<path d="M14.0667 53.5976L16.0457 54.5126C16.6303 52.6206 16.9227 50.6519 16.9197 48.6094V45.9382L9.96242 47.0716V49.7428C9.97119 52.1838 9.22576 54.5982 7.73198 56.9801C6.2382 59.3649 3.6599 61.859 -0.00292969 64.4682L3.83237 69.359C7.73783 66.5314 10.7517 63.6595 12.874 60.7345L10.1554 59.4505L14.0637 53.6005L14.0667 53.5976Z" fill="white"/>
<path d="M26.6193 59.3946L17.2152 54.5127C16.6832 56.2364 15.9114 57.8981 14.8941 59.492C14.631 59.9052 14.3475 60.3184 14.0464 60.7317L22.8424 65.4394L26.6193 59.3946Z" fill="white"/>
<path d="M16.0456 54.5126L14.0666 53.5977L10.1582 59.4477L12.8768 60.7316C13.1779 60.3184 13.4585 59.9052 13.7246 59.4919C14.7419 57.8951 15.5136 56.2334 16.0456 54.5126Z" fill="white"/>
<path opacity="0.99" d="M35.2164 69.4123C34.3336 68.2346 33.1146 67.4199 31.5594 66.9713C30.0043 66.5227 28.2415 66.4577 26.2771 66.7765L16.5953 68.3526C14.6309 68.6714 12.877 69.3119 11.3393 70.2653C9.79877 71.2216 8.59732 72.4288 7.73496 73.8898C6.86968 75.3538 6.43996 76.9742 6.44289 78.754C6.44289 80.5043 6.88137 81.9712 7.74665 83.1518C8.61193 84.3325 9.81924 85.1471 11.3598 85.6016C12.9003 86.0532 14.6543 86.1211 16.6187 85.7994L26.3005 84.2233C28.2649 83.9045 30.0247 83.264 31.5799 82.3077C33.1321 81.3514 34.3482 80.1383 35.2281 78.6743C36.1051 77.2103 36.5436 75.6017 36.5406 73.8485C36.5406 72.0687 36.0963 70.5899 35.2135 69.4123H35.2164ZM28.5836 77.1277C27.8498 77.7357 26.7945 78.1519 25.4177 78.3762L17.4986 79.666C16.1481 79.8874 15.1132 79.8107 14.3941 79.4388C13.675 79.0669 13.3125 78.4529 13.3125 77.5911C13.3125 76.7292 13.6692 75.9972 14.3883 75.3892C15.1045 74.7841 16.1393 74.3709 17.4898 74.1525L25.4089 72.8626C26.7858 72.6383 27.844 72.7092 28.5777 73.0781C29.3114 73.4471 29.6798 74.061 29.6798 74.9228C29.6798 75.7847 29.3144 76.5196 28.5836 77.1277Z" fill="white"/>
<path d="M41.5044 63.9931L41.4956 58.3497L80.5677 51.9802L80.5765 57.6236L41.5044 63.9931Z" fill="white"/>
<path d="M75.4372 64.666C74.5836 63.6566 73.3588 62.9511 71.7598 62.5497C70.1608 62.1513 68.2899 62.1247 66.1472 62.473L55.9392 64.1377C53.7964 64.486 51.9285 65.1205 50.3295 66.0414C48.7304 66.9623 47.5085 68.0662 46.6579 69.3531C45.8072 70.64 45.3863 72.0154 45.3892 73.4824C45.3892 74.9463 45.8189 76.183 46.6696 77.1954C47.5231 78.2049 48.748 78.9103 50.347 79.3117C51.946 79.7102 53.8169 79.7367 55.9596 79.3884L66.1676 77.7238C68.3074 77.3755 70.1783 76.7409 71.7773 75.82C73.3734 74.8991 74.5983 73.7952 75.4489 72.5083C76.2967 71.2214 76.7205 69.846 76.7176 68.3791C76.7176 66.9151 76.2879 65.6754 75.4372 64.666ZM68.6465 71.2037C67.8397 71.6789 66.5418 72.0626 64.7528 72.3548L57.3599 73.5591C55.5708 73.8513 54.2729 73.8897 53.4661 73.6772C52.6593 73.4646 52.2559 73.013 52.253 72.3224C52.253 71.6347 52.6534 71.0503 53.4603 70.575C54.2671 70.0998 55.565 69.7161 57.354 69.4239L64.7469 68.2197C66.5359 67.9275 67.8339 67.8891 68.6407 68.1016C69.4475 68.3141 69.8509 68.7657 69.8538 69.4564C69.8538 70.1471 69.4533 70.7285 68.6465 71.2037Z" fill="white"/>
<path d="M57.6054 58.9547L57.5938 52.4495L64.4575 51.3308L64.4692 57.8361L57.6054 58.9547Z" fill="white"/>
<path d="M60.5286 42.2341L63.788 42.7861C64.2236 41.5139 64.4428 40.171 64.4399 38.7542V37.3315L58.0146 38.3794V39.802C58.0205 41.5552 56.971 43.2849 54.878 44.9879C52.782 46.6939 49.2419 48.5121 44.2578 50.4454L46.1141 55.7877C50.572 54.1703 54.1413 52.4908 56.8249 50.7464C57.9328 50.0263 58.9121 49.2884 59.7686 48.5328L57.9883 48.2524L60.5315 42.2371L60.5286 42.2341Z" fill="white"/>
<path d="M78.9567 45.1533L64.9572 42.7861C64.6708 43.6244 64.2937 44.7283 63.8143 45.5045C63.1098 46.6468 62.4988 47.5146 61.2856 48.5889L76.6327 51.0063L78.9567 45.1562V45.1533Z" fill="white"/>
<path d="M62.645 45.2064C63.1215 44.4331 63.5015 43.6243 63.788 42.7861L60.5286 42.2341L57.9854 48.2494L59.7656 48.5298C60.9788 47.4584 61.9405 46.3486 62.645 45.2064Z" fill="white"/>
<path d="M94.8128 40.9117L96.2891 41.9004C96.8269 39.855 97.0959 37.7063 97.0929 35.4572V32.8716L90.2233 33.9902V36.5758C90.2321 39.0758 89.6679 41.5728 88.5425 44.0669C87.417 46.5639 85.4906 49.0403 82.7661 51.4931L86.9961 55.8024C89.7147 53.4234 91.8749 50.9441 93.4769 48.3644L90.5039 46.3544L94.8099 40.9117H94.8128Z" fill="white"/>
<path d="M104.284 47.2548L97.1657 42.1958C96.7623 43.7277 96.2069 45.2064 95.4994 46.6261C95.1574 47.3109 94.7745 47.9897 94.3594 48.6597L100.112 52.848L104.284 47.2548Z" fill="white"/>
<path d="M96.289 41.9006L94.8128 40.9119L90.5068 46.3546L93.4798 48.3646C93.8978 47.6916 94.2778 47.0157 94.6198 46.331C95.3273 44.9112 95.8827 43.4355 96.2861 41.9006H96.289Z" fill="white"/>
<path d="M119.482 55.6785C118.599 54.5008 117.389 53.6862 115.848 53.2317C114.308 52.7801 112.539 52.7151 110.545 53.0398L100.557 54.6691C98.56 54.9937 96.7943 55.6342 95.2567 56.5876C93.7162 57.5439 92.5089 58.7511 91.6319 60.2151C90.7549 61.6791 90.3164 63.3024 90.3194 65.0822C90.3194 66.8325 90.7637 68.2994 91.6465 69.4771C92.5293 70.6548 93.7483 71.4694 95.3035 71.9181C96.8587 72.3667 98.6184 72.4346 100.586 72.1129L110.575 70.4836C112.539 70.1648 114.299 69.5243 115.854 68.568C117.406 67.6117 118.622 66.3986 119.502 64.9346C120.379 63.4707 120.818 61.8621 120.815 60.1088C120.815 58.329 120.37 56.8503 119.488 55.6726L119.482 55.6785ZM112.846 63.3969C112.112 64.0049 111.057 64.4211 109.68 64.6454L101.451 65.9854C100.071 66.2097 99.016 66.1389 98.2823 65.7699C97.5485 65.401 97.1802 64.7871 97.1802 63.9252C97.1802 63.0633 97.5456 62.3284 98.2764 61.7204C99.0072 61.1124 100.065 60.6962 101.442 60.4719L109.671 59.1319C111.048 58.9075 112.106 58.9784 112.84 59.3473C113.574 59.7163 113.942 60.3302 113.942 61.1921C113.942 62.0539 113.577 62.7889 112.846 63.3969Z" fill="white"/>
<path d="M108.502 43.2051L108.496 37.3462L110.914 36.9536L110.905 29.9731L104.655 30.9914L104.687 52.1011L110.934 51.0828L110.923 42.8125L108.502 43.2051Z" fill="white"/>
<path d="M116.027 41.9802L116.018 36.1213L110.914 36.9537L110.923 42.8126L116.027 41.9802Z" fill="white"/>
<path d="M108.502 43.205L110.922 42.8125L110.914 36.9536L108.496 37.3462L108.502 43.205Z" fill="white"/>
<path d="M113.928 51.0269L113.896 29.0554L120.321 28.0076L120.353 49.9791L113.928 51.0269Z" fill="white"/>
<path d="M124.925 50.3952L124.919 44.7518L163.991 38.3853L164 44.0287L124.925 50.3952Z" fill="white"/>
<path d="M158.861 51.071C158.007 50.0616 156.783 49.3562 155.184 48.9547C153.582 48.5563 151.714 48.5297 149.571 48.878L139.363 50.5427C137.22 50.891 135.352 51.5256 133.753 52.4465C132.154 53.3674 130.932 54.4712 130.085 55.7581C129.234 57.045 128.813 58.4204 128.816 59.8874C128.816 61.3514 129.246 62.5881 130.096 63.6005C130.95 64.6099 132.175 65.3153 133.774 65.7167C135.373 66.1152 137.244 66.1418 139.386 65.7935L149.594 64.1288C151.734 63.7805 153.605 63.1459 155.204 62.225C156.8 61.3041 158.025 60.2002 158.873 58.9134C159.72 57.6265 160.144 56.251 160.144 54.7841C160.144 53.3201 159.715 52.0834 158.864 51.071H158.861ZM152.07 57.6058C151.264 58.081 149.966 58.4647 148.177 58.7569L140.784 59.9612C138.995 60.2534 137.697 60.2917 136.89 60.0792C136.083 59.8667 135.68 59.4151 135.677 58.7245C135.677 58.0367 136.077 57.4523 136.884 56.9771C137.691 56.5019 138.989 56.1182 140.778 55.826L148.171 54.6218C149.96 54.3296 151.258 54.2912 152.065 54.5037C152.871 54.7162 153.275 55.1678 153.278 55.8585C153.278 56.5491 152.877 57.1306 152.07 57.6058Z" fill="white"/>
<path d="M141.026 45.3598L141.018 38.8545L147.881 37.7358L147.893 44.2411L141.026 45.3598Z" fill="white"/>
<path d="M148.875 29.4834C148.588 30.3216 148.211 31.1304 147.732 31.9066C147.027 33.0489 146.066 34.1587 144.853 35.2301L159.963 37.4084L162.287 31.5584L148.872 29.4864L148.875 29.4834Z" fill="white"/>
<path d="M147.212 29.1881C147.647 27.916 147.866 26.573 147.864 25.1562V25.0559H147.866L147.837 0.00292969L143.867 0.616857V0.593244L104.792 6.95979V7.03948L66.6148 13.2614V13.3116L29.1885 19.4095L29.2499 19.7962L29.1885 19.808L29.1943 23.7277H29.1885L29.1943 23.7572L29.206 32.7683H29.1914L29.206 32.8657L29.2177 42.8539L29.1914 42.8598L29.2236 64.8313L36.0873 63.7126L36.061 45.5073L36.0873 45.5014L36.0786 37.2843L105.699 25.8203L141.432 19.9969L141.438 24.7843V26.207C141.438 27.9602 140.395 29.6869 138.299 31.3929C136.203 33.0989 132.663 34.9171 127.679 36.8504L129.535 42.1927C133.993 40.5753 137.562 38.8958 140.246 37.1514C141.353 36.4312 142.333 35.6934 143.189 34.9378C144.402 33.8663 145.364 32.7565 146.069 31.6143C146.545 30.841 146.925 30.0322 147.212 29.191V29.1881ZM104.795 20.3216V20.4013L66.6177 26.6232V26.6733L36.0727 31.6527V28.2465L105.699 16.7797L141.424 10.9562V14.3535L104.795 20.3245V20.3216Z" fill="white"/>
</g>
<defs>
<clipPath id="clip0_273_1793">
<rect width="164" height="86" fill="white"/>
</clipPath>
</defs>
</svg>
