<svg width="164" height="86" viewBox="0 0 164 86" fill="none" xmlns="http://www.w3.org/2000/svg">
<g clip-path="url(#clip0_1690_3514)">
<path d="M14.0676 53.5976L16.0467 54.5126C16.6313 52.6206 16.9236 50.6519 16.9207 48.6094V45.9382L9.96339 47.0716V49.7428C9.97216 52.1838 9.22674 54.5982 7.73296 56.9801C6.23918 59.3649 3.66087 61.859 -0.00195312 64.4682L3.83335 69.359C7.7388 66.5314 10.7527 63.6595 12.8749 60.7345L10.1563 59.4505L14.0647 53.6005L14.0676 53.5976Z" fill="black"/>
<path d="M26.6198 59.3946L17.2157 54.5127C16.6836 56.2364 15.9119 57.8981 14.8946 59.492C14.6315 59.9052 14.348 60.3184 14.0469 60.7317L22.8429 65.4394L26.6198 59.3946Z" fill="black"/>
<path d="M16.0476 54.5126L14.0685 53.5977L10.1602 59.4477L12.8788 60.7316C13.1799 60.3184 13.4605 59.9052 13.7265 59.4919C14.7438 57.8951 15.5155 56.2334 16.0476 54.5126Z" fill="black"/>
<path opacity="0.99" d="M35.2169 69.4123C34.3341 68.2346 33.1151 67.4199 31.5599 66.9713C30.0047 66.5227 28.242 66.4577 26.2776 66.7765L16.5958 68.3526C14.6314 68.6714 12.8774 69.3119 11.3398 70.2653C9.79926 71.2216 8.59781 72.4288 7.73545 73.8898C6.87017 75.3538 6.44045 76.9742 6.44337 78.754C6.44337 80.5043 6.88186 81.9712 7.74714 83.1518C8.61242 84.3325 9.81972 85.1471 11.3603 85.6016C12.9008 86.0532 14.6548 86.1211 16.6192 85.7994L26.301 84.2233C28.2654 83.9045 30.0252 83.264 31.5804 82.3077C33.1326 81.3514 34.3487 80.1383 35.2286 78.6743C36.1056 77.2103 36.544 75.6017 36.5411 73.8485C36.5411 72.0687 36.0968 70.5899 35.214 69.4123H35.2169ZM28.584 77.1277C27.8503 77.7357 26.795 78.1519 25.4182 78.3762L17.4991 79.666C16.1486 79.8874 15.1137 79.8107 14.3946 79.4388C13.6755 79.0669 13.313 78.4529 13.313 77.5911C13.313 76.7292 13.6696 75.9972 14.3888 75.3892C15.105 74.7841 16.1398 74.3709 17.4903 74.1525L25.4094 72.8626C26.7862 72.6383 27.8445 72.7092 28.5782 73.0781C29.3119 73.4471 29.6803 74.061 29.6803 74.9228C29.6803 75.7847 29.3149 76.5196 28.584 77.1277Z" fill="black"/>
<path d="M41.5049 63.9931L41.4961 58.3497L80.5682 51.9802L80.577 57.6236L41.5049 63.9931Z" fill="black"/>
<path d="M75.4387 64.666C74.5851 63.6566 73.3603 62.9511 71.7612 62.5497C70.1622 62.1513 68.2914 62.1247 66.1486 62.473L55.9406 64.1377C53.7979 64.486 51.9299 65.1205 50.3309 66.0414C48.7319 66.9623 47.51 68.0662 46.6593 69.3531C45.8087 70.64 45.3877 72.0154 45.3906 73.4824C45.3906 74.9463 45.8204 76.183 46.671 77.1954C47.5246 78.2049 48.7494 78.9103 50.3485 79.3117C51.9475 79.7102 53.8184 79.7367 55.9611 79.3884L66.1691 77.7238C68.3089 77.3755 70.1798 76.7409 71.7788 75.82C73.3749 74.8991 74.5997 73.7952 75.4504 72.5083C76.2981 71.2214 76.722 69.846 76.7191 68.3791C76.7191 66.9151 76.2894 65.6754 75.4387 64.666ZM68.648 71.2037C67.8412 71.6789 66.5433 72.0626 64.7542 72.3548L57.3613 73.5591C55.5723 73.8513 54.2744 73.8897 53.4676 73.6772C52.6608 73.4646 52.2573 73.013 52.2544 72.3224C52.2544 71.6347 52.6549 71.0503 53.4617 70.575C54.2685 70.0998 55.5665 69.7161 57.3555 69.4239L64.7484 68.2197C66.5374 67.9275 67.8353 67.8891 68.6421 68.1016C69.449 68.3141 69.8524 68.7657 69.8553 69.4564C69.8553 70.1471 69.4548 70.7285 68.648 71.2037Z" fill="black"/>
<path d="M57.6074 58.9547L57.5957 52.4495L64.4595 51.3308L64.4712 57.8361L57.6074 58.9547Z" fill="black"/>
<path d="M60.5306 42.2341L63.79 42.7861C64.2255 41.5139 64.4448 40.171 64.4419 38.7542V37.3315L58.0166 38.3794V39.802C58.0224 41.5552 56.973 43.2849 54.8799 44.9879C52.784 46.6939 49.2439 48.5121 44.2598 50.4454L46.116 55.7877C50.574 54.1703 54.1433 52.4908 56.8268 50.7464C57.9347 50.0263 58.914 49.2884 59.7705 48.5328L57.9903 48.2524L60.5335 42.2371L60.5306 42.2341Z" fill="black"/>
<path d="M78.9581 45.1533L64.9587 42.7861C64.6722 43.6244 64.2951 44.7283 63.8157 45.5045C63.1112 46.6468 62.5003 47.5146 61.2871 48.5889L76.6342 51.0063L78.9581 45.1562V45.1533Z" fill="black"/>
<path d="M62.646 45.2064C63.1225 44.4331 63.5025 43.6243 63.789 42.7861L60.5296 42.2341L57.9863 48.2494L59.7666 48.5298C60.9797 47.4584 61.9415 46.3486 62.646 45.2064Z" fill="black"/>
<path d="M94.8143 40.9117L96.2905 41.9004C96.8284 39.855 97.0973 37.7063 97.0944 35.4572V32.8716L90.2248 33.9902V36.5758C90.2336 39.0758 89.6694 41.5728 88.5439 44.0669C87.4185 46.5639 85.492 49.0403 82.7676 51.4931L86.9975 55.8024C89.7161 53.4234 91.8764 50.9441 93.4784 48.3644L90.5054 46.3544L94.8114 40.9117H94.8143Z" fill="black"/>
<path d="M104.286 47.2548L97.1676 42.1958C96.7642 43.7277 96.2088 45.2064 95.5014 46.6261C95.1594 47.3109 94.7764 47.9897 94.3613 48.6597L100.114 52.848L104.286 47.2548Z" fill="black"/>
<path d="M96.29 41.9006L94.8138 40.9119L90.5078 46.3546L93.4808 48.3646C93.8988 47.6916 94.2788 47.0157 94.6208 46.331C95.3282 44.9112 95.8837 43.4355 96.2871 41.9006H96.29Z" fill="black"/>
<path d="M119.483 55.6785C118.6 54.5008 117.39 53.6862 115.849 53.2317C114.308 52.7801 112.54 52.7151 110.546 53.0398L100.558 54.6691C98.561 54.9937 96.7953 55.6342 95.2577 56.5876C93.7171 57.5439 92.5098 58.7511 91.6329 60.2151C90.7559 61.6791 90.3174 63.3024 90.3203 65.0822C90.3203 66.8325 90.7647 68.2994 91.6475 69.4771C92.5303 70.6548 93.7493 71.4694 95.3045 71.9181C96.8596 72.3667 98.6194 72.4346 100.587 72.1129L110.576 70.4836C112.54 70.1648 114.3 69.5243 115.855 68.568C117.407 67.6117 118.623 66.3986 119.503 64.9346C120.38 63.4707 120.819 61.8621 120.816 60.1088C120.816 58.329 120.371 56.8503 119.488 55.6726L119.483 55.6785ZM112.847 63.3969C112.113 64.0049 111.058 64.4211 109.681 64.6454L101.452 65.9854C100.072 66.2097 99.017 66.1389 98.2832 65.7699C97.5495 65.401 97.1812 64.7871 97.1812 63.9252C97.1812 63.0633 97.5466 62.3284 98.2774 61.7204C99.0082 61.1124 100.066 60.6962 101.443 60.4719L109.672 59.1319C111.049 58.9075 112.107 58.9784 112.841 59.3473C113.575 59.7163 113.943 60.3302 113.943 61.1921C113.943 62.0539 113.578 62.7889 112.847 63.3969Z" fill="black"/>
<path d="M108.503 43.2051L108.497 37.3462L110.915 36.9536L110.906 29.9731L104.656 30.9914L104.688 52.1011L110.935 51.0828L110.924 42.8125L108.503 43.2051Z" fill="black"/>
<path d="M116.027 41.9802L116.018 36.1213L110.914 36.9537L110.923 42.8126L116.027 41.9802Z" fill="black"/>
<path d="M108.504 43.205L110.924 42.8125L110.916 36.9536L108.498 37.3462L108.504 43.205Z" fill="black"/>
<path d="M113.929 51.0269L113.896 29.0554L120.322 28.0076L120.354 49.9791L113.929 51.0269Z" fill="black"/>
<path d="M124.926 50.3952L124.92 44.7518L163.992 38.3853L164.001 44.0287L124.926 50.3952Z" fill="black"/>
<path d="M158.862 51.071C158.008 50.0616 156.783 49.3562 155.184 48.9547C153.582 48.5563 151.714 48.5297 149.571 48.878L139.363 50.5427C137.221 50.891 135.353 51.5256 133.754 52.4465C132.155 53.3674 130.933 54.4712 130.085 55.7581C129.234 57.045 128.813 58.4204 128.816 59.8874C128.816 61.3514 129.246 62.5881 130.097 63.6005C130.95 64.6099 132.175 65.3153 133.774 65.7167C135.373 66.1152 137.244 66.1418 139.387 65.7935L149.595 64.1288C151.735 63.7805 153.606 63.1459 155.205 62.225C156.801 61.3041 158.025 60.2002 158.873 58.9134C159.721 57.6265 160.145 56.251 160.145 54.7841C160.145 53.3201 159.715 52.0834 158.864 51.071H158.862ZM152.071 57.6058C151.264 58.081 149.966 58.4647 148.177 58.7569L140.784 59.9612C138.995 60.2534 137.697 60.2917 136.89 60.0792C136.084 59.8667 135.68 59.4151 135.677 58.7245C135.677 58.0367 136.078 57.4523 136.885 56.9771C137.691 56.5019 138.989 56.1182 140.778 55.826L148.171 54.6218C149.96 54.3296 151.258 54.2912 152.065 54.5037C152.872 54.7162 153.275 55.1678 153.278 55.8585C153.278 56.5491 152.878 57.1306 152.071 57.6058Z" fill="black"/>
<path d="M141.026 45.3598L141.018 38.8545L147.881 37.7358L147.893 44.2411L141.026 45.3598Z" fill="black"/>
<path d="M148.876 29.4834C148.589 30.3216 148.212 31.1304 147.733 31.9066C147.028 33.0489 146.067 34.1587 144.854 35.2301L159.964 37.4084L162.288 31.5584L148.873 29.4864L148.876 29.4834Z" fill="black"/>
<path d="M147.213 29.1881C147.648 27.916 147.867 26.573 147.865 25.1562V25.0559H147.867L147.838 0.00292969L143.868 0.616857V0.593244L104.793 6.95979V7.03948L66.6158 13.2614V13.3116L29.1895 19.4095L29.2508 19.7962L29.1895 19.808L29.1953 23.7277H29.1895L29.1953 23.7572L29.207 32.7683H29.1924L29.207 32.8657L29.2187 42.8539L29.1924 42.8598L29.2245 64.8313L36.0883 63.7126L36.062 45.5073L36.0883 45.5014L36.0795 37.2843L105.7 25.8203L141.433 19.9969L141.439 24.7843V26.207C141.439 27.9602 140.396 29.6869 138.3 31.3929C136.204 33.0989 132.664 34.9171 127.679 36.8504L129.536 42.1927C133.994 40.5753 137.563 38.8958 140.247 37.1514C141.354 36.4312 142.334 35.6934 143.19 34.9378C144.403 33.8663 145.365 32.7565 146.07 31.6143C146.546 30.841 146.926 30.0322 147.213 29.191V29.1881ZM104.796 20.3216V20.4013L66.6187 26.6232V26.6733L36.0737 31.6527V28.2465L105.7 16.7797L141.425 10.9562V14.3535L104.796 20.3245V20.3216Z" fill="black"/>
</g>
<defs>
<clipPath id="clip0_1690_3514">
<rect width="164" height="86" fill="white"/>
</clipPath>
</defs>
</svg>
