<svg width="68" height="68" viewBox="0 0 68 68" fill="none" xmlns="http://www.w3.org/2000/svg">
<path d="M55.7806 5.66663L24.6139 9.91663C21.7806 10.2044 19.8327 12.75 19.8327 15.5833V44.7135C18.5267 44.4811 17.11 44.4811 15.5827 44.802C10.2038 46.2187 5.66602 50.9668 5.66602 55.7812C5.66602 60.5957 10.2038 63.4843 15.5827 62.0677C20.9616 60.651 25.4993 55.8144 25.4993 51V26.651L56.666 22.4895V41.7031C55.36 41.4707 53.9434 41.5703 52.416 41.9687C47.0371 43.3854 42.4994 48.1334 42.4994 52.9479C42.4994 57.7623 47.0371 60.651 52.416 59.2343C57.7949 57.8177 62.3327 52.9811 62.3327 48.1666V11.3333C62.3327 7.93551 59.1784 5.37887 55.7806 5.66663Z" fill="#7F7F7F"/>
</svg>
