<svg width="13" height="13" viewBox="0 0 13 13" fill="none" xmlns="http://www.w3.org/2000/svg">
<path d="M7.2751 10.2113C6.79842 9.9236 6.20158 9.9236 5.7249 10.2113L3.63563 11.4723C3.25698 11.7008 2.78986 11.3614 2.89034 10.9306L3.4448 8.55389C3.5713 8.01165 3.38703 7.44396 2.96618 7.07938L1.11878 5.47897C0.784483 5.18937 0.963186 4.64024 1.4039 4.60285L3.8339 4.39669C4.38827 4.34966 4.87107 3.99965 5.08818 3.4874L6.03964 1.24248C6.21194 0.835969 6.78807 0.83597 6.96036 1.24248L7.91182 3.4874C8.12893 3.99965 8.61173 4.34966 9.1661 4.39669L11.5961 4.60285C12.0368 4.64024 12.2155 5.18937 11.8812 5.47897L10.0338 7.07938C9.61297 7.44396 9.4287 8.01165 9.5552 8.55389L10.1097 10.9306C10.2101 11.3614 9.74303 11.7008 9.36437 11.4723L7.2751 10.2113Z" stroke="#5867FE"/>
</svg>
