<svg width="24" height="24" viewBox="0 0 24 24" fill="none" xmlns="http://www.w3.org/2000/svg">
<path d="M11.9293 10.6607L12 10.7314L12.0707 10.6607L14.9557 7.77571C15.306 7.4254 15.874 7.4254 16.2243 7.77571C16.5746 8.12602 16.5746 8.69398 16.2243 9.04429L13.3393 11.9293L13.2686 12L13.3393 12.0707L16.2243 14.9557C16.5746 15.306 16.5746 15.874 16.2243 16.2243C15.874 16.5746 15.306 16.5746 14.9557 16.2243L12.0707 13.3393L12 13.2686L11.9293 13.3393L9.04429 16.2243C8.69398 16.5746 8.12602 16.5746 7.77571 16.2243C7.4254 15.874 7.4254 15.306 7.77571 14.9557L10.6607 12.0707L10.7314 12L10.6607 11.9293L7.77571 9.04429C7.4254 8.69398 7.4254 8.12602 7.77571 7.77571C8.12602 7.4254 8.69398 7.4254 9.04429 7.77571L11.9293 10.6607ZM2.1 12C2.1 6.52523 6.52523 2.1 12 2.1C17.4748 2.1 21.9 6.52523 21.9 12C21.9 17.4748 17.4748 21.9 12 21.9C6.52523 21.9 2.1 17.4748 2.1 12ZM3.9 12C3.9 16.4652 7.53477 20.1 12 20.1C16.4652 20.1 20.1 16.4652 20.1 12C20.1 7.53477 16.4652 3.9 12 3.9C7.53477 3.9 3.9 7.53477 3.9 12Z" fill="#B3B3B3" stroke="#575757" stroke-width="0.2"/>
</svg>
