<svg width="344" height="447" viewBox="0 0 344 447" fill="none" xmlns="http://www.w3.org/2000/svg">
<g clip-path="url(#clip0_1619_6324)">
<path d="M329.41 278.11C327.51 264.9 317.55 253.81 308.67 244.56C289.92 224.99 266.72 209.96 241.21 200.83C240.99 200.76 240.78 200.66 240.59 200.57C238.6 200.71 236.64 200.81 234.75 200.89C218.96 201.62 203.18 200.04 187.5 198.36C179.02 197.45 178.95 184.07 187.5 184.98C211.66 187.57 238.31 190.98 261.85 183.03C265.82 181.69 270.92 179.41 271.83 174.82C272.86 169.53 268.47 164.61 265 161.29C255.65 152.34 245.13 144.39 235.22 136.05C232.63 133.87 232.52 131.09 233.76 128.85C233.68 127.25 234.21 125.58 235.61 124.1C244.56 114.55 250.71 102.85 253.52 90.07C255.4 81.56 258.1 64.69 249.78 58.42C245.07 54.87 237.24 56.5 231.89 57.46C225.53 58.6 219.35 60.52 213.08 61.98C201.69 64.65 190.6 65.27 180.02 61.2C179.07 61.11 178.06 60.74 177.04 60.02C176.92 59.94 176.8 59.84 176.69 59.76C175.66 59.26 174.65 58.73 173.64 58.14C171.96 57.15 171.02 55.8 170.63 54.34C165.51 48.77 162.02 42.02 159.2 34.75C155.93 26.34 152.36 17.11 142.94 13.83C134.87 11.01 130.78 19.82 128.93 26.16C126.31 35.15 122.76 43.6 118.94 52.15C115.57 59.67 112.75 66.88 105.58 71.61C99.1296 75.86 91.2395 76.78 83.7495 77.55C70.2795 78.9201 50.0796 80 42.2696 93.21C37.6896 100.97 40.9496 110.37 46.5096 116.7C53.3296 124.48 63.2596 128.82 72.4496 133.08C75.1395 134.32 76.0896 136.5 75.8796 138.68C77.4895 140.5 77.9596 143.11 75.9996 145.73C68.5996 155.64 61.2896 165.92 54.4696 176.25C51.9696 180.03 50.2996 184.53 50.3596 189.13C50.3996 192.25 50.6096 196.89 52.9096 199.25C55.6296 202.06 60.4196 202.07 64.0196 201.88C64.3195 201.87 64.6296 201.83 64.9296 201.82C65.7996 201.56 66.6496 201.51 67.4496 201.63C71.8596 201.25 76.2696 200.59 80.6196 199.91C92.8296 197.99 104.38 194.38 115.34 188.6C122.95 184.59 129.7 196.13 122.09 200.15C108.32 207.42 93.9695 211.56 78.5895 213.61C75.4795 214.03 72.1696 214.53 68.8096 214.86C60.4096 220.17 52.7396 226.78 45.2596 233.27C37.1096 240.33 29.0096 247.67 21.9796 255.88C15.8496 263.03 13.2096 271.82 13.2696 281.24C13.3096 286.24 14.1396 292.29 17.8896 295.99C21.6496 299.67 28.4396 299.12 33.2096 298.3C45.7196 296.16 56.8596 286.75 66.8696 279.49C66.8996 279.47 66.9396 279.45 66.9796 279.42C66.5396 273.79 66.1096 268.15 65.6796 262.52C65.0196 253.92 78.3895 253.99 79.0496 262.52C81.2896 291.67 83.6595 320.81 85.7795 349.96C86.6195 361.6 86.6995 373.26 85.1395 384.84C84.3095 391.01 83.0895 397.1 81.1395 403.02C80.1896 405.92 76.9995 410.56 77.6995 413.61C77.9296 414.63 78.6395 414.55 79.0496 414.97C79.1496 415.06 79.2696 415.15 79.3996 415.23H79.4096C79.4096 415.23 79.4495 415.24 79.4595 415.25C85.0595 416.74 90.8696 417.74 96.6196 418.33C108.67 419.57 121.17 419.42 133.09 417.1C137.42 416.26 142.41 415.21 145.13 411.39C147.83 407.61 148.19 402.32 149.24 397.92C151.56 388.23 157.99 377.88 169.26 378.13C179.75 378.36 185.16 388.58 186.38 397.74C187.83 408.54 185.52 419.32 180.21 428.79C180.4 428.96 180.65 429.3 180.97 429.83C181.55 430.33 182.16 430.76 182.83 431.15C184.32 432.04 185.83 432.52 187.54 432.76C190.72 433.2 194.04 432.84 197.24 432.64C204.7 432.15 212.14 431.42 219.38 429.47C230.92 426.37 242.28 419.59 246.51 407.97C246.39 407.11 246.43 406.16 246.7 405.14C256.08 370.26 260.51 331.67 255.82 295.66C242.54 283.55 229.5 271.26 213.14 263.09C205.44 259.24 212.22 247.7 219.89 251.54C237.14 260.16 250.94 273.01 264.94 286C265.37 286.39 265.8 286.78 266.23 287.17C266.72 287.5 267.15 287.9 267.52 288.34C273.57 293.85 279.78 299.2 286.16 304.28C289.15 306.66 291.88 308.4 295.69 307.35C297.48 306.86 299.06 306.07 300.62 305.07C301.14 304.74 301.43 304.48 301.59 304.31C300.05 298.75 305.5 293.43 311.21 296.45C315.86 298.91 321.47 300.56 325.41 296.04C329.49 291.35 330.27 284.06 329.41 278.15V278.11ZM163.65 110.28C171.6 110.28 171.59 122.63 163.65 122.63C155.71 122.63 155.7 110.28 163.65 110.28ZM123.46 114.07C131.41 114.07 131.4 126.41 123.46 126.41C115.52 126.41 115.52 114.07 123.46 114.07ZM148.8 152.97C138.96 153.81 125.8 151.86 122.52 140.99C120.79 135.27 129.73 132.84 131.45 138.53C133.11 144.03 142.39 144.04 146.99 143.82C152.66 143.55 159.8 140.91 160.4 134.33C160.93 128.44 170.19 128.4 169.66 134.33C168.65 145.42 159.43 152.05 148.8 152.96V152.97Z" fill="#FEC503"/>
<path d="M123.46 126.41C115.51 126.41 115.52 114.07 123.46 114.07C131.4 114.07 131.4 126.41 123.46 126.41Z" fill="black"/>
<path d="M163.65 122.63C155.69 122.63 155.7 110.28 163.65 110.28C171.6 110.28 171.59 122.63 163.65 122.63Z" fill="black"/>
<path d="M169.67 134.34C168.66 145.43 159.44 152.06 148.81 152.97C138.97 153.81 125.81 151.86 122.53 140.99C120.8 135.27 129.74 132.84 131.46 138.53C133.12 144.03 142.4 144.04 147 143.82C152.67 143.55 159.81 140.91 160.41 134.33C160.94 128.44 170.2 128.4 169.67 134.33V134.34Z" fill="black"/>
<path d="M185.01 185.17C185.01 185.17 185.64 185.09 186.78 184.94C186.13 184.94 185.55 185.02 185.01 185.17Z" fill="black"/>
<path d="M186.78 184.94C187.01 184.94 187.25 184.95 187.5 184.98C211.66 187.57 238.31 190.98 261.85 183.03C265.82 181.69 270.92 179.41 271.83 174.82C272.86 169.53 268.47 164.61 265 161.29C255.9 175.17 197.71 183.49 186.79 184.94H186.78Z" fill="#FDB804"/>
<path d="M271.82 174.82C270.92 179.41 265.82 181.69 261.84 183.03C238.3 190.98 211.65 187.57 187.49 184.98C187.24 184.95 187 184.94 186.77 184.94C185.63 185.09 185 185.17 185 185.17L202.65 193.01L242.18 195.24L274.75 181.88C274.75 181.88 275.03 145.97 264.98 161.3C268.45 164.62 272.84 169.54 271.81 174.83L271.82 174.82Z" fill="black"/>
<path d="M328.29 246.7C311.42 225.33 289.28 208.31 264.81 196.39C268.38 195.18 271.76 193.63 274.77 191.61C286.39 183.88 288.1 169.54 280.13 158.35C275.91 152.43 270.1 148 264.59 143.37C259.2 138.83 253.81 134.3 248.41 129.76C256.77 119.76 262.91 108.01 266.01 95.2901C269.13 82.5301 270.73 66.1301 263.66 54.3301C255.56 40.8301 239.13 42.2701 225.75 45.0901C211.53 48.0901 197.12 54.3401 183.3 48.1201C175.06 41.9401 172.7 31.5001 168.88 22.5101C165.07 13.5601 157.67 5.50007 148.61 1.77007C139.59 -1.94993 129.8 0.310071 123.48 7.80007C116.96 15.5401 115.7 25.7301 112.02 34.8301C110.18 39.3701 108.08 43.8001 106.11 48.2801C104.3 52.4201 102.84 57.0401 99.1003 59.8701C92.8903 64.5901 83.3703 64.1301 76.0303 64.9301C58.7103 66.8201 36.9503 71.8501 29.2203 89.5501C24.4403 100.49 27.1003 112.89 33.9903 122.32C41.0003 131.92 51.2203 137.74 61.7303 142.77C58.3103 147.55 55.0203 152.42 51.6803 157.28C47.5803 163.25 42.5803 168.83 39.8103 175.58C35.7403 185.49 35.3703 200.57 43.4903 208.72C45.1903 210.43 47.0703 211.73 49.0703 212.7C44.8903 216.04 40.8303 219.52 36.8203 222.98C27.3903 231.1 17.8503 239.58 10.1303 249.39C-5.10974 268.75 -5.70974 311.2 26.3403 312.14C42.2803 312.62 55.7103 303.98 68.2103 294.99C69.3303 309.57 70.4503 324.15 71.5803 338.73C72.4903 350.67 73.5103 362.59 72.8103 374.57C72.5003 379.92 71.8603 385.21 70.7203 390.45C69.4003 396.53 66.8203 402 65.0903 407.9C63.0003 415.03 65.5503 422.14 71.7903 426.18C78.4103 430.46 88.1003 430.77 95.6903 431.61C107.58 432.92 119.53 432.56 131.36 430.86C140.7 429.52 150.61 427.14 156.25 418.85C159.45 414.16 160.59 408.63 161.79 403.18C162.47 400.07 164.61 389.57 169.9 391.78C173.59 393.34 173.57 401.62 173.53 404.63C173.45 411.08 171.55 417.14 168.32 422.69C168.17 422.93 168.05 423.18 167.95 423.42C163.31 432.97 171.85 441.75 180.74 444.81C190.77 448.26 203.67 445.83 213.89 444.22C233.84 441.08 253.81 430.49 259.96 409.97C260.32 408.76 260.35 407.65 260.14 406.66C268.42 375.07 272.47 341.17 270.32 308.3C270.5 308.44 270.66 308.58 270.83 308.73C279.59 315.86 287.72 323.81 299.89 320.04C304.91 318.49 309.99 315.44 312.79 311.31C317.17 312.48 321.73 312.69 326.2 311.19C333.86 308.62 338.81 301.57 341.28 294.17C346.97 277.07 338.77 259.95 328.32 246.71L328.29 246.7ZM325.41 296C321.47 300.52 315.86 298.87 311.21 296.42C305.5 293.4 300.04 298.72 301.59 304.28C301.42 304.45 301.13 304.71 300.62 305.04C299.06 306.05 297.49 306.83 295.69 307.32C291.88 308.37 289.15 306.64 286.16 304.25C279.77 299.17 273.56 293.82 267.52 288.31C267.16 287.86 266.72 287.47 266.23 287.14C265.8 286.75 265.37 286.36 264.94 285.97C250.93 272.99 237.14 260.13 219.89 251.51C212.22 247.67 205.44 259.21 213.14 263.06C229.5 271.23 242.54 283.52 255.82 295.63C260.51 331.64 256.08 370.23 246.7 405.11C246.43 406.13 246.39 407.08 246.51 407.94C242.28 419.55 230.93 426.33 219.38 429.44C212.14 431.39 204.7 432.13 197.24 432.61C194.05 432.82 190.73 433.17 187.54 432.73C185.83 432.49 184.33 432.01 182.83 431.12C182.17 430.74 181.55 430.3 180.97 429.8C180.65 429.27 180.4 428.93 180.21 428.76C185.52 419.29 187.83 408.52 186.38 397.72C185.16 388.56 179.75 378.34 169.26 378.11C157.99 377.86 151.56 388.21 149.24 397.9C148.19 402.3 147.83 407.59 145.13 411.37C142.41 415.2 137.43 416.24 133.09 417.08C121.18 419.4 108.67 419.56 96.6203 418.31C90.8603 417.72 85.0603 416.72 79.4603 415.23C80.1803 415.65 81.0703 415.68 79.4603 415.23C79.4503 415.23 79.4303 415.23 79.4103 415.21H79.4003C79.2703 415.13 79.1503 415.04 79.0503 414.95C78.6503 414.54 77.9303 414.61 77.7003 413.59C77.0103 410.54 80.1903 405.91 81.1403 403C83.0903 397.08 84.3103 390.99 85.1403 384.82C86.7103 373.24 86.6203 361.58 85.7803 349.94C83.6603 320.78 81.2903 291.64 79.0503 262.5C78.4003 253.97 65.0203 253.9 65.6803 262.5C66.1103 268.13 66.5403 273.77 66.9803 279.4C66.9403 279.43 66.9003 279.45 66.8703 279.47C56.8603 286.73 45.7203 296.14 33.2103 298.28C28.4403 299.1 21.6603 299.65 17.8903 295.97C14.1403 292.28 13.3103 286.22 13.2703 281.22C13.2103 271.79 15.8503 263.01 21.9803 255.86C29.0103 247.66 37.1103 240.32 45.2603 233.26C52.7403 226.78 60.4103 220.16 68.8103 214.85C72.1703 214.52 75.4803 214.01 78.5903 213.6C93.9703 211.55 108.32 207.41 122.09 200.14C129.7 196.12 122.95 184.58 115.34 188.59C113.19 189.72 111.02 190.75 108.83 191.72H116.17L88.0803 203.38L61.0503 205.76L47.5403 202.05V184.93C47.5403 184.93 48.4703 185.81 50.4803 186.94C50.8703 183.12 52.3703 179.43 54.4703 176.25C61.2803 165.92 68.5903 155.65 76.0003 145.73C77.0303 144.35 77.3803 142.97 77.2503 141.71C76.7703 142.11 76.2503 142.44 75.6703 142.66C70.4903 144.69 47.5303 128.01 47.5303 128.01L33.7603 107.6L38.4903 101.87C38.4903 101.87 39.1003 102.31 40.1803 103.03C39.8503 99.6901 40.4103 96.3101 42.2503 93.2001C50.0603 79.9901 70.2603 78.9101 83.7303 77.5401C91.2203 76.7701 99.1103 75.8501 105.56 71.6001C112.73 66.8701 115.55 59.6501 118.92 52.1401C122.74 43.6001 126.28 35.1501 128.91 26.1501C130.76 19.8101 134.85 11.0001 142.92 13.8201C152.34 17.1101 155.91 26.3401 159.18 34.7401C162 42.0101 165.48 48.7601 170.61 54.3301C170.99 55.7801 171.94 57.1401 173.62 58.1301C174.63 58.7201 175.64 59.2501 176.67 59.7501C176.78 59.8301 176.9 59.9301 177.02 60.0101C178.04 60.7401 179.04 61.1001 180 61.1901C190.58 65.2601 201.67 64.6301 213.06 61.9701C219.33 60.5101 225.51 58.5901 231.87 57.4501C237.22 56.5001 245.05 54.8701 249.76 58.4101C254.19 61.7401 255.49 68.0701 255.47 74.5401C256.31 72.3301 256.79 70.9701 256.79 70.9701L263.86 88.8301C263.86 88.8301 241.09 135.16 235.59 133.98C234.79 133.81 234 133.54 233.23 133.22C233.55 134.2 234.18 135.16 235.21 136.03C245.12 144.37 255.64 152.32 264.99 161.27C275.04 145.94 274.76 181.85 274.76 181.85L242.19 195.21L202.66 192.98L185.01 185.14C179.07 186.83 179.95 197.52 187.5 198.33C203.18 200.01 218.96 201.59 234.75 200.86C236.64 200.78 238.6 200.67 240.59 200.54C240.79 200.63 240.99 200.73 241.21 200.8C266.72 209.92 289.92 224.96 308.67 244.53C317.55 253.79 327.51 264.87 329.41 278.08C330.27 283.99 329.48 291.28 325.41 295.97V296Z" fill="black"/>
<path d="M50.4999 186.95C50.4299 187.67 50.3799 188.4 50.3899 189.13C50.4299 192.25 50.6399 196.89 52.9399 199.25C55.6599 202.06 60.4499 202.07 64.0499 201.88C64.3499 201.87 64.6599 201.83 64.9599 201.82C65.8299 201.56 66.68 201.51 67.4799 201.63C71.8899 201.25 76.2999 200.59 80.6499 199.91C90.4699 198.37 99.8499 195.71 108.85 191.73H72.4699C61.0999 191.73 54.0899 188.95 50.5099 186.95H50.4999Z" fill="#FDB804"/>
<path d="M67.4796 201.64C66.6796 201.52 65.8296 201.57 64.9596 201.83C64.6596 201.83 64.3496 201.88 64.0496 201.89C60.4496 202.08 55.6596 202.07 52.9396 199.26C50.6396 196.9 50.4296 192.26 50.3896 189.14C50.3896 188.41 50.4296 187.68 50.4996 186.96C48.4896 185.83 47.5596 184.95 47.5596 184.95V202.07L61.0696 205.78L88.0996 203.4L116.19 191.74H108.85C99.8496 195.72 90.4696 198.38 80.6496 199.92C76.3096 200.6 71.8896 201.26 67.4796 201.64Z" fill="black"/>
<path d="M81.8702 130.73C81.8702 130.73 83.3502 120.14 68.4802 116.46C56.5802 113.52 44.5402 105.95 40.2002 103.05C40.6902 108.03 43.1802 112.92 46.5102 116.7C53.3302 124.48 63.2602 128.82 72.4502 133.08C75.1402 134.32 76.0902 136.5 75.8802 138.68C76.6402 139.54 77.1402 140.58 77.2602 141.71C81.0702 138.54 81.8602 130.72 81.8602 130.72L81.8702 130.73Z" fill="#FDB804"/>
<path d="M72.46 133.09C63.26 128.83 53.34 124.48 46.52 116.71C43.19 112.92 40.7 108.04 40.21 103.06C39.13 102.34 38.52 101.9 38.52 101.9L33.79 107.63L47.56 128.04C47.56 128.04 70.52 144.71 75.7 142.69C76.28 142.46 76.8 142.14 77.28 141.74C77.16 140.61 76.66 139.57 75.9 138.71C76.11 136.53 75.15 134.35 72.47 133.11L72.46 133.09Z" fill="black"/>
<path d="M233.43 112.02C222.83 116.93 225.19 127.53 225.19 127.53C225.19 127.53 228.77 131.39 233.24 133.25C232.76 131.76 233.01 130.21 233.75 128.86C233.67 127.26 234.2 125.59 235.6 124.11C244.55 114.56 250.7 102.86 253.51 90.0801C254.39 86.0901 255.45 80.2701 255.47 74.5701C251.94 83.8001 241.99 108.07 233.44 112.03L233.43 112.02Z" fill="#FDB804"/>
<path d="M235.59 124.11C234.19 125.59 233.66 127.26 233.74 128.86C233 130.21 232.74 131.76 233.23 133.25C234 133.57 234.78 133.84 235.59 134.01C241.09 135.19 263.86 88.86 263.86 88.86L256.79 71C256.79 71 256.31 72.36 255.47 74.57C255.45 80.28 254.39 86.1 253.51 90.08C250.7 102.87 244.55 114.56 235.6 124.11H235.59Z" fill="black"/>
</g>
<defs>
<clipPath id="clip0_1619_6324">
<rect width="343.12" height="446.56" fill="white"/>
</clipPath>
</defs>
</svg>
