<svg width="595" height="595" viewBox="0 0 595 595" fill="none" xmlns="http://www.w3.org/2000/svg">
<mask id="mask0_2127_5573" style="mask-type:alpha" maskUnits="userSpaceOnUse" x="0" y="0" width="595" height="595">
<rect x="0.5" y="0.5" width="594" height="594" rx="16.5" fill="#161616" stroke="#2D2D2D"/>
</mask>
<g mask="url(#mask0_2127_5573)">
<g clip-path="url(#clip0_2127_5573)">
<path d="M228.489 293.426C216.793 293.426 216.808 275.302 228.489 275.302C240.171 275.302 240.171 293.426 228.489 293.426Z" fill="#959595"/>
<path d="M287.622 287.874C275.91 287.874 275.925 269.735 287.622 269.735C299.318 269.735 299.303 287.874 287.622 287.874Z" fill="#959595"/>
<path d="M296.476 305.074C294.991 321.363 281.426 331.101 265.786 332.438C251.309 333.671 231.948 330.807 227.122 314.841C224.577 306.44 237.73 302.871 240.26 311.228C242.703 319.307 256.356 319.321 263.123 318.998C271.465 318.602 281.97 314.724 282.853 305.059C283.633 296.408 297.256 296.349 296.476 305.059V305.074Z" fill="#959595"/>
<path d="M319.047 379.733C319.047 379.733 319.974 379.615 321.651 379.395C320.695 379.395 319.841 379.513 319.047 379.733Z" fill="black"/>
<path d="M446.765 364.531C445.44 371.273 437.937 374.621 432.082 376.59C397.449 388.266 358.24 383.258 322.695 379.454C322.327 379.41 321.974 379.395 321.635 379.395C319.958 379.615 319.031 379.733 319.031 379.733L344.999 391.248L403.157 394.524L451.075 374.9C451.075 374.9 451.487 322.156 436.701 344.673C441.807 349.549 448.265 356.775 446.75 364.545L446.765 364.531Z" fill="#959595"/>
<path d="M529.847 470.108C505.027 438.719 472.453 413.72 436.452 396.212C441.704 394.435 446.677 392.159 451.106 389.192C468.202 377.838 470.717 356.775 458.992 340.339C452.783 331.644 444.235 325.137 436.128 318.337C428.198 311.669 420.268 305.015 412.324 298.347C424.623 283.659 433.657 266.4 438.218 247.717C442.808 228.975 445.162 204.887 434.76 187.555C422.843 167.727 398.671 169.842 378.985 173.984C358.064 178.39 336.864 187.57 316.531 178.434C304.408 169.357 300.936 154.023 295.316 140.818C289.71 127.672 278.823 115.834 265.494 110.355C252.223 104.891 237.82 108.211 228.521 119.212C218.929 130.581 217.075 145.548 211.661 158.914C208.954 165.582 205.864 172.089 202.966 178.669C200.303 184.75 198.155 191.536 192.652 195.692C183.516 202.625 169.51 201.949 158.711 203.124C133.229 205.901 101.215 213.289 89.8419 239.286C82.8094 255.355 86.7229 273.568 96.8597 287.419C107.173 301.519 122.209 310.068 137.672 317.456C132.64 324.476 127.8 331.629 122.886 338.768C116.854 347.537 109.498 355.732 105.422 365.647C99.4344 380.203 98.89 402.352 110.837 414.323C113.338 416.834 116.104 418.744 119.046 420.168C112.896 425.074 106.923 430.186 101.023 435.268C87.1495 447.194 73.1139 459.65 61.7559 474.059C39.3341 502.494 38.4514 564.845 85.6047 566.226C109.056 566.931 128.815 554.24 147.206 541.036C148.853 562.451 150.501 583.866 152.164 605.281C153.503 622.818 155.003 640.326 153.973 657.922C153.517 665.781 152.576 673.55 150.898 681.247C148.956 690.177 145.161 698.212 142.615 706.877C139.54 717.35 143.292 727.793 152.473 733.727C162.212 740.013 176.469 740.469 187.635 741.703C205.129 743.627 222.71 743.098 240.115 740.601C253.856 738.633 268.436 735.137 276.734 722.961C281.442 716.072 283.119 707.95 284.885 699.945C285.885 695.377 289.034 679.954 296.816 683.2C302.245 685.492 302.216 697.653 302.157 702.074C302.039 711.548 299.244 720.449 294.492 728.601C294.271 728.953 294.095 729.321 293.947 729.673C287.121 743.7 299.685 756.596 312.765 761.091C327.521 766.158 346.5 762.589 361.536 760.224C390.888 755.612 420.268 740.058 429.317 709.918C429.846 708.141 429.89 706.51 429.581 705.056C441.763 658.657 447.722 608.865 444.559 560.585C444.824 560.791 445.059 560.997 445.309 561.217C458.197 571.689 470.158 583.366 488.063 577.829C495.449 575.552 502.923 571.073 507.042 565.006C513.486 566.725 520.195 567.033 526.772 564.83C538.041 561.055 545.324 550.7 548.958 539.831C557.329 514.715 545.265 489.569 529.891 470.122L529.847 470.108ZM525.609 542.519C519.813 549.158 511.559 546.735 504.718 543.136C496.317 538.7 488.284 546.514 490.564 554.681C490.314 554.93 489.888 555.312 489.137 555.797C486.842 557.281 484.532 558.426 481.884 559.146C476.279 560.688 472.262 558.147 467.863 554.637C458.462 547.175 449.325 539.317 440.439 531.224C439.91 530.563 439.262 529.99 438.541 529.506C437.909 528.933 437.276 528.36 436.643 527.787C416.031 508.722 395.743 489.833 370.364 477.172C359.079 471.532 349.104 488.482 360.433 494.137C384.502 506.137 403.688 524.189 423.226 541.976C430.126 594.867 423.608 651.548 409.808 702.779C409.411 704.278 409.352 705.673 409.528 706.936C403.305 723.989 386.606 733.947 369.614 738.515C358.962 741.379 348.016 742.466 337.04 743.171C332.347 743.48 327.462 743.994 322.769 743.348C320.253 742.995 318.046 742.29 315.84 740.983C314.869 740.425 313.956 739.778 313.103 739.044C312.632 738.266 312.264 737.766 311.985 737.517C319.797 723.607 323.196 707.788 321.062 691.925C319.268 678.471 311.308 663.46 295.875 663.122C279.294 662.755 269.834 677.957 266.421 692.189C264.876 698.652 264.346 706.422 260.374 711.974C256.372 717.6 249.045 719.127 242.66 720.361C225.137 723.769 206.732 724.004 189.004 722.168C180.529 721.301 171.996 719.832 163.757 717.644C166.126 718.305 164.816 718.261 163.757 717.644C163.742 717.644 163.713 717.644 163.684 717.614H163.669C163.478 717.497 163.301 717.365 163.154 717.232C162.565 716.63 161.506 716.733 161.168 715.235C160.153 710.755 164.831 703.955 166.229 699.68C169.098 690.985 170.893 682.04 172.114 672.978C174.424 655.969 174.291 638.843 173.055 621.746C169.936 578.916 166.45 536.115 163.154 493.314C162.198 480.786 142.512 480.683 143.483 493.314C144.116 501.584 144.749 509.868 145.396 518.137C145.337 518.181 145.278 518.211 145.234 518.24C130.507 528.903 114.117 542.725 95.7122 545.868C88.6943 547.072 78.7193 547.88 73.1727 542.475C67.6555 537.055 66.4344 528.154 66.3756 520.81C66.2873 506.96 70.1714 494.064 79.1901 483.562C89.5329 471.518 101.45 460.737 113.441 450.367C124.446 440.849 135.73 431.126 148.088 423.326C153.032 422.842 157.902 422.093 162.477 421.49C185.105 418.479 206.217 412.399 226.476 401.72C237.672 395.816 227.742 378.866 216.545 384.756C213.382 386.416 210.19 387.928 206.968 389.353H217.766L176.439 406.479L136.672 409.975L116.795 404.526V379.38C116.795 379.38 118.163 380.673 121.121 382.332C121.694 376.721 123.901 371.302 126.991 366.631C137.01 351.458 147.765 336.374 158.667 321.803C160.182 319.776 160.697 317.749 160.506 315.899C159.8 316.486 159.034 316.971 158.181 317.294C150.56 320.276 116.78 295.776 116.78 295.776L96.5213 265.798L103.48 257.382C103.48 257.382 104.378 258.028 105.967 259.086C105.481 254.18 106.305 249.215 109.012 244.647C120.503 225.245 150.222 223.658 170.039 221.646C181.059 220.515 192.667 219.164 202.157 212.921C212.705 205.974 216.854 195.369 221.812 184.339C227.433 171.795 232.641 159.384 236.51 146.165C239.232 136.852 245.249 123.912 257.122 128.054C270.981 132.887 276.234 146.444 281.045 158.782C285.194 169.46 290.314 179.374 297.861 187.555C298.42 189.685 299.818 191.683 302.289 193.137C303.775 194.003 305.261 194.782 306.777 195.516C306.939 195.634 307.115 195.781 307.292 195.898C308.792 196.97 310.264 197.499 311.676 197.631C327.242 203.609 343.558 202.684 360.315 198.777C369.54 196.632 378.632 193.812 387.989 192.138C395.86 190.743 407.38 188.348 414.31 193.548C420.827 198.439 422.74 207.737 422.711 217.24C423.947 213.994 424.653 211.996 424.653 211.996L435.054 238.229C435.054 238.229 401.554 306.278 393.462 304.545C392.285 304.295 391.123 303.899 389.99 303.429C390.461 304.868 391.388 306.278 392.903 307.556C407.483 319.806 422.961 331.483 436.717 344.628C451.503 322.112 451.091 374.856 451.091 374.856L403.173 394.479L345.014 391.204L319.047 379.688C310.308 382.171 311.602 397.872 322.71 399.062C345.779 401.529 368.996 403.85 392.227 402.778C395.007 402.66 397.891 402.499 400.819 402.308C401.113 402.44 401.407 402.587 401.731 402.69C439.262 416.085 473.395 438.176 500.981 466.92C514.046 480.521 528.699 496.796 531.494 516.198C532.76 524.879 531.597 535.586 525.609 542.475V542.519Z" fill="#959595"/>
<path d="M146.131 403.924C144.954 403.748 143.704 403.821 142.424 404.203C141.982 404.203 141.526 404.276 141.085 404.291C135.789 404.57 128.741 404.555 124.74 400.428C121.356 396.962 121.047 390.147 120.988 385.564C120.988 384.492 121.047 383.419 121.15 382.362C118.192 380.702 116.824 379.41 116.824 379.41V404.555L136.701 410.005L176.468 406.509L217.796 389.383H206.997C193.756 395.229 179.955 399.136 165.508 401.398C159.122 402.396 152.62 403.366 146.131 403.924Z" fill="#959595"/>
<path d="M153.459 303.238C139.924 296.981 125.329 290.592 115.295 279.179C110.396 273.612 106.733 266.445 106.012 259.13C104.423 258.073 103.525 257.426 103.525 257.426L96.5664 265.842L116.825 295.821C116.825 295.821 150.605 320.305 158.226 317.338C159.08 317.001 159.845 316.531 160.551 315.943C160.374 314.283 159.639 312.756 158.52 311.493C158.829 308.291 157.417 305.089 153.474 303.267L153.459 303.238Z" fill="#959595"/>
<path d="M393.462 290.048C391.402 292.222 390.622 294.675 390.74 297.025C389.651 299.008 389.269 301.284 389.99 303.473C391.122 303.943 392.27 304.339 393.462 304.589C401.554 306.322 435.054 238.273 435.054 238.273L424.652 212.04C424.652 212.04 423.946 214.038 422.71 217.284C422.681 225.671 421.121 234.219 419.826 240.065C415.692 258.851 406.644 276.021 393.476 290.048H393.462Z" fill="#959595"/>
</g>
</g>
<defs>
<clipPath id="clip0_2127_5573">
<rect width="504.813" height="655.906" fill="white" transform="translate(46.8516 107.756)"/>
</clipPath>
</defs>
</svg>
