<svg width="24" height="24" viewBox="0 0 24 24" fill="#8792FF" xmlns="http://www.w3.org/2000/svg">
<path d="M20.7415 18.4843L16.5507 14.2762C17.6283 13.0396 18.2186 11.4836 18.2186 9.86374C18.2186 6.07913 15.0293 3 11.1093 3C7.1893 3 4 6.07913 4 9.86374C4 13.6484 7.1893 16.7275 11.1093 16.7275C12.581 16.7275 13.9833 16.299 15.1823 15.4854L19.405 19.7255C19.5815 19.9024 19.8189 20 20.0732 20C20.314 20 20.5425 19.9114 20.7159 19.7502C21.0843 19.4079 21.0961 18.8403 20.7415 18.4843ZM11.1093 4.79054C14.0068 4.79054 16.364 7.06632 16.364 9.86374C16.364 12.6612 14.0068 14.9369 11.1093 14.9369C8.21181 14.9369 5.85461 12.6612 5.85461 9.86374C5.85461 7.06632 8.21181 4.79054 11.1093 4.79054Z" fill="#8792FF"/>
</svg>
