<svg width="25" height="24" viewBox="0 0 25 24" fill="none" xmlns="http://www.w3.org/2000/svg">
<g clip-path="url(#clip0_828_3347)">
<path d="M20.6875 1.99999L9.6875 3.49999C8.6875 3.60155 8 4.49999 8 5.49999V15.7812C7.53906 15.6992 7.03906 15.6992 6.5 15.8125C4.60156 16.3125 3 17.9883 3 19.6875C3 21.3867 4.60156 22.4062 6.5 21.9062C8.39844 21.4062 10 19.6992 10 18V9.40624L21 7.93749V14.7187C20.5391 14.6367 20.0391 14.6719 19.5 14.8125C17.6016 15.3125 16 16.9883 16 18.6875C16 20.3867 17.6016 21.4062 19.5 20.9062C21.3984 20.4062 23 18.6992 23 17V3.99999C23 2.80077 21.8867 1.89843 20.6875 1.99999Z" fill="#FDC9F7" />
</g>
<defs>
<clipPath id="clip0_828_3347">
<rect width="24" height="24" fill="white" transform="translate(0.5)"/>
</clipPath>
</defs>
</svg>