<svg width="25" height="24" viewBox="0 0 25 24" fill="none" xmlns="http://www.w3.org/2000/svg">
<path d="M21.9294 10.1691C22.3298 9.82168 22.1158 9.16376 21.5877 9.11822L16.1697 8.65102C15.9484 8.63193 15.7557 8.49214 15.6689 8.28767L13.5527 3.30214C13.3458 2.81458 12.6547 2.81476 12.448 3.30244L10.3312 8.29687C10.2443 8.50177 10.0512 8.64177 9.82948 8.66059L4.41698 9.11978C3.88812 9.16465 3.67368 9.82361 4.07484 10.1711L8.18628 13.7329C8.35462 13.8787 8.42832 14.1058 8.37772 14.3227L7.14305 19.6152C7.02247 20.1321 7.58301 20.5395 8.0374 20.2652L12.69 17.4571C12.8806 17.342 13.1194 17.342 13.31 17.4571L17.9649 20.2666C18.4189 20.5407 18.9792 20.134 18.8594 19.6174L17.6316 14.3219C17.5814 14.1054 17.655 13.8789 17.8228 13.7332L21.9294 10.1691ZM13.3102 15.5876C13.1195 15.4723 12.8805 15.4722 12.6896 15.5874L10.4581 16.9346C10.0036 17.209 9.44294 16.8014 9.56373 16.2844L10.1576 13.7425C10.2083 13.5257 10.1347 13.2987 9.96654 13.1528L7.99037 11.4385C7.59 11.0912 7.80364 10.4333 8.33168 10.3875L10.9396 10.1613C11.1613 10.142 11.3541 10.0017 11.4406 9.79671L12.4481 7.40831C12.6543 6.91956 13.3467 6.91914 13.5535 7.40763L14.5692 9.80734C14.6558 10.012 14.8485 10.152 15.0699 10.1712L17.6783 10.3975C18.2064 10.4433 18.42 11.1012 18.0196 11.4485L16.0435 13.1628C15.8753 13.3087 15.8017 13.5357 15.8524 13.7525L16.4459 16.293C16.5668 16.8101 16.0056 17.2177 15.5512 16.9429L13.3102 15.5876Z" fill="#8792FF"/>
</svg>
