<svg width="184" height="90" viewBox="0 0 184 90" fill="none" xmlns="http://www.w3.org/2000/svg">
<g clip-path="url(#clip0_1602_5333)">
<path d="M180.462 70.9964C179.977 67.6241 177.434 64.793 175.167 62.4316C170.381 57.4357 164.458 53.5988 157.946 51.268C157.89 51.2502 157.836 51.2246 157.787 51.2017C157.279 51.2374 156.779 51.2629 156.297 51.2834C152.266 51.4697 148.237 51.0664 144.234 50.6375C142.07 50.4052 142.052 46.9895 144.234 47.2218C150.402 47.883 157.205 48.7535 163.215 46.724C164.228 46.3819 165.53 45.7998 165.763 44.6281C166.025 43.2776 164.905 42.0216 164.019 41.1741C161.632 38.8893 158.946 36.8598 156.417 34.7307C155.755 34.1742 155.727 33.4645 156.044 32.8926C156.023 32.4842 156.159 32.0578 156.516 31.68C158.801 29.2421 160.371 26.2552 161.088 22.9927C161.568 20.8202 162.257 16.5136 160.134 14.9129C158.931 14.0067 156.932 14.4228 155.566 14.6678C153.943 14.9589 152.365 15.449 150.765 15.8217C147.857 16.5033 145.026 16.6616 142.325 15.6226C142.082 15.5996 141.825 15.5052 141.564 15.3214C141.533 15.301 141.503 15.2754 141.475 15.255C141.212 15.1274 140.954 14.9921 140.696 14.8414C140.267 14.5887 140.027 14.2441 139.928 13.8714C138.621 12.4494 137.73 10.7262 137.01 8.87033C136.175 6.72338 135.264 4.3671 132.859 3.52977C130.799 2.80987 129.755 5.05893 129.282 6.67743C128.614 8.97244 127.707 11.1296 126.732 13.3123C125.872 15.232 125.152 17.0726 123.321 18.2801C121.675 19.3651 119.661 19.6 117.749 19.7965C114.31 20.1463 109.153 20.422 107.159 23.7943C105.99 25.7753 106.822 28.175 108.242 29.7909C109.983 31.777 112.518 32.885 114.864 33.9725C115.551 34.289 115.793 34.8456 115.739 35.4021C116.151 35.8667 116.27 36.533 115.77 37.2018C113.881 39.7317 112.015 42.356 110.274 44.9931C109.636 45.9581 109.209 47.1069 109.225 48.2812C109.235 49.0777 109.288 50.2622 109.876 50.8647C110.57 51.582 111.793 51.5846 112.712 51.5361C112.788 51.5335 112.868 51.5233 112.944 51.5208C113.166 51.4544 113.383 51.4416 113.587 51.4723C114.713 51.3753 115.839 51.2068 116.95 51.0332C120.067 50.543 123.015 49.6214 125.813 48.1459C127.756 47.1222 129.479 50.0682 127.536 51.0944C124.021 52.9504 120.358 54.0072 116.431 54.5306C115.637 54.6378 114.792 54.7654 113.935 54.8497C111.79 56.2052 109.832 57.8927 107.923 59.5495C105.842 61.3518 103.774 63.2256 101.98 65.3215C100.415 67.1468 99.7408 69.3907 99.7561 71.7955C99.7663 73.0719 99.9782 74.6164 100.936 75.5609C101.895 76.5004 103.629 76.36 104.846 76.1507C108.04 75.6043 110.884 73.2021 113.439 71.3487C113.447 71.3436 113.457 71.3385 113.467 71.3309C113.355 69.8936 113.245 68.4538 113.136 67.0166C112.967 64.8211 116.38 64.839 116.549 67.0166C117.121 74.4581 117.726 81.8971 118.267 89.3387C118.481 92.3102 118.502 95.2868 118.103 98.243C117.892 99.8181 117.58 101.373 117.082 102.884C116.84 103.624 116.025 104.809 116.204 105.588C116.263 105.848 116.444 105.828 116.549 105.935C116.574 105.958 116.605 105.981 116.638 106.001H116.641C116.641 106.001 116.651 106.004 116.653 106.006C118.083 106.387 119.566 106.642 121.034 106.792C124.11 107.109 127.301 107.071 130.344 106.478C131.45 106.264 132.724 105.996 133.418 105.021C134.107 104.056 134.199 102.705 134.467 101.582C135.059 99.1084 136.701 96.4662 139.578 96.53C142.256 96.5888 143.637 99.1978 143.948 101.536C144.319 104.293 143.729 107.045 142.373 109.463C142.422 109.506 142.486 109.593 142.567 109.728C142.715 109.856 142.871 109.966 143.042 110.065C143.423 110.292 143.808 110.415 144.245 110.476C145.056 110.589 145.904 110.497 146.721 110.446C148.625 110.321 150.525 110.134 152.373 109.636C155.319 108.845 158.219 107.114 159.299 104.148C159.268 103.928 159.278 103.686 159.347 103.425C161.742 94.521 162.873 84.6695 161.675 75.4767C158.285 72.3852 154.956 69.2477 150.78 67.1621C148.814 66.1792 150.545 63.2332 152.503 64.2135C156.907 66.4141 160.43 69.6945 164.004 73.0107C164.113 73.1102 164.223 73.2098 164.333 73.3093C164.458 73.3936 164.568 73.4957 164.662 73.608C166.207 75.0146 167.792 76.3804 169.421 77.6773C170.184 78.2848 170.881 78.729 171.854 78.461C172.311 78.3359 172.714 78.1342 173.112 77.8789C173.245 77.7947 173.319 77.7283 173.36 77.6849C172.967 76.2655 174.358 74.9074 175.816 75.6784C177.003 76.3064 178.435 76.7276 179.441 75.5737C180.482 74.3764 180.681 72.5154 180.462 71.0067V70.9964ZM138.146 28.152C140.175 28.152 140.173 31.3048 138.146 31.3048C136.119 31.3048 136.116 28.152 138.146 28.152ZM127.886 29.1195C129.915 29.1195 129.913 32.2697 127.886 32.2697C125.859 32.2697 125.859 29.1195 127.886 29.1195ZM134.355 39.0501C131.843 39.2645 128.483 38.7667 127.646 35.9918C127.204 34.5316 129.487 33.9112 129.926 35.3638C130.349 36.7679 132.718 36.7704 133.893 36.7142C135.34 36.6453 137.163 35.9714 137.316 34.2916C137.451 32.788 139.815 32.7778 139.68 34.2916C139.422 37.1227 137.069 38.8152 134.355 39.0476V39.0501Z" fill="#FEC503"/>
<path d="M66.5564 103.903C66.5564 103.903 66.5462 103.895 66.5616 103.898C67.09 103.962 67.621 103.995 68.1494 104.018C69.4769 104.079 70.8095 104.064 72.1344 104.002C75.3025 103.847 78.4987 103.408 81.5085 102.374C83.2163 101.789 86.5401 100.477 86.147 98.4831C85.6977 96.2136 83.5891 94.1739 81.9884 92.6346C81.5161 92.1801 80.8958 91.764 80.5563 91.1896C79.7445 89.8137 80.0687 87.9858 80.2857 86.4975C80.5384 84.7539 80.8192 83.2145 80.8498 81.4633C80.8984 78.7113 80.7682 75.9517 80.4542 73.2176C80.1657 70.6826 79.6602 68.2319 78.9173 65.7939C78.2281 63.5346 77.5005 61.2983 77.2069 58.9472C76.1781 50.653 83.1168 44.23 89.6316 40.3241C91.1072 39.4409 92.2024 38.6061 93.3409 37.2862C94.431 36.02 95.881 34.5675 95.3628 32.7652C94.7578 30.6718 92.4372 29.1452 90.5354 28.3513C88.4931 27.4986 86.1649 27.2382 83.9924 27.6952C81.8531 28.1496 79.9385 29.1682 78.3506 30.6693C78.0723 30.9348 77.7686 31.0828 77.4673 31.139C77.5005 32.88 77.3397 34.6109 76.8393 36.3085C76.0709 38.9022 74.5392 41.1206 72.7879 43.1501C72.7139 43.2344 72.6424 43.3212 72.5684 43.4054C68.7647 47.7631 63.1407 49.8616 57.5526 50.7142C51.8469 51.5848 45.3474 51.6971 39.7464 50.1603C32.8231 48.2584 25.864 44.4215 23.3342 37.5568C22.9946 37.5951 22.6245 37.5109 22.2492 37.2531C19.1884 35.1648 16.0305 33.1098 12.2012 32.9898C9.17098 32.8928 5.8293 36.0864 4.95112 38.869C4.28227 40.993 3.75639 42.8081 4.16995 45.0214C4.59883 47.3266 5.86249 48.9094 8.04772 49.5067C8.22132 49.5144 8.40768 49.5552 8.60425 49.6344C8.88251 49.6854 9.10716 49.7824 9.29352 49.9152C9.29352 49.9152 9.29522 49.916 9.29862 49.9177C16.9112 53.1037 23.2704 58.577 27.5719 65.6382C28.4552 67.0882 26.9975 68.4463 25.7007 68.2574C26.7295 77.5881 26.8648 87.2863 23.2729 96.0962C22.3335 98.3734 21.4706 100.873 20.161 102.963C20.2708 103.096 20.475 103.372 20.3933 103.305C20.5337 103.454 20.6792 103.596 20.8349 103.734L20.84 103.739C20.8605 103.75 20.886 103.77 20.9217 103.79C21.057 103.88 21.1898 103.969 21.3302 104.048C21.4834 104.14 21.6416 104.222 21.7974 104.301C22.1522 104.482 22.0501 104.429 22.2339 104.5C24.7612 105.48 27.5668 105.606 30.2422 105.59C32.3993 105.577 34.7709 105.598 36.8847 105.133C39.0648 104.653 40.0196 103.091 41.0688 101.296C43.1009 97.8245 45.886 93.3366 50.185 92.6192C52.5949 92.2184 56.0515 92.923 57.8691 94.7304C59.1047 95.9609 60.085 97.5973 61.3946 99.1545C62.3162 100.255 63.2582 101.342 64.2691 102.361C64.6699 102.767 65.0809 103.188 65.5379 103.533C65.5889 103.571 65.6068 103.591 65.8136 103.711C65.8391 103.724 65.857 103.739 65.8723 103.747C65.8825 103.75 65.8978 103.752 65.9106 103.757C66.0586 103.798 66.2118 103.824 66.3599 103.857C66.5131 103.888 66.5565 103.895 66.5616 103.895L66.5564 103.903Z" fill="#0CACCF"/>
<path d="M57.7568 56.8075C36.3384 59.6845 27.1047 49.7744 27.1047 49.7744C27.1047 49.7744 18.9305 42.8077 22.1624 30.3574C22.2211 30.411 22.2798 30.4621 22.3386 30.5183C22.5887 30.7557 22.8619 30.9012 23.135 30.9676C23.2218 32.5784 23.4465 34.1484 23.7988 35.6291C25.7058 43.6169 33.2494 47.9517 40.7548 50.0118C46.3506 51.5486 52.8502 51.4337 58.5584 50.5658C64.1491 49.7131 69.773 47.6147 73.5742 43.257L73.7963 43.0017C75.1034 41.4853 76.2904 39.8566 77.1278 38.0466C76.1551 44.4925 72.3055 54.852 57.7568 56.8075Z" fill="#0684B5"/>
<path d="M0.60574 41.6187C-0.0835287 46.6555 2.25999 52.0599 7.65671 53.0606C5.74973 52.3075 6.32667 49.4049 8.04474 49.5096C5.8595 48.9122 4.59584 47.3294 4.16696 45.0242C3.7534 42.8109 4.27929 40.9958 4.94813 38.8718C5.82631 36.0892 9.16799 32.8956 12.1982 32.9926C16.0275 33.1126 19.1854 35.1677 22.2462 37.2559C22.6215 37.5112 22.9917 37.598 23.3312 37.5597C23.1193 36.9878 22.9381 36.3956 22.7925 35.7778C22.5832 34.8945 22.4173 33.9831 22.3024 33.0462C19.3436 31.1724 16.2675 29.7097 12.6424 29.4646C9.00716 29.217 5.78292 31.5171 3.54407 34.2384C1.85664 36.2909 0.965692 39.002 0.60574 41.6187Z" fill="#2D2D2D"/>
<path d="M8.04586 49.5106C6.32779 49.4059 5.75085 52.3085 7.65783 53.0616C9.61586 53.4241 10.5885 50.8483 9.29675 49.9216C9.29675 49.9216 9.29505 49.9207 9.29165 49.919C9.06189 49.822 8.83469 49.7301 8.60238 49.6382C8.41092 49.6025 8.22456 49.5616 8.04586 49.5106Z" fill="#2D2D2D"/>
<path d="M9.29518 49.918C10.5895 50.8447 9.61428 53.423 7.65625 53.058C13.5789 55.404 18.6999 59.4375 22.5113 64.4973C22.8406 64.242 23.2516 64.0837 23.6345 64.0812C24.6914 64.071 25.2888 64.9109 25.4113 65.858C25.5109 66.657 25.6079 67.4535 25.6972 68.2576C26.9941 68.4465 28.4518 67.091 27.5685 65.6384C23.2669 58.5772 16.9078 53.1014 9.29518 49.918Z" fill="#2D2D2D"/>
<path d="M8.04297 49.5078C8.22167 49.5563 8.40547 49.5997 8.59949 49.6355C8.40292 49.5589 8.21656 49.518 8.04297 49.5078Z" fill="#2D2D2D"/>
<path d="M8.59961 49.6338C8.83192 49.7257 9.05912 49.8176 9.28888 49.9146C9.10507 49.7819 8.87787 49.6848 8.59961 49.6338Z" fill="#2D2D2D"/>
<path d="M19.8463 95.1532C20.2139 94.2623 21.0181 93.6471 22.029 93.9151C22.8689 94.1347 23.6347 95.2145 23.2671 96.0978C26.859 87.2854 26.7237 77.5871 25.6949 68.259C25.2405 68.1926 24.809 67.9399 24.5001 67.4319C23.8824 66.4209 23.2212 65.4406 22.5089 64.4961C22.0826 64.8229 21.7865 65.3156 21.8554 65.8568C23.0884 75.6291 23.6347 85.8481 19.8438 95.1532H19.8463Z" fill="#2D2D2D"/>
<path d="M22.2988 33.0449C22.4137 33.9818 22.5796 34.8932 22.789 35.7765C22.9345 36.3943 23.1157 36.984 23.3276 37.5584" fill="#2D2D2D"/>
<path d="M23.635 64.082C23.252 64.0846 22.841 64.2429 22.5117 64.4981C23.2214 65.4427 23.8851 66.423 24.5029 67.4339C24.8118 67.9394 25.2433 68.1947 25.6977 68.261C25.6058 67.4569 25.5113 66.6579 25.4118 65.8614C25.2918 64.9143 24.6944 64.0744 23.635 64.0846V64.082Z" fill="#2D2D2D"/>
<path d="M55.3627 97.2622C54.9696 96.6981 55.1585 97.0886 55.4214 97.3439L55.3627 97.2622ZM83.6074 89.3969C83.61 89.4939 83.6304 89.4684 83.6074 89.3969V89.3969ZM68.15 104.017C69.4774 104.078 70.81 104.063 72.1349 104.002C75.303 103.846 78.4992 103.407 81.509 102.373C83.2169 101.788 86.5407 100.476 86.1475 98.4825C85.6982 96.213 83.5896 94.1733 81.9889 92.6339C81.5167 92.1795 80.8963 91.7634 80.5568 91.189C79.745 89.813 80.0692 87.9852 80.2862 86.4969C80.5389 84.7533 80.8197 83.2139 80.8504 81.4627C80.8989 78.7107 80.7687 75.9511 80.4547 73.217C80.1662 70.682 79.6607 68.2312 78.9179 65.7933C78.2286 63.534 77.501 61.2977 77.2075 58.9465C76.1787 50.6523 83.1173 44.2294 89.6322 40.3235C91.1077 39.4402 92.2029 38.6054 93.3415 37.2856C94.4315 36.0194 95.8815 34.5668 95.3633 32.7645C94.7583 30.6712 92.4378 29.1446 90.5359 28.3506C88.4936 27.498 86.1654 27.2376 83.9929 27.6946C81.8536 28.149 79.939 29.1676 78.3511 30.6686C78.0729 30.9341 77.7691 31.0822 77.4678 31.1384C77.4449 29.7802 77.307 28.4221 77.1232 27.0691C80.5211 24.478 84.8175 23.4058 89.0808 24.2252C93.4997 25.0753 98.8913 28.5115 99.0445 33.4946C99.1083 35.6237 97.9442 37.2039 96.6882 38.7841C95.5573 40.2112 94.3141 41.6765 92.7467 42.6389C89.1956 44.8114 85.7263 47.0707 83.1786 50.4481C82.0094 51.9977 81.0163 53.7872 80.71 55.7248C80.3449 58.0173 81.0035 60.4042 81.6545 62.5843C82.3948 65.081 83.1862 67.5241 83.5896 70.1025C84.0414 72.9795 84.3248 75.8847 84.3963 78.7949C84.455 81.0823 84.4167 83.3364 84.021 85.5906C83.8832 86.3845 83.73 87.1759 83.656 87.9775C83.6202 88.3834 83.6483 88.7893 83.6151 89.1927C83.6125 89.2259 83.61 89.2565 83.6125 89.2846C83.5487 89.2361 83.4875 89.185 83.4262 89.1365C83.5436 89.2284 83.5947 89.328 83.6125 89.3944C83.61 89.3663 83.6074 89.3305 83.6125 89.2846C85.2591 90.6146 86.7321 92.3659 87.9218 94.0865C89.6245 96.5525 90.6839 99.8227 88.4196 102.299C86.2216 104.701 82.7931 105.873 79.7067 106.57C76.4135 107.313 72.9927 107.632 69.6204 107.609C67.6624 107.596 65.2754 107.698 63.6135 106.509C61.2675 104.831 59.4116 102.358 57.6195 100.137C56.9047 99.2509 56.1541 98.3702 55.4904 97.4409C55.5542 97.4741 55.6104 97.5022 55.664 97.5124C55.5874 97.4869 55.5083 97.4282 55.4291 97.3516C55.4495 97.3822 55.4674 97.4129 55.4904 97.4409C55.2351 97.3005 54.9134 97.0223 54.7449 96.9355C53.3945 96.213 51.7377 95.7765 50.2366 96.2462C48.1126 96.9125 46.5682 99.3147 45.3964 101.071C44.1991 102.871 43.3465 105.043 41.7127 106.509C39.8567 108.171 37.7277 108.663 35.3076 108.885C31.4145 109.24 27.3937 109.373 23.5415 108.576C21.6141 108.178 19.6152 107.466 18.1524 106.103C17.3917 105.396 16.7866 104.466 16.5697 103.445C16.4395 102.835 16.4548 102.401 16.7254 101.809C17.3381 100.471 18.0937 99.1845 18.6962 97.8315C19.1199 96.8793 19.5361 95.9194 19.8501 95.1587C19.4876 96.0445 20.2458 97.1218 21.0882 97.3439C22.0966 97.6094 22.9084 96.9967 23.2709 96.1032C22.3314 98.3804 21.4686 100.88 20.159 102.97C20.1385 102.947 20.1232 102.93 20.113 102.919L20.0824 102.889C20.0824 102.876 20.0798 102.858 20.0747 102.84C20.0722 102.83 20.0696 102.812 20.0671 102.797C20.0773 102.728 20.0722 102.613 20.0083 102.526C20.0364 102.59 20.0517 102.715 20.0671 102.797C20.0645 102.833 20.0568 102.856 20.0466 102.858C20.0441 102.853 20.039 102.85 20.0364 102.848C20.0313 102.833 20.0288 102.797 20.0313 102.741C20.0339 102.733 20.0313 102.72 20.0313 102.71C20.0288 102.743 20.0211 102.782 20.0083 102.825C19.9624 102.789 19.9726 102.825 19.9981 102.863C19.9062 103.147 19.702 103.532 19.9905 103.279C20.0594 103.218 20.1053 103.065 20.1564 102.986C20.159 102.983 20.1615 102.978 20.1615 102.976C20.2713 103.108 20.4755 103.384 20.3938 103.318C20.5342 103.466 20.6797 103.609 20.8355 103.746C20.6466 103.632 21.0244 103.915 20.8406 103.752C20.861 103.762 20.8865 103.782 20.9223 103.803C21.0576 103.892 21.1903 103.981 21.3307 104.06C21.4839 104.152 21.6422 104.234 21.7979 104.313C22.1527 104.494 22.0506 104.441 22.2344 104.512C24.7617 105.493 27.5673 105.618 30.2427 105.602C32.3999 105.59 34.7715 105.61 36.8852 105.145C39.0654 104.666 40.0201 103.103 41.0693 101.309C43.1014 97.8366 45.8866 93.3487 50.1856 92.6314C52.5954 92.2306 56.052 92.9352 57.8696 94.7426C59.1052 95.9731 60.0855 97.6094 61.3951 99.1667C62.3167 100.267 63.2587 101.354 64.2696 102.373C64.6704 102.779 65.0814 103.2 65.5384 103.545C65.5894 103.583 65.6073 103.604 65.8141 103.724C65.8396 103.736 65.8575 103.752 65.8728 103.759C65.6073 103.69 66.0132 103.854 65.8728 103.759C65.883 103.762 65.8983 103.764 65.9111 103.769C66.0592 103.81 66.2123 103.836 66.3604 103.869C66.5136 103.9 66.557 103.907 66.5621 103.907C66.557 103.902 66.5519 103.9 66.5672 103.902C67.0956 103.966 67.6266 103.999 68.1551 104.022L68.15 104.017Z" fill="#2D2D2D"/>
<path d="M83.9637 88.9274C83.8999 88.8789 83.8386 88.8278 83.7773 88.7793C83.8948 88.8712 83.9458 88.9708 83.9637 89.0371C83.9611 89.0091 83.9586 88.9733 83.9637 88.9274Z" fill="#2D2D2D"/>
<path d="M53.5372 21.2607C54.0963 21.0769 54.7626 21.0565 55.337 20.9544C56.6645 20.717 57.9843 20.4489 59.2964 20.1375C59.493 20.0915 59.6845 20.043 59.8811 19.9971C60.0929 21.4139 60.2053 22.8512 60.2614 24.2552C59.9398 24.3139 59.6258 24.3676 59.3169 24.4212C57.1955 24.7888 55.0536 25.0441 52.9016 25.2151C52.2021 25.2713 51.5026 25.3198 50.8006 25.353C50.5759 25.3632 49.5548 25.3121 50.3232 25.4321C48.646 25.1666 47.9235 27.7322 49.616 28.0003C50.6729 28.1687 51.8447 27.962 52.899 27.8803C55.2859 27.6914 57.6652 27.3978 60.0215 26.9919C60.1134 26.9766 60.2027 26.9613 60.2946 26.9459C60.2946 27.1068 60.2946 27.265 60.2921 27.4233C60.2691 29.2256 60.1772 31.0918 59.9602 32.9528C58.7961 33.0804 57.6269 33.1366 56.4551 33.1366C56.0237 33.1366 55.5897 33.1315 55.1608 33.1085C54.9847 33.1009 54.4614 33.0089 54.6809 33.0626C54.6426 33.0626 54.6094 33.0626 54.5711 33.0651C54.5686 33.0677 54.566 33.0677 54.566 33.0677C53.1543 33.1672 52.6565 35.3499 54.2112 35.6818C54.3261 35.7073 54.446 35.7277 54.5635 35.7482C56.1386 36.0188 57.8975 35.8835 59.5441 35.6818C58.962 38.735 57.9792 41.6937 56.3785 44.2849C55.4723 45.7477 57.7775 47.0854 58.6761 45.6277C60.5882 42.5362 61.7012 38.9545 62.3114 35.2912C64.0218 34.9976 65.699 34.5585 67.3047 33.9356C67.1056 35.2708 66.784 36.5829 66.2861 37.8338C65.6505 39.4243 68.2238 40.1161 68.8518 38.541C69.5997 36.6672 69.9827 34.6326 70.146 32.5775C71.1212 32.0133 72.0454 31.3573 72.9108 30.6016C74.2025 29.4707 72.3134 27.5918 71.0268 28.7176C70.7715 28.9397 70.5086 29.1541 70.2405 29.3558C70.2303 28.6742 70.2048 27.9977 70.1665 27.334C70.1078 26.2873 70.0235 25.2202 69.8882 24.1557C71.4735 23.3464 72.8853 22.3074 73.9523 20.9569C75.0016 19.6244 73.1303 17.7276 72.0684 19.0729C71.3433 19.992 70.4371 20.7451 69.4108 21.3654C69.079 19.8873 68.6118 18.4475 67.9481 17.1098C68.2876 16.9311 68.622 16.7422 68.9513 16.5431C70.4167 15.6572 69.079 13.352 67.6085 14.2455C65.842 15.3152 63.9069 16.081 61.9233 16.6835C61.3668 14.5289 60.5371 12.4892 59.299 10.7405C58.3187 9.35425 56.0058 10.6817 57.0014 12.0858C58.1068 13.6507 58.8548 15.4632 59.3501 17.3855C58.9876 17.4749 58.6225 17.5617 58.26 17.6434C56.7283 17.9982 55.0306 18.1054 53.4887 18.4986C53.2666 18.5547 53.0445 18.616 52.8275 18.6875C51.6813 19.0653 51.4464 21.0055 52.8275 21.2556H52.8352C53.0905 21.3016 53.3279 21.2812 53.5347 21.2097V21.2556L53.5372 21.2607ZM77.991 27.2753C78.139 29.2333 78.0931 31.1811 77.8582 33.0447C77.2736 33.4123 77.9476 35.3831 77.3681 35.7762C75.8619 36.8025 75.4611 37.3998 76.8294 37.5581C74.2995 44.4202 67.3405 48.2597 60.4171 50.1615C54.8188 51.6983 48.3192 51.586 42.611 50.7155C37.0228 49.8629 31.3989 47.7644 27.5952 43.4067C27.5211 43.3225 27.4497 43.2357 27.3756 43.1514C25.6244 41.1219 24.0927 38.9035 23.3243 36.3098C22.8239 34.6121 22.6631 32.8788 22.6963 31.1403C24.1999 31.4236 23.5157 29.5141 22.127 28.207C21.716 27.819 23.4825 27.408 23.0383 27.071C23.069 26.8234 23.1047 26.5758 23.1405 26.3307C23.48 23.9795 23.845 21.6896 24.6773 19.4482C25.8439 16.3057 27.6335 13.4107 29.834 10.886C30.5335 10.0818 31.3785 9.41297 32.3307 8.93303C34.6615 7.76128 39.7442 5.63475 46.9432 5.0042C57.0602 4.12092 65.2369 6.87289 69.5257 10.0282C74.7463 13.8651 77.4906 20.6174 77.9935 27.2753H77.991Z" fill="#0CACCF"/>
<path d="M65.6009 18.3601C66.2545 19.6518 66.6833 21.0814 66.9693 22.5493C65.6571 23.0573 64.2632 23.4351 62.8949 23.7389C62.8285 22.2736 62.6932 20.7751 62.4609 19.2995C63.5051 18.9906 64.539 18.6383 65.5473 18.2324C65.5601 18.2733 65.5805 18.3167 65.6035 18.3626L65.6009 18.3601Z" fill="#0CACCF"/>
<path d="M67.5211 27.7202C67.5696 28.7873 67.5926 29.8723 67.5594 30.9598C66.0149 31.6899 64.3556 32.1928 62.6758 32.5349C62.8519 30.8117 62.9336 29.0937 62.954 27.419C62.9566 27.0948 62.9591 26.7655 62.9591 26.4336C64.4117 26.1247 65.9102 25.7443 67.3475 25.2363C67.4292 26.0762 67.4828 26.911 67.5211 27.7202Z" fill="#0CACCF"/>
<path d="M72.0716 19.0763C73.131 17.7309 75.0022 19.6277 73.9556 20.9603C72.891 22.3107 71.4768 23.3498 69.8914 24.159C69.7766 23.2221 69.6208 22.2903 69.4141 21.3713C70.4378 20.7484 71.3466 19.9979 72.0716 19.0788V19.0763Z" fill="#2D2D2D"/>
<path d="M71.0292 28.7182C72.3158 27.5924 74.2024 29.4687 72.9132 30.6022C72.0478 31.3604 71.1236 32.0139 70.1484 32.5781C70.2327 31.5033 70.2582 30.4235 70.2429 29.3564C70.5135 29.1547 70.7739 28.9403 71.0292 28.7182Z" fill="#2D2D2D"/>
<path d="M70.2424 29.3584C70.2577 30.4229 70.2348 31.5053 70.148 32.5801C69.2391 33.1085 68.2869 33.5578 67.3066 33.9382C67.4522 32.9554 67.5287 31.9598 67.5619 30.9616C68.5065 30.5174 69.4051 29.9864 70.2399 29.3584H70.2424Z" fill="#2D2D2D"/>
<path d="M70.1674 27.3375C70.2056 28.0012 70.2312 28.6752 70.2414 29.3593C69.4066 29.9873 68.508 30.5183 67.5634 30.9625C67.5966 29.875 67.5737 28.79 67.5252 27.723C67.4869 26.9137 67.4333 26.0789 67.3516 25.239C68.2272 24.9301 69.0824 24.5753 69.8891 24.1592C70.0244 25.2237 70.1086 26.2934 70.1674 27.3375Z" fill="#2D2D2D"/>
<path d="M69.4132 21.3701C69.62 22.2891 69.7731 23.2235 69.8906 24.1578C69.0839 24.5739 68.2287 24.9288 67.353 25.2377C67.2688 24.3442 67.1462 23.4405 66.9727 22.5521C67.8304 22.2228 68.655 21.8296 69.4132 21.3701Z" fill="#2D2D2D"/>
<path d="M70.1495 32.5801C69.9861 34.6326 69.6032 36.6672 68.8552 38.5435C68.2272 40.1186 65.654 39.4268 66.2896 37.8364C66.7874 36.5855 67.1091 35.2733 67.3082 33.9382C68.2885 33.5578 69.2407 33.1085 70.1495 32.5801Z" fill="#2D2D2D"/>
<path d="M67.611 14.2462C69.0814 13.3553 70.4191 15.658 68.9538 16.5438C68.627 16.7429 68.29 16.9318 67.9505 17.1105C67.9352 17.0773 67.9173 17.0467 67.902 17.0135C67.154 15.5278 64.9611 16.7557 65.5483 18.2287C64.5399 18.6371 63.506 18.9894 62.4619 19.2958C62.3215 18.415 62.1453 17.5394 61.9258 16.6842C63.9068 16.0817 65.8418 15.3159 67.611 14.2462Z" fill="#2D2D2D"/>
<path d="M67.953 17.1133C68.6167 18.451 69.0814 19.8908 69.4158 21.3689C68.655 21.8284 67.833 22.219 66.9753 22.5508C66.6894 21.083 66.2605 19.6508 65.6069 18.3616C65.584 18.3182 65.5661 18.2723 65.5508 18.2314C66.3728 17.9021 67.1769 17.5319 67.953 17.1133Z" fill="#2D2D2D"/>
<path d="M67.9036 17.0164C67.9189 17.0495 67.9368 17.0802 67.9521 17.1134C67.176 17.532 66.3719 17.8996 65.5499 18.2315C64.9627 16.7585 67.1556 15.5306 67.9036 17.0164Z" fill="#2D2D2D"/>
<path d="M67.567 30.959C67.5338 31.9546 67.4572 32.9528 67.3117 33.9356C65.706 34.5585 64.0288 34.995 62.3184 35.2912C62.469 34.3747 62.5915 33.4557 62.6834 32.5366C64.3632 32.1946 66.0225 31.6917 67.567 30.9615V30.959Z" fill="#2D2D2D"/>
<path d="M66.9728 22.5514C67.1464 23.4398 67.2664 24.3435 67.3532 25.237C65.9159 25.745 64.4174 26.1254 62.9648 26.4343C62.9623 25.5561 62.9444 24.6524 62.8984 23.7385C64.2668 23.4347 65.6606 23.0594 66.9728 22.5488V22.5514Z" fill="#2D2D2D"/>
<path d="M62.9631 26.4346C62.9631 26.7664 62.9605 27.0958 62.958 27.42C62.9376 29.0946 62.8559 30.8127 62.6797 32.5359C61.9853 32.6763 61.2935 32.7886 60.6017 32.878C60.3873 32.906 60.1754 32.929 59.9609 32.952C60.1779 31.091 60.2724 29.2248 60.2928 27.4225C60.2954 27.2668 60.2954 27.106 60.2954 26.9451C61.148 26.7945 62.0466 26.6286 62.9631 26.4371V26.4346Z" fill="#2D2D2D"/>
<path d="M62.8988 23.7402C62.9448 24.6542 62.9626 25.5579 62.9652 26.436C62.0487 26.6275 61.1501 26.7934 60.2975 26.9441C60.3026 26.0735 60.2949 25.1724 60.2617 24.2585C61.1093 24.1078 61.9977 23.9419 62.8988 23.7402Z" fill="#2D2D2D"/>
<path d="M62.4604 19.2998C62.6953 20.7754 62.828 22.2764 62.8944 23.7392C61.9933 23.9409 61.1049 24.1043 60.2573 24.2574C60.2012 22.8534 60.0888 21.4161 59.877 19.9993C60.7398 19.7874 61.6001 19.5551 62.4579 19.2998H62.4604Z" fill="#2D2D2D"/>
<path d="M62.6818 32.5348C62.5873 33.4538 62.4673 34.3728 62.3167 35.2893C61.9593 35.3506 61.6019 35.4042 61.242 35.4552C60.7008 35.5293 60.1289 35.6084 59.5469 35.6799C59.7179 34.7736 59.8558 33.8623 59.963 32.9483C60.1774 32.9254 60.3893 32.9024 60.6038 32.8743C61.2956 32.785 61.9874 32.6726 62.6818 32.5322V32.5348Z" fill="#2D2D2D"/>
<path d="M62.3141 35.2881C61.704 38.9514 60.5909 42.5331 58.6788 45.6246C57.7777 47.0797 55.475 45.742 56.3813 44.2818C57.9845 41.6906 58.9673 38.7319 59.5468 35.6787C60.1314 35.6072 60.7007 35.5281 61.2419 35.454C61.5993 35.4055 61.9567 35.3494 62.3166 35.2881H62.3141Z" fill="#2D2D2D"/>
<path d="M61.9287 16.6875C62.1483 17.5427 62.3244 18.4183 62.4648 19.2991C61.6071 19.5543 60.7442 19.7867 59.8839 19.9985C59.7486 19.1178 59.5776 18.2422 59.3555 17.3895C60.2132 17.1776 61.0761 16.9453 61.9287 16.6875Z" fill="#2D2D2D"/>
<path d="M60.2624 24.259C60.2956 25.1729 60.3033 26.0766 60.2982 26.9446C60.2063 26.9599 60.1169 26.9752 60.025 26.9906C57.6687 27.399 55.2895 27.69 52.9026 27.8789C51.8483 27.9606 50.6765 28.1674 49.6196 27.9989C47.9271 27.7309 48.6495 25.1653 50.3268 25.4308C49.5558 25.3108 50.5769 25.3618 50.8041 25.3516C51.5062 25.3184 52.2057 25.2699 52.9051 25.2138C55.0546 25.0427 57.1965 24.79 59.3204 24.4198C59.6293 24.3688 59.9433 24.3126 60.265 24.2539L60.2624 24.259Z" fill="#2D2D2D"/>
<path d="M59.3039 10.7444C60.5395 12.4931 61.3717 14.5329 61.9282 16.6875C61.0756 16.9453 60.2127 17.1776 59.3549 17.3895C58.8597 15.4672 58.1142 13.6547 57.0063 12.0898C56.0133 10.6857 58.3261 9.3557 59.3039 10.7444Z" fill="#2D2D2D"/>
<path d="M54.9226 33.1116C54.8077 33.0861 54.7337 33.0708 54.6877 33.0605C56.2833 33.0605 56.2348 35.6108 54.5754 35.7283H54.5703C54.6877 34.8552 54.8052 33.9847 54.9226 33.1142V33.1116Z" fill="#2D2D2D"/>
<path d="M54.5741 35.7296C56.2334 35.6122 56.2845 33.0619 54.6864 33.0619H54.6838C54.4643 33.0109 54.9876 33.1002 55.1638 33.1079C55.5927 33.1308 56.0266 33.136 56.4581 33.136C57.6273 33.136 58.799 33.0772 59.9631 32.9521C59.8559 33.8661 59.7181 34.7774 59.547 35.6837C57.9004 35.8854 56.1415 36.0207 54.5664 35.7501V35.7296H54.5741Z" fill="#2D2D2D"/>
<path d="M54.6837 33.0605C54.7271 33.0708 54.8012 33.0886 54.9186 33.1116C54.8012 33.9847 54.6837 34.8552 54.5663 35.7257V35.7461C54.4463 35.7257 54.3263 35.7053 54.2115 35.6798C52.6568 35.3479 53.1546 33.1627 54.5663 33.0657C54.5663 33.0657 54.5689 33.0657 54.5714 33.0631C54.6097 33.0605 54.6429 33.0605 54.6812 33.0605H54.6837Z" fill="#2D2D2D"/>
<path d="M53.5467 18.6934C54.9763 18.9512 54.6802 20.8301 53.5391 21.2156V18.6934H53.5467Z" fill="#2D2D2D"/>
<path d="M53.5477 18.6965H53.5401L53.4941 18.5076C55.0361 18.1144 56.7337 18.0072 58.2654 17.6524C58.6279 17.5707 58.993 17.4813 59.3555 17.3945C59.5776 18.2472 59.7486 19.1228 59.8839 20.0035C59.6874 20.0495 59.4959 20.098 59.2993 20.144C57.9897 20.4554 56.6673 20.726 55.3398 20.9609C54.7655 21.063 54.0992 21.0808 53.5401 21.2672V21.2213C54.6838 20.8358 54.9773 18.9594 53.5477 18.699V18.6965Z" fill="#2D2D2D"/>
<path d="M53.5339 18.6948V21.217C53.3271 21.2885 53.0897 21.3114 52.8344 21.2629H52.8267C51.4456 21.0128 51.6805 19.0726 52.8267 18.6948C53.0437 18.6233 53.2633 18.5595 53.4879 18.5059L53.5339 18.6948Z" fill="#2D2D2D"/>
<path d="M22.9268 33.0447C22.6919 31.1811 22.646 29.2307 22.794 27.2753C23.2969 20.62 26.0412 13.8651 31.2618 10.0282C35.5506 6.87289 43.7274 4.12092 53.8443 5.0042C61.0433 5.63475 66.1261 7.75872 68.4568 8.93303C69.409 9.41297 70.254 10.0818 70.9535 10.886C73.1541 13.4107 74.9436 16.3031 76.1103 19.4482C76.9425 21.6896 77.3075 23.9795 77.6471 26.3307C77.6828 26.5758 77.7186 26.8234 77.7492 27.071C77.933 28.4215 78.0708 29.7821 78.0938 31.1403C78.127 32.8813 77.9662 34.6121 77.4658 36.3098C76.6974 38.9035 75.1657 41.1219 73.4145 43.1514C73.3404 43.2357 73.2689 43.3225 73.1949 43.4067C69.3912 47.7644 63.7672 49.8629 58.1791 50.7155C52.4734 51.586 45.9739 51.6984 40.3729 50.1615C33.4496 48.2597 26.4905 44.4227 23.9607 37.5581C23.7488 36.9863 23.5675 36.394 23.422 35.7762C23.2127 34.8929 23.0467 33.9816 22.9319 33.0447H22.9268Z" stroke="#2D2D2D" stroke-width="2.55285" stroke-miterlimit="10"/>
<path d="M127.884 32.2703C125.855 32.2703 125.857 29.1201 127.884 29.1201C129.911 29.1201 129.911 32.2703 127.884 32.2703Z" fill="#2D2D2D"/>
<path d="M138.144 31.3051C136.112 31.3051 136.115 28.1523 138.144 28.1523C140.174 28.1523 140.171 31.3051 138.144 31.3051Z" fill="#2D2D2D"/>
<path d="M139.678 34.2943C139.421 37.1254 137.067 38.8179 134.353 39.0502C131.841 39.2647 128.482 38.7669 127.644 35.9919C127.203 34.5317 129.485 33.9113 129.924 35.3639C130.348 36.768 132.717 36.7705 133.891 36.7144C135.339 36.6454 137.161 35.9715 137.315 34.2917C137.45 32.7881 139.814 32.7779 139.678 34.2917V34.2943Z" fill="#2D2D2D"/>
<path d="M143.602 47.2697C143.602 47.2697 143.762 47.2492 144.053 47.2109C143.887 47.2109 143.739 47.2314 143.602 47.2697Z" fill="#2D2D2D"/>
<path d="M144.049 47.2123C144.108 47.2123 144.169 47.2148 144.233 47.2225C150.4 47.8837 157.204 48.7542 163.213 46.7247C164.227 46.3826 165.529 45.8006 165.761 44.6288C166.024 43.2784 164.903 42.0224 164.017 41.1748C161.694 44.7182 146.839 46.8421 144.051 47.2123H144.049Z" fill="#FDB804"/>
<path d="M165.761 44.6286C165.532 45.8003 164.23 46.3824 163.214 46.7245C157.204 48.754 150.401 47.8835 144.233 47.2223C144.169 47.2146 144.108 47.2121 144.049 47.2121C143.758 47.2504 143.598 47.2708 143.598 47.2708L148.103 49.2722L158.195 49.8415L166.509 46.4309C166.509 46.4309 166.581 37.2636 164.015 41.1771C164.901 42.0247 166.022 43.2807 165.759 44.6311L165.761 44.6286Z" fill="#2D2D2D"/>
<path d="M180.175 62.9798C175.868 57.5244 170.216 53.1794 163.969 50.1364C164.881 49.8275 165.743 49.4319 166.512 48.9162C169.478 46.9428 169.915 43.282 167.88 40.4254C166.803 38.9141 165.32 37.7832 163.913 36.6012C162.537 35.4422 161.161 34.2858 159.783 33.1268C161.917 30.574 163.484 27.5744 164.276 24.3271C165.072 21.0697 165.48 16.883 163.676 13.8707C161.608 10.4243 157.413 10.7919 153.998 11.5119C150.368 12.2777 146.689 13.8732 143.161 12.2854C141.057 10.7077 140.455 8.04253 139.48 5.74752C138.507 3.46272 136.618 1.40512 134.305 0.452912C132.002 -0.496748 129.503 0.0801958 127.89 1.99228C126.225 3.96818 125.904 6.56954 124.964 8.89263C124.494 10.0516 123.958 11.1825 123.455 12.3262C122.993 13.3831 122.621 14.5625 121.666 15.285C120.081 16.4899 117.65 16.3725 115.777 16.5767C111.355 17.0592 105.8 18.3433 103.827 22.8618C102.606 25.6546 103.285 28.8202 105.044 31.2275C106.834 33.6782 109.443 35.164 112.126 36.4481C111.253 37.6683 110.413 38.9116 109.56 40.1523C108.514 41.6763 107.237 43.1008 106.53 44.824C105.491 47.3538 105.397 51.2035 107.47 53.2841C107.904 53.7206 108.383 54.0525 108.894 54.3001C107.827 55.1528 106.79 56.0412 105.767 56.9245C103.359 58.9974 100.924 61.1622 98.9532 63.6665C95.0627 68.6089 94.9095 79.4457 103.091 79.6857C107.161 79.8082 110.589 77.6025 113.78 75.3075C114.066 79.0296 114.352 82.7516 114.641 86.4737C114.873 89.5218 115.133 92.5648 114.955 95.6231C114.875 96.9889 114.712 98.3393 114.421 99.677C114.084 101.229 113.425 102.626 112.984 104.132C112.45 105.952 113.101 107.767 114.694 108.798C116.384 109.891 118.858 109.97 120.795 110.185C123.831 110.519 126.881 110.427 129.901 109.993C132.286 109.651 134.816 109.043 136.255 106.927C137.072 105.73 137.363 104.318 137.67 102.927C137.843 102.133 138.39 99.4524 139.74 100.017C140.682 100.415 140.677 102.529 140.667 103.297C140.646 104.944 140.161 106.491 139.337 107.907C139.298 107.969 139.268 108.032 139.242 108.094C138.058 110.532 140.238 112.773 142.507 113.554C145.068 114.435 148.361 113.815 150.97 113.404C156.063 112.602 161.161 109.899 162.731 104.66C162.823 104.351 162.831 104.068 162.777 103.815C164.891 95.7507 165.925 87.0966 165.376 78.7054C165.422 78.7411 165.463 78.7768 165.506 78.8151C167.742 80.6353 169.818 82.6648 172.925 81.7024C174.206 81.3067 175.503 80.5281 176.218 79.4738C177.336 79.7725 178.5 79.8261 179.641 79.4431C181.597 78.7871 182.86 76.9873 183.491 75.0982C184.943 70.7328 182.85 66.3624 180.182 62.9824L180.175 62.9798ZM179.439 75.5654C178.434 76.7192 177.001 76.298 175.814 75.6726C174.357 74.9016 172.963 76.2597 173.359 77.6791C173.315 77.7225 173.241 77.7889 173.111 77.8731C172.713 78.131 172.312 78.3301 171.852 78.4552C170.88 78.7232 170.183 78.2816 169.42 77.6715C167.788 76.3746 166.203 75.0088 164.661 73.6022C164.569 73.4873 164.457 73.3878 164.332 73.3035C164.222 73.204 164.112 73.1044 164.002 73.0049C160.426 69.6913 156.905 66.4083 152.502 64.2077C150.544 63.2274 148.813 66.1734 150.779 67.1563C154.955 69.242 158.284 72.3794 161.674 75.4709C162.871 84.6637 161.741 94.5152 159.346 103.419C159.277 103.68 159.267 103.922 159.297 104.142C158.218 107.106 155.32 108.837 152.372 109.631C150.523 110.128 148.624 110.317 146.72 110.44C145.905 110.493 145.058 110.583 144.243 110.47C143.807 110.409 143.424 110.287 143.041 110.059C142.872 109.962 142.714 109.85 142.566 109.722C142.484 109.587 142.421 109.5 142.372 109.457C143.728 107.039 144.317 104.29 143.947 101.533C143.636 99.1945 142.255 96.5855 139.577 96.5268C136.7 96.463 135.058 99.1052 134.466 101.579C134.198 102.702 134.106 104.053 133.417 105.018C132.722 105.995 131.451 106.261 130.343 106.475C127.303 107.068 124.109 107.108 121.033 106.789C119.562 106.639 118.082 106.383 116.652 106.003C116.836 106.11 117.063 106.118 116.652 106.003C116.65 106.003 116.644 106.003 116.639 105.998H116.637C116.604 105.977 116.573 105.954 116.547 105.931C116.445 105.827 116.262 105.845 116.203 105.584C116.027 104.806 116.839 103.624 117.081 102.881C117.579 101.37 117.89 99.8149 118.102 98.2398C118.503 95.2836 118.48 92.3069 118.266 89.3354C117.724 81.8913 117.119 74.4523 116.547 67.0133C116.382 64.8357 112.966 64.8179 113.134 67.0133C113.244 68.4506 113.354 69.8904 113.466 71.3276C113.456 71.3353 113.446 71.3404 113.438 71.3455C110.883 73.1989 108.039 75.6011 104.845 76.1474C103.628 76.3567 101.897 76.4971 100.934 75.5577C99.9769 74.6157 99.7651 73.0687 99.7548 71.7923C99.7395 69.3849 100.413 67.1435 101.978 65.3182C103.773 63.2249 105.841 61.3511 107.921 59.5488C109.831 57.8945 111.789 56.2046 113.933 54.849C114.791 54.7648 115.636 54.6346 116.43 54.5299C120.356 54.0066 124.02 52.9497 127.535 51.0938C129.478 50.0675 127.754 47.1215 125.812 48.1452C125.263 48.4337 124.709 48.6966 124.15 48.9443H126.024L118.853 51.9209L111.952 52.5285L108.503 51.5814V47.2109C108.503 47.2109 108.741 47.4355 109.254 47.724C109.354 46.7488 109.736 45.8068 110.273 44.995C112.011 42.3579 113.877 39.7361 115.769 37.2037C116.032 36.8514 116.121 36.4991 116.088 36.1775C115.965 36.2796 115.833 36.3638 115.685 36.42C114.362 36.9382 108.501 32.6801 108.501 32.6801L104.986 27.4697L106.193 26.0069C106.193 26.0069 106.349 26.1192 106.625 26.3031C106.54 25.4504 106.683 24.5875 107.153 23.7936C109.147 20.4213 114.304 20.1456 117.742 19.7958C119.654 19.5993 121.668 19.3644 123.315 18.2794C125.145 17.072 125.865 15.2288 126.726 13.3116C127.701 11.1315 128.605 8.97432 129.276 6.67675C129.748 5.05825 130.792 2.80919 132.853 3.52909C135.257 4.36898 136.169 6.72526 137.003 8.86965C137.723 10.7256 138.612 12.4487 139.921 13.8707C140.018 14.2408 140.261 14.588 140.69 14.8408C140.948 14.9914 141.205 15.1267 141.468 15.2543C141.496 15.2747 141.527 15.3003 141.558 15.3207C141.818 15.5071 142.073 15.599 142.318 15.6219C145.019 16.6609 147.851 16.5001 150.758 15.8211C152.359 15.4483 153.937 14.9582 155.56 14.6672C156.926 14.4247 158.925 14.0085 160.127 14.9122C161.258 15.7623 161.59 17.3783 161.585 19.03C161.799 18.4658 161.922 18.1186 161.922 18.1186L163.727 22.678C163.727 22.678 157.914 34.5054 156.51 34.2041C156.306 34.1607 156.104 34.0918 155.907 34.0101C155.989 34.2603 156.15 34.5054 156.413 34.7275C158.943 36.8565 161.628 38.886 164.015 41.1708C166.581 37.2573 166.509 46.4246 166.509 46.4246L158.195 49.8352L148.103 49.2659L143.597 47.2645C142.081 47.6959 142.306 50.4249 144.233 50.6317C148.236 51.0606 152.264 51.4639 156.295 51.2776C156.778 51.2571 157.278 51.2291 157.786 51.1959C157.837 51.2188 157.888 51.2444 157.944 51.2622C164.457 53.5904 170.379 57.4299 175.166 62.4259C177.433 64.7898 179.976 67.6183 180.461 70.9907C180.68 72.4994 180.478 74.3604 179.439 75.5577V75.5654Z" fill="#2D2D2D"/>
<path d="M109.263 47.7236C109.245 47.9074 109.232 48.0938 109.235 48.2802C109.245 49.0766 109.299 50.2612 109.886 50.8636C110.58 51.581 111.803 51.5835 112.722 51.535C112.798 51.5325 112.878 51.5223 112.954 51.5197C113.176 51.4533 113.393 51.4406 113.598 51.4712C114.723 51.3742 115.849 51.2057 116.96 51.0321C119.467 50.639 121.861 49.9599 124.159 48.9439H114.871C111.969 48.9439 110.179 48.2342 109.265 47.7236H109.263Z" fill="#FDB804"/>
<path d="M113.593 51.4736C113.389 51.443 113.172 51.4557 112.95 51.5221C112.873 51.5221 112.794 51.5349 112.717 51.5374C111.798 51.5859 110.576 51.5834 109.881 50.866C109.294 50.2635 109.24 49.079 109.23 48.2825C109.23 48.0962 109.24 47.9098 109.258 47.726C108.745 47.4375 108.508 47.2129 108.508 47.2129V51.5834L111.957 52.5305L118.857 51.9229L126.028 48.9463H124.154C121.857 49.9623 119.462 50.6414 116.955 51.0345C115.847 51.2081 114.719 51.3766 113.593 51.4736Z" fill="#2D2D2D"/>
<path d="M117.269 33.3729C117.269 33.3729 117.646 30.6695 113.85 29.73C110.812 28.9795 107.739 27.047 106.631 26.3066C106.756 27.578 107.392 28.8263 108.242 29.7913C109.983 31.7774 112.518 32.8853 114.864 33.9728C115.551 34.2894 115.793 34.8459 115.739 35.4024C115.933 35.622 116.061 35.8875 116.092 36.176C117.064 35.3667 117.266 33.3704 117.266 33.3704L117.269 33.3729Z" fill="#FDB804"/>
<path d="M114.866 33.975C112.517 32.8875 109.985 31.777 108.244 29.7935C107.394 28.8259 106.758 27.5801 106.633 26.3088C106.357 26.125 106.202 26.0127 106.202 26.0127L104.994 27.4755L108.509 32.6858C108.509 32.6858 114.371 36.9414 115.693 36.4258C115.841 36.367 115.974 36.2854 116.096 36.1832C116.066 35.8948 115.938 35.6293 115.744 35.4097C115.798 34.8532 115.553 34.2967 114.869 33.9801L114.866 33.975Z" fill="#2D2D2D"/>
<path d="M155.96 28.5956C153.254 29.849 153.856 32.555 153.856 32.555C153.856 32.555 154.77 33.5404 155.911 34.0153C155.789 33.6349 155.852 33.2392 156.041 32.8946C156.021 32.4861 156.156 32.0598 156.514 31.682C158.798 29.244 160.368 26.2572 161.086 22.9946C161.31 21.976 161.581 20.4903 161.586 19.0352C160.685 21.3914 158.145 27.5872 155.962 28.5981L155.96 28.5956Z" fill="#FDB804"/>
<path d="M156.512 31.6842C156.155 32.062 156.019 32.4883 156.04 32.8968C155.851 33.2414 155.785 33.6371 155.91 34.0175C156.106 34.0991 156.305 34.1681 156.512 34.2115C157.916 34.5127 163.729 22.6854 163.729 22.6854L161.924 18.126C161.924 18.126 161.802 18.4732 161.587 19.0373C161.582 20.495 161.311 21.9808 161.087 22.9968C160.369 26.2619 158.799 29.2462 156.515 31.6842H156.512Z" fill="#2D2D2D"/>
</g>
<defs>
<clipPath id="clip0_1602_5333">
<rect width="184" height="90" fill="white"/>
</clipPath>
</defs>
</svg>
