<svg width="387" height="414" viewBox="0 0 387 414" fill="none" xmlns="http://www.w3.org/2000/svg">
<g clip-path="url(#clip0_1619_6269)">
<path d="M258.8 393.05C258.8 393.05 258.76 393.02 258.82 393.03C260.89 393.28 262.97 393.41 265.04 393.5C270.24 393.74 275.46 393.68 280.65 393.44C293.06 392.83 305.58 391.11 317.37 387.06C324.06 384.77 337.08 379.63 335.54 371.82C333.78 362.93 325.52 354.94 319.25 348.91C317.4 347.13 314.97 345.5 313.64 343.25C310.46 337.86 311.73 330.7 312.58 324.87C313.57 318.04 314.67 312.01 314.79 305.15C314.98 294.37 314.47 283.56 313.24 272.85C312.11 262.92 310.13 253.32 307.22 243.77C304.52 234.92 301.67 226.16 300.52 216.95C296.49 184.46 323.67 159.3 349.19 144C354.97 140.54 359.26 137.27 363.72 132.1C367.99 127.14 373.67 121.45 371.64 114.39C369.27 106.19 360.18 100.21 352.73 97.0999C344.73 93.7599 335.61 92.7399 327.1 94.5299C318.72 96.3099 311.22 100.3 305 106.18C303.91 107.22 302.72 107.8 301.54 108.02C301.67 114.84 301.04 121.62 299.08 128.27C296.07 138.43 290.07 147.12 283.21 155.07C282.92 155.4 282.64 155.74 282.35 156.07C267.45 173.14 245.42 181.36 223.53 184.7C201.18 188.11 175.72 188.55 153.78 182.53C126.66 175.08 99.3996 160.05 89.4896 133.16C88.1596 133.31 86.7096 132.98 85.2396 131.97C73.2496 123.79 60.8796 115.74 45.8796 115.27C34.0096 114.89 20.9196 127.4 17.4796 138.3C14.8596 146.62 12.7996 153.73 14.4196 162.4C16.0996 171.43 21.0496 177.63 29.6096 179.97C30.2896 180 31.0196 180.16 31.7896 180.47C32.8796 180.67 33.7596 181.05 34.4896 181.57C34.4896 181.57 34.4963 181.573 34.5096 181.58C64.3296 194.06 89.2396 215.5 106.09 243.16C109.55 248.84 103.84 254.16 98.7596 253.42C102.79 289.97 103.32 327.96 89.2496 362.47C85.5696 371.39 82.1896 381.18 77.0596 389.37C77.4896 389.89 78.2896 390.97 77.9696 390.71C78.5196 391.29 79.0896 391.85 79.6996 392.39L79.7196 392.41C79.7996 392.45 79.8996 392.53 80.0396 392.61C80.5696 392.96 81.0896 393.31 81.6396 393.62C82.2396 393.98 82.8596 394.3 83.4696 394.61C84.8596 395.32 84.4596 395.11 85.1796 395.39C95.0796 399.23 106.07 399.72 116.55 399.66C125 399.61 134.29 399.69 142.57 397.87C151.11 395.99 154.85 389.87 158.96 382.84C166.92 369.24 177.83 351.66 194.67 348.85C204.11 347.28 217.65 350.04 224.77 357.12C229.61 361.94 233.45 368.35 238.58 374.45C242.19 378.76 245.88 383.02 249.84 387.01C251.41 388.6 253.02 390.25 254.81 391.6C255.01 391.75 255.08 391.83 255.89 392.3C255.99 392.35 256.06 392.41 256.12 392.44C256.16 392.45 256.22 392.46 256.27 392.48C256.85 392.64 257.45 392.74 258.03 392.87C258.63 392.99 258.8 393.02 258.82 393.02L258.8 393.05Z" fill="#0CACCF"/>
<path d="M224.33 208.57C140.43 219.84 104.26 181.02 104.26 181.02C104.26 181.02 72.2405 153.73 84.9005 104.96C85.1305 105.17 85.3605 105.37 85.5905 105.59C86.5705 106.52 87.6405 107.09 88.7105 107.35C89.0505 113.66 89.9305 119.81 91.3105 125.61C98.7805 156.9 128.33 173.88 157.73 181.95C179.65 187.97 205.11 187.52 227.47 184.12C249.37 180.78 271.4 172.56 286.29 155.49L287.16 154.49C292.28 148.55 296.93 142.17 300.21 135.08C296.4 160.33 281.32 200.91 224.33 208.57Z" fill="#0684B5"/>
<path d="M0.46011 149.08C-2.23989 168.81 6.94011 189.98 28.0801 193.9C20.6101 190.95 22.8701 179.58 29.6001 179.99C21.0401 177.65 16.0901 171.45 14.4101 162.42C12.7901 153.75 14.8501 146.64 17.4701 138.32C20.9101 127.42 34.0001 114.91 45.8701 115.29C60.8701 115.76 73.2401 123.81 85.2301 131.99C86.7001 132.99 88.1501 133.33 89.4801 133.18C88.6501 130.94 87.9401 128.62 87.3701 126.2C86.5501 122.74 85.9001 119.17 85.4501 115.5C73.8601 108.16 61.8101 102.43 47.6101 101.47C33.3701 100.5 20.7401 109.51 11.9701 120.17C5.36011 128.21 1.87011 138.83 0.46011 149.08Z" fill="black"/>
<path d="M29.5997 179.98C22.8697 179.57 20.6097 190.94 28.0797 193.89C35.7497 195.31 39.5597 185.22 34.4997 181.59C34.4997 181.59 34.493 181.587 34.4797 181.58C33.5797 181.2 32.6897 180.84 31.7797 180.48C31.0297 180.34 30.2997 180.18 29.5997 179.98Z" fill="black"/>
<path d="M34.4903 181.59C39.5603 185.22 35.7403 195.32 28.0703 193.89C51.2703 203.08 71.3303 218.88 86.2603 238.7C87.5503 237.7 89.1603 237.08 90.6603 237.07C94.8003 237.03 97.1403 240.32 97.6203 244.03C98.0103 247.16 98.3903 250.28 98.7403 253.43C103.82 254.17 109.53 248.86 106.07 243.17C89.2203 215.51 64.3103 194.06 34.4903 181.59Z" fill="black"/>
<path d="M29.5996 179.98C30.2996 180.17 31.0196 180.34 31.7796 180.48C31.0096 180.18 30.2796 180.02 29.5996 179.98Z" fill="black"/>
<path d="M31.7695 180.48C32.6795 180.84 33.5695 181.2 34.4695 181.58C33.7495 181.06 32.8595 180.68 31.7695 180.48Z" fill="black"/>
<path d="M75.82 358.78C74.4 362.25 77.37 366.47 80.67 367.34C84.62 368.38 87.8 365.98 89.22 362.48C90.65 359.02 87.66 354.79 84.37 353.93C80.41 352.88 77.26 355.29 75.82 358.78Z" fill="black"/>
<path d="M76.74 389.06C76.78 389.41 76.55 389.17 76.41 388.96C76.05 390.06 75.25 391.57 76.38 390.58C76.65 390.34 76.83 389.74 77.03 389.43C77.04 389.42 77.05 389.4 77.05 389.39C76.97 389.3 76.91 389.23 76.87 389.19L76.75 389.07L76.74 389.06Z" fill="black"/>
<path d="M76.4502 388.8C76.2702 388.66 76.3102 388.8 76.4102 388.95C76.4202 388.9 76.4302 388.85 76.4502 388.8Z" fill="black"/>
<path d="M76.5602 388.89C76.5602 388.89 76.4801 388.83 76.4501 388.8C76.4301 388.85 76.4202 388.9 76.4102 388.95C76.5502 389.17 76.7902 389.4 76.7402 389.06C76.6902 389.01 76.6402 388.96 76.6002 388.93C76.5802 388.95 76.5702 388.94 76.5602 388.89Z" fill="black"/>
<path d="M76.5602 388.89C76.5402 388.83 76.5302 388.69 76.5402 388.47C76.5502 388.44 76.5402 388.39 76.5402 388.35C76.5302 388.48 76.5002 388.63 76.4502 388.8C76.4802 388.82 76.5102 388.84 76.5602 388.89Z" fill="black"/>
<path d="M76.5996 388.93C76.5996 388.93 76.5696 388.9 76.5596 388.89C76.5696 388.94 76.5796 388.95 76.5996 388.93Z" fill="black"/>
<path d="M76.6796 388.7C76.6696 388.84 76.6396 388.93 76.5996 388.94C76.6396 388.97 76.6896 389.02 76.7396 389.07C76.7396 389.02 76.7296 388.95 76.7096 388.88C76.6996 388.84 76.6896 388.77 76.6796 388.71V388.7Z" fill="black"/>
<path d="M79.6705 392.41C78.9305 391.96 80.4105 393.07 79.6905 392.43L79.6705 392.41Z" fill="black"/>
<path d="M75.8196 358.78C77.2596 355.29 80.4096 352.88 84.3696 353.93C87.6596 354.79 90.6596 359.02 89.2196 362.48C103.29 327.96 102.76 289.97 98.7296 253.43C96.9496 253.17 95.2596 252.18 94.0496 250.19C91.6296 246.23 89.0396 242.39 86.2496 238.69C84.5796 239.97 83.4196 241.9 83.6896 244.02C88.5196 282.3 90.6596 322.33 75.8096 358.78H75.8196Z" fill="black"/>
<path d="M85.4404 115.5C85.8904 119.17 86.5404 122.74 87.3604 126.2C87.9304 128.62 88.6404 130.93 89.4704 133.18" fill="black"/>
<path d="M90.6598 237.07C89.1598 237.08 87.5498 237.7 86.2598 238.7C89.0398 242.4 91.6398 246.24 94.0598 250.2C95.2698 252.18 96.9598 253.18 98.7398 253.44C98.3798 250.29 98.0098 247.16 97.6198 244.04C97.1498 240.33 94.8098 237.04 90.6598 237.08V237.07Z" fill="black"/>
<path d="M215.2 367.38C215.28 367.5 215.35 367.62 215.44 367.73C215.69 367.86 215.91 367.97 216.12 368.01C215.82 367.91 215.51 367.68 215.2 367.38Z" fill="black"/>
<path d="M256.1 392.47C255.06 392.2 256.65 392.84 256.1 392.47V392.47Z" fill="black"/>
<path d="M214.95 367.04C213.41 364.83 214.15 366.36 215.18 367.36L214.95 367.04ZM325.59 336.23C325.6 336.61 325.68 336.51 325.59 336.23V336.23ZM265.04 393.51C270.24 393.75 275.46 393.69 280.65 393.45C293.06 392.84 305.58 391.12 317.37 387.07C324.06 384.78 337.08 379.64 335.54 371.83C333.78 362.94 325.52 354.95 319.25 348.92C317.4 347.14 314.97 345.51 313.64 343.26C310.46 337.87 311.73 330.71 312.58 324.88C313.57 318.05 314.67 312.02 314.79 305.16C314.98 294.38 314.47 283.57 313.24 272.86C312.11 262.93 310.13 253.33 307.22 243.78C304.52 234.93 301.67 226.17 300.52 216.96C296.49 184.47 323.67 159.31 349.19 144.01C354.97 140.55 359.26 137.28 363.72 132.11C367.99 127.15 373.67 121.46 371.64 114.4C369.27 106.2 360.18 100.22 352.73 97.1101C344.73 93.7701 335.61 92.7501 327.1 94.5401C318.72 96.3201 311.22 100.31 305 106.19C303.91 107.23 302.72 107.81 301.54 108.03C301.45 102.71 300.91 97.3901 300.19 92.0901C313.5 81.9401 330.33 77.7401 347.03 80.9501C364.34 84.2801 385.46 97.7401 386.06 117.26C386.31 125.6 381.75 131.79 376.83 137.98C372.4 143.57 367.53 149.31 361.39 153.08C347.48 161.59 333.89 170.44 323.91 183.67C319.33 189.74 315.44 196.75 314.24 204.34C312.81 213.32 315.39 222.67 317.94 231.21C320.84 240.99 323.94 250.56 325.52 260.66C327.29 271.93 328.4 283.31 328.68 294.71C328.91 303.67 328.76 312.5 327.21 321.33C326.67 324.44 326.07 327.54 325.78 330.68C325.64 332.27 325.75 333.86 325.62 335.44C325.61 335.57 325.6 335.69 325.61 335.8C325.36 335.61 325.12 335.41 324.88 335.22C325.34 335.58 325.54 335.97 325.61 336.23C325.6 336.12 325.59 335.98 325.61 335.8C332.06 341.01 337.83 347.87 342.49 354.61C349.16 364.27 353.31 377.08 344.44 386.78C335.83 396.19 322.4 400.78 310.31 403.51C297.41 406.42 284.01 407.67 270.8 407.58C263.13 407.53 253.78 407.93 247.27 403.27C238.08 396.7 230.81 387.01 223.79 378.31C220.99 374.84 218.05 371.39 215.45 367.75C215.7 367.88 215.92 367.99 216.13 368.03C215.83 367.93 215.52 367.7 215.21 367.4C215.29 367.52 215.36 367.64 215.45 367.75C214.45 367.2 213.19 366.11 212.53 365.77C207.24 362.94 200.75 361.23 194.87 363.07C186.55 365.68 180.5 375.09 175.91 381.97C171.22 389.02 167.88 397.53 161.48 403.27C154.21 409.78 145.87 411.71 136.39 412.58C121.14 413.97 105.39 414.49 90.2998 411.37C82.7498 409.81 74.9198 407.02 69.1898 401.68C66.2098 398.91 63.8398 395.27 62.9898 391.27C62.4798 388.88 62.5398 387.18 63.5998 384.86C65.9998 379.62 68.9598 374.58 71.3198 369.28C72.9798 365.55 74.6098 361.79 75.8398 358.81C74.4198 362.28 77.3898 366.5 80.6898 367.37C84.6398 368.41 87.8198 366.01 89.2398 362.51C85.5598 371.43 82.1798 381.22 77.0498 389.41C76.9698 389.32 76.9098 389.25 76.8698 389.21L76.7498 389.09C76.7498 389.04 76.7398 388.97 76.7198 388.9C76.7098 388.86 76.6998 388.79 76.6898 388.73C76.7298 388.46 76.7098 388.01 76.4598 387.67C76.5698 387.92 76.6298 388.41 76.6898 388.73C76.6798 388.87 76.6498 388.96 76.6098 388.97C76.5998 388.95 76.5798 388.94 76.5698 388.93C76.5498 388.87 76.5398 388.73 76.5498 388.51C76.5598 388.48 76.5498 388.43 76.5498 388.39C76.5398 388.52 76.5098 388.67 76.4598 388.84C76.2798 388.7 76.3198 388.84 76.4198 388.99C76.0598 390.1 75.2598 391.61 76.3898 390.62C76.6598 390.38 76.8398 389.78 77.0398 389.47C77.0498 389.46 77.0598 389.44 77.0598 389.43C77.4898 389.95 78.2898 391.03 77.9698 390.77C78.5198 391.35 79.0898 391.91 79.6998 392.45C78.9598 392 80.4398 393.11 79.7198 392.47C79.7998 392.51 79.8998 392.59 80.0398 392.67C80.5698 393.02 81.0898 393.37 81.6398 393.68C82.2398 394.04 82.8598 394.36 83.4698 394.67C84.8598 395.38 84.4598 395.17 85.1798 395.45C95.0798 399.29 106.07 399.78 116.55 399.72C125 399.67 134.29 399.75 142.57 397.93C151.11 396.05 154.85 389.93 158.96 382.9C166.92 369.3 177.83 351.72 194.67 348.91C204.11 347.34 217.65 350.1 224.77 357.18C229.61 362 233.45 368.41 238.58 374.51C242.19 378.82 245.88 383.08 249.84 387.07C251.41 388.66 253.02 390.31 254.81 391.66C255.01 391.81 255.08 391.89 255.89 392.36C255.99 392.41 256.06 392.47 256.12 392.5C255.08 392.23 256.67 392.87 256.12 392.5C256.16 392.51 256.22 392.52 256.27 392.54C256.85 392.7 257.45 392.8 258.03 392.93C258.63 393.05 258.8 393.08 258.82 393.08C258.8 393.06 258.78 393.05 258.84 393.06C260.91 393.31 262.99 393.44 265.06 393.53L265.04 393.51Z" fill="black"/>
<path d="M326.99 334.39C326.74 334.2 326.5 334 326.26 333.81C326.72 334.17 326.92 334.56 326.99 334.82C326.98 334.71 326.97 334.57 326.99 334.39Z" fill="black"/>
<path d="M207.8 69.3299C209.99 68.6099 212.6 68.5299 214.85 68.1299C220.05 67.1999 225.22 66.1499 230.36 64.9299C231.13 64.7499 231.88 64.5599 232.65 64.3799C233.48 69.9299 233.92 75.5599 234.14 81.0599C232.88 81.2899 231.65 81.4999 230.44 81.7099C222.13 83.1499 213.74 84.1499 205.31 84.8199C202.57 85.0399 199.83 85.2299 197.08 85.3599C196.2 85.3999 192.2 85.1999 195.21 85.6699C188.64 84.6299 185.81 94.6799 192.44 95.7299C196.58 96.3899 201.17 95.5799 205.3 95.2599C214.65 94.5199 223.97 93.3699 233.2 91.7799C233.56 91.7199 233.91 91.6599 234.27 91.5999C234.27 92.2299 234.27 92.8499 234.26 93.4699C234.17 100.53 233.81 107.84 232.96 115.13C228.4 115.63 223.82 115.85 219.23 115.85C217.54 115.85 215.84 115.83 214.16 115.74C213.47 115.71 211.42 115.35 212.28 115.56C212.13 115.56 212 115.56 211.85 115.57C211.84 115.58 211.83 115.58 211.83 115.58C206.3 115.97 204.35 124.52 210.44 125.82C210.89 125.92 211.36 126 211.82 126.08C217.99 127.14 224.88 126.61 231.33 125.82C229.05 137.78 225.2 149.37 218.93 159.52C215.38 165.25 224.41 170.49 227.93 164.78C235.42 152.67 239.78 138.64 242.17 124.29C248.87 123.14 255.44 121.42 261.73 118.98C260.95 124.21 259.69 129.35 257.74 134.25C255.25 140.48 265.33 143.19 267.79 137.02C270.72 129.68 272.22 121.71 272.86 113.66C276.68 111.45 280.3 108.88 283.69 105.92C288.75 101.49 281.35 94.1299 276.31 98.5399C275.31 99.4099 274.28 100.25 273.23 101.04C273.19 98.3699 273.09 95.7199 272.94 93.1199C272.71 89.0199 272.38 84.8399 271.85 80.6699C278.06 77.4999 283.59 73.4299 287.77 68.1399C291.88 62.9199 284.55 55.4899 280.39 60.7599C277.55 64.3599 274 67.3099 269.98 69.7399C268.68 63.9499 266.85 58.3099 264.25 53.0699C265.58 52.3699 266.89 51.6299 268.18 50.8499C273.92 47.3799 268.68 38.3499 262.92 41.8499C256 46.0399 248.42 49.0399 240.65 51.3999C238.47 42.9599 235.22 34.9699 230.37 28.1199C226.53 22.6899 217.47 27.8899 221.37 33.3899C225.7 39.5199 228.63 46.6199 230.57 54.1499C229.15 54.4999 227.72 54.8399 226.3 55.1599C220.3 56.5499 213.65 56.9699 207.61 58.5099C206.74 58.7299 205.87 58.9699 205.02 59.2499C200.53 60.7299 199.61 68.3299 205.02 69.3099H205.05C206.05 69.4899 206.98 69.4099 207.79 69.1299V69.3099L207.8 69.3299ZM303.59 92.8899C304.17 100.56 303.99 108.19 303.07 115.49C300.78 116.93 303.42 124.65 301.15 126.19C295.25 130.21 293.68 132.55 299.04 133.17C289.13 160.05 261.87 175.09 234.75 182.54C212.82 188.56 187.36 188.12 165 184.71C143.11 181.37 121.08 173.15 106.18 156.08C105.89 155.75 105.61 155.41 105.32 155.08C98.4596 147.13 92.4596 138.44 89.4496 128.28C87.4896 121.63 86.8596 114.84 86.9896 108.03C92.8796 109.14 90.1996 101.66 84.7596 96.5399C83.1496 95.0199 90.0696 93.4099 88.3296 92.0899C88.4496 91.1199 88.5896 90.1499 88.7296 89.1899C90.0596 79.9799 91.4896 71.0099 94.7496 62.2299C99.3196 49.9199 106.33 38.5799 114.95 28.6899C117.69 25.5399 121 22.9199 124.73 21.0399C133.86 16.4499 153.77 8.11992 181.97 5.64992C221.6 2.18992 253.63 12.9699 270.43 25.3299C290.88 40.3599 301.63 66.8099 303.6 92.8899H303.59Z" fill="#0CACCF"/>
<path d="M255.07 57.97C257.63 63.03 259.31 68.63 260.43 74.38C255.29 76.37 249.83 77.85 244.47 79.04C244.21 73.3 243.68 67.43 242.77 61.65C246.86 60.44 250.91 59.06 254.86 57.47C254.91 57.63 254.99 57.8 255.08 57.98L255.07 57.97Z" fill="#0CACCF"/>
<path d="M262.59 94.6299C262.78 98.8099 262.87 103.06 262.74 107.32C256.69 110.18 250.19 112.15 243.61 113.49C244.3 106.74 244.62 100.01 244.7 93.4499C244.71 92.1799 244.72 90.8899 244.72 89.5899C250.41 88.3799 256.28 86.8899 261.91 84.8999C262.23 88.1899 262.44 91.4599 262.59 94.6299Z" fill="#0CACCF"/>
<path d="M280.4 60.7699C284.55 55.4999 291.88 62.9299 287.78 68.1499C283.61 73.4399 278.07 77.5099 271.86 80.6799C271.41 77.0099 270.8 73.3599 269.99 69.7599C274 67.3199 277.56 64.3799 280.4 60.7799V60.7699Z" fill="black"/>
<path d="M276.32 98.5399C281.36 94.1299 288.75 101.48 283.7 105.92C280.31 108.89 276.69 111.45 272.87 113.66C273.2 109.45 273.3 105.22 273.24 101.04C274.3 100.25 275.32 99.4099 276.32 98.5399Z" fill="black"/>
<path d="M273.24 101.05C273.3 105.22 273.21 109.46 272.87 113.67C269.31 115.74 265.58 117.5 261.74 118.99C262.31 115.14 262.61 111.24 262.74 107.33C266.44 105.59 269.96 103.51 273.23 101.05H273.24Z" fill="black"/>
<path d="M272.95 93.1299C273.1 95.7299 273.2 98.3699 273.24 101.05C269.97 103.51 266.45 105.59 262.75 107.33C262.88 103.07 262.79 98.8199 262.6 94.6399C262.45 91.4699 262.24 88.1999 261.92 84.9099C265.35 83.6999 268.7 82.3099 271.86 80.6799C272.39 84.8499 272.72 89.0399 272.95 93.1299Z" fill="black"/>
<path d="M269.99 69.75C270.8 73.35 271.4 77.01 271.86 80.67C268.7 82.3 265.35 83.69 261.92 84.9C261.59 81.4 261.11 77.86 260.43 74.38C263.79 73.09 267.02 71.55 269.99 69.75Z" fill="black"/>
<path d="M272.87 113.66C272.23 121.7 270.73 129.67 267.8 137.02C265.34 143.19 255.26 140.48 257.75 134.25C259.7 129.35 260.96 124.21 261.74 118.98C265.58 117.49 269.31 115.73 272.87 113.66Z" fill="black"/>
<path d="M262.93 41.8599C268.69 38.3699 273.93 47.3899 268.19 50.8599C266.91 51.6399 265.59 52.3799 264.26 53.0799C264.2 52.9499 264.13 52.8299 264.07 52.6999C261.14 46.8799 252.55 51.6899 254.85 57.4599C250.9 59.0599 246.85 60.4399 242.76 61.6399C242.21 58.1899 241.52 54.7599 240.66 51.4099C248.42 49.0499 256 46.0499 262.93 41.8599Z" fill="black"/>
<path d="M264.27 53.0801C266.87 58.3201 268.69 63.9601 270 69.7501C267.02 71.5501 263.8 73.0801 260.44 74.3801C259.32 68.6301 257.64 63.0201 255.08 57.9701C254.99 57.8001 254.92 57.6201 254.86 57.4601C258.08 56.1701 261.23 54.7201 264.27 53.0801Z" fill="black"/>
<path d="M264.07 52.7001C264.13 52.8301 264.2 52.9501 264.26 53.0801C261.22 54.7201 258.07 56.1601 254.85 57.4601C252.55 51.6901 261.14 46.8801 264.07 52.7001Z" fill="black"/>
<path d="M262.75 107.32C262.62 111.22 262.32 115.13 261.75 118.98C255.46 121.42 248.89 123.13 242.19 124.29C242.78 120.7 243.26 117.1 243.62 113.5C250.2 112.16 256.7 110.19 262.75 107.33V107.32Z" fill="black"/>
<path d="M260.43 74.3801C261.11 77.8601 261.58 81.4001 261.92 84.9001C256.29 86.8901 250.42 88.3801 244.73 89.5901C244.72 86.1501 244.65 82.6101 244.47 79.0301C249.83 77.8401 255.29 76.3701 260.43 74.3701V74.3801Z" fill="black"/>
<path d="M244.73 89.5901C244.73 90.8901 244.72 92.1801 244.71 93.4501C244.63 100.01 244.31 106.74 243.62 113.49C240.9 114.04 238.19 114.48 235.48 114.83C234.64 114.94 233.81 115.03 232.97 115.12C233.82 107.83 234.19 100.52 234.27 93.4601C234.28 92.8501 234.28 92.2201 234.28 91.5901C237.62 91.0001 241.14 90.3501 244.73 89.6001V89.5901Z" fill="black"/>
<path d="M244.47 79.04C244.65 82.62 244.72 86.16 244.73 89.6C241.14 90.35 237.62 91 234.28 91.59C234.3 88.18 234.27 84.65 234.14 81.07C237.46 80.48 240.94 79.83 244.47 79.04Z" fill="black"/>
<path d="M242.76 61.6399C243.68 67.4199 244.2 73.2999 244.46 79.0299C240.93 79.8199 237.45 80.4599 234.13 81.0599C233.91 75.5599 233.47 69.9299 232.64 64.3799C236.02 63.5499 239.39 62.6399 242.75 61.6399H242.76Z" fill="black"/>
<path d="M243.62 113.49C243.25 117.09 242.78 120.69 242.19 124.28C240.79 124.52 239.39 124.73 237.98 124.93C235.86 125.22 233.62 125.53 231.34 125.81C232.01 122.26 232.55 118.69 232.97 115.11C233.81 115.02 234.64 114.93 235.48 114.82C238.19 114.47 240.9 114.03 243.62 113.48V113.49Z" fill="black"/>
<path d="M242.18 124.28C239.79 138.63 235.43 152.66 227.94 164.77C224.41 170.47 215.39 165.23 218.94 159.51C225.22 149.36 229.07 137.77 231.34 125.81C233.63 125.53 235.86 125.22 237.98 124.93C239.38 124.74 240.78 124.52 242.19 124.28H242.18Z" fill="black"/>
<path d="M240.66 51.4099C241.52 54.7599 242.21 58.1899 242.76 61.6399C239.4 62.6399 236.02 63.5499 232.65 64.3799C232.12 60.9299 231.45 57.4999 230.58 54.1599C233.94 53.3299 237.32 52.4199 240.66 51.4099Z" fill="black"/>
<path d="M234.14 81.06C234.27 84.64 234.3 88.18 234.28 91.58C233.92 91.64 233.57 91.7 233.21 91.76C223.98 93.36 214.66 94.5 205.31 95.24C201.18 95.56 196.59 96.37 192.45 95.71C185.82 94.66 188.65 84.61 195.22 85.65C192.2 85.18 196.2 85.38 197.09 85.34C199.84 85.21 202.58 85.02 205.32 84.8C213.74 84.13 222.13 83.14 230.45 81.69C231.66 81.49 232.89 81.27 234.15 81.04L234.14 81.06Z" fill="black"/>
<path d="M230.38 28.1301C235.22 34.9801 238.48 42.9701 240.66 51.4101C237.32 52.4201 233.94 53.3301 230.58 54.1601C228.64 46.6301 225.72 39.5301 221.38 33.4001C217.49 27.9001 226.55 22.6901 230.38 28.1301Z" fill="black"/>
<path d="M213.22 115.76C212.77 115.66 212.48 115.6 212.3 115.56C218.55 115.56 218.36 125.55 211.86 126.01H211.84C212.3 122.59 212.76 119.18 213.22 115.77V115.76Z" fill="black"/>
<path d="M211.86 126C218.36 125.54 218.56 115.55 212.3 115.55H212.29C211.43 115.35 213.48 115.7 214.17 115.73C215.85 115.82 217.55 115.84 219.24 115.84C223.82 115.84 228.41 115.61 232.97 115.12C232.55 118.7 232.01 122.27 231.34 125.82C224.89 126.61 218 127.14 211.83 126.08V126H211.86Z" fill="black"/>
<path d="M212.3 115.55C212.47 115.59 212.76 115.66 213.22 115.75C212.76 119.17 212.3 122.58 211.84 125.99V126.07C211.37 125.99 210.9 125.91 210.45 125.81C204.36 124.51 206.31 115.95 211.84 115.57C211.84 115.57 211.85 115.57 211.86 115.56C212.01 115.55 212.14 115.55 212.29 115.55H212.3Z" fill="black"/>
<path d="M207.84 59.27C213.44 60.28 212.28 67.64 207.81 69.15V59.27H207.84Z" fill="black"/>
<path d="M207.84 59.2699H207.81L207.63 58.5299C213.67 56.9899 220.32 56.5699 226.32 55.1799C227.74 54.8599 229.17 54.5099 230.59 54.1699C231.46 57.5099 232.13 60.9399 232.66 64.3899C231.89 64.5699 231.14 64.7599 230.37 64.9399C225.24 66.1599 220.06 67.2199 214.86 68.1399C212.61 68.5399 210 68.6099 207.81 69.3399V69.1599C212.29 67.6499 213.44 60.2999 207.84 59.2799V59.2699Z" fill="black"/>
<path d="M207.8 59.27V69.15C206.99 69.43 206.06 69.52 205.06 69.33H205.03C199.62 68.35 200.54 60.75 205.03 59.27C205.88 58.99 206.74 58.74 207.62 58.53L207.8 59.27Z" fill="black"/>
<path d="M87.9 115.5C86.98 108.2 86.8 100.56 87.38 92.8999C89.35 66.8299 100.1 40.3699 120.55 25.3399C137.35 12.9799 169.38 2.19993 209.01 5.65993C237.21 8.12993 257.12 16.4499 266.25 21.0499C269.98 22.9299 273.29 25.5499 276.03 28.6999C284.65 38.5899 291.66 49.9199 296.23 62.2399C299.49 71.0199 300.92 79.9899 302.25 89.1999C302.39 90.1599 302.53 91.1299 302.65 92.0999C303.37 97.3899 303.91 102.72 304 108.04C304.13 114.86 303.5 121.64 301.54 128.29C298.53 138.45 292.53 147.14 285.67 155.09C285.38 155.42 285.1 155.76 284.81 156.09C269.91 173.16 247.88 181.38 225.99 184.72C203.64 188.13 178.18 188.57 156.24 182.55C129.12 175.1 101.86 160.07 91.95 133.18C91.12 130.94 90.41 128.62 89.84 126.2C89.02 122.74 88.37 119.17 87.92 115.5H87.9Z" stroke="black" stroke-width="10" stroke-miterlimit="10"/>
<path d="M248.93 368.28C249 368.39 249.07 368.5 249.15 368.6C249.38 368.72 249.59 368.82 249.78 368.86C249.5 368.77 249.21 368.55 248.93 368.28Z" fill="black"/>
<path d="M286.86 391.55C285.9 391.3 287.37 391.89 286.86 391.55V391.55Z" fill="black"/>
</g>
<defs>
<clipPath id="clip0_1619_6269">
<rect width="386.06" height="413.65" fill="white"/>
</clipPath>
</defs>
</svg>
