<svg width="14" height="14" viewBox="0 0 14 14" fill="none" xmlns="http://www.w3.org/2000/svg">
<path d="M6.2284 2.87461L2.20778 9.62461C2.13825 9.73704 2.1002 9.86689 2.09778 9.99998C2.09536 10.1331 2.12866 10.2643 2.19405 10.3793C2.25654 10.496 2.34857 10.5933 2.46045 10.6609C2.57234 10.7286 2.69995 10.7641 2.82985 10.7637L10.8803 10.7637C11.0102 10.7641 11.1378 10.7286 11.2497 10.6609C11.3615 10.5933 11.4536 10.496 11.5161 10.3793C11.5814 10.2643 11.6147 10.1331 11.6123 9.99998C11.6099 9.86689 11.5719 9.73704 11.5023 9.62461L7.48171 2.87461C7.41658 2.76397 7.32466 2.67246 7.21487 2.60893C7.10508 2.54541 6.98114 2.51203 6.85505 2.51203C6.72897 2.51203 6.60503 2.54541 6.49524 2.60893C6.38545 2.67246 6.29353 2.76397 6.2284 2.87461Z" fill="#FE0202"/>
</svg>
