<svg width="274" height="196" viewBox="0 0 274 196" fill="none" xmlns="http://www.w3.org/2000/svg">
<g filter="url(#filter0_d_1002_2015)">
<path d="M69.0696 106.595L71.0486 107.51C71.6333 105.618 71.9256 103.649 71.9227 101.607V98.9355L64.9653 100.069V102.74C64.9741 105.181 64.2287 107.595 62.7349 109.977C61.2411 112.362 58.6628 114.856 55 117.466L58.8353 122.356C62.7408 119.529 65.7546 116.657 67.8769 113.732L65.1583 112.448L69.0667 106.598L69.0696 106.595Z" fill="white"/>
<path d="M81.6237 112.392L72.2196 107.51C71.6876 109.233 70.9158 110.895 69.8985 112.489C69.6354 112.902 69.3519 113.316 69.0508 113.729L77.8468 118.436L81.6237 112.392Z" fill="white"/>
<path d="M71.0476 107.51L69.0685 106.595L65.1602 112.445L67.8788 113.729C68.1799 113.315 68.4605 112.902 68.7265 112.489C69.7438 110.892 70.5155 109.23 71.0476 107.51Z" fill="white"/>
<path opacity="0.99" d="M90.2188 122.409C89.336 121.231 88.117 120.417 86.5619 119.968C85.0067 119.519 83.244 119.455 81.2796 119.773L71.5978 121.349C69.6333 121.668 67.8794 122.309 66.3418 123.262C64.8012 124.218 63.5998 125.426 62.7374 126.887C61.8721 128.351 61.4424 129.971 61.4453 131.751C61.4453 133.501 61.8838 134.968 62.7491 136.149C63.6144 137.329 64.8217 138.144 66.3622 138.598C67.9028 139.05 69.6567 139.118 71.6211 138.796L81.3029 137.22C83.2674 136.901 85.0272 136.261 86.5823 135.305C88.1346 134.348 89.3506 133.135 90.2305 131.671C91.1075 130.207 91.546 128.599 91.5431 126.845C91.5431 125.065 91.0987 123.587 90.2159 122.409H90.2188ZM83.586 130.124C82.8523 130.733 81.797 131.149 80.4201 131.373L72.501 132.663C71.1505 132.884 70.1157 132.807 69.3966 132.436C68.6774 132.064 68.315 131.45 68.315 130.588C68.315 129.726 68.6716 128.994 69.3907 128.386C70.1069 127.781 71.1417 127.368 72.4923 127.149L80.4114 125.859C81.7882 125.635 82.8464 125.706 83.5802 126.075C84.3139 126.444 84.6822 127.058 84.6822 127.92C84.6822 128.782 84.3168 129.516 83.586 130.124Z" fill="white"/>
<path d="M96.5088 116.99L96.5 111.347L135.572 104.977L135.581 110.62L96.5088 116.99Z" fill="white"/>
<path d="M130.439 117.663C129.585 116.654 128.36 115.948 126.761 115.547C125.162 115.148 123.291 115.122 121.149 115.47L110.941 117.135C108.798 117.483 106.93 118.118 105.331 119.039C103.732 119.959 102.51 121.063 101.659 122.35C100.809 123.637 100.388 125.012 100.391 126.479C100.391 127.943 100.82 129.18 101.671 130.193C102.525 131.202 103.749 131.907 105.348 132.309C106.947 132.707 108.818 132.734 110.961 132.386L121.169 130.721C123.309 130.373 125.18 129.738 126.779 128.817C128.375 127.896 129.6 126.792 130.45 125.505C131.298 124.219 131.722 122.843 131.719 121.376C131.719 119.912 131.289 118.673 130.439 117.663ZM123.648 124.201C122.841 124.676 121.543 125.06 119.754 125.352L112.361 126.556C110.572 126.848 109.274 126.887 108.468 126.674C107.661 126.462 107.257 126.01 107.254 125.319C107.254 124.632 107.655 124.047 108.462 123.572C109.269 123.097 110.566 122.713 112.355 122.421L119.748 121.217C121.537 120.925 122.835 120.886 123.642 121.099C124.449 121.311 124.852 121.763 124.855 122.453C124.855 123.144 124.455 123.726 123.648 124.201Z" fill="white"/>
<path d="M112.609 111.952L112.598 105.447L119.461 104.328L119.473 110.833L112.609 111.952Z" fill="white"/>
<path d="M115.533 95.2312L118.792 95.7831C119.227 94.511 119.447 93.168 119.444 91.7513V90.3286L113.019 91.3764V92.7991C113.024 94.5523 111.975 96.2819 109.882 97.985C107.786 99.691 104.246 101.509 99.2617 103.442L101.118 108.785C105.576 107.167 109.145 105.488 111.829 103.744C112.937 103.023 113.916 102.285 114.772 101.53L112.992 101.249L115.535 95.2341L115.533 95.2312Z" fill="white"/>
<path d="M133.96 98.1504L119.961 95.7832C119.674 96.6215 119.297 97.7253 118.818 98.5016C118.113 99.6439 117.502 100.512 116.289 101.586L131.636 104.003L133.96 98.1533V98.1504Z" fill="white"/>
<path d="M117.648 98.2032C118.124 97.4299 118.504 96.6212 118.791 95.7829L115.532 95.231L112.988 101.246L114.769 101.527C115.982 100.455 116.943 99.3455 117.648 98.2032Z" fill="white"/>
<path d="M149.816 93.9087L151.292 94.8975C151.83 92.8521 152.099 90.7033 152.096 88.4542V85.8687L145.227 86.9873V89.5729C145.236 92.0729 144.671 94.5699 143.546 97.064C142.42 99.561 140.494 102.037 137.77 104.49L141.999 108.799C144.718 106.42 146.878 103.941 148.48 101.361L145.507 99.3514L149.813 93.9087H149.816Z" fill="white"/>
<path d="M159.288 100.252L152.17 95.1929C151.766 96.7247 151.211 98.2035 150.503 99.6232C150.161 100.308 149.778 100.987 149.363 101.657L155.116 105.845L159.288 100.252Z" fill="white"/>
<path d="M151.29 94.8975L149.814 93.9087L145.508 99.3514L148.481 101.361C148.899 100.688 149.279 100.013 149.621 99.3278C150.328 97.9081 150.884 96.4323 151.287 94.8975H151.29Z" fill="white"/>
<path d="M174.487 108.675C173.604 107.498 172.393 106.683 170.853 106.228C169.312 105.777 167.544 105.712 165.55 106.037L155.561 107.666C153.565 107.991 151.799 108.631 150.262 109.584C148.721 110.541 147.514 111.748 146.637 113.212C145.76 114.676 145.321 116.299 145.324 118.079C145.324 119.829 145.769 121.296 146.651 122.474C147.534 123.652 148.753 124.466 150.308 124.915C151.864 125.364 153.623 125.431 155.591 125.11L165.579 123.48C167.544 123.162 169.304 122.521 170.859 121.565C172.411 120.609 173.627 119.395 174.507 117.931C175.384 116.467 175.822 114.859 175.82 113.106C175.82 111.326 175.375 109.847 174.492 108.669L174.487 108.675ZM167.851 116.394C167.117 117.002 166.062 117.418 164.685 117.642L156.456 118.982C155.076 119.207 154.021 119.136 153.287 118.767C152.553 118.398 152.185 117.784 152.185 116.922C152.185 116.06 152.55 115.325 153.281 114.717C154.012 114.109 155.07 113.693 156.447 113.469L164.676 112.129C166.053 111.904 167.111 111.975 167.845 112.344C168.579 112.713 168.947 113.327 168.947 114.189C168.947 115.051 168.582 115.786 167.851 116.394Z" fill="white"/>
<path d="M163.503 96.2021L163.497 90.3432L165.915 89.9507L165.906 82.9702L159.656 83.9885L159.688 105.098L165.935 104.08L165.924 95.8096L163.503 96.2021Z" fill="white"/>
<path d="M171.031 94.9775L171.022 89.1187L165.918 89.951L165.927 95.8099L171.031 94.9775Z" fill="white"/>
<path d="M163.506 96.2021L165.926 95.8096L165.918 89.9507L163.5 90.3432L163.506 96.2021Z" fill="white"/>
<path d="M168.931 104.024L168.898 82.0522L175.324 81.0044L175.356 102.976L168.931 104.024Z" fill="white"/>
<path d="M179.928 103.392L179.922 97.7489L218.994 91.3823L219.003 97.0257L179.928 103.392Z" fill="white"/>
<path d="M213.865 104.068C213.012 103.059 211.787 102.353 210.188 101.952C208.586 101.554 206.718 101.527 204.575 101.875L194.367 103.54C192.225 103.888 190.357 104.523 188.758 105.444C187.159 106.365 185.937 107.469 185.089 108.755C184.238 110.042 183.817 111.418 183.82 112.885C183.82 114.349 184.25 115.585 185.101 116.598C185.954 117.607 187.179 118.313 188.778 118.714C190.377 119.113 192.248 119.139 194.391 118.791L204.599 117.126C206.739 116.778 208.609 116.143 210.208 115.222C211.805 114.301 213.029 113.198 213.877 111.911C214.725 110.624 215.149 109.248 215.149 107.781C215.149 106.317 214.719 105.081 213.868 104.068H213.865ZM207.075 110.603C206.268 111.078 204.97 111.462 203.181 111.754L195.788 112.958C193.999 113.251 192.701 113.289 191.894 113.077C191.088 112.864 190.684 112.412 190.681 111.722C190.681 111.034 191.082 110.45 191.888 109.974C192.695 109.499 193.993 109.116 195.782 108.823L203.175 107.619C204.964 107.327 206.262 107.289 207.069 107.501C207.876 107.714 208.279 108.165 208.282 108.856C208.282 109.546 207.882 110.128 207.075 110.603Z" fill="white"/>
<path d="M196.028 98.3568L196.02 91.8516L202.883 90.7329L202.895 97.2382L196.028 98.3568Z" fill="white"/>
<path d="M203.878 82.4805C203.591 83.3187 203.214 84.1274 202.735 84.9037C202.03 86.046 201.069 87.1558 199.855 88.2272L214.966 90.4054L217.29 84.5554L203.875 82.4834L203.878 82.4805Z" fill="white"/>
<path d="M202.215 82.1852C202.65 80.913 202.869 79.5701 202.866 78.1533V78.053H202.869L202.84 53L198.87 53.6139V53.5903L159.795 59.9569V60.0366L121.618 66.2585V66.3086L84.1914 72.4066L84.2528 72.7933L84.1914 72.8051L84.1973 76.7247H84.1914L84.1973 76.7543L84.2089 85.7654H84.1943L84.2089 85.8628L84.2206 95.8509L84.1943 95.8568L84.2265 117.828L91.0903 116.71L91.064 98.5044L91.0903 98.4985L91.0815 90.2813L160.702 78.8174L196.435 72.994L196.441 77.7814V79.2041C196.441 80.9573 195.398 82.684 193.302 84.39C191.206 86.096 187.666 87.9142 182.681 89.8474L184.538 95.1898C188.996 93.5723 192.565 91.8929 195.248 90.1485C196.356 89.4283 197.336 88.6904 198.192 87.9348C199.405 86.8634 200.367 85.7536 201.072 84.6114C201.548 83.838 201.928 83.0293 202.215 82.1881V82.1852ZM159.798 73.3186V73.3983L121.621 79.6202V79.6704L91.0757 84.6497V81.2436L160.702 69.7767L196.427 63.9533V67.3506L159.798 73.3216V73.3186Z" fill="white"/>
</g>
<defs>
<filter id="filter0_d_1002_2015" x="0" y="0" width="274.004" height="195.996" filterUnits="userSpaceOnUse" color-interpolation-filters="sRGB">
<feFlood flood-opacity="0" result="BackgroundImageFix"/>
<feColorMatrix in="SourceAlpha" type="matrix" values="0 0 0 0 0 0 0 0 0 0 0 0 0 0 0 0 0 0 127 0" result="hardAlpha"/>
<feOffset dy="2"/>
<feGaussianBlur stdDeviation="27.5"/>
<feComposite in2="hardAlpha" operator="out"/>
<feColorMatrix type="matrix" values="0 0 0 0 0.984314 0 0 0 0 0.427451 0 0 0 0 0.662745 0 0 0 1 0"/>
<feBlend mode="normal" in2="BackgroundImageFix" result="effect1_dropShadow_1002_2015"/>
<feBlend mode="normal" in="SourceGraphic" in2="effect1_dropShadow_1002_2015" result="shape"/>
</filter>
</defs>
</svg>

