<svg width="274" height="196" viewBox="0 0 274 196" fill="none" xmlns="http://www.w3.org/2000/svg">
<g filter="url(#filter0_d_793_1565)">
<path d="M69.0657 106.598L71.0447 107.513C71.6294 105.621 71.9217 103.652 71.9188 101.61V98.9385L64.9614 100.072V102.743C64.9702 105.184 64.2248 107.598 62.731 109.98C61.2372 112.365 58.6589 114.859 54.9961 117.468L58.8314 122.359C62.7369 119.532 65.7507 116.66 67.873 113.735L65.1544 112.451L69.0628 106.601L69.0657 106.598Z" fill="white"/>
<path d="M81.6198 112.395L72.2157 107.513C71.6836 109.236 70.9119 110.898 69.8946 112.492C69.6315 112.905 69.348 113.318 69.0469 113.732L77.8429 118.439L81.6198 112.395Z" fill="white"/>
<path d="M71.0437 107.513L69.0646 106.598L65.1562 112.448L67.8749 113.732C68.176 113.318 68.4566 112.905 68.7226 112.492C69.7399 110.895 70.5116 109.233 71.0437 107.513Z" fill="white"/>
<path opacity="0.99" d="M90.2149 122.412C89.3321 121.234 88.1131 120.42 86.558 119.971C85.0028 119.522 83.2401 119.457 81.2757 119.776L71.5939 121.352C69.6294 121.671 67.8755 122.312 66.3379 123.265C64.7973 124.221 63.5959 125.429 62.7335 126.89C61.8682 128.354 61.4385 129.974 61.4414 131.754C61.4414 133.504 61.8799 134.971 62.7452 136.152C63.6105 137.332 64.8178 138.147 66.3583 138.601C67.8989 139.053 69.6528 139.121 71.6172 138.799L81.299 137.223C83.2635 136.904 85.0233 136.264 86.5784 135.307C88.1307 134.351 89.3467 133.138 90.2266 131.674C91.1036 130.21 91.5421 128.601 91.5392 126.848C91.5392 125.068 91.0948 123.59 90.212 122.412H90.2149ZM83.5821 130.127C82.8484 130.735 81.7931 131.152 80.4162 131.376L72.4971 132.666C71.1466 132.887 70.1118 132.81 69.3927 132.439C68.6735 132.067 68.3111 131.453 68.3111 130.591C68.3111 129.729 68.6677 128.997 69.3868 128.389C70.103 127.784 71.1378 127.371 72.4884 127.152L80.4074 125.862C81.7843 125.638 82.8425 125.709 83.5762 126.078C84.31 126.447 84.6783 127.061 84.6783 127.923C84.6783 128.784 84.3129 129.519 83.5821 130.127Z" fill="white"/>
<path d="M96.5049 116.993L96.4961 111.349L135.568 104.98L135.577 110.623L96.5049 116.993Z" fill="white"/>
<path d="M130.435 117.666C129.581 116.657 128.356 115.951 126.757 115.55C125.158 115.151 123.287 115.125 121.145 115.473L110.937 117.138C108.794 117.486 106.926 118.121 105.327 119.041C103.728 119.962 102.506 121.066 101.655 122.353C100.805 123.64 100.384 125.015 100.387 126.482C100.387 127.946 100.816 129.183 101.667 130.195C102.521 131.205 103.746 131.91 105.345 132.312C106.944 132.71 108.814 132.737 110.957 132.388L121.165 130.724C123.305 130.375 125.176 129.741 126.775 128.82C128.371 127.899 129.596 126.795 130.446 125.508C131.294 124.221 131.718 122.846 131.715 121.379C131.715 119.915 131.285 118.675 130.435 117.666ZM123.644 124.204C122.837 124.679 121.539 125.063 119.75 125.355L112.357 126.559C110.568 126.851 109.27 126.89 108.464 126.677C107.657 126.465 107.253 126.013 107.251 125.322C107.251 124.635 107.651 124.05 108.458 123.575C109.265 123.1 110.563 122.716 112.352 122.424L119.744 121.22C121.534 120.927 122.831 120.889 123.638 121.102C124.445 121.314 124.848 121.766 124.851 122.456C124.851 123.147 124.451 123.729 123.644 124.204Z" fill="white"/>
<path d="M112.605 111.955L112.594 105.45L119.458 104.331L119.469 110.836L112.605 111.955Z" fill="white"/>
<path d="M115.529 95.2341L118.788 95.7861C119.224 94.5139 119.443 93.171 119.44 91.7542V90.3315L113.015 91.3794V92.802C113.02 94.5552 111.971 96.2849 109.878 97.9879C107.782 99.6939 104.242 101.512 99.2578 103.445L101.114 108.788C105.572 107.17 109.141 105.491 111.825 103.746C112.933 103.026 113.912 102.288 114.769 101.533L112.988 101.252L115.532 95.2371L115.529 95.2341Z" fill="white"/>
<path d="M133.956 98.1533L119.957 95.7861C119.67 96.6244 119.293 97.7283 118.814 98.5045C118.109 99.6468 117.498 100.515 116.285 101.589L131.632 104.006L133.956 98.1562V98.1533Z" fill="white"/>
<path d="M117.644 98.2061C118.121 97.4328 118.501 96.6241 118.787 95.7858L115.528 95.2339L112.984 101.249L114.765 101.53C115.978 100.458 116.94 99.3484 117.644 98.2061Z" fill="white"/>
<path d="M149.812 93.9117L151.289 94.9004C151.826 92.855 152.095 90.7063 152.092 88.4572V85.8716L145.223 86.9902V89.5758C145.232 92.0758 144.667 94.5728 143.542 97.0669C142.417 99.5639 140.49 102.04 137.766 104.493L141.996 108.802C144.714 106.423 146.874 103.944 148.476 101.364L145.503 99.3544L149.809 93.9117H149.812Z" fill="white"/>
<path d="M159.284 100.255L152.166 95.1958C151.762 96.7277 151.207 98.2064 150.499 99.6261C150.157 100.311 149.774 100.99 149.359 101.66L155.112 105.848L159.284 100.255Z" fill="white"/>
<path d="M151.286 94.9004L149.81 93.9116L145.504 99.3543L148.477 101.364C148.895 100.691 149.275 100.015 149.617 99.3307C150.324 97.911 150.88 96.4352 151.283 94.9004H151.286Z" fill="white"/>
<path d="M174.483 108.678C173.6 107.501 172.39 106.686 170.849 106.231C169.308 105.78 167.54 105.715 165.546 106.04L155.558 107.669C153.561 107.994 151.795 108.634 150.258 109.587C148.717 110.544 147.51 111.751 146.633 113.215C145.756 114.679 145.317 116.302 145.32 118.082C145.32 119.832 145.765 121.299 146.647 122.477C147.53 123.655 148.749 124.469 150.304 124.918C151.86 125.366 153.619 125.434 155.587 125.113L165.576 123.483C167.54 123.165 169.3 122.524 170.855 121.568C172.407 120.611 173.623 119.398 174.503 117.934C175.38 116.47 175.819 114.862 175.816 113.109C175.816 111.329 175.371 109.85 174.488 108.672L174.483 108.678ZM167.847 116.397C167.113 117.005 166.058 117.421 164.681 117.645L156.452 118.985C155.072 119.209 154.017 119.139 153.283 118.77C152.55 118.401 152.181 117.787 152.181 116.925C152.181 116.063 152.547 115.328 153.277 114.72C154.008 114.112 155.066 113.696 156.443 113.472L164.672 112.132C166.049 111.907 167.107 111.978 167.841 112.347C168.575 112.716 168.943 113.33 168.943 114.192C168.943 115.054 168.578 115.789 167.847 116.397Z" fill="white"/>
<path d="M163.499 96.2051L163.493 90.3462L165.911 89.9536L165.902 82.9731L159.652 83.9914L159.684 105.101L165.931 104.083L165.92 95.8125L163.499 96.2051Z" fill="white"/>
<path d="M171.027 94.9805L171.018 89.1216L165.914 89.9539L165.923 95.8128L171.027 94.9805Z" fill="white"/>
<path d="M163.502 96.205L165.922 95.8125L165.914 89.9536L163.496 90.3462L163.502 96.205Z" fill="white"/>
<path d="M168.927 104.027L168.895 82.0551L175.32 81.0073L175.352 102.979L168.927 104.027Z" fill="white"/>
<path d="M179.924 103.395L179.918 97.7518L218.99 91.3853L218.999 97.0287L179.924 103.395Z" fill="white"/>
<path d="M213.862 104.071C213.008 103.062 211.783 102.356 210.184 101.955C208.582 101.557 206.714 101.53 204.571 101.878L194.363 103.543C192.221 103.891 190.353 104.526 188.754 105.447C187.155 106.368 185.933 107.471 185.085 108.758C184.234 110.045 183.813 111.421 183.816 112.888C183.816 114.352 184.246 115.588 185.097 116.601C185.95 117.61 187.175 118.316 188.774 118.717C190.373 119.115 192.244 119.142 194.387 118.794L204.595 117.129C206.735 116.781 208.606 116.146 210.205 115.225C211.801 114.304 213.025 113.2 213.873 111.914C214.721 110.627 215.145 109.251 215.145 107.784C215.145 106.32 214.715 105.084 213.864 104.071H213.862ZM207.071 110.606C206.264 111.081 204.966 111.465 203.177 111.757L195.784 112.961C193.995 113.254 192.697 113.292 191.89 113.079C191.084 112.867 190.68 112.415 190.677 111.725C190.677 111.037 191.078 110.453 191.885 109.977C192.691 109.502 193.989 109.118 195.778 108.826L203.171 107.622C204.96 107.33 206.258 107.291 207.065 107.504C207.872 107.716 208.275 108.168 208.278 108.859C208.278 109.549 207.878 110.131 207.071 110.606Z" fill="white"/>
<path d="M196.024 98.3598L196.016 91.8545L202.879 90.7358L202.891 97.2411L196.024 98.3598Z" fill="white"/>
<path d="M203.874 82.4834C203.587 83.3216 203.21 84.1304 202.731 84.9066C202.026 86.0489 201.065 87.1587 199.852 88.2301L214.962 90.4084L217.286 84.5584L203.871 82.4864L203.874 82.4834Z" fill="white"/>
<path d="M202.211 82.1881C202.646 80.916 202.865 79.573 202.863 78.1562V78.0559H202.865L202.836 53.0029L198.866 53.6169V53.5932L159.791 59.9598V60.0395L121.614 66.2614V66.3116L84.1875 72.4095L84.2489 72.7962L84.1875 72.808L84.1933 76.7277H84.1875L84.1933 76.7572L84.205 85.7683H84.1904L84.205 85.8657L84.2167 95.8539L84.1904 95.8598L84.2226 117.831L91.0864 116.713L91.0601 98.5073L91.0864 98.5014L91.0776 90.2843L160.698 78.8203L196.431 72.9969L196.437 77.7843V79.207C196.437 80.9602 195.394 82.6869 193.298 84.3929C191.202 86.0989 187.662 87.9171 182.678 89.8504L184.534 95.1927C188.992 93.5753 192.561 91.8958 195.245 90.1514C196.352 89.4312 197.332 88.6934 198.188 87.9378C199.401 86.8663 200.363 85.7565 201.068 84.6143C201.544 83.841 201.924 83.0322 202.211 82.191V82.1881ZM159.794 73.3216V73.4013L121.617 79.6232V79.6733L91.0717 84.6527V81.2465L160.698 69.7797L196.423 63.9562V67.3535L159.794 73.3245V73.3216Z" fill="white"/>
</g>
<defs>
<filter id="filter0_d_793_1565" x="-0.00390625" y="0.00292969" width="274.004" height="195.996" filterUnits="userSpaceOnUse" color-interpolation-filters="sRGB">
<feFlood flood-opacity="0" result="BackgroundImageFix"/>
<feColorMatrix in="SourceAlpha" type="matrix" values="0 0 0 0 0 0 0 0 0 0 0 0 0 0 0 0 0 0 127 0" result="hardAlpha"/>
<feOffset dy="2"/>
<feGaussianBlur stdDeviation="27.5"/>
<feComposite in2="hardAlpha" operator="out"/>
<feColorMatrix type="matrix" values="0 0 0 0 0.984314 0 0 0 0 0.427451 0 0 0 0 0.662745 0 0 0 1 0"/>
<feBlend mode="normal" in2="BackgroundImageFix" result="effect1_dropShadow_793_1565"/>
<feBlend mode="normal" in="SourceGraphic" in2="effect1_dropShadow_793_1565" result="shape"/>
</filter>
</defs>
</svg>
