<svg width="30" height="30" viewBox="0 0 30 30" fill="none" xmlns="http://www.w3.org/2000/svg">
<path d="M13.75 21.25H16.25V16.25H21.25V13.75H16.25V8.75H13.75V13.75H8.75V16.25H13.75V21.25ZM15 27.5C13.2708 27.5 11.6458 27.1771 10.125 26.5312C8.60417 25.8646 7.28125 24.9687 6.15625 23.8437C5.03125 22.7187 4.13542 21.3958 3.46875 19.875C2.82292 18.3542 2.5 16.7292 2.5 15C2.5 13.2708 2.82292 11.6458 3.46875 10.125C4.13542 8.60417 5.03125 7.28125 6.15625 6.15625C7.28125 5.03125 8.60417 4.14583 10.125 3.5C11.6458 2.83333 13.2708 2.5 15 2.5C16.7292 2.5 18.3542 2.83333 19.875 3.5C21.3958 4.14583 22.7188 5.03125 23.8438 6.15625C24.9688 7.28125 25.8542 8.60417 26.5 10.125C27.1667 11.6458 27.5 13.2708 27.5 15C27.5 16.7292 27.1667 18.3542 26.5 19.875C25.8542 21.3958 24.9688 22.7187 23.8438 23.8437C22.7188 24.9687 21.3958 25.8646 19.875 26.5312C18.3542 27.1771 16.7292 27.5 15 27.5ZM15 25C17.7917 25 20.1563 24.0312 22.0938 22.0938C24.0313 20.1562 25 17.7917 25 15C25 12.2083 24.0313 9.84375 22.0938 7.90625C20.1563 5.96875 17.7917 5 15 5C12.2083 5 9.84375 5.96875 7.90625 7.90625C5.96875 9.84375 5 12.2083 5 15C5 17.7917 5.96875 20.1562 7.90625 22.0938C9.84375 24.0312 12.2083 25 15 25Z" fill="white"/>
</svg>
